<svg width="142.88320528055166" height="142.88320528055166" xmlns="http://www.w3.org/2000/svg">
<line x1="121.44160264027583" y1="21.441602640275832" x2="21.441602640275832" y2="21.441602640275832" stroke="black" stroke-width="1"/>
<line x1="21.441602640275832" y1="21.441602640275832" x2="21.441602640275832" y2="121.44160264027583" stroke="black" stroke-width="1"/>
<line x1="21.441602640275832" y1="121.44160264027583" x2="121.44160264027583" y2="121.44160264027583" stroke="black" stroke-width="1"/>
<line x1="121.44160264027583" y1="121.44160264027583" x2="121.44160264027583" y2="21.441602640275832" stroke="black" stroke-width="1"/>
<line x1="129.36439917423274" y1="30.88362387301195" x2="30.88362387301195" y2="13.518806106318912" stroke="black" stroke-width="1"/>
<line x1="30.88362387301195" y1="13.518806106318912" x2="13.518806106318912" y2="111.99958140753972" stroke="black" stroke-width="1"/>
<line x1="13.518806106318912" y1="111.99958140753972" x2="111.99958140753972" y2="129.36439917423274" stroke="black" stroke-width="1"/>
<line x1="111.99958140753972" y1="129.36439917423274" x2="129.36439917423274" y2="30.88362387301195" stroke="black" stroke-width="1"/>
<line x1="135.5272408458547" y1="41.557978767263855" x2="41.557978767263855" y2="7.355964434696986" stroke="black" stroke-width="1"/>
<line x1="41.557978767263855" y1="7.355964434696986" x2="7.355964434696986" y2="101.32522651328782" stroke="black" stroke-width="1"/>
<line x1="7.355964434696986" y1="101.32522651328782" x2="101.32522651328782" y2="135.5272408458547" stroke="black" stroke-width="1"/>
<line x1="101.32522651328782" y1="135.5272408458547" x2="135.5272408458547" y2="41.557978767263855" stroke="black" stroke-width="1"/>
<line x1="139.74287282949774" y1="53.1403324510539" x2="53.1403324510539" y2="3.140332451053922" stroke="black" stroke-width="1"/>
<line x1="53.1403324510539" y1="3.140332451053922" x2="3.140332451053922" y2="89.74287282949777" stroke="black" stroke-width="1"/>
<line x1="3.140332451053922" y1="89.74287282949777" x2="89.74287282949777" y2="139.74287282949774" stroke="black" stroke-width="1"/>
<line x1="89.74287282949777" y1="139.74287282949774" x2="139.74287282949774" y2="53.1403324510539" stroke="black" stroke-width="1"/>
<line x1="141.88320528055166" y1="65.2787609686539" x2="65.2787609686539" y2="1.0" stroke="black" stroke-width="1"/>
<line x1="65.2787609686539" y1="1.0" x2="1.0" y2="77.60444431189777" stroke="black" stroke-width="1"/>
<line x1="1.0" y1="77.60444431189777" x2="77.60444431189777" y2="141.88320528055166" stroke="black" stroke-width="1"/>
<line x1="77.60444431189777" y1="141.88320528055166" x2="141.88320528055166" y2="65.2787609686539" stroke="black" stroke-width="1"/>
<line x1="141.88320528055164" y1="77.60444431189777" x2="77.60444431189777" y2="1.0000000000000142" stroke="black" stroke-width="1"/>
<line x1="77.60444431189777" y1="1.0000000000000142" x2="1.0000000000000142" y2="65.2787609686539" stroke="black" stroke-width="1"/>
<line x1="1.0000000000000142" y1="65.2787609686539" x2="65.2787609686539" y2="141.88320528055164" stroke="black" stroke-width="1"/>
<line x1="65.2787609686539" y1="141.88320528055164" x2="141.88320528055164" y2="77.60444431189777" stroke="black" stroke-width="1"/>
<line x1="139.7428728294977" y1="89.74287282949774" x2="89.74287282949774" y2="3.1403324510539505" stroke="black" stroke-width="1"/>
<line x1="89.74287282949774" y1="3.1403324510539505" x2="3.1403324510539505" y2="53.14033245105392" stroke="black" stroke-width="1"/>
<line x1="3.1403324510539505" y1="53.14033245105392" x2="53.14033245105392" y2="139.7428728294977" stroke="black" stroke-width="1"/>
<line x1="53.14033245105392" y1="139.7428728294977" x2="139.7428728294977" y2="89.74287282949774" stroke="black" stroke-width="1"/>
<line x1="135.52724084585464" y1="101.32522651328779" x2="101.32522651328779" y2="7.355964434697029" stroke="black" stroke-width="1"/>
<line x1="101.32522651328779" y1="7.355964434697029" x2="7.355964434697029" y2="41.557978767263876" stroke="black" stroke-width="1"/>
<line x1="7.355964434697029" y1="41.557978767263876" x2="41.557978767263876" y2="135.52724084585464" stroke="black" stroke-width="1"/>
<line x1="41.557978767263876" y1="135.52724084585464" x2="135.52724084585464" y2="101.32522651328779" stroke="black" stroke-width="1"/>
<line x1="129.3643991742327" y1="111.99958140753968" x2="111.99958140753968" y2="13.518806106318962" stroke="black" stroke-width="1"/>
<line x1="111.99958140753968" y1="13.518806106318962" x2="13.518806106318962" y2="30.883623873011985" stroke="black" stroke-width="1"/>
<line x1="13.518806106318962" y1="30.883623873011985" x2="30.883623873011985" y2="129.3643991742327" stroke="black" stroke-width="1"/>
<line x1="30.883623873011985" y1="129.3643991742327" x2="129.3643991742327" y2="111.99958140753968" stroke="black" stroke-width="1"/>
<line x1="121.44160264027579" y1="121.44160264027579" x2="121.44160264027579" y2="21.44160264027588" stroke="black" stroke-width="1"/>
<line x1="121.44160264027579" y1="21.44160264027588" x2="21.44160264027588" y2="21.44160264027588" stroke="black" stroke-width="1"/>
<line x1="21.44160264027588" y1="21.44160264027588" x2="21.44160264027588" y2="121.44160264027579" stroke="black" stroke-width="1"/>
<line x1="21.44160264027588" y1="121.44160264027579" x2="121.44160264027579" y2="121.44160264027579" stroke="black" stroke-width="1"/>
<line x1="111.99958140753968" y1="129.3643991742327" x2="129.3643991742327" y2="30.883623873011985" stroke="black" stroke-width="1"/>
<line x1="129.3643991742327" y1="30.883623873011985" x2="30.883623873011985" y2="13.518806106318976" stroke="black" stroke-width="1"/>
<line x1="30.883623873011985" y1="13.518806106318976" x2="13.518806106318976" y2="111.99958140753968" stroke="black" stroke-width="1"/>
<line x1="13.518806106318976" y1="111.99958140753968" x2="111.99958140753968" y2="129.3643991742327" stroke="black" stroke-width="1"/>
<line x1="101.32522651328779" y1="135.5272408458546" x2="135.5272408458546" y2="41.557978767263876" stroke="black" stroke-width="1"/>
<line x1="135.5272408458546" y1="41.557978767263876" x2="41.557978767263876" y2="7.355964434697057" stroke="black" stroke-width="1"/>
<line x1="41.557978767263876" y1="7.355964434697057" x2="7.355964434697057" y2="101.32522651328779" stroke="black" stroke-width="1"/>
<line x1="7.355964434697057" y1="101.32522651328779" x2="101.32522651328779" y2="135.5272408458546" stroke="black" stroke-width="1"/>
<line x1="89.74287282949774" y1="139.74287282949768" x2="139.74287282949768" y2="53.140332451053915" stroke="black" stroke-width="1"/>
<line x1="139.74287282949768" y1="53.140332451053915" x2="53.140332451053915" y2="3.140332451053979" stroke="black" stroke-width="1"/>
<line x1="53.140332451053915" y1="3.140332451053979" x2="3.140332451053979" y2="89.74287282949774" stroke="black" stroke-width="1"/>
<line x1="3.140332451053979" y1="89.74287282949774" x2="89.74287282949774" y2="139.74287282949768" stroke="black" stroke-width="1"/>
<line x1="77.60444431189777" y1="141.8832052805516" x2="141.8832052805516" y2="65.2787609686539" stroke="black" stroke-width="1"/>
<line x1="141.8832052805516" y1="65.2787609686539" x2="65.2787609686539" y2="1.0000000000000568" stroke="black" stroke-width="1"/>
<line x1="65.2787609686539" y1="1.0000000000000568" x2="1.0000000000000568" y2="77.60444431189777" stroke="black" stroke-width="1"/>
<line x1="1.0000000000000568" y1="77.60444431189777" x2="77.60444431189777" y2="141.8832052805516" stroke="black" stroke-width="1"/>
<line x1="65.27876096865391" y1="141.88320528055158" x2="141.88320528055158" y2="77.60444431189775" stroke="black" stroke-width="1"/>
<line x1="141.88320528055158" y1="77.60444431189775" x2="77.60444431189775" y2="1.000000000000071" stroke="black" stroke-width="1"/>
<line x1="77.60444431189775" y1="1.000000000000071" x2="1.000000000000071" y2="65.27876096865391" stroke="black" stroke-width="1"/>
<line x1="1.000000000000071" y1="65.27876096865391" x2="65.27876096865391" y2="141.88320528055158" stroke="black" stroke-width="1"/>
<line x1="53.140332451053936" y1="139.74287282949766" x2="139.74287282949766" y2="89.74287282949773" stroke="black" stroke-width="1"/>
<line x1="139.74287282949766" y1="89.74287282949773" x2="89.74287282949773" y2="3.1403324510540074" stroke="black" stroke-width="1"/>
<line x1="89.74287282949773" y1="3.1403324510540074" x2="3.1403324510540074" y2="53.140332451053936" stroke="black" stroke-width="1"/>
<line x1="3.1403324510540074" y1="53.140332451053936" x2="53.140332451053936" y2="139.74287282949766" stroke="black" stroke-width="1"/>
<line x1="41.557978767263904" y1="135.52724084585458" x2="135.52724084585458" y2="101.32522651328776" stroke="black" stroke-width="1"/>
<line x1="135.52724084585458" y1="101.32522651328776" x2="101.32522651328776" y2="7.355964434697086" stroke="black" stroke-width="1"/>
<line x1="101.32522651328776" y1="7.355964434697086" x2="7.355964434697086" y2="41.557978767263904" stroke="black" stroke-width="1"/>
<line x1="7.355964434697086" y1="41.557978767263904" x2="41.557978767263904" y2="135.52724084585458" stroke="black" stroke-width="1"/>
<line x1="30.88362387301202" y1="129.36439917423266" x2="129.36439917423266" y2="111.99958140753964" stroke="black" stroke-width="1"/>
<line x1="129.36439917423266" y1="111.99958140753964" x2="111.99958140753964" y2="13.518806106319012" stroke="black" stroke-width="1"/>
<line x1="111.99958140753964" y1="13.518806106319012" x2="13.518806106319012" y2="30.88362387301202" stroke="black" stroke-width="1"/>
<line x1="13.518806106319012" y1="30.88362387301202" x2="30.88362387301202" y2="129.36439917423266" stroke="black" stroke-width="1"/>
</svg>
