<svg width="216.48324891922496" height="127.12660125797603" xmlns="http://www.w3.org/2000/svg">
<line x1="158.24162445961247" y1="13.563300628988017" x2="58.24162445961248" y2="13.563300628988017" stroke="black" stroke-width="1"/>
<line x1="58.24162445961248" y1="13.563300628988017" x2="58.24162445961248" y2="113.56330062898802" stroke="black" stroke-width="1"/>
<line x1="58.24162445961248" y1="113.56330062898802" x2="158.24162445961247" y2="113.56330062898802" stroke="black" stroke-width="1"/>
<line x1="158.24162445961247" y1="113.56330062898802" x2="158.24162445961247" y2="13.563300628988017" stroke="black" stroke-width="1"/>
<line x1="171.9567006469651" y1="31.116917615176902" x2="63.627847815622204" y2="17.22506340182248" stroke="black" stroke-width="1"/>
<line x1="63.627847815622204" y1="17.22506340182248" x2="44.52654827225987" y2="96.00968364279913" stroke="black" stroke-width="1"/>
<line x1="44.52654827225987" y1="96.00968364279913" x2="152.85540110360276" y2="109.90153785615355" stroke="black" stroke-width="1"/>
<line x1="152.85540110360276" y1="109.90153785615355" x2="171.9567006469651" y2="31.116917615176902" stroke="black" stroke-width="1"/>
<line x1="183.4611163844424" y1="46.85174648549891" x2="68.76323751231496" y2="20.85821559274809" stroke="black" stroke-width="1"/>
<line x1="68.76323751231496" y1="20.85821559274809" x2="33.022132534782585" y2="80.27485477247713" stroke="black" stroke-width="1"/>
<line x1="33.022132534782585" y1="80.27485477247713" x2="147.72001140691" y2="106.26838566522795" stroke="black" stroke-width="1"/>
<line x1="147.72001140691" y1="106.26838566522795" x2="183.4611163844424" y2="46.85174648549891" stroke="black" stroke-width="1"/>
<line x1="192.91816118264433" y1="60.8465483188982" x2="73.63236697630626" y2="24.433981599097734" stroke="black" stroke-width="1"/>
<line x1="73.63236697630626" y1="24.433981599097734" x2="23.565087736580637" y2="66.28005293907783" stroke="black" stroke-width="1"/>
<line x1="23.565087736580637" y1="66.28005293907783" x2="142.8508819429187" y2="102.6926196588783" stroke="black" stroke-width="1"/>
<line x1="142.8508819429187" y1="102.6926196588783" x2="192.91816118264433" y2="60.8465483188982" stroke="black" stroke-width="1"/>
<line x1="200.48968030558513" y1="73.1860586730769" x2="78.22402129167838" y2="27.927547634503398" stroke="black" stroke-width="1"/>
<line x1="78.22402129167838" y1="27.927547634503398" x2="15.993568613639837" y2="53.940542584899134" stroke="black" stroke-width="1"/>
<line x1="15.993568613639837" y1="53.940542584899134" x2="138.25922762754658" y2="99.19905362347264" stroke="black" stroke-width="1"/>
<line x1="138.25922762754658" y1="99.19905362347264" x2="200.48968030558513" y2="73.1860586730769" stroke="black" stroke-width="1"/>
<line x1="206.33481327843677" y1="83.95951944350777" x2="82.53079122433385" y2="31.31780629183818" stroke="black" stroke-width="1"/>
<line x1="82.53079122433385" y1="31.31780629183818" x2="10.148435640788193" y2="43.16708181446826" stroke="black" stroke-width="1"/>
<line x1="10.148435640788193" y1="43.16708181446826" x2="133.9524576948911" y2="95.80879496613785" stroke="black" stroke-width="1"/>
<line x1="133.9524576948911" y1="95.80879496613785" x2="206.33481327843677" y2="83.95951944350777" stroke="black" stroke-width="1"/>
<line x1="210.6089077614469" y1="93.25934694946758" x2="86.54868222503244" y2="34.587098900555304" stroke="black" stroke-width="1"/>
<line x1="86.54868222503244" y1="34.587098900555304" x2="5.874341157778076" y2="33.86725430850844" stroke="black" stroke-width="1"/>
<line x1="5.874341157778076" y1="33.86725430850844" x2="129.9345666941925" y2="92.53950235742073" stroke="black" stroke-width="1"/>
<line x1="129.9345666941925" y1="92.53950235742073" x2="210.6089077614469" y2="93.25934694946758" stroke="black" stroke-width="1"/>
<line x1="213.4625973748901" y1="101.17993170762472" x2="90.2767400799629" y2="37.72095822716794" stroke="black" stroke-width="1"/>
<line x1="90.2767400799629" y1="37.72095822716794" x2="3.020651544334882" y2="25.946669550351317" stroke="black" stroke-width="1"/>
<line x1="3.020651544334882" y1="25.946669550351317" x2="126.20650883926206" y2="89.4056430308081" stroke="black" stroke-width="1"/>
<line x1="126.20650883926206" y1="89.4056430308081" x2="213.4625973748901" y2="101.17993170762472" stroke="black" stroke-width="1"/>
<line x1="215.04103197625878" y1="107.81656473100465" x2="93.71669452985398" y2="40.70785375872259" stroke="black" stroke-width="1"/>
<line x1="93.71669452985398" y1="40.70785375872259" x2="1.4422169429661835" y2="19.310036526971388" stroke="black" stroke-width="1"/>
<line x1="1.4422169429661835" y1="19.310036526971388" x2="122.76655438937098" y2="86.41874749925344" stroke="black" stroke-width="1"/>
<line x1="122.76655438937098" y1="86.41874749925344" x2="215.04103197625878" y2="107.81656473100465" stroke="black" stroke-width="1"/>
<line x1="215.48324891922496" y1="113.26448468893705" x2="96.87262186081216" y2="43.53894151743728" stroke="black" stroke-width="1"/>
<line x1="96.87262186081216" y1="43.53894151743728" x2="1.0" y2="13.862116569038982" stroke="black" stroke-width="1"/>
<line x1="1.0" y1="13.862116569038982" x2="119.6106270584128" y2="83.58765974053875" stroke="black" stroke-width="1"/>
<line x1="119.6106270584128" y1="83.58765974053875" x2="215.48324891922496" y2="113.26448468893705" stroke="black" stroke-width="1"/>
<line x1="214.92167395051877" y1="117.61803987185009" x2="99.75062718150241" y2="46.207820080725554" stroke="black" stroke-width="1"/>
<line x1="99.75062718150241" y1="46.207820080725554" x2="1.5615749687061822" y2="9.508561386125947" stroke="black" stroke-width="1"/>
<line x1="1.5615749687061822" y1="9.508561386125947" x2="116.73262173772255" y2="80.91878117725048" stroke="black" stroke-width="1"/>
<line x1="116.73262173772255" y1="80.91878117725048" x2="214.92167395051877" y2="117.61803987185009" stroke="black" stroke-width="1"/>
<line x1="213.4817406128576" y1="120.96995861373813" x2="102.35854684100889" y2="48.71029422490792" stroke="black" stroke-width="1"/>
<line x1="102.35854684100889" y1="48.71029422490792" x2="3.00150830636737" y2="6.1566426442379125" stroke="black" stroke-width="1"/>
<line x1="3.00150830636737" y1="6.1566426442379125" x2="114.12470207821607" y2="78.41630703306812" stroke="black" stroke-width="1"/>
<line x1="114.12470207821607" y1="78.41630703306812" x2="213.4817406128576" y2="120.96995861373813" stroke="black" stroke-width="1"/>
<line x1="211.28161730729505" y1="123.41072162528334" x2="104.70567120863984" y2="51.04414737313067" stroke="black" stroke-width="1"/>
<line x1="104.70567120863984" y1="51.04414737313067" x2="5.201631611929926" y2="3.7158796326926833" stroke="black" stroke-width="1"/>
<line x1="5.201631611929926" y1="3.7158796326926833" x2="111.77757771058512" y2="76.08245388484536" stroke="black" stroke-width="1"/>
<line x1="111.77757771058512" y1="76.08245388484536" x2="211.28161730729505" y2="123.41072162528334" stroke="black" stroke-width="1"/>
<line x1="208.43203151552524" y1="125.02802957278871" x2="106.80248782987516" y2="53.20892380829746" stroke="black" stroke-width="1"/>
<line x1="106.80248782987516" y1="53.20892380829746" x2="8.05121740369971" y2="2.0985716851873306" stroke="black" stroke-width="1"/>
<line x1="8.05121740369971" y1="2.0985716851873306" x2="109.6807610893498" y2="73.91767744967858" stroke="black" stroke-width="1"/>
<line x1="109.6807610893498" y1="73.91767744967858" x2="208.43203151552524" y2="125.02802957278871" stroke="black" stroke-width="1"/>
<line x1="205.0361810812645" y1="125.90635919348081" x2="108.66044479031098" y2="55.20572140995316" stroke="black" stroke-width="1"/>
<line x1="108.66044479031098" y1="55.20572140995316" x2="11.44706783796046" y2="1.220242064495224" stroke="black" stroke-width="1"/>
<line x1="11.44706783796046" y1="1.220242064495224" x2="107.82280412891399" y2="71.92087984802288" stroke="black" stroke-width="1"/>
<line x1="107.82280412891399" y1="71.92087984802288" x2="205.0361810812645" y2="125.90635919348081" stroke="black" stroke-width="1"/>
<line x1="201.18972289013516" y1="126.12660125797603" x2="110.29173396048425" y2="57.03699548968915" stroke="black" stroke-width="1"/>
<line x1="110.29173396048425" y1="57.03699548968915" x2="15.29352602908979" y2="1.0" stroke="black" stroke-width="1"/>
<line x1="15.29352602908979" y1="1.0" x2="106.19151495874071" y2="70.08960576828689" stroke="black" stroke-width="1"/>
<line x1="106.19151495874071" y1="70.08960576828689" x2="201.18972289013516" y2="126.12660125797603" stroke="black" stroke-width="1"/>
</svg>
