<svg width="618.5628271452078" height="170.74993435909357" xmlns="http://www.w3.org/2000/svg">
<line x1="110.7417704317754" y1="52.718366151739545" x2="10.741770431775393" y2="52.718366151739545" stroke="black" stroke-width="1"/>
<line x1="10.741770431775393" y1="52.718366151739545" x2="10.741770431775393" y2="152.71836615173953" stroke="black" stroke-width="1"/>
<line x1="10.741770431775393" y1="152.71836615173953" x2="110.7417704317754" y2="152.71836615173953" stroke="black" stroke-width="1"/>
<line x1="110.7417704317754" y1="152.71836615173953" x2="110.7417704317754" y2="52.718366151739545" stroke="black" stroke-width="1"/>
<line x1="220.4835408635508" y1="26.37460365471746" x2="131.85084309245207" y2="10.746267664693747" stroke="black" stroke-width="1"/>
<line x1="131.85084309245207" y1="10.746267664693747" x2="1.0" y2="79.06212864876161" stroke="black" stroke-width="1"/>
<line x1="1.0" y1="79.06212864876161" x2="89.63269777109872" y2="94.69046463878536" stroke="black" stroke-width="1"/>
<line x1="89.63269777109872" y1="94.69046463878536" x2="220.4835408635508" y2="26.37460365471746" stroke="black" stroke-width="1"/>
<line x1="352.2216679086258" y1="25.528448093757234" x2="294.1139261710637" y2="1.0" stroke="black" stroke-width="1"/>
<line x1="294.1139261710637" y1="1.0" x2="88.74541381847573" y2="27.220759215677717" stroke="black" stroke-width="1"/>
<line x1="88.74541381847573" y1="27.220759215677717" x2="146.85315555603785" y2="51.74920730943495" stroke="black" stroke-width="1"/>
<line x1="146.85315555603785" y1="51.74920730943495" x2="352.2216679086258" y2="25.528448093757234" stroke="black" stroke-width="1"/>
<line x1="470.0919255871835" y1="45.53886675859133" x2="450.6851475994953" y2="19.700773142349433" stroke="black" stroke-width="1"/>
<line x1="450.6851475994953" y1="19.700773142349433" x2="234.35141023006824" y2="5.518029428923157" stroke="black" stroke-width="1"/>
<line x1="234.35141023006824" y1="5.518029428923157" x2="253.75818821775644" y2="31.35612304516505" stroke="black" stroke-width="1"/>
<line x1="253.75818821775644" y1="31.35612304516505" x2="470.0919255871835" y2="45.53886675859133" stroke="black" stroke-width="1"/>
<line x1="548.3797133081699" y1="77.6303164583011" x2="564.9883257631037" y2="56.94584387374209" stroke="black" stroke-width="1"/>
<line x1="564.9883257631037" y1="56.94584387374209" x2="391.8041378661969" y2="13.447417058881584" stroke="black" stroke-width="1"/>
<line x1="391.8041378661969" y1="13.447417058881584" x2="375.19552541126325" y2="34.1318896434406" stroke="black" stroke-width="1"/>
<line x1="375.19552541126325" y1="34.1318896434406" x2="548.3797133081699" y2="77.6303164583011" stroke="black" stroke-width="1"/>
<line x1="575.7763590979307" y1="111.78894512711919" x2="617.5628271452078" y2="100.25381934870222" stroke="black" stroke-width="1"/>
<line x1="617.5628271452078" y1="100.25381934870222" x2="520.9830675184089" y2="43.471687789483006" stroke="black" stroke-width="1"/>
<line x1="520.9830675184089" y1="43.471687789483006" x2="479.1965994711319" y2="55.006813567900004" stroke="black" stroke-width="1"/>
<line x1="479.1965994711319" y1="55.006813567900004" x2="575.7763590979307" y2="111.78894512711919" stroke="black" stroke-width="1"/>
<line x1="555.3618917582193" y1="139.40634625659342" x2="607.4921750246126" y2="138.0565553902651" stroke="black" stroke-width="1"/>
<line x1="607.4921750246126" y1="138.0565553902651" x2="596.190826437642" y2="84.17154399764493" stroke="black" stroke-width="1"/>
<line x1="596.190826437642" y1="84.17154399764493" x2="544.0605431712487" y2="85.52133486397331" stroke="black" stroke-width="1"/>
<line x1="544.0605431712487" y1="85.52133486397331" x2="555.3618917582193" y2="139.40634625659342" stroke="black" stroke-width="1"/>
<line x1="501.1303964012918" y1="155.08297007319368" x2="549.1010855445875" y2="162.30794464280024" stroke="black" stroke-width="1"/>
<line x1="549.1010855445875" y1="162.30794464280024" x2="609.5933871151468" y2="123.72972243999314" stroke="black" stroke-width="1"/>
<line x1="609.5933871151468" y1="123.72972243999314" x2="561.6226979718512" y2="116.50474787038664" stroke="black" stroke-width="1"/>
<line x1="561.6226979718512" y1="116.50474787038664" x2="501.1303964012918" y2="155.08297007319368" stroke="black" stroke-width="1"/>
<line x1="432.5505645923853" y1="157.31711029994284" x2="465.61434038193033" y2="169.74993435909357" stroke="black" stroke-width="1"/>
<line x1="465.61434038193033" y1="169.74993435909357" x2="569.7102282101985" y2="152.84882984644452" stroke="black" stroke-width="1"/>
<line x1="569.7102282101985" y1="152.84882984644452" x2="536.6464524206533" y2="140.41600578729378" stroke="black" stroke-width="1"/>
<line x1="536.6464524206533" y1="140.41600578729378" x2="432.5505645923853" y2="157.31711029994284" stroke="black" stroke-width="1"/>
<line x1="368.8430182107005" y1="148.12549589494887" x2="381.87987957636176" y2="161.78640466697027" stroke="black" stroke-width="1"/>
<line x1="381.87987957636176" y1="161.78640466697027" x2="496.2581109740703" y2="166.5087247049368" stroke="black" stroke-width="1"/>
<line x1="496.2581109740703" y1="166.5087247049368" x2="483.22124960840904" y2="152.84781593291544" stroke="black" stroke-width="1"/>
<line x1="483.22124960840904" y1="152.84781593291544" x2="368.8430182107005" y2="148.12549589494887" stroke="black" stroke-width="1"/>
<line x1="324.4046061115812" y1="131.8897359763117" x2="318.084113742364" y2="143.25974791894532" stroke="black" stroke-width="1"/>
<line x1="318.084113742364" y1="143.25974791894532" x2="413.28143030981994" y2="164.36125581358604" stroke="black" stroke-width="1"/>
<line x1="413.28143030981994" y1="164.36125581358604" x2="419.601922679037" y2="152.99124387095242" stroke="black" stroke-width="1"/>
<line x1="419.601922679037" y1="152.99124387095242" x2="324.4046061115812" y2="131.8897359763117" stroke="black" stroke-width="1"/>
<line x1="306.2622713574965" y1="113.8531524491068" x2="285.78249197159437" y2="120.63288621802323" stroke="black" stroke-width="1"/>
<line x1="285.78249197159437" y1="120.63288621802323" x2="342.5469408656659" y2="149.92631950351665" stroke="black" stroke-width="1"/>
<line x1="342.5469408656659" y1="149.92631950351665" x2="363.0267202515679" y2="143.1465857346002" stroke="black" stroke-width="1"/>
<line x1="363.0267202515679" y1="143.1465857346002" x2="306.2622713574965" y2="113.8531524491068" stroke="black" stroke-width="1"/>
<line x1="313.7832522367095" y1="98.69596008858302" x2="286.76013247336425" y2="100.12694485280147" stroke="black" stroke-width="1"/>
<line x1="286.76013247336425" y1="100.12694485280147" x2="298.7412904782834" y2="129.01034480963062" stroke="black" stroke-width="1"/>
<line x1="298.7412904782834" y1="129.01034480963062" x2="325.76441024162864" y2="127.57936004541213" stroke="black" stroke-width="1"/>
<line x1="325.76441024162864" y1="127.57936004541213" x2="313.7832522367095" y2="98.69596008858302" stroke="black" stroke-width="1"/>
<line x1="340.2826144816946" y1="89.51659778802869" x2="314.4588387850224" y2="86.27092339865325" stroke="black" stroke-width="1"/>
<line x1="314.4588387850224" y1="86.27092339865325" x2="287.2838899917243" y2="107.87532238913735" stroke="black" stroke-width="1"/>
<line x1="287.2838899917243" y1="107.87532238913735" x2="313.10766568839654" y2="111.12099677851276" stroke="black" stroke-width="1"/>
<line x1="313.10766568839654" y1="111.12099677851276" x2="340.2826144816946" y2="89.51659778802869" stroke="black" stroke-width="1"/>
<line x1="375.780987092347" y1="87.38704676641782" x2="357.1396703285626" y2="81.13390993139058" stroke="black" stroke-width="1"/>
<line x1="357.1396703285626" y1="81.13390993139058" x2="304.78424187104224" y2="91.64614880963954" stroke="black" stroke-width="1"/>
<line x1="304.78424187104224" y1="91.64614880963954" x2="323.42555863482664" y2="97.89928564466678" stroke="black" stroke-width="1"/>
<line x1="323.42555863482664" y1="97.89928564466678" x2="375.780987092347" y2="87.38704676641782" stroke="black" stroke-width="1"/>
<line x1="410.03068786786673" y1="91.48003059349264" x2="401.69066818842646" y2="84.29481870932307" stroke="black" stroke-width="1"/>
<line x1="401.69066818842646" y1="84.29481870932307" x2="341.5312863168273" y2="83.29406293934298" stroke="black" stroke-width="1"/>
<line x1="341.5312863168273" y1="83.29406293934298" x2="349.87130599626767" y2="90.47927482351255" stroke="black" stroke-width="1"/>
<line x1="349.87130599626767" y1="90.47927482351255" x2="410.03068786786673" y2="91.48003059349264" stroke="black" stroke-width="1"/>
<line x1="435.0314177983736" y1="99.62884604767346" x2="437.0413436902602" y2="93.41680038833641" stroke="black" stroke-width="1"/>
<line x1="437.0413436902602" y1="93.41680038833641" x2="385.02995793735977" y2="83.33121513931184" stroke="black" stroke-width="1"/>
<line x1="385.02995793735977" y1="83.33121513931184" x2="383.0200320454734" y2="89.5432607986489" stroke="black" stroke-width="1"/>
<line x1="383.0200320454734" y1="89.5432607986489" x2="435.0314177983736" y2="99.62884604767346" stroke="black" stroke-width="1"/>
<line x1="446.5274454744048" y1="109.10297755869792" x2="456.4374111341143" y2="105.17328305333291" stroke="black" stroke-width="1"/>
<line x1="456.4374111341143" y1="105.17328305333291" x2="423.5353901223425" y2="90.15471453664901" stroke="black" stroke-width="1"/>
<line x1="423.5353901223425" y1="90.15471453664901" x2="413.6254244626331" y2="94.08440904201404" stroke="black" stroke-width="1"/>
<line x1="413.6254244626331" y1="94.08440904201404" x2="446.5274454744048" y2="109.10297755869792" stroke="black" stroke-width="1"/>
<line x1="444.3197039823202" y1="117.3719499019334" x2="458.2452122859381" y2="116.23610799634508" stroke="black" stroke-width="1"/>
<line x1="458.2452122859381" y1="116.23610799634508" x2="448.73518696648944" y2="100.83400521546241" stroke="black" stroke-width="1"/>
<line x1="448.73518696648944" y1="100.83400521546241" x2="434.80967866287165" y2="101.9698471210508" stroke="black" stroke-width="1"/>
<line x1="434.80967866287165" y1="101.9698471210508" x2="444.3197039823202" y2="117.3719499019334" stroke="black" stroke-width="1"/>
<line x1="431.54290311186844" y1="122.67593629457505" x2="445.37171550936307" y2="124.0763013433626" stroke="black" stroke-width="1"/>
<line x1="445.37171550936307" y1="124.0763013433626" x2="457.0965048527721" y2="112.06796350929179" stroke="black" stroke-width="1"/>
<line x1="457.0965048527721" y1="112.06796350929179" x2="443.2676924552775" y2="110.66759846050428" stroke="black" stroke-width="1"/>
<line x1="443.2676924552775" y1="110.66759846050428" x2="431.54290311186844" y2="122.67593629457505" stroke="black" stroke-width="1"/>
<line x1="413.2781688992653" y1="124.30259889637553" x2="423.7026289241584" y2="127.42048360128521" stroke="black" stroke-width="1"/>
<line x1="423.7026289241584" y1="127.42048360128521" x2="449.80763732447167" y2="121.04927369277462" stroke="black" stroke-width="1"/>
<line x1="449.80763732447167" y1="121.04927369277462" x2="439.3831772995785" y2="117.93138898786498" stroke="black" stroke-width="1"/>
<line x1="439.3831772995785" y1="117.93138898786498" x2="413.2781688992653" y2="124.30259889637553" stroke="black" stroke-width="1"/>
<line x1="394.9611404971887" y1="122.55939342767091" x2="400.12084222229623" y2="126.31857284615653" stroke="black" stroke-width="1"/>
<line x1="400.12084222229623" y1="126.31857284615653" x2="431.59519730134184" y2="126.04580436508016" stroke="black" stroke-width="1"/>
<line x1="431.59519730134184" y1="126.04580436508016" x2="426.4354955762342" y2="122.28662494659456" stroke="black" stroke-width="1"/>
<line x1="426.4354955762342" y1="122.28662494659456" x2="394.9611404971887" y2="122.55939342767091" stroke="black" stroke-width="1"/>
<line x1="381.00726312556367" y1="118.50586086093939" x2="380.6615279990219" y2="121.88035216829658" stroke="black" stroke-width="1"/>
<line x1="380.6615279990219" y1="121.88035216829658" x2="408.91501786881383" y2="126.61292599440245" stroke="black" stroke-width="1"/>
<line x1="408.91501786881383" y1="126.61292599440245" x2="409.26075299535535" y2="123.23843468704526" stroke="black" stroke-width="1"/>
<line x1="409.26075299535535" y1="123.23843468704526" x2="381.00726312556367" y2="118.50586086093939" stroke="black" stroke-width="1"/>
<line x1="373.9436467060167" y1="113.55589634843372" x2="369.22166201046207" y2="115.80717649167585" stroke="black" stroke-width="1"/>
<line x1="369.22166201046207" y1="115.80717649167585" x2="388.07087954511053" y2="123.45582537344511" stroke="black" stroke-width="1"/>
<line x1="388.07087954511053" y1="123.45582537344511" x2="392.79286424066504" y2="121.20454523020295" stroke="black" stroke-width="1"/>
<line x1="392.79286424066504" y1="121.20454523020295" x2="373.9436467060167" y2="113.55589634843372" stroke="black" stroke-width="1"/>
<line x1="374.16004321056084" y1="109.07035976621637" x2="367.02900173874707" y2="109.8703735456168" stroke="black" stroke-width="1"/>
<line x1="367.02900173874707" y1="109.8703735456168" x2="373.72725020147254" y2="118.04143293065108" stroke="black" stroke-width="1"/>
<line x1="373.72725020147254" y1="118.04143293065108" x2="380.8582916732862" y2="117.24141915125061" stroke="black" stroke-width="1"/>
<line x1="380.8582916732862" y1="117.24141915125061" x2="374.16004321056084" y2="109.07035976621637" stroke="black" stroke-width="1"/>
<line x1="380.2212037054725" y1="106.03984600312009" x2="372.85394449462683" y2="105.47191918370567" stroke="black" stroke-width="1"/>
<line x1="372.85394449462683" y1="105.47191918370567" x2="368.0988827156492" y2="112.10087352931265" stroke="black" stroke-width="1"/>
<line x1="368.0988827156492" y1="112.10087352931265" x2="375.46614192649486" y2="112.66880034872702" stroke="black" stroke-width="1"/>
<line x1="375.46614192649486" y1="112.66880034872702" x2="380.2212037054725" y2="106.03984600312009" stroke="black" stroke-width="1"/>
</svg>
