<svg width="216.70699595209604" height="307.74632797451386" xmlns="http://www.w3.org/2000/svg">
<line x1="8.494065593915451" y1="86.92777607441712" x2="58.49406559391545" y2="86.92777607441712" stroke="black" stroke-width="1"/>
<line x1="58.49406559391545" y1="86.92777607441712" x2="58.49406559391545" y2="36.927776074417125" stroke="black" stroke-width="1"/>
<line x1="58.49406559391545" y1="36.927776074417125" x2="8.494065593915451" y2="36.927776074417125" stroke="black" stroke-width="1"/>
<line x1="8.494065593915451" y1="36.927776074417125" x2="8.494065593915451" y2="86.92777607441712" stroke="black" stroke-width="1"/>
<line x1="12.652518522302966" y1="67.52222213296123" x2="64.33561266552793" y2="86.33333001587302" stroke="black" stroke-width="1"/>
<line x1="64.33561266552793" y1="86.33333001587302" x2="83.14672054843972" y2="34.65023587264805" stroke="black" stroke-width="1"/>
<line x1="83.14672054843972" y1="34.65023587264805" x2="31.463626405214747" y2="15.839127989736255" stroke="black" stroke-width="1"/>
<line x1="31.463626405214747" y1="15.839127989736255" x2="12.652518522302966" y2="67.52222213296123" stroke="black" stroke-width="1"/>
<line x1="24.251752180471208" y1="49.02794284104549" x2="70.5974409891694" y2="87.91659322708112" stroke="black" stroke-width="1"/>
<line x1="70.5974409891694" y1="87.91659322708112" x2="109.48609137520504" y2="41.57090441838294" stroke="black" stroke-width="1"/>
<line x1="109.48609137520504" y1="41.57090441838294" x2="63.14040256650685" y2="2.682254032347288" stroke="black" stroke-width="1"/>
<line x1="63.14040256650685" y1="2.682254032347288" x2="24.251752180471208" y2="49.02794284104549" stroke="black" stroke-width="1"/>
<line x1="43.199395542897236" y1="34.27500000000003" x2="76.47439554289727" y2="91.90899062185444" stroke="black" stroke-width="1"/>
<line x1="76.47439554289727" y1="91.90899062185444" x2="134.1083861647517" y2="58.633990621854416" stroke="black" stroke-width="1"/>
<line x1="134.1083861647517" y1="58.633990621854416" x2="100.83338616475166" y2="1.0" stroke="black" stroke-width="1"/>
<line x1="100.83338616475166" y1="1.0" x2="43.199395542897236" y2="34.27500000000003" stroke="black" stroke-width="1"/>
<line x1="68.33523624421431" y1="26.1539685934833" x2="81.04715109032196" y2="98.24682015274205" stroke="black" stroke-width="1"/>
<line x1="81.04715109032196" y1="98.24682015274205" x2="153.1400026495807" y2="85.53490530663439" stroke="black" stroke-width="1"/>
<line x1="153.1400026495807" y1="85.53490530663439" x2="140.42808780347306" y2="13.442053747375653" stroke="black" stroke-width="1"/>
<line x1="140.42808780347306" y1="13.442053747375653" x2="68.33523624421431" y2="26.1539685934833" stroke="black" stroke-width="1"/>
<line x1="97.37250862908985" y1="27.21622820222469" x2="83.38940229837145" y2="106.51836491740933" stroke="black" stroke-width="1"/>
<line x1="83.38940229837145" y1="106.51836491740933" x2="162.69153901355608" y2="120.50147124812773" stroke="black" stroke-width="1"/>
<line x1="162.69153901355608" y1="120.50147124812773" x2="176.6746453442745" y2="41.1993345329431" stroke="black" stroke-width="1"/>
<line x1="176.6746453442745" y1="41.1993345329431" x2="97.37250862908985" y2="27.21622820222469" stroke="black" stroke-width="1"/>
<line x1="126.98758467369576" y1="39.23871073863501" x2="82.69855967369571" y2="115.9495522563233" stroke="black" stroke-width="1"/>
<line x1="82.69855967369571" y1="115.9495522563233" x2="159.409401191384" y2="160.23857725632334" stroke="black" stroke-width="1"/>
<line x1="159.409401191384" y1="160.23857725632334" x2="203.69842619138404" y2="83.52773573863504" stroke="black" stroke-width="1"/>
<line x1="203.69842619138404" y1="83.52773573863504" x2="126.98758467369576" y2="39.23871073863501" stroke="black" stroke-width="1"/>
<line x1="153.0764356188817" y1="62.80774048264082" x2="78.4362403355851" y2="125.43830081585516" stroke="black" stroke-width="1"/>
<line x1="78.4362403355851" y1="125.43830081585516" x2="141.06680066879943" y2="200.07849609915172" stroke="black" stroke-width="1"/>
<line x1="141.06680066879943" y1="200.07849609915172" x2="215.70699595209604" y2="137.44793576593742" stroke="black" stroke-width="1"/>
<line x1="215.70699595209604" y1="137.44793576593742" x2="153.0764356188817" y2="62.80774048264082" stroke="black" stroke-width="1"/>
<line x1="171.17629518445287" y1="96.98535193854121" x2="70.46056584664038" y2="133.64287953991627" stroke="black" stroke-width="1"/>
<line x1="70.46056584664038" y1="133.64287953991627" x2="107.11809344801541" y2="234.35860887772873" stroke="black" stroke-width="1"/>
<line x1="107.11809344801541" y1="234.35860887772873" x2="207.83382278582792" y2="197.70108127635368" stroke="black" stroke-width="1"/>
<line x1="207.83382278582792" y1="197.70108127635368" x2="171.17629518445287" y2="96.98535193854121" stroke="black" stroke-width="1"/>
<line x1="177.0270553770405" y1="139.12301436692874" x2="59.12967082704027" y2="139.12301436692877" stroke="black" stroke-width="1"/>
<line x1="59.12967082704027" y1="139.12301436692877" x2="59.12967082704029" y2="257.0203989169289" stroke="black" stroke-width="1"/>
<line x1="59.12967082704029" y1="257.0203989169289" x2="177.0270553770405" y2="257.0203989169289" stroke="black" stroke-width="1"/>
<line x1="177.0270553770405" y1="257.0203989169289" x2="177.0270553770405" y2="139.12301436692874" stroke="black" stroke-width="1"/>
<line x1="167.22164089641697" y1="184.8802954757607" x2="45.35560839766379" y2="140.5246870780969" stroke="black" stroke-width="1"/>
<line x1="45.35560839766379" y1="140.5246870780969" x2="1.0" y2="262.3907195768501" stroke="black" stroke-width="1"/>
<line x1="1.0" y1="262.3907195768501" x2="122.86603249875317" y2="306.74632797451386" stroke="black" stroke-width="1"/>
<line x1="122.86603249875317" y1="306.74632797451386" x2="167.22164089641697" y2="184.8802954757607" stroke="black" stroke-width="1"/>
</svg>
