<svg width="239.8982120818396" height="254.22550657276219" xmlns="http://www.w3.org/2000/svg">
<line x1="97.03959891742004" y1="64.90890321342482" x2="147.03959891742005" y2="64.90890321342482" stroke="black" stroke-width="1"/>
<line x1="147.03959891742005" y1="64.90890321342482" x2="147.03959891742005" y2="14.908903213424821" stroke="black" stroke-width="1"/>
<line x1="147.03959891742005" y1="14.908903213424821" x2="97.03959891742004" y2="14.908903213424821" stroke="black" stroke-width="1"/>
<line x1="97.03959891742004" y1="14.908903213424821" x2="97.03959891742004" y2="64.90890321342482" stroke="black" stroke-width="1"/>
<line x1="101.19805184580756" y1="55.50334927196893" x2="152.88114598903252" y2="74.31445715488071" stroke="black" stroke-width="1"/>
<line x1="152.88114598903252" y1="74.31445715488071" x2="171.6922538719443" y2="22.631363011655743" stroke="black" stroke-width="1"/>
<line x1="171.6922538719443" y1="22.631363011655743" x2="120.00915972871934" y2="3.820255128743959" stroke="black" stroke-width="1"/>
<line x1="120.00915972871934" y1="3.820255128743959" x2="101.19805184580756" y2="55.50334927196893" stroke="black" stroke-width="1"/>
<line x1="109.03506392739344" y1="47.345688808698185" x2="155.38075273609164" y2="86.23433919473382" stroke="black" stroke-width="1"/>
<line x1="155.38075273609164" y1="86.23433919473382" x2="194.26940312212727" y2="39.88865038603562" stroke="black" stroke-width="1"/>
<line x1="194.26940312212727" y1="39.88865038603562" x2="147.9237143134291" y2="0.9999999999999929" stroke="black" stroke-width="1"/>
<line x1="147.9237143134291" y1="0.9999999999999929" x2="109.03506392739344" y2="47.345688808698185" stroke="black" stroke-width="1"/>
<line x1="120.20497721261233" y1="41.86188372939235" x2="153.47997721261237" y2="99.49587435124678" stroke="black" stroke-width="1"/>
<line x1="153.47997721261237" y1="99.49587435124678" x2="211.1139678344668" y2="66.22087435124675" stroke="black" stroke-width="1"/>
<line x1="211.1139678344668" y1="66.22087435124675" x2="177.83896783446676" y2="8.586883729392326" stroke="black" stroke-width="1"/>
<line x1="177.83896783446676" y1="8.586883729392326" x2="120.20497721261233" y2="41.86188372939235" stroke="black" stroke-width="1"/>
<line x1="133.81401978955853" y1="40.39585232287563" x2="146.5259346356662" y2="112.48870388213439" stroke="black" stroke-width="1"/>
<line x1="146.5259346356662" y1="112.48870388213439" x2="218.61878619492495" y2="99.77678903602671" stroke="black" stroke-width="1"/>
<line x1="218.61878619492495" y1="99.77678903602671" x2="205.90687134881728" y2="27.68393747676798" stroke="black" stroke-width="1"/>
<line x1="205.90687134881728" y1="27.68393747676798" x2="133.81401978955853" y2="40.39585232287563" stroke="black" stroke-width="1"/>
<line x1="148.43272186258233" y1="44.00049490083856" x2="134.4496155318639" y2="123.3026316160232" stroke="black" stroke-width="1"/>
<line x1="134.4496155318639" y1="123.3026316160232" x2="213.75175224704856" y2="137.2857379467416" stroke="black" stroke-width="1"/>
<line x1="213.75175224704856" y1="137.2857379467416" x2="227.73485857776697" y2="57.98360123155696" stroke="black" stroke-width="1"/>
<line x1="227.73485857776697" y1="57.98360123155696" x2="148.43272186258233" y2="44.00049490083856" stroke="black" stroke-width="1"/>
<line x1="162.1873705641513" y1="53.226356171105195" x2="117.89834556415127" y2="129.9371976887935" stroke="black" stroke-width="1"/>
<line x1="117.89834556415127" y1="129.9371976887935" x2="194.6091870818396" y2="174.2262226887935" stroke="black" stroke-width="1"/>
<line x1="194.6091870818396" y1="174.2262226887935" x2="238.8982120818396" y2="97.51538117110523" stroke="black" stroke-width="1"/>
<line x1="238.8982120818396" y1="97.51538117110523" x2="162.1873705641513" y2="53.226356171105195" stroke="black" stroke-width="1"/>
<line x1="172.93405320579956" y1="67.937580915111" x2="98.293857922503" y2="130.56814124832536" stroke="black" stroke-width="1"/>
<line x1="98.293857922503" y1="130.56814124832536" x2="160.92441825571734" y2="205.2083365316219" stroke="black" stroke-width="1"/>
<line x1="160.92441825571734" y1="205.2083365316219" x2="235.56461353901392" y2="142.57777619840758" stroke="black" stroke-width="1"/>
<line x1="235.56461353901392" y1="142.57777619840758" x2="172.93405320579956" y2="67.937580915111" stroke="black" stroke-width="1"/>
<line x1="178.50780070472786" y1="87.18715331435206" x2="77.79207136691538" y2="123.84468091572717" stroke="black" stroke-width="1"/>
<line x1="77.79207136691538" y1="123.84468091572717" x2="114.44959896829047" y2="224.56041025353963" stroke="black" stroke-width="1"/>
<line x1="114.44959896829047" y1="224.56041025353963" x2="215.16532830610294" y2="187.90288265216455" stroke="black" stroke-width="1"/>
<line x1="215.16532830610294" y1="187.90288265216455" x2="178.50780070472786" y2="87.18715331435206" stroke="black" stroke-width="1"/>
<line x1="177.02705537704048" y1="109.18166987517709" x2="59.12967082704026" y2="109.18166987517715" stroke="black" stroke-width="1"/>
<line x1="59.12967082704026" y1="109.18166987517715" x2="59.12967082704033" y2="227.07905442517736" stroke="black" stroke-width="1"/>
<line x1="59.12967082704033" y1="227.07905442517736" x2="177.0270553770405" y2="227.0790544251773" stroke="black" stroke-width="1"/>
<line x1="177.0270553770405" y1="227.0790544251773" x2="177.02705537704048" y2="109.18166987517709" stroke="black" stroke-width="1"/>
<line x1="167.22164089641694" y1="131.359474074009" x2="45.355608397663744" y2="87.00386567634524" stroke="black" stroke-width="1"/>
<line x1="45.355608397663744" y1="87.00386567634524" x2="1.0" y2="208.86989817509843" stroke="black" stroke-width="1"/>
<line x1="1.0" y1="208.86989817509843" x2="122.86603249875317" y2="253.22550657276219" stroke="black" stroke-width="1"/>
<line x1="122.86603249875317" y1="253.22550657276219" x2="167.22164089641694" y2="131.359474074009" stroke="black" stroke-width="1"/>
</svg>
