<svg width="147.76388394580113" height="260.630778703665" xmlns="http://www.w3.org/2000/svg">
<line x1="73.88194197290056" y1="260.630778703665" x2="73.88194197290056" y2="250.630778703665" stroke="black" stroke-width="1"/>
<line x1="73.88194197290056" y1="250.630778703665" x2="73.88194197290056" y2="240.630778703665" stroke="black" stroke-width="1"/>
<line x1="73.88194197290056" y1="240.630778703665" x2="69.65575935549357" y2="231.5677008332985" stroke="black" stroke-width="1"/>
<line x1="69.65575935549357" y1="231.5677008332985" x2="65.42957673808658" y2="222.504622962932" stroke="black" stroke-width="1"/>
<line x1="65.42957673808658" y1="222.504622962932" x2="61.20339412067959" y2="213.4415450925655" stroke="black" stroke-width="1"/>
<line x1="73.88194197290056" y1="240.630778703665" x2="78.10812459030755" y2="231.5677008332985" stroke="black" stroke-width="1"/>
<line x1="78.10812459030755" y1="231.5677008332985" x2="82.33430720771455" y2="222.504622962932" stroke="black" stroke-width="1"/>
<line x1="82.33430720771455" y1="222.504622962932" x2="86.56048982512155" y2="213.4415450925655" stroke="black" stroke-width="1"/>
<line x1="73.88194197290056" y1="240.630778703665" x2="73.88194197290056" y2="230.630778703665" stroke="black" stroke-width="1"/>
<line x1="73.88194197290056" y1="230.630778703665" x2="78.10812459030755" y2="221.5677008332985" stroke="black" stroke-width="1"/>
<line x1="73.88194197290056" y1="230.630778703665" x2="69.65575935549357" y2="221.5677008332985" stroke="black" stroke-width="1"/>
<line x1="73.88194197290056" y1="230.630778703665" x2="73.88194197290056" y2="220.630778703665" stroke="black" stroke-width="1"/>
<line x1="73.88194197290056" y1="220.630778703665" x2="69.65575935549357" y2="211.5677008332985" stroke="black" stroke-width="1"/>
<line x1="69.65575935549357" y1="211.5677008332985" x2="65.42957673808658" y2="202.504622962932" stroke="black" stroke-width="1"/>
<line x1="65.42957673808658" y1="202.504622962932" x2="61.20339412067959" y2="193.4415450925655" stroke="black" stroke-width="1"/>
<line x1="73.88194197290056" y1="220.630778703665" x2="78.10812459030755" y2="211.5677008332985" stroke="black" stroke-width="1"/>
<line x1="78.10812459030755" y1="211.5677008332985" x2="82.33430720771455" y2="202.504622962932" stroke="black" stroke-width="1"/>
<line x1="82.33430720771455" y1="202.504622962932" x2="86.56048982512155" y2="193.4415450925655" stroke="black" stroke-width="1"/>
<line x1="73.88194197290056" y1="220.630778703665" x2="73.88194197290056" y2="210.630778703665" stroke="black" stroke-width="1"/>
<line x1="73.88194197290056" y1="210.630778703665" x2="69.65575935549357" y2="201.5677008332985" stroke="black" stroke-width="1"/>
<line x1="69.65575935549357" y1="201.5677008332985" x2="65.42957673808658" y2="192.504622962932" stroke="black" stroke-width="1"/>
<line x1="65.42957673808658" y1="192.504622962932" x2="61.20339412067959" y2="183.4415450925655" stroke="black" stroke-width="1"/>
<line x1="73.88194197290056" y1="210.630778703665" x2="78.10812459030755" y2="201.5677008332985" stroke="black" stroke-width="1"/>
<line x1="78.10812459030755" y1="201.5677008332985" x2="82.33430720771455" y2="192.504622962932" stroke="black" stroke-width="1"/>
<line x1="82.33430720771455" y1="192.504622962932" x2="86.56048982512155" y2="183.4415450925655" stroke="black" stroke-width="1"/>
<line x1="73.88194197290056" y1="210.630778703665" x2="73.88194197290056" y2="200.630778703665" stroke="black" stroke-width="1"/>
<line x1="73.88194197290056" y1="200.630778703665" x2="69.65575935549357" y2="191.5677008332985" stroke="black" stroke-width="1"/>
<line x1="69.65575935549357" y1="191.5677008332985" x2="65.42957673808658" y2="182.504622962932" stroke="black" stroke-width="1"/>
<line x1="65.42957673808658" y1="182.504622962932" x2="61.20339412067959" y2="173.4415450925655" stroke="black" stroke-width="1"/>
<line x1="73.88194197290056" y1="200.630778703665" x2="78.10812459030755" y2="191.5677008332985" stroke="black" stroke-width="1"/>
<line x1="78.10812459030755" y1="191.5677008332985" x2="82.33430720771455" y2="182.504622962932" stroke="black" stroke-width="1"/>
<line x1="82.33430720771455" y1="182.504622962932" x2="86.56048982512155" y2="173.4415450925655" stroke="black" stroke-width="1"/>
<line x1="73.88194197290056" y1="200.630778703665" x2="73.88194197290056" y2="190.630778703665" stroke="black" stroke-width="1"/>
<line x1="73.88194197290056" y1="190.630778703665" x2="78.10812459030755" y2="181.5677008332985" stroke="black" stroke-width="1"/>
<line x1="78.10812459030755" y1="181.5677008332985" x2="82.33430720771455" y2="172.504622962932" stroke="black" stroke-width="1"/>
<line x1="82.33430720771455" y1="172.504622962932" x2="82.33430720771455" y2="162.504622962932" stroke="black" stroke-width="1"/>
<line x1="82.33430720771455" y1="162.504622962932" x2="82.33430720771455" y2="152.504622962932" stroke="black" stroke-width="1"/>
<line x1="82.33430720771455" y1="152.504622962932" x2="82.33430720771455" y2="142.504622962932" stroke="black" stroke-width="1"/>
<line x1="82.33430720771455" y1="172.504622962932" x2="89.99475163890433" y2="166.0767468660666" stroke="black" stroke-width="1"/>
<line x1="89.99475163890433" y1="166.0767468660666" x2="97.65519607009412" y2="159.6488707692012" stroke="black" stroke-width="1"/>
<line x1="97.65519607009412" y1="159.6488707692012" x2="105.3156405012839" y2="153.22099467233582" stroke="black" stroke-width="1"/>
<line x1="82.33430720771455" y1="172.504622962932" x2="86.56048982512155" y2="163.4415450925655" stroke="black" stroke-width="1"/>
<line x1="86.56048982512155" y1="163.4415450925655" x2="94.22093425631132" y2="157.0136689957001" stroke="black" stroke-width="1"/>
<line x1="86.56048982512155" y1="163.4415450925655" x2="86.56048982512155" y2="153.4415450925655" stroke="black" stroke-width="1"/>
<line x1="73.88194197290056" y1="190.630778703665" x2="69.65575935549357" y2="181.5677008332985" stroke="black" stroke-width="1"/>
<line x1="69.65575935549357" y1="181.5677008332985" x2="65.42957673808658" y2="172.504622962932" stroke="black" stroke-width="1"/>
<line x1="65.42957673808658" y1="172.504622962932" x2="57.7691323068968" y2="166.0767468660666" stroke="black" stroke-width="1"/>
<line x1="57.7691323068968" y1="166.0767468660666" x2="50.10868787570702" y2="159.6488707692012" stroke="black" stroke-width="1"/>
<line x1="50.10868787570702" y1="159.6488707692012" x2="42.44824344451724" y2="153.22099467233582" stroke="black" stroke-width="1"/>
<line x1="65.42957673808658" y1="172.504622962932" x2="65.42957673808658" y2="162.504622962932" stroke="black" stroke-width="1"/>
<line x1="65.42957673808658" y1="162.504622962932" x2="65.42957673808658" y2="152.504622962932" stroke="black" stroke-width="1"/>
<line x1="65.42957673808658" y1="152.504622962932" x2="65.42957673808658" y2="142.504622962932" stroke="black" stroke-width="1"/>
<line x1="65.42957673808658" y1="172.504622962932" x2="61.20339412067959" y2="163.4415450925655" stroke="black" stroke-width="1"/>
<line x1="61.20339412067959" y1="163.4415450925655" x2="61.20339412067959" y2="153.4415450925655" stroke="black" stroke-width="1"/>
<line x1="61.20339412067959" y1="163.4415450925655" x2="53.5429496894898" y2="157.0136689957001" stroke="black" stroke-width="1"/>
<line x1="73.88194197290056" y1="190.630778703665" x2="73.88194197290056" y2="180.630778703665" stroke="black" stroke-width="1"/>
<line x1="73.88194197290056" y1="180.630778703665" x2="69.65575935549357" y2="171.5677008332985" stroke="black" stroke-width="1"/>
<line x1="69.65575935549357" y1="171.5677008332985" x2="65.42957673808658" y2="162.504622962932" stroke="black" stroke-width="1"/>
<line x1="65.42957673808658" y1="162.504622962932" x2="61.20339412067959" y2="153.4415450925655" stroke="black" stroke-width="1"/>
<line x1="73.88194197290056" y1="180.630778703665" x2="78.10812459030755" y2="171.5677008332985" stroke="black" stroke-width="1"/>
<line x1="78.10812459030755" y1="171.5677008332985" x2="82.33430720771455" y2="162.504622962932" stroke="black" stroke-width="1"/>
<line x1="82.33430720771455" y1="162.504622962932" x2="86.56048982512155" y2="153.4415450925655" stroke="black" stroke-width="1"/>
<line x1="73.88194197290056" y1="180.630778703665" x2="73.88194197290056" y2="170.630778703665" stroke="black" stroke-width="1"/>
<line x1="73.88194197290056" y1="170.630778703665" x2="69.65575935549357" y2="161.5677008332985" stroke="black" stroke-width="1"/>
<line x1="69.65575935549357" y1="161.5677008332985" x2="65.42957673808658" y2="152.504622962932" stroke="black" stroke-width="1"/>
<line x1="65.42957673808658" y1="152.504622962932" x2="61.20339412067959" y2="143.4415450925655" stroke="black" stroke-width="1"/>
<line x1="73.88194197290056" y1="170.630778703665" x2="78.10812459030755" y2="161.5677008332985" stroke="black" stroke-width="1"/>
<line x1="78.10812459030755" y1="161.5677008332985" x2="82.33430720771455" y2="152.504622962932" stroke="black" stroke-width="1"/>
<line x1="82.33430720771455" y1="152.504622962932" x2="86.56048982512155" y2="143.4415450925655" stroke="black" stroke-width="1"/>
<line x1="73.88194197290056" y1="170.630778703665" x2="73.88194197290056" y2="160.630778703665" stroke="black" stroke-width="1"/>
<line x1="73.88194197290056" y1="160.630778703665" x2="69.65575935549357" y2="151.5677008332985" stroke="black" stroke-width="1"/>
<line x1="69.65575935549357" y1="151.5677008332985" x2="65.42957673808658" y2="142.504622962932" stroke="black" stroke-width="1"/>
<line x1="65.42957673808658" y1="142.504622962932" x2="61.20339412067959" y2="133.4415450925655" stroke="black" stroke-width="1"/>
<line x1="73.88194197290056" y1="160.630778703665" x2="78.10812459030755" y2="151.5677008332985" stroke="black" stroke-width="1"/>
<line x1="78.10812459030755" y1="151.5677008332985" x2="82.33430720771455" y2="142.504622962932" stroke="black" stroke-width="1"/>
<line x1="82.33430720771455" y1="142.504622962932" x2="86.56048982512155" y2="133.4415450925655" stroke="black" stroke-width="1"/>
<line x1="73.88194197290056" y1="160.630778703665" x2="73.88194197290056" y2="150.630778703665" stroke="black" stroke-width="1"/>
<line x1="73.88194197290056" y1="150.630778703665" x2="69.65575935549357" y2="141.5677008332985" stroke="black" stroke-width="1"/>
<line x1="69.65575935549357" y1="141.5677008332985" x2="65.42957673808658" y2="132.504622962932" stroke="black" stroke-width="1"/>
<line x1="65.42957673808658" y1="132.504622962932" x2="61.20339412067959" y2="123.44154509256549" stroke="black" stroke-width="1"/>
<line x1="73.88194197290056" y1="150.630778703665" x2="78.10812459030755" y2="141.5677008332985" stroke="black" stroke-width="1"/>
<line x1="78.10812459030755" y1="141.5677008332985" x2="82.33430720771455" y2="132.504622962932" stroke="black" stroke-width="1"/>
<line x1="82.33430720771455" y1="132.504622962932" x2="86.56048982512155" y2="123.44154509256549" stroke="black" stroke-width="1"/>
<line x1="73.88194197290056" y1="150.630778703665" x2="73.88194197290056" y2="140.630778703665" stroke="black" stroke-width="1"/>
<line x1="73.88194197290056" y1="140.630778703665" x2="69.65575935549357" y2="131.5677008332985" stroke="black" stroke-width="1"/>
<line x1="69.65575935549357" y1="131.5677008332985" x2="65.42957673808658" y2="122.50462296293199" stroke="black" stroke-width="1"/>
<line x1="65.42957673808658" y1="122.50462296293199" x2="61.20339412067959" y2="113.44154509256549" stroke="black" stroke-width="1"/>
<line x1="73.88194197290056" y1="140.630778703665" x2="78.10812459030755" y2="131.5677008332985" stroke="black" stroke-width="1"/>
<line x1="78.10812459030755" y1="131.5677008332985" x2="82.33430720771455" y2="122.50462296293199" stroke="black" stroke-width="1"/>
<line x1="82.33430720771455" y1="122.50462296293199" x2="86.56048982512155" y2="113.44154509256549" stroke="black" stroke-width="1"/>
<line x1="73.88194197290056" y1="140.630778703665" x2="73.88194197290056" y2="130.630778703665" stroke="black" stroke-width="1"/>
<line x1="73.88194197290056" y1="130.630778703665" x2="69.65575935549357" y2="121.56770083329849" stroke="black" stroke-width="1"/>
<line x1="69.65575935549357" y1="121.56770083329849" x2="65.42957673808658" y2="112.50462296293199" stroke="black" stroke-width="1"/>
<line x1="65.42957673808658" y1="112.50462296293199" x2="61.20339412067959" y2="103.44154509256549" stroke="black" stroke-width="1"/>
<line x1="73.88194197290056" y1="130.630778703665" x2="78.10812459030755" y2="121.56770083329849" stroke="black" stroke-width="1"/>
<line x1="78.10812459030755" y1="121.56770083329849" x2="82.33430720771455" y2="112.50462296293199" stroke="black" stroke-width="1"/>
<line x1="82.33430720771455" y1="112.50462296293199" x2="86.56048982512155" y2="103.44154509256549" stroke="black" stroke-width="1"/>
<line x1="73.88194197290056" y1="130.630778703665" x2="73.88194197290056" y2="120.63077870366499" stroke="black" stroke-width="1"/>
<line x1="73.88194197290056" y1="120.63077870366499" x2="69.65575935549357" y2="111.56770083329849" stroke="black" stroke-width="1"/>
<line x1="69.65575935549357" y1="111.56770083329849" x2="65.42957673808658" y2="102.50462296293199" stroke="black" stroke-width="1"/>
<line x1="65.42957673808658" y1="102.50462296293199" x2="61.20339412067959" y2="93.44154509256549" stroke="black" stroke-width="1"/>
<line x1="73.88194197290056" y1="120.63077870366499" x2="78.10812459030755" y2="111.56770083329849" stroke="black" stroke-width="1"/>
<line x1="78.10812459030755" y1="111.56770083329849" x2="82.33430720771455" y2="102.50462296293199" stroke="black" stroke-width="1"/>
<line x1="82.33430720771455" y1="102.50462296293199" x2="86.56048982512155" y2="93.44154509256549" stroke="black" stroke-width="1"/>
<line x1="73.88194197290056" y1="120.63077870366499" x2="73.88194197290056" y2="110.63077870366499" stroke="black" stroke-width="1"/>
<line x1="73.88194197290056" y1="110.63077870366499" x2="78.10812459030755" y2="101.56770083329849" stroke="black" stroke-width="1"/>
<line x1="78.10812459030755" y1="101.56770083329849" x2="82.33430720771455" y2="92.50462296293199" stroke="black" stroke-width="1"/>
<line x1="82.33430720771455" y1="92.50462296293199" x2="82.33430720771455" y2="82.50462296293199" stroke="black" stroke-width="1"/>
<line x1="82.33430720771455" y1="82.50462296293199" x2="82.33430720771455" y2="72.50462296293199" stroke="black" stroke-width="1"/>
<line x1="82.33430720771455" y1="72.50462296293199" x2="82.33430720771455" y2="62.50462296293199" stroke="black" stroke-width="1"/>
<line x1="82.33430720771455" y1="92.50462296293199" x2="89.99475163890433" y2="86.0767468660666" stroke="black" stroke-width="1"/>
<line x1="89.99475163890433" y1="86.0767468660666" x2="97.65519607009412" y2="79.64887076920121" stroke="black" stroke-width="1"/>
<line x1="97.65519607009412" y1="79.64887076920121" x2="105.3156405012839" y2="73.22099467233582" stroke="black" stroke-width="1"/>
<line x1="82.33430720771455" y1="92.50462296293199" x2="86.56048982512155" y2="83.44154509256549" stroke="black" stroke-width="1"/>
<line x1="86.56048982512155" y1="83.44154509256549" x2="94.22093425631132" y2="77.0136689957001" stroke="black" stroke-width="1"/>
<line x1="86.56048982512155" y1="83.44154509256549" x2="86.56048982512155" y2="73.44154509256549" stroke="black" stroke-width="1"/>
<line x1="86.56048982512155" y1="83.44154509256549" x2="90.78667244252854" y2="74.37846722219899" stroke="black" stroke-width="1"/>
<line x1="90.78667244252854" y1="74.37846722219899" x2="90.78667244252854" y2="64.37846722219899" stroke="black" stroke-width="1"/>
<line x1="90.78667244252854" y1="64.37846722219899" x2="90.78667244252854" y2="54.37846722219899" stroke="black" stroke-width="1"/>
<line x1="90.78667244252854" y1="54.37846722219899" x2="90.78667244252854" y2="44.37846722219899" stroke="black" stroke-width="1"/>
<line x1="90.78667244252854" y1="74.37846722219899" x2="98.44711687371833" y2="67.9505911253336" stroke="black" stroke-width="1"/>
<line x1="98.44711687371833" y1="67.9505911253336" x2="106.1075613049081" y2="61.52271502846821" stroke="black" stroke-width="1"/>
<line x1="106.1075613049081" y1="61.52271502846821" x2="113.76800573609788" y2="55.09483893160282" stroke="black" stroke-width="1"/>
<line x1="90.78667244252854" y1="74.37846722219899" x2="95.01285505993553" y2="65.3153893518325" stroke="black" stroke-width="1"/>
<line x1="95.01285505993553" y1="65.3153893518325" x2="95.01285505993553" y2="55.31538935183249" stroke="black" stroke-width="1"/>
<line x1="95.01285505993553" y1="55.31538935183249" x2="95.01285505993553" y2="45.31538935183249" stroke="black" stroke-width="1"/>
<line x1="95.01285505993553" y1="45.31538935183249" x2="95.01285505993553" y2="35.31538935183249" stroke="black" stroke-width="1"/>
<line x1="95.01285505993553" y1="65.3153893518325" x2="102.67329949112532" y2="58.887513254967104" stroke="black" stroke-width="1"/>
<line x1="102.67329949112532" y1="58.887513254967104" x2="110.3337439223151" y2="52.459637158101714" stroke="black" stroke-width="1"/>
<line x1="110.3337439223151" y1="52.459637158101714" x2="117.99418835350488" y2="46.031761061236324" stroke="black" stroke-width="1"/>
<line x1="95.01285505993553" y1="65.3153893518325" x2="99.23903767734254" y2="56.252311481465995" stroke="black" stroke-width="1"/>
<line x1="99.23903767734254" y1="56.252311481465995" x2="99.23903767734254" y2="46.252311481465995" stroke="black" stroke-width="1"/>
<line x1="99.23903767734254" y1="46.252311481465995" x2="99.23903767734254" y2="36.252311481465995" stroke="black" stroke-width="1"/>
<line x1="99.23903767734254" y1="36.252311481465995" x2="99.23903767734254" y2="26.252311481465995" stroke="black" stroke-width="1"/>
<line x1="99.23903767734254" y1="56.252311481465995" x2="106.89948210853231" y2="49.824435384600605" stroke="black" stroke-width="1"/>
<line x1="106.89948210853231" y1="49.824435384600605" x2="114.55992653972208" y2="43.396559287735215" stroke="black" stroke-width="1"/>
<line x1="114.55992653972208" y1="43.396559287735215" x2="122.22037097091187" y2="36.968683190869825" stroke="black" stroke-width="1"/>
<line x1="99.23903767734254" y1="56.252311481465995" x2="103.46522029474953" y2="47.189233611099496" stroke="black" stroke-width="1"/>
<line x1="103.46522029474953" y1="47.189233611099496" x2="111.1256647259393" y2="40.761357514234106" stroke="black" stroke-width="1"/>
<line x1="111.1256647259393" y1="40.761357514234106" x2="118.78610915712909" y2="34.333481417368716" stroke="black" stroke-width="1"/>
<line x1="118.78610915712909" y1="34.333481417368716" x2="123.01229177453608" y2="25.270403547002218" stroke="black" stroke-width="1"/>
<line x1="123.01229177453608" y1="25.270403547002218" x2="127.23847439194307" y2="16.20732567663572" stroke="black" stroke-width="1"/>
<line x1="127.23847439194307" y1="16.20732567663572" x2="131.46465700935005" y2="7.14424780626922" stroke="black" stroke-width="1"/>
<line x1="118.78610915712909" y1="34.333481417368716" x2="128.44536742001975" y2="31.745290966343504" stroke="black" stroke-width="1"/>
<line x1="128.44536742001975" y1="31.745290966343504" x2="138.10462568291047" y2="29.15710051531829" stroke="black" stroke-width="1"/>
<line x1="138.10462568291047" y1="29.15710051531829" x2="147.76388394580113" y2="26.568910064293078" stroke="black" stroke-width="1"/>
<line x1="118.78610915712909" y1="34.333481417368716" x2="126.44655358831886" y2="27.905605320503327" stroke="black" stroke-width="1"/>
<line x1="126.44655358831886" y1="27.905605320503327" x2="136.10581185120955" y2="25.317414869478114" stroke="black" stroke-width="1"/>
<line x1="126.44655358831886" y1="27.905605320503327" x2="130.67273620572587" y2="18.842527450136828" stroke="black" stroke-width="1"/>
<line x1="103.46522029474953" y1="47.189233611099496" x2="103.46522029474953" y2="37.189233611099496" stroke="black" stroke-width="1"/>
<line x1="103.46522029474953" y1="37.189233611099496" x2="103.46522029474953" y2="27.189233611099496" stroke="black" stroke-width="1"/>
<line x1="103.46522029474953" y1="27.189233611099496" x2="99.23903767734254" y2="18.126155740732997" stroke="black" stroke-width="1"/>
<line x1="99.23903767734254" y1="18.126155740732997" x2="95.01285505993555" y2="9.063077870366499" stroke="black" stroke-width="1"/>
<line x1="95.01285505993555" y1="9.063077870366499" x2="90.78667244252856" y2="0.0" stroke="black" stroke-width="1"/>
<line x1="103.46522029474953" y1="27.189233611099496" x2="107.69140291215652" y2="18.126155740732997" stroke="black" stroke-width="1"/>
<line x1="107.69140291215652" y1="18.126155740732997" x2="111.91758552956351" y2="9.063077870366499" stroke="black" stroke-width="1"/>
<line x1="111.91758552956351" y1="9.063077870366499" x2="116.1437681469705" y2="0.0" stroke="black" stroke-width="1"/>
<line x1="103.46522029474953" y1="27.189233611099496" x2="103.46522029474953" y2="17.189233611099496" stroke="black" stroke-width="1"/>
<line x1="103.46522029474953" y1="17.189233611099496" x2="107.69140291215652" y2="8.126155740732997" stroke="black" stroke-width="1"/>
<line x1="103.46522029474953" y1="17.189233611099496" x2="99.23903767734254" y2="8.126155740732997" stroke="black" stroke-width="1"/>
<line x1="73.88194197290056" y1="110.63077870366499" x2="69.65575935549357" y2="101.56770083329849" stroke="black" stroke-width="1"/>
<line x1="69.65575935549357" y1="101.56770083329849" x2="65.42957673808658" y2="92.50462296293199" stroke="black" stroke-width="1"/>
<line x1="65.42957673808658" y1="92.50462296293199" x2="57.7691323068968" y2="86.0767468660666" stroke="black" stroke-width="1"/>
<line x1="57.7691323068968" y1="86.0767468660666" x2="50.10868787570702" y2="79.64887076920121" stroke="black" stroke-width="1"/>
<line x1="50.10868787570702" y1="79.64887076920121" x2="42.44824344451724" y2="73.22099467233582" stroke="black" stroke-width="1"/>
<line x1="65.42957673808658" y1="92.50462296293199" x2="65.42957673808658" y2="82.50462296293199" stroke="black" stroke-width="1"/>
<line x1="65.42957673808658" y1="82.50462296293199" x2="65.42957673808658" y2="72.50462296293199" stroke="black" stroke-width="1"/>
<line x1="65.42957673808658" y1="72.50462296293199" x2="65.42957673808658" y2="62.50462296293199" stroke="black" stroke-width="1"/>
<line x1="65.42957673808658" y1="92.50462296293199" x2="61.20339412067959" y2="83.44154509256549" stroke="black" stroke-width="1"/>
<line x1="61.20339412067959" y1="83.44154509256549" x2="61.20339412067959" y2="73.44154509256549" stroke="black" stroke-width="1"/>
<line x1="61.20339412067959" y1="83.44154509256549" x2="53.5429496894898" y2="77.0136689957001" stroke="black" stroke-width="1"/>
<line x1="61.20339412067959" y1="83.44154509256549" x2="56.9772115032726" y2="74.37846722219899" stroke="black" stroke-width="1"/>
<line x1="56.9772115032726" y1="74.37846722219899" x2="49.31676707208281" y2="67.9505911253336" stroke="black" stroke-width="1"/>
<line x1="49.31676707208281" y1="67.9505911253336" x2="41.65632264089304" y2="61.52271502846821" stroke="black" stroke-width="1"/>
<line x1="41.65632264089304" y1="61.52271502846821" x2="33.99587820970326" y2="55.09483893160282" stroke="black" stroke-width="1"/>
<line x1="56.9772115032726" y1="74.37846722219899" x2="56.9772115032726" y2="64.37846722219899" stroke="black" stroke-width="1"/>
<line x1="56.9772115032726" y1="64.37846722219899" x2="56.9772115032726" y2="54.37846722219899" stroke="black" stroke-width="1"/>
<line x1="56.9772115032726" y1="54.37846722219899" x2="56.9772115032726" y2="44.37846722219899" stroke="black" stroke-width="1"/>
<line x1="56.9772115032726" y1="74.37846722219899" x2="52.75102888586561" y2="65.3153893518325" stroke="black" stroke-width="1"/>
<line x1="52.75102888586561" y1="65.3153893518325" x2="45.09058445467582" y2="58.887513254967104" stroke="black" stroke-width="1"/>
<line x1="45.09058445467582" y1="58.887513254967104" x2="37.43014002348605" y2="52.459637158101714" stroke="black" stroke-width="1"/>
<line x1="37.43014002348605" y1="52.459637158101714" x2="29.769695592296266" y2="46.031761061236324" stroke="black" stroke-width="1"/>
<line x1="52.75102888586561" y1="65.3153893518325" x2="52.75102888586561" y2="55.31538935183249" stroke="black" stroke-width="1"/>
<line x1="52.75102888586561" y1="55.31538935183249" x2="52.75102888586561" y2="45.31538935183249" stroke="black" stroke-width="1"/>
<line x1="52.75102888586561" y1="45.31538935183249" x2="52.75102888586561" y2="35.31538935183249" stroke="black" stroke-width="1"/>
<line x1="52.75102888586561" y1="65.3153893518325" x2="48.52484626845862" y2="56.252311481465995" stroke="black" stroke-width="1"/>
<line x1="48.52484626845862" y1="56.252311481465995" x2="40.86440183726883" y2="49.824435384600605" stroke="black" stroke-width="1"/>
<line x1="40.86440183726883" y1="49.824435384600605" x2="33.20395740607905" y2="43.396559287735215" stroke="black" stroke-width="1"/>
<line x1="33.20395740607905" y1="43.396559287735215" x2="25.543512974889268" y2="36.968683190869825" stroke="black" stroke-width="1"/>
<line x1="48.52484626845862" y1="56.252311481465995" x2="48.52484626845862" y2="46.252311481465995" stroke="black" stroke-width="1"/>
<line x1="48.52484626845862" y1="46.252311481465995" x2="48.52484626845862" y2="36.252311481465995" stroke="black" stroke-width="1"/>
<line x1="48.52484626845862" y1="36.252311481465995" x2="48.52484626845862" y2="26.252311481465995" stroke="black" stroke-width="1"/>
<line x1="48.52484626845862" y1="56.252311481465995" x2="44.298663651051626" y2="47.189233611099496" stroke="black" stroke-width="1"/>
<line x1="44.298663651051626" y1="47.189233611099496" x2="44.298663651051626" y2="37.189233611099496" stroke="black" stroke-width="1"/>
<line x1="44.298663651051626" y1="37.189233611099496" x2="44.298663651051626" y2="27.189233611099496" stroke="black" stroke-width="1"/>
<line x1="44.298663651051626" y1="27.189233611099496" x2="40.07248103364463" y2="18.126155740732997" stroke="black" stroke-width="1"/>
<line x1="40.07248103364463" y1="18.126155740732997" x2="35.84629841623764" y2="9.063077870366499" stroke="black" stroke-width="1"/>
<line x1="35.84629841623764" y1="9.063077870366499" x2="31.620115798830646" y2="0.0" stroke="black" stroke-width="1"/>
<line x1="44.298663651051626" y1="27.189233611099496" x2="48.52484626845862" y2="18.126155740732997" stroke="black" stroke-width="1"/>
<line x1="48.52484626845862" y1="18.126155740732997" x2="52.75102888586561" y2="9.063077870366499" stroke="black" stroke-width="1"/>
<line x1="52.75102888586561" y1="9.063077870366499" x2="56.977211503272606" y2="0.0" stroke="black" stroke-width="1"/>
<line x1="44.298663651051626" y1="27.189233611099496" x2="44.298663651051626" y2="17.189233611099496" stroke="black" stroke-width="1"/>
<line x1="44.298663651051626" y1="17.189233611099496" x2="48.52484626845862" y2="8.126155740732997" stroke="black" stroke-width="1"/>
<line x1="44.298663651051626" y1="17.189233611099496" x2="40.07248103364463" y2="8.126155740732997" stroke="black" stroke-width="1"/>
<line x1="44.298663651051626" y1="47.189233611099496" x2="36.63821921986184" y2="40.761357514234106" stroke="black" stroke-width="1"/>
<line x1="36.63821921986184" y1="40.761357514234106" x2="28.977774788672058" y2="34.333481417368716" stroke="black" stroke-width="1"/>
<line x1="28.977774788672058" y1="34.333481417368716" x2="19.318516525781376" y2="31.745290966343504" stroke="black" stroke-width="1"/>
<line x1="19.318516525781376" y1="31.745290966343504" x2="9.659258262890688" y2="29.15710051531829" stroke="black" stroke-width="1"/>
<line x1="9.659258262890688" y1="29.15710051531829" x2="0.0" y2="26.568910064293078" stroke="black" stroke-width="1"/>
<line x1="28.977774788672058" y1="34.333481417368716" x2="24.751592171265067" y2="25.270403547002218" stroke="black" stroke-width="1"/>
<line x1="24.751592171265067" y1="25.270403547002218" x2="20.525409553858076" y2="16.20732567663572" stroke="black" stroke-width="1"/>
<line x1="20.525409553858076" y1="16.20732567663572" x2="16.299226936451085" y2="7.14424780626922" stroke="black" stroke-width="1"/>
<line x1="28.977774788672058" y1="34.333481417368716" x2="21.317330357482277" y2="27.905605320503327" stroke="black" stroke-width="1"/>
<line x1="21.317330357482277" y1="27.905605320503327" x2="17.091147740075286" y2="18.842527450136828" stroke="black" stroke-width="1"/>
<line x1="21.317330357482277" y1="27.905605320503327" x2="11.658072094591589" y2="25.317414869478114" stroke="black" stroke-width="1"/>
</svg>
