<svg width="62.867397056766656" height="118.126155740733" xmlns="http://www.w3.org/2000/svg">
<line x1="31.433698528383324" y1="118.126155740733" x2="31.433698528383324" y2="108.126155740733" stroke="black" stroke-width="1"/>
<line x1="31.433698528383324" y1="108.126155740733" x2="31.433698528383324" y2="98.126155740733" stroke="black" stroke-width="1"/>
<line x1="31.433698528383324" y1="98.126155740733" x2="27.207515910976333" y2="89.0630778703665" stroke="black" stroke-width="1"/>
<line x1="27.207515910976333" y1="89.0630778703665" x2="22.981333293569342" y2="80.0" stroke="black" stroke-width="1"/>
<line x1="22.981333293569342" y1="80.0" x2="18.755150676162348" y2="70.9369221296335" stroke="black" stroke-width="1"/>
<line x1="31.433698528383324" y1="98.126155740733" x2="35.65988114579032" y2="89.0630778703665" stroke="black" stroke-width="1"/>
<line x1="35.65988114579032" y1="89.0630778703665" x2="39.88606376319731" y2="80.0" stroke="black" stroke-width="1"/>
<line x1="39.88606376319731" y1="80.0" x2="44.112246380604304" y2="70.9369221296335" stroke="black" stroke-width="1"/>
<line x1="31.433698528383324" y1="98.126155740733" x2="31.433698528383324" y2="88.126155740733" stroke="black" stroke-width="1"/>
<line x1="31.433698528383324" y1="88.126155740733" x2="35.65988114579032" y2="79.0630778703665" stroke="black" stroke-width="1"/>
<line x1="31.433698528383324" y1="88.126155740733" x2="27.207515910976333" y2="79.0630778703665" stroke="black" stroke-width="1"/>
<line x1="31.433698528383324" y1="88.126155740733" x2="31.433698528383324" y2="78.126155740733" stroke="black" stroke-width="1"/>
<line x1="31.433698528383324" y1="78.126155740733" x2="27.207515910976333" y2="69.0630778703665" stroke="black" stroke-width="1"/>
<line x1="27.207515910976333" y1="69.0630778703665" x2="22.981333293569342" y2="60.0" stroke="black" stroke-width="1"/>
<line x1="22.981333293569342" y1="60.0" x2="18.755150676162348" y2="50.9369221296335" stroke="black" stroke-width="1"/>
<line x1="31.433698528383324" y1="78.126155740733" x2="35.65988114579032" y2="69.0630778703665" stroke="black" stroke-width="1"/>
<line x1="35.65988114579032" y1="69.0630778703665" x2="39.88606376319731" y2="60.0" stroke="black" stroke-width="1"/>
<line x1="39.88606376319731" y1="60.0" x2="44.112246380604304" y2="50.9369221296335" stroke="black" stroke-width="1"/>
<line x1="31.433698528383324" y1="78.126155740733" x2="31.433698528383324" y2="68.126155740733" stroke="black" stroke-width="1"/>
<line x1="31.433698528383324" y1="68.126155740733" x2="27.207515910976333" y2="59.0630778703665" stroke="black" stroke-width="1"/>
<line x1="27.207515910976333" y1="59.0630778703665" x2="22.981333293569342" y2="50.0" stroke="black" stroke-width="1"/>
<line x1="22.981333293569342" y1="50.0" x2="18.755150676162348" y2="40.9369221296335" stroke="black" stroke-width="1"/>
<line x1="31.433698528383324" y1="68.126155740733" x2="35.65988114579032" y2="59.0630778703665" stroke="black" stroke-width="1"/>
<line x1="35.65988114579032" y1="59.0630778703665" x2="39.88606376319731" y2="50.0" stroke="black" stroke-width="1"/>
<line x1="39.88606376319731" y1="50.0" x2="44.112246380604304" y2="40.9369221296335" stroke="black" stroke-width="1"/>
<line x1="31.433698528383324" y1="68.126155740733" x2="31.433698528383324" y2="58.126155740733" stroke="black" stroke-width="1"/>
<line x1="31.433698528383324" y1="58.126155740733" x2="27.207515910976333" y2="49.0630778703665" stroke="black" stroke-width="1"/>
<line x1="27.207515910976333" y1="49.0630778703665" x2="22.981333293569342" y2="40.0" stroke="black" stroke-width="1"/>
<line x1="22.981333293569342" y1="40.0" x2="18.755150676162348" y2="30.9369221296335" stroke="black" stroke-width="1"/>
<line x1="31.433698528383324" y1="58.126155740733" x2="35.65988114579032" y2="49.0630778703665" stroke="black" stroke-width="1"/>
<line x1="35.65988114579032" y1="49.0630778703665" x2="39.88606376319731" y2="40.0" stroke="black" stroke-width="1"/>
<line x1="39.88606376319731" y1="40.0" x2="44.112246380604304" y2="30.9369221296335" stroke="black" stroke-width="1"/>
<line x1="31.433698528383324" y1="58.126155740733" x2="31.433698528383324" y2="48.126155740733" stroke="black" stroke-width="1"/>
<line x1="31.433698528383324" y1="48.126155740733" x2="35.65988114579032" y2="39.0630778703665" stroke="black" stroke-width="1"/>
<line x1="35.65988114579032" y1="39.0630778703665" x2="39.88606376319731" y2="30.0" stroke="black" stroke-width="1"/>
<line x1="39.88606376319731" y1="30.0" x2="39.88606376319731" y2="20.0" stroke="black" stroke-width="1"/>
<line x1="39.88606376319731" y1="20.0" x2="39.88606376319731" y2="10.0" stroke="black" stroke-width="1"/>
<line x1="39.88606376319731" y1="10.0" x2="39.88606376319731" y2="0.0" stroke="black" stroke-width="1"/>
<line x1="39.88606376319731" y1="30.0" x2="47.546508194387094" y2="23.57212390313461" stroke="black" stroke-width="1"/>
<line x1="47.546508194387094" y1="23.57212390313461" x2="55.206952625576875" y2="17.14424780626922" stroke="black" stroke-width="1"/>
<line x1="55.206952625576875" y1="17.14424780626922" x2="62.867397056766656" y2="10.71637170940383" stroke="black" stroke-width="1"/>
<line x1="39.88606376319731" y1="30.0" x2="44.112246380604304" y2="20.9369221296335" stroke="black" stroke-width="1"/>
<line x1="44.112246380604304" y1="20.9369221296335" x2="51.77269081179409" y2="14.509046032768111" stroke="black" stroke-width="1"/>
<line x1="44.112246380604304" y1="20.9369221296335" x2="44.112246380604304" y2="10.936922129633501" stroke="black" stroke-width="1"/>
<line x1="31.433698528383324" y1="48.126155740733" x2="27.207515910976333" y2="39.0630778703665" stroke="black" stroke-width="1"/>
<line x1="27.207515910976333" y1="39.0630778703665" x2="22.981333293569342" y2="30.0" stroke="black" stroke-width="1"/>
<line x1="22.981333293569342" y1="30.0" x2="15.320888862379562" y2="23.57212390313461" stroke="black" stroke-width="1"/>
<line x1="15.320888862379562" y1="23.57212390313461" x2="7.660444431189781" y2="17.14424780626922" stroke="black" stroke-width="1"/>
<line x1="7.660444431189781" y1="17.14424780626922" x2="0.0" y2="10.71637170940383" stroke="black" stroke-width="1"/>
<line x1="22.981333293569342" y1="30.0" x2="22.981333293569342" y2="20.0" stroke="black" stroke-width="1"/>
<line x1="22.981333293569342" y1="20.0" x2="22.981333293569342" y2="10.0" stroke="black" stroke-width="1"/>
<line x1="22.981333293569342" y1="10.0" x2="22.981333293569342" y2="0.0" stroke="black" stroke-width="1"/>
<line x1="22.981333293569342" y1="30.0" x2="18.755150676162348" y2="20.9369221296335" stroke="black" stroke-width="1"/>
<line x1="18.755150676162348" y1="20.9369221296335" x2="18.755150676162348" y2="10.936922129633501" stroke="black" stroke-width="1"/>
<line x1="18.755150676162348" y1="20.9369221296335" x2="11.094706244972567" y2="14.509046032768111" stroke="black" stroke-width="1"/>
</svg>
