<svg width="310.0" height="260.0" xmlns="http://www.w3.org/2000/svg">
<line x1="100.0" y1="209.99999999999994" x2="100.0" y2="199.99999999999994" stroke="black" stroke-width="1"/>
<line x1="100.0" y1="199.99999999999994" x2="110.0" y2="199.99999999999994" stroke="black" stroke-width="1"/>
<line x1="110.0" y1="199.99999999999994" x2="110.0" y2="209.99999999999994" stroke="black" stroke-width="1"/>
<line x1="110.0" y1="209.99999999999994" x2="120.0" y2="209.99999999999994" stroke="black" stroke-width="1"/>
<line x1="120.0" y1="209.99999999999994" x2="120.0" y2="219.99999999999994" stroke="black" stroke-width="1"/>
<line x1="120.0" y1="219.99999999999994" x2="110.0" y2="219.99999999999994" stroke="black" stroke-width="1"/>
<line x1="110.0" y1="219.99999999999994" x2="110.0" y2="229.99999999999994" stroke="black" stroke-width="1"/>
<line x1="110.0" y1="229.99999999999994" x2="120.0" y2="229.99999999999994" stroke="black" stroke-width="1"/>
<line x1="120.0" y1="229.99999999999994" x2="120.0" y2="239.99999999999994" stroke="black" stroke-width="1"/>
<line x1="120.0" y1="239.99999999999994" x2="110.0" y2="239.99999999999994" stroke="black" stroke-width="1"/>
<line x1="110.0" y1="239.99999999999994" x2="110.0" y2="229.99999999999994" stroke="black" stroke-width="1"/>
<line x1="110.0" y1="229.99999999999994" x2="100.0" y2="229.99999999999994" stroke="black" stroke-width="1"/>
<line x1="100.0" y1="229.99999999999994" x2="100.0" y2="239.99999999999994" stroke="black" stroke-width="1"/>
<line x1="100.0" y1="239.99999999999994" x2="90.0" y2="239.99999999999994" stroke="black" stroke-width="1"/>
<line x1="90.0" y1="239.99999999999994" x2="90.0" y2="249.99999999999994" stroke="black" stroke-width="1"/>
<line x1="90.0" y1="249.99999999999994" x2="100.0" y2="249.99999999999994" stroke="black" stroke-width="1"/>
<line x1="100.0" y1="249.99999999999994" x2="100.0" y2="259.99999999999994" stroke="black" stroke-width="1"/>
<line x1="100.0" y1="259.99999999999994" x2="90.0" y2="259.99999999999994" stroke="black" stroke-width="1"/>
<line x1="90.0" y1="259.99999999999994" x2="90.0" y2="249.99999999999994" stroke="black" stroke-width="1"/>
<line x1="90.0" y1="249.99999999999994" x2="80.0" y2="249.99999999999994" stroke="black" stroke-width="1"/>
<line x1="80.0" y1="249.99999999999994" x2="80.0" y2="239.99999999999994" stroke="black" stroke-width="1"/>
<line x1="80.0" y1="239.99999999999994" x2="90.0" y2="239.99999999999994" stroke="black" stroke-width="1"/>
<line x1="90.0" y1="239.99999999999994" x2="90.0" y2="229.99999999999994" stroke="black" stroke-width="1"/>
<line x1="90.0" y1="229.99999999999994" x2="80.0" y2="229.99999999999997" stroke="black" stroke-width="1"/>
<line x1="80.0" y1="229.99999999999997" x2="80.0" y2="239.99999999999997" stroke="black" stroke-width="1"/>
<line x1="80.0" y1="239.99999999999997" x2="70.0" y2="239.99999999999997" stroke="black" stroke-width="1"/>
<line x1="70.0" y1="239.99999999999997" x2="70.0" y2="229.99999999999997" stroke="black" stroke-width="1"/>
<line x1="70.0" y1="229.99999999999997" x2="60.00000000000001" y2="229.99999999999997" stroke="black" stroke-width="1"/>
<line x1="60.00000000000001" y1="229.99999999999997" x2="60.00000000000001" y2="239.99999999999997" stroke="black" stroke-width="1"/>
<line x1="60.00000000000001" y1="239.99999999999997" x2="50.00000000000001" y2="239.99999999999997" stroke="black" stroke-width="1"/>
<line x1="50.00000000000001" y1="239.99999999999997" x2="50.00000000000001" y2="249.99999999999997" stroke="black" stroke-width="1"/>
<line x1="50.00000000000001" y1="249.99999999999997" x2="60.00000000000001" y2="249.99999999999997" stroke="black" stroke-width="1"/>
<line x1="60.00000000000001" y1="249.99999999999997" x2="60.00000000000001" y2="260.0" stroke="black" stroke-width="1"/>
<line x1="60.00000000000001" y1="260.0" x2="50.00000000000001" y2="260.0" stroke="black" stroke-width="1"/>
<line x1="50.00000000000001" y1="260.0" x2="50.00000000000001" y2="249.99999999999997" stroke="black" stroke-width="1"/>
<line x1="50.00000000000001" y1="249.99999999999997" x2="40.00000000000001" y2="249.99999999999997" stroke="black" stroke-width="1"/>
<line x1="40.00000000000001" y1="249.99999999999997" x2="40.00000000000001" y2="239.99999999999997" stroke="black" stroke-width="1"/>
<line x1="40.00000000000001" y1="239.99999999999997" x2="50.00000000000001" y2="239.99999999999997" stroke="black" stroke-width="1"/>
<line x1="50.00000000000001" y1="239.99999999999997" x2="50.00000000000001" y2="229.99999999999997" stroke="black" stroke-width="1"/>
<line x1="50.00000000000001" y1="229.99999999999997" x2="40.00000000000001" y2="229.99999999999997" stroke="black" stroke-width="1"/>
<line x1="40.00000000000001" y1="229.99999999999997" x2="40.00000000000001" y2="219.99999999999997" stroke="black" stroke-width="1"/>
<line x1="40.00000000000001" y1="219.99999999999997" x2="50.00000000000001" y2="219.99999999999997" stroke="black" stroke-width="1"/>
<line x1="50.00000000000001" y1="219.99999999999997" x2="50.00000000000001" y2="229.99999999999997" stroke="black" stroke-width="1"/>
<line x1="50.00000000000001" y1="229.99999999999997" x2="60.00000000000001" y2="229.99999999999997" stroke="black" stroke-width="1"/>
<line x1="60.00000000000001" y1="229.99999999999997" x2="60.00000000000001" y2="219.99999999999997" stroke="black" stroke-width="1"/>
<line x1="60.00000000000001" y1="219.99999999999997" x2="70.0" y2="219.99999999999997" stroke="black" stroke-width="1"/>
<line x1="70.0" y1="219.99999999999997" x2="70.0" y2="209.99999999999997" stroke="black" stroke-width="1"/>
<line x1="70.0" y1="209.99999999999997" x2="60.00000000000001" y2="209.99999999999997" stroke="black" stroke-width="1"/>
<line x1="60.00000000000001" y1="209.99999999999997" x2="60.00000000000001" y2="219.99999999999997" stroke="black" stroke-width="1"/>
<line x1="60.00000000000001" y1="219.99999999999997" x2="50.00000000000001" y2="219.99999999999997" stroke="black" stroke-width="1"/>
<line x1="50.00000000000001" y1="219.99999999999997" x2="50.00000000000001" y2="209.99999999999997" stroke="black" stroke-width="1"/>
<line x1="50.00000000000001" y1="209.99999999999997" x2="40.00000000000001" y2="209.99999999999997" stroke="black" stroke-width="1"/>
<line x1="40.00000000000001" y1="209.99999999999997" x2="40.00000000000001" y2="199.99999999999997" stroke="black" stroke-width="1"/>
<line x1="40.00000000000001" y1="199.99999999999997" x2="50.00000000000001" y2="199.99999999999997" stroke="black" stroke-width="1"/>
<line x1="50.00000000000001" y1="199.99999999999997" x2="50.00000000000001" y2="189.99999999999997" stroke="black" stroke-width="1"/>
<line x1="50.00000000000001" y1="189.99999999999997" x2="40.00000000000001" y2="189.99999999999997" stroke="black" stroke-width="1"/>
<line x1="40.00000000000001" y1="189.99999999999997" x2="40.00000000000001" y2="199.99999999999997" stroke="black" stroke-width="1"/>
<line x1="40.00000000000001" y1="199.99999999999997" x2="30.0" y2="199.99999999999997" stroke="black" stroke-width="1"/>
<line x1="30.0" y1="199.99999999999997" x2="30.0" y2="190.0" stroke="black" stroke-width="1"/>
<line x1="30.0" y1="190.0" x2="20.0" y2="190.0" stroke="black" stroke-width="1"/>
<line x1="20.0" y1="190.0" x2="20.0" y2="200.0" stroke="black" stroke-width="1"/>
<line x1="20.0" y1="200.0" x2="10.0" y2="200.0" stroke="black" stroke-width="1"/>
<line x1="10.0" y1="200.0" x2="10.0" y2="210.0" stroke="black" stroke-width="1"/>
<line x1="10.0" y1="210.0" x2="20.0" y2="210.0" stroke="black" stroke-width="1"/>
<line x1="20.0" y1="210.0" x2="20.0" y2="220.0" stroke="black" stroke-width="1"/>
<line x1="20.0" y1="220.0" x2="10.0" y2="220.0" stroke="black" stroke-width="1"/>
<line x1="10.0" y1="220.0" x2="10.0" y2="210.0" stroke="black" stroke-width="1"/>
<line x1="10.0" y1="210.0" x2="0.0" y2="210.0" stroke="black" stroke-width="1"/>
<line x1="0.0" y1="210.0" x2="0.0" y2="200.0" stroke="black" stroke-width="1"/>
<line x1="0.0" y1="200.0" x2="10.0" y2="200.0" stroke="black" stroke-width="1"/>
<line x1="10.0" y1="200.0" x2="10.0" y2="190.0" stroke="black" stroke-width="1"/>
<line x1="10.0" y1="190.0" x2="0.0" y2="190.0" stroke="black" stroke-width="1"/>
<line x1="0.0" y1="190.0" x2="0.0" y2="180.0" stroke="black" stroke-width="1"/>
<line x1="0.0" y1="180.0" x2="10.0" y2="180.0" stroke="black" stroke-width="1"/>
<line x1="10.0" y1="180.0" x2="10.0" y2="190.0" stroke="black" stroke-width="1"/>
<line x1="10.0" y1="190.0" x2="20.0" y2="190.0" stroke="black" stroke-width="1"/>
<line x1="20.0" y1="190.0" x2="20.0" y2="180.0" stroke="black" stroke-width="1"/>
<line x1="20.0" y1="180.0" x2="30.0" y2="180.0" stroke="black" stroke-width="1"/>
<line x1="30.0" y1="180.0" x2="30.0" y2="170.0" stroke="black" stroke-width="1"/>
<line x1="30.0" y1="170.0" x2="20.0" y2="170.0" stroke="black" stroke-width="1"/>
<line x1="20.0" y1="170.0" x2="20.0" y2="160.0" stroke="black" stroke-width="1"/>
<line x1="20.0" y1="160.0" x2="30.0" y2="160.0" stroke="black" stroke-width="1"/>
<line x1="30.0" y1="160.0" x2="30.0" y2="170.0" stroke="black" stroke-width="1"/>
<line x1="30.0" y1="170.0" x2="40.0" y2="170.0" stroke="black" stroke-width="1"/>
<line x1="40.0" y1="170.0" x2="40.0" y2="180.0" stroke="black" stroke-width="1"/>
<line x1="40.0" y1="180.0" x2="30.0" y2="180.0" stroke="black" stroke-width="1"/>
<line x1="30.0" y1="180.0" x2="30.0" y2="190.0" stroke="black" stroke-width="1"/>
<line x1="30.0" y1="190.0" x2="40.0" y2="190.0" stroke="black" stroke-width="1"/>
<line x1="40.0" y1="190.0" x2="40.0" y2="180.0" stroke="black" stroke-width="1"/>
<line x1="40.0" y1="180.0" x2="50.0" y2="180.0" stroke="black" stroke-width="1"/>
<line x1="50.0" y1="180.0" x2="50.0" y2="190.0" stroke="black" stroke-width="1"/>
<line x1="50.0" y1="190.0" x2="60.0" y2="190.0" stroke="black" stroke-width="1"/>
<line x1="60.0" y1="190.0" x2="60.0" y2="180.0" stroke="black" stroke-width="1"/>
<line x1="60.0" y1="180.0" x2="70.0" y2="180.0" stroke="black" stroke-width="1"/>
<line x1="70.0" y1="180.0" x2="70.0" y2="170.0" stroke="black" stroke-width="1"/>
<line x1="70.0" y1="170.0" x2="60.0" y2="170.0" stroke="black" stroke-width="1"/>
<line x1="60.0" y1="170.0" x2="60.0" y2="180.0" stroke="black" stroke-width="1"/>
<line x1="60.0" y1="180.0" x2="50.0" y2="180.0" stroke="black" stroke-width="1"/>
<line x1="50.0" y1="180.0" x2="50.0" y2="170.0" stroke="black" stroke-width="1"/>
<line x1="50.0" y1="170.0" x2="40.0" y2="170.0" stroke="black" stroke-width="1"/>
<line x1="40.0" y1="170.0" x2="40.0" y2="160.0" stroke="black" stroke-width="1"/>
<line x1="40.0" y1="160.0" x2="50.0" y2="160.0" stroke="black" stroke-width="1"/>
<line x1="50.0" y1="160.0" x2="50.0" y2="150.0" stroke="black" stroke-width="1"/>
<line x1="50.0" y1="150.0" x2="40.0" y2="150.0" stroke="black" stroke-width="1"/>
<line x1="40.0" y1="150.0" x2="40.0" y2="140.0" stroke="black" stroke-width="1"/>
<line x1="40.0" y1="140.0" x2="50.0" y2="140.0" stroke="black" stroke-width="1"/>
<line x1="50.0" y1="140.0" x2="50.0" y2="150.0" stroke="black" stroke-width="1"/>
<line x1="50.0" y1="150.0" x2="60.0" y2="150.0" stroke="black" stroke-width="1"/>
<line x1="60.0" y1="150.0" x2="60.0" y2="140.0" stroke="black" stroke-width="1"/>
<line x1="60.0" y1="140.0" x2="70.0" y2="140.0" stroke="black" stroke-width="1"/>
<line x1="70.0" y1="140.0" x2="70.0" y2="130.0" stroke="black" stroke-width="1"/>
<line x1="70.0" y1="130.0" x2="60.0" y2="130.0" stroke="black" stroke-width="1"/>
<line x1="60.0" y1="130.0" x2="60.0" y2="140.0" stroke="black" stroke-width="1"/>
<line x1="60.0" y1="140.0" x2="50.0" y2="140.0" stroke="black" stroke-width="1"/>
<line x1="50.0" y1="140.0" x2="50.0" y2="130.0" stroke="black" stroke-width="1"/>
<line x1="50.0" y1="130.0" x2="40.0" y2="130.0" stroke="black" stroke-width="1"/>
<line x1="40.0" y1="130.0" x2="40.0" y2="120.0" stroke="black" stroke-width="1"/>
<line x1="40.0" y1="120.0" x2="50.0" y2="120.0" stroke="black" stroke-width="1"/>
<line x1="50.0" y1="120.0" x2="50.0" y2="110.0" stroke="black" stroke-width="1"/>
<line x1="50.0" y1="110.0" x2="40.0" y2="110.0" stroke="black" stroke-width="1"/>
<line x1="40.0" y1="110.0" x2="40.0" y2="120.0" stroke="black" stroke-width="1"/>
<line x1="40.0" y1="120.0" x2="30.0" y2="120.0" stroke="black" stroke-width="1"/>
<line x1="30.0" y1="120.0" x2="30.0" y2="110.0" stroke="black" stroke-width="1"/>
<line x1="30.0" y1="110.0" x2="20.0" y2="110.0" stroke="black" stroke-width="1"/>
<line x1="20.0" y1="110.0" x2="20.0" y2="120.0" stroke="black" stroke-width="1"/>
<line x1="20.0" y1="120.0" x2="10.0" y2="120.0" stroke="black" stroke-width="1"/>
<line x1="10.0" y1="120.0" x2="10.0" y2="130.0" stroke="black" stroke-width="1"/>
<line x1="10.0" y1="130.0" x2="20.0" y2="130.0" stroke="black" stroke-width="1"/>
<line x1="20.0" y1="130.0" x2="20.0" y2="140.0" stroke="black" stroke-width="1"/>
<line x1="20.0" y1="140.0" x2="10.0" y2="140.0" stroke="black" stroke-width="1"/>
<line x1="10.0" y1="140.0" x2="10.0" y2="130.0" stroke="black" stroke-width="1"/>
<line x1="10.0" y1="130.0" x2="0.0" y2="130.0" stroke="black" stroke-width="1"/>
<line x1="0.0" y1="130.0" x2="0.0" y2="120.0" stroke="black" stroke-width="1"/>
<line x1="0.0" y1="120.0" x2="10.0" y2="120.0" stroke="black" stroke-width="1"/>
<line x1="10.0" y1="120.0" x2="10.0" y2="110.0" stroke="black" stroke-width="1"/>
<line x1="10.0" y1="110.0" x2="0.0" y2="110.0" stroke="black" stroke-width="1"/>
<line x1="0.0" y1="110.0" x2="0.0" y2="100.0" stroke="black" stroke-width="1"/>
<line x1="0.0" y1="100.0" x2="10.0" y2="100.0" stroke="black" stroke-width="1"/>
<line x1="10.0" y1="100.0" x2="10.0" y2="110.0" stroke="black" stroke-width="1"/>
<line x1="10.0" y1="110.0" x2="20.0" y2="110.0" stroke="black" stroke-width="1"/>
<line x1="20.0" y1="110.0" x2="20.0" y2="100.0" stroke="black" stroke-width="1"/>
<line x1="20.0" y1="100.0" x2="30.0" y2="100.0" stroke="black" stroke-width="1"/>
<line x1="30.0" y1="100.0" x2="30.0" y2="90.0" stroke="black" stroke-width="1"/>
<line x1="30.0" y1="90.0" x2="20.0" y2="90.0" stroke="black" stroke-width="1"/>
<line x1="20.0" y1="90.0" x2="20.0" y2="80.0" stroke="black" stroke-width="1"/>
<line x1="20.0" y1="80.0" x2="30.0" y2="80.0" stroke="black" stroke-width="1"/>
<line x1="30.0" y1="80.0" x2="30.0" y2="90.0" stroke="black" stroke-width="1"/>
<line x1="30.0" y1="90.0" x2="40.0" y2="90.0" stroke="black" stroke-width="1"/>
<line x1="40.0" y1="90.0" x2="40.0" y2="100.0" stroke="black" stroke-width="1"/>
<line x1="40.0" y1="100.0" x2="30.0" y2="100.0" stroke="black" stroke-width="1"/>
<line x1="30.0" y1="100.0" x2="30.0" y2="110.0" stroke="black" stroke-width="1"/>
<line x1="30.0" y1="110.0" x2="40.0" y2="110.0" stroke="black" stroke-width="1"/>
<line x1="40.0" y1="110.0" x2="40.0" y2="100.0" stroke="black" stroke-width="1"/>
<line x1="40.0" y1="100.0" x2="50.0" y2="100.0" stroke="black" stroke-width="1"/>
<line x1="50.0" y1="100.0" x2="50.0" y2="110.0" stroke="black" stroke-width="1"/>
<line x1="50.0" y1="110.0" x2="60.0" y2="110.0" stroke="black" stroke-width="1"/>
<line x1="60.0" y1="110.0" x2="60.0" y2="100.0" stroke="black" stroke-width="1"/>
<line x1="60.0" y1="100.0" x2="70.0" y2="100.0" stroke="black" stroke-width="1"/>
<line x1="70.0" y1="100.0" x2="70.0" y2="90.0" stroke="black" stroke-width="1"/>
<line x1="70.0" y1="90.0" x2="60.0" y2="90.0" stroke="black" stroke-width="1"/>
<line x1="60.0" y1="90.0" x2="60.0" y2="80.0" stroke="black" stroke-width="1"/>
<line x1="60.0" y1="80.0" x2="70.0" y2="80.0" stroke="black" stroke-width="1"/>
<line x1="70.0" y1="80.0" x2="70.0" y2="90.0" stroke="black" stroke-width="1"/>
<line x1="70.0" y1="90.0" x2="80.0" y2="90.0" stroke="black" stroke-width="1"/>
<line x1="80.0" y1="90.0" x2="80.0" y2="100.0" stroke="black" stroke-width="1"/>
<line x1="80.0" y1="100.0" x2="70.0" y2="100.0" stroke="black" stroke-width="1"/>
<line x1="70.0" y1="100.0" x2="70.0" y2="110.0" stroke="black" stroke-width="1"/>
<line x1="70.0" y1="110.0" x2="80.0" y2="110.0" stroke="black" stroke-width="1"/>
<line x1="80.0" y1="110.0" x2="80.0" y2="120.0" stroke="black" stroke-width="1"/>
<line x1="80.0" y1="120.0" x2="70.0" y2="120.0" stroke="black" stroke-width="1"/>
<line x1="70.0" y1="120.0" x2="70.0" y2="110.0" stroke="black" stroke-width="1"/>
<line x1="70.0" y1="110.0" x2="60.0" y2="110.0" stroke="black" stroke-width="1"/>
<line x1="60.0" y1="110.0" x2="60.0" y2="120.0" stroke="black" stroke-width="1"/>
<line x1="60.0" y1="120.0" x2="50.0" y2="120.0" stroke="black" stroke-width="1"/>
<line x1="50.0" y1="120.0" x2="50.0" y2="130.0" stroke="black" stroke-width="1"/>
<line x1="50.0" y1="130.0" x2="60.0" y2="130.0" stroke="black" stroke-width="1"/>
<line x1="60.0" y1="130.0" x2="60.0" y2="120.0" stroke="black" stroke-width="1"/>
<line x1="60.0" y1="120.0" x2="70.0" y2="120.0" stroke="black" stroke-width="1"/>
<line x1="70.0" y1="120.0" x2="70.0" y2="130.0" stroke="black" stroke-width="1"/>
<line x1="70.0" y1="130.0" x2="80.0" y2="130.0" stroke="black" stroke-width="1"/>
<line x1="80.0" y1="130.0" x2="80.0" y2="140.0" stroke="black" stroke-width="1"/>
<line x1="80.0" y1="140.0" x2="70.0" y2="140.0" stroke="black" stroke-width="1"/>
<line x1="70.0" y1="140.0" x2="70.0" y2="150.0" stroke="black" stroke-width="1"/>
<line x1="70.0" y1="150.0" x2="80.0" y2="150.0" stroke="black" stroke-width="1"/>
<line x1="80.0" y1="150.0" x2="80.0" y2="140.0" stroke="black" stroke-width="1"/>
<line x1="80.0" y1="140.0" x2="90.0" y2="140.0" stroke="black" stroke-width="1"/>
<line x1="90.0" y1="140.0" x2="90.0" y2="150.0" stroke="black" stroke-width="1"/>
<line x1="90.0" y1="150.0" x2="100.0" y2="150.0" stroke="black" stroke-width="1"/>
<line x1="100.0" y1="150.0" x2="100.0" y2="140.0" stroke="black" stroke-width="1"/>
<line x1="100.0" y1="140.0" x2="110.0" y2="140.0" stroke="black" stroke-width="1"/>
<line x1="110.0" y1="140.0" x2="110.0" y2="130.0" stroke="black" stroke-width="1"/>
<line x1="110.0" y1="130.0" x2="100.0" y2="130.0" stroke="black" stroke-width="1"/>
<line x1="100.0" y1="130.0" x2="100.0" y2="140.0" stroke="black" stroke-width="1"/>
<line x1="100.0" y1="140.0" x2="90.0" y2="140.0" stroke="black" stroke-width="1"/>
<line x1="90.0" y1="140.0" x2="90.0" y2="130.0" stroke="black" stroke-width="1"/>
<line x1="90.0" y1="130.0" x2="80.0" y2="130.0" stroke="black" stroke-width="1"/>
<line x1="80.0" y1="130.0" x2="80.0" y2="120.0" stroke="black" stroke-width="1"/>
<line x1="80.0" y1="120.0" x2="90.0" y2="120.0" stroke="black" stroke-width="1"/>
<line x1="90.0" y1="120.0" x2="90.0" y2="110.0" stroke="black" stroke-width="1"/>
<line x1="90.0" y1="110.0" x2="80.0" y2="110.0" stroke="black" stroke-width="1"/>
<line x1="80.0" y1="110.0" x2="80.0" y2="100.0" stroke="black" stroke-width="1"/>
<line x1="80.0" y1="100.0" x2="90.0" y2="100.0" stroke="black" stroke-width="1"/>
<line x1="90.0" y1="100.0" x2="90.0" y2="110.0" stroke="black" stroke-width="1"/>
<line x1="90.0" y1="110.0" x2="100.0" y2="110.0" stroke="black" stroke-width="1"/>
<line x1="100.0" y1="110.0" x2="100.0" y2="100.0" stroke="black" stroke-width="1"/>
<line x1="100.0" y1="100.0" x2="110.0" y2="100.0" stroke="black" stroke-width="1"/>
<line x1="110.0" y1="100.0" x2="110.0" y2="90.0" stroke="black" stroke-width="1"/>
<line x1="110.0" y1="90.0" x2="100.0" y2="90.0" stroke="black" stroke-width="1"/>
<line x1="100.0" y1="90.0" x2="100.0" y2="80.0" stroke="black" stroke-width="1"/>
<line x1="100.0" y1="80.0" x2="110.0" y2="80.0" stroke="black" stroke-width="1"/>
<line x1="110.0" y1="80.0" x2="110.0" y2="90.0" stroke="black" stroke-width="1"/>
<line x1="110.0" y1="90.0" x2="120.0" y2="90.0" stroke="black" stroke-width="1"/>
<line x1="120.0" y1="90.0" x2="120.0" y2="100.0" stroke="black" stroke-width="1"/>
<line x1="120.0" y1="100.0" x2="110.0" y2="100.0" stroke="black" stroke-width="1"/>
<line x1="110.0" y1="100.0" x2="110.00000000000001" y2="110.0" stroke="black" stroke-width="1"/>
<line x1="110.00000000000001" y1="110.0" x2="120.0" y2="110.0" stroke="black" stroke-width="1"/>
<line x1="120.0" y1="110.0" x2="120.0" y2="100.0" stroke="black" stroke-width="1"/>
<line x1="120.0" y1="100.0" x2="130.0" y2="100.0" stroke="black" stroke-width="1"/>
<line x1="130.0" y1="100.0" x2="130.0" y2="110.0" stroke="black" stroke-width="1"/>
<line x1="130.0" y1="110.0" x2="140.0" y2="110.0" stroke="black" stroke-width="1"/>
<line x1="140.0" y1="110.0" x2="140.0" y2="100.0" stroke="black" stroke-width="1"/>
<line x1="140.0" y1="100.0" x2="150.0" y2="100.0" stroke="black" stroke-width="1"/>
<line x1="150.0" y1="100.0" x2="150.0" y2="90.0" stroke="black" stroke-width="1"/>
<line x1="150.0" y1="90.0" x2="140.0" y2="90.0" stroke="black" stroke-width="1"/>
<line x1="140.0" y1="90.0" x2="140.0" y2="100.0" stroke="black" stroke-width="1"/>
<line x1="140.0" y1="100.0" x2="130.0" y2="100.0" stroke="black" stroke-width="1"/>
<line x1="130.0" y1="100.0" x2="130.0" y2="90.0" stroke="black" stroke-width="1"/>
<line x1="130.0" y1="90.0" x2="120.0" y2="90.0" stroke="black" stroke-width="1"/>
<line x1="120.0" y1="90.0" x2="120.0" y2="80.0" stroke="black" stroke-width="1"/>
<line x1="120.0" y1="80.0" x2="130.0" y2="80.0" stroke="black" stroke-width="1"/>
<line x1="130.0" y1="80.0" x2="130.0" y2="70.0" stroke="black" stroke-width="1"/>
<line x1="130.0" y1="70.0" x2="120.0" y2="70.0" stroke="black" stroke-width="1"/>
<line x1="120.0" y1="70.0" x2="120.0" y2="60.0" stroke="black" stroke-width="1"/>
<line x1="120.0" y1="60.0" x2="130.0" y2="60.0" stroke="black" stroke-width="1"/>
<line x1="130.0" y1="60.0" x2="130.0" y2="70.0" stroke="black" stroke-width="1"/>
<line x1="130.0" y1="70.0" x2="140.0" y2="70.0" stroke="black" stroke-width="1"/>
<line x1="140.0" y1="70.0" x2="140.0" y2="60.0" stroke="black" stroke-width="1"/>
<line x1="140.0" y1="60.0" x2="150.0" y2="60.0" stroke="black" stroke-width="1"/>
<line x1="150.0" y1="60.0" x2="150.0" y2="50.0" stroke="black" stroke-width="1"/>
<line x1="150.0" y1="50.0" x2="140.0" y2="50.0" stroke="black" stroke-width="1"/>
<line x1="140.0" y1="50.0" x2="140.0" y2="60.0" stroke="black" stroke-width="1"/>
<line x1="140.0" y1="60.0" x2="130.0" y2="60.0" stroke="black" stroke-width="1"/>
<line x1="130.0" y1="60.0" x2="130.0" y2="50.0" stroke="black" stroke-width="1"/>
<line x1="130.0" y1="50.0" x2="120.0" y2="50.0" stroke="black" stroke-width="1"/>
<line x1="120.0" y1="50.0" x2="120.0" y2="40.0" stroke="black" stroke-width="1"/>
<line x1="120.0" y1="40.0" x2="130.0" y2="40.0" stroke="black" stroke-width="1"/>
<line x1="130.0" y1="40.0" x2="130.0" y2="30.0" stroke="black" stroke-width="1"/>
<line x1="130.0" y1="30.0" x2="120.0" y2="30.0" stroke="black" stroke-width="1"/>
<line x1="120.0" y1="30.0" x2="120.0" y2="40.0" stroke="black" stroke-width="1"/>
<line x1="120.0" y1="40.0" x2="110.0" y2="40.0" stroke="black" stroke-width="1"/>
<line x1="110.0" y1="40.0" x2="110.0" y2="30.0" stroke="black" stroke-width="1"/>
<line x1="110.0" y1="30.0" x2="100.0" y2="30.0" stroke="black" stroke-width="1"/>
<line x1="100.0" y1="30.0" x2="100.00000000000001" y2="40.0" stroke="black" stroke-width="1"/>
<line x1="100.00000000000001" y1="40.0" x2="90.00000000000001" y2="40.0" stroke="black" stroke-width="1"/>
<line x1="90.00000000000001" y1="40.0" x2="90.00000000000001" y2="50.0" stroke="black" stroke-width="1"/>
<line x1="90.00000000000001" y1="50.0" x2="100.00000000000001" y2="50.0" stroke="black" stroke-width="1"/>
<line x1="100.00000000000001" y1="50.0" x2="100.00000000000001" y2="60.0" stroke="black" stroke-width="1"/>
<line x1="100.00000000000001" y1="60.0" x2="90.00000000000001" y2="60.0" stroke="black" stroke-width="1"/>
<line x1="90.00000000000001" y1="60.0" x2="90.00000000000001" y2="50.0" stroke="black" stroke-width="1"/>
<line x1="90.00000000000001" y1="50.0" x2="80.00000000000001" y2="50.0" stroke="black" stroke-width="1"/>
<line x1="80.00000000000001" y1="50.0" x2="80.00000000000001" y2="40.0" stroke="black" stroke-width="1"/>
<line x1="80.00000000000001" y1="40.0" x2="90.00000000000001" y2="40.0" stroke="black" stroke-width="1"/>
<line x1="90.00000000000001" y1="40.0" x2="90.00000000000001" y2="30.0" stroke="black" stroke-width="1"/>
<line x1="90.00000000000001" y1="30.0" x2="80.00000000000001" y2="30.0" stroke="black" stroke-width="1"/>
<line x1="80.00000000000001" y1="30.0" x2="80.00000000000001" y2="20.0" stroke="black" stroke-width="1"/>
<line x1="80.00000000000001" y1="20.0" x2="90.00000000000001" y2="20.0" stroke="black" stroke-width="1"/>
<line x1="90.00000000000001" y1="20.0" x2="90.00000000000001" y2="30.0" stroke="black" stroke-width="1"/>
<line x1="90.00000000000001" y1="30.0" x2="100.00000000000001" y2="30.0" stroke="black" stroke-width="1"/>
<line x1="100.00000000000001" y1="30.0" x2="100.00000000000001" y2="20.0" stroke="black" stroke-width="1"/>
<line x1="100.00000000000001" y1="20.0" x2="110.00000000000001" y2="20.0" stroke="black" stroke-width="1"/>
<line x1="110.00000000000001" y1="20.0" x2="110.00000000000001" y2="10.0" stroke="black" stroke-width="1"/>
<line x1="110.00000000000001" y1="10.0" x2="100.00000000000001" y2="10.0" stroke="black" stroke-width="1"/>
<line x1="100.00000000000001" y1="10.0" x2="100.00000000000001" y2="0.0" stroke="black" stroke-width="1"/>
<line x1="100.00000000000001" y1="0.0" x2="110.00000000000001" y2="0.0" stroke="black" stroke-width="1"/>
<line x1="110.00000000000001" y1="0.0" x2="110.00000000000001" y2="10.0" stroke="black" stroke-width="1"/>
<line x1="110.00000000000001" y1="10.0" x2="120.00000000000001" y2="10.0" stroke="black" stroke-width="1"/>
<line x1="120.00000000000001" y1="10.0" x2="120.00000000000001" y2="20.0" stroke="black" stroke-width="1"/>
<line x1="120.00000000000001" y1="20.0" x2="110.00000000000001" y2="20.0" stroke="black" stroke-width="1"/>
<line x1="110.00000000000001" y1="20.0" x2="110.00000000000001" y2="30.0" stroke="black" stroke-width="1"/>
<line x1="110.00000000000001" y1="30.0" x2="120.00000000000003" y2="30.0" stroke="black" stroke-width="1"/>
<line x1="120.00000000000003" y1="30.0" x2="120.00000000000003" y2="20.0" stroke="black" stroke-width="1"/>
<line x1="120.00000000000003" y1="20.0" x2="130.00000000000003" y2="20.0" stroke="black" stroke-width="1"/>
<line x1="130.00000000000003" y1="20.0" x2="130.00000000000003" y2="30.0" stroke="black" stroke-width="1"/>
<line x1="130.00000000000003" y1="30.0" x2="140.00000000000003" y2="30.0" stroke="black" stroke-width="1"/>
<line x1="140.00000000000003" y1="30.0" x2="140.00000000000003" y2="20.0" stroke="black" stroke-width="1"/>
<line x1="140.00000000000003" y1="20.0" x2="150.00000000000003" y2="20.0" stroke="black" stroke-width="1"/>
<line x1="150.00000000000003" y1="20.0" x2="150.00000000000003" y2="10.0" stroke="black" stroke-width="1"/>
<line x1="150.00000000000003" y1="10.0" x2="140.00000000000003" y2="10.0" stroke="black" stroke-width="1"/>
<line x1="140.00000000000003" y1="10.0" x2="140.00000000000003" y2="0.0" stroke="black" stroke-width="1"/>
<line x1="140.00000000000003" y1="0.0" x2="150.00000000000003" y2="0.0" stroke="black" stroke-width="1"/>
<line x1="150.00000000000003" y1="0.0" x2="150.00000000000003" y2="10.0" stroke="black" stroke-width="1"/>
<line x1="150.00000000000003" y1="10.0" x2="160.00000000000003" y2="10.0" stroke="black" stroke-width="1"/>
<line x1="160.00000000000003" y1="10.0" x2="160.00000000000003" y2="20.0" stroke="black" stroke-width="1"/>
<line x1="160.00000000000003" y1="20.0" x2="150.00000000000003" y2="20.0" stroke="black" stroke-width="1"/>
<line x1="150.00000000000003" y1="20.0" x2="150.00000000000003" y2="30.0" stroke="black" stroke-width="1"/>
<line x1="150.00000000000003" y1="30.0" x2="160.00000000000003" y2="30.0" stroke="black" stroke-width="1"/>
<line x1="160.00000000000003" y1="30.0" x2="160.00000000000003" y2="40.0" stroke="black" stroke-width="1"/>
<line x1="160.00000000000003" y1="40.0" x2="150.00000000000003" y2="40.0" stroke="black" stroke-width="1"/>
<line x1="150.00000000000003" y1="40.0" x2="150.00000000000003" y2="30.0" stroke="black" stroke-width="1"/>
<line x1="150.00000000000003" y1="30.0" x2="140.00000000000003" y2="30.0" stroke="black" stroke-width="1"/>
<line x1="140.00000000000003" y1="30.0" x2="140.00000000000003" y2="40.0" stroke="black" stroke-width="1"/>
<line x1="140.00000000000003" y1="40.0" x2="130.00000000000003" y2="40.0" stroke="black" stroke-width="1"/>
<line x1="130.00000000000003" y1="40.0" x2="130.00000000000003" y2="50.0" stroke="black" stroke-width="1"/>
<line x1="130.00000000000003" y1="50.0" x2="140.00000000000003" y2="50.0" stroke="black" stroke-width="1"/>
<line x1="140.00000000000003" y1="50.0" x2="140.00000000000003" y2="40.0" stroke="black" stroke-width="1"/>
<line x1="140.00000000000003" y1="40.0" x2="150.00000000000003" y2="40.0" stroke="black" stroke-width="1"/>
<line x1="150.00000000000003" y1="40.0" x2="150.00000000000003" y2="50.0" stroke="black" stroke-width="1"/>
<line x1="150.00000000000003" y1="50.0" x2="160.00000000000003" y2="50.0" stroke="black" stroke-width="1"/>
<line x1="160.00000000000003" y1="50.0" x2="160.00000000000003" y2="60.0" stroke="black" stroke-width="1"/>
<line x1="160.00000000000003" y1="60.0" x2="150.00000000000003" y2="60.0" stroke="black" stroke-width="1"/>
<line x1="150.00000000000003" y1="60.0" x2="150.00000000000003" y2="70.0" stroke="black" stroke-width="1"/>
<line x1="150.00000000000003" y1="70.0" x2="160.00000000000003" y2="70.0" stroke="black" stroke-width="1"/>
<line x1="160.00000000000003" y1="70.0" x2="160.00000000000003" y2="60.0" stroke="black" stroke-width="1"/>
<line x1="160.00000000000003" y1="60.0" x2="170.00000000000003" y2="60.0" stroke="black" stroke-width="1"/>
<line x1="170.00000000000003" y1="60.0" x2="170.00000000000003" y2="70.0" stroke="black" stroke-width="1"/>
<line x1="170.00000000000003" y1="70.0" x2="180.00000000000003" y2="70.0" stroke="black" stroke-width="1"/>
<line x1="180.00000000000003" y1="70.0" x2="180.00000000000003" y2="60.0" stroke="black" stroke-width="1"/>
<line x1="180.00000000000003" y1="60.0" x2="190.00000000000003" y2="60.0" stroke="black" stroke-width="1"/>
<line x1="190.00000000000003" y1="60.0" x2="190.00000000000003" y2="50.0" stroke="black" stroke-width="1"/>
<line x1="190.00000000000003" y1="50.0" x2="180.00000000000003" y2="50.0" stroke="black" stroke-width="1"/>
<line x1="180.00000000000003" y1="50.0" x2="180.00000000000003" y2="40.0" stroke="black" stroke-width="1"/>
<line x1="180.00000000000003" y1="40.0" x2="190.00000000000003" y2="40.0" stroke="black" stroke-width="1"/>
<line x1="190.00000000000003" y1="40.0" x2="190.00000000000003" y2="50.0" stroke="black" stroke-width="1"/>
<line x1="190.00000000000003" y1="50.0" x2="200.00000000000003" y2="50.0" stroke="black" stroke-width="1"/>
<line x1="200.00000000000003" y1="50.0" x2="200.00000000000003" y2="60.0" stroke="black" stroke-width="1"/>
<line x1="200.00000000000003" y1="60.0" x2="190.00000000000003" y2="60.0" stroke="black" stroke-width="1"/>
<line x1="190.00000000000003" y1="60.0" x2="190.00000000000003" y2="70.0" stroke="black" stroke-width="1"/>
<line x1="190.00000000000003" y1="70.0" x2="200.00000000000003" y2="70.0" stroke="black" stroke-width="1"/>
<line x1="200.00000000000003" y1="70.0" x2="200.00000000000003" y2="80.0" stroke="black" stroke-width="1"/>
<line x1="200.00000000000003" y1="80.0" x2="190.00000000000003" y2="80.0" stroke="black" stroke-width="1"/>
<line x1="190.00000000000003" y1="80.0" x2="190.00000000000003" y2="70.0" stroke="black" stroke-width="1"/>
<line x1="190.00000000000003" y1="70.0" x2="180.00000000000003" y2="70.0" stroke="black" stroke-width="1"/>
<line x1="180.00000000000003" y1="70.0" x2="180.00000000000003" y2="80.0" stroke="black" stroke-width="1"/>
<line x1="180.00000000000003" y1="80.0" x2="170.00000000000003" y2="80.0" stroke="black" stroke-width="1"/>
<line x1="170.00000000000003" y1="80.0" x2="170.00000000000003" y2="90.0" stroke="black" stroke-width="1"/>
<line x1="170.00000000000003" y1="90.0" x2="180.00000000000003" y2="90.0" stroke="black" stroke-width="1"/>
<line x1="180.00000000000003" y1="90.0" x2="180.00000000000003" y2="100.0" stroke="black" stroke-width="1"/>
<line x1="180.00000000000003" y1="100.0" x2="170.00000000000003" y2="100.0" stroke="black" stroke-width="1"/>
<line x1="170.00000000000003" y1="100.0" x2="170.00000000000003" y2="90.0" stroke="black" stroke-width="1"/>
<line x1="170.00000000000003" y1="90.0" x2="160.00000000000003" y2="90.0" stroke="black" stroke-width="1"/>
<line x1="160.00000000000003" y1="90.0" x2="160.00000000000003" y2="80.0" stroke="black" stroke-width="1"/>
<line x1="160.00000000000003" y1="80.0" x2="170.00000000000003" y2="80.0" stroke="black" stroke-width="1"/>
<line x1="170.00000000000003" y1="80.0" x2="170.00000000000003" y2="70.0" stroke="black" stroke-width="1"/>
<line x1="170.00000000000003" y1="70.0" x2="160.00000000000003" y2="70.0" stroke="black" stroke-width="1"/>
<line x1="160.00000000000003" y1="70.0" x2="160.00000000000003" y2="80.0" stroke="black" stroke-width="1"/>
<line x1="160.00000000000003" y1="80.0" x2="150.00000000000003" y2="80.0" stroke="black" stroke-width="1"/>
<line x1="150.00000000000003" y1="80.0" x2="150.00000000000003" y2="70.0" stroke="black" stroke-width="1"/>
<line x1="150.00000000000003" y1="70.0" x2="140.00000000000003" y2="70.0" stroke="black" stroke-width="1"/>
<line x1="140.00000000000003" y1="70.0" x2="140.00000000000003" y2="80.0" stroke="black" stroke-width="1"/>
<line x1="140.00000000000003" y1="80.0" x2="130.00000000000003" y2="80.0" stroke="black" stroke-width="1"/>
<line x1="130.00000000000003" y1="80.0" x2="130.00000000000003" y2="90.0" stroke="black" stroke-width="1"/>
<line x1="130.00000000000003" y1="90.0" x2="140.00000000000003" y2="90.0" stroke="black" stroke-width="1"/>
<line x1="140.00000000000003" y1="90.0" x2="140.00000000000003" y2="80.0" stroke="black" stroke-width="1"/>
<line x1="140.00000000000003" y1="80.0" x2="150.00000000000003" y2="80.0" stroke="black" stroke-width="1"/>
<line x1="150.00000000000003" y1="80.0" x2="150.00000000000003" y2="90.0" stroke="black" stroke-width="1"/>
<line x1="150.00000000000003" y1="90.0" x2="160.00000000000003" y2="90.0" stroke="black" stroke-width="1"/>
<line x1="160.00000000000003" y1="90.0" x2="160.00000000000003" y2="100.0" stroke="black" stroke-width="1"/>
<line x1="160.00000000000003" y1="100.0" x2="150.00000000000003" y2="100.0" stroke="black" stroke-width="1"/>
<line x1="150.00000000000003" y1="100.0" x2="150.00000000000003" y2="110.0" stroke="black" stroke-width="1"/>
<line x1="150.00000000000003" y1="110.0" x2="160.00000000000003" y2="110.0" stroke="black" stroke-width="1"/>
<line x1="160.00000000000003" y1="110.0" x2="160.00000000000003" y2="120.0" stroke="black" stroke-width="1"/>
<line x1="160.00000000000003" y1="120.0" x2="150.00000000000003" y2="120.0" stroke="black" stroke-width="1"/>
<line x1="150.00000000000003" y1="120.0" x2="150.00000000000003" y2="110.0" stroke="black" stroke-width="1"/>
<line x1="150.00000000000003" y1="110.0" x2="140.00000000000003" y2="110.0" stroke="black" stroke-width="1"/>
<line x1="140.00000000000003" y1="110.0" x2="140.00000000000003" y2="120.0" stroke="black" stroke-width="1"/>
<line x1="140.00000000000003" y1="120.0" x2="130.00000000000003" y2="120.0" stroke="black" stroke-width="1"/>
<line x1="130.00000000000003" y1="120.0" x2="130.00000000000003" y2="130.0" stroke="black" stroke-width="1"/>
<line x1="130.00000000000003" y1="130.0" x2="140.00000000000003" y2="130.0" stroke="black" stroke-width="1"/>
<line x1="140.00000000000003" y1="130.0" x2="140.00000000000003" y2="120.0" stroke="black" stroke-width="1"/>
<line x1="140.00000000000003" y1="120.0" x2="150.00000000000003" y2="120.0" stroke="black" stroke-width="1"/>
<line x1="150.00000000000003" y1="120.0" x2="150.00000000000003" y2="130.0" stroke="black" stroke-width="1"/>
<line x1="150.00000000000003" y1="130.0" x2="160.00000000000003" y2="130.0" stroke="black" stroke-width="1"/>
<line x1="160.00000000000003" y1="130.0" x2="160.00000000000003" y2="140.0" stroke="black" stroke-width="1"/>
<line x1="160.00000000000003" y1="140.0" x2="150.00000000000003" y2="140.0" stroke="black" stroke-width="1"/>
<line x1="150.00000000000003" y1="140.0" x2="150.00000000000003" y2="150.0" stroke="black" stroke-width="1"/>
<line x1="150.00000000000003" y1="150.0" x2="160.00000000000003" y2="150.0" stroke="black" stroke-width="1"/>
<line x1="160.00000000000003" y1="150.0" x2="160.00000000000003" y2="140.0" stroke="black" stroke-width="1"/>
<line x1="160.00000000000003" y1="140.0" x2="170.00000000000003" y2="140.0" stroke="black" stroke-width="1"/>
<line x1="170.00000000000003" y1="140.0" x2="170.00000000000003" y2="150.0" stroke="black" stroke-width="1"/>
<line x1="170.00000000000003" y1="150.0" x2="180.00000000000003" y2="150.0" stroke="black" stroke-width="1"/>
<line x1="180.00000000000003" y1="150.0" x2="180.00000000000003" y2="140.0" stroke="black" stroke-width="1"/>
<line x1="180.00000000000003" y1="140.0" x2="190.00000000000003" y2="140.0" stroke="black" stroke-width="1"/>
<line x1="190.00000000000003" y1="140.0" x2="190.00000000000003" y2="130.0" stroke="black" stroke-width="1"/>
<line x1="190.00000000000003" y1="130.0" x2="180.00000000000003" y2="130.0" stroke="black" stroke-width="1"/>
<line x1="180.00000000000003" y1="130.0" x2="180.00000000000003" y2="140.0" stroke="black" stroke-width="1"/>
<line x1="180.00000000000003" y1="140.0" x2="170.00000000000003" y2="140.0" stroke="black" stroke-width="1"/>
<line x1="170.00000000000003" y1="140.0" x2="170.00000000000003" y2="130.0" stroke="black" stroke-width="1"/>
<line x1="170.00000000000003" y1="130.0" x2="160.00000000000003" y2="130.0" stroke="black" stroke-width="1"/>
<line x1="160.00000000000003" y1="130.0" x2="160.00000000000003" y2="120.0" stroke="black" stroke-width="1"/>
<line x1="160.00000000000003" y1="120.0" x2="170.00000000000003" y2="120.0" stroke="black" stroke-width="1"/>
<line x1="170.00000000000003" y1="120.0" x2="170.00000000000003" y2="110.0" stroke="black" stroke-width="1"/>
<line x1="170.00000000000003" y1="110.0" x2="160.00000000000003" y2="110.0" stroke="black" stroke-width="1"/>
<line x1="160.00000000000003" y1="110.0" x2="160.00000000000003" y2="100.0" stroke="black" stroke-width="1"/>
<line x1="160.00000000000003" y1="100.0" x2="170.00000000000003" y2="100.0" stroke="black" stroke-width="1"/>
<line x1="170.00000000000003" y1="100.0" x2="170.00000000000003" y2="110.0" stroke="black" stroke-width="1"/>
<line x1="170.00000000000003" y1="110.0" x2="180.00000000000003" y2="110.0" stroke="black" stroke-width="1"/>
<line x1="180.00000000000003" y1="110.0" x2="180.00000000000003" y2="100.0" stroke="black" stroke-width="1"/>
<line x1="180.00000000000003" y1="100.0" x2="190.00000000000003" y2="100.0" stroke="black" stroke-width="1"/>
<line x1="190.00000000000003" y1="100.0" x2="190.00000000000003" y2="90.0" stroke="black" stroke-width="1"/>
<line x1="190.00000000000003" y1="90.0" x2="180.00000000000003" y2="90.0" stroke="black" stroke-width="1"/>
<line x1="180.00000000000003" y1="90.0" x2="180.00000000000003" y2="80.0" stroke="black" stroke-width="1"/>
<line x1="180.00000000000003" y1="80.0" x2="190.00000000000003" y2="80.0" stroke="black" stroke-width="1"/>
<line x1="190.00000000000003" y1="80.0" x2="190.00000000000003" y2="90.0" stroke="black" stroke-width="1"/>
<line x1="190.00000000000003" y1="90.0" x2="200.00000000000003" y2="90.0" stroke="black" stroke-width="1"/>
<line x1="200.00000000000003" y1="90.0" x2="200.00000000000003" y2="100.0" stroke="black" stroke-width="1"/>
<line x1="200.00000000000003" y1="100.0" x2="190.00000000000003" y2="100.0" stroke="black" stroke-width="1"/>
<line x1="190.00000000000003" y1="100.0" x2="190.00000000000003" y2="110.0" stroke="black" stroke-width="1"/>
<line x1="190.00000000000003" y1="110.0" x2="200.00000000000003" y2="110.0" stroke="black" stroke-width="1"/>
<line x1="200.00000000000003" y1="110.0" x2="200.00000000000003" y2="100.0" stroke="black" stroke-width="1"/>
<line x1="200.00000000000003" y1="100.0" x2="210.00000000000003" y2="100.0" stroke="black" stroke-width="1"/>
<line x1="210.00000000000003" y1="100.0" x2="210.00000000000003" y2="110.0" stroke="black" stroke-width="1"/>
<line x1="210.00000000000003" y1="110.0" x2="220.00000000000003" y2="110.0" stroke="black" stroke-width="1"/>
<line x1="220.00000000000003" y1="110.0" x2="220.00000000000003" y2="100.0" stroke="black" stroke-width="1"/>
<line x1="220.00000000000003" y1="100.0" x2="230.00000000000003" y2="100.0" stroke="black" stroke-width="1"/>
<line x1="230.00000000000003" y1="100.0" x2="230.00000000000003" y2="90.0" stroke="black" stroke-width="1"/>
<line x1="230.00000000000003" y1="90.0" x2="220.00000000000003" y2="90.0" stroke="black" stroke-width="1"/>
<line x1="220.00000000000003" y1="90.0" x2="220.00000000000003" y2="80.0" stroke="black" stroke-width="1"/>
<line x1="220.00000000000003" y1="80.0" x2="230.00000000000003" y2="80.0" stroke="black" stroke-width="1"/>
<line x1="230.00000000000003" y1="80.0" x2="230.00000000000003" y2="90.0" stroke="black" stroke-width="1"/>
<line x1="230.00000000000003" y1="90.0" x2="240.00000000000003" y2="90.0" stroke="black" stroke-width="1"/>
<line x1="240.00000000000003" y1="90.0" x2="240.00000000000003" y2="100.0" stroke="black" stroke-width="1"/>
<line x1="240.00000000000003" y1="100.0" x2="230.00000000000003" y2="100.0" stroke="black" stroke-width="1"/>
<line x1="230.00000000000003" y1="100.0" x2="230.00000000000003" y2="110.0" stroke="black" stroke-width="1"/>
<line x1="230.00000000000003" y1="110.0" x2="240.00000000000003" y2="110.0" stroke="black" stroke-width="1"/>
<line x1="240.00000000000003" y1="110.0" x2="240.00000000000003" y2="120.0" stroke="black" stroke-width="1"/>
<line x1="240.00000000000003" y1="120.0" x2="230.00000000000003" y2="120.0" stroke="black" stroke-width="1"/>
<line x1="230.00000000000003" y1="120.0" x2="230.00000000000003" y2="110.0" stroke="black" stroke-width="1"/>
<line x1="230.00000000000003" y1="110.0" x2="220.00000000000003" y2="110.0" stroke="black" stroke-width="1"/>
<line x1="220.00000000000003" y1="110.0" x2="220.00000000000003" y2="120.0" stroke="black" stroke-width="1"/>
<line x1="220.00000000000003" y1="120.0" x2="210.00000000000003" y2="120.0" stroke="black" stroke-width="1"/>
<line x1="210.00000000000003" y1="120.0" x2="210.00000000000003" y2="130.0" stroke="black" stroke-width="1"/>
<line x1="210.00000000000003" y1="130.0" x2="220.00000000000003" y2="130.0" stroke="black" stroke-width="1"/>
<line x1="220.00000000000003" y1="130.0" x2="220.00000000000003" y2="120.0" stroke="black" stroke-width="1"/>
<line x1="220.00000000000003" y1="120.0" x2="230.00000000000003" y2="120.0" stroke="black" stroke-width="1"/>
<line x1="230.00000000000003" y1="120.0" x2="230.00000000000003" y2="130.0" stroke="black" stroke-width="1"/>
<line x1="230.00000000000003" y1="130.0" x2="240.00000000000003" y2="130.0" stroke="black" stroke-width="1"/>
<line x1="240.00000000000003" y1="130.0" x2="240.00000000000003" y2="140.0" stroke="black" stroke-width="1"/>
<line x1="240.00000000000003" y1="140.0" x2="230.00000000000003" y2="140.0" stroke="black" stroke-width="1"/>
<line x1="230.00000000000003" y1="140.0" x2="230.00000000000003" y2="150.0" stroke="black" stroke-width="1"/>
<line x1="230.00000000000003" y1="150.0" x2="240.00000000000003" y2="150.0" stroke="black" stroke-width="1"/>
<line x1="240.00000000000003" y1="150.0" x2="240.00000000000003" y2="140.0" stroke="black" stroke-width="1"/>
<line x1="240.00000000000003" y1="140.0" x2="250.00000000000003" y2="140.0" stroke="black" stroke-width="1"/>
<line x1="250.00000000000003" y1="140.0" x2="250.00000000000003" y2="150.0" stroke="black" stroke-width="1"/>
<line x1="250.00000000000003" y1="150.0" x2="260.0" y2="150.0" stroke="black" stroke-width="1"/>
<line x1="260.0" y1="150.0" x2="260.0" y2="140.0" stroke="black" stroke-width="1"/>
<line x1="260.0" y1="140.0" x2="270.0" y2="140.0" stroke="black" stroke-width="1"/>
<line x1="270.0" y1="140.0" x2="270.0" y2="130.0" stroke="black" stroke-width="1"/>
<line x1="270.0" y1="130.0" x2="260.0" y2="130.0" stroke="black" stroke-width="1"/>
<line x1="260.0" y1="130.0" x2="260.0" y2="140.0" stroke="black" stroke-width="1"/>
<line x1="260.0" y1="140.0" x2="250.00000000000003" y2="140.0" stroke="black" stroke-width="1"/>
<line x1="250.00000000000003" y1="140.0" x2="250.00000000000003" y2="130.0" stroke="black" stroke-width="1"/>
<line x1="250.00000000000003" y1="130.0" x2="240.00000000000003" y2="130.0" stroke="black" stroke-width="1"/>
<line x1="240.00000000000003" y1="130.0" x2="240.00000000000003" y2="120.0" stroke="black" stroke-width="1"/>
<line x1="240.00000000000003" y1="120.0" x2="250.00000000000003" y2="120.0" stroke="black" stroke-width="1"/>
<line x1="250.00000000000003" y1="120.0" x2="250.00000000000003" y2="110.0" stroke="black" stroke-width="1"/>
<line x1="250.00000000000003" y1="110.0" x2="240.00000000000003" y2="110.0" stroke="black" stroke-width="1"/>
<line x1="240.00000000000003" y1="110.0" x2="240.00000000000003" y2="100.0" stroke="black" stroke-width="1"/>
<line x1="240.00000000000003" y1="100.0" x2="250.00000000000003" y2="100.0" stroke="black" stroke-width="1"/>
<line x1="250.00000000000003" y1="100.0" x2="250.00000000000003" y2="110.0" stroke="black" stroke-width="1"/>
<line x1="250.00000000000003" y1="110.0" x2="260.0" y2="110.0" stroke="black" stroke-width="1"/>
<line x1="260.0" y1="110.0" x2="260.0" y2="100.0" stroke="black" stroke-width="1"/>
<line x1="260.0" y1="100.0" x2="270.0" y2="100.0" stroke="black" stroke-width="1"/>
<line x1="270.0" y1="100.0" x2="270.0" y2="90.0" stroke="black" stroke-width="1"/>
<line x1="270.0" y1="90.0" x2="260.0" y2="90.0" stroke="black" stroke-width="1"/>
<line x1="260.0" y1="90.0" x2="260.0" y2="80.0" stroke="black" stroke-width="1"/>
<line x1="260.0" y1="80.0" x2="270.0" y2="80.0" stroke="black" stroke-width="1"/>
<line x1="270.0" y1="80.0" x2="270.0" y2="90.0" stroke="black" stroke-width="1"/>
<line x1="270.0" y1="90.0" x2="280.0" y2="90.0" stroke="black" stroke-width="1"/>
<line x1="280.0" y1="90.0" x2="280.0" y2="100.0" stroke="black" stroke-width="1"/>
<line x1="280.0" y1="100.0" x2="270.0" y2="100.0" stroke="black" stroke-width="1"/>
<line x1="270.0" y1="100.0" x2="270.0" y2="110.0" stroke="black" stroke-width="1"/>
<line x1="270.0" y1="110.0" x2="280.0" y2="110.0" stroke="black" stroke-width="1"/>
<line x1="280.0" y1="110.0" x2="280.0" y2="100.0" stroke="black" stroke-width="1"/>
<line x1="280.0" y1="100.0" x2="290.0" y2="100.0" stroke="black" stroke-width="1"/>
<line x1="290.0" y1="100.0" x2="290.0" y2="110.0" stroke="black" stroke-width="1"/>
<line x1="290.0" y1="110.0" x2="300.0" y2="110.0" stroke="black" stroke-width="1"/>
<line x1="300.0" y1="110.0" x2="300.0" y2="100.0" stroke="black" stroke-width="1"/>
<line x1="300.0" y1="100.0" x2="310.0" y2="100.0" stroke="black" stroke-width="1"/>
<line x1="310.0" y1="100.0" x2="310.0" y2="90.0" stroke="black" stroke-width="1"/>
<line x1="310.0" y1="90.0" x2="300.0" y2="90.0" stroke="black" stroke-width="1"/>
<line x1="300.0" y1="90.0" x2="300.0" y2="100.0" stroke="black" stroke-width="1"/>
<line x1="300.0" y1="100.0" x2="290.0" y2="100.0" stroke="black" stroke-width="1"/>
<line x1="290.0" y1="100.0" x2="290.0" y2="90.0" stroke="black" stroke-width="1"/>
<line x1="290.0" y1="90.0" x2="280.0" y2="90.0" stroke="black" stroke-width="1"/>
<line x1="280.0" y1="90.0" x2="280.0" y2="80.0" stroke="black" stroke-width="1"/>
<line x1="280.0" y1="80.0" x2="290.0" y2="80.0" stroke="black" stroke-width="1"/>
<line x1="290.0" y1="80.0" x2="290.0" y2="70.0" stroke="black" stroke-width="1"/>
<line x1="290.0" y1="70.0" x2="280.0" y2="70.0" stroke="black" stroke-width="1"/>
<line x1="280.0" y1="70.0" x2="280.0" y2="60.0" stroke="black" stroke-width="1"/>
<line x1="280.0" y1="60.0" x2="290.0" y2="60.0" stroke="black" stroke-width="1"/>
<line x1="290.0" y1="60.0" x2="290.0" y2="70.0" stroke="black" stroke-width="1"/>
<line x1="290.0" y1="70.0" x2="300.0" y2="70.0" stroke="black" stroke-width="1"/>
<line x1="300.0" y1="70.0" x2="300.0" y2="60.0" stroke="black" stroke-width="1"/>
<line x1="300.0" y1="60.0" x2="310.0" y2="60.0" stroke="black" stroke-width="1"/>
<line x1="310.0" y1="60.0" x2="310.0" y2="50.0" stroke="black" stroke-width="1"/>
<line x1="310.0" y1="50.0" x2="300.0" y2="50.0" stroke="black" stroke-width="1"/>
<line x1="300.0" y1="50.0" x2="300.0" y2="60.0" stroke="black" stroke-width="1"/>
<line x1="300.0" y1="60.0" x2="290.0" y2="60.0" stroke="black" stroke-width="1"/>
<line x1="290.0" y1="60.0" x2="290.0" y2="50.0" stroke="black" stroke-width="1"/>
<line x1="290.0" y1="50.0" x2="280.0" y2="50.0" stroke="black" stroke-width="1"/>
<line x1="280.0" y1="50.0" x2="280.0" y2="40.0" stroke="black" stroke-width="1"/>
<line x1="280.0" y1="40.0" x2="290.0" y2="40.0" stroke="black" stroke-width="1"/>
<line x1="290.0" y1="40.0" x2="290.0" y2="30.0" stroke="black" stroke-width="1"/>
<line x1="290.0" y1="30.0" x2="280.0" y2="30.0" stroke="black" stroke-width="1"/>
<line x1="280.0" y1="30.0" x2="280.0" y2="40.0" stroke="black" stroke-width="1"/>
<line x1="280.0" y1="40.0" x2="270.0" y2="40.0" stroke="black" stroke-width="1"/>
<line x1="270.0" y1="40.0" x2="270.0" y2="30.0" stroke="black" stroke-width="1"/>
<line x1="270.0" y1="30.0" x2="260.0" y2="30.0" stroke="black" stroke-width="1"/>
<line x1="260.0" y1="30.0" x2="260.0" y2="40.0" stroke="black" stroke-width="1"/>
<line x1="260.0" y1="40.0" x2="250.00000000000003" y2="40.0" stroke="black" stroke-width="1"/>
<line x1="250.00000000000003" y1="40.0" x2="250.00000000000003" y2="50.0" stroke="black" stroke-width="1"/>
<line x1="250.00000000000003" y1="50.0" x2="260.0" y2="50.0" stroke="black" stroke-width="1"/>
</svg>
