<svg width="29.64643588766673" height="29.65095187125433" xmlns="http://www.w3.org/2000/svg">
<line x1="0" y1="29.133471407944867" x2="0.0" y2="19.133471407944867" stroke="black" stroke-width="1"/>
<line x1="0.0" y1="19.133471407944867" x2="9.998476951563912" y2="19.3079954723177" stroke="black" stroke-width="1"/>
<line x1="9.998476951563912" y1="19.3079954723177" x2="9.649481984538903" y2="29.301903742508657" stroke="black" stroke-width="1"/>
<line x1="9.649481984538903" y1="29.301903742508657" x2="19.647958936102818" y2="29.476427806881492" stroke="black" stroke-width="1"/>
<line x1="19.647958936102818" y1="29.476427806881492" x2="29.64643588766673" y2="29.65095187125433" stroke="black" stroke-width="1"/>
<line x1="29.64643588766673" y1="29.65095187125433" x2="29.64643588766673" y2="19.65095187125433" stroke="black" stroke-width="1"/>
<line x1="29.64643588766673" y1="19.65095187125433" x2="19.647958936102818" y2="19.825475935627164" stroke="black" stroke-width="1"/>
<line x1="19.647958936102818" y1="19.825475935627164" x2="19.647958936102818" y2="9.825475935627164" stroke="black" stroke-width="1"/>
<line x1="19.647958936102818" y1="9.825475935627164" x2="29.64643588766673" y2="10.0" stroke="black" stroke-width="1"/>
<line x1="29.64643588766673" y1="10.0" x2="29.64643588766673" y2="0.0" stroke="black" stroke-width="1"/>
<line x1="29.64643588766673" y1="0.0" x2="19.647958936102818" y2="0.17452406437283585" stroke="black" stroke-width="1"/>
<line x1="19.647958936102818" y1="0.17452406437283585" x2="9.649481984538905" y2="0.3490481287456717" stroke="black" stroke-width="1"/>
<line x1="9.649481984538905" y1="0.3490481287456717" x2="9.998476951563916" y2="10.342956398936629" stroke="black" stroke-width="1"/>
<line x1="9.998476951563916" y1="10.342956398936629" x2="3.552713678800501e-15" y2="10.517480463309465" stroke="black" stroke-width="1"/>
<line x1="3.552713678800501e-15" y1="10.517480463309465" x2="3.552713678800501e-15" y2="0.5174804633094645" stroke="black" stroke-width="1"/>
</svg>
