<svg width="150.0" height="150.0" xmlns="http://www.w3.org/2000/svg">
<line x1="0" y1="149.99999999999997" x2="0.0" y2="139.99999999999997" stroke="black" stroke-width="1"/>
<line x1="0.0" y1="139.99999999999997" x2="10.0" y2="139.99999999999997" stroke="black" stroke-width="1"/>
<line x1="10.0" y1="139.99999999999997" x2="10.000000000000002" y2="149.99999999999997" stroke="black" stroke-width="1"/>
<line x1="10.000000000000002" y1="149.99999999999997" x2="20.0" y2="149.99999999999997" stroke="black" stroke-width="1"/>
<line x1="20.0" y1="149.99999999999997" x2="30.0" y2="149.99999999999997" stroke="black" stroke-width="1"/>
<line x1="30.0" y1="149.99999999999997" x2="30.0" y2="139.99999999999997" stroke="black" stroke-width="1"/>
<line x1="30.0" y1="139.99999999999997" x2="20.0" y2="139.99999999999997" stroke="black" stroke-width="1"/>
<line x1="20.0" y1="139.99999999999997" x2="20.0" y2="129.99999999999997" stroke="black" stroke-width="1"/>
<line x1="20.0" y1="129.99999999999997" x2="30.0" y2="129.99999999999997" stroke="black" stroke-width="1"/>
<line x1="30.0" y1="129.99999999999997" x2="30.0" y2="119.99999999999997" stroke="black" stroke-width="1"/>
<line x1="30.0" y1="119.99999999999997" x2="20.0" y2="119.99999999999997" stroke="black" stroke-width="1"/>
<line x1="20.0" y1="119.99999999999997" x2="10.0" y2="119.99999999999997" stroke="black" stroke-width="1"/>
<line x1="10.0" y1="119.99999999999997" x2="10.000000000000002" y2="129.99999999999997" stroke="black" stroke-width="1"/>
<line x1="10.000000000000002" y1="129.99999999999997" x2="1.7763568394002505e-15" y2="129.99999999999997" stroke="black" stroke-width="1"/>
<line x1="1.7763568394002505e-15" y1="129.99999999999997" x2="1.7763568394002505e-15" y2="119.99999999999999" stroke="black" stroke-width="1"/>
<line x1="1.7763568394002505e-15" y1="119.99999999999999" x2="1.7763568394002505e-15" y2="109.99999999999999" stroke="black" stroke-width="1"/>
<line x1="1.7763568394002505e-15" y1="109.99999999999999" x2="10.000000000000002" y2="109.99999999999999" stroke="black" stroke-width="1"/>
<line x1="10.000000000000002" y1="109.99999999999999" x2="10.000000000000002" y2="99.99999999999999" stroke="black" stroke-width="1"/>
<line x1="10.000000000000002" y1="99.99999999999999" x2="1.7763568394002505e-15" y2="99.99999999999999" stroke="black" stroke-width="1"/>
<line x1="1.7763568394002505e-15" y1="99.99999999999999" x2="1.7763568394002505e-15" y2="89.99999999999999" stroke="black" stroke-width="1"/>
<line x1="1.7763568394002505e-15" y1="89.99999999999999" x2="1.7763568394002505e-15" y2="79.99999999999999" stroke="black" stroke-width="1"/>
<line x1="1.7763568394002505e-15" y1="79.99999999999999" x2="10.000000000000002" y2="79.99999999999999" stroke="black" stroke-width="1"/>
<line x1="10.000000000000002" y1="79.99999999999999" x2="10.000000000000004" y2="89.99999999999999" stroke="black" stroke-width="1"/>
<line x1="10.000000000000004" y1="89.99999999999999" x2="20.000000000000004" y2="89.99999999999999" stroke="black" stroke-width="1"/>
<line x1="20.000000000000004" y1="89.99999999999999" x2="20.000000000000004" y2="79.99999999999999" stroke="black" stroke-width="1"/>
<line x1="20.000000000000004" y1="79.99999999999999" x2="30.000000000000004" y2="79.99999999999999" stroke="black" stroke-width="1"/>
<line x1="30.000000000000004" y1="79.99999999999999" x2="30.000000000000004" y2="89.99999999999999" stroke="black" stroke-width="1"/>
<line x1="30.000000000000004" y1="89.99999999999999" x2="30.000000000000004" y2="99.99999999999999" stroke="black" stroke-width="1"/>
<line x1="30.000000000000004" y1="99.99999999999999" x2="20.000000000000004" y2="99.99999999999999" stroke="black" stroke-width="1"/>
<line x1="20.000000000000004" y1="99.99999999999999" x2="20.000000000000004" y2="109.99999999999999" stroke="black" stroke-width="1"/>
<line x1="20.000000000000004" y1="109.99999999999999" x2="30.000000000000004" y2="109.99999999999999" stroke="black" stroke-width="1"/>
<line x1="30.000000000000004" y1="109.99999999999999" x2="40.0" y2="109.99999999999999" stroke="black" stroke-width="1"/>
<line x1="40.0" y1="109.99999999999999" x2="50.0" y2="109.99999999999999" stroke="black" stroke-width="1"/>
<line x1="50.0" y1="109.99999999999999" x2="50.0" y2="99.99999999999999" stroke="black" stroke-width="1"/>
<line x1="50.0" y1="99.99999999999999" x2="40.0" y2="99.99999999999999" stroke="black" stroke-width="1"/>
<line x1="40.0" y1="99.99999999999999" x2="40.0" y2="89.99999999999999" stroke="black" stroke-width="1"/>
<line x1="40.0" y1="89.99999999999999" x2="40.0" y2="79.99999999999999" stroke="black" stroke-width="1"/>
<line x1="40.0" y1="79.99999999999999" x2="50.0" y2="79.99999999999999" stroke="black" stroke-width="1"/>
<line x1="50.0" y1="79.99999999999999" x2="50.0" y2="89.99999999999999" stroke="black" stroke-width="1"/>
<line x1="50.0" y1="89.99999999999999" x2="60.0" y2="89.99999999999999" stroke="black" stroke-width="1"/>
<line x1="60.0" y1="89.99999999999999" x2="60.0" y2="79.99999999999999" stroke="black" stroke-width="1"/>
<line x1="60.0" y1="79.99999999999999" x2="70.0" y2="79.99999999999999" stroke="black" stroke-width="1"/>
<line x1="70.0" y1="79.99999999999999" x2="70.0" y2="89.99999999999999" stroke="black" stroke-width="1"/>
<line x1="70.0" y1="89.99999999999999" x2="70.0" y2="99.99999999999999" stroke="black" stroke-width="1"/>
<line x1="70.0" y1="99.99999999999999" x2="60.0" y2="99.99999999999999" stroke="black" stroke-width="1"/>
<line x1="60.0" y1="99.99999999999999" x2="60.0" y2="109.99999999999999" stroke="black" stroke-width="1"/>
<line x1="60.0" y1="109.99999999999999" x2="70.0" y2="109.99999999999999" stroke="black" stroke-width="1"/>
<line x1="70.0" y1="109.99999999999999" x2="70.0" y2="119.99999999999999" stroke="black" stroke-width="1"/>
<line x1="70.0" y1="119.99999999999999" x2="70.0" y2="130.0" stroke="black" stroke-width="1"/>
<line x1="70.0" y1="130.0" x2="60.0" y2="130.0" stroke="black" stroke-width="1"/>
<line x1="60.0" y1="130.0" x2="60.0" y2="119.99999999999999" stroke="black" stroke-width="1"/>
<line x1="60.0" y1="119.99999999999999" x2="50.0" y2="120.0" stroke="black" stroke-width="1"/>
<line x1="50.0" y1="120.0" x2="40.0" y2="120.0" stroke="black" stroke-width="1"/>
<line x1="40.0" y1="120.0" x2="40.0" y2="130.0" stroke="black" stroke-width="1"/>
<line x1="40.0" y1="130.0" x2="50.0" y2="130.0" stroke="black" stroke-width="1"/>
<line x1="50.0" y1="130.0" x2="50.0" y2="140.0" stroke="black" stroke-width="1"/>
<line x1="50.0" y1="140.0" x2="40.0" y2="140.0" stroke="black" stroke-width="1"/>
<line x1="40.0" y1="140.0" x2="40.0" y2="150.0" stroke="black" stroke-width="1"/>
<line x1="40.0" y1="150.0" x2="50.0" y2="150.0" stroke="black" stroke-width="1"/>
<line x1="50.0" y1="150.0" x2="60.0" y2="150.0" stroke="black" stroke-width="1"/>
<line x1="60.0" y1="150.0" x2="60.0" y2="140.0" stroke="black" stroke-width="1"/>
<line x1="60.0" y1="140.0" x2="70.0" y2="140.0" stroke="black" stroke-width="1"/>
<line x1="70.0" y1="140.0" x2="70.0" y2="150.0" stroke="black" stroke-width="1"/>
<line x1="70.0" y1="150.0" x2="80.0" y2="150.0" stroke="black" stroke-width="1"/>
<line x1="80.0" y1="150.0" x2="90.0" y2="150.0" stroke="black" stroke-width="1"/>
<line x1="90.0" y1="150.0" x2="90.0" y2="140.0" stroke="black" stroke-width="1"/>
<line x1="90.0" y1="140.0" x2="80.0" y2="140.0" stroke="black" stroke-width="1"/>
<line x1="80.0" y1="140.0" x2="80.0" y2="130.0" stroke="black" stroke-width="1"/>
<line x1="80.0" y1="130.0" x2="80.0" y2="120.0" stroke="black" stroke-width="1"/>
<line x1="80.0" y1="120.0" x2="90.0" y2="120.0" stroke="black" stroke-width="1"/>
<line x1="90.0" y1="120.0" x2="90.0" y2="130.0" stroke="black" stroke-width="1"/>
<line x1="90.0" y1="130.0" x2="100.0" y2="130.0" stroke="black" stroke-width="1"/>
<line x1="100.0" y1="130.0" x2="100.0" y2="120.0" stroke="black" stroke-width="1"/>
<line x1="100.0" y1="120.0" x2="110.0" y2="120.0" stroke="black" stroke-width="1"/>
<line x1="110.0" y1="120.0" x2="110.0" y2="130.0" stroke="black" stroke-width="1"/>
<line x1="110.0" y1="130.0" x2="110.0" y2="140.0" stroke="black" stroke-width="1"/>
<line x1="110.0" y1="140.0" x2="100.0" y2="140.0" stroke="black" stroke-width="1"/>
<line x1="100.0" y1="140.0" x2="100.0" y2="150.0" stroke="black" stroke-width="1"/>
<line x1="100.0" y1="150.0" x2="110.0" y2="150.0" stroke="black" stroke-width="1"/>
<line x1="110.0" y1="150.0" x2="120.0" y2="150.0" stroke="black" stroke-width="1"/>
<line x1="120.0" y1="150.0" x2="120.0" y2="140.0" stroke="black" stroke-width="1"/>
<line x1="120.0" y1="140.0" x2="130.0" y2="140.0" stroke="black" stroke-width="1"/>
<line x1="130.0" y1="140.0" x2="130.0" y2="150.0" stroke="black" stroke-width="1"/>
<line x1="130.0" y1="150.0" x2="140.0" y2="150.0" stroke="black" stroke-width="1"/>
<line x1="140.0" y1="150.0" x2="150.0" y2="150.0" stroke="black" stroke-width="1"/>
<line x1="150.0" y1="150.0" x2="150.0" y2="140.0" stroke="black" stroke-width="1"/>
<line x1="150.0" y1="140.0" x2="140.0" y2="140.0" stroke="black" stroke-width="1"/>
<line x1="140.0" y1="140.0" x2="140.0" y2="130.0" stroke="black" stroke-width="1"/>
<line x1="140.0" y1="130.0" x2="150.0" y2="130.0" stroke="black" stroke-width="1"/>
<line x1="150.0" y1="130.0" x2="150.0" y2="120.0" stroke="black" stroke-width="1"/>
<line x1="150.0" y1="120.0" x2="140.0" y2="120.0" stroke="black" stroke-width="1"/>
<line x1="140.0" y1="120.0" x2="130.0" y2="120.0" stroke="black" stroke-width="1"/>
<line x1="130.0" y1="120.0" x2="130.0" y2="130.0" stroke="black" stroke-width="1"/>
<line x1="130.0" y1="130.0" x2="120.0" y2="130.0" stroke="black" stroke-width="1"/>
<line x1="120.0" y1="130.0" x2="120.0" y2="120.0" stroke="black" stroke-width="1"/>
<line x1="120.0" y1="120.0" x2="120.0" y2="110.0" stroke="black" stroke-width="1"/>
<line x1="120.0" y1="110.0" x2="120.0" y2="100.0" stroke="black" stroke-width="1"/>
<line x1="120.0" y1="100.0" x2="130.0" y2="100.0" stroke="black" stroke-width="1"/>
<line x1="130.0" y1="100.0" x2="130.0" y2="110.0" stroke="black" stroke-width="1"/>
<line x1="130.0" y1="110.0" x2="140.0" y2="110.0" stroke="black" stroke-width="1"/>
<line x1="140.0" y1="110.0" x2="150.0" y2="110.0" stroke="black" stroke-width="1"/>
<line x1="150.0" y1="110.0" x2="150.0" y2="100.0" stroke="black" stroke-width="1"/>
<line x1="150.0" y1="100.0" x2="140.0" y2="100.0" stroke="black" stroke-width="1"/>
<line x1="140.0" y1="100.0" x2="140.0" y2="90.0" stroke="black" stroke-width="1"/>
<line x1="140.0" y1="90.0" x2="150.0" y2="90.0" stroke="black" stroke-width="1"/>
<line x1="150.0" y1="90.0" x2="150.0" y2="80.0" stroke="black" stroke-width="1"/>
<line x1="150.0" y1="80.0" x2="140.0" y2="80.0" stroke="black" stroke-width="1"/>
<line x1="140.0" y1="80.0" x2="130.0" y2="80.0" stroke="black" stroke-width="1"/>
<line x1="130.0" y1="80.0" x2="130.0" y2="90.0" stroke="black" stroke-width="1"/>
<line x1="130.0" y1="90.0" x2="120.0" y2="90.0" stroke="black" stroke-width="1"/>
<line x1="120.0" y1="90.0" x2="120.0" y2="80.0" stroke="black" stroke-width="1"/>
<line x1="120.0" y1="80.0" x2="110.0" y2="80.0" stroke="black" stroke-width="1"/>
<line x1="110.0" y1="80.0" x2="100.0" y2="80.0" stroke="black" stroke-width="1"/>
<line x1="100.0" y1="80.0" x2="100.0" y2="90.0" stroke="black" stroke-width="1"/>
<line x1="100.0" y1="90.0" x2="110.0" y2="90.0" stroke="black" stroke-width="1"/>
<line x1="110.0" y1="90.0" x2="110.0" y2="100.0" stroke="black" stroke-width="1"/>
<line x1="110.0" y1="100.0" x2="110.0" y2="110.0" stroke="black" stroke-width="1"/>
<line x1="110.0" y1="110.0" x2="100.0" y2="110.0" stroke="black" stroke-width="1"/>
<line x1="100.0" y1="110.0" x2="100.0" y2="100.0" stroke="black" stroke-width="1"/>
<line x1="100.0" y1="100.0" x2="90.0" y2="100.0" stroke="black" stroke-width="1"/>
<line x1="90.0" y1="100.0" x2="90.0" y2="110.0" stroke="black" stroke-width="1"/>
<line x1="90.0" y1="110.0" x2="80.0" y2="110.0" stroke="black" stroke-width="1"/>
<line x1="80.0" y1="110.0" x2="80.0" y2="100.0" stroke="black" stroke-width="1"/>
<line x1="80.0" y1="100.0" x2="80.0" y2="90.0" stroke="black" stroke-width="1"/>
<line x1="80.0" y1="90.0" x2="90.0" y2="90.0" stroke="black" stroke-width="1"/>
<line x1="90.0" y1="90.0" x2="90.0" y2="80.0" stroke="black" stroke-width="1"/>
<line x1="90.0" y1="80.0" x2="80.0" y2="80.0" stroke="black" stroke-width="1"/>
<line x1="80.0" y1="80.0" x2="80.0" y2="70.0" stroke="black" stroke-width="1"/>
<line x1="80.0" y1="70.0" x2="90.0" y2="70.0" stroke="black" stroke-width="1"/>
<line x1="90.0" y1="70.0" x2="90.0" y2="60.0" stroke="black" stroke-width="1"/>
<line x1="90.0" y1="60.0" x2="80.0" y2="60.0" stroke="black" stroke-width="1"/>
<line x1="80.0" y1="60.0" x2="80.0" y2="50.0" stroke="black" stroke-width="1"/>
<line x1="80.0" y1="50.0" x2="80.0" y2="40.0" stroke="black" stroke-width="1"/>
<line x1="80.0" y1="40.0" x2="90.0" y2="40.0" stroke="black" stroke-width="1"/>
<line x1="90.0" y1="40.0" x2="90.0" y2="50.0" stroke="black" stroke-width="1"/>
<line x1="90.0" y1="50.0" x2="100.0" y2="50.0" stroke="black" stroke-width="1"/>
<line x1="100.0" y1="50.0" x2="100.0" y2="40.0" stroke="black" stroke-width="1"/>
<line x1="100.0" y1="40.0" x2="110.0" y2="40.0" stroke="black" stroke-width="1"/>
<line x1="110.0" y1="40.0" x2="110.0" y2="50.0" stroke="black" stroke-width="1"/>
<line x1="110.0" y1="50.0" x2="110.0" y2="60.0" stroke="black" stroke-width="1"/>
<line x1="110.0" y1="60.0" x2="100.0" y2="60.0" stroke="black" stroke-width="1"/>
<line x1="100.0" y1="60.0" x2="100.0" y2="70.0" stroke="black" stroke-width="1"/>
<line x1="100.0" y1="70.0" x2="110.0" y2="70.0" stroke="black" stroke-width="1"/>
<line x1="110.0" y1="70.0" x2="120.0" y2="70.0" stroke="black" stroke-width="1"/>
<line x1="120.0" y1="70.0" x2="120.0" y2="60.0" stroke="black" stroke-width="1"/>
<line x1="120.0" y1="60.0" x2="130.0" y2="60.0" stroke="black" stroke-width="1"/>
<line x1="130.0" y1="60.0" x2="130.0" y2="70.0" stroke="black" stroke-width="1"/>
<line x1="130.0" y1="70.0" x2="140.0" y2="70.0" stroke="black" stroke-width="1"/>
<line x1="140.0" y1="70.0" x2="150.0" y2="70.0" stroke="black" stroke-width="1"/>
<line x1="150.0" y1="70.0" x2="150.0" y2="60.0" stroke="black" stroke-width="1"/>
<line x1="150.0" y1="60.0" x2="140.0" y2="60.0" stroke="black" stroke-width="1"/>
<line x1="140.0" y1="60.0" x2="140.0" y2="50.0" stroke="black" stroke-width="1"/>
<line x1="140.0" y1="50.0" x2="150.0" y2="50.0" stroke="black" stroke-width="1"/>
<line x1="150.0" y1="50.0" x2="150.0" y2="40.0" stroke="black" stroke-width="1"/>
<line x1="150.0" y1="40.0" x2="140.0" y2="40.0" stroke="black" stroke-width="1"/>
<line x1="140.0" y1="40.0" x2="130.0" y2="40.0" stroke="black" stroke-width="1"/>
<line x1="130.0" y1="40.0" x2="130.0" y2="50.0" stroke="black" stroke-width="1"/>
<line x1="130.0" y1="50.0" x2="120.0" y2="50.0" stroke="black" stroke-width="1"/>
<line x1="120.0" y1="50.0" x2="120.0" y2="40.0" stroke="black" stroke-width="1"/>
<line x1="120.0" y1="40.0" x2="120.0" y2="30.0" stroke="black" stroke-width="1"/>
<line x1="120.0" y1="30.0" x2="120.0" y2="20.0" stroke="black" stroke-width="1"/>
<line x1="120.0" y1="20.0" x2="130.0" y2="20.0" stroke="black" stroke-width="1"/>
<line x1="130.0" y1="20.0" x2="130.0" y2="30.0" stroke="black" stroke-width="1"/>
<line x1="130.0" y1="30.0" x2="140.0" y2="30.0" stroke="black" stroke-width="1"/>
<line x1="140.0" y1="30.0" x2="150.0" y2="30.0" stroke="black" stroke-width="1"/>
<line x1="150.0" y1="30.0" x2="150.0" y2="20.0" stroke="black" stroke-width="1"/>
<line x1="150.0" y1="20.0" x2="140.0" y2="20.0" stroke="black" stroke-width="1"/>
<line x1="140.0" y1="20.0" x2="140.0" y2="10.0" stroke="black" stroke-width="1"/>
<line x1="140.0" y1="10.0" x2="150.0" y2="10.0" stroke="black" stroke-width="1"/>
<line x1="150.0" y1="10.0" x2="150.0" y2="0.0" stroke="black" stroke-width="1"/>
<line x1="150.0" y1="0.0" x2="140.0" y2="0.0" stroke="black" stroke-width="1"/>
<line x1="140.0" y1="0.0" x2="130.0" y2="0.0" stroke="black" stroke-width="1"/>
<line x1="130.0" y1="0.0" x2="130.0" y2="10.0" stroke="black" stroke-width="1"/>
<line x1="130.0" y1="10.0" x2="120.0" y2="10.0" stroke="black" stroke-width="1"/>
<line x1="120.0" y1="10.0" x2="120.0" y2="0.0" stroke="black" stroke-width="1"/>
<line x1="120.0" y1="0.0" x2="110.0" y2="0.0" stroke="black" stroke-width="1"/>
<line x1="110.0" y1="0.0" x2="100.0" y2="0.0" stroke="black" stroke-width="1"/>
<line x1="100.0" y1="0.0" x2="100.0" y2="10.0" stroke="black" stroke-width="1"/>
<line x1="100.0" y1="10.0" x2="110.0" y2="10.0" stroke="black" stroke-width="1"/>
<line x1="110.0" y1="10.0" x2="110.0" y2="20.0" stroke="black" stroke-width="1"/>
<line x1="110.0" y1="20.0" x2="110.0" y2="30.0" stroke="black" stroke-width="1"/>
<line x1="110.0" y1="30.0" x2="100.0" y2="30.0" stroke="black" stroke-width="1"/>
<line x1="100.0" y1="30.0" x2="100.0" y2="20.0" stroke="black" stroke-width="1"/>
<line x1="100.0" y1="20.0" x2="90.0" y2="20.0" stroke="black" stroke-width="1"/>
<line x1="90.0" y1="20.0" x2="90.0" y2="30.0" stroke="black" stroke-width="1"/>
<line x1="90.0" y1="30.0" x2="80.0" y2="30.0" stroke="black" stroke-width="1"/>
<line x1="80.0" y1="30.0" x2="80.0" y2="20.0" stroke="black" stroke-width="1"/>
<line x1="80.0" y1="20.0" x2="80.0" y2="10.0" stroke="black" stroke-width="1"/>
<line x1="80.0" y1="10.0" x2="90.0" y2="10.0" stroke="black" stroke-width="1"/>
<line x1="90.0" y1="10.0" x2="90.0" y2="0.0" stroke="black" stroke-width="1"/>
<line x1="90.0" y1="0.0" x2="80.0" y2="0.0" stroke="black" stroke-width="1"/>
<line x1="80.0" y1="0.0" x2="70.0" y2="0.0" stroke="black" stroke-width="1"/>
<line x1="70.0" y1="0.0" x2="70.0" y2="10.0" stroke="black" stroke-width="1"/>
<line x1="70.0" y1="10.0" x2="60.0" y2="10.0" stroke="black" stroke-width="1"/>
<line x1="60.0" y1="10.0" x2="60.0" y2="0.0" stroke="black" stroke-width="1"/>
<line x1="60.0" y1="0.0" x2="50.0" y2="0.0" stroke="black" stroke-width="1"/>
<line x1="50.0" y1="0.0" x2="40.0" y2="0.0" stroke="black" stroke-width="1"/>
<line x1="40.0" y1="0.0" x2="40.0" y2="10.0" stroke="black" stroke-width="1"/>
<line x1="40.0" y1="10.0" x2="50.0" y2="10.0" stroke="black" stroke-width="1"/>
<line x1="50.0" y1="10.0" x2="50.0" y2="20.0" stroke="black" stroke-width="1"/>
<line x1="50.0" y1="20.0" x2="40.0" y2="20.0" stroke="black" stroke-width="1"/>
<line x1="40.0" y1="20.0" x2="40.0" y2="30.0" stroke="black" stroke-width="1"/>
<line x1="40.0" y1="30.0" x2="50.0" y2="30.0" stroke="black" stroke-width="1"/>
<line x1="50.0" y1="30.0" x2="60.0" y2="30.0" stroke="black" stroke-width="1"/>
<line x1="60.0" y1="30.0" x2="60.0" y2="20.0" stroke="black" stroke-width="1"/>
<line x1="60.0" y1="20.0" x2="70.0" y2="20.0" stroke="black" stroke-width="1"/>
<line x1="70.0" y1="20.0" x2="70.0" y2="30.0" stroke="black" stroke-width="1"/>
<line x1="70.0" y1="30.0" x2="70.0" y2="40.0" stroke="black" stroke-width="1"/>
<line x1="70.0" y1="40.0" x2="60.0" y2="40.0" stroke="black" stroke-width="1"/>
<line x1="60.0" y1="40.0" x2="60.0" y2="50.0" stroke="black" stroke-width="1"/>
<line x1="60.0" y1="50.0" x2="70.0" y2="50.0" stroke="black" stroke-width="1"/>
<line x1="70.0" y1="50.0" x2="70.0" y2="60.0" stroke="black" stroke-width="1"/>
<line x1="70.0" y1="60.0" x2="70.0" y2="70.0" stroke="black" stroke-width="1"/>
<line x1="70.0" y1="70.0" x2="60.0" y2="70.0" stroke="black" stroke-width="1"/>
<line x1="60.0" y1="70.0" x2="60.0" y2="60.0" stroke="black" stroke-width="1"/>
<line x1="60.0" y1="60.0" x2="50.0" y2="60.0" stroke="black" stroke-width="1"/>
<line x1="50.0" y1="60.0" x2="50.0" y2="70.0" stroke="black" stroke-width="1"/>
<line x1="50.0" y1="70.0" x2="40.0" y2="70.0" stroke="black" stroke-width="1"/>
<line x1="40.0" y1="70.0" x2="40.0" y2="60.0" stroke="black" stroke-width="1"/>
<line x1="40.0" y1="60.0" x2="40.0" y2="50.0" stroke="black" stroke-width="1"/>
<line x1="40.0" y1="50.0" x2="50.0" y2="50.0" stroke="black" stroke-width="1"/>
<line x1="50.0" y1="50.0" x2="50.0" y2="40.0" stroke="black" stroke-width="1"/>
<line x1="50.0" y1="40.0" x2="40.0" y2="40.0" stroke="black" stroke-width="1"/>
<line x1="40.0" y1="40.0" x2="30.0" y2="40.0" stroke="black" stroke-width="1"/>
<line x1="30.0" y1="40.0" x2="20.0" y2="40.0" stroke="black" stroke-width="1"/>
<line x1="20.0" y1="40.0" x2="20.0" y2="50.0" stroke="black" stroke-width="1"/>
<line x1="20.0" y1="50.0" x2="30.0" y2="50.0" stroke="black" stroke-width="1"/>
<line x1="30.0" y1="50.0" x2="30.0" y2="60.0" stroke="black" stroke-width="1"/>
<line x1="30.0" y1="60.0" x2="30.0" y2="70.0" stroke="black" stroke-width="1"/>
<line x1="30.0" y1="70.0" x2="20.0" y2="70.0" stroke="black" stroke-width="1"/>
<line x1="20.0" y1="70.0" x2="20.0" y2="60.0" stroke="black" stroke-width="1"/>
<line x1="20.0" y1="60.0" x2="10.0" y2="60.0" stroke="black" stroke-width="1"/>
<line x1="10.0" y1="60.0" x2="10.000000000000002" y2="70.0" stroke="black" stroke-width="1"/>
<line x1="10.000000000000002" y1="70.0" x2="1.7763568394002505e-15" y2="70.0" stroke="black" stroke-width="1"/>
<line x1="1.7763568394002505e-15" y1="70.0" x2="1.7763568394002505e-15" y2="60.0" stroke="black" stroke-width="1"/>
<line x1="1.7763568394002505e-15" y1="60.0" x2="1.7763568394002505e-15" y2="50.0" stroke="black" stroke-width="1"/>
<line x1="1.7763568394002505e-15" y1="50.0" x2="10.000000000000002" y2="50.0" stroke="black" stroke-width="1"/>
<line x1="10.000000000000002" y1="50.0" x2="10.000000000000002" y2="40.0" stroke="black" stroke-width="1"/>
<line x1="10.000000000000002" y1="40.0" x2="1.7763568394002505e-15" y2="40.0" stroke="black" stroke-width="1"/>
<line x1="1.7763568394002505e-15" y1="40.0" x2="1.7763568394002505e-15" y2="30.0" stroke="black" stroke-width="1"/>
<line x1="1.7763568394002505e-15" y1="30.0" x2="1.7763568394002505e-15" y2="20.0" stroke="black" stroke-width="1"/>
<line x1="1.7763568394002505e-15" y1="20.0" x2="10.000000000000002" y2="20.0" stroke="black" stroke-width="1"/>
<line x1="10.000000000000002" y1="20.0" x2="10.000000000000004" y2="30.0" stroke="black" stroke-width="1"/>
<line x1="10.000000000000004" y1="30.0" x2="20.000000000000004" y2="30.0" stroke="black" stroke-width="1"/>
<line x1="20.000000000000004" y1="30.0" x2="30.000000000000004" y2="30.0" stroke="black" stroke-width="1"/>
<line x1="30.000000000000004" y1="30.0" x2="30.000000000000004" y2="20.0" stroke="black" stroke-width="1"/>
<line x1="30.000000000000004" y1="20.0" x2="20.000000000000004" y2="20.0" stroke="black" stroke-width="1"/>
<line x1="20.000000000000004" y1="20.0" x2="20.000000000000004" y2="10.0" stroke="black" stroke-width="1"/>
<line x1="20.000000000000004" y1="10.0" x2="30.000000000000004" y2="10.0" stroke="black" stroke-width="1"/>
<line x1="30.000000000000004" y1="10.0" x2="30.000000000000004" y2="0.0" stroke="black" stroke-width="1"/>
<line x1="30.000000000000004" y1="0.0" x2="20.000000000000004" y2="0.0" stroke="black" stroke-width="1"/>
<line x1="20.000000000000004" y1="0.0" x2="10.000000000000004" y2="0.0" stroke="black" stroke-width="1"/>
<line x1="10.000000000000004" y1="0.0" x2="10.000000000000005" y2="10.0" stroke="black" stroke-width="1"/>
<line x1="10.000000000000005" y1="10.0" x2="5.329070518200751e-15" y2="10.0" stroke="black" stroke-width="1"/>
<line x1="5.329070518200751e-15" y1="10.0" x2="5.329070518200751e-15" y2="0.0" stroke="black" stroke-width="1"/>
</svg>
