<svg width="70.0" height="69.99999999999999" xmlns="http://www.w3.org/2000/svg">
<line x1="0" y1="69.99999999999999" x2="10.0" y2="69.99999999999999" stroke="black" stroke-width="1"/>
<line x1="10.0" y1="69.99999999999999" x2="10.0" y2="59.999999999999986" stroke="black" stroke-width="1"/>
<line x1="10.0" y1="59.999999999999986" x2="0.0" y2="59.999999999999986" stroke="black" stroke-width="1"/>
<line x1="0.0" y1="59.999999999999986" x2="0.0" y2="49.999999999999986" stroke="black" stroke-width="1"/>
<line x1="0.0" y1="49.999999999999986" x2="0.0" y2="39.999999999999986" stroke="black" stroke-width="1"/>
<line x1="0.0" y1="39.999999999999986" x2="10.0" y2="39.999999999999986" stroke="black" stroke-width="1"/>
<line x1="10.0" y1="39.999999999999986" x2="10.000000000000002" y2="49.999999999999986" stroke="black" stroke-width="1"/>
<line x1="10.000000000000002" y1="49.999999999999986" x2="20.0" y2="49.999999999999986" stroke="black" stroke-width="1"/>
<line x1="20.0" y1="49.999999999999986" x2="20.0" y2="39.999999999999986" stroke="black" stroke-width="1"/>
<line x1="20.0" y1="39.999999999999986" x2="30.0" y2="39.999999999999986" stroke="black" stroke-width="1"/>
<line x1="30.0" y1="39.999999999999986" x2="30.0" y2="49.999999999999986" stroke="black" stroke-width="1"/>
<line x1="30.0" y1="49.999999999999986" x2="30.0" y2="59.999999999999986" stroke="black" stroke-width="1"/>
<line x1="30.0" y1="59.999999999999986" x2="20.0" y2="59.999999999999986" stroke="black" stroke-width="1"/>
<line x1="20.0" y1="59.999999999999986" x2="20.0" y2="69.99999999999999" stroke="black" stroke-width="1"/>
<line x1="20.0" y1="69.99999999999999" x2="30.0" y2="69.99999999999999" stroke="black" stroke-width="1"/>
<line x1="30.0" y1="69.99999999999999" x2="40.0" y2="69.99999999999999" stroke="black" stroke-width="1"/>
<line x1="40.0" y1="69.99999999999999" x2="40.0" y2="59.999999999999986" stroke="black" stroke-width="1"/>
<line x1="40.0" y1="59.999999999999986" x2="50.0" y2="59.999999999999986" stroke="black" stroke-width="1"/>
<line x1="50.0" y1="59.999999999999986" x2="50.0" y2="69.99999999999999" stroke="black" stroke-width="1"/>
<line x1="50.0" y1="69.99999999999999" x2="60.0" y2="69.99999999999999" stroke="black" stroke-width="1"/>
<line x1="60.0" y1="69.99999999999999" x2="70.0" y2="69.99999999999999" stroke="black" stroke-width="1"/>
<line x1="70.0" y1="69.99999999999999" x2="70.0" y2="59.999999999999986" stroke="black" stroke-width="1"/>
<line x1="70.0" y1="59.999999999999986" x2="60.0" y2="59.999999999999986" stroke="black" stroke-width="1"/>
<line x1="60.0" y1="59.999999999999986" x2="60.0" y2="49.999999999999986" stroke="black" stroke-width="1"/>
<line x1="60.0" y1="49.999999999999986" x2="70.0" y2="49.999999999999986" stroke="black" stroke-width="1"/>
<line x1="70.0" y1="49.999999999999986" x2="70.0" y2="39.999999999999986" stroke="black" stroke-width="1"/>
<line x1="70.0" y1="39.999999999999986" x2="60.0" y2="39.999999999999986" stroke="black" stroke-width="1"/>
<line x1="60.0" y1="39.999999999999986" x2="50.0" y2="39.99999999999999" stroke="black" stroke-width="1"/>
<line x1="50.0" y1="39.99999999999999" x2="50.0" y2="49.99999999999999" stroke="black" stroke-width="1"/>
<line x1="50.0" y1="49.99999999999999" x2="40.0" y2="50.0" stroke="black" stroke-width="1"/>
<line x1="40.0" y1="50.0" x2="40.0" y2="40.0" stroke="black" stroke-width="1"/>
<line x1="40.0" y1="40.0" x2="40.0" y2="30.0" stroke="black" stroke-width="1"/>
<line x1="40.0" y1="30.0" x2="40.0" y2="20.0" stroke="black" stroke-width="1"/>
<line x1="40.0" y1="20.0" x2="50.0" y2="20.0" stroke="black" stroke-width="1"/>
<line x1="50.0" y1="20.0" x2="50.0" y2="30.0" stroke="black" stroke-width="1"/>
<line x1="50.0" y1="30.0" x2="60.0" y2="30.0" stroke="black" stroke-width="1"/>
<line x1="60.0" y1="30.0" x2="70.0" y2="30.0" stroke="black" stroke-width="1"/>
<line x1="70.0" y1="30.0" x2="70.0" y2="20.0" stroke="black" stroke-width="1"/>
<line x1="70.0" y1="20.0" x2="60.0" y2="20.0" stroke="black" stroke-width="1"/>
<line x1="60.0" y1="20.0" x2="60.0" y2="10.0" stroke="black" stroke-width="1"/>
<line x1="60.0" y1="10.0" x2="70.0" y2="10.0" stroke="black" stroke-width="1"/>
<line x1="70.0" y1="10.0" x2="70.0" y2="0.0" stroke="black" stroke-width="1"/>
<line x1="70.0" y1="0.0" x2="60.0" y2="0.0" stroke="black" stroke-width="1"/>
<line x1="60.0" y1="0.0" x2="50.0" y2="0.0" stroke="black" stroke-width="1"/>
<line x1="50.0" y1="0.0" x2="50.0" y2="10.0" stroke="black" stroke-width="1"/>
<line x1="50.0" y1="10.0" x2="40.0" y2="10.0" stroke="black" stroke-width="1"/>
<line x1="40.0" y1="10.0" x2="40.0" y2="0.0" stroke="black" stroke-width="1"/>
<line x1="40.0" y1="0.0" x2="30.0" y2="0.0" stroke="black" stroke-width="1"/>
<line x1="30.0" y1="0.0" x2="20.0" y2="0.0" stroke="black" stroke-width="1"/>
<line x1="20.0" y1="0.0" x2="20.0" y2="10.0" stroke="black" stroke-width="1"/>
<line x1="20.0" y1="10.0" x2="30.0" y2="10.0" stroke="black" stroke-width="1"/>
<line x1="30.0" y1="10.0" x2="30.0" y2="20.0" stroke="black" stroke-width="1"/>
<line x1="30.0" y1="20.0" x2="30.0" y2="30.0" stroke="black" stroke-width="1"/>
<line x1="30.0" y1="30.0" x2="20.0" y2="30.0" stroke="black" stroke-width="1"/>
<line x1="20.0" y1="30.0" x2="20.0" y2="20.0" stroke="black" stroke-width="1"/>
<line x1="20.0" y1="20.0" x2="10.0" y2="20.0" stroke="black" stroke-width="1"/>
<line x1="10.0" y1="20.0" x2="10.000000000000002" y2="30.0" stroke="black" stroke-width="1"/>
<line x1="10.000000000000002" y1="30.0" x2="1.7763568394002505e-15" y2="30.0" stroke="black" stroke-width="1"/>
<line x1="1.7763568394002505e-15" y1="30.0" x2="1.7763568394002505e-15" y2="20.0" stroke="black" stroke-width="1"/>
<line x1="1.7763568394002505e-15" y1="20.0" x2="1.7763568394002505e-15" y2="10.0" stroke="black" stroke-width="1"/>
<line x1="1.7763568394002505e-15" y1="10.0" x2="10.000000000000002" y2="10.0" stroke="black" stroke-width="1"/>
<line x1="10.000000000000002" y1="10.0" x2="10.000000000000002" y2="0.0" stroke="black" stroke-width="1"/>
<line x1="10.000000000000002" y1="0.0" x2="1.7763568394002505e-15" y2="0.0" stroke="black" stroke-width="1"/>
</svg>
