<svg width="68.25654542984054" height="68.26694281588973" xmlns="http://www.w3.org/2000/svg">
<line x1="0" y1="67.07552038363605" x2="9.998476951563912" y2="67.25004444800888" stroke="black" stroke-width="1"/>
<line x1="9.998476951563912" y1="67.25004444800888" x2="9.998476951563912" y2="57.25004444800888" stroke="black" stroke-width="1"/>
<line x1="9.998476951563912" y1="57.25004444800888" x2="0.0" y2="57.42456851238171" stroke="black" stroke-width="1"/>
<line x1="0.0" y1="57.42456851238171" x2="0.0" y2="47.42456851238171" stroke="black" stroke-width="1"/>
<line x1="0.0" y1="47.42456851238171" x2="0.0" y2="37.42456851238171" stroke="black" stroke-width="1"/>
<line x1="0.0" y1="37.42456851238171" x2="9.998476951563912" y2="37.59909257675455" stroke="black" stroke-width="1"/>
<line x1="9.998476951563912" y1="37.59909257675455" x2="9.649481984538903" y2="47.59300084694551" stroke="black" stroke-width="1"/>
<line x1="9.649481984538903" y1="47.59300084694551" x2="19.647958936102818" y2="47.76752491131835" stroke="black" stroke-width="1"/>
<line x1="19.647958936102818" y1="47.76752491131835" x2="19.647958936102818" y2="37.76752491131835" stroke="black" stroke-width="1"/>
<line x1="19.647958936102818" y1="37.76752491131835" x2="29.64643588766673" y2="37.94204897569118" stroke="black" stroke-width="1"/>
<line x1="29.64643588766673" y1="37.94204897569118" x2="29.29744092064172" y2="47.935957245882136" stroke="black" stroke-width="1"/>
<line x1="29.29744092064172" y1="47.935957245882136" x2="28.94844595361671" y2="57.92986551607309" stroke="black" stroke-width="1"/>
<line x1="28.94844595361671" y1="57.92986551607309" x2="18.96215060607097" y2="57.40650595364365" stroke="black" stroke-width="1"/>
<line x1="18.96215060607097" y1="57.40650595364365" x2="18.61315563904596" y2="67.40041422383462" stroke="black" stroke-width="1"/>
<line x1="18.61315563904596" y1="67.40041422383462" x2="28.611632590609872" y2="67.57493828820745" stroke="black" stroke-width="1"/>
<line x1="28.611632590609872" y1="67.57493828820745" x2="38.61010954217379" y2="67.74946235258028" stroke="black" stroke-width="1"/>
<line x1="38.61010954217379" y1="67.74946235258028" x2="38.61010954217379" y2="57.74946235258028" stroke="black" stroke-width="1"/>
<line x1="38.61010954217379" y1="57.74946235258028" x2="48.608586493737704" y2="57.92398641695311" stroke="black" stroke-width="1"/>
<line x1="48.608586493737704" y1="57.92398641695311" x2="48.2595915267127" y2="67.91789468714407" stroke="black" stroke-width="1"/>
<line x1="48.2595915267127" y1="67.91789468714407" x2="58.25806847827661" y2="68.0924187515169" stroke="black" stroke-width="1"/>
<line x1="58.25806847827661" y1="68.0924187515169" x2="68.25654542984053" y2="68.26694281588973" stroke="black" stroke-width="1"/>
<line x1="68.25654542984053" y1="68.26694281588973" x2="68.25654542984053" y2="58.26694281588974" stroke="black" stroke-width="1"/>
<line x1="68.25654542984053" y1="58.26694281588974" x2="58.25806847827661" y2="58.44146688026258" stroke="black" stroke-width="1"/>
<line x1="58.25806847827661" y1="58.44146688026258" x2="58.25806847827661" y2="48.44146688026258" stroke="black" stroke-width="1"/>
<line x1="58.25806847827661" y1="48.44146688026258" x2="68.25654542984053" y2="48.61599094463541" stroke="black" stroke-width="1"/>
<line x1="68.25654542984053" y1="48.61599094463541" x2="68.25654542984053" y2="38.61599094463541" stroke="black" stroke-width="1"/>
<line x1="68.25654542984053" y1="38.61599094463541" x2="58.25806847827661" y2="38.790515009008246" stroke="black" stroke-width="1"/>
<line x1="58.25806847827661" y1="38.790515009008246" x2="48.2595915267127" y2="38.965039073381085" stroke="black" stroke-width="1"/>
<line x1="48.2595915267127" y1="38.965039073381085" x2="48.60858649373771" y2="48.95894734357204" stroke="black" stroke-width="1"/>
<line x1="48.60858649373771" y1="48.95894734357204" x2="38.6101095421738" y2="49.13347140794488" stroke="black" stroke-width="1"/>
<line x1="38.6101095421738" y1="49.13347140794488" x2="38.6101095421738" y2="39.13347140794488" stroke="black" stroke-width="1"/>
<line x1="38.6101095421738" y1="39.13347140794488" x2="38.6101095421738" y2="29.13347140794488" stroke="black" stroke-width="1"/>
<line x1="38.6101095421738" y1="29.13347140794488" x2="38.6101095421738" y2="19.13347140794488" stroke="black" stroke-width="1"/>
<line x1="38.6101095421738" y1="19.13347140794488" x2="48.60858649373772" y2="19.307995472317714" stroke="black" stroke-width="1"/>
<line x1="48.60858649373772" y1="19.307995472317714" x2="48.25959152671271" y2="29.30190374250867" stroke="black" stroke-width="1"/>
<line x1="48.25959152671271" y1="29.30190374250867" x2="58.25806847827663" y2="29.476427806881503" stroke="black" stroke-width="1"/>
<line x1="58.25806847827663" y1="29.476427806881503" x2="68.25654542984054" y2="29.650951871254335" stroke="black" stroke-width="1"/>
<line x1="68.25654542984054" y1="29.650951871254335" x2="68.25654542984054" y2="19.650951871254335" stroke="black" stroke-width="1"/>
<line x1="68.25654542984054" y1="19.650951871254335" x2="58.25806847827663" y2="19.825475935627168" stroke="black" stroke-width="1"/>
<line x1="58.25806847827663" y1="19.825475935627168" x2="58.25806847827663" y2="9.825475935627168" stroke="black" stroke-width="1"/>
<line x1="58.25806847827663" y1="9.825475935627168" x2="68.25654542984054" y2="10.0" stroke="black" stroke-width="1"/>
<line x1="68.25654542984054" y1="10.0" x2="68.25654542984054" y2="0.0" stroke="black" stroke-width="1"/>
<line x1="68.25654542984054" y1="0.0" x2="58.25806847827663" y2="0.1745240643728323" stroke="black" stroke-width="1"/>
<line x1="58.25806847827663" y1="0.1745240643728323" x2="48.25959152671271" y2="0.3490481287456646" stroke="black" stroke-width="1"/>
<line x1="48.25959152671271" y1="0.3490481287456646" x2="48.608586493737725" y2="10.342956398936622" stroke="black" stroke-width="1"/>
<line x1="48.608586493737725" y1="10.342956398936622" x2="38.61010954217382" y2="10.517480463309454" stroke="black" stroke-width="1"/>
<line x1="38.61010954217382" y1="10.517480463309454" x2="38.61010954217382" y2="0.5174804633094539" stroke="black" stroke-width="1"/>
<line x1="38.61010954217382" y1="0.5174804633094539" x2="28.611632590609904" y2="0.6920045276822862" stroke="black" stroke-width="1"/>
<line x1="28.611632590609904" y1="0.6920045276822862" x2="18.613155639045992" y2="0.8665285920551185" stroke="black" stroke-width="1"/>
<line x1="18.613155639045992" y1="0.8665285920551185" x2="18.962150606071003" y2="10.860436862246075" stroke="black" stroke-width="1"/>
<line x1="18.962150606071003" y1="10.860436862246075" x2="28.94844595361674" y2="10.337077299816634" stroke="black" stroke-width="1"/>
<line x1="28.94844595361674" y1="10.337077299816634" x2="29.29744092064175" y2="20.33098557000759" stroke="black" stroke-width="1"/>
<line x1="29.29744092064175" y1="20.33098557000759" x2="29.64643588766676" y2="30.32489384019855" stroke="black" stroke-width="1"/>
<line x1="29.64643588766676" y1="30.32489384019855" x2="19.64795893610285" y2="30.49941790457138" stroke="black" stroke-width="1"/>
<line x1="19.64795893610285" y1="30.49941790457138" x2="19.64795893610285" y2="20.49941790457138" stroke="black" stroke-width="1"/>
<line x1="19.64795893610285" y1="20.49941790457138" x2="9.649481984538937" y2="20.673941968944213" stroke="black" stroke-width="1"/>
<line x1="9.649481984538937" y1="20.673941968944213" x2="9.998476951563948" y2="30.66785023913517" stroke="black" stroke-width="1"/>
<line x1="9.998476951563948" y1="30.66785023913517" x2="3.552713678800501e-14" y2="30.842374303508002" stroke="black" stroke-width="1"/>
<line x1="3.552713678800501e-14" y1="30.842374303508002" x2="3.552713678800501e-14" y2="20.842374303508002" stroke="black" stroke-width="1"/>
<line x1="3.552713678800501e-14" y1="20.842374303508002" x2="3.552713678800501e-14" y2="10.842374303508002" stroke="black" stroke-width="1"/>
<line x1="3.552713678800501e-14" y1="10.842374303508002" x2="9.998476951563948" y2="11.016898367880835" stroke="black" stroke-width="1"/>
<line x1="9.998476951563948" y1="11.016898367880835" x2="9.998476951563948" y2="1.0168983678808274" stroke="black" stroke-width="1"/>
<line x1="9.998476951563948" y1="1.0168983678808274" x2="3.552713678800501e-14" y2="1.1914224322536597" stroke="black" stroke-width="1"/>
</svg>
