<svg width="144.12908586555207" height="144.1510407672722" xmlns="http://www.w3.org/2000/svg">
<line x1="0" y1="141.6352582154444" x2="0.0" y2="131.6352582154444" stroke="black" stroke-width="1"/>
<line x1="0.0" y1="131.6352582154444" x2="9.998476951563912" y2="131.80978227981723" stroke="black" stroke-width="1"/>
<line x1="9.998476951563912" y1="131.80978227981723" x2="9.649481984538903" y2="141.80369055000818" stroke="black" stroke-width="1"/>
<line x1="9.649481984538903" y1="141.80369055000818" x2="19.647958936102818" y2="141.97821461438102" stroke="black" stroke-width="1"/>
<line x1="19.647958936102818" y1="141.97821461438102" x2="29.64643588766673" y2="142.15273867875385" stroke="black" stroke-width="1"/>
<line x1="29.64643588766673" y1="142.15273867875385" x2="29.64643588766673" y2="132.15273867875385" stroke="black" stroke-width="1"/>
<line x1="29.64643588766673" y1="132.15273867875385" x2="19.647958936102818" y2="132.32726274312668" stroke="black" stroke-width="1"/>
<line x1="19.647958936102818" y1="132.32726274312668" x2="19.647958936102818" y2="122.3272627431267" stroke="black" stroke-width="1"/>
<line x1="19.647958936102818" y1="122.3272627431267" x2="29.64643588766673" y2="122.50178680749953" stroke="black" stroke-width="1"/>
<line x1="29.64643588766673" y1="122.50178680749953" x2="29.64643588766673" y2="112.50178680749953" stroke="black" stroke-width="1"/>
<line x1="29.64643588766673" y1="112.50178680749953" x2="19.647958936102818" y2="112.67631087187236" stroke="black" stroke-width="1"/>
<line x1="19.647958936102818" y1="112.67631087187236" x2="9.649481984538905" y2="112.8508349362452" stroke="black" stroke-width="1"/>
<line x1="9.649481984538905" y1="112.8508349362452" x2="9.998476951563916" y2="122.84474320643616" stroke="black" stroke-width="1"/>
<line x1="9.998476951563916" y1="122.84474320643616" x2="3.552713678800501e-15" y2="123.019267270809" stroke="black" stroke-width="1"/>
<line x1="3.552713678800501e-15" y1="123.019267270809" x2="3.552713678800501e-15" y2="113.019267270809" stroke="black" stroke-width="1"/>
<line x1="3.552713678800501e-15" y1="113.019267270809" x2="3.552713678800501e-15" y2="103.019267270809" stroke="black" stroke-width="1"/>
<line x1="3.552713678800501e-15" y1="103.019267270809" x2="9.998476951563916" y2="103.19379133518183" stroke="black" stroke-width="1"/>
<line x1="9.998476951563916" y1="103.19379133518183" x2="9.998476951563916" y2="93.19379133518183" stroke="black" stroke-width="1"/>
<line x1="9.998476951563916" y1="93.19379133518183" x2="3.552713678800501e-15" y2="93.36831539955466" stroke="black" stroke-width="1"/>
<line x1="3.552713678800501e-15" y1="93.36831539955466" x2="3.552713678800501e-15" y2="83.36831539955466" stroke="black" stroke-width="1"/>
<line x1="3.552713678800501e-15" y1="83.36831539955466" x2="3.552713678800501e-15" y2="73.36831539955466" stroke="black" stroke-width="1"/>
<line x1="3.552713678800501e-15" y1="73.36831539955466" x2="9.998476951563916" y2="73.54283946392749" stroke="black" stroke-width="1"/>
<line x1="9.998476951563916" y1="73.54283946392749" x2="9.649481984538907" y2="83.53674773411845" stroke="black" stroke-width="1"/>
<line x1="9.649481984538907" y1="83.53674773411845" x2="19.647958936102818" y2="83.71127179849128" stroke="black" stroke-width="1"/>
<line x1="19.647958936102818" y1="83.71127179849128" x2="19.647958936102818" y2="73.71127179849128" stroke="black" stroke-width="1"/>
<line x1="19.647958936102818" y1="73.71127179849128" x2="29.64643588766673" y2="73.88579586286411" stroke="black" stroke-width="1"/>
<line x1="29.64643588766673" y1="73.88579586286411" x2="29.29744092064172" y2="83.87970413305507" stroke="black" stroke-width="1"/>
<line x1="29.29744092064172" y1="83.87970413305507" x2="28.94844595361671" y2="93.87361240324603" stroke="black" stroke-width="1"/>
<line x1="28.94844595361671" y1="93.87361240324603" x2="18.96215060607097" y2="93.35025284081658" stroke="black" stroke-width="1"/>
<line x1="18.96215060607097" y1="93.35025284081658" x2="18.61315563904596" y2="103.34416111100754" stroke="black" stroke-width="1"/>
<line x1="18.61315563904596" y1="103.34416111100754" x2="28.611632590609872" y2="103.51868517538037" stroke="black" stroke-width="1"/>
<line x1="28.611632590609872" y1="103.51868517538037" x2="38.61010954217379" y2="103.6932092397532" stroke="black" stroke-width="1"/>
<line x1="38.61010954217379" y1="103.6932092397532" x2="48.608586493737704" y2="103.86773330412603" stroke="black" stroke-width="1"/>
<line x1="48.608586493737704" y1="103.86773330412603" x2="48.608586493737704" y2="93.86773330412603" stroke="black" stroke-width="1"/>
<line x1="48.608586493737704" y1="93.86773330412603" x2="38.61010954217379" y2="94.04225736849887" stroke="black" stroke-width="1"/>
<line x1="38.61010954217379" y1="94.04225736849887" x2="38.61010954217379" y2="84.04225736849887" stroke="black" stroke-width="1"/>
<line x1="38.61010954217379" y1="84.04225736849887" x2="38.61010954217379" y2="74.04225736849887" stroke="black" stroke-width="1"/>
<line x1="38.61010954217379" y1="74.04225736849887" x2="48.608586493737704" y2="74.2167814328717" stroke="black" stroke-width="1"/>
<line x1="48.608586493737704" y1="74.2167814328717" x2="48.2595915267127" y2="84.21068970306266" stroke="black" stroke-width="1"/>
<line x1="48.2595915267127" y1="84.21068970306266" x2="58.25806847827661" y2="84.38521376743549" stroke="black" stroke-width="1"/>
<line x1="58.25806847827661" y1="84.38521376743549" x2="58.25806847827661" y2="74.38521376743549" stroke="black" stroke-width="1"/>
<line x1="58.25806847827661" y1="74.38521376743549" x2="68.25654542984053" y2="74.55973783180832" stroke="black" stroke-width="1"/>
<line x1="68.25654542984053" y1="74.55973783180832" x2="67.90755046281552" y2="84.55364610199928" stroke="black" stroke-width="1"/>
<line x1="67.90755046281552" y1="84.55364610199928" x2="67.55855549579051" y2="94.54755437219023" stroke="black" stroke-width="1"/>
<line x1="67.55855549579051" y1="94.54755437219023" x2="57.57226014824478" y2="94.02419480976079" stroke="black" stroke-width="1"/>
<line x1="57.57226014824478" y1="94.02419480976079" x2="57.22326518121977" y2="104.01810307995174" stroke="black" stroke-width="1"/>
<line x1="57.22326518121977" y1="104.01810307995174" x2="67.22174213278369" y2="104.19262714432458" stroke="black" stroke-width="1"/>
<line x1="67.22174213278369" y1="104.19262714432458" x2="66.87274716575868" y2="114.18653541451553" stroke="black" stroke-width="1"/>
<line x1="66.87274716575868" y1="114.18653541451553" x2="66.52375219873367" y2="124.18044368470649" stroke="black" stroke-width="1"/>
<line x1="66.52375219873367" y1="124.18044368470649" x2="56.53745685118794" y2="123.65708412227706" stroke="black" stroke-width="1"/>
<line x1="56.53745685118794" y1="123.65708412227706" x2="57.235021588629195" y2="113.68144361967882" stroke="black" stroke-width="1"/>
<line x1="57.235021588629195" y1="113.68144361967882" x2="47.24872624108346" y2="113.15808405724937" stroke="black" stroke-width="1"/>
<line x1="47.24872624108346" y1="113.15808405724937" x2="37.262430893537726" y2="112.63472449481993" stroke="black" stroke-width="1"/>
<line x1="37.262430893537726" y1="112.63472449481993" x2="36.91343592651272" y2="122.62863276501089" stroke="black" stroke-width="1"/>
<line x1="36.91343592651272" y1="122.62863276501089" x2="46.911912878076635" y2="122.80315682938372" stroke="black" stroke-width="1"/>
<line x1="46.911912878076635" y1="122.80315682938372" x2="46.56291791105163" y2="132.7970650995747" stroke="black" stroke-width="1"/>
<line x1="46.56291791105163" y1="132.7970650995747" x2="36.57662256350589" y2="132.27370553714525" stroke="black" stroke-width="1"/>
<line x1="36.57662256350589" y1="132.27370553714525" x2="36.227627596480886" y2="142.2676138073362" stroke="black" stroke-width="1"/>
<line x1="36.227627596480886" y1="142.2676138073362" x2="46.2261045480448" y2="142.44213787170904" stroke="black" stroke-width="1"/>
<line x1="46.2261045480448" y1="142.44213787170904" x2="56.22458149960872" y2="142.61666193608187" stroke="black" stroke-width="1"/>
<line x1="56.22458149960872" y1="142.61666193608187" x2="56.22458149960872" y2="132.61666193608187" stroke="black" stroke-width="1"/>
<line x1="56.22458149960872" y1="132.61666193608187" x2="66.22305845117263" y2="132.7911860004547" stroke="black" stroke-width="1"/>
<line x1="66.22305845117263" y1="132.7911860004547" x2="65.87406348414763" y2="142.78509427064566" stroke="black" stroke-width="1"/>
<line x1="65.87406348414763" y1="142.78509427064566" x2="75.87254043571154" y2="142.9596183350185" stroke="black" stroke-width="1"/>
<line x1="75.87254043571154" y1="142.9596183350185" x2="85.87101738727546" y2="143.13414239939132" stroke="black" stroke-width="1"/>
<line x1="85.87101738727546" y1="143.13414239939132" x2="85.87101738727546" y2="133.13414239939132" stroke="black" stroke-width="1"/>
<line x1="85.87101738727546" y1="133.13414239939132" x2="75.87254043571154" y2="133.30866646376415" stroke="black" stroke-width="1"/>
<line x1="75.87254043571154" y1="133.30866646376415" x2="75.87254043571154" y2="123.30866646376417" stroke="black" stroke-width="1"/>
<line x1="75.87254043571154" y1="123.30866646376417" x2="75.87254043571154" y2="113.30866646376417" stroke="black" stroke-width="1"/>
<line x1="75.87254043571154" y1="113.30866646376417" x2="85.87101738727546" y2="113.483190528137" stroke="black" stroke-width="1"/>
<line x1="85.87101738727546" y1="113.483190528137" x2="85.52202242025045" y2="123.47709879832796" stroke="black" stroke-width="1"/>
<line x1="85.52202242025045" y1="123.47709879832796" x2="95.52049937181437" y2="123.65162286270079" stroke="black" stroke-width="1"/>
<line x1="95.52049937181437" y1="123.65162286270079" x2="95.52049937181437" y2="113.65162286270079" stroke="black" stroke-width="1"/>
<line x1="95.52049937181437" y1="113.65162286270079" x2="105.51897632337828" y2="113.82614692707364" stroke="black" stroke-width="1"/>
<line x1="105.51897632337828" y1="113.82614692707364" x2="105.16998135635328" y2="123.8200551972646" stroke="black" stroke-width="1"/>
<line x1="105.16998135635328" y1="123.8200551972646" x2="104.82098638932827" y2="133.81396346745555" stroke="black" stroke-width="1"/>
<line x1="104.82098638932827" y1="133.81396346745555" x2="94.83469104178253" y2="133.2906039050261" stroke="black" stroke-width="1"/>
<line x1="94.83469104178253" y1="133.2906039050261" x2="94.48569607475753" y2="143.28451217521706" stroke="black" stroke-width="1"/>
<line x1="94.48569607475753" y1="143.28451217521706" x2="104.48417302632144" y2="143.4590362395899" stroke="black" stroke-width="1"/>
<line x1="104.48417302632144" y1="143.4590362395899" x2="114.48264997788536" y2="143.63356030396272" stroke="black" stroke-width="1"/>
<line x1="114.48264997788536" y1="143.63356030396272" x2="114.48264997788536" y2="133.63356030396272" stroke="black" stroke-width="1"/>
<line x1="114.48264997788536" y1="133.63356030396272" x2="124.48112692944927" y2="133.80808436833556" stroke="black" stroke-width="1"/>
<line x1="124.48112692944927" y1="133.80808436833556" x2="124.13213196242427" y2="143.8019926385265" stroke="black" stroke-width="1"/>
<line x1="124.13213196242427" y1="143.8019926385265" x2="134.13060891398817" y2="143.97651670289935" stroke="black" stroke-width="1"/>
<line x1="134.13060891398817" y1="143.97651670289935" x2="144.12908586555207" y2="144.1510407672722" stroke="black" stroke-width="1"/>
<line x1="144.12908586555207" y1="144.1510407672722" x2="144.12908586555207" y2="134.1510407672722" stroke="black" stroke-width="1"/>
<line x1="144.12908586555207" y1="134.1510407672722" x2="134.13060891398817" y2="134.32556483164504" stroke="black" stroke-width="1"/>
<line x1="134.13060891398817" y1="134.32556483164504" x2="134.13060891398817" y2="124.32556483164502" stroke="black" stroke-width="1"/>
<line x1="134.13060891398817" y1="124.32556483164502" x2="144.12908586555207" y2="124.50008889601787" stroke="black" stroke-width="1"/>
<line x1="144.12908586555207" y1="124.50008889601787" x2="144.12908586555207" y2="114.50008889601787" stroke="black" stroke-width="1"/>
<line x1="144.12908586555207" y1="114.50008889601787" x2="134.13060891398817" y2="114.6746129603907" stroke="black" stroke-width="1"/>
<line x1="134.13060891398817" y1="114.6746129603907" x2="124.13213196242425" y2="114.84913702476354" stroke="black" stroke-width="1"/>
<line x1="124.13213196242425" y1="114.84913702476354" x2="124.48112692944926" y2="124.84304529495449" stroke="black" stroke-width="1"/>
<line x1="124.48112692944926" y1="124.84304529495449" x2="114.48264997788534" y2="125.01756935932733" stroke="black" stroke-width="1"/>
<line x1="114.48264997788534" y1="125.01756935932733" x2="114.48264997788534" y2="115.01756935932733" stroke="black" stroke-width="1"/>
<line x1="114.48264997788534" y1="115.01756935932733" x2="114.48264997788534" y2="105.01756935932733" stroke="black" stroke-width="1"/>
<line x1="114.48264997788534" y1="105.01756935932733" x2="114.48264997788534" y2="95.01756935932733" stroke="black" stroke-width="1"/>
<line x1="114.48264997788534" y1="95.01756935932733" x2="124.48112692944926" y2="95.19209342370016" stroke="black" stroke-width="1"/>
<line x1="124.48112692944926" y1="95.19209342370016" x2="124.13213196242425" y2="105.18600169389111" stroke="black" stroke-width="1"/>
<line x1="124.13213196242425" y1="105.18600169389111" x2="134.13060891398817" y2="105.36052575826395" stroke="black" stroke-width="1"/>
<line x1="134.13060891398817" y1="105.36052575826395" x2="144.12908586555207" y2="105.53504982263678" stroke="black" stroke-width="1"/>
<line x1="144.12908586555207" y1="105.53504982263678" x2="144.12908586555207" y2="95.53504982263678" stroke="black" stroke-width="1"/>
<line x1="144.12908586555207" y1="95.53504982263678" x2="134.13060891398817" y2="95.70957388700961" stroke="black" stroke-width="1"/>
<line x1="134.13060891398817" y1="95.70957388700961" x2="134.13060891398817" y2="85.70957388700961" stroke="black" stroke-width="1"/>
<line x1="134.13060891398817" y1="85.70957388700961" x2="144.12908586555207" y2="85.88409795138244" stroke="black" stroke-width="1"/>
<line x1="144.12908586555207" y1="85.88409795138244" x2="144.12908586555207" y2="75.88409795138244" stroke="black" stroke-width="1"/>
<line x1="144.12908586555207" y1="75.88409795138244" x2="134.13060891398817" y2="76.05862201575528" stroke="black" stroke-width="1"/>
<line x1="134.13060891398817" y1="76.05862201575528" x2="124.13213196242425" y2="76.23314608012811" stroke="black" stroke-width="1"/>
<line x1="124.13213196242425" y1="76.23314608012811" x2="124.48112692944926" y2="86.22705435031907" stroke="black" stroke-width="1"/>
<line x1="124.48112692944926" y1="86.22705435031907" x2="114.48264997788534" y2="86.4015784146919" stroke="black" stroke-width="1"/>
<line x1="114.48264997788534" y1="86.4015784146919" x2="114.48264997788534" y2="76.4015784146919" stroke="black" stroke-width="1"/>
<line x1="114.48264997788534" y1="76.4015784146919" x2="104.48417302632143" y2="76.57610247906473" stroke="black" stroke-width="1"/>
<line x1="104.48417302632143" y1="76.57610247906473" x2="94.48569607475751" y2="76.75062654343756" stroke="black" stroke-width="1"/>
<line x1="94.48569607475751" y1="76.75062654343756" x2="94.83469104178252" y2="86.74453481362852" stroke="black" stroke-width="1"/>
<line x1="94.83469104178252" y1="86.74453481362852" x2="104.82098638932825" y2="86.22117525119907" stroke="black" stroke-width="1"/>
<line x1="104.82098638932825" y1="86.22117525119907" x2="105.16998135635326" y2="96.21508352139003" stroke="black" stroke-width="1"/>
<line x1="105.16998135635326" y1="96.21508352139003" x2="105.51897632337827" y2="106.20899179158098" stroke="black" stroke-width="1"/>
<line x1="105.51897632337827" y1="106.20899179158098" x2="95.52049937181435" y2="106.38351585595382" stroke="black" stroke-width="1"/>
<line x1="95.52049937181435" y1="106.38351585595382" x2="95.52049937181435" y2="96.38351585595382" stroke="black" stroke-width="1"/>
<line x1="95.52049937181435" y1="96.38351585595382" x2="85.52202242025044" y2="96.55803992032665" stroke="black" stroke-width="1"/>
<line x1="85.52202242025044" y1="96.55803992032665" x2="85.87101738727544" y2="106.5519481905176" stroke="black" stroke-width="1"/>
<line x1="85.87101738727544" y1="106.5519481905176" x2="75.87254043571153" y2="106.72647225489044" stroke="black" stroke-width="1"/>
<line x1="75.87254043571153" y1="106.72647225489044" x2="75.87254043571153" y2="96.72647225489044" stroke="black" stroke-width="1"/>
<line x1="75.87254043571153" y1="96.72647225489044" x2="75.87254043571153" y2="86.72647225489044" stroke="black" stroke-width="1"/>
<line x1="75.87254043571153" y1="86.72647225489044" x2="85.87101738727544" y2="86.90099631926327" stroke="black" stroke-width="1"/>
<line x1="85.87101738727544" y1="86.90099631926327" x2="85.87101738727544" y2="76.90099631926327" stroke="black" stroke-width="1"/>
<line x1="85.87101738727544" y1="76.90099631926327" x2="75.87254043571153" y2="77.0755203836361" stroke="black" stroke-width="1"/>
<line x1="75.87254043571153" y1="77.0755203836361" x2="75.87254043571153" y2="67.0755203836361" stroke="black" stroke-width="1"/>
<line x1="75.87254043571153" y1="67.0755203836361" x2="85.87101738727544" y2="67.25004444800894" stroke="black" stroke-width="1"/>
<line x1="85.87101738727544" y1="67.25004444800894" x2="85.87101738727544" y2="57.250044448008936" stroke="black" stroke-width="1"/>
<line x1="85.87101738727544" y1="57.250044448008936" x2="75.87254043571153" y2="57.42456851238177" stroke="black" stroke-width="1"/>
<line x1="75.87254043571153" y1="57.42456851238177" x2="75.87254043571153" y2="47.42456851238177" stroke="black" stroke-width="1"/>
<line x1="75.87254043571153" y1="47.42456851238177" x2="75.87254043571153" y2="37.42456851238177" stroke="black" stroke-width="1"/>
<line x1="75.87254043571153" y1="37.42456851238177" x2="85.87101738727544" y2="37.5990925767546" stroke="black" stroke-width="1"/>
<line x1="85.87101738727544" y1="37.5990925767546" x2="85.52202242025044" y2="47.59300084694556" stroke="black" stroke-width="1"/>
<line x1="85.52202242025044" y1="47.59300084694556" x2="95.52049937181435" y2="47.76752491131839" stroke="black" stroke-width="1"/>
<line x1="95.52049937181435" y1="47.76752491131839" x2="95.52049937181435" y2="37.76752491131839" stroke="black" stroke-width="1"/>
<line x1="95.52049937181435" y1="37.76752491131839" x2="105.51897632337827" y2="37.94204897569122" stroke="black" stroke-width="1"/>
<line x1="105.51897632337827" y1="37.94204897569122" x2="105.16998135635326" y2="47.93595724588218" stroke="black" stroke-width="1"/>
<line x1="105.16998135635326" y1="47.93595724588218" x2="104.82098638932825" y2="57.929865516073136" stroke="black" stroke-width="1"/>
<line x1="104.82098638932825" y1="57.929865516073136" x2="94.83469104178252" y2="57.4065059536437" stroke="black" stroke-width="1"/>
<line x1="94.83469104178252" y1="57.4065059536437" x2="94.48569607475751" y2="67.40041422383466" stroke="black" stroke-width="1"/>
<line x1="94.48569607475751" y1="67.40041422383466" x2="104.48417302632143" y2="67.57493828820749" stroke="black" stroke-width="1"/>
<line x1="104.48417302632143" y1="67.57493828820749" x2="114.48264997788534" y2="67.74946235258032" stroke="black" stroke-width="1"/>
<line x1="114.48264997788534" y1="67.74946235258032" x2="114.48264997788534" y2="57.74946235258032" stroke="black" stroke-width="1"/>
<line x1="114.48264997788534" y1="57.74946235258032" x2="124.48112692944926" y2="57.923986416953156" stroke="black" stroke-width="1"/>
<line x1="124.48112692944926" y1="57.923986416953156" x2="124.13213196242425" y2="67.91789468714411" stroke="black" stroke-width="1"/>
<line x1="124.13213196242425" y1="67.91789468714411" x2="134.13060891398817" y2="68.09241875151695" stroke="black" stroke-width="1"/>
<line x1="134.13060891398817" y1="68.09241875151695" x2="144.12908586555207" y2="68.26694281588978" stroke="black" stroke-width="1"/>
<line x1="144.12908586555207" y1="68.26694281588978" x2="144.12908586555207" y2="58.26694281588978" stroke="black" stroke-width="1"/>
<line x1="144.12908586555207" y1="58.26694281588978" x2="134.13060891398817" y2="58.44146688026261" stroke="black" stroke-width="1"/>
<line x1="134.13060891398817" y1="58.44146688026261" x2="134.13060891398817" y2="48.44146688026261" stroke="black" stroke-width="1"/>
<line x1="134.13060891398817" y1="48.44146688026261" x2="144.12908586555207" y2="48.61599094463544" stroke="black" stroke-width="1"/>
<line x1="144.12908586555207" y1="48.61599094463544" x2="144.12908586555207" y2="38.61599094463544" stroke="black" stroke-width="1"/>
<line x1="144.12908586555207" y1="38.61599094463544" x2="134.13060891398817" y2="38.790515009008274" stroke="black" stroke-width="1"/>
<line x1="134.13060891398817" y1="38.790515009008274" x2="124.13213196242425" y2="38.96503907338111" stroke="black" stroke-width="1"/>
<line x1="124.13213196242425" y1="38.96503907338111" x2="124.48112692944926" y2="48.95894734357206" stroke="black" stroke-width="1"/>
<line x1="124.48112692944926" y1="48.95894734357206" x2="114.48264997788534" y2="49.133471407944896" stroke="black" stroke-width="1"/>
<line x1="114.48264997788534" y1="49.133471407944896" x2="114.48264997788534" y2="39.133471407944896" stroke="black" stroke-width="1"/>
<line x1="114.48264997788534" y1="39.133471407944896" x2="114.48264997788534" y2="29.133471407944896" stroke="black" stroke-width="1"/>
<line x1="114.48264997788534" y1="29.133471407944896" x2="114.48264997788534" y2="19.133471407944896" stroke="black" stroke-width="1"/>
<line x1="114.48264997788534" y1="19.133471407944896" x2="124.48112692944926" y2="19.307995472317728" stroke="black" stroke-width="1"/>
<line x1="124.48112692944926" y1="19.307995472317728" x2="124.13213196242425" y2="29.301903742508685" stroke="black" stroke-width="1"/>
<line x1="124.13213196242425" y1="29.301903742508685" x2="134.13060891398817" y2="29.476427806881517" stroke="black" stroke-width="1"/>
<line x1="134.13060891398817" y1="29.476427806881517" x2="144.12908586555207" y2="29.65095187125435" stroke="black" stroke-width="1"/>
<line x1="144.12908586555207" y1="29.65095187125435" x2="144.12908586555207" y2="19.65095187125435" stroke="black" stroke-width="1"/>
<line x1="144.12908586555207" y1="19.65095187125435" x2="134.13060891398817" y2="19.825475935627182" stroke="black" stroke-width="1"/>
<line x1="134.13060891398817" y1="19.825475935627182" x2="134.13060891398817" y2="9.825475935627168" stroke="black" stroke-width="1"/>
<line x1="134.13060891398817" y1="9.825475935627168" x2="144.12908586555207" y2="10.0" stroke="black" stroke-width="1"/>
<line x1="144.12908586555207" y1="10.0" x2="144.12908586555207" y2="0.0" stroke="black" stroke-width="1"/>
<line x1="144.12908586555207" y1="0.0" x2="134.13060891398817" y2="0.1745240643728323" stroke="black" stroke-width="1"/>
<line x1="134.13060891398817" y1="0.1745240643728323" x2="124.13213196242425" y2="0.3490481287456646" stroke="black" stroke-width="1"/>
<line x1="124.13213196242425" y1="0.3490481287456646" x2="124.48112692944926" y2="10.342956398936622" stroke="black" stroke-width="1"/>
<line x1="124.48112692944926" y1="10.342956398936622" x2="114.48264997788534" y2="10.517480463309454" stroke="black" stroke-width="1"/>
<line x1="114.48264997788534" y1="10.517480463309454" x2="114.48264997788534" y2="0.5174804633094539" stroke="black" stroke-width="1"/>
<line x1="114.48264997788534" y1="0.5174804633094539" x2="104.48417302632143" y2="0.6920045276822862" stroke="black" stroke-width="1"/>
<line x1="104.48417302632143" y1="0.6920045276822862" x2="94.48569607475751" y2="0.8665285920551185" stroke="black" stroke-width="1"/>
<line x1="94.48569607475751" y1="0.8665285920551185" x2="94.83469104178252" y2="10.860436862246075" stroke="black" stroke-width="1"/>
<line x1="94.83469104178252" y1="10.860436862246075" x2="104.82098638932825" y2="10.337077299816627" stroke="black" stroke-width="1"/>
<line x1="104.82098638932825" y1="10.337077299816627" x2="105.16998135635326" y2="20.330985570007584" stroke="black" stroke-width="1"/>
<line x1="105.16998135635326" y1="20.330985570007584" x2="105.51897632337827" y2="30.32489384019854" stroke="black" stroke-width="1"/>
<line x1="105.51897632337827" y1="30.32489384019854" x2="95.52049937181435" y2="30.499417904571374" stroke="black" stroke-width="1"/>
<line x1="95.52049937181435" y1="30.499417904571374" x2="95.52049937181435" y2="20.499417904571374" stroke="black" stroke-width="1"/>
<line x1="95.52049937181435" y1="20.499417904571374" x2="85.52202242025044" y2="20.673941968944206" stroke="black" stroke-width="1"/>
<line x1="85.52202242025044" y1="20.673941968944206" x2="85.87101738727544" y2="30.667850239135163" stroke="black" stroke-width="1"/>
<line x1="85.87101738727544" y1="30.667850239135163" x2="75.87254043571153" y2="30.842374303507995" stroke="black" stroke-width="1"/>
<line x1="75.87254043571153" y1="30.842374303507995" x2="75.87254043571153" y2="20.842374303507995" stroke="black" stroke-width="1"/>
<line x1="75.87254043571153" y1="20.842374303507995" x2="75.87254043571153" y2="10.842374303507995" stroke="black" stroke-width="1"/>
<line x1="75.87254043571153" y1="10.842374303507995" x2="85.87101738727544" y2="11.016898367880827" stroke="black" stroke-width="1"/>
<line x1="85.87101738727544" y1="11.016898367880827" x2="85.87101738727544" y2="1.0168983678808274" stroke="black" stroke-width="1"/>
<line x1="85.87101738727544" y1="1.0168983678808274" x2="75.87254043571153" y2="1.1914224322536597" stroke="black" stroke-width="1"/>
<line x1="75.87254043571153" y1="1.1914224322536597" x2="65.87406348414761" y2="1.365946496626492" stroke="black" stroke-width="1"/>
<line x1="65.87406348414761" y1="1.365946496626492" x2="66.22305845117262" y2="11.359854766817449" stroke="black" stroke-width="1"/>
<line x1="66.22305845117262" y1="11.359854766817449" x2="56.2245814996087" y2="11.534378831190281" stroke="black" stroke-width="1"/>
<line x1="56.2245814996087" y1="11.534378831190281" x2="56.2245814996087" y2="1.5343788311902813" stroke="black" stroke-width="1"/>
<line x1="56.2245814996087" y1="1.5343788311902813" x2="46.22610454804479" y2="1.7089028955631136" stroke="black" stroke-width="1"/>
<line x1="46.22610454804479" y1="1.7089028955631136" x2="36.22762759648087" y2="1.8834269599359459" stroke="black" stroke-width="1"/>
<line x1="36.22762759648087" y1="1.8834269599359459" x2="36.576622563505886" y2="11.877335230126903" stroke="black" stroke-width="1"/>
<line x1="36.576622563505886" y1="11.877335230126903" x2="46.56291791105163" y2="11.353975667697455" stroke="black" stroke-width="1"/>
<line x1="46.56291791105163" y1="11.353975667697455" x2="46.91191287807664" y2="21.34788393788841" stroke="black" stroke-width="1"/>
<line x1="46.91191287807664" y1="21.34788393788841" x2="36.91343592651273" y2="21.522408002261244" stroke="black" stroke-width="1"/>
<line x1="36.91343592651273" y1="21.522408002261244" x2="37.26243089353775" y2="31.5163162724522" stroke="black" stroke-width="1"/>
<line x1="37.26243089353775" y1="31.5163162724522" x2="47.24872624108349" y2="30.992956710022767" stroke="black" stroke-width="1"/>
<line x1="47.24872624108349" y1="30.992956710022767" x2="57.23502158862922" y2="30.469597147593333" stroke="black" stroke-width="1"/>
<line x1="57.23502158862922" y1="30.469597147593333" x2="56.53745685118797" y2="20.493956644995095" stroke="black" stroke-width="1"/>
<line x1="56.53745685118797" y1="20.493956644995095" x2="66.5237521987337" y2="19.97059708256566" stroke="black" stroke-width="1"/>
<line x1="66.5237521987337" y1="19.97059708256566" x2="66.87274716575871" y2="29.964505352756618" stroke="black" stroke-width="1"/>
<line x1="66.87274716575871" y1="29.964505352756618" x2="67.22174213278372" y2="39.958413622947575" stroke="black" stroke-width="1"/>
<line x1="67.22174213278372" y1="39.958413622947575" x2="57.2232651812198" y2="40.13293768732041" stroke="black" stroke-width="1"/>
<line x1="57.2232651812198" y1="40.13293768732041" x2="57.572260148244816" y2="50.126845957511364" stroke="black" stroke-width="1"/>
<line x1="57.572260148244816" y1="50.126845957511364" x2="67.55855549579056" y2="49.60348639508193" stroke="black" stroke-width="1"/>
<line x1="67.55855549579056" y1="49.60348639508193" x2="67.90755046281556" y2="59.59739466527289" stroke="black" stroke-width="1"/>
<line x1="67.90755046281556" y1="59.59739466527289" x2="68.25654542984057" y2="69.59130293546384" stroke="black" stroke-width="1"/>
<line x1="68.25654542984057" y1="69.59130293546384" x2="58.258068478276655" y2="69.76582699983668" stroke="black" stroke-width="1"/>
<line x1="58.258068478276655" y1="69.76582699983668" x2="58.258068478276655" y2="59.765826999836676" stroke="black" stroke-width="1"/>
<line x1="58.258068478276655" y1="59.765826999836676" x2="48.25959152671274" y2="59.94035106420951" stroke="black" stroke-width="1"/>
<line x1="48.25959152671274" y1="59.94035106420951" x2="48.608586493737754" y2="69.93425933440047" stroke="black" stroke-width="1"/>
<line x1="48.608586493737754" y1="69.93425933440047" x2="38.610109542173845" y2="70.1087833987733" stroke="black" stroke-width="1"/>
<line x1="38.610109542173845" y1="70.1087833987733" x2="38.610109542173845" y2="60.1087833987733" stroke="black" stroke-width="1"/>
<line x1="38.610109542173845" y1="60.1087833987733" x2="38.610109542173845" y2="50.1087833987733" stroke="black" stroke-width="1"/>
<line x1="38.610109542173845" y1="50.1087833987733" x2="48.60858649373776" y2="50.28330746314613" stroke="black" stroke-width="1"/>
<line x1="48.60858649373776" y1="50.28330746314613" x2="48.60858649373776" y2="40.28330746314613" stroke="black" stroke-width="1"/>
<line x1="48.60858649373776" y1="40.28330746314613" x2="38.610109542173845" y2="40.45783152751896" stroke="black" stroke-width="1"/>
<line x1="38.610109542173845" y1="40.45783152751896" x2="28.611632590609933" y2="40.632355591891795" stroke="black" stroke-width="1"/>
<line x1="28.611632590609933" y1="40.632355591891795" x2="18.61315563904602" y2="40.80687965626463" stroke="black" stroke-width="1"/>
<line x1="18.61315563904602" y1="40.80687965626463" x2="18.96215060607103" y2="50.800787926455584" stroke="black" stroke-width="1"/>
<line x1="18.96215060607103" y1="50.800787926455584" x2="28.94844595361677" y2="50.27742836402615" stroke="black" stroke-width="1"/>
<line x1="28.94844595361677" y1="50.27742836402615" x2="29.29744092064178" y2="60.27133663421711" stroke="black" stroke-width="1"/>
<line x1="29.29744092064178" y1="60.27133663421711" x2="29.64643588766679" y2="70.26524490440806" stroke="black" stroke-width="1"/>
<line x1="29.64643588766679" y1="70.26524490440806" x2="19.647958936102878" y2="70.4397689687809" stroke="black" stroke-width="1"/>
<line x1="19.647958936102878" y1="70.4397689687809" x2="19.647958936102878" y2="60.439768968780896" stroke="black" stroke-width="1"/>
<line x1="19.647958936102878" y1="60.439768968780896" x2="9.649481984538966" y2="60.61429303315373" stroke="black" stroke-width="1"/>
<line x1="9.649481984538966" y1="60.61429303315373" x2="9.998476951563976" y2="70.60820130334469" stroke="black" stroke-width="1"/>
<line x1="9.998476951563976" y1="70.60820130334469" x2="6.394884621840902e-14" y2="70.78272536771752" stroke="black" stroke-width="1"/>
<line x1="6.394884621840902e-14" y1="70.78272536771752" x2="6.394884621840902e-14" y2="60.78272536771752" stroke="black" stroke-width="1"/>
<line x1="6.394884621840902e-14" y1="60.78272536771752" x2="6.394884621840902e-14" y2="50.78272536771752" stroke="black" stroke-width="1"/>
<line x1="6.394884621840902e-14" y1="50.78272536771752" x2="9.998476951563976" y2="50.95724943209035" stroke="black" stroke-width="1"/>
<line x1="9.998476951563976" y1="50.95724943209035" x2="9.998476951563976" y2="40.95724943209035" stroke="black" stroke-width="1"/>
<line x1="9.998476951563976" y1="40.95724943209035" x2="6.394884621840902e-14" y2="41.13177349646318" stroke="black" stroke-width="1"/>
<line x1="6.394884621840902e-14" y1="41.13177349646318" x2="6.394884621840902e-14" y2="31.131773496463182" stroke="black" stroke-width="1"/>
<line x1="6.394884621840902e-14" y1="31.131773496463182" x2="6.394884621840902e-14" y2="21.131773496463182" stroke="black" stroke-width="1"/>
<line x1="6.394884621840902e-14" y1="21.131773496463182" x2="9.998476951563976" y2="21.306297560836015" stroke="black" stroke-width="1"/>
<line x1="9.998476951563976" y1="21.306297560836015" x2="9.649481984538967" y2="31.30020583102697" stroke="black" stroke-width="1"/>
<line x1="9.649481984538967" y1="31.30020583102697" x2="19.64795893610288" y2="31.474729895399804" stroke="black" stroke-width="1"/>
<line x1="19.64795893610288" y1="31.474729895399804" x2="29.646435887666794" y2="31.649253959772636" stroke="black" stroke-width="1"/>
<line x1="29.646435887666794" y1="31.649253959772636" x2="29.646435887666794" y2="21.649253959772636" stroke="black" stroke-width="1"/>
<line x1="29.646435887666794" y1="21.649253959772636" x2="19.64795893610288" y2="21.82377802414547" stroke="black" stroke-width="1"/>
<line x1="19.64795893610288" y1="21.82377802414547" x2="19.64795893610288" y2="11.823778024145469" stroke="black" stroke-width="1"/>
<line x1="19.64795893610288" y1="11.823778024145469" x2="29.646435887666794" y2="11.998302088518301" stroke="black" stroke-width="1"/>
<line x1="29.646435887666794" y1="11.998302088518301" x2="29.646435887666794" y2="1.998302088518301" stroke="black" stroke-width="1"/>
<line x1="29.646435887666794" y1="1.998302088518301" x2="19.64795893610288" y2="2.1728261528911332" stroke="black" stroke-width="1"/>
<line x1="19.64795893610288" y1="2.1728261528911332" x2="9.64948198453897" y2="2.3473502172639655" stroke="black" stroke-width="1"/>
<line x1="9.64948198453897" y1="2.3473502172639655" x2="9.99847695156398" y2="12.341258487454922" stroke="black" stroke-width="1"/>
<line x1="9.99847695156398" y1="12.341258487454922" x2="6.750155989720952e-14" y2="12.515782551827755" stroke="black" stroke-width="1"/>
<line x1="6.750155989720952e-14" y1="12.515782551827755" x2="6.750155989720952e-14" y2="2.515782551827755" stroke="black" stroke-width="1"/>
</svg>
