<svg width="311.7691453623979" height="270.0" xmlns="http://www.w3.org/2000/svg">
<line x1="233.82685902179847" y1="270.0" x2="233.82685902179847" y2="260.0" stroke="black" stroke-width="1"/>
<line x1="233.82685902179847" y1="260.0" x2="242.48711305964287" y2="255.0" stroke="black" stroke-width="1"/>
<line x1="242.48711305964287" y1="255.0" x2="233.82685902179847" y2="250.0" stroke="black" stroke-width="1"/>
<line x1="233.82685902179847" y1="250.0" x2="233.82685902179847" y2="240.0" stroke="black" stroke-width="1"/>
<line x1="233.82685902179847" y1="240.0" x2="242.48711305964287" y2="235.0" stroke="black" stroke-width="1"/>
<line x1="242.48711305964287" y1="235.0" x2="251.14736709748723" y2="240.0" stroke="black" stroke-width="1"/>
<line x1="251.14736709748723" y1="240.0" x2="251.14736709748723" y2="230.0" stroke="black" stroke-width="1"/>
<line x1="251.14736709748723" y1="230.0" x2="259.8076211353316" y2="225.0" stroke="black" stroke-width="1"/>
<line x1="259.8076211353316" y1="225.0" x2="251.14736709748723" y2="220.0" stroke="black" stroke-width="1"/>
<line x1="251.14736709748723" y1="220.0" x2="251.14736709748723" y2="210.0" stroke="black" stroke-width="1"/>
<line x1="251.14736709748723" y1="210.0" x2="242.48711305964287" y2="215.0" stroke="black" stroke-width="1"/>
<line x1="242.48711305964287" y1="215.0" x2="233.82685902179847" y2="210.0" stroke="black" stroke-width="1"/>
<line x1="233.82685902179847" y1="210.0" x2="233.82685902179847" y2="200.0" stroke="black" stroke-width="1"/>
<line x1="233.82685902179847" y1="200.0" x2="242.48711305964287" y2="195.0" stroke="black" stroke-width="1"/>
<line x1="242.48711305964287" y1="195.0" x2="233.82685902179847" y2="190.0" stroke="black" stroke-width="1"/>
<line x1="233.82685902179847" y1="190.0" x2="233.82685902179847" y2="180.0" stroke="black" stroke-width="1"/>
<line x1="233.82685902179847" y1="180.0" x2="242.48711305964287" y2="175.0" stroke="black" stroke-width="1"/>
<line x1="242.48711305964287" y1="175.0" x2="251.14736709748723" y2="180.0" stroke="black" stroke-width="1"/>
<line x1="251.14736709748723" y1="180.0" x2="251.14736709748723" y2="170.0" stroke="black" stroke-width="1"/>
<line x1="251.14736709748723" y1="170.0" x2="259.8076211353316" y2="165.0" stroke="black" stroke-width="1"/>
<line x1="259.8076211353316" y1="165.0" x2="268.467875173176" y2="170.0" stroke="black" stroke-width="1"/>
<line x1="268.467875173176" y1="170.0" x2="268.467875173176" y2="180.0" stroke="black" stroke-width="1"/>
<line x1="268.467875173176" y1="180.0" x2="277.1281292110204" y2="175.0" stroke="black" stroke-width="1"/>
<line x1="277.1281292110204" y1="175.0" x2="285.7883832488648" y2="180.0" stroke="black" stroke-width="1"/>
<line x1="285.7883832488648" y1="180.0" x2="285.7883832488648" y2="170.0" stroke="black" stroke-width="1"/>
<line x1="285.7883832488648" y1="170.0" x2="294.4486372867092" y2="165.0" stroke="black" stroke-width="1"/>
<line x1="294.4486372867092" y1="165.0" x2="285.7883832488648" y2="160.0" stroke="black" stroke-width="1"/>
<line x1="285.7883832488648" y1="160.0" x2="285.7883832488648" y2="150.0" stroke="black" stroke-width="1"/>
<line x1="285.7883832488648" y1="150.0" x2="294.4486372867092" y2="145.0" stroke="black" stroke-width="1"/>
<line x1="294.4486372867092" y1="145.0" x2="303.10889132455355" y2="150.0" stroke="black" stroke-width="1"/>
<line x1="303.10889132455355" y1="150.0" x2="303.10889132455355" y2="140.0" stroke="black" stroke-width="1"/>
<line x1="303.10889132455355" y1="140.0" x2="311.7691453623979" y2="135.0" stroke="black" stroke-width="1"/>
<line x1="311.7691453623979" y1="135.0" x2="303.10889132455355" y2="130.0" stroke="black" stroke-width="1"/>
<line x1="303.10889132455355" y1="130.0" x2="303.10889132455355" y2="120.0" stroke="black" stroke-width="1"/>
<line x1="303.10889132455355" y1="120.0" x2="294.4486372867092" y2="125.0" stroke="black" stroke-width="1"/>
<line x1="294.4486372867092" y1="125.0" x2="285.7883832488648" y2="120.0" stroke="black" stroke-width="1"/>
<line x1="285.7883832488648" y1="120.0" x2="285.7883832488648" y2="110.0" stroke="black" stroke-width="1"/>
<line x1="285.7883832488648" y1="110.0" x2="294.4486372867092" y2="105.0" stroke="black" stroke-width="1"/>
<line x1="294.4486372867092" y1="105.0" x2="285.7883832488648" y2="100.0" stroke="black" stroke-width="1"/>
<line x1="285.7883832488648" y1="100.0" x2="285.7883832488648" y2="90.0" stroke="black" stroke-width="1"/>
<line x1="285.7883832488648" y1="90.0" x2="277.12812921102045" y2="95.0" stroke="black" stroke-width="1"/>
<line x1="277.12812921102045" y1="95.0" x2="268.467875173176" y2="90.0" stroke="black" stroke-width="1"/>
<line x1="268.467875173176" y1="90.0" x2="268.467875173176" y2="100.0" stroke="black" stroke-width="1"/>
<line x1="268.467875173176" y1="100.0" x2="259.80762113533166" y2="105.0" stroke="black" stroke-width="1"/>
<line x1="259.80762113533166" y1="105.0" x2="251.14736709748726" y2="100.0" stroke="black" stroke-width="1"/>
<line x1="251.14736709748726" y1="100.0" x2="251.14736709748726" y2="90.0" stroke="black" stroke-width="1"/>
<line x1="251.14736709748726" y1="90.0" x2="242.4871130596429" y2="95.0" stroke="black" stroke-width="1"/>
<line x1="242.4871130596429" y1="95.0" x2="233.8268590217985" y2="90.0" stroke="black" stroke-width="1"/>
<line x1="233.8268590217985" y1="90.0" x2="233.8268590217985" y2="80.0" stroke="black" stroke-width="1"/>
<line x1="233.8268590217985" y1="80.0" x2="242.4871130596429" y2="75.0" stroke="black" stroke-width="1"/>
<line x1="242.4871130596429" y1="75.0" x2="233.8268590217985" y2="70.0" stroke="black" stroke-width="1"/>
<line x1="233.8268590217985" y1="70.0" x2="233.8268590217985" y2="60.0" stroke="black" stroke-width="1"/>
<line x1="233.8268590217985" y1="60.0" x2="242.4871130596429" y2="55.0" stroke="black" stroke-width="1"/>
<line x1="242.4871130596429" y1="55.0" x2="251.1473670974873" y2="60.0" stroke="black" stroke-width="1"/>
<line x1="251.1473670974873" y1="60.0" x2="251.1473670974873" y2="50.0" stroke="black" stroke-width="1"/>
<line x1="251.1473670974873" y1="50.0" x2="259.80762113533166" y2="45.0" stroke="black" stroke-width="1"/>
<line x1="259.80762113533166" y1="45.0" x2="251.1473670974873" y2="40.0" stroke="black" stroke-width="1"/>
<line x1="251.1473670974873" y1="40.0" x2="251.1473670974873" y2="30.0" stroke="black" stroke-width="1"/>
<line x1="251.1473670974873" y1="30.0" x2="242.4871130596429" y2="35.0" stroke="black" stroke-width="1"/>
<line x1="242.4871130596429" y1="35.0" x2="233.8268590217985" y2="30.0" stroke="black" stroke-width="1"/>
<line x1="233.8268590217985" y1="30.0" x2="233.8268590217985" y2="20.0" stroke="black" stroke-width="1"/>
<line x1="233.8268590217985" y1="20.0" x2="242.4871130596429" y2="15.0" stroke="black" stroke-width="1"/>
<line x1="242.4871130596429" y1="15.0" x2="233.8268590217985" y2="10.0" stroke="black" stroke-width="1"/>
<line x1="233.8268590217985" y1="10.0" x2="233.8268590217985" y2="0.0" stroke="black" stroke-width="1"/>
<line x1="233.8268590217985" y1="0.0" x2="225.16660498395413" y2="5.0" stroke="black" stroke-width="1"/>
<line x1="225.16660498395413" y1="5.0" x2="216.50635094610973" y2="0.0" stroke="black" stroke-width="1"/>
<line x1="216.50635094610973" y1="0.0" x2="216.50635094610973" y2="10.0" stroke="black" stroke-width="1"/>
<line x1="216.50635094610973" y1="10.0" x2="207.84609690826534" y2="15.0" stroke="black" stroke-width="1"/>
<line x1="207.84609690826534" y1="15.0" x2="199.18584287042097" y2="10.0" stroke="black" stroke-width="1"/>
<line x1="199.18584287042097" y1="10.0" x2="199.18584287042097" y2="0.0" stroke="black" stroke-width="1"/>
<line x1="199.18584287042097" y1="0.0" x2="190.5255888325766" y2="5.0" stroke="black" stroke-width="1"/>
<line x1="190.5255888325766" y1="5.0" x2="181.8653347947322" y2="0.0" stroke="black" stroke-width="1"/>
<line x1="181.8653347947322" y1="0.0" x2="181.8653347947322" y2="10.0" stroke="black" stroke-width="1"/>
<line x1="181.8653347947322" y1="10.0" x2="173.2050807568878" y2="15.0" stroke="black" stroke-width="1"/>
<line x1="173.2050807568878" y1="15.0" x2="181.8653347947322" y2="20.0" stroke="black" stroke-width="1"/>
<line x1="181.8653347947322" y1="20.0" x2="181.8653347947322" y2="30.0" stroke="black" stroke-width="1"/>
<line x1="181.8653347947322" y1="30.0" x2="173.20508075688784" y2="35.0" stroke="black" stroke-width="1"/>
<line x1="173.20508075688784" y1="35.0" x2="164.54482671904344" y2="30.0" stroke="black" stroke-width="1"/>
<line x1="164.54482671904344" y1="30.0" x2="164.54482671904344" y2="40.0" stroke="black" stroke-width="1"/>
<line x1="164.54482671904344" y1="40.0" x2="155.88457268119907" y2="45.0" stroke="black" stroke-width="1"/>
<line x1="155.88457268119907" y1="45.0" x2="147.22431864335468" y2="40.0" stroke="black" stroke-width="1"/>
<line x1="147.22431864335468" y1="40.0" x2="147.22431864335468" y2="30.0" stroke="black" stroke-width="1"/>
<line x1="147.22431864335468" y1="30.0" x2="138.56406460551028" y2="35.0" stroke="black" stroke-width="1"/>
<line x1="138.56406460551028" y1="35.0" x2="129.90381056766591" y2="30.0" stroke="black" stroke-width="1"/>
<line x1="129.90381056766591" y1="30.0" x2="129.90381056766591" y2="20.0" stroke="black" stroke-width="1"/>
<line x1="129.90381056766591" y1="20.0" x2="138.56406460551028" y2="15.0" stroke="black" stroke-width="1"/>
<line x1="138.56406460551028" y1="15.0" x2="129.90381056766591" y2="10.0" stroke="black" stroke-width="1"/>
<line x1="129.90381056766591" y1="10.0" x2="129.90381056766591" y2="0.0" stroke="black" stroke-width="1"/>
<line x1="129.90381056766591" y1="0.0" x2="121.24355652982153" y2="5.0" stroke="black" stroke-width="1"/>
<line x1="121.24355652982153" y1="5.0" x2="112.58330249197715" y2="0.0" stroke="black" stroke-width="1"/>
<line x1="112.58330249197715" y1="0.0" x2="112.58330249197715" y2="10.0" stroke="black" stroke-width="1"/>
<line x1="112.58330249197715" y1="10.0" x2="103.92304845413275" y2="15.0" stroke="black" stroke-width="1"/>
<line x1="103.92304845413275" y1="15.0" x2="95.26279441628836" y2="10.0" stroke="black" stroke-width="1"/>
<line x1="95.26279441628836" y1="10.0" x2="95.26279441628836" y2="0.0" stroke="black" stroke-width="1"/>
<line x1="95.26279441628836" y1="0.0" x2="86.60254037844396" y2="5.0" stroke="black" stroke-width="1"/>
<line x1="86.60254037844396" y1="5.0" x2="77.94228634059957" y2="0.0" stroke="black" stroke-width="1"/>
<line x1="77.94228634059957" y1="0.0" x2="77.94228634059957" y2="10.0" stroke="black" stroke-width="1"/>
<line x1="77.94228634059957" y1="10.0" x2="69.28203230275517" y2="15.0" stroke="black" stroke-width="1"/>
<line x1="69.28203230275517" y1="15.0" x2="77.94228634059957" y2="20.0" stroke="black" stroke-width="1"/>
<line x1="77.94228634059957" y1="20.0" x2="77.94228634059957" y2="30.0" stroke="black" stroke-width="1"/>
<line x1="77.94228634059957" y1="30.0" x2="69.28203230275517" y2="35.0" stroke="black" stroke-width="1"/>
<line x1="69.28203230275517" y1="35.0" x2="60.62177826491077" y2="30.0" stroke="black" stroke-width="1"/>
<line x1="60.62177826491077" y1="30.0" x2="60.62177826491077" y2="40.0" stroke="black" stroke-width="1"/>
<line x1="60.62177826491077" y1="40.0" x2="51.96152422706638" y2="45.0" stroke="black" stroke-width="1"/>
<line x1="51.96152422706638" y1="45.0" x2="60.62177826491077" y2="50.0" stroke="black" stroke-width="1"/>
<line x1="60.62177826491077" y1="50.0" x2="60.62177826491077" y2="60.0" stroke="black" stroke-width="1"/>
<line x1="60.62177826491077" y1="60.0" x2="69.28203230275517" y2="55.0" stroke="black" stroke-width="1"/>
<line x1="69.28203230275517" y1="55.0" x2="77.94228634059957" y2="60.0" stroke="black" stroke-width="1"/>
<line x1="77.94228634059957" y1="60.0" x2="77.94228634059957" y2="70.0" stroke="black" stroke-width="1"/>
<line x1="77.94228634059957" y1="70.0" x2="69.28203230275517" y2="75.0" stroke="black" stroke-width="1"/>
<line x1="69.28203230275517" y1="75.0" x2="77.94228634059957" y2="80.0" stroke="black" stroke-width="1"/>
<line x1="77.94228634059957" y1="80.0" x2="77.94228634059957" y2="90.0" stroke="black" stroke-width="1"/>
<line x1="77.94228634059957" y1="90.0" x2="69.28203230275517" y2="95.0" stroke="black" stroke-width="1"/>
<line x1="69.28203230275517" y1="95.0" x2="60.62177826491077" y2="90.0" stroke="black" stroke-width="1"/>
<line x1="60.62177826491077" y1="90.0" x2="60.62177826491077" y2="100.0" stroke="black" stroke-width="1"/>
<line x1="60.62177826491077" y1="100.0" x2="51.96152422706638" y2="105.0" stroke="black" stroke-width="1"/>
<line x1="51.96152422706638" y1="105.0" x2="43.30127018922198" y2="100.0" stroke="black" stroke-width="1"/>
<line x1="43.30127018922198" y1="100.0" x2="43.30127018922198" y2="90.0" stroke="black" stroke-width="1"/>
<line x1="43.30127018922198" y1="90.0" x2="34.641016151377585" y2="95.0" stroke="black" stroke-width="1"/>
<line x1="34.641016151377585" y1="95.0" x2="25.98076211353319" y2="90.0" stroke="black" stroke-width="1"/>
<line x1="25.98076211353319" y1="90.0" x2="25.98076211353319" y2="100.0" stroke="black" stroke-width="1"/>
<line x1="25.98076211353319" y1="100.0" x2="17.320508075688792" y2="105.0" stroke="black" stroke-width="1"/>
<line x1="17.320508075688792" y1="105.0" x2="25.98076211353319" y2="110.0" stroke="black" stroke-width="1"/>
<line x1="25.98076211353319" y1="110.0" x2="25.98076211353319" y2="120.0" stroke="black" stroke-width="1"/>
<line x1="25.98076211353319" y1="120.0" x2="17.320508075688792" y2="125.0" stroke="black" stroke-width="1"/>
<line x1="17.320508075688792" y1="125.0" x2="8.660254037844396" y2="120.0" stroke="black" stroke-width="1"/>
<line x1="8.660254037844396" y1="120.0" x2="8.660254037844396" y2="130.0" stroke="black" stroke-width="1"/>
<line x1="8.660254037844396" y1="130.0" x2="0.0" y2="135.0" stroke="black" stroke-width="1"/>
<line x1="0.0" y1="135.0" x2="8.660254037844396" y2="140.0" stroke="black" stroke-width="1"/>
<line x1="8.660254037844396" y1="140.0" x2="8.660254037844396" y2="150.0" stroke="black" stroke-width="1"/>
<line x1="8.660254037844396" y1="150.0" x2="17.320508075688792" y2="145.0" stroke="black" stroke-width="1"/>
<line x1="17.320508075688792" y1="145.0" x2="25.98076211353319" y2="150.0" stroke="black" stroke-width="1"/>
<line x1="25.98076211353319" y1="150.0" x2="25.98076211353319" y2="160.0" stroke="black" stroke-width="1"/>
<line x1="25.98076211353319" y1="160.0" x2="17.320508075688792" y2="165.0" stroke="black" stroke-width="1"/>
<line x1="17.320508075688792" y1="165.0" x2="25.98076211353319" y2="170.0" stroke="black" stroke-width="1"/>
<line x1="25.98076211353319" y1="170.0" x2="25.98076211353319" y2="180.0" stroke="black" stroke-width="1"/>
<line x1="25.98076211353319" y1="180.0" x2="34.641016151377585" y2="175.0" stroke="black" stroke-width="1"/>
<line x1="34.641016151377585" y1="175.0" x2="43.30127018922198" y2="180.0" stroke="black" stroke-width="1"/>
<line x1="43.30127018922198" y1="180.0" x2="43.30127018922198" y2="170.0" stroke="black" stroke-width="1"/>
<line x1="43.30127018922198" y1="170.0" x2="51.96152422706638" y2="165.0" stroke="black" stroke-width="1"/>
<line x1="51.96152422706638" y1="165.0" x2="60.62177826491077" y2="170.0" stroke="black" stroke-width="1"/>
<line x1="60.62177826491077" y1="170.0" x2="60.62177826491077" y2="180.0" stroke="black" stroke-width="1"/>
<line x1="60.62177826491077" y1="180.0" x2="69.28203230275517" y2="175.0" stroke="black" stroke-width="1"/>
<line x1="69.28203230275517" y1="175.0" x2="77.94228634059957" y2="180.0" stroke="black" stroke-width="1"/>
<line x1="77.94228634059957" y1="180.0" x2="77.94228634059957" y2="190.0" stroke="black" stroke-width="1"/>
<line x1="77.94228634059957" y1="190.0" x2="69.28203230275517" y2="195.0" stroke="black" stroke-width="1"/>
<line x1="69.28203230275517" y1="195.0" x2="77.94228634059957" y2="200.0" stroke="black" stroke-width="1"/>
<line x1="77.94228634059957" y1="200.0" x2="77.94228634059957" y2="210.0" stroke="black" stroke-width="1"/>
<line x1="77.94228634059957" y1="210.0" x2="69.28203230275517" y2="215.0" stroke="black" stroke-width="1"/>
<line x1="69.28203230275517" y1="215.0" x2="60.62177826491077" y2="210.0" stroke="black" stroke-width="1"/>
<line x1="60.62177826491077" y1="210.0" x2="60.62177826491077" y2="220.0" stroke="black" stroke-width="1"/>
<line x1="60.62177826491077" y1="220.0" x2="51.96152422706638" y2="225.0" stroke="black" stroke-width="1"/>
<line x1="51.96152422706638" y1="225.0" x2="60.62177826491077" y2="230.0" stroke="black" stroke-width="1"/>
<line x1="60.62177826491077" y1="230.0" x2="60.62177826491077" y2="240.0" stroke="black" stroke-width="1"/>
<line x1="60.62177826491077" y1="240.0" x2="69.28203230275517" y2="235.0" stroke="black" stroke-width="1"/>
<line x1="69.28203230275517" y1="235.0" x2="77.94228634059957" y2="240.0" stroke="black" stroke-width="1"/>
<line x1="77.94228634059957" y1="240.0" x2="77.94228634059957" y2="250.0" stroke="black" stroke-width="1"/>
<line x1="77.94228634059957" y1="250.0" x2="69.28203230275517" y2="255.00000000000003" stroke="black" stroke-width="1"/>
<line x1="69.28203230275517" y1="255.00000000000003" x2="77.94228634059957" y2="260.0" stroke="black" stroke-width="1"/>
<line x1="77.94228634059957" y1="260.0" x2="77.94228634059957" y2="270.0" stroke="black" stroke-width="1"/>
<line x1="77.94228634059957" y1="270.0" x2="86.60254037844396" y2="265.0" stroke="black" stroke-width="1"/>
<line x1="86.60254037844396" y1="265.0" x2="95.26279441628836" y2="270.0" stroke="black" stroke-width="1"/>
<line x1="95.26279441628836" y1="270.0" x2="95.26279441628836" y2="260.0" stroke="black" stroke-width="1"/>
<line x1="95.26279441628836" y1="260.0" x2="103.92304845413275" y2="255.0" stroke="black" stroke-width="1"/>
<line x1="103.92304845413275" y1="255.0" x2="112.58330249197714" y2="260.0" stroke="black" stroke-width="1"/>
<line x1="112.58330249197714" y1="260.0" x2="112.58330249197714" y2="270.0" stroke="black" stroke-width="1"/>
<line x1="112.58330249197714" y1="270.0" x2="121.24355652982152" y2="265.0" stroke="black" stroke-width="1"/>
<line x1="121.24355652982152" y1="265.0" x2="129.90381056766591" y2="270.0" stroke="black" stroke-width="1"/>
<line x1="129.90381056766591" y1="270.0" x2="129.90381056766591" y2="260.0" stroke="black" stroke-width="1"/>
<line x1="129.90381056766591" y1="260.0" x2="138.56406460551028" y2="255.0" stroke="black" stroke-width="1"/>
<line x1="138.56406460551028" y1="255.0" x2="129.90381056766591" y2="250.0" stroke="black" stroke-width="1"/>
<line x1="129.90381056766591" y1="250.0" x2="129.90381056766591" y2="240.0" stroke="black" stroke-width="1"/>
<line x1="129.90381056766591" y1="240.0" x2="138.56406460551028" y2="235.0" stroke="black" stroke-width="1"/>
<line x1="138.56406460551028" y1="235.0" x2="147.22431864335465" y2="240.0" stroke="black" stroke-width="1"/>
<line x1="147.22431864335465" y1="240.0" x2="147.22431864335465" y2="230.0" stroke="black" stroke-width="1"/>
<line x1="147.22431864335465" y1="230.0" x2="155.88457268119905" y2="225.0" stroke="black" stroke-width="1"/>
<line x1="155.88457268119905" y1="225.0" x2="164.54482671904344" y2="230.0" stroke="black" stroke-width="1"/>
<line x1="164.54482671904344" y1="230.0" x2="164.54482671904344" y2="240.0" stroke="black" stroke-width="1"/>
<line x1="164.54482671904344" y1="240.0" x2="173.2050807568878" y2="235.0" stroke="black" stroke-width="1"/>
<line x1="173.2050807568878" y1="235.0" x2="181.8653347947322" y2="240.0" stroke="black" stroke-width="1"/>
<line x1="181.8653347947322" y1="240.0" x2="181.8653347947322" y2="250.0" stroke="black" stroke-width="1"/>
<line x1="181.8653347947322" y1="250.0" x2="173.2050807568878" y2="255.0" stroke="black" stroke-width="1"/>
<line x1="173.2050807568878" y1="255.0" x2="181.8653347947322" y2="260.0" stroke="black" stroke-width="1"/>
<line x1="181.8653347947322" y1="260.0" x2="181.8653347947322" y2="270.0" stroke="black" stroke-width="1"/>
<line x1="181.8653347947322" y1="270.0" x2="190.5255888325766" y2="265.0" stroke="black" stroke-width="1"/>
<line x1="190.5255888325766" y1="265.0" x2="199.18584287042097" y2="270.0" stroke="black" stroke-width="1"/>
<line x1="199.18584287042097" y1="270.0" x2="199.18584287042097" y2="260.0" stroke="black" stroke-width="1"/>
<line x1="199.18584287042097" y1="260.0" x2="207.84609690826537" y2="255.0" stroke="black" stroke-width="1"/>
<line x1="207.84609690826537" y1="255.0" x2="216.50635094610976" y2="260.0" stroke="black" stroke-width="1"/>
<line x1="216.50635094610976" y1="260.0" x2="216.50635094610976" y2="270.0" stroke="black" stroke-width="1"/>
<line x1="216.50635094610976" y1="270.0" x2="225.16660498395413" y2="265.0" stroke="black" stroke-width="1"/>
<line x1="225.16660498395413" y1="265.0" x2="233.82685902179853" y2="270.0" stroke="black" stroke-width="1"/>
</svg>
