<svg width="935.3074360871941" height="810.0" xmlns="http://www.w3.org/2000/svg">
<line x1="701.4805770653956" y1="810.0" x2="701.4805770653956" y2="800.0" stroke="black" stroke-width="1"/>
<line x1="701.4805770653956" y1="800.0" x2="710.14083110324" y2="795.0" stroke="black" stroke-width="1"/>
<line x1="710.14083110324" y1="795.0" x2="701.4805770653956" y2="790.0" stroke="black" stroke-width="1"/>
<line x1="701.4805770653956" y1="790.0" x2="701.4805770653956" y2="780.0" stroke="black" stroke-width="1"/>
<line x1="701.4805770653956" y1="780.0" x2="710.14083110324" y2="775.0" stroke="black" stroke-width="1"/>
<line x1="710.14083110324" y1="775.0" x2="718.8010851410843" y2="780.0" stroke="black" stroke-width="1"/>
<line x1="718.8010851410843" y1="780.0" x2="718.8010851410843" y2="770.0" stroke="black" stroke-width="1"/>
<line x1="718.8010851410843" y1="770.0" x2="727.4613391789287" y2="765.0" stroke="black" stroke-width="1"/>
<line x1="727.4613391789287" y1="765.0" x2="718.8010851410843" y2="760.0" stroke="black" stroke-width="1"/>
<line x1="718.8010851410843" y1="760.0" x2="718.8010851410843" y2="750.0" stroke="black" stroke-width="1"/>
<line x1="718.8010851410843" y1="750.0" x2="710.14083110324" y2="755.0" stroke="black" stroke-width="1"/>
<line x1="710.14083110324" y1="755.0" x2="701.4805770653956" y2="750.0" stroke="black" stroke-width="1"/>
<line x1="701.4805770653956" y1="750.0" x2="701.4805770653956" y2="740.0" stroke="black" stroke-width="1"/>
<line x1="701.4805770653956" y1="740.0" x2="710.14083110324" y2="735.0" stroke="black" stroke-width="1"/>
<line x1="710.14083110324" y1="735.0" x2="701.4805770653956" y2="730.0" stroke="black" stroke-width="1"/>
<line x1="701.4805770653956" y1="730.0" x2="701.4805770653956" y2="720.0" stroke="black" stroke-width="1"/>
<line x1="701.4805770653956" y1="720.0" x2="710.14083110324" y2="715.0" stroke="black" stroke-width="1"/>
<line x1="710.14083110324" y1="715.0" x2="718.8010851410843" y2="720.0" stroke="black" stroke-width="1"/>
<line x1="718.8010851410843" y1="720.0" x2="718.8010851410843" y2="710.0" stroke="black" stroke-width="1"/>
<line x1="718.8010851410843" y1="710.0" x2="727.4613391789287" y2="705.0" stroke="black" stroke-width="1"/>
<line x1="727.4613391789287" y1="705.0" x2="736.1215932167731" y2="710.0" stroke="black" stroke-width="1"/>
<line x1="736.1215932167731" y1="710.0" x2="736.1215932167731" y2="720.0" stroke="black" stroke-width="1"/>
<line x1="736.1215932167731" y1="720.0" x2="744.7818472546174" y2="715.0" stroke="black" stroke-width="1"/>
<line x1="744.7818472546174" y1="715.0" x2="753.4421012924619" y2="720.0" stroke="black" stroke-width="1"/>
<line x1="753.4421012924619" y1="720.0" x2="753.4421012924619" y2="710.0" stroke="black" stroke-width="1"/>
<line x1="753.4421012924619" y1="710.0" x2="762.1023553303063" y2="705.0" stroke="black" stroke-width="1"/>
<line x1="762.1023553303063" y1="705.0" x2="753.4421012924619" y2="700.0" stroke="black" stroke-width="1"/>
<line x1="753.4421012924619" y1="700.0" x2="753.4421012924619" y2="690.0" stroke="black" stroke-width="1"/>
<line x1="753.4421012924619" y1="690.0" x2="762.1023553303063" y2="685.0" stroke="black" stroke-width="1"/>
<line x1="762.1023553303063" y1="685.0" x2="770.7626093681506" y2="690.0" stroke="black" stroke-width="1"/>
<line x1="770.7626093681506" y1="690.0" x2="770.7626093681506" y2="680.0" stroke="black" stroke-width="1"/>
<line x1="770.7626093681506" y1="680.0" x2="779.422863405995" y2="675.0" stroke="black" stroke-width="1"/>
<line x1="779.422863405995" y1="675.0" x2="770.7626093681506" y2="670.0" stroke="black" stroke-width="1"/>
<line x1="770.7626093681506" y1="670.0" x2="770.7626093681506" y2="660.0" stroke="black" stroke-width="1"/>
<line x1="770.7626093681506" y1="660.0" x2="762.1023553303063" y2="665.0" stroke="black" stroke-width="1"/>
<line x1="762.1023553303063" y1="665.0" x2="753.4421012924619" y2="660.0" stroke="black" stroke-width="1"/>
<line x1="753.4421012924619" y1="660.0" x2="753.4421012924619" y2="650.0" stroke="black" stroke-width="1"/>
<line x1="753.4421012924619" y1="650.0" x2="762.1023553303063" y2="645.0" stroke="black" stroke-width="1"/>
<line x1="762.1023553303063" y1="645.0" x2="753.4421012924619" y2="640.0" stroke="black" stroke-width="1"/>
<line x1="753.4421012924619" y1="640.0" x2="753.4421012924619" y2="630.0" stroke="black" stroke-width="1"/>
<line x1="753.4421012924619" y1="630.0" x2="744.7818472546176" y2="635.0" stroke="black" stroke-width="1"/>
<line x1="744.7818472546176" y1="635.0" x2="736.1215932167731" y2="630.0" stroke="black" stroke-width="1"/>
<line x1="736.1215932167731" y1="630.0" x2="736.1215932167731" y2="640.0" stroke="black" stroke-width="1"/>
<line x1="736.1215932167731" y1="640.0" x2="727.4613391789287" y2="645.0" stroke="black" stroke-width="1"/>
<line x1="727.4613391789287" y1="645.0" x2="718.8010851410844" y2="640.0" stroke="black" stroke-width="1"/>
<line x1="718.8010851410844" y1="640.0" x2="718.8010851410844" y2="630.0" stroke="black" stroke-width="1"/>
<line x1="718.8010851410844" y1="630.0" x2="710.14083110324" y2="635.0" stroke="black" stroke-width="1"/>
<line x1="710.14083110324" y1="635.0" x2="701.4805770653956" y2="630.0" stroke="black" stroke-width="1"/>
<line x1="701.4805770653956" y1="630.0" x2="701.4805770653956" y2="620.0" stroke="black" stroke-width="1"/>
<line x1="701.4805770653956" y1="620.0" x2="710.14083110324" y2="615.0" stroke="black" stroke-width="1"/>
<line x1="710.14083110324" y1="615.0" x2="701.4805770653956" y2="610.0" stroke="black" stroke-width="1"/>
<line x1="701.4805770653956" y1="610.0" x2="701.4805770653956" y2="600.0" stroke="black" stroke-width="1"/>
<line x1="701.4805770653956" y1="600.0" x2="710.14083110324" y2="595.0" stroke="black" stroke-width="1"/>
<line x1="710.14083110324" y1="595.0" x2="718.8010851410844" y2="600.0" stroke="black" stroke-width="1"/>
<line x1="718.8010851410844" y1="600.0" x2="718.8010851410844" y2="590.0" stroke="black" stroke-width="1"/>
<line x1="718.8010851410844" y1="590.0" x2="727.4613391789287" y2="585.0" stroke="black" stroke-width="1"/>
<line x1="727.4613391789287" y1="585.0" x2="718.8010851410844" y2="580.0" stroke="black" stroke-width="1"/>
<line x1="718.8010851410844" y1="580.0" x2="718.8010851410844" y2="570.0" stroke="black" stroke-width="1"/>
<line x1="718.8010851410844" y1="570.0" x2="710.14083110324" y2="575.0" stroke="black" stroke-width="1"/>
<line x1="710.14083110324" y1="575.0" x2="701.4805770653956" y2="570.0" stroke="black" stroke-width="1"/>
<line x1="701.4805770653956" y1="570.0" x2="701.4805770653956" y2="560.0" stroke="black" stroke-width="1"/>
<line x1="701.4805770653956" y1="560.0" x2="710.14083110324" y2="555.0" stroke="black" stroke-width="1"/>
<line x1="710.14083110324" y1="555.0" x2="701.4805770653956" y2="550.0" stroke="black" stroke-width="1"/>
<line x1="701.4805770653956" y1="550.0" x2="701.4805770653956" y2="540.0" stroke="black" stroke-width="1"/>
<line x1="701.4805770653956" y1="540.0" x2="710.14083110324" y2="535.0" stroke="black" stroke-width="1"/>
<line x1="710.14083110324" y1="535.0" x2="718.8010851410844" y2="540.0" stroke="black" stroke-width="1"/>
<line x1="718.8010851410844" y1="540.0" x2="718.8010851410844" y2="530.0" stroke="black" stroke-width="1"/>
<line x1="718.8010851410844" y1="530.0" x2="727.4613391789287" y2="525.0" stroke="black" stroke-width="1"/>
<line x1="727.4613391789287" y1="525.0" x2="736.1215932167731" y2="530.0" stroke="black" stroke-width="1"/>
<line x1="736.1215932167731" y1="530.0" x2="736.1215932167731" y2="540.0" stroke="black" stroke-width="1"/>
<line x1="736.1215932167731" y1="540.0" x2="744.7818472546176" y2="535.0" stroke="black" stroke-width="1"/>
<line x1="744.7818472546176" y1="535.0" x2="753.4421012924619" y2="540.0" stroke="black" stroke-width="1"/>
<line x1="753.4421012924619" y1="540.0" x2="753.4421012924619" y2="530.0" stroke="black" stroke-width="1"/>
<line x1="753.4421012924619" y1="530.0" x2="762.1023553303063" y2="525.0" stroke="black" stroke-width="1"/>
<line x1="762.1023553303063" y1="525.0" x2="753.4421012924619" y2="520.0" stroke="black" stroke-width="1"/>
<line x1="753.4421012924619" y1="520.0" x2="753.4421012924619" y2="510.0" stroke="black" stroke-width="1"/>
<line x1="753.4421012924619" y1="510.0" x2="762.1023553303063" y2="505.0" stroke="black" stroke-width="1"/>
<line x1="762.1023553303063" y1="505.0" x2="770.7626093681507" y2="510.0" stroke="black" stroke-width="1"/>
<line x1="770.7626093681507" y1="510.0" x2="770.7626093681507" y2="500.0" stroke="black" stroke-width="1"/>
<line x1="770.7626093681507" y1="500.0" x2="779.422863405995" y2="495.0" stroke="black" stroke-width="1"/>
<line x1="779.422863405995" y1="495.0" x2="788.0831174438395" y2="500.0" stroke="black" stroke-width="1"/>
<line x1="788.0831174438395" y1="500.0" x2="788.0831174438395" y2="510.0" stroke="black" stroke-width="1"/>
<line x1="788.0831174438395" y1="510.0" x2="796.7433714816839" y2="505.0" stroke="black" stroke-width="1"/>
<line x1="796.7433714816839" y1="505.0" x2="805.4036255195282" y2="510.0" stroke="black" stroke-width="1"/>
<line x1="805.4036255195282" y1="510.0" x2="805.4036255195282" y2="520.0" stroke="black" stroke-width="1"/>
<line x1="805.4036255195282" y1="520.0" x2="796.7433714816839" y2="525.0" stroke="black" stroke-width="1"/>
<line x1="796.7433714816839" y1="525.0" x2="805.4036255195282" y2="530.0" stroke="black" stroke-width="1"/>
<line x1="805.4036255195282" y1="530.0" x2="805.4036255195282" y2="540.0" stroke="black" stroke-width="1"/>
<line x1="805.4036255195282" y1="540.0" x2="814.0638795573726" y2="535.0" stroke="black" stroke-width="1"/>
<line x1="814.0638795573726" y1="535.0" x2="822.7241335952169" y2="540.0" stroke="black" stroke-width="1"/>
<line x1="822.7241335952169" y1="540.0" x2="822.7241335952169" y2="530.0" stroke="black" stroke-width="1"/>
<line x1="822.7241335952169" y1="530.0" x2="831.3843876330614" y2="525.0" stroke="black" stroke-width="1"/>
<line x1="831.3843876330614" y1="525.0" x2="840.0446416709058" y2="530.0" stroke="black" stroke-width="1"/>
<line x1="840.0446416709058" y1="530.0" x2="840.0446416709058" y2="540.0" stroke="black" stroke-width="1"/>
<line x1="840.0446416709058" y1="540.0" x2="848.7048957087502" y2="535.0" stroke="black" stroke-width="1"/>
<line x1="848.7048957087502" y1="535.0" x2="857.3651497465945" y2="540.0" stroke="black" stroke-width="1"/>
<line x1="857.3651497465945" y1="540.0" x2="857.3651497465945" y2="530.0" stroke="black" stroke-width="1"/>
<line x1="857.3651497465945" y1="530.0" x2="866.0254037844389" y2="525.0" stroke="black" stroke-width="1"/>
<line x1="866.0254037844389" y1="525.0" x2="857.3651497465945" y2="520.0" stroke="black" stroke-width="1"/>
<line x1="857.3651497465945" y1="520.0" x2="857.3651497465945" y2="510.0" stroke="black" stroke-width="1"/>
<line x1="857.3651497465945" y1="510.0" x2="866.0254037844389" y2="505.0" stroke="black" stroke-width="1"/>
<line x1="866.0254037844389" y1="505.0" x2="874.6856578222834" y2="510.0" stroke="black" stroke-width="1"/>
<line x1="874.6856578222834" y1="510.0" x2="874.6856578222834" y2="500.0" stroke="black" stroke-width="1"/>
<line x1="874.6856578222834" y1="500.0" x2="883.3459118601277" y2="495.0" stroke="black" stroke-width="1"/>
<line x1="883.3459118601277" y1="495.0" x2="874.6856578222834" y2="490.0" stroke="black" stroke-width="1"/>
<line x1="874.6856578222834" y1="490.0" x2="874.6856578222834" y2="480.0" stroke="black" stroke-width="1"/>
<line x1="874.6856578222834" y1="480.0" x2="866.0254037844389" y2="485.0" stroke="black" stroke-width="1"/>
<line x1="866.0254037844389" y1="485.0" x2="857.3651497465945" y2="480.0" stroke="black" stroke-width="1"/>
<line x1="857.3651497465945" y1="480.0" x2="857.3651497465945" y2="470.0" stroke="black" stroke-width="1"/>
<line x1="857.3651497465945" y1="470.0" x2="866.0254037844389" y2="465.0" stroke="black" stroke-width="1"/>
<line x1="866.0254037844389" y1="465.0" x2="857.3651497465945" y2="460.0" stroke="black" stroke-width="1"/>
<line x1="857.3651497465945" y1="460.0" x2="857.3651497465945" y2="450.0" stroke="black" stroke-width="1"/>
<line x1="857.3651497465945" y1="450.0" x2="866.0254037844389" y2="445.0" stroke="black" stroke-width="1"/>
<line x1="866.0254037844389" y1="445.0" x2="874.6856578222834" y2="450.0" stroke="black" stroke-width="1"/>
<line x1="874.6856578222834" y1="450.0" x2="874.6856578222834" y2="440.0" stroke="black" stroke-width="1"/>
<line x1="874.6856578222834" y1="440.0" x2="883.3459118601277" y2="435.0" stroke="black" stroke-width="1"/>
<line x1="883.3459118601277" y1="435.0" x2="892.0061658979721" y2="440.0" stroke="black" stroke-width="1"/>
<line x1="892.0061658979721" y1="440.0" x2="892.0061658979721" y2="450.0" stroke="black" stroke-width="1"/>
<line x1="892.0061658979721" y1="450.0" x2="900.6664199358165" y2="445.0" stroke="black" stroke-width="1"/>
<line x1="900.6664199358165" y1="445.0" x2="909.326673973661" y2="450.0" stroke="black" stroke-width="1"/>
<line x1="909.326673973661" y1="450.0" x2="909.326673973661" y2="440.0" stroke="black" stroke-width="1"/>
<line x1="909.326673973661" y1="440.0" x2="917.9869280115054" y2="435.0" stroke="black" stroke-width="1"/>
<line x1="917.9869280115054" y1="435.0" x2="909.326673973661" y2="430.0" stroke="black" stroke-width="1"/>
<line x1="909.326673973661" y1="430.0" x2="909.326673973661" y2="420.0" stroke="black" stroke-width="1"/>
<line x1="909.326673973661" y1="420.0" x2="917.9869280115054" y2="415.0" stroke="black" stroke-width="1"/>
<line x1="917.9869280115054" y1="415.0" x2="926.6471820493497" y2="420.0" stroke="black" stroke-width="1"/>
<line x1="926.6471820493497" y1="420.0" x2="926.6471820493497" y2="410.0" stroke="black" stroke-width="1"/>
<line x1="926.6471820493497" y1="410.0" x2="935.3074360871941" y2="405.0" stroke="black" stroke-width="1"/>
<line x1="935.3074360871941" y1="405.0" x2="926.6471820493497" y2="400.0" stroke="black" stroke-width="1"/>
<line x1="926.6471820493497" y1="400.0" x2="926.6471820493497" y2="390.0" stroke="black" stroke-width="1"/>
<line x1="926.6471820493497" y1="390.0" x2="917.9869280115054" y2="395.0" stroke="black" stroke-width="1"/>
<line x1="917.9869280115054" y1="395.0" x2="909.326673973661" y2="390.0" stroke="black" stroke-width="1"/>
<line x1="909.326673973661" y1="390.0" x2="909.326673973661" y2="380.0" stroke="black" stroke-width="1"/>
<line x1="909.326673973661" y1="380.0" x2="917.9869280115054" y2="375.0" stroke="black" stroke-width="1"/>
<line x1="917.9869280115054" y1="375.0" x2="909.326673973661" y2="370.0" stroke="black" stroke-width="1"/>
<line x1="909.326673973661" y1="370.0" x2="909.326673973661" y2="360.0" stroke="black" stroke-width="1"/>
<line x1="909.326673973661" y1="360.0" x2="900.6664199358165" y2="365.0" stroke="black" stroke-width="1"/>
<line x1="900.6664199358165" y1="365.0" x2="892.0061658979721" y2="360.0" stroke="black" stroke-width="1"/>
<line x1="892.0061658979721" y1="360.0" x2="892.0061658979721" y2="370.0" stroke="black" stroke-width="1"/>
<line x1="892.0061658979721" y1="370.0" x2="883.3459118601277" y2="375.0" stroke="black" stroke-width="1"/>
<line x1="883.3459118601277" y1="375.0" x2="874.6856578222834" y2="370.0" stroke="black" stroke-width="1"/>
<line x1="874.6856578222834" y1="370.0" x2="874.6856578222834" y2="360.0" stroke="black" stroke-width="1"/>
<line x1="874.6856578222834" y1="360.0" x2="866.0254037844389" y2="365.0" stroke="black" stroke-width="1"/>
<line x1="866.0254037844389" y1="365.0" x2="857.3651497465945" y2="360.0" stroke="black" stroke-width="1"/>
<line x1="857.3651497465945" y1="360.0" x2="857.3651497465945" y2="350.0" stroke="black" stroke-width="1"/>
<line x1="857.3651497465945" y1="350.0" x2="866.0254037844389" y2="345.0" stroke="black" stroke-width="1"/>
<line x1="866.0254037844389" y1="345.0" x2="857.3651497465945" y2="340.0" stroke="black" stroke-width="1"/>
<line x1="857.3651497465945" y1="340.0" x2="857.3651497465945" y2="330.0" stroke="black" stroke-width="1"/>
<line x1="857.3651497465945" y1="330.0" x2="866.0254037844389" y2="325.0" stroke="black" stroke-width="1"/>
<line x1="866.0254037844389" y1="325.0" x2="874.6856578222834" y2="330.0" stroke="black" stroke-width="1"/>
<line x1="874.6856578222834" y1="330.0" x2="874.6856578222834" y2="320.0" stroke="black" stroke-width="1"/>
<line x1="874.6856578222834" y1="320.0" x2="883.3459118601277" y2="315.0" stroke="black" stroke-width="1"/>
<line x1="883.3459118601277" y1="315.0" x2="874.6856578222834" y2="310.0" stroke="black" stroke-width="1"/>
<line x1="874.6856578222834" y1="310.0" x2="874.6856578222834" y2="300.0" stroke="black" stroke-width="1"/>
<line x1="874.6856578222834" y1="300.0" x2="866.0254037844389" y2="305.0" stroke="black" stroke-width="1"/>
<line x1="866.0254037844389" y1="305.0" x2="857.3651497465945" y2="300.0" stroke="black" stroke-width="1"/>
<line x1="857.3651497465945" y1="300.0" x2="857.3651497465945" y2="290.0" stroke="black" stroke-width="1"/>
<line x1="857.3651497465945" y1="290.0" x2="866.0254037844389" y2="285.0" stroke="black" stroke-width="1"/>
<line x1="866.0254037844389" y1="285.0" x2="857.3651497465945" y2="280.0" stroke="black" stroke-width="1"/>
<line x1="857.3651497465945" y1="280.0" x2="857.3651497465945" y2="270.0" stroke="black" stroke-width="1"/>
<line x1="857.3651497465945" y1="270.0" x2="848.7048957087502" y2="275.0" stroke="black" stroke-width="1"/>
<line x1="848.7048957087502" y1="275.0" x2="840.0446416709058" y2="270.0" stroke="black" stroke-width="1"/>
<line x1="840.0446416709058" y1="270.0" x2="840.0446416709058" y2="280.0" stroke="black" stroke-width="1"/>
<line x1="840.0446416709058" y1="280.0" x2="831.3843876330614" y2="285.0" stroke="black" stroke-width="1"/>
<line x1="831.3843876330614" y1="285.0" x2="822.7241335952169" y2="280.0" stroke="black" stroke-width="1"/>
<line x1="822.7241335952169" y1="280.0" x2="822.7241335952169" y2="270.0" stroke="black" stroke-width="1"/>
<line x1="822.7241335952169" y1="270.0" x2="814.0638795573726" y2="275.0" stroke="black" stroke-width="1"/>
<line x1="814.0638795573726" y1="275.0" x2="805.4036255195282" y2="270.0" stroke="black" stroke-width="1"/>
<line x1="805.4036255195282" y1="270.0" x2="805.4036255195282" y2="280.0" stroke="black" stroke-width="1"/>
<line x1="805.4036255195282" y1="280.0" x2="796.7433714816839" y2="285.0" stroke="black" stroke-width="1"/>
<line x1="796.7433714816839" y1="285.0" x2="805.4036255195282" y2="290.0" stroke="black" stroke-width="1"/>
<line x1="805.4036255195282" y1="290.0" x2="805.4036255195282" y2="300.0" stroke="black" stroke-width="1"/>
<line x1="805.4036255195282" y1="300.0" x2="796.7433714816839" y2="305.0" stroke="black" stroke-width="1"/>
<line x1="796.7433714816839" y1="305.0" x2="788.0831174438395" y2="300.0" stroke="black" stroke-width="1"/>
<line x1="788.0831174438395" y1="300.0" x2="788.0831174438395" y2="310.0" stroke="black" stroke-width="1"/>
<line x1="788.0831174438395" y1="310.0" x2="779.422863405995" y2="315.0" stroke="black" stroke-width="1"/>
<line x1="779.422863405995" y1="315.0" x2="770.7626093681507" y2="310.0" stroke="black" stroke-width="1"/>
<line x1="770.7626093681507" y1="310.0" x2="770.7626093681507" y2="300.0" stroke="black" stroke-width="1"/>
<line x1="770.7626093681507" y1="300.0" x2="762.1023553303063" y2="305.0" stroke="black" stroke-width="1"/>
<line x1="762.1023553303063" y1="305.0" x2="753.4421012924619" y2="300.0" stroke="black" stroke-width="1"/>
<line x1="753.4421012924619" y1="300.0" x2="753.4421012924619" y2="290.0" stroke="black" stroke-width="1"/>
<line x1="753.4421012924619" y1="290.0" x2="762.1023553303063" y2="285.0" stroke="black" stroke-width="1"/>
<line x1="762.1023553303063" y1="285.0" x2="753.4421012924619" y2="280.0" stroke="black" stroke-width="1"/>
<line x1="753.4421012924619" y1="280.0" x2="753.4421012924619" y2="270.0" stroke="black" stroke-width="1"/>
<line x1="753.4421012924619" y1="270.0" x2="744.7818472546176" y2="275.0" stroke="black" stroke-width="1"/>
<line x1="744.7818472546176" y1="275.0" x2="736.1215932167731" y2="270.0" stroke="black" stroke-width="1"/>
<line x1="736.1215932167731" y1="270.0" x2="736.1215932167731" y2="280.0" stroke="black" stroke-width="1"/>
<line x1="736.1215932167731" y1="280.0" x2="727.4613391789287" y2="285.0" stroke="black" stroke-width="1"/>
<line x1="727.4613391789287" y1="285.0" x2="718.8010851410844" y2="280.0" stroke="black" stroke-width="1"/>
<line x1="718.8010851410844" y1="280.0" x2="718.8010851410844" y2="270.0" stroke="black" stroke-width="1"/>
<line x1="718.8010851410844" y1="270.0" x2="710.14083110324" y2="275.0" stroke="black" stroke-width="1"/>
<line x1="710.14083110324" y1="275.0" x2="701.4805770653957" y2="270.0" stroke="black" stroke-width="1"/>
<line x1="701.4805770653957" y1="270.0" x2="701.4805770653957" y2="260.0" stroke="black" stroke-width="1"/>
<line x1="701.4805770653957" y1="260.0" x2="710.14083110324" y2="255.0" stroke="black" stroke-width="1"/>
<line x1="710.14083110324" y1="255.0" x2="701.4805770653957" y2="250.0" stroke="black" stroke-width="1"/>
<line x1="701.4805770653957" y1="250.0" x2="701.4805770653957" y2="240.0" stroke="black" stroke-width="1"/>
<line x1="701.4805770653957" y1="240.0" x2="710.14083110324" y2="235.0" stroke="black" stroke-width="1"/>
<line x1="710.14083110324" y1="235.0" x2="718.8010851410844" y2="240.0" stroke="black" stroke-width="1"/>
<line x1="718.8010851410844" y1="240.0" x2="718.8010851410844" y2="230.0" stroke="black" stroke-width="1"/>
<line x1="718.8010851410844" y1="230.0" x2="727.4613391789288" y2="225.0" stroke="black" stroke-width="1"/>
<line x1="727.4613391789288" y1="225.0" x2="718.8010851410844" y2="220.0" stroke="black" stroke-width="1"/>
<line x1="718.8010851410844" y1="220.0" x2="718.8010851410844" y2="210.0" stroke="black" stroke-width="1"/>
<line x1="718.8010851410844" y1="210.0" x2="710.14083110324" y2="215.0" stroke="black" stroke-width="1"/>
<line x1="710.14083110324" y1="215.0" x2="701.4805770653957" y2="210.0" stroke="black" stroke-width="1"/>
<line x1="701.4805770653957" y1="210.0" x2="701.4805770653957" y2="200.0" stroke="black" stroke-width="1"/>
<line x1="701.4805770653957" y1="200.0" x2="710.14083110324" y2="195.0" stroke="black" stroke-width="1"/>
<line x1="710.14083110324" y1="195.0" x2="701.4805770653957" y2="190.0" stroke="black" stroke-width="1"/>
<line x1="701.4805770653957" y1="190.0" x2="701.4805770653957" y2="180.0" stroke="black" stroke-width="1"/>
<line x1="701.4805770653957" y1="180.0" x2="710.14083110324" y2="175.0" stroke="black" stroke-width="1"/>
<line x1="710.14083110324" y1="175.0" x2="718.8010851410844" y2="180.0" stroke="black" stroke-width="1"/>
<line x1="718.8010851410844" y1="180.0" x2="718.8010851410844" y2="170.0" stroke="black" stroke-width="1"/>
<line x1="718.8010851410844" y1="170.0" x2="727.4613391789288" y2="165.0" stroke="black" stroke-width="1"/>
<line x1="727.4613391789288" y1="165.0" x2="736.1215932167731" y2="170.0" stroke="black" stroke-width="1"/>
<line x1="736.1215932167731" y1="170.0" x2="736.1215932167731" y2="180.0" stroke="black" stroke-width="1"/>
<line x1="736.1215932167731" y1="180.0" x2="744.7818472546176" y2="175.0" stroke="black" stroke-width="1"/>
<line x1="744.7818472546176" y1="175.0" x2="753.442101292462" y2="180.0" stroke="black" stroke-width="1"/>
<line x1="753.442101292462" y1="180.0" x2="753.442101292462" y2="170.0" stroke="black" stroke-width="1"/>
<line x1="753.442101292462" y1="170.0" x2="762.1023553303063" y2="165.0" stroke="black" stroke-width="1"/>
<line x1="762.1023553303063" y1="165.0" x2="753.442101292462" y2="160.0" stroke="black" stroke-width="1"/>
<line x1="753.442101292462" y1="160.0" x2="753.442101292462" y2="150.0" stroke="black" stroke-width="1"/>
<line x1="753.442101292462" y1="150.0" x2="762.1023553303063" y2="145.0" stroke="black" stroke-width="1"/>
<line x1="762.1023553303063" y1="145.0" x2="770.7626093681507" y2="150.0" stroke="black" stroke-width="1"/>
<line x1="770.7626093681507" y1="150.0" x2="770.7626093681507" y2="140.0" stroke="black" stroke-width="1"/>
<line x1="770.7626093681507" y1="140.0" x2="779.422863405995" y2="135.0" stroke="black" stroke-width="1"/>
<line x1="779.422863405995" y1="135.0" x2="770.7626093681507" y2="130.0" stroke="black" stroke-width="1"/>
<line x1="770.7626093681507" y1="130.0" x2="770.7626093681507" y2="120.0" stroke="black" stroke-width="1"/>
<line x1="770.7626093681507" y1="120.0" x2="762.1023553303063" y2="125.0" stroke="black" stroke-width="1"/>
<line x1="762.1023553303063" y1="125.0" x2="753.442101292462" y2="120.0" stroke="black" stroke-width="1"/>
<line x1="753.442101292462" y1="120.0" x2="753.442101292462" y2="110.0" stroke="black" stroke-width="1"/>
<line x1="753.442101292462" y1="110.0" x2="762.1023553303063" y2="105.0" stroke="black" stroke-width="1"/>
<line x1="762.1023553303063" y1="105.0" x2="753.442101292462" y2="100.0" stroke="black" stroke-width="1"/>
<line x1="753.442101292462" y1="100.0" x2="753.442101292462" y2="90.0" stroke="black" stroke-width="1"/>
<line x1="753.442101292462" y1="90.0" x2="744.7818472546176" y2="95.0" stroke="black" stroke-width="1"/>
<line x1="744.7818472546176" y1="95.0" x2="736.1215932167731" y2="90.0" stroke="black" stroke-width="1"/>
<line x1="736.1215932167731" y1="90.0" x2="736.1215932167731" y2="100.0" stroke="black" stroke-width="1"/>
<line x1="736.1215932167731" y1="100.0" x2="727.4613391789288" y2="105.0" stroke="black" stroke-width="1"/>
<line x1="727.4613391789288" y1="105.0" x2="718.8010851410844" y2="100.0" stroke="black" stroke-width="1"/>
<line x1="718.8010851410844" y1="100.0" x2="718.8010851410844" y2="90.0" stroke="black" stroke-width="1"/>
<line x1="718.8010851410844" y1="90.0" x2="710.14083110324" y2="95.0" stroke="black" stroke-width="1"/>
<line x1="710.14083110324" y1="95.0" x2="701.4805770653957" y2="90.0" stroke="black" stroke-width="1"/>
<line x1="701.4805770653957" y1="90.0" x2="701.4805770653957" y2="80.0" stroke="black" stroke-width="1"/>
<line x1="701.4805770653957" y1="80.0" x2="710.14083110324" y2="75.0" stroke="black" stroke-width="1"/>
<line x1="710.14083110324" y1="75.0" x2="701.4805770653957" y2="70.0" stroke="black" stroke-width="1"/>
<line x1="701.4805770653957" y1="70.0" x2="701.4805770653957" y2="60.0" stroke="black" stroke-width="1"/>
<line x1="701.4805770653957" y1="60.0" x2="710.14083110324" y2="55.0" stroke="black" stroke-width="1"/>
<line x1="710.14083110324" y1="55.0" x2="718.8010851410844" y2="60.0" stroke="black" stroke-width="1"/>
<line x1="718.8010851410844" y1="60.0" x2="718.8010851410844" y2="50.0" stroke="black" stroke-width="1"/>
<line x1="718.8010851410844" y1="50.0" x2="727.4613391789288" y2="45.0" stroke="black" stroke-width="1"/>
<line x1="727.4613391789288" y1="45.0" x2="718.8010851410844" y2="40.0" stroke="black" stroke-width="1"/>
<line x1="718.8010851410844" y1="40.0" x2="718.8010851410844" y2="30.0" stroke="black" stroke-width="1"/>
<line x1="718.8010851410844" y1="30.0" x2="710.14083110324" y2="35.0" stroke="black" stroke-width="1"/>
<line x1="710.14083110324" y1="35.0" x2="701.4805770653957" y2="30.0" stroke="black" stroke-width="1"/>
<line x1="701.4805770653957" y1="30.0" x2="701.4805770653957" y2="20.0" stroke="black" stroke-width="1"/>
<line x1="701.4805770653957" y1="20.0" x2="710.14083110324" y2="15.0" stroke="black" stroke-width="1"/>
<line x1="710.14083110324" y1="15.0" x2="701.4805770653957" y2="10.0" stroke="black" stroke-width="1"/>
<line x1="701.4805770653957" y1="10.0" x2="701.4805770653957" y2="0.0" stroke="black" stroke-width="1"/>
<line x1="701.4805770653957" y1="0.0" x2="692.8203230275512" y2="5.0" stroke="black" stroke-width="1"/>
<line x1="692.8203230275512" y1="5.0" x2="684.1600689897069" y2="0.0" stroke="black" stroke-width="1"/>
<line x1="684.1600689897069" y1="0.0" x2="684.1600689897069" y2="10.0" stroke="black" stroke-width="1"/>
<line x1="684.1600689897069" y1="10.0" x2="675.4998149518625" y2="15.0" stroke="black" stroke-width="1"/>
<line x1="675.4998149518625" y1="15.0" x2="666.8395609140181" y2="10.0" stroke="black" stroke-width="1"/>
<line x1="666.8395609140181" y1="10.0" x2="666.8395609140181" y2="0.0" stroke="black" stroke-width="1"/>
<line x1="666.8395609140181" y1="0.0" x2="658.1793068761738" y2="5.0" stroke="black" stroke-width="1"/>
<line x1="658.1793068761738" y1="5.0" x2="649.5190528383293" y2="0.0" stroke="black" stroke-width="1"/>
<line x1="649.5190528383293" y1="0.0" x2="649.5190528383293" y2="10.0" stroke="black" stroke-width="1"/>
<line x1="649.5190528383293" y1="10.0" x2="640.8587988004849" y2="15.0" stroke="black" stroke-width="1"/>
<line x1="640.8587988004849" y1="15.0" x2="649.5190528383293" y2="20.0" stroke="black" stroke-width="1"/>
<line x1="649.5190528383293" y1="20.0" x2="649.5190528383293" y2="30.0" stroke="black" stroke-width="1"/>
<line x1="649.5190528383293" y1="30.0" x2="640.8587988004849" y2="35.0" stroke="black" stroke-width="1"/>
<line x1="640.8587988004849" y1="35.0" x2="632.1985447626406" y2="30.0" stroke="black" stroke-width="1"/>
<line x1="632.1985447626406" y1="30.0" x2="632.1985447626406" y2="40.0" stroke="black" stroke-width="1"/>
<line x1="632.1985447626406" y1="40.0" x2="623.5382907247962" y2="45.0" stroke="black" stroke-width="1"/>
<line x1="623.5382907247962" y1="45.0" x2="614.8780366869519" y2="40.0" stroke="black" stroke-width="1"/>
<line x1="614.8780366869519" y1="40.0" x2="614.8780366869519" y2="30.0" stroke="black" stroke-width="1"/>
<line x1="614.8780366869519" y1="30.0" x2="606.2177826491074" y2="35.0" stroke="black" stroke-width="1"/>
<line x1="606.2177826491074" y1="35.0" x2="597.557528611263" y2="30.0" stroke="black" stroke-width="1"/>
<line x1="597.557528611263" y1="30.0" x2="597.557528611263" y2="20.0" stroke="black" stroke-width="1"/>
<line x1="597.557528611263" y1="20.0" x2="606.2177826491074" y2="15.0" stroke="black" stroke-width="1"/>
<line x1="606.2177826491074" y1="15.0" x2="597.557528611263" y2="10.0" stroke="black" stroke-width="1"/>
<line x1="597.557528611263" y1="10.0" x2="597.557528611263" y2="0.0" stroke="black" stroke-width="1"/>
<line x1="597.557528611263" y1="0.0" x2="588.8972745734187" y2="5.0" stroke="black" stroke-width="1"/>
<line x1="588.8972745734187" y1="5.0" x2="580.2370205355743" y2="0.0" stroke="black" stroke-width="1"/>
<line x1="580.2370205355743" y1="0.0" x2="580.2370205355743" y2="10.0" stroke="black" stroke-width="1"/>
<line x1="580.2370205355743" y1="10.0" x2="571.5767664977299" y2="15.0" stroke="black" stroke-width="1"/>
<line x1="571.5767664977299" y1="15.0" x2="562.9165124598856" y2="10.0" stroke="black" stroke-width="1"/>
<line x1="562.9165124598856" y1="10.0" x2="562.9165124598856" y2="0.0" stroke="black" stroke-width="1"/>
<line x1="562.9165124598856" y1="0.0" x2="554.2562584220411" y2="5.0" stroke="black" stroke-width="1"/>
<line x1="554.2562584220411" y1="5.0" x2="545.5960043841967" y2="0.0" stroke="black" stroke-width="1"/>
<line x1="545.5960043841967" y1="0.0" x2="545.5960043841967" y2="10.0" stroke="black" stroke-width="1"/>
<line x1="545.5960043841967" y1="10.0" x2="536.9357503463523" y2="15.0" stroke="black" stroke-width="1"/>
<line x1="536.9357503463523" y1="15.0" x2="545.5960043841967" y2="20.0" stroke="black" stroke-width="1"/>
<line x1="545.5960043841967" y1="20.0" x2="545.5960043841967" y2="30.0" stroke="black" stroke-width="1"/>
<line x1="545.5960043841967" y1="30.0" x2="536.9357503463523" y2="35.0" stroke="black" stroke-width="1"/>
<line x1="536.9357503463523" y1="35.0" x2="528.2754963085079" y2="30.0" stroke="black" stroke-width="1"/>
<line x1="528.2754963085079" y1="30.0" x2="528.2754963085079" y2="40.0" stroke="black" stroke-width="1"/>
<line x1="528.2754963085079" y1="40.0" x2="519.6152422706635" y2="45.0" stroke="black" stroke-width="1"/>
<line x1="519.6152422706635" y1="45.0" x2="528.2754963085079" y2="50.0" stroke="black" stroke-width="1"/>
<line x1="528.2754963085079" y1="50.0" x2="528.2754963085079" y2="60.0" stroke="black" stroke-width="1"/>
<line x1="528.2754963085079" y1="60.0" x2="536.9357503463523" y2="55.0" stroke="black" stroke-width="1"/>
<line x1="536.9357503463523" y1="55.0" x2="545.5960043841967" y2="60.0" stroke="black" stroke-width="1"/>
<line x1="545.5960043841967" y1="60.0" x2="545.5960043841967" y2="70.0" stroke="black" stroke-width="1"/>
<line x1="545.5960043841967" y1="70.0" x2="536.9357503463523" y2="75.0" stroke="black" stroke-width="1"/>
<line x1="536.9357503463523" y1="75.0" x2="545.5960043841967" y2="80.0" stroke="black" stroke-width="1"/>
<line x1="545.5960043841967" y1="80.0" x2="545.5960043841967" y2="90.0" stroke="black" stroke-width="1"/>
<line x1="545.5960043841967" y1="90.0" x2="536.9357503463523" y2="95.0" stroke="black" stroke-width="1"/>
<line x1="536.9357503463523" y1="95.0" x2="528.2754963085079" y2="90.0" stroke="black" stroke-width="1"/>
<line x1="528.2754963085079" y1="90.0" x2="528.2754963085079" y2="100.0" stroke="black" stroke-width="1"/>
<line x1="528.2754963085079" y1="100.0" x2="519.6152422706635" y2="105.0" stroke="black" stroke-width="1"/>
<line x1="519.6152422706635" y1="105.0" x2="510.9549882328191" y2="100.0" stroke="black" stroke-width="1"/>
<line x1="510.9549882328191" y1="100.0" x2="510.9549882328191" y2="90.0" stroke="black" stroke-width="1"/>
<line x1="510.9549882328191" y1="90.0" x2="502.2947341949747" y2="95.0" stroke="black" stroke-width="1"/>
<line x1="502.2947341949747" y1="95.0" x2="493.6344801571303" y2="90.0" stroke="black" stroke-width="1"/>
<line x1="493.6344801571303" y1="90.0" x2="493.6344801571303" y2="100.0" stroke="black" stroke-width="1"/>
<line x1="493.6344801571303" y1="100.0" x2="484.97422611928596" y2="105.0" stroke="black" stroke-width="1"/>
<line x1="484.97422611928596" y1="105.0" x2="493.6344801571303" y2="110.0" stroke="black" stroke-width="1"/>
<line x1="493.6344801571303" y1="110.0" x2="493.6344801571303" y2="120.0" stroke="black" stroke-width="1"/>
<line x1="493.6344801571303" y1="120.0" x2="484.97422611928596" y2="125.0" stroke="black" stroke-width="1"/>
<line x1="484.97422611928596" y1="125.0" x2="476.31397208144153" y2="120.0" stroke="black" stroke-width="1"/>
<line x1="476.31397208144153" y1="120.0" x2="476.31397208144153" y2="130.0" stroke="black" stroke-width="1"/>
<line x1="476.31397208144153" y1="130.0" x2="467.6537180435971" y2="135.0" stroke="black" stroke-width="1"/>
<line x1="467.6537180435971" y1="135.0" x2="458.99346400575274" y2="130.0" stroke="black" stroke-width="1"/>
<line x1="458.99346400575274" y1="130.0" x2="458.99346400575274" y2="120.0" stroke="black" stroke-width="1"/>
<line x1="458.99346400575274" y1="120.0" x2="450.3332099679084" y2="125.0" stroke="black" stroke-width="1"/>
<line x1="450.3332099679084" y1="125.0" x2="441.67295593006395" y2="120.0" stroke="black" stroke-width="1"/>
<line x1="441.67295593006395" y1="120.0" x2="441.67295593006395" y2="110.0" stroke="black" stroke-width="1"/>
<line x1="441.67295593006395" y1="110.0" x2="450.3332099679084" y2="105.0" stroke="black" stroke-width="1"/>
<line x1="450.3332099679084" y1="105.0" x2="441.67295593006395" y2="100.0" stroke="black" stroke-width="1"/>
<line x1="441.67295593006395" y1="100.0" x2="441.67295593006395" y2="90.0" stroke="black" stroke-width="1"/>
<line x1="441.67295593006395" y1="90.0" x2="433.0127018922196" y2="95.0" stroke="black" stroke-width="1"/>
<line x1="433.0127018922196" y1="95.0" x2="424.3524478543752" y2="90.0" stroke="black" stroke-width="1"/>
<line x1="424.3524478543752" y1="90.0" x2="424.3524478543752" y2="100.0" stroke="black" stroke-width="1"/>
<line x1="424.3524478543752" y1="100.0" x2="415.69219381653085" y2="105.0" stroke="black" stroke-width="1"/>
<line x1="415.69219381653085" y1="105.0" x2="407.0319397786865" y2="100.0" stroke="black" stroke-width="1"/>
<line x1="407.0319397786865" y1="100.0" x2="407.0319397786865" y2="90.0" stroke="black" stroke-width="1"/>
<line x1="407.0319397786865" y1="90.0" x2="398.3716857408421" y2="95.0" stroke="black" stroke-width="1"/>
<line x1="398.3716857408421" y1="95.0" x2="389.71143170299774" y2="90.0" stroke="black" stroke-width="1"/>
<line x1="389.71143170299774" y1="90.0" x2="389.71143170299774" y2="80.0" stroke="black" stroke-width="1"/>
<line x1="389.71143170299774" y1="80.0" x2="398.3716857408421" y2="75.0" stroke="black" stroke-width="1"/>
<line x1="398.3716857408421" y1="75.0" x2="389.71143170299774" y2="70.0" stroke="black" stroke-width="1"/>
<line x1="389.71143170299774" y1="70.0" x2="389.71143170299774" y2="60.0" stroke="black" stroke-width="1"/>
<line x1="389.71143170299774" y1="60.0" x2="398.3716857408421" y2="55.0" stroke="black" stroke-width="1"/>
<line x1="398.3716857408421" y1="55.0" x2="407.0319397786865" y2="60.0" stroke="black" stroke-width="1"/>
<line x1="407.0319397786865" y1="60.0" x2="407.0319397786865" y2="50.0" stroke="black" stroke-width="1"/>
<line x1="407.0319397786865" y1="50.0" x2="415.69219381653085" y2="45.0" stroke="black" stroke-width="1"/>
<line x1="415.69219381653085" y1="45.0" x2="407.0319397786865" y2="40.0" stroke="black" stroke-width="1"/>
<line x1="407.0319397786865" y1="40.0" x2="407.0319397786865" y2="30.0" stroke="black" stroke-width="1"/>
<line x1="407.0319397786865" y1="30.0" x2="398.3716857408421" y2="35.0" stroke="black" stroke-width="1"/>
<line x1="398.3716857408421" y1="35.0" x2="389.71143170299774" y2="30.0" stroke="black" stroke-width="1"/>
<line x1="389.71143170299774" y1="30.0" x2="389.71143170299774" y2="20.0" stroke="black" stroke-width="1"/>
<line x1="389.71143170299774" y1="20.0" x2="398.3716857408421" y2="15.0" stroke="black" stroke-width="1"/>
<line x1="398.3716857408421" y1="15.0" x2="389.71143170299774" y2="10.0" stroke="black" stroke-width="1"/>
<line x1="389.71143170299774" y1="10.0" x2="389.71143170299774" y2="0.0" stroke="black" stroke-width="1"/>
<line x1="389.71143170299774" y1="0.0" x2="381.0511776651534" y2="5.0" stroke="black" stroke-width="1"/>
<line x1="381.0511776651534" y1="5.0" x2="372.390923627309" y2="0.0" stroke="black" stroke-width="1"/>
<line x1="372.390923627309" y1="0.0" x2="372.390923627309" y2="10.0" stroke="black" stroke-width="1"/>
<line x1="372.390923627309" y1="10.0" x2="363.73066958946464" y2="15.0" stroke="black" stroke-width="1"/>
<line x1="363.73066958946464" y1="15.0" x2="355.0704155516203" y2="10.0" stroke="black" stroke-width="1"/>
<line x1="355.0704155516203" y1="10.0" x2="355.0704155516203" y2="0.0" stroke="black" stroke-width="1"/>
<line x1="355.0704155516203" y1="0.0" x2="346.4101615137759" y2="5.0" stroke="black" stroke-width="1"/>
<line x1="346.4101615137759" y1="5.0" x2="337.74990747593154" y2="0.0" stroke="black" stroke-width="1"/>
<line x1="337.74990747593154" y1="0.0" x2="337.74990747593154" y2="10.0" stroke="black" stroke-width="1"/>
<line x1="337.74990747593154" y1="10.0" x2="329.08965343808717" y2="15.0" stroke="black" stroke-width="1"/>
<line x1="329.08965343808717" y1="15.0" x2="337.74990747593154" y2="20.0" stroke="black" stroke-width="1"/>
<line x1="337.74990747593154" y1="20.0" x2="337.74990747593154" y2="30.0" stroke="black" stroke-width="1"/>
<line x1="337.74990747593154" y1="30.0" x2="329.08965343808717" y2="35.0" stroke="black" stroke-width="1"/>
<line x1="329.08965343808717" y1="35.0" x2="320.4293994002428" y2="30.0" stroke="black" stroke-width="1"/>
<line x1="320.4293994002428" y1="30.0" x2="320.4293994002428" y2="40.0" stroke="black" stroke-width="1"/>
<line x1="320.4293994002428" y1="40.0" x2="311.76914536239843" y2="45.0" stroke="black" stroke-width="1"/>
<line x1="311.76914536239843" y1="45.0" x2="303.10889132455407" y2="40.0" stroke="black" stroke-width="1"/>
<line x1="303.10889132455407" y1="40.0" x2="303.10889132455407" y2="30.0" stroke="black" stroke-width="1"/>
<line x1="303.10889132455407" y1="30.0" x2="294.4486372867097" y2="35.0" stroke="black" stroke-width="1"/>
<line x1="294.4486372867097" y1="35.0" x2="285.78838324886533" y2="30.0" stroke="black" stroke-width="1"/>
<line x1="285.78838324886533" y1="30.0" x2="285.78838324886533" y2="20.0" stroke="black" stroke-width="1"/>
<line x1="285.78838324886533" y1="20.0" x2="294.4486372867097" y2="15.0" stroke="black" stroke-width="1"/>
<line x1="294.4486372867097" y1="15.0" x2="285.78838324886533" y2="10.0" stroke="black" stroke-width="1"/>
<line x1="285.78838324886533" y1="10.0" x2="285.78838324886533" y2="0.0" stroke="black" stroke-width="1"/>
<line x1="285.78838324886533" y1="0.0" x2="277.12812921102096" y2="5.0" stroke="black" stroke-width="1"/>
<line x1="277.12812921102096" y1="5.0" x2="268.4678751731766" y2="0.0" stroke="black" stroke-width="1"/>
<line x1="268.4678751731766" y1="0.0" x2="268.4678751731766" y2="10.0" stroke="black" stroke-width="1"/>
<line x1="268.4678751731766" y1="10.0" x2="259.8076211353322" y2="15.0" stroke="black" stroke-width="1"/>
<line x1="259.8076211353322" y1="15.0" x2="251.14736709748786" y2="10.0" stroke="black" stroke-width="1"/>
<line x1="251.14736709748786" y1="10.0" x2="251.14736709748786" y2="0.0" stroke="black" stroke-width="1"/>
<line x1="251.14736709748786" y1="0.0" x2="242.4871130596435" y2="5.0" stroke="black" stroke-width="1"/>
<line x1="242.4871130596435" y1="5.0" x2="233.82685902179912" y2="0.0" stroke="black" stroke-width="1"/>
<line x1="233.82685902179912" y1="0.0" x2="233.82685902179912" y2="10.0" stroke="black" stroke-width="1"/>
<line x1="233.82685902179912" y1="10.0" x2="225.16660498395476" y2="15.0" stroke="black" stroke-width="1"/>
<line x1="225.16660498395476" y1="15.0" x2="233.82685902179912" y2="20.0" stroke="black" stroke-width="1"/>
<line x1="233.82685902179912" y1="20.0" x2="233.82685902179912" y2="30.0" stroke="black" stroke-width="1"/>
<line x1="233.82685902179912" y1="30.0" x2="225.16660498395476" y2="35.0" stroke="black" stroke-width="1"/>
<line x1="225.16660498395476" y1="35.0" x2="216.5063509461104" y2="30.0" stroke="black" stroke-width="1"/>
<line x1="216.5063509461104" y1="30.0" x2="216.5063509461104" y2="40.0" stroke="black" stroke-width="1"/>
<line x1="216.5063509461104" y1="40.0" x2="207.84609690826602" y2="45.0" stroke="black" stroke-width="1"/>
<line x1="207.84609690826602" y1="45.0" x2="216.5063509461104" y2="50.0" stroke="black" stroke-width="1"/>
<line x1="216.5063509461104" y1="50.0" x2="216.5063509461104" y2="60.0" stroke="black" stroke-width="1"/>
<line x1="216.5063509461104" y1="60.0" x2="225.16660498395476" y2="55.0" stroke="black" stroke-width="1"/>
<line x1="225.16660498395476" y1="55.0" x2="233.82685902179912" y2="60.0" stroke="black" stroke-width="1"/>
<line x1="233.82685902179912" y1="60.0" x2="233.82685902179912" y2="70.0" stroke="black" stroke-width="1"/>
<line x1="233.82685902179912" y1="70.0" x2="225.16660498395476" y2="75.0" stroke="black" stroke-width="1"/>
<line x1="225.16660498395476" y1="75.0" x2="233.82685902179912" y2="80.0" stroke="black" stroke-width="1"/>
<line x1="233.82685902179912" y1="80.0" x2="233.82685902179912" y2="90.0" stroke="black" stroke-width="1"/>
<line x1="233.82685902179912" y1="90.0" x2="225.16660498395476" y2="95.0" stroke="black" stroke-width="1"/>
<line x1="225.16660498395476" y1="95.0" x2="216.5063509461104" y2="90.0" stroke="black" stroke-width="1"/>
<line x1="216.5063509461104" y1="90.0" x2="216.5063509461104" y2="100.0" stroke="black" stroke-width="1"/>
<line x1="216.5063509461104" y1="100.0" x2="207.84609690826602" y2="105.0" stroke="black" stroke-width="1"/>
<line x1="207.84609690826602" y1="105.0" x2="199.18584287042165" y2="100.0" stroke="black" stroke-width="1"/>
<line x1="199.18584287042165" y1="100.0" x2="199.18584287042165" y2="90.0" stroke="black" stroke-width="1"/>
<line x1="199.18584287042165" y1="90.0" x2="190.52558883257728" y2="95.0" stroke="black" stroke-width="1"/>
<line x1="190.52558883257728" y1="95.0" x2="181.86533479473292" y2="90.0" stroke="black" stroke-width="1"/>
<line x1="181.86533479473292" y1="90.0" x2="181.86533479473292" y2="100.0" stroke="black" stroke-width="1"/>
<line x1="181.86533479473292" y1="100.0" x2="173.2050807568885" y2="105.0" stroke="black" stroke-width="1"/>
<line x1="173.2050807568885" y1="105.0" x2="181.86533479473292" y2="110.0" stroke="black" stroke-width="1"/>
<line x1="181.86533479473292" y1="110.0" x2="181.86533479473292" y2="120.0" stroke="black" stroke-width="1"/>
<line x1="181.86533479473292" y1="120.0" x2="173.2050807568885" y2="125.0" stroke="black" stroke-width="1"/>
<line x1="173.2050807568885" y1="125.0" x2="164.54482671904407" y2="120.0" stroke="black" stroke-width="1"/>
<line x1="164.54482671904407" y1="120.0" x2="164.54482671904407" y2="130.0" stroke="black" stroke-width="1"/>
<line x1="164.54482671904407" y1="130.0" x2="155.88457268119964" y2="135.0" stroke="black" stroke-width="1"/>
<line x1="155.88457268119964" y1="135.0" x2="164.54482671904407" y2="140.0" stroke="black" stroke-width="1"/>
<line x1="164.54482671904407" y1="140.0" x2="164.54482671904407" y2="150.0" stroke="black" stroke-width="1"/>
<line x1="164.54482671904407" y1="150.0" x2="173.2050807568885" y2="145.0" stroke="black" stroke-width="1"/>
<line x1="173.2050807568885" y1="145.0" x2="181.86533479473292" y2="150.0" stroke="black" stroke-width="1"/>
<line x1="181.86533479473292" y1="150.0" x2="181.86533479473292" y2="160.0" stroke="black" stroke-width="1"/>
<line x1="181.86533479473292" y1="160.0" x2="173.2050807568885" y2="165.0" stroke="black" stroke-width="1"/>
<line x1="173.2050807568885" y1="165.0" x2="181.86533479473292" y2="170.0" stroke="black" stroke-width="1"/>
<line x1="181.86533479473292" y1="170.0" x2="181.86533479473292" y2="180.0" stroke="black" stroke-width="1"/>
<line x1="181.86533479473292" y1="180.0" x2="190.52558883257728" y2="175.0" stroke="black" stroke-width="1"/>
<line x1="190.52558883257728" y1="175.0" x2="199.18584287042165" y2="180.0" stroke="black" stroke-width="1"/>
<line x1="199.18584287042165" y1="180.0" x2="199.18584287042165" y2="170.0" stroke="black" stroke-width="1"/>
<line x1="199.18584287042165" y1="170.0" x2="207.84609690826602" y2="165.0" stroke="black" stroke-width="1"/>
<line x1="207.84609690826602" y1="165.0" x2="216.5063509461104" y2="170.0" stroke="black" stroke-width="1"/>
<line x1="216.5063509461104" y1="170.0" x2="216.5063509461104" y2="180.0" stroke="black" stroke-width="1"/>
<line x1="216.5063509461104" y1="180.0" x2="225.16660498395476" y2="175.0" stroke="black" stroke-width="1"/>
<line x1="225.16660498395476" y1="175.0" x2="233.82685902179912" y2="180.0" stroke="black" stroke-width="1"/>
<line x1="233.82685902179912" y1="180.0" x2="233.82685902179912" y2="190.0" stroke="black" stroke-width="1"/>
<line x1="233.82685902179912" y1="190.0" x2="225.16660498395476" y2="195.0" stroke="black" stroke-width="1"/>
<line x1="225.16660498395476" y1="195.0" x2="233.82685902179912" y2="200.0" stroke="black" stroke-width="1"/>
<line x1="233.82685902179912" y1="200.0" x2="233.82685902179912" y2="210.0" stroke="black" stroke-width="1"/>
<line x1="233.82685902179912" y1="210.0" x2="225.16660498395476" y2="215.0" stroke="black" stroke-width="1"/>
<line x1="225.16660498395476" y1="215.0" x2="216.5063509461104" y2="210.0" stroke="black" stroke-width="1"/>
<line x1="216.5063509461104" y1="210.0" x2="216.5063509461104" y2="220.0" stroke="black" stroke-width="1"/>
<line x1="216.5063509461104" y1="220.0" x2="207.84609690826602" y2="225.0" stroke="black" stroke-width="1"/>
<line x1="207.84609690826602" y1="225.0" x2="216.5063509461104" y2="230.0" stroke="black" stroke-width="1"/>
<line x1="216.5063509461104" y1="230.0" x2="216.5063509461104" y2="240.0" stroke="black" stroke-width="1"/>
<line x1="216.5063509461104" y1="240.0" x2="225.16660498395476" y2="235.0" stroke="black" stroke-width="1"/>
<line x1="225.16660498395476" y1="235.0" x2="233.82685902179912" y2="240.0" stroke="black" stroke-width="1"/>
<line x1="233.82685902179912" y1="240.0" x2="233.82685902179912" y2="250.0" stroke="black" stroke-width="1"/>
<line x1="233.82685902179912" y1="250.0" x2="225.16660498395476" y2="255.0" stroke="black" stroke-width="1"/>
<line x1="225.16660498395476" y1="255.0" x2="233.82685902179912" y2="260.0" stroke="black" stroke-width="1"/>
<line x1="233.82685902179912" y1="260.0" x2="233.82685902179912" y2="270.0" stroke="black" stroke-width="1"/>
<line x1="233.82685902179912" y1="270.0" x2="225.16660498395476" y2="275.0" stroke="black" stroke-width="1"/>
<line x1="225.16660498395476" y1="275.0" x2="216.5063509461104" y2="270.0" stroke="black" stroke-width="1"/>
<line x1="216.5063509461104" y1="270.0" x2="216.5063509461104" y2="280.0" stroke="black" stroke-width="1"/>
<line x1="216.5063509461104" y1="280.0" x2="207.84609690826602" y2="285.0" stroke="black" stroke-width="1"/>
<line x1="207.84609690826602" y1="285.0" x2="199.18584287042165" y2="280.0" stroke="black" stroke-width="1"/>
<line x1="199.18584287042165" y1="280.0" x2="199.18584287042165" y2="270.0" stroke="black" stroke-width="1"/>
<line x1="199.18584287042165" y1="270.0" x2="190.52558883257728" y2="275.0" stroke="black" stroke-width="1"/>
<line x1="190.52558883257728" y1="275.0" x2="181.86533479473292" y2="270.0" stroke="black" stroke-width="1"/>
<line x1="181.86533479473292" y1="270.0" x2="181.86533479473292" y2="280.0" stroke="black" stroke-width="1"/>
<line x1="181.86533479473292" y1="280.0" x2="173.2050807568885" y2="285.0" stroke="black" stroke-width="1"/>
<line x1="173.2050807568885" y1="285.0" x2="181.86533479473292" y2="290.0" stroke="black" stroke-width="1"/>
<line x1="181.86533479473292" y1="290.0" x2="181.86533479473292" y2="300.0" stroke="black" stroke-width="1"/>
<line x1="181.86533479473292" y1="300.0" x2="173.2050807568885" y2="305.0" stroke="black" stroke-width="1"/>
<line x1="173.2050807568885" y1="305.0" x2="164.54482671904407" y2="300.0" stroke="black" stroke-width="1"/>
<line x1="164.54482671904407" y1="300.0" x2="164.54482671904407" y2="310.0" stroke="black" stroke-width="1"/>
<line x1="164.54482671904407" y1="310.0" x2="155.88457268119964" y2="315.0" stroke="black" stroke-width="1"/>
<line x1="155.88457268119964" y1="315.0" x2="147.22431864335522" y2="310.0" stroke="black" stroke-width="1"/>
<line x1="147.22431864335522" y1="310.0" x2="147.22431864335522" y2="300.0" stroke="black" stroke-width="1"/>
<line x1="147.22431864335522" y1="300.0" x2="138.5640646055108" y2="305.0" stroke="black" stroke-width="1"/>
<line x1="138.5640646055108" y1="305.0" x2="129.90381056766637" y2="300.0" stroke="black" stroke-width="1"/>
<line x1="129.90381056766637" y1="300.0" x2="129.90381056766637" y2="290.0" stroke="black" stroke-width="1"/>
<line x1="129.90381056766637" y1="290.0" x2="138.5640646055108" y2="285.0" stroke="black" stroke-width="1"/>
<line x1="138.5640646055108" y1="285.0" x2="129.90381056766637" y2="280.0" stroke="black" stroke-width="1"/>
<line x1="129.90381056766637" y1="280.0" x2="129.90381056766637" y2="270.0" stroke="black" stroke-width="1"/>
<line x1="129.90381056766637" y1="270.0" x2="121.24355652982194" y2="275.0" stroke="black" stroke-width="1"/>
<line x1="121.24355652982194" y1="275.0" x2="112.58330249197752" y2="270.0" stroke="black" stroke-width="1"/>
<line x1="112.58330249197752" y1="270.0" x2="112.58330249197752" y2="280.0" stroke="black" stroke-width="1"/>
<line x1="112.58330249197752" y1="280.0" x2="103.9230484541331" y2="285.0" stroke="black" stroke-width="1"/>
<line x1="103.9230484541331" y1="285.0" x2="95.26279441628867" y2="280.0" stroke="black" stroke-width="1"/>
<line x1="95.26279441628867" y1="280.0" x2="95.26279441628867" y2="270.0" stroke="black" stroke-width="1"/>
<line x1="95.26279441628867" y1="270.0" x2="86.60254037844425" y2="275.0" stroke="black" stroke-width="1"/>
<line x1="86.60254037844425" y1="275.0" x2="77.94228634059982" y2="270.0" stroke="black" stroke-width="1"/>
<line x1="77.94228634059982" y1="270.0" x2="77.94228634059982" y2="280.0" stroke="black" stroke-width="1"/>
<line x1="77.94228634059982" y1="280.0" x2="69.2820323027554" y2="285.0" stroke="black" stroke-width="1"/>
<line x1="69.2820323027554" y1="285.0" x2="77.94228634059982" y2="290.0" stroke="black" stroke-width="1"/>
<line x1="77.94228634059982" y1="290.0" x2="77.94228634059982" y2="300.0" stroke="black" stroke-width="1"/>
<line x1="77.94228634059982" y1="300.0" x2="69.2820323027554" y2="305.0" stroke="black" stroke-width="1"/>
<line x1="69.2820323027554" y1="305.0" x2="60.62177826491097" y2="300.0" stroke="black" stroke-width="1"/>
<line x1="60.62177826491097" y1="300.0" x2="60.62177826491097" y2="310.0" stroke="black" stroke-width="1"/>
<line x1="60.62177826491097" y1="310.0" x2="51.96152422706655" y2="315.0" stroke="black" stroke-width="1"/>
<line x1="51.96152422706655" y1="315.0" x2="60.62177826491097" y2="320.0" stroke="black" stroke-width="1"/>
<line x1="60.62177826491097" y1="320.0" x2="60.62177826491097" y2="330.0" stroke="black" stroke-width="1"/>
<line x1="60.62177826491097" y1="330.0" x2="69.2820323027554" y2="325.0" stroke="black" stroke-width="1"/>
<line x1="69.2820323027554" y1="325.0" x2="77.94228634059982" y2="330.0" stroke="black" stroke-width="1"/>
<line x1="77.94228634059982" y1="330.0" x2="77.94228634059982" y2="340.0" stroke="black" stroke-width="1"/>
<line x1="77.94228634059982" y1="340.0" x2="69.2820323027554" y2="345.0" stroke="black" stroke-width="1"/>
<line x1="69.2820323027554" y1="345.0" x2="77.94228634059982" y2="350.0" stroke="black" stroke-width="1"/>
<line x1="77.94228634059982" y1="350.0" x2="77.94228634059982" y2="360.0" stroke="black" stroke-width="1"/>
<line x1="77.94228634059982" y1="360.0" x2="69.2820323027554" y2="365.0" stroke="black" stroke-width="1"/>
<line x1="69.2820323027554" y1="365.0" x2="60.62177826491097" y2="360.0" stroke="black" stroke-width="1"/>
<line x1="60.62177826491097" y1="360.0" x2="60.62177826491097" y2="370.0" stroke="black" stroke-width="1"/>
<line x1="60.62177826491097" y1="370.0" x2="51.96152422706655" y2="375.0" stroke="black" stroke-width="1"/>
<line x1="51.96152422706655" y1="375.0" x2="43.30127018922212" y2="370.0" stroke="black" stroke-width="1"/>
<line x1="43.30127018922212" y1="370.0" x2="43.30127018922212" y2="360.0" stroke="black" stroke-width="1"/>
<line x1="43.30127018922212" y1="360.0" x2="34.6410161513777" y2="365.0" stroke="black" stroke-width="1"/>
<line x1="34.6410161513777" y1="365.0" x2="25.980762113533274" y2="360.0" stroke="black" stroke-width="1"/>
<line x1="25.980762113533274" y1="360.0" x2="25.980762113533274" y2="370.0" stroke="black" stroke-width="1"/>
<line x1="25.980762113533274" y1="370.0" x2="17.32050807568885" y2="375.0" stroke="black" stroke-width="1"/>
<line x1="17.32050807568885" y1="375.0" x2="25.980762113533274" y2="380.0" stroke="black" stroke-width="1"/>
<line x1="25.980762113533274" y1="380.0" x2="25.980762113533274" y2="390.0" stroke="black" stroke-width="1"/>
<line x1="25.980762113533274" y1="390.0" x2="17.32050807568885" y2="395.0" stroke="black" stroke-width="1"/>
<line x1="17.32050807568885" y1="395.0" x2="8.660254037844425" y2="390.0" stroke="black" stroke-width="1"/>
<line x1="8.660254037844425" y1="390.0" x2="8.660254037844425" y2="400.0" stroke="black" stroke-width="1"/>
<line x1="8.660254037844425" y1="400.0" x2="0.0" y2="405.0" stroke="black" stroke-width="1"/>
<line x1="0.0" y1="405.0" x2="8.660254037844425" y2="410.0" stroke="black" stroke-width="1"/>
<line x1="8.660254037844425" y1="410.0" x2="8.660254037844425" y2="420.0" stroke="black" stroke-width="1"/>
<line x1="8.660254037844425" y1="420.0" x2="17.32050807568885" y2="415.0" stroke="black" stroke-width="1"/>
<line x1="17.32050807568885" y1="415.0" x2="25.980762113533274" y2="420.0" stroke="black" stroke-width="1"/>
<line x1="25.980762113533274" y1="420.0" x2="25.980762113533274" y2="430.0" stroke="black" stroke-width="1"/>
<line x1="25.980762113533274" y1="430.0" x2="17.32050807568885" y2="435.0" stroke="black" stroke-width="1"/>
<line x1="17.32050807568885" y1="435.0" x2="25.980762113533274" y2="440.0" stroke="black" stroke-width="1"/>
<line x1="25.980762113533274" y1="440.0" x2="25.980762113533274" y2="450.0" stroke="black" stroke-width="1"/>
<line x1="25.980762113533274" y1="450.0" x2="34.6410161513777" y2="445.0" stroke="black" stroke-width="1"/>
<line x1="34.6410161513777" y1="445.0" x2="43.30127018922212" y2="450.0" stroke="black" stroke-width="1"/>
<line x1="43.30127018922212" y1="450.0" x2="43.30127018922212" y2="440.0" stroke="black" stroke-width="1"/>
<line x1="43.30127018922212" y1="440.0" x2="51.96152422706655" y2="435.0" stroke="black" stroke-width="1"/>
<line x1="51.96152422706655" y1="435.0" x2="60.62177826491097" y2="440.0" stroke="black" stroke-width="1"/>
<line x1="60.62177826491097" y1="440.0" x2="60.62177826491097" y2="450.0" stroke="black" stroke-width="1"/>
<line x1="60.62177826491097" y1="450.0" x2="69.2820323027554" y2="445.0" stroke="black" stroke-width="1"/>
<line x1="69.2820323027554" y1="445.0" x2="77.94228634059982" y2="450.0" stroke="black" stroke-width="1"/>
<line x1="77.94228634059982" y1="450.0" x2="77.94228634059982" y2="460.0" stroke="black" stroke-width="1"/>
<line x1="77.94228634059982" y1="460.0" x2="69.2820323027554" y2="465.0" stroke="black" stroke-width="1"/>
<line x1="69.2820323027554" y1="465.0" x2="77.94228634059982" y2="470.0" stroke="black" stroke-width="1"/>
<line x1="77.94228634059982" y1="470.0" x2="77.94228634059982" y2="480.0" stroke="black" stroke-width="1"/>
<line x1="77.94228634059982" y1="480.0" x2="69.2820323027554" y2="485.0" stroke="black" stroke-width="1"/>
<line x1="69.2820323027554" y1="485.0" x2="60.62177826491097" y2="480.0" stroke="black" stroke-width="1"/>
<line x1="60.62177826491097" y1="480.0" x2="60.62177826491097" y2="490.0" stroke="black" stroke-width="1"/>
<line x1="60.62177826491097" y1="490.0" x2="51.96152422706655" y2="495.0" stroke="black" stroke-width="1"/>
<line x1="51.96152422706655" y1="495.0" x2="60.62177826491097" y2="500.0" stroke="black" stroke-width="1"/>
<line x1="60.62177826491097" y1="500.0" x2="60.62177826491097" y2="510.0" stroke="black" stroke-width="1"/>
<line x1="60.62177826491097" y1="510.0" x2="69.2820323027554" y2="505.0" stroke="black" stroke-width="1"/>
<line x1="69.2820323027554" y1="505.0" x2="77.94228634059982" y2="510.0" stroke="black" stroke-width="1"/>
<line x1="77.94228634059982" y1="510.0" x2="77.94228634059982" y2="520.0" stroke="black" stroke-width="1"/>
<line x1="77.94228634059982" y1="520.0" x2="69.2820323027554" y2="525.0" stroke="black" stroke-width="1"/>
<line x1="69.2820323027554" y1="525.0" x2="77.94228634059982" y2="530.0" stroke="black" stroke-width="1"/>
<line x1="77.94228634059982" y1="530.0" x2="77.94228634059982" y2="540.0" stroke="black" stroke-width="1"/>
<line x1="77.94228634059982" y1="540.0" x2="86.60254037844425" y2="535.0" stroke="black" stroke-width="1"/>
<line x1="86.60254037844425" y1="535.0" x2="95.26279441628867" y2="540.0" stroke="black" stroke-width="1"/>
<line x1="95.26279441628867" y1="540.0" x2="95.26279441628867" y2="530.0" stroke="black" stroke-width="1"/>
<line x1="95.26279441628867" y1="530.0" x2="103.9230484541331" y2="525.0" stroke="black" stroke-width="1"/>
<line x1="103.9230484541331" y1="525.0" x2="112.58330249197752" y2="530.0" stroke="black" stroke-width="1"/>
<line x1="112.58330249197752" y1="530.0" x2="112.58330249197752" y2="540.0" stroke="black" stroke-width="1"/>
<line x1="112.58330249197752" y1="540.0" x2="121.24355652982194" y2="535.0" stroke="black" stroke-width="1"/>
<line x1="121.24355652982194" y1="535.0" x2="129.90381056766637" y2="540.0" stroke="black" stroke-width="1"/>
<line x1="129.90381056766637" y1="540.0" x2="129.90381056766637" y2="530.0" stroke="black" stroke-width="1"/>
<line x1="129.90381056766637" y1="530.0" x2="138.5640646055108" y2="525.0" stroke="black" stroke-width="1"/>
<line x1="138.5640646055108" y1="525.0" x2="129.90381056766637" y2="520.0" stroke="black" stroke-width="1"/>
<line x1="129.90381056766637" y1="520.0" x2="129.90381056766637" y2="510.0" stroke="black" stroke-width="1"/>
<line x1="129.90381056766637" y1="510.0" x2="138.5640646055108" y2="505.0" stroke="black" stroke-width="1"/>
<line x1="138.5640646055108" y1="505.0" x2="147.22431864335522" y2="510.0" stroke="black" stroke-width="1"/>
<line x1="147.22431864335522" y1="510.0" x2="147.22431864335522" y2="500.0" stroke="black" stroke-width="1"/>
<line x1="147.22431864335522" y1="500.0" x2="155.88457268119964" y2="495.0" stroke="black" stroke-width="1"/>
<line x1="155.88457268119964" y1="495.0" x2="164.54482671904407" y2="500.0" stroke="black" stroke-width="1"/>
<line x1="164.54482671904407" y1="500.0" x2="164.54482671904407" y2="510.0" stroke="black" stroke-width="1"/>
<line x1="164.54482671904407" y1="510.0" x2="173.2050807568885" y2="505.0" stroke="black" stroke-width="1"/>
<line x1="173.2050807568885" y1="505.0" x2="181.86533479473292" y2="510.0" stroke="black" stroke-width="1"/>
<line x1="181.86533479473292" y1="510.0" x2="181.86533479473292" y2="520.0" stroke="black" stroke-width="1"/>
<line x1="181.86533479473292" y1="520.0" x2="173.2050807568885" y2="525.0" stroke="black" stroke-width="1"/>
<line x1="173.2050807568885" y1="525.0" x2="181.86533479473292" y2="530.0" stroke="black" stroke-width="1"/>
<line x1="181.86533479473292" y1="530.0" x2="181.86533479473292" y2="540.0" stroke="black" stroke-width="1"/>
<line x1="181.86533479473292" y1="540.0" x2="190.52558883257728" y2="535.0" stroke="black" stroke-width="1"/>
<line x1="190.52558883257728" y1="535.0" x2="199.18584287042165" y2="540.0" stroke="black" stroke-width="1"/>
<line x1="199.18584287042165" y1="540.0" x2="199.18584287042165" y2="530.0" stroke="black" stroke-width="1"/>
<line x1="199.18584287042165" y1="530.0" x2="207.84609690826602" y2="525.0" stroke="black" stroke-width="1"/>
<line x1="207.84609690826602" y1="525.0" x2="216.5063509461104" y2="530.0" stroke="black" stroke-width="1"/>
<line x1="216.5063509461104" y1="530.0" x2="216.5063509461104" y2="540.0" stroke="black" stroke-width="1"/>
<line x1="216.5063509461104" y1="540.0" x2="225.16660498395476" y2="535.0" stroke="black" stroke-width="1"/>
<line x1="225.16660498395476" y1="535.0" x2="233.82685902179912" y2="540.0" stroke="black" stroke-width="1"/>
<line x1="233.82685902179912" y1="540.0" x2="233.82685902179912" y2="550.0" stroke="black" stroke-width="1"/>
<line x1="233.82685902179912" y1="550.0" x2="225.16660498395476" y2="555.0" stroke="black" stroke-width="1"/>
<line x1="225.16660498395476" y1="555.0" x2="233.82685902179912" y2="560.0" stroke="black" stroke-width="1"/>
<line x1="233.82685902179912" y1="560.0" x2="233.82685902179912" y2="570.0" stroke="black" stroke-width="1"/>
<line x1="233.82685902179912" y1="570.0" x2="225.16660498395476" y2="575.0" stroke="black" stroke-width="1"/>
<line x1="225.16660498395476" y1="575.0" x2="216.5063509461104" y2="570.0" stroke="black" stroke-width="1"/>
<line x1="216.5063509461104" y1="570.0" x2="216.5063509461104" y2="580.0" stroke="black" stroke-width="1"/>
<line x1="216.5063509461104" y1="580.0" x2="207.84609690826602" y2="585.0" stroke="black" stroke-width="1"/>
<line x1="207.84609690826602" y1="585.0" x2="216.5063509461104" y2="590.0" stroke="black" stroke-width="1"/>
<line x1="216.5063509461104" y1="590.0" x2="216.5063509461104" y2="600.0" stroke="black" stroke-width="1"/>
<line x1="216.5063509461104" y1="600.0" x2="225.16660498395476" y2="595.0" stroke="black" stroke-width="1"/>
<line x1="225.16660498395476" y1="595.0" x2="233.82685902179912" y2="600.0" stroke="black" stroke-width="1"/>
<line x1="233.82685902179912" y1="600.0" x2="233.82685902179912" y2="610.0" stroke="black" stroke-width="1"/>
<line x1="233.82685902179912" y1="610.0" x2="225.16660498395476" y2="615.0" stroke="black" stroke-width="1"/>
<line x1="225.16660498395476" y1="615.0" x2="233.82685902179912" y2="620.0" stroke="black" stroke-width="1"/>
<line x1="233.82685902179912" y1="620.0" x2="233.82685902179912" y2="630.0" stroke="black" stroke-width="1"/>
<line x1="233.82685902179912" y1="630.0" x2="225.16660498395476" y2="635.0" stroke="black" stroke-width="1"/>
<line x1="225.16660498395476" y1="635.0" x2="216.5063509461104" y2="630.0" stroke="black" stroke-width="1"/>
<line x1="216.5063509461104" y1="630.0" x2="216.5063509461104" y2="640.0" stroke="black" stroke-width="1"/>
<line x1="216.5063509461104" y1="640.0" x2="207.84609690826602" y2="645.0" stroke="black" stroke-width="1"/>
<line x1="207.84609690826602" y1="645.0" x2="199.18584287042165" y2="640.0" stroke="black" stroke-width="1"/>
<line x1="199.18584287042165" y1="640.0" x2="199.18584287042165" y2="630.0" stroke="black" stroke-width="1"/>
<line x1="199.18584287042165" y1="630.0" x2="190.52558883257728" y2="635.0" stroke="black" stroke-width="1"/>
<line x1="190.52558883257728" y1="635.0" x2="181.86533479473292" y2="630.0" stroke="black" stroke-width="1"/>
<line x1="181.86533479473292" y1="630.0" x2="181.86533479473292" y2="640.0" stroke="black" stroke-width="1"/>
<line x1="181.86533479473292" y1="640.0" x2="173.2050807568885" y2="645.0" stroke="black" stroke-width="1"/>
<line x1="173.2050807568885" y1="645.0" x2="181.86533479473292" y2="650.0" stroke="black" stroke-width="1"/>
<line x1="181.86533479473292" y1="650.0" x2="181.86533479473292" y2="660.0" stroke="black" stroke-width="1"/>
<line x1="181.86533479473292" y1="660.0" x2="173.2050807568885" y2="665.0" stroke="black" stroke-width="1"/>
<line x1="173.2050807568885" y1="665.0" x2="164.54482671904407" y2="660.0" stroke="black" stroke-width="1"/>
<line x1="164.54482671904407" y1="660.0" x2="164.54482671904407" y2="670.0" stroke="black" stroke-width="1"/>
<line x1="164.54482671904407" y1="670.0" x2="155.88457268119964" y2="675.0" stroke="black" stroke-width="1"/>
<line x1="155.88457268119964" y1="675.0" x2="164.54482671904407" y2="680.0" stroke="black" stroke-width="1"/>
<line x1="164.54482671904407" y1="680.0" x2="164.54482671904407" y2="690.0" stroke="black" stroke-width="1"/>
<line x1="164.54482671904407" y1="690.0" x2="173.2050807568885" y2="685.0" stroke="black" stroke-width="1"/>
<line x1="173.2050807568885" y1="685.0" x2="181.86533479473292" y2="690.0" stroke="black" stroke-width="1"/>
<line x1="181.86533479473292" y1="690.0" x2="181.86533479473292" y2="700.0" stroke="black" stroke-width="1"/>
<line x1="181.86533479473292" y1="700.0" x2="173.2050807568885" y2="705.0" stroke="black" stroke-width="1"/>
<line x1="173.2050807568885" y1="705.0" x2="181.86533479473292" y2="710.0" stroke="black" stroke-width="1"/>
<line x1="181.86533479473292" y1="710.0" x2="181.86533479473292" y2="720.0" stroke="black" stroke-width="1"/>
<line x1="181.86533479473292" y1="720.0" x2="190.52558883257728" y2="715.0" stroke="black" stroke-width="1"/>
<line x1="190.52558883257728" y1="715.0" x2="199.18584287042165" y2="720.0" stroke="black" stroke-width="1"/>
<line x1="199.18584287042165" y1="720.0" x2="199.18584287042165" y2="710.0" stroke="black" stroke-width="1"/>
<line x1="199.18584287042165" y1="710.0" x2="207.84609690826602" y2="705.0" stroke="black" stroke-width="1"/>
<line x1="207.84609690826602" y1="705.0" x2="216.5063509461104" y2="710.0" stroke="black" stroke-width="1"/>
<line x1="216.5063509461104" y1="710.0" x2="216.5063509461104" y2="720.0" stroke="black" stroke-width="1"/>
<line x1="216.5063509461104" y1="720.0" x2="225.16660498395476" y2="715.0" stroke="black" stroke-width="1"/>
<line x1="225.16660498395476" y1="715.0" x2="233.82685902179912" y2="720.0" stroke="black" stroke-width="1"/>
<line x1="233.82685902179912" y1="720.0" x2="233.82685902179912" y2="730.0" stroke="black" stroke-width="1"/>
<line x1="233.82685902179912" y1="730.0" x2="225.16660498395476" y2="735.0" stroke="black" stroke-width="1"/>
<line x1="225.16660498395476" y1="735.0" x2="233.82685902179912" y2="740.0" stroke="black" stroke-width="1"/>
<line x1="233.82685902179912" y1="740.0" x2="233.82685902179912" y2="750.0" stroke="black" stroke-width="1"/>
<line x1="233.82685902179912" y1="750.0" x2="225.16660498395476" y2="755.0" stroke="black" stroke-width="1"/>
<line x1="225.16660498395476" y1="755.0" x2="216.5063509461104" y2="750.0" stroke="black" stroke-width="1"/>
<line x1="216.5063509461104" y1="750.0" x2="216.5063509461104" y2="760.0" stroke="black" stroke-width="1"/>
<line x1="216.5063509461104" y1="760.0" x2="207.84609690826602" y2="765.0" stroke="black" stroke-width="1"/>
<line x1="207.84609690826602" y1="765.0" x2="216.5063509461104" y2="770.0" stroke="black" stroke-width="1"/>
<line x1="216.5063509461104" y1="770.0" x2="216.5063509461104" y2="780.0" stroke="black" stroke-width="1"/>
<line x1="216.5063509461104" y1="780.0" x2="225.16660498395476" y2="775.0" stroke="black" stroke-width="1"/>
<line x1="225.16660498395476" y1="775.0" x2="233.82685902179912" y2="780.0" stroke="black" stroke-width="1"/>
<line x1="233.82685902179912" y1="780.0" x2="233.82685902179912" y2="790.0" stroke="black" stroke-width="1"/>
<line x1="233.82685902179912" y1="790.0" x2="225.16660498395476" y2="795.0" stroke="black" stroke-width="1"/>
<line x1="225.16660498395476" y1="795.0" x2="233.82685902179912" y2="800.0" stroke="black" stroke-width="1"/>
<line x1="233.82685902179912" y1="800.0" x2="233.82685902179912" y2="810.0" stroke="black" stroke-width="1"/>
<line x1="233.82685902179912" y1="810.0" x2="242.4871130596435" y2="805.0" stroke="black" stroke-width="1"/>
<line x1="242.4871130596435" y1="805.0" x2="251.14736709748786" y2="810.0" stroke="black" stroke-width="1"/>
<line x1="251.14736709748786" y1="810.0" x2="251.14736709748786" y2="800.0" stroke="black" stroke-width="1"/>
<line x1="251.14736709748786" y1="800.0" x2="259.8076211353322" y2="795.0" stroke="black" stroke-width="1"/>
<line x1="259.8076211353322" y1="795.0" x2="268.4678751731766" y2="800.0" stroke="black" stroke-width="1"/>
<line x1="268.4678751731766" y1="800.0" x2="268.4678751731766" y2="810.0" stroke="black" stroke-width="1"/>
<line x1="268.4678751731766" y1="810.0" x2="277.12812921102096" y2="805.0" stroke="black" stroke-width="1"/>
<line x1="277.12812921102096" y1="805.0" x2="285.78838324886533" y2="810.0" stroke="black" stroke-width="1"/>
<line x1="285.78838324886533" y1="810.0" x2="285.78838324886533" y2="800.0" stroke="black" stroke-width="1"/>
<line x1="285.78838324886533" y1="800.0" x2="294.4486372867097" y2="795.0" stroke="black" stroke-width="1"/>
<line x1="294.4486372867097" y1="795.0" x2="285.78838324886533" y2="790.0" stroke="black" stroke-width="1"/>
<line x1="285.78838324886533" y1="790.0" x2="285.78838324886533" y2="780.0" stroke="black" stroke-width="1"/>
<line x1="285.78838324886533" y1="780.0" x2="294.4486372867097" y2="775.0" stroke="black" stroke-width="1"/>
<line x1="294.4486372867097" y1="775.0" x2="303.10889132455407" y2="780.0" stroke="black" stroke-width="1"/>
<line x1="303.10889132455407" y1="780.0" x2="303.10889132455407" y2="770.0" stroke="black" stroke-width="1"/>
<line x1="303.10889132455407" y1="770.0" x2="311.76914536239843" y2="765.0" stroke="black" stroke-width="1"/>
<line x1="311.76914536239843" y1="765.0" x2="320.4293994002428" y2="770.0" stroke="black" stroke-width="1"/>
<line x1="320.4293994002428" y1="770.0" x2="320.4293994002428" y2="780.0" stroke="black" stroke-width="1"/>
<line x1="320.4293994002428" y1="780.0" x2="329.08965343808717" y2="775.0" stroke="black" stroke-width="1"/>
<line x1="329.08965343808717" y1="775.0" x2="337.74990747593154" y2="780.0" stroke="black" stroke-width="1"/>
<line x1="337.74990747593154" y1="780.0" x2="337.74990747593154" y2="790.0" stroke="black" stroke-width="1"/>
<line x1="337.74990747593154" y1="790.0" x2="329.08965343808717" y2="795.0" stroke="black" stroke-width="1"/>
<line x1="329.08965343808717" y1="795.0" x2="337.74990747593154" y2="800.0" stroke="black" stroke-width="1"/>
<line x1="337.74990747593154" y1="800.0" x2="337.74990747593154" y2="810.0" stroke="black" stroke-width="1"/>
<line x1="337.74990747593154" y1="810.0" x2="346.4101615137759" y2="805.0" stroke="black" stroke-width="1"/>
<line x1="346.4101615137759" y1="805.0" x2="355.0704155516203" y2="810.0" stroke="black" stroke-width="1"/>
<line x1="355.0704155516203" y1="810.0" x2="355.0704155516203" y2="800.0" stroke="black" stroke-width="1"/>
<line x1="355.0704155516203" y1="800.0" x2="363.73066958946464" y2="795.0" stroke="black" stroke-width="1"/>
<line x1="363.73066958946464" y1="795.0" x2="372.390923627309" y2="800.0" stroke="black" stroke-width="1"/>
<line x1="372.390923627309" y1="800.0" x2="372.390923627309" y2="810.0" stroke="black" stroke-width="1"/>
<line x1="372.390923627309" y1="810.0" x2="381.0511776651534" y2="805.0" stroke="black" stroke-width="1"/>
<line x1="381.0511776651534" y1="805.0" x2="389.71143170299774" y2="810.0" stroke="black" stroke-width="1"/>
<line x1="389.71143170299774" y1="810.0" x2="389.71143170299774" y2="800.0" stroke="black" stroke-width="1"/>
<line x1="389.71143170299774" y1="800.0" x2="398.3716857408421" y2="795.0" stroke="black" stroke-width="1"/>
<line x1="398.3716857408421" y1="795.0" x2="389.71143170299774" y2="790.0" stroke="black" stroke-width="1"/>
<line x1="389.71143170299774" y1="790.0" x2="389.71143170299774" y2="780.0" stroke="black" stroke-width="1"/>
<line x1="389.71143170299774" y1="780.0" x2="398.3716857408421" y2="775.0" stroke="black" stroke-width="1"/>
<line x1="398.3716857408421" y1="775.0" x2="407.0319397786865" y2="780.0" stroke="black" stroke-width="1"/>
<line x1="407.0319397786865" y1="780.0" x2="407.0319397786865" y2="770.0" stroke="black" stroke-width="1"/>
<line x1="407.0319397786865" y1="770.0" x2="415.69219381653085" y2="765.0" stroke="black" stroke-width="1"/>
<line x1="415.69219381653085" y1="765.0" x2="407.0319397786865" y2="760.0" stroke="black" stroke-width="1"/>
<line x1="407.0319397786865" y1="760.0" x2="407.0319397786865" y2="750.0" stroke="black" stroke-width="1"/>
<line x1="407.0319397786865" y1="750.0" x2="398.3716857408421" y2="755.0" stroke="black" stroke-width="1"/>
<line x1="398.3716857408421" y1="755.0" x2="389.71143170299774" y2="750.0" stroke="black" stroke-width="1"/>
<line x1="389.71143170299774" y1="750.0" x2="389.71143170299774" y2="740.0" stroke="black" stroke-width="1"/>
<line x1="389.71143170299774" y1="740.0" x2="398.3716857408421" y2="735.0" stroke="black" stroke-width="1"/>
<line x1="398.3716857408421" y1="735.0" x2="389.71143170299774" y2="730.0" stroke="black" stroke-width="1"/>
<line x1="389.71143170299774" y1="730.0" x2="389.71143170299774" y2="720.0" stroke="black" stroke-width="1"/>
<line x1="389.71143170299774" y1="720.0" x2="398.3716857408421" y2="715.0" stroke="black" stroke-width="1"/>
<line x1="398.3716857408421" y1="715.0" x2="407.0319397786865" y2="720.0" stroke="black" stroke-width="1"/>
<line x1="407.0319397786865" y1="720.0" x2="407.0319397786865" y2="710.0" stroke="black" stroke-width="1"/>
<line x1="407.0319397786865" y1="710.0" x2="415.69219381653085" y2="705.0" stroke="black" stroke-width="1"/>
<line x1="415.69219381653085" y1="705.0" x2="424.3524478543752" y2="710.0" stroke="black" stroke-width="1"/>
<line x1="424.3524478543752" y1="710.0" x2="424.3524478543752" y2="720.0" stroke="black" stroke-width="1"/>
<line x1="424.3524478543752" y1="720.0" x2="433.0127018922196" y2="715.0" stroke="black" stroke-width="1"/>
<line x1="433.0127018922196" y1="715.0" x2="441.67295593006395" y2="720.0" stroke="black" stroke-width="1"/>
<line x1="441.67295593006395" y1="720.0" x2="441.67295593006395" y2="710.0" stroke="black" stroke-width="1"/>
<line x1="441.67295593006395" y1="710.0" x2="450.3332099679084" y2="705.0" stroke="black" stroke-width="1"/>
<line x1="450.3332099679084" y1="705.0" x2="441.67295593006395" y2="700.0" stroke="black" stroke-width="1"/>
<line x1="441.67295593006395" y1="700.0" x2="441.67295593006395" y2="690.0" stroke="black" stroke-width="1"/>
<line x1="441.67295593006395" y1="690.0" x2="450.3332099679084" y2="685.0" stroke="black" stroke-width="1"/>
<line x1="450.3332099679084" y1="685.0" x2="458.99346400575274" y2="690.0" stroke="black" stroke-width="1"/>
<line x1="458.99346400575274" y1="690.0" x2="458.99346400575274" y2="680.0" stroke="black" stroke-width="1"/>
<line x1="458.99346400575274" y1="680.0" x2="467.6537180435971" y2="675.0" stroke="black" stroke-width="1"/>
<line x1="467.6537180435971" y1="675.0" x2="476.31397208144153" y2="680.0" stroke="black" stroke-width="1"/>
<line x1="476.31397208144153" y1="680.0" x2="476.31397208144153" y2="690.0" stroke="black" stroke-width="1"/>
<line x1="476.31397208144153" y1="690.0" x2="484.97422611928596" y2="685.0" stroke="black" stroke-width="1"/>
<line x1="484.97422611928596" y1="685.0" x2="493.6344801571303" y2="690.0" stroke="black" stroke-width="1"/>
<line x1="493.6344801571303" y1="690.0" x2="493.6344801571303" y2="700.0" stroke="black" stroke-width="1"/>
<line x1="493.6344801571303" y1="700.0" x2="484.97422611928596" y2="705.0" stroke="black" stroke-width="1"/>
<line x1="484.97422611928596" y1="705.0" x2="493.6344801571303" y2="710.0" stroke="black" stroke-width="1"/>
<line x1="493.6344801571303" y1="710.0" x2="493.6344801571303" y2="720.0" stroke="black" stroke-width="1"/>
<line x1="493.6344801571303" y1="720.0" x2="502.2947341949747" y2="715.0" stroke="black" stroke-width="1"/>
<line x1="502.2947341949747" y1="715.0" x2="510.9549882328191" y2="720.0" stroke="black" stroke-width="1"/>
<line x1="510.9549882328191" y1="720.0" x2="510.9549882328191" y2="710.0" stroke="black" stroke-width="1"/>
<line x1="510.9549882328191" y1="710.0" x2="519.6152422706635" y2="705.0" stroke="black" stroke-width="1"/>
<line x1="519.6152422706635" y1="705.0" x2="528.2754963085079" y2="710.0" stroke="black" stroke-width="1"/>
<line x1="528.2754963085079" y1="710.0" x2="528.2754963085079" y2="720.0" stroke="black" stroke-width="1"/>
<line x1="528.2754963085079" y1="720.0" x2="536.9357503463523" y2="715.0" stroke="black" stroke-width="1"/>
<line x1="536.9357503463523" y1="715.0" x2="545.5960043841967" y2="720.0" stroke="black" stroke-width="1"/>
<line x1="545.5960043841967" y1="720.0" x2="545.5960043841967" y2="730.0" stroke="black" stroke-width="1"/>
<line x1="545.5960043841967" y1="730.0" x2="536.9357503463523" y2="735.0" stroke="black" stroke-width="1"/>
<line x1="536.9357503463523" y1="735.0" x2="545.5960043841967" y2="740.0" stroke="black" stroke-width="1"/>
<line x1="545.5960043841967" y1="740.0" x2="545.5960043841967" y2="750.0" stroke="black" stroke-width="1"/>
<line x1="545.5960043841967" y1="750.0" x2="536.9357503463523" y2="755.0" stroke="black" stroke-width="1"/>
<line x1="536.9357503463523" y1="755.0" x2="528.2754963085079" y2="750.0" stroke="black" stroke-width="1"/>
<line x1="528.2754963085079" y1="750.0" x2="528.2754963085079" y2="760.0" stroke="black" stroke-width="1"/>
<line x1="528.2754963085079" y1="760.0" x2="519.6152422706635" y2="765.0" stroke="black" stroke-width="1"/>
<line x1="519.6152422706635" y1="765.0" x2="528.2754963085079" y2="770.0" stroke="black" stroke-width="1"/>
<line x1="528.2754963085079" y1="770.0" x2="528.2754963085079" y2="780.0" stroke="black" stroke-width="1"/>
<line x1="528.2754963085079" y1="780.0" x2="536.9357503463523" y2="775.0" stroke="black" stroke-width="1"/>
<line x1="536.9357503463523" y1="775.0" x2="545.5960043841967" y2="780.0" stroke="black" stroke-width="1"/>
<line x1="545.5960043841967" y1="780.0" x2="545.5960043841967" y2="790.0" stroke="black" stroke-width="1"/>
<line x1="545.5960043841967" y1="790.0" x2="536.9357503463523" y2="795.0" stroke="black" stroke-width="1"/>
<line x1="536.9357503463523" y1="795.0" x2="545.5960043841967" y2="800.0" stroke="black" stroke-width="1"/>
<line x1="545.5960043841967" y1="800.0" x2="545.5960043841967" y2="810.0" stroke="black" stroke-width="1"/>
<line x1="545.5960043841967" y1="810.0" x2="554.2562584220411" y2="805.0" stroke="black" stroke-width="1"/>
<line x1="554.2562584220411" y1="805.0" x2="562.9165124598856" y2="810.0" stroke="black" stroke-width="1"/>
<line x1="562.9165124598856" y1="810.0" x2="562.9165124598856" y2="800.0" stroke="black" stroke-width="1"/>
<line x1="562.9165124598856" y1="800.0" x2="571.5767664977299" y2="795.0" stroke="black" stroke-width="1"/>
<line x1="571.5767664977299" y1="795.0" x2="580.2370205355743" y2="800.0" stroke="black" stroke-width="1"/>
<line x1="580.2370205355743" y1="800.0" x2="580.2370205355743" y2="810.0" stroke="black" stroke-width="1"/>
<line x1="580.2370205355743" y1="810.0" x2="588.8972745734186" y2="805.0" stroke="black" stroke-width="1"/>
<line x1="588.8972745734186" y1="805.0" x2="597.557528611263" y2="810.0" stroke="black" stroke-width="1"/>
<line x1="597.557528611263" y1="810.0" x2="597.557528611263" y2="800.0" stroke="black" stroke-width="1"/>
<line x1="597.557528611263" y1="800.0" x2="606.2177826491074" y2="795.0" stroke="black" stroke-width="1"/>
<line x1="606.2177826491074" y1="795.0" x2="597.557528611263" y2="790.0" stroke="black" stroke-width="1"/>
<line x1="597.557528611263" y1="790.0" x2="597.557528611263" y2="780.0" stroke="black" stroke-width="1"/>
<line x1="597.557528611263" y1="780.0" x2="606.2177826491074" y2="775.0" stroke="black" stroke-width="1"/>
<line x1="606.2177826491074" y1="775.0" x2="614.8780366869518" y2="780.0" stroke="black" stroke-width="1"/>
<line x1="614.8780366869518" y1="780.0" x2="614.8780366869518" y2="770.0" stroke="black" stroke-width="1"/>
<line x1="614.8780366869518" y1="770.0" x2="623.5382907247962" y2="765.0" stroke="black" stroke-width="1"/>
<line x1="623.5382907247962" y1="765.0" x2="632.1985447626406" y2="770.0" stroke="black" stroke-width="1"/>
<line x1="632.1985447626406" y1="770.0" x2="632.1985447626406" y2="780.0" stroke="black" stroke-width="1"/>
<line x1="632.1985447626406" y1="780.0" x2="640.8587988004849" y2="775.0" stroke="black" stroke-width="1"/>
<line x1="640.8587988004849" y1="775.0" x2="649.5190528383293" y2="780.0" stroke="black" stroke-width="1"/>
<line x1="649.5190528383293" y1="780.0" x2="649.5190528383293" y2="790.0" stroke="black" stroke-width="1"/>
<line x1="649.5190528383293" y1="790.0" x2="640.8587988004849" y2="795.0" stroke="black" stroke-width="1"/>
<line x1="640.8587988004849" y1="795.0" x2="649.5190528383293" y2="800.0" stroke="black" stroke-width="1"/>
<line x1="649.5190528383293" y1="800.0" x2="649.5190528383293" y2="810.0" stroke="black" stroke-width="1"/>
<line x1="649.5190528383293" y1="810.0" x2="658.1793068761738" y2="805.0" stroke="black" stroke-width="1"/>
<line x1="658.1793068761738" y1="805.0" x2="666.8395609140181" y2="810.0" stroke="black" stroke-width="1"/>
<line x1="666.8395609140181" y1="810.0" x2="666.8395609140181" y2="800.0" stroke="black" stroke-width="1"/>
<line x1="666.8395609140181" y1="800.0" x2="675.4998149518625" y2="795.0" stroke="black" stroke-width="1"/>
<line x1="675.4998149518625" y1="795.0" x2="684.1600689897069" y2="800.0" stroke="black" stroke-width="1"/>
<line x1="684.1600689897069" y1="800.0" x2="684.1600689897069" y2="810.0" stroke="black" stroke-width="1"/>
<line x1="684.1600689897069" y1="810.0" x2="692.8203230275512" y2="805.0" stroke="black" stroke-width="1"/>
<line x1="692.8203230275512" y1="805.0" x2="701.4805770653957" y2="810.0" stroke="black" stroke-width="1"/>
</svg>
