<svg width="103.92304845413261" height="90.00000000000001" xmlns="http://www.w3.org/2000/svg">
<line x1="77.94228634059945" y1="90.0" x2="77.94228634059945" y2="80.0" stroke="black" stroke-width="1"/>
<line x1="77.94228634059945" y1="80.0" x2="86.60254037844383" y2="75.0" stroke="black" stroke-width="1"/>
<line x1="86.60254037844383" y1="75.0" x2="77.94228634059945" y2="70.0" stroke="black" stroke-width="1"/>
<line x1="77.94228634059945" y1="70.0" x2="77.94228634059945" y2="60.0" stroke="black" stroke-width="1"/>
<line x1="77.94228634059945" y1="60.0" x2="86.60254037844383" y2="55.0" stroke="black" stroke-width="1"/>
<line x1="86.60254037844383" y1="55.0" x2="95.26279441628822" y2="60.0" stroke="black" stroke-width="1"/>
<line x1="95.26279441628822" y1="60.0" x2="95.26279441628822" y2="50.0" stroke="black" stroke-width="1"/>
<line x1="95.26279441628822" y1="50.0" x2="103.92304845413261" y2="45.0" stroke="black" stroke-width="1"/>
<line x1="103.92304845413261" y1="45.0" x2="95.26279441628822" y2="40.0" stroke="black" stroke-width="1"/>
<line x1="95.26279441628822" y1="40.0" x2="95.26279441628822" y2="30.0" stroke="black" stroke-width="1"/>
<line x1="95.26279441628822" y1="30.0" x2="86.60254037844383" y2="35.00000000000001" stroke="black" stroke-width="1"/>
<line x1="86.60254037844383" y1="35.00000000000001" x2="77.94228634059945" y2="30.000000000000007" stroke="black" stroke-width="1"/>
<line x1="77.94228634059945" y1="30.000000000000007" x2="77.94228634059945" y2="20.0" stroke="black" stroke-width="1"/>
<line x1="77.94228634059945" y1="20.0" x2="86.60254037844383" y2="15.0" stroke="black" stroke-width="1"/>
<line x1="86.60254037844383" y1="15.0" x2="77.94228634059945" y2="10.0" stroke="black" stroke-width="1"/>
<line x1="77.94228634059945" y1="10.0" x2="77.94228634059945" y2="0.0" stroke="black" stroke-width="1"/>
<line x1="77.94228634059945" y1="0.0" x2="69.28203230275507" y2="5.0" stroke="black" stroke-width="1"/>
<line x1="69.28203230275507" y1="5.0" x2="60.62177826491069" y2="0.0" stroke="black" stroke-width="1"/>
<line x1="60.62177826491069" y1="0.0" x2="60.62177826491069" y2="10.0" stroke="black" stroke-width="1"/>
<line x1="60.62177826491069" y1="10.0" x2="51.9615242270663" y2="15.0" stroke="black" stroke-width="1"/>
<line x1="51.9615242270663" y1="15.0" x2="43.30127018922191" y2="10.0" stroke="black" stroke-width="1"/>
<line x1="43.30127018922191" y1="10.0" x2="43.30127018922191" y2="0.0" stroke="black" stroke-width="1"/>
<line x1="43.30127018922191" y1="0.0" x2="34.64101615137753" y2="5.0" stroke="black" stroke-width="1"/>
<line x1="34.64101615137753" y1="5.0" x2="25.980762113533146" y2="0.0" stroke="black" stroke-width="1"/>
<line x1="25.980762113533146" y1="0.0" x2="25.980762113533146" y2="10.0" stroke="black" stroke-width="1"/>
<line x1="25.980762113533146" y1="10.0" x2="17.320508075688764" y2="15.0" stroke="black" stroke-width="1"/>
<line x1="17.320508075688764" y1="15.0" x2="25.980762113533153" y2="20.0" stroke="black" stroke-width="1"/>
<line x1="25.980762113533153" y1="20.0" x2="25.980762113533153" y2="30.0" stroke="black" stroke-width="1"/>
<line x1="25.980762113533153" y1="30.0" x2="17.32050807568877" y2="35.00000000000001" stroke="black" stroke-width="1"/>
<line x1="17.32050807568877" y1="35.00000000000001" x2="8.660254037844382" y2="30.000000000000007" stroke="black" stroke-width="1"/>
<line x1="8.660254037844382" y1="30.000000000000007" x2="8.660254037844382" y2="40.00000000000001" stroke="black" stroke-width="1"/>
<line x1="8.660254037844382" y1="40.00000000000001" x2="0.0" y2="45.000000000000014" stroke="black" stroke-width="1"/>
<line x1="0.0" y1="45.000000000000014" x2="8.660254037844382" y2="50.000000000000014" stroke="black" stroke-width="1"/>
<line x1="8.660254037844382" y1="50.000000000000014" x2="8.660254037844382" y2="60.000000000000014" stroke="black" stroke-width="1"/>
<line x1="8.660254037844382" y1="60.000000000000014" x2="17.320508075688764" y2="55.000000000000014" stroke="black" stroke-width="1"/>
<line x1="17.320508075688764" y1="55.000000000000014" x2="25.980762113533153" y2="60.000000000000014" stroke="black" stroke-width="1"/>
<line x1="25.980762113533153" y1="60.000000000000014" x2="25.980762113533153" y2="70.00000000000001" stroke="black" stroke-width="1"/>
<line x1="25.980762113533153" y1="70.00000000000001" x2="17.32050807568877" y2="75.00000000000001" stroke="black" stroke-width="1"/>
<line x1="17.32050807568877" y1="75.00000000000001" x2="25.98076211353316" y2="80.00000000000001" stroke="black" stroke-width="1"/>
<line x1="25.98076211353316" y1="80.00000000000001" x2="25.98076211353316" y2="90.00000000000001" stroke="black" stroke-width="1"/>
<line x1="25.98076211353316" y1="90.00000000000001" x2="34.64101615137754" y2="85.00000000000001" stroke="black" stroke-width="1"/>
<line x1="34.64101615137754" y1="85.00000000000001" x2="43.30127018922193" y2="90.00000000000001" stroke="black" stroke-width="1"/>
<line x1="43.30127018922193" y1="90.00000000000001" x2="43.30127018922193" y2="80.00000000000001" stroke="black" stroke-width="1"/>
<line x1="43.30127018922193" y1="80.00000000000001" x2="51.96152422706632" y2="75.00000000000001" stroke="black" stroke-width="1"/>
<line x1="51.96152422706632" y1="75.00000000000001" x2="60.6217782649107" y2="80.00000000000001" stroke="black" stroke-width="1"/>
<line x1="60.6217782649107" y1="80.00000000000001" x2="60.6217782649107" y2="90.00000000000001" stroke="black" stroke-width="1"/>
<line x1="60.6217782649107" y1="90.00000000000001" x2="69.28203230275508" y2="85.00000000000001" stroke="black" stroke-width="1"/>
<line x1="69.28203230275508" y1="85.00000000000001" x2="77.94228634059948" y2="90.00000000000001" stroke="black" stroke-width="1"/>
</svg>
