<svg width="545.5960043841961" height="640.0" xmlns="http://www.w3.org/2000/svg">
<line x1="0" y1="640.0" x2="0.0" y2="630.0" stroke="black" stroke-width="1"/>
<line x1="0.0" y1="630.0" x2="8.660254037844386" y2="625.0" stroke="black" stroke-width="1"/>
<line x1="8.660254037844386" y1="625.0" x2="17.32050807568877" y2="630.0" stroke="black" stroke-width="1"/>
<line x1="17.32050807568877" y1="630.0" x2="25.980762113533157" y2="625.0" stroke="black" stroke-width="1"/>
<line x1="25.980762113533157" y1="625.0" x2="25.980762113533157" y2="615.0" stroke="black" stroke-width="1"/>
<line x1="25.980762113533157" y1="615.0" x2="17.32050807568877" y2="610.0" stroke="black" stroke-width="1"/>
<line x1="17.32050807568877" y1="610.0" x2="8.660254037844387" y2="615.0" stroke="black" stroke-width="1"/>
<line x1="8.660254037844387" y1="615.0" x2="1.7763568394002505e-15" y2="610.0" stroke="black" stroke-width="1"/>
<line x1="1.7763568394002505e-15" y1="610.0" x2="1.7763568394002505e-15" y2="600.0" stroke="black" stroke-width="1"/>
<line x1="1.7763568394002505e-15" y1="600.0" x2="8.660254037844387" y2="595.0" stroke="black" stroke-width="1"/>
<line x1="8.660254037844387" y1="595.0" x2="8.660254037844387" y2="585.0" stroke="black" stroke-width="1"/>
<line x1="8.660254037844387" y1="585.0" x2="1.7763568394002505e-15" y2="580.0" stroke="black" stroke-width="1"/>
<line x1="1.7763568394002505e-15" y1="580.0" x2="1.7763568394002505e-15" y2="570.0" stroke="black" stroke-width="1"/>
<line x1="1.7763568394002505e-15" y1="570.0" x2="8.660254037844387" y2="565.0" stroke="black" stroke-width="1"/>
<line x1="8.660254037844387" y1="565.0" x2="17.320508075688775" y2="570.0" stroke="black" stroke-width="1"/>
<line x1="17.320508075688775" y1="570.0" x2="17.320508075688775" y2="580.0" stroke="black" stroke-width="1"/>
<line x1="17.320508075688775" y1="580.0" x2="25.98076211353316" y2="585.0" stroke="black" stroke-width="1"/>
<line x1="25.98076211353316" y1="585.0" x2="34.64101615137754" y2="580.0" stroke="black" stroke-width="1"/>
<line x1="34.64101615137754" y1="580.0" x2="43.30127018922193" y2="585.0" stroke="black" stroke-width="1"/>
<line x1="43.30127018922193" y1="585.0" x2="43.30127018922193" y2="595.0" stroke="black" stroke-width="1"/>
<line x1="43.30127018922193" y1="595.0" x2="34.64101615137755" y2="600.0" stroke="black" stroke-width="1"/>
<line x1="34.64101615137755" y1="600.0" x2="34.64101615137755" y2="610.0" stroke="black" stroke-width="1"/>
<line x1="34.64101615137755" y1="610.0" x2="43.30127018922194" y2="615.0" stroke="black" stroke-width="1"/>
<line x1="43.30127018922194" y1="615.0" x2="51.96152422706632" y2="610.0" stroke="black" stroke-width="1"/>
<line x1="51.96152422706632" y1="610.0" x2="51.96152422706632" y2="600.0" stroke="black" stroke-width="1"/>
<line x1="51.96152422706632" y1="600.0" x2="60.6217782649107" y2="595.0" stroke="black" stroke-width="1"/>
<line x1="60.6217782649107" y1="595.0" x2="69.28203230275508" y2="600.0" stroke="black" stroke-width="1"/>
<line x1="69.28203230275508" y1="600.0" x2="77.94228634059947" y2="595.0" stroke="black" stroke-width="1"/>
<line x1="77.94228634059947" y1="595.0" x2="77.94228634059947" y2="585.0" stroke="black" stroke-width="1"/>
<line x1="77.94228634059947" y1="585.0" x2="69.28203230275508" y2="580.0" stroke="black" stroke-width="1"/>
<line x1="69.28203230275508" y1="580.0" x2="69.28203230275508" y2="570.0" stroke="black" stroke-width="1"/>
<line x1="69.28203230275508" y1="570.0" x2="77.94228634059947" y2="565.0" stroke="black" stroke-width="1"/>
<line x1="77.94228634059947" y1="565.0" x2="86.60254037844385" y2="570.0" stroke="black" stroke-width="1"/>
<line x1="86.60254037844385" y1="570.0" x2="86.60254037844385" y2="580.0" stroke="black" stroke-width="1"/>
<line x1="86.60254037844385" y1="580.0" x2="95.26279441628823" y2="585.0" stroke="black" stroke-width="1"/>
<line x1="95.26279441628823" y1="585.0" x2="103.92304845413261" y2="580.0" stroke="black" stroke-width="1"/>
<line x1="103.92304845413261" y1="580.0" x2="103.92304845413261" y2="570.0" stroke="black" stroke-width="1"/>
<line x1="103.92304845413261" y1="570.0" x2="112.583302491977" y2="565.0" stroke="black" stroke-width="1"/>
<line x1="112.583302491977" y1="565.0" x2="121.24355652982138" y2="570.0" stroke="black" stroke-width="1"/>
<line x1="121.24355652982138" y1="570.0" x2="129.90381056766577" y2="565.0" stroke="black" stroke-width="1"/>
<line x1="129.90381056766577" y1="565.0" x2="129.90381056766577" y2="555.0" stroke="black" stroke-width="1"/>
<line x1="129.90381056766577" y1="555.0" x2="121.24355652982139" y2="550.0" stroke="black" stroke-width="1"/>
<line x1="121.24355652982139" y1="550.0" x2="112.58330249197701" y2="555.0" stroke="black" stroke-width="1"/>
<line x1="112.58330249197701" y1="555.0" x2="103.92304845413263" y2="550.0" stroke="black" stroke-width="1"/>
<line x1="103.92304845413263" y1="550.0" x2="103.92304845413263" y2="540.0" stroke="black" stroke-width="1"/>
<line x1="103.92304845413263" y1="540.0" x2="95.26279441628824" y2="535.0" stroke="black" stroke-width="1"/>
<line x1="95.26279441628824" y1="535.0" x2="86.60254037844386" y2="540.0" stroke="black" stroke-width="1"/>
<line x1="86.60254037844386" y1="540.0" x2="86.60254037844386" y2="550.0" stroke="black" stroke-width="1"/>
<line x1="86.60254037844386" y1="550.0" x2="77.94228634059948" y2="555.0" stroke="black" stroke-width="1"/>
<line x1="77.94228634059948" y1="555.0" x2="69.2820323027551" y2="550.0" stroke="black" stroke-width="1"/>
<line x1="69.2820323027551" y1="550.0" x2="69.2820323027551" y2="540.0" stroke="black" stroke-width="1"/>
<line x1="69.2820323027551" y1="540.0" x2="77.94228634059948" y2="535.0" stroke="black" stroke-width="1"/>
<line x1="77.94228634059948" y1="535.0" x2="77.94228634059948" y2="525.0" stroke="black" stroke-width="1"/>
<line x1="77.94228634059948" y1="525.0" x2="69.2820323027551" y2="520.0" stroke="black" stroke-width="1"/>
<line x1="69.2820323027551" y1="520.0" x2="60.621778264910716" y2="525.0" stroke="black" stroke-width="1"/>
<line x1="60.621778264910716" y1="525.0" x2="51.961524227066334" y2="520.0" stroke="black" stroke-width="1"/>
<line x1="51.961524227066334" y1="520.0" x2="51.961524227066334" y2="510.0" stroke="black" stroke-width="1"/>
<line x1="51.961524227066334" y1="510.0" x2="43.30127018922195" y2="505.0" stroke="black" stroke-width="1"/>
<line x1="43.30127018922195" y1="505.0" x2="34.64101615137757" y2="510.0" stroke="black" stroke-width="1"/>
<line x1="34.64101615137757" y1="510.0" x2="34.64101615137757" y2="520.0" stroke="black" stroke-width="1"/>
<line x1="34.64101615137757" y1="520.0" x2="43.30127018922196" y2="525.0" stroke="black" stroke-width="1"/>
<line x1="43.30127018922196" y1="525.0" x2="43.30127018922196" y2="535.0" stroke="black" stroke-width="1"/>
<line x1="43.30127018922196" y1="535.0" x2="34.64101615137758" y2="540.0" stroke="black" stroke-width="1"/>
<line x1="34.64101615137758" y1="540.0" x2="25.980762113533192" y2="535.0" stroke="black" stroke-width="1"/>
<line x1="25.980762113533192" y1="535.0" x2="17.320508075688807" y2="540.0" stroke="black" stroke-width="1"/>
<line x1="17.320508075688807" y1="540.0" x2="17.320508075688807" y2="550.0" stroke="black" stroke-width="1"/>
<line x1="17.320508075688807" y1="550.0" x2="8.660254037844423" y2="555.0" stroke="black" stroke-width="1"/>
<line x1="8.660254037844423" y1="555.0" x2="3.730349362740526e-14" y2="550.0" stroke="black" stroke-width="1"/>
<line x1="3.730349362740526e-14" y1="550.0" x2="3.730349362740526e-14" y2="540.0" stroke="black" stroke-width="1"/>
<line x1="3.730349362740526e-14" y1="540.0" x2="8.660254037844423" y2="535.0" stroke="black" stroke-width="1"/>
<line x1="8.660254037844423" y1="535.0" x2="8.660254037844423" y2="525.0" stroke="black" stroke-width="1"/>
<line x1="8.660254037844423" y1="525.0" x2="3.730349362740526e-14" y2="520.0" stroke="black" stroke-width="1"/>
<line x1="3.730349362740526e-14" y1="520.0" x2="3.730349362740526e-14" y2="510.0" stroke="black" stroke-width="1"/>
<line x1="3.730349362740526e-14" y1="510.0" x2="8.660254037844423" y2="505.0" stroke="black" stroke-width="1"/>
<line x1="8.660254037844423" y1="505.0" x2="17.32050807568881" y2="510.0" stroke="black" stroke-width="1"/>
<line x1="17.32050807568881" y1="510.0" x2="25.980762113533196" y2="505.0" stroke="black" stroke-width="1"/>
<line x1="25.980762113533196" y1="505.0" x2="25.980762113533196" y2="495.0" stroke="black" stroke-width="1"/>
<line x1="25.980762113533196" y1="495.0" x2="17.32050807568881" y2="490.0" stroke="black" stroke-width="1"/>
<line x1="17.32050807568881" y1="490.0" x2="8.660254037844426" y2="495.0" stroke="black" stroke-width="1"/>
<line x1="8.660254037844426" y1="495.0" x2="4.085620730620576e-14" y2="490.0" stroke="black" stroke-width="1"/>
<line x1="4.085620730620576e-14" y1="490.0" x2="4.085620730620576e-14" y2="480.0" stroke="black" stroke-width="1"/>
<line x1="4.085620730620576e-14" y1="480.0" x2="8.660254037844426" y2="475.0" stroke="black" stroke-width="1"/>
<line x1="8.660254037844426" y1="475.0" x2="8.660254037844426" y2="465.0" stroke="black" stroke-width="1"/>
<line x1="8.660254037844426" y1="465.0" x2="4.085620730620576e-14" y2="460.0" stroke="black" stroke-width="1"/>
<line x1="4.085620730620576e-14" y1="460.0" x2="4.085620730620576e-14" y2="450.0" stroke="black" stroke-width="1"/>
<line x1="4.085620730620576e-14" y1="450.0" x2="8.660254037844426" y2="445.0" stroke="black" stroke-width="1"/>
<line x1="8.660254037844426" y1="445.0" x2="17.320508075688814" y2="450.0" stroke="black" stroke-width="1"/>
<line x1="17.320508075688814" y1="450.0" x2="17.320508075688814" y2="460.0" stroke="black" stroke-width="1"/>
<line x1="17.320508075688814" y1="460.0" x2="25.980762113533203" y2="465.0" stroke="black" stroke-width="1"/>
<line x1="25.980762113533203" y1="465.0" x2="34.641016151377585" y2="460.0" stroke="black" stroke-width="1"/>
<line x1="34.641016151377585" y1="460.0" x2="34.641016151377585" y2="450.0" stroke="black" stroke-width="1"/>
<line x1="34.641016151377585" y1="450.0" x2="43.30127018922197" y2="445.0" stroke="black" stroke-width="1"/>
<line x1="43.30127018922197" y1="445.0" x2="51.961524227066356" y2="450.0" stroke="black" stroke-width="1"/>
<line x1="51.961524227066356" y1="450.0" x2="60.621778264910745" y2="445.0" stroke="black" stroke-width="1"/>
<line x1="60.621778264910745" y1="445.0" x2="60.621778264910745" y2="435.0" stroke="black" stroke-width="1"/>
<line x1="60.621778264910745" y1="435.0" x2="51.96152422706636" y2="430.0" stroke="black" stroke-width="1"/>
<line x1="51.96152422706636" y1="430.0" x2="43.30127018922198" y2="435.0" stroke="black" stroke-width="1"/>
<line x1="43.30127018922198" y1="435.0" x2="34.6410161513776" y2="430.0" stroke="black" stroke-width="1"/>
<line x1="34.6410161513776" y1="430.0" x2="34.6410161513776" y2="420.0" stroke="black" stroke-width="1"/>
<line x1="34.6410161513776" y1="420.0" x2="25.980762113533213" y2="415.0" stroke="black" stroke-width="1"/>
<line x1="25.980762113533213" y1="415.0" x2="17.320508075688828" y2="420.0" stroke="black" stroke-width="1"/>
<line x1="17.320508075688828" y1="420.0" x2="17.320508075688828" y2="430.0" stroke="black" stroke-width="1"/>
<line x1="17.320508075688828" y1="430.0" x2="8.660254037844444" y2="435.0" stroke="black" stroke-width="1"/>
<line x1="8.660254037844444" y1="435.0" x2="5.861977570020827e-14" y2="430.0" stroke="black" stroke-width="1"/>
<line x1="5.861977570020827e-14" y1="430.0" x2="5.861977570020827e-14" y2="420.0" stroke="black" stroke-width="1"/>
<line x1="5.861977570020827e-14" y1="420.0" x2="8.660254037844444" y2="415.0" stroke="black" stroke-width="1"/>
<line x1="8.660254037844444" y1="415.0" x2="8.660254037844444" y2="405.0" stroke="black" stroke-width="1"/>
<line x1="8.660254037844444" y1="405.0" x2="5.861977570020827e-14" y2="400.0" stroke="black" stroke-width="1"/>
<line x1="5.861977570020827e-14" y1="400.0" x2="5.861977570020827e-14" y2="390.0" stroke="black" stroke-width="1"/>
<line x1="5.861977570020827e-14" y1="390.0" x2="8.660254037844444" y2="385.0" stroke="black" stroke-width="1"/>
<line x1="8.660254037844444" y1="385.0" x2="17.32050807568883" y2="390.0" stroke="black" stroke-width="1"/>
<line x1="17.32050807568883" y1="390.0" x2="25.980762113533217" y2="385.0" stroke="black" stroke-width="1"/>
<line x1="25.980762113533217" y1="385.0" x2="25.980762113533217" y2="375.0" stroke="black" stroke-width="1"/>
<line x1="25.980762113533217" y1="375.0" x2="17.32050807568883" y2="370.0" stroke="black" stroke-width="1"/>
<line x1="17.32050807568883" y1="370.0" x2="8.660254037844448" y2="375.0" stroke="black" stroke-width="1"/>
<line x1="8.660254037844448" y1="375.0" x2="6.217248937900877e-14" y2="370.0" stroke="black" stroke-width="1"/>
<line x1="6.217248937900877e-14" y1="370.0" x2="6.217248937900877e-14" y2="360.0" stroke="black" stroke-width="1"/>
<line x1="6.217248937900877e-14" y1="360.0" x2="8.660254037844448" y2="355.0" stroke="black" stroke-width="1"/>
<line x1="8.660254037844448" y1="355.0" x2="8.660254037844448" y2="345.0" stroke="black" stroke-width="1"/>
<line x1="8.660254037844448" y1="345.0" x2="6.217248937900877e-14" y2="340.0" stroke="black" stroke-width="1"/>
<line x1="6.217248937900877e-14" y1="340.0" x2="6.217248937900877e-14" y2="330.0" stroke="black" stroke-width="1"/>
<line x1="6.217248937900877e-14" y1="330.0" x2="8.660254037844448" y2="325.0" stroke="black" stroke-width="1"/>
<line x1="8.660254037844448" y1="325.0" x2="17.320508075688835" y2="330.0" stroke="black" stroke-width="1"/>
<line x1="17.320508075688835" y1="330.0" x2="17.320508075688835" y2="340.0" stroke="black" stroke-width="1"/>
<line x1="17.320508075688835" y1="340.0" x2="25.980762113533224" y2="345.0" stroke="black" stroke-width="1"/>
<line x1="25.980762113533224" y1="345.0" x2="34.64101615137761" y2="340.0" stroke="black" stroke-width="1"/>
<line x1="34.64101615137761" y1="340.0" x2="43.301270189222" y2="345.0" stroke="black" stroke-width="1"/>
<line x1="43.301270189222" y1="345.0" x2="43.301270189222" y2="355.0" stroke="black" stroke-width="1"/>
<line x1="43.301270189222" y1="355.0" x2="34.64101615137762" y2="360.0" stroke="black" stroke-width="1"/>
<line x1="34.64101615137762" y1="360.0" x2="34.64101615137762" y2="370.0" stroke="black" stroke-width="1"/>
<line x1="34.64101615137762" y1="370.0" x2="43.30127018922201" y2="375.0" stroke="black" stroke-width="1"/>
<line x1="43.30127018922201" y1="375.0" x2="51.96152422706639" y2="370.0" stroke="black" stroke-width="1"/>
<line x1="51.96152422706639" y1="370.0" x2="51.96152422706639" y2="360.0" stroke="black" stroke-width="1"/>
<line x1="51.96152422706639" y1="360.0" x2="60.62177826491077" y2="355.0" stroke="black" stroke-width="1"/>
<line x1="60.62177826491077" y1="355.0" x2="69.28203230275516" y2="360.0" stroke="black" stroke-width="1"/>
<line x1="69.28203230275516" y1="360.0" x2="69.28203230275516" y2="370.0" stroke="black" stroke-width="1"/>
<line x1="69.28203230275516" y1="370.0" x2="77.94228634059954" y2="375.0" stroke="black" stroke-width="1"/>
<line x1="77.94228634059954" y1="375.0" x2="86.60254037844392" y2="370.0" stroke="black" stroke-width="1"/>
<line x1="86.60254037844392" y1="370.0" x2="95.2627944162883" y2="375.0" stroke="black" stroke-width="1"/>
<line x1="95.2627944162883" y1="375.0" x2="95.2627944162883" y2="385.0" stroke="black" stroke-width="1"/>
<line x1="95.2627944162883" y1="385.0" x2="86.60254037844392" y2="390.0" stroke="black" stroke-width="1"/>
<line x1="86.60254037844392" y1="390.0" x2="77.94228634059954" y2="385.0" stroke="black" stroke-width="1"/>
<line x1="77.94228634059954" y1="385.0" x2="69.28203230275516" y2="390.0" stroke="black" stroke-width="1"/>
<line x1="69.28203230275516" y1="390.0" x2="69.28203230275516" y2="400.0" stroke="black" stroke-width="1"/>
<line x1="69.28203230275516" y1="400.0" x2="77.94228634059954" y2="405.0" stroke="black" stroke-width="1"/>
<line x1="77.94228634059954" y1="405.0" x2="77.94228634059954" y2="415.0" stroke="black" stroke-width="1"/>
<line x1="77.94228634059954" y1="415.0" x2="69.28203230275516" y2="420.0" stroke="black" stroke-width="1"/>
<line x1="69.28203230275516" y1="420.0" x2="69.28203230275516" y2="430.0" stroke="black" stroke-width="1"/>
<line x1="69.28203230275516" y1="430.0" x2="77.94228634059954" y2="435.0" stroke="black" stroke-width="1"/>
<line x1="77.94228634059954" y1="435.0" x2="86.60254037844392" y2="430.0" stroke="black" stroke-width="1"/>
<line x1="86.60254037844392" y1="430.0" x2="86.60254037844392" y2="420.0" stroke="black" stroke-width="1"/>
<line x1="86.60254037844392" y1="420.0" x2="95.2627944162883" y2="415.0" stroke="black" stroke-width="1"/>
<line x1="95.2627944162883" y1="415.0" x2="103.92304845413268" y2="420.0" stroke="black" stroke-width="1"/>
<line x1="103.92304845413268" y1="420.0" x2="112.58330249197707" y2="415.0" stroke="black" stroke-width="1"/>
<line x1="112.58330249197707" y1="415.0" x2="112.58330249197707" y2="405.0" stroke="black" stroke-width="1"/>
<line x1="112.58330249197707" y1="405.0" x2="103.92304845413268" y2="400.0" stroke="black" stroke-width="1"/>
<line x1="103.92304845413268" y1="400.0" x2="103.92304845413268" y2="390.0" stroke="black" stroke-width="1"/>
<line x1="103.92304845413268" y1="390.0" x2="112.58330249197707" y2="385.0" stroke="black" stroke-width="1"/>
<line x1="112.58330249197707" y1="385.0" x2="121.24355652982145" y2="390.0" stroke="black" stroke-width="1"/>
<line x1="121.24355652982145" y1="390.0" x2="121.24355652982145" y2="400.0" stroke="black" stroke-width="1"/>
<line x1="121.24355652982145" y1="400.0" x2="129.90381056766583" y2="405.0" stroke="black" stroke-width="1"/>
<line x1="129.90381056766583" y1="405.0" x2="138.56406460551023" y2="400.0" stroke="black" stroke-width="1"/>
<line x1="138.56406460551023" y1="400.0" x2="147.22431864335462" y2="405.0" stroke="black" stroke-width="1"/>
<line x1="147.22431864335462" y1="405.0" x2="147.22431864335462" y2="415.0" stroke="black" stroke-width="1"/>
<line x1="147.22431864335462" y1="415.0" x2="138.56406460551023" y2="420.0" stroke="black" stroke-width="1"/>
<line x1="138.56406460551023" y1="420.0" x2="138.56406460551023" y2="430.0" stroke="black" stroke-width="1"/>
<line x1="138.56406460551023" y1="430.0" x2="147.22431864335462" y2="435.0" stroke="black" stroke-width="1"/>
<line x1="147.22431864335462" y1="435.0" x2="155.88457268119902" y2="430.0" stroke="black" stroke-width="1"/>
<line x1="155.88457268119902" y1="430.0" x2="155.88457268119902" y2="420.0" stroke="black" stroke-width="1"/>
<line x1="155.88457268119902" y1="420.0" x2="164.5448267190434" y2="415.0" stroke="black" stroke-width="1"/>
<line x1="164.5448267190434" y1="415.0" x2="173.2050807568878" y2="420.0" stroke="black" stroke-width="1"/>
<line x1="173.2050807568878" y1="420.0" x2="173.2050807568878" y2="430.0" stroke="black" stroke-width="1"/>
<line x1="173.2050807568878" y1="430.0" x2="181.8653347947322" y2="435.0" stroke="black" stroke-width="1"/>
<line x1="181.8653347947322" y1="435.0" x2="190.5255888325766" y2="430.0" stroke="black" stroke-width="1"/>
<line x1="190.5255888325766" y1="430.0" x2="199.185842870421" y2="435.0" stroke="black" stroke-width="1"/>
<line x1="199.185842870421" y1="435.0" x2="199.185842870421" y2="445.0" stroke="black" stroke-width="1"/>
<line x1="199.185842870421" y1="445.0" x2="190.5255888325766" y2="450.0" stroke="black" stroke-width="1"/>
<line x1="190.5255888325766" y1="450.0" x2="181.8653347947322" y2="445.0" stroke="black" stroke-width="1"/>
<line x1="181.8653347947322" y1="445.0" x2="173.2050807568878" y2="450.0" stroke="black" stroke-width="1"/>
<line x1="173.2050807568878" y1="450.0" x2="173.2050807568878" y2="460.0" stroke="black" stroke-width="1"/>
<line x1="173.2050807568878" y1="460.0" x2="164.5448267190434" y2="465.0" stroke="black" stroke-width="1"/>
<line x1="164.5448267190434" y1="465.0" x2="155.88457268119902" y2="460.0" stroke="black" stroke-width="1"/>
<line x1="155.88457268119902" y1="460.0" x2="155.88457268119902" y2="450.0" stroke="black" stroke-width="1"/>
<line x1="155.88457268119902" y1="450.0" x2="147.22431864335462" y2="445.0" stroke="black" stroke-width="1"/>
<line x1="147.22431864335462" y1="445.0" x2="138.56406460551023" y2="450.0" stroke="black" stroke-width="1"/>
<line x1="138.56406460551023" y1="450.0" x2="138.56406460551023" y2="460.0" stroke="black" stroke-width="1"/>
<line x1="138.56406460551023" y1="460.0" x2="147.22431864335462" y2="465.0" stroke="black" stroke-width="1"/>
<line x1="147.22431864335462" y1="465.0" x2="147.22431864335462" y2="475.0" stroke="black" stroke-width="1"/>
<line x1="147.22431864335462" y1="475.0" x2="138.56406460551023" y2="480.0" stroke="black" stroke-width="1"/>
<line x1="138.56406460551023" y1="480.0" x2="138.56406460551023" y2="490.0" stroke="black" stroke-width="1"/>
<line x1="138.56406460551023" y1="490.0" x2="147.22431864335462" y2="495.0" stroke="black" stroke-width="1"/>
<line x1="147.22431864335462" y1="495.0" x2="155.88457268119902" y2="490.0" stroke="black" stroke-width="1"/>
<line x1="155.88457268119902" y1="490.0" x2="164.5448267190434" y2="495.0" stroke="black" stroke-width="1"/>
<line x1="164.5448267190434" y1="495.0" x2="164.5448267190434" y2="505.0" stroke="black" stroke-width="1"/>
<line x1="164.5448267190434" y1="505.0" x2="155.88457268119902" y2="510.0" stroke="black" stroke-width="1"/>
<line x1="155.88457268119902" y1="510.0" x2="147.22431864335462" y2="505.0" stroke="black" stroke-width="1"/>
<line x1="147.22431864335462" y1="505.0" x2="138.56406460551023" y2="510.0" stroke="black" stroke-width="1"/>
<line x1="138.56406460551023" y1="510.0" x2="138.56406460551023" y2="520.0" stroke="black" stroke-width="1"/>
<line x1="138.56406460551023" y1="520.0" x2="147.22431864335462" y2="525.0" stroke="black" stroke-width="1"/>
<line x1="147.22431864335462" y1="525.0" x2="147.22431864335462" y2="535.0" stroke="black" stroke-width="1"/>
<line x1="147.22431864335462" y1="535.0" x2="138.56406460551023" y2="540.0" stroke="black" stroke-width="1"/>
<line x1="138.56406460551023" y1="540.0" x2="138.56406460551023" y2="550.0" stroke="black" stroke-width="1"/>
<line x1="138.56406460551023" y1="550.0" x2="147.22431864335462" y2="555.0" stroke="black" stroke-width="1"/>
<line x1="147.22431864335462" y1="555.0" x2="155.88457268119902" y2="550.0" stroke="black" stroke-width="1"/>
<line x1="155.88457268119902" y1="550.0" x2="155.88457268119902" y2="540.0" stroke="black" stroke-width="1"/>
<line x1="155.88457268119902" y1="540.0" x2="164.5448267190434" y2="535.0" stroke="black" stroke-width="1"/>
<line x1="164.5448267190434" y1="535.0" x2="173.2050807568878" y2="540.0" stroke="black" stroke-width="1"/>
<line x1="173.2050807568878" y1="540.0" x2="181.8653347947322" y2="535.0" stroke="black" stroke-width="1"/>
<line x1="181.8653347947322" y1="535.0" x2="181.8653347947322" y2="525.0" stroke="black" stroke-width="1"/>
<line x1="181.8653347947322" y1="525.0" x2="173.2050807568878" y2="520.0" stroke="black" stroke-width="1"/>
<line x1="173.2050807568878" y1="520.0" x2="173.2050807568878" y2="510.0" stroke="black" stroke-width="1"/>
<line x1="173.2050807568878" y1="510.0" x2="181.8653347947322" y2="505.0" stroke="black" stroke-width="1"/>
<line x1="181.8653347947322" y1="505.0" x2="190.5255888325766" y2="510.0" stroke="black" stroke-width="1"/>
<line x1="190.5255888325766" y1="510.0" x2="190.5255888325766" y2="520.0" stroke="black" stroke-width="1"/>
<line x1="190.5255888325766" y1="520.0" x2="199.185842870421" y2="525.0" stroke="black" stroke-width="1"/>
<line x1="199.185842870421" y1="525.0" x2="207.8460969082654" y2="520.0" stroke="black" stroke-width="1"/>
<line x1="207.8460969082654" y1="520.0" x2="207.8460969082654" y2="510.0" stroke="black" stroke-width="1"/>
<line x1="207.8460969082654" y1="510.0" x2="216.5063509461098" y2="505.0" stroke="black" stroke-width="1"/>
<line x1="216.5063509461098" y1="505.0" x2="225.1666049839542" y2="510.0" stroke="black" stroke-width="1"/>
<line x1="225.1666049839542" y1="510.0" x2="233.82685902179858" y2="505.0" stroke="black" stroke-width="1"/>
<line x1="233.82685902179858" y1="505.0" x2="233.82685902179858" y2="495.0" stroke="black" stroke-width="1"/>
<line x1="233.82685902179858" y1="495.0" x2="225.1666049839542" y2="490.0" stroke="black" stroke-width="1"/>
<line x1="225.1666049839542" y1="490.0" x2="216.5063509461098" y2="495.0" stroke="black" stroke-width="1"/>
<line x1="216.5063509461098" y1="495.0" x2="207.8460969082654" y2="490.0" stroke="black" stroke-width="1"/>
<line x1="207.8460969082654" y1="490.0" x2="207.8460969082654" y2="480.0" stroke="black" stroke-width="1"/>
<line x1="207.8460969082654" y1="480.0" x2="216.5063509461098" y2="475.0" stroke="black" stroke-width="1"/>
<line x1="216.5063509461098" y1="475.0" x2="216.5063509461098" y2="465.0" stroke="black" stroke-width="1"/>
<line x1="216.5063509461098" y1="465.0" x2="207.8460969082654" y2="460.0" stroke="black" stroke-width="1"/>
<line x1="207.8460969082654" y1="460.0" x2="207.8460969082654" y2="450.0" stroke="black" stroke-width="1"/>
<line x1="207.8460969082654" y1="450.0" x2="216.5063509461098" y2="445.0" stroke="black" stroke-width="1"/>
<line x1="216.5063509461098" y1="445.0" x2="225.1666049839542" y2="450.0" stroke="black" stroke-width="1"/>
<line x1="225.1666049839542" y1="450.0" x2="225.1666049839542" y2="460.0" stroke="black" stroke-width="1"/>
<line x1="225.1666049839542" y1="460.0" x2="233.82685902179858" y2="465.0" stroke="black" stroke-width="1"/>
<line x1="233.82685902179858" y1="465.0" x2="242.48711305964298" y2="460.0" stroke="black" stroke-width="1"/>
<line x1="242.48711305964298" y1="460.0" x2="251.14736709748738" y2="465.0" stroke="black" stroke-width="1"/>
<line x1="251.14736709748738" y1="465.0" x2="251.14736709748738" y2="475.0" stroke="black" stroke-width="1"/>
<line x1="251.14736709748738" y1="475.0" x2="242.48711305964298" y2="480.0" stroke="black" stroke-width="1"/>
<line x1="242.48711305964298" y1="480.0" x2="242.48711305964298" y2="490.0" stroke="black" stroke-width="1"/>
<line x1="242.48711305964298" y1="490.0" x2="251.14736709748738" y2="495.0" stroke="black" stroke-width="1"/>
<line x1="251.14736709748738" y1="495.0" x2="259.8076211353318" y2="490.0" stroke="black" stroke-width="1"/>
<line x1="259.8076211353318" y1="490.0" x2="259.8076211353318" y2="480.0" stroke="black" stroke-width="1"/>
<line x1="259.8076211353318" y1="480.0" x2="268.46787517317614" y2="475.0" stroke="black" stroke-width="1"/>
<line x1="268.46787517317614" y1="475.0" x2="277.1281292110205" y2="480.0" stroke="black" stroke-width="1"/>
<line x1="277.1281292110205" y1="480.0" x2="285.7883832488649" y2="475.0" stroke="black" stroke-width="1"/>
<line x1="285.7883832488649" y1="475.0" x2="285.7883832488649" y2="465.0" stroke="black" stroke-width="1"/>
<line x1="285.7883832488649" y1="465.0" x2="277.1281292110205" y2="460.0" stroke="black" stroke-width="1"/>
<line x1="277.1281292110205" y1="460.0" x2="277.1281292110205" y2="450.0" stroke="black" stroke-width="1"/>
<line x1="277.1281292110205" y1="450.0" x2="285.7883832488649" y2="445.0" stroke="black" stroke-width="1"/>
<line x1="285.7883832488649" y1="445.0" x2="294.44863728670924" y2="450.0" stroke="black" stroke-width="1"/>
<line x1="294.44863728670924" y1="450.0" x2="294.44863728670924" y2="460.0" stroke="black" stroke-width="1"/>
<line x1="294.44863728670924" y1="460.0" x2="303.1088913245536" y2="465.0" stroke="black" stroke-width="1"/>
<line x1="303.1088913245536" y1="465.0" x2="311.769145362398" y2="460.0" stroke="black" stroke-width="1"/>
<line x1="311.769145362398" y1="460.0" x2="311.769145362398" y2="450.0" stroke="black" stroke-width="1"/>
<line x1="311.769145362398" y1="450.0" x2="320.42939940024235" y2="445.0" stroke="black" stroke-width="1"/>
<line x1="320.42939940024235" y1="445.0" x2="329.0896534380867" y2="450.0" stroke="black" stroke-width="1"/>
<line x1="329.0896534380867" y1="450.0" x2="337.7499074759311" y2="445.0" stroke="black" stroke-width="1"/>
<line x1="337.7499074759311" y1="445.0" x2="337.7499074759311" y2="435.0" stroke="black" stroke-width="1"/>
<line x1="337.7499074759311" y1="435.0" x2="329.0896534380867" y2="430.0" stroke="black" stroke-width="1"/>
<line x1="329.0896534380867" y1="430.0" x2="320.42939940024235" y2="435.0" stroke="black" stroke-width="1"/>
<line x1="320.42939940024235" y1="435.0" x2="311.769145362398" y2="430.0" stroke="black" stroke-width="1"/>
<line x1="311.769145362398" y1="430.0" x2="311.769145362398" y2="420.0" stroke="black" stroke-width="1"/>
<line x1="311.769145362398" y1="420.0" x2="303.1088913245536" y2="415.0" stroke="black" stroke-width="1"/>
<line x1="303.1088913245536" y1="415.0" x2="294.44863728670924" y2="420.0" stroke="black" stroke-width="1"/>
<line x1="294.44863728670924" y1="420.0" x2="294.44863728670924" y2="430.0" stroke="black" stroke-width="1"/>
<line x1="294.44863728670924" y1="430.0" x2="285.7883832488649" y2="435.0" stroke="black" stroke-width="1"/>
<line x1="285.7883832488649" y1="435.0" x2="277.1281292110205" y2="430.0" stroke="black" stroke-width="1"/>
<line x1="277.1281292110205" y1="430.0" x2="277.1281292110205" y2="420.0" stroke="black" stroke-width="1"/>
<line x1="277.1281292110205" y1="420.0" x2="285.7883832488649" y2="415.0" stroke="black" stroke-width="1"/>
<line x1="285.7883832488649" y1="415.0" x2="285.7883832488649" y2="405.0" stroke="black" stroke-width="1"/>
<line x1="285.7883832488649" y1="405.0" x2="277.1281292110205" y2="400.0" stroke="black" stroke-width="1"/>
<line x1="277.1281292110205" y1="400.0" x2="277.1281292110205" y2="390.0" stroke="black" stroke-width="1"/>
<line x1="277.1281292110205" y1="390.0" x2="285.7883832488649" y2="385.0" stroke="black" stroke-width="1"/>
<line x1="285.7883832488649" y1="385.0" x2="294.44863728670924" y2="390.0" stroke="black" stroke-width="1"/>
<line x1="294.44863728670924" y1="390.0" x2="303.1088913245536" y2="385.0" stroke="black" stroke-width="1"/>
<line x1="303.1088913245536" y1="385.0" x2="303.1088913245536" y2="375.0" stroke="black" stroke-width="1"/>
<line x1="303.1088913245536" y1="375.0" x2="294.44863728670924" y2="370.0" stroke="black" stroke-width="1"/>
<line x1="294.44863728670924" y1="370.0" x2="285.7883832488649" y2="375.0" stroke="black" stroke-width="1"/>
<line x1="285.7883832488649" y1="375.0" x2="277.1281292110205" y2="370.0" stroke="black" stroke-width="1"/>
<line x1="277.1281292110205" y1="370.0" x2="277.1281292110205" y2="360.0" stroke="black" stroke-width="1"/>
<line x1="277.1281292110205" y1="360.0" x2="285.7883832488649" y2="355.0" stroke="black" stroke-width="1"/>
<line x1="285.7883832488649" y1="355.0" x2="285.7883832488649" y2="345.0" stroke="black" stroke-width="1"/>
<line x1="285.7883832488649" y1="345.0" x2="277.1281292110205" y2="340.0" stroke="black" stroke-width="1"/>
<line x1="277.1281292110205" y1="340.0" x2="277.1281292110205" y2="330.0" stroke="black" stroke-width="1"/>
<line x1="277.1281292110205" y1="330.0" x2="285.7883832488649" y2="325.0" stroke="black" stroke-width="1"/>
<line x1="285.7883832488649" y1="325.0" x2="294.44863728670924" y2="330.0" stroke="black" stroke-width="1"/>
<line x1="294.44863728670924" y1="330.0" x2="294.44863728670924" y2="340.0" stroke="black" stroke-width="1"/>
<line x1="294.44863728670924" y1="340.0" x2="303.1088913245536" y2="345.0" stroke="black" stroke-width="1"/>
<line x1="303.1088913245536" y1="345.0" x2="311.769145362398" y2="340.0" stroke="black" stroke-width="1"/>
<line x1="311.769145362398" y1="340.0" x2="320.42939940024235" y2="345.0" stroke="black" stroke-width="1"/>
<line x1="320.42939940024235" y1="345.0" x2="320.42939940024235" y2="355.0" stroke="black" stroke-width="1"/>
<line x1="320.42939940024235" y1="355.0" x2="311.769145362398" y2="360.0" stroke="black" stroke-width="1"/>
<line x1="311.769145362398" y1="360.0" x2="311.769145362398" y2="370.0" stroke="black" stroke-width="1"/>
<line x1="311.769145362398" y1="370.0" x2="320.42939940024235" y2="375.0" stroke="black" stroke-width="1"/>
<line x1="320.42939940024235" y1="375.0" x2="329.0896534380867" y2="370.0" stroke="black" stroke-width="1"/>
<line x1="329.0896534380867" y1="370.0" x2="329.0896534380867" y2="360.0" stroke="black" stroke-width="1"/>
<line x1="329.0896534380867" y1="360.0" x2="337.7499074759311" y2="355.0" stroke="black" stroke-width="1"/>
<line x1="337.7499074759311" y1="355.0" x2="346.41016151377545" y2="360.0" stroke="black" stroke-width="1"/>
<line x1="346.41016151377545" y1="360.0" x2="346.41016151377545" y2="370.0" stroke="black" stroke-width="1"/>
<line x1="346.41016151377545" y1="370.0" x2="355.0704155516198" y2="375.0" stroke="black" stroke-width="1"/>
<line x1="355.0704155516198" y1="375.0" x2="363.7306695894642" y2="370.0" stroke="black" stroke-width="1"/>
<line x1="363.7306695894642" y1="370.0" x2="372.39092362730855" y2="375.0" stroke="black" stroke-width="1"/>
<line x1="372.39092362730855" y1="375.0" x2="372.39092362730855" y2="385.0" stroke="black" stroke-width="1"/>
<line x1="372.39092362730855" y1="385.0" x2="363.7306695894642" y2="390.0" stroke="black" stroke-width="1"/>
<line x1="363.7306695894642" y1="390.0" x2="355.0704155516198" y2="385.0" stroke="black" stroke-width="1"/>
<line x1="355.0704155516198" y1="385.0" x2="346.41016151377545" y2="390.0" stroke="black" stroke-width="1"/>
<line x1="346.41016151377545" y1="390.0" x2="346.41016151377545" y2="400.0" stroke="black" stroke-width="1"/>
<line x1="346.41016151377545" y1="400.0" x2="355.0704155516198" y2="405.0" stroke="black" stroke-width="1"/>
<line x1="355.0704155516198" y1="405.0" x2="355.0704155516198" y2="415.0" stroke="black" stroke-width="1"/>
<line x1="355.0704155516198" y1="415.0" x2="346.41016151377545" y2="420.0" stroke="black" stroke-width="1"/>
<line x1="346.41016151377545" y1="420.0" x2="346.41016151377545" y2="430.0" stroke="black" stroke-width="1"/>
<line x1="346.41016151377545" y1="430.0" x2="355.0704155516198" y2="435.0" stroke="black" stroke-width="1"/>
<line x1="355.0704155516198" y1="435.0" x2="363.7306695894642" y2="430.0" stroke="black" stroke-width="1"/>
<line x1="363.7306695894642" y1="430.0" x2="363.7306695894642" y2="420.0" stroke="black" stroke-width="1"/>
<line x1="363.7306695894642" y1="420.0" x2="372.39092362730855" y2="415.0" stroke="black" stroke-width="1"/>
<line x1="372.39092362730855" y1="415.0" x2="381.0511776651529" y2="420.0" stroke="black" stroke-width="1"/>
<line x1="381.0511776651529" y1="420.0" x2="389.7114317029973" y2="415.0" stroke="black" stroke-width="1"/>
<line x1="389.7114317029973" y1="415.0" x2="389.7114317029973" y2="405.0" stroke="black" stroke-width="1"/>
<line x1="389.7114317029973" y1="405.0" x2="381.0511776651529" y2="400.0" stroke="black" stroke-width="1"/>
<line x1="381.0511776651529" y1="400.0" x2="381.0511776651529" y2="390.0" stroke="black" stroke-width="1"/>
<line x1="381.0511776651529" y1="390.0" x2="389.7114317029973" y2="385.0" stroke="black" stroke-width="1"/>
<line x1="389.7114317029973" y1="385.0" x2="398.37168574084166" y2="390.0" stroke="black" stroke-width="1"/>
<line x1="398.37168574084166" y1="390.0" x2="398.37168574084166" y2="400.0" stroke="black" stroke-width="1"/>
<line x1="398.37168574084166" y1="400.0" x2="407.031939778686" y2="405.0" stroke="black" stroke-width="1"/>
<line x1="407.031939778686" y1="405.0" x2="415.6921938165304" y2="400.0" stroke="black" stroke-width="1"/>
<line x1="415.6921938165304" y1="400.0" x2="415.6921938165304" y2="390.0" stroke="black" stroke-width="1"/>
<line x1="415.6921938165304" y1="390.0" x2="424.35244785437476" y2="385.0" stroke="black" stroke-width="1"/>
<line x1="424.35244785437476" y1="385.0" x2="433.0127018922191" y2="390.0" stroke="black" stroke-width="1"/>
<line x1="433.0127018922191" y1="390.0" x2="441.6729559300635" y2="385.0" stroke="black" stroke-width="1"/>
<line x1="441.6729559300635" y1="385.0" x2="441.6729559300635" y2="375.0" stroke="black" stroke-width="1"/>
<line x1="441.6729559300635" y1="375.0" x2="433.0127018922191" y2="370.0" stroke="black" stroke-width="1"/>
<line x1="433.0127018922191" y1="370.0" x2="424.35244785437476" y2="375.0" stroke="black" stroke-width="1"/>
<line x1="424.35244785437476" y1="375.0" x2="415.6921938165304" y2="370.0" stroke="black" stroke-width="1"/>
<line x1="415.6921938165304" y1="370.0" x2="415.6921938165304" y2="360.0" stroke="black" stroke-width="1"/>
<line x1="415.6921938165304" y1="360.0" x2="424.35244785437476" y2="355.0" stroke="black" stroke-width="1"/>
<line x1="424.35244785437476" y1="355.0" x2="424.35244785437476" y2="345.0" stroke="black" stroke-width="1"/>
<line x1="424.35244785437476" y1="345.0" x2="415.6921938165304" y2="340.0" stroke="black" stroke-width="1"/>
<line x1="415.6921938165304" y1="340.0" x2="415.6921938165304" y2="330.0" stroke="black" stroke-width="1"/>
<line x1="415.6921938165304" y1="330.0" x2="424.35244785437476" y2="325.0" stroke="black" stroke-width="1"/>
<line x1="424.35244785437476" y1="325.0" x2="433.0127018922191" y2="330.0" stroke="black" stroke-width="1"/>
<line x1="433.0127018922191" y1="330.0" x2="433.0127018922191" y2="340.0" stroke="black" stroke-width="1"/>
<line x1="433.0127018922191" y1="340.0" x2="441.6729559300635" y2="345.0" stroke="black" stroke-width="1"/>
<line x1="441.6729559300635" y1="345.0" x2="450.33320996790786" y2="340.0" stroke="black" stroke-width="1"/>
<line x1="450.33320996790786" y1="340.0" x2="458.99346400575223" y2="345.0" stroke="black" stroke-width="1"/>
<line x1="458.99346400575223" y1="345.0" x2="458.99346400575223" y2="355.0" stroke="black" stroke-width="1"/>
<line x1="458.99346400575223" y1="355.0" x2="450.33320996790786" y2="360.0" stroke="black" stroke-width="1"/>
<line x1="450.33320996790786" y1="360.0" x2="450.33320996790786" y2="370.0" stroke="black" stroke-width="1"/>
<line x1="450.33320996790786" y1="370.0" x2="458.99346400575223" y2="375.0" stroke="black" stroke-width="1"/>
<line x1="458.99346400575223" y1="375.0" x2="467.6537180435966" y2="370.0" stroke="black" stroke-width="1"/>
<line x1="467.6537180435966" y1="370.0" x2="467.6537180435966" y2="360.0" stroke="black" stroke-width="1"/>
<line x1="467.6537180435966" y1="360.0" x2="476.31397208144097" y2="355.0" stroke="black" stroke-width="1"/>
<line x1="476.31397208144097" y1="355.0" x2="484.97422611928533" y2="360.0" stroke="black" stroke-width="1"/>
<line x1="484.97422611928533" y1="360.0" x2="493.6344801571297" y2="355.0" stroke="black" stroke-width="1"/>
<line x1="493.6344801571297" y1="355.0" x2="493.6344801571297" y2="345.0" stroke="black" stroke-width="1"/>
<line x1="493.6344801571297" y1="345.0" x2="484.97422611928533" y2="340.0" stroke="black" stroke-width="1"/>
<line x1="484.97422611928533" y1="340.0" x2="484.97422611928533" y2="330.0" stroke="black" stroke-width="1"/>
<line x1="484.97422611928533" y1="330.0" x2="493.6344801571297" y2="325.0" stroke="black" stroke-width="1"/>
<line x1="493.6344801571297" y1="325.0" x2="502.29473419497407" y2="330.0" stroke="black" stroke-width="1"/>
<line x1="502.29473419497407" y1="330.0" x2="502.29473419497407" y2="340.0" stroke="black" stroke-width="1"/>
<line x1="502.29473419497407" y1="340.0" x2="510.95498823281844" y2="345.0" stroke="black" stroke-width="1"/>
<line x1="510.95498823281844" y1="345.0" x2="519.6152422706629" y2="340.0" stroke="black" stroke-width="1"/>
<line x1="519.6152422706629" y1="340.0" x2="519.6152422706629" y2="330.0" stroke="black" stroke-width="1"/>
<line x1="519.6152422706629" y1="330.0" x2="528.2754963085073" y2="325.0" stroke="black" stroke-width="1"/>
<line x1="528.2754963085073" y1="325.0" x2="536.9357503463517" y2="330.0" stroke="black" stroke-width="1"/>
<line x1="536.9357503463517" y1="330.0" x2="545.5960043841961" y2="325.0" stroke="black" stroke-width="1"/>
<line x1="545.5960043841961" y1="325.0" x2="545.5960043841961" y2="315.0" stroke="black" stroke-width="1"/>
<line x1="545.5960043841961" y1="315.0" x2="536.9357503463517" y2="310.0" stroke="black" stroke-width="1"/>
<line x1="536.9357503463517" y1="310.0" x2="528.2754963085073" y2="315.0" stroke="black" stroke-width="1"/>
<line x1="528.2754963085073" y1="315.0" x2="519.6152422706629" y2="310.0" stroke="black" stroke-width="1"/>
<line x1="519.6152422706629" y1="310.0" x2="519.6152422706629" y2="300.0" stroke="black" stroke-width="1"/>
<line x1="519.6152422706629" y1="300.0" x2="510.9549882328185" y2="295.0" stroke="black" stroke-width="1"/>
<line x1="510.9549882328185" y1="295.0" x2="502.2947341949741" y2="300.0" stroke="black" stroke-width="1"/>
<line x1="502.2947341949741" y1="300.0" x2="502.2947341949741" y2="310.0" stroke="black" stroke-width="1"/>
<line x1="502.2947341949741" y1="310.0" x2="493.63448015712976" y2="315.0" stroke="black" stroke-width="1"/>
<line x1="493.63448015712976" y1="315.0" x2="484.9742261192854" y2="310.0" stroke="black" stroke-width="1"/>
<line x1="484.9742261192854" y1="310.0" x2="484.9742261192854" y2="300.0" stroke="black" stroke-width="1"/>
<line x1="484.9742261192854" y1="300.0" x2="493.63448015712976" y2="295.0" stroke="black" stroke-width="1"/>
<line x1="493.63448015712976" y1="295.0" x2="493.63448015712976" y2="285.0" stroke="black" stroke-width="1"/>
<line x1="493.63448015712976" y1="285.0" x2="484.9742261192854" y2="280.0" stroke="black" stroke-width="1"/>
<line x1="484.9742261192854" y1="280.0" x2="476.313972081441" y2="285.0" stroke="black" stroke-width="1"/>
<line x1="476.313972081441" y1="285.0" x2="467.65371804359665" y2="280.0" stroke="black" stroke-width="1"/>
<line x1="467.65371804359665" y1="280.0" x2="467.65371804359665" y2="270.0" stroke="black" stroke-width="1"/>
<line x1="467.65371804359665" y1="270.0" x2="458.9934640057523" y2="265.0" stroke="black" stroke-width="1"/>
<line x1="458.9934640057523" y1="265.0" x2="450.3332099679079" y2="270.0" stroke="black" stroke-width="1"/>
<line x1="450.3332099679079" y1="270.0" x2="450.3332099679079" y2="280.0" stroke="black" stroke-width="1"/>
<line x1="450.3332099679079" y1="280.0" x2="458.9934640057523" y2="285.0" stroke="black" stroke-width="1"/>
<line x1="458.9934640057523" y1="285.0" x2="458.9934640057523" y2="295.0" stroke="black" stroke-width="1"/>
<line x1="458.9934640057523" y1="295.0" x2="450.3332099679079" y2="300.0" stroke="black" stroke-width="1"/>
<line x1="450.3332099679079" y1="300.0" x2="441.67295593006355" y2="295.0" stroke="black" stroke-width="1"/>
<line x1="441.67295593006355" y1="295.0" x2="433.0127018922192" y2="300.0" stroke="black" stroke-width="1"/>
<line x1="433.0127018922192" y1="300.0" x2="433.0127018922192" y2="310.0" stroke="black" stroke-width="1"/>
<line x1="433.0127018922192" y1="310.0" x2="424.3524478543748" y2="315.0" stroke="black" stroke-width="1"/>
<line x1="424.3524478543748" y1="315.0" x2="415.69219381653045" y2="310.0" stroke="black" stroke-width="1"/>
<line x1="415.69219381653045" y1="310.0" x2="415.69219381653045" y2="300.0" stroke="black" stroke-width="1"/>
<line x1="415.69219381653045" y1="300.0" x2="424.3524478543748" y2="295.0" stroke="black" stroke-width="1"/>
<line x1="424.3524478543748" y1="295.0" x2="424.3524478543748" y2="285.0" stroke="black" stroke-width="1"/>
<line x1="424.3524478543748" y1="285.0" x2="415.69219381653045" y2="280.0" stroke="black" stroke-width="1"/>
<line x1="415.69219381653045" y1="280.0" x2="415.69219381653045" y2="270.0" stroke="black" stroke-width="1"/>
<line x1="415.69219381653045" y1="270.0" x2="424.3524478543748" y2="265.0" stroke="black" stroke-width="1"/>
<line x1="424.3524478543748" y1="265.0" x2="433.0127018922192" y2="270.0" stroke="black" stroke-width="1"/>
<line x1="433.0127018922192" y1="270.0" x2="441.67295593006355" y2="265.0" stroke="black" stroke-width="1"/>
<line x1="441.67295593006355" y1="265.0" x2="441.67295593006355" y2="255.0" stroke="black" stroke-width="1"/>
<line x1="441.67295593006355" y1="255.0" x2="433.0127018922192" y2="250.0" stroke="black" stroke-width="1"/>
<line x1="433.0127018922192" y1="250.0" x2="424.3524478543748" y2="255.0" stroke="black" stroke-width="1"/>
<line x1="424.3524478543748" y1="255.0" x2="415.69219381653045" y2="250.0" stroke="black" stroke-width="1"/>
<line x1="415.69219381653045" y1="250.0" x2="415.69219381653045" y2="240.0" stroke="black" stroke-width="1"/>
<line x1="415.69219381653045" y1="240.0" x2="407.0319397786861" y2="235.0" stroke="black" stroke-width="1"/>
<line x1="407.0319397786861" y1="235.0" x2="398.3716857408417" y2="240.0" stroke="black" stroke-width="1"/>
<line x1="398.3716857408417" y1="240.0" x2="398.3716857408417" y2="250.0" stroke="black" stroke-width="1"/>
<line x1="398.3716857408417" y1="250.0" x2="389.71143170299734" y2="255.0" stroke="black" stroke-width="1"/>
<line x1="389.71143170299734" y1="255.0" x2="381.051177665153" y2="250.0" stroke="black" stroke-width="1"/>
<line x1="381.051177665153" y1="250.0" x2="381.051177665153" y2="240.0" stroke="black" stroke-width="1"/>
<line x1="381.051177665153" y1="240.0" x2="389.71143170299734" y2="235.0" stroke="black" stroke-width="1"/>
<line x1="389.71143170299734" y1="235.0" x2="389.71143170299734" y2="225.0" stroke="black" stroke-width="1"/>
<line x1="389.71143170299734" y1="225.0" x2="381.051177665153" y2="220.0" stroke="black" stroke-width="1"/>
<line x1="381.051177665153" y1="220.0" x2="372.3909236273086" y2="225.0" stroke="black" stroke-width="1"/>
<line x1="372.3909236273086" y1="225.0" x2="363.73066958946424" y2="220.0" stroke="black" stroke-width="1"/>
<line x1="363.73066958946424" y1="220.0" x2="363.73066958946424" y2="210.0" stroke="black" stroke-width="1"/>
<line x1="363.73066958946424" y1="210.0" x2="355.0704155516199" y2="205.0" stroke="black" stroke-width="1"/>
<line x1="355.0704155516199" y1="205.0" x2="346.4101615137755" y2="210.0" stroke="black" stroke-width="1"/>
<line x1="346.4101615137755" y1="210.0" x2="346.4101615137755" y2="220.0" stroke="black" stroke-width="1"/>
<line x1="346.4101615137755" y1="220.0" x2="355.0704155516199" y2="225.0" stroke="black" stroke-width="1"/>
<line x1="355.0704155516199" y1="225.0" x2="355.0704155516199" y2="235.0" stroke="black" stroke-width="1"/>
<line x1="355.0704155516199" y1="235.0" x2="346.4101615137755" y2="240.0" stroke="black" stroke-width="1"/>
<line x1="346.4101615137755" y1="240.0" x2="346.4101615137755" y2="250.0" stroke="black" stroke-width="1"/>
<line x1="346.4101615137755" y1="250.0" x2="355.0704155516199" y2="255.0" stroke="black" stroke-width="1"/>
<line x1="355.0704155516199" y1="255.0" x2="363.73066958946424" y2="250.0" stroke="black" stroke-width="1"/>
<line x1="363.73066958946424" y1="250.0" x2="372.3909236273086" y2="255.0" stroke="black" stroke-width="1"/>
<line x1="372.3909236273086" y1="255.0" x2="372.3909236273086" y2="265.0" stroke="black" stroke-width="1"/>
<line x1="372.3909236273086" y1="265.0" x2="363.73066958946424" y2="270.0" stroke="black" stroke-width="1"/>
<line x1="363.73066958946424" y1="270.0" x2="355.0704155516199" y2="265.0" stroke="black" stroke-width="1"/>
<line x1="355.0704155516199" y1="265.0" x2="346.4101615137755" y2="270.0" stroke="black" stroke-width="1"/>
<line x1="346.4101615137755" y1="270.0" x2="346.4101615137755" y2="280.0" stroke="black" stroke-width="1"/>
<line x1="346.4101615137755" y1="280.0" x2="337.74990747593114" y2="285.0" stroke="black" stroke-width="1"/>
<line x1="337.74990747593114" y1="285.0" x2="329.08965343808677" y2="280.0" stroke="black" stroke-width="1"/>
<line x1="329.08965343808677" y1="280.0" x2="329.08965343808677" y2="270.0" stroke="black" stroke-width="1"/>
<line x1="329.08965343808677" y1="270.0" x2="320.4293994002424" y2="265.0" stroke="black" stroke-width="1"/>
<line x1="320.4293994002424" y1="265.0" x2="311.76914536239804" y2="270.0" stroke="black" stroke-width="1"/>
<line x1="311.76914536239804" y1="270.0" x2="311.76914536239804" y2="280.0" stroke="black" stroke-width="1"/>
<line x1="311.76914536239804" y1="280.0" x2="320.4293994002424" y2="285.0" stroke="black" stroke-width="1"/>
<line x1="320.4293994002424" y1="285.0" x2="320.4293994002424" y2="295.0" stroke="black" stroke-width="1"/>
<line x1="320.4293994002424" y1="295.0" x2="311.76914536239804" y2="300.0" stroke="black" stroke-width="1"/>
<line x1="311.76914536239804" y1="300.0" x2="303.10889132455367" y2="295.0" stroke="black" stroke-width="1"/>
<line x1="303.10889132455367" y1="295.0" x2="294.4486372867093" y2="300.0" stroke="black" stroke-width="1"/>
<line x1="294.4486372867093" y1="300.0" x2="294.4486372867093" y2="310.0" stroke="black" stroke-width="1"/>
<line x1="294.4486372867093" y1="310.0" x2="285.78838324886493" y2="315.0" stroke="black" stroke-width="1"/>
<line x1="285.78838324886493" y1="315.0" x2="277.12812921102056" y2="310.0" stroke="black" stroke-width="1"/>
<line x1="277.12812921102056" y1="310.0" x2="277.12812921102056" y2="300.0" stroke="black" stroke-width="1"/>
<line x1="277.12812921102056" y1="300.0" x2="285.78838324886493" y2="295.0" stroke="black" stroke-width="1"/>
<line x1="285.78838324886493" y1="295.0" x2="285.78838324886493" y2="285.0" stroke="black" stroke-width="1"/>
<line x1="285.78838324886493" y1="285.0" x2="277.12812921102056" y2="280.0" stroke="black" stroke-width="1"/>
<line x1="277.12812921102056" y1="280.0" x2="277.12812921102056" y2="270.0" stroke="black" stroke-width="1"/>
<line x1="277.12812921102056" y1="270.0" x2="285.78838324886493" y2="265.0" stroke="black" stroke-width="1"/>
<line x1="285.78838324886493" y1="265.0" x2="294.4486372867093" y2="270.0" stroke="black" stroke-width="1"/>
<line x1="294.4486372867093" y1="270.0" x2="303.10889132455367" y2="265.0" stroke="black" stroke-width="1"/>
<line x1="303.10889132455367" y1="265.0" x2="303.10889132455367" y2="255.0" stroke="black" stroke-width="1"/>
<line x1="303.10889132455367" y1="255.0" x2="294.4486372867093" y2="250.0" stroke="black" stroke-width="1"/>
<line x1="294.4486372867093" y1="250.0" x2="285.78838324886493" y2="255.0" stroke="black" stroke-width="1"/>
<line x1="285.78838324886493" y1="255.0" x2="277.12812921102056" y2="250.0" stroke="black" stroke-width="1"/>
<line x1="277.12812921102056" y1="250.0" x2="277.12812921102056" y2="240.0" stroke="black" stroke-width="1"/>
<line x1="277.12812921102056" y1="240.0" x2="285.78838324886493" y2="235.0" stroke="black" stroke-width="1"/>
<line x1="285.78838324886493" y1="235.0" x2="285.78838324886493" y2="225.0" stroke="black" stroke-width="1"/>
<line x1="285.78838324886493" y1="225.0" x2="277.12812921102056" y2="220.0" stroke="black" stroke-width="1"/>
<line x1="277.12812921102056" y1="220.0" x2="277.12812921102056" y2="210.0" stroke="black" stroke-width="1"/>
<line x1="277.12812921102056" y1="210.0" x2="285.78838324886493" y2="205.0" stroke="black" stroke-width="1"/>
<line x1="285.78838324886493" y1="205.0" x2="294.4486372867093" y2="210.0" stroke="black" stroke-width="1"/>
<line x1="294.4486372867093" y1="210.0" x2="294.4486372867093" y2="220.0" stroke="black" stroke-width="1"/>
<line x1="294.4486372867093" y1="220.0" x2="303.10889132455367" y2="225.0" stroke="black" stroke-width="1"/>
<line x1="303.10889132455367" y1="225.0" x2="311.76914536239804" y2="220.0" stroke="black" stroke-width="1"/>
<line x1="311.76914536239804" y1="220.0" x2="311.76914536239804" y2="210.0" stroke="black" stroke-width="1"/>
<line x1="311.76914536239804" y1="210.0" x2="320.4293994002424" y2="205.0" stroke="black" stroke-width="1"/>
<line x1="320.4293994002424" y1="205.0" x2="329.08965343808677" y2="210.0" stroke="black" stroke-width="1"/>
<line x1="329.08965343808677" y1="210.0" x2="337.74990747593114" y2="205.0" stroke="black" stroke-width="1"/>
<line x1="337.74990747593114" y1="205.0" x2="337.74990747593114" y2="195.0" stroke="black" stroke-width="1"/>
<line x1="337.74990747593114" y1="195.0" x2="329.08965343808677" y2="190.0" stroke="black" stroke-width="1"/>
<line x1="329.08965343808677" y1="190.0" x2="320.4293994002424" y2="195.0" stroke="black" stroke-width="1"/>
<line x1="320.4293994002424" y1="195.0" x2="311.76914536239804" y2="190.0" stroke="black" stroke-width="1"/>
<line x1="311.76914536239804" y1="190.0" x2="311.76914536239804" y2="180.0" stroke="black" stroke-width="1"/>
<line x1="311.76914536239804" y1="180.0" x2="303.10889132455367" y2="175.0" stroke="black" stroke-width="1"/>
<line x1="303.10889132455367" y1="175.0" x2="294.4486372867093" y2="180.0" stroke="black" stroke-width="1"/>
<line x1="294.4486372867093" y1="180.0" x2="294.4486372867093" y2="190.0" stroke="black" stroke-width="1"/>
<line x1="294.4486372867093" y1="190.0" x2="285.78838324886493" y2="195.0" stroke="black" stroke-width="1"/>
<line x1="285.78838324886493" y1="195.0" x2="277.12812921102056" y2="190.0" stroke="black" stroke-width="1"/>
<line x1="277.12812921102056" y1="190.0" x2="277.12812921102056" y2="180.0" stroke="black" stroke-width="1"/>
<line x1="277.12812921102056" y1="180.0" x2="285.78838324886493" y2="175.0" stroke="black" stroke-width="1"/>
<line x1="285.78838324886493" y1="175.0" x2="285.78838324886493" y2="165.0" stroke="black" stroke-width="1"/>
<line x1="285.78838324886493" y1="165.0" x2="277.12812921102056" y2="160.0" stroke="black" stroke-width="1"/>
<line x1="277.12812921102056" y1="160.0" x2="268.4678751731762" y2="165.0" stroke="black" stroke-width="1"/>
<line x1="268.4678751731762" y1="165.0" x2="259.80762113533183" y2="160.0" stroke="black" stroke-width="1"/>
<line x1="259.80762113533183" y1="160.0" x2="259.80762113533183" y2="150.0" stroke="black" stroke-width="1"/>
<line x1="259.80762113533183" y1="150.0" x2="251.14736709748743" y2="145.0" stroke="black" stroke-width="1"/>
<line x1="251.14736709748743" y1="145.0" x2="242.48711305964304" y2="150.0" stroke="black" stroke-width="1"/>
<line x1="242.48711305964304" y1="150.0" x2="242.48711305964304" y2="160.0" stroke="black" stroke-width="1"/>
<line x1="242.48711305964304" y1="160.0" x2="251.14736709748743" y2="165.0" stroke="black" stroke-width="1"/>
<line x1="251.14736709748743" y1="165.0" x2="251.14736709748743" y2="175.0" stroke="black" stroke-width="1"/>
<line x1="251.14736709748743" y1="175.0" x2="242.48711305964304" y2="180.0" stroke="black" stroke-width="1"/>
<line x1="242.48711305964304" y1="180.0" x2="233.82685902179864" y2="175.0" stroke="black" stroke-width="1"/>
<line x1="233.82685902179864" y1="175.0" x2="225.16660498395424" y2="180.0" stroke="black" stroke-width="1"/>
<line x1="225.16660498395424" y1="180.0" x2="225.16660498395424" y2="190.0" stroke="black" stroke-width="1"/>
<line x1="225.16660498395424" y1="190.0" x2="216.50635094610985" y2="195.0" stroke="black" stroke-width="1"/>
<line x1="216.50635094610985" y1="195.0" x2="207.84609690826545" y2="190.0" stroke="black" stroke-width="1"/>
<line x1="207.84609690826545" y1="190.0" x2="207.84609690826545" y2="180.0" stroke="black" stroke-width="1"/>
<line x1="207.84609690826545" y1="180.0" x2="216.50635094610985" y2="175.0" stroke="black" stroke-width="1"/>
<line x1="216.50635094610985" y1="175.0" x2="216.50635094610985" y2="165.0" stroke="black" stroke-width="1"/>
<line x1="216.50635094610985" y1="165.0" x2="207.84609690826545" y2="160.0" stroke="black" stroke-width="1"/>
<line x1="207.84609690826545" y1="160.0" x2="207.84609690826545" y2="150.0" stroke="black" stroke-width="1"/>
<line x1="207.84609690826545" y1="150.0" x2="216.50635094610985" y2="145.0" stroke="black" stroke-width="1"/>
<line x1="216.50635094610985" y1="145.0" x2="225.16660498395424" y2="150.0" stroke="black" stroke-width="1"/>
<line x1="225.16660498395424" y1="150.0" x2="233.82685902179864" y2="145.0" stroke="black" stroke-width="1"/>
<line x1="233.82685902179864" y1="145.0" x2="233.82685902179864" y2="135.0" stroke="black" stroke-width="1"/>
<line x1="233.82685902179864" y1="135.0" x2="225.16660498395424" y2="130.0" stroke="black" stroke-width="1"/>
<line x1="225.16660498395424" y1="130.0" x2="216.50635094610985" y2="135.0" stroke="black" stroke-width="1"/>
<line x1="216.50635094610985" y1="135.0" x2="207.84609690826545" y2="130.0" stroke="black" stroke-width="1"/>
<line x1="207.84609690826545" y1="130.0" x2="207.84609690826545" y2="120.0" stroke="black" stroke-width="1"/>
<line x1="207.84609690826545" y1="120.0" x2="199.18584287042106" y2="115.0" stroke="black" stroke-width="1"/>
<line x1="199.18584287042106" y1="115.0" x2="190.52558883257666" y2="120.0" stroke="black" stroke-width="1"/>
<line x1="190.52558883257666" y1="120.0" x2="190.52558883257666" y2="130.0" stroke="black" stroke-width="1"/>
<line x1="190.52558883257666" y1="130.0" x2="181.86533479473226" y2="135.0" stroke="black" stroke-width="1"/>
<line x1="181.86533479473226" y1="135.0" x2="173.20508075688787" y2="130.0" stroke="black" stroke-width="1"/>
<line x1="173.20508075688787" y1="130.0" x2="173.20508075688787" y2="120.0" stroke="black" stroke-width="1"/>
<line x1="173.20508075688787" y1="120.0" x2="181.86533479473226" y2="115.0" stroke="black" stroke-width="1"/>
<line x1="181.86533479473226" y1="115.0" x2="181.86533479473226" y2="105.0" stroke="black" stroke-width="1"/>
<line x1="181.86533479473226" y1="105.0" x2="173.20508075688787" y2="100.0" stroke="black" stroke-width="1"/>
<line x1="173.20508075688787" y1="100.0" x2="164.54482671904347" y2="105.0" stroke="black" stroke-width="1"/>
<line x1="164.54482671904347" y1="105.0" x2="155.88457268119907" y2="100.0" stroke="black" stroke-width="1"/>
<line x1="155.88457268119907" y1="100.0" x2="155.88457268119907" y2="90.0" stroke="black" stroke-width="1"/>
<line x1="155.88457268119907" y1="90.0" x2="147.22431864335468" y2="85.0" stroke="black" stroke-width="1"/>
<line x1="147.22431864335468" y1="85.0" x2="138.56406460551028" y2="90.0" stroke="black" stroke-width="1"/>
<line x1="138.56406460551028" y1="90.0" x2="138.56406460551028" y2="100.0" stroke="black" stroke-width="1"/>
<line x1="138.56406460551028" y1="100.0" x2="147.22431864335468" y2="105.0" stroke="black" stroke-width="1"/>
<line x1="147.22431864335468" y1="105.0" x2="147.22431864335468" y2="115.0" stroke="black" stroke-width="1"/>
<line x1="147.22431864335468" y1="115.0" x2="138.56406460551028" y2="120.0" stroke="black" stroke-width="1"/>
<line x1="138.56406460551028" y1="120.0" x2="138.56406460551028" y2="130.0" stroke="black" stroke-width="1"/>
<line x1="138.56406460551028" y1="130.0" x2="147.22431864335468" y2="135.0" stroke="black" stroke-width="1"/>
<line x1="147.22431864335468" y1="135.0" x2="155.88457268119907" y2="130.0" stroke="black" stroke-width="1"/>
<line x1="155.88457268119907" y1="130.0" x2="164.54482671904347" y2="135.0" stroke="black" stroke-width="1"/>
<line x1="164.54482671904347" y1="135.0" x2="164.54482671904347" y2="145.0" stroke="black" stroke-width="1"/>
<line x1="164.54482671904347" y1="145.0" x2="155.88457268119907" y2="150.0" stroke="black" stroke-width="1"/>
<line x1="155.88457268119907" y1="150.0" x2="147.22431864335468" y2="145.0" stroke="black" stroke-width="1"/>
<line x1="147.22431864335468" y1="145.0" x2="138.56406460551028" y2="150.0" stroke="black" stroke-width="1"/>
<line x1="138.56406460551028" y1="150.0" x2="138.56406460551028" y2="160.0" stroke="black" stroke-width="1"/>
<line x1="138.56406460551028" y1="160.0" x2="147.22431864335468" y2="165.0" stroke="black" stroke-width="1"/>
<line x1="147.22431864335468" y1="165.0" x2="147.22431864335468" y2="175.0" stroke="black" stroke-width="1"/>
<line x1="147.22431864335468" y1="175.0" x2="138.56406460551028" y2="180.0" stroke="black" stroke-width="1"/>
<line x1="138.56406460551028" y1="180.0" x2="138.56406460551028" y2="190.0" stroke="black" stroke-width="1"/>
<line x1="138.56406460551028" y1="190.0" x2="147.22431864335468" y2="195.0" stroke="black" stroke-width="1"/>
<line x1="147.22431864335468" y1="195.0" x2="155.88457268119907" y2="190.0" stroke="black" stroke-width="1"/>
<line x1="155.88457268119907" y1="190.0" x2="155.88457268119907" y2="180.0" stroke="black" stroke-width="1"/>
<line x1="155.88457268119907" y1="180.0" x2="164.54482671904347" y2="175.0" stroke="black" stroke-width="1"/>
<line x1="164.54482671904347" y1="175.0" x2="173.20508075688787" y2="180.0" stroke="black" stroke-width="1"/>
<line x1="173.20508075688787" y1="180.0" x2="173.20508075688787" y2="190.0" stroke="black" stroke-width="1"/>
<line x1="173.20508075688787" y1="190.0" x2="181.86533479473226" y2="195.0" stroke="black" stroke-width="1"/>
<line x1="181.86533479473226" y1="195.0" x2="190.52558883257666" y2="190.0" stroke="black" stroke-width="1"/>
<line x1="190.52558883257666" y1="190.0" x2="199.18584287042106" y2="195.0" stroke="black" stroke-width="1"/>
<line x1="199.18584287042106" y1="195.0" x2="199.18584287042106" y2="205.0" stroke="black" stroke-width="1"/>
<line x1="199.18584287042106" y1="205.0" x2="190.52558883257666" y2="210.0" stroke="black" stroke-width="1"/>
<line x1="190.52558883257666" y1="210.0" x2="181.86533479473226" y2="205.0" stroke="black" stroke-width="1"/>
<line x1="181.86533479473226" y1="205.0" x2="173.20508075688787" y2="210.0" stroke="black" stroke-width="1"/>
<line x1="173.20508075688787" y1="210.0" x2="173.20508075688787" y2="220.0" stroke="black" stroke-width="1"/>
<line x1="173.20508075688787" y1="220.0" x2="164.54482671904347" y2="225.0" stroke="black" stroke-width="1"/>
<line x1="164.54482671904347" y1="225.0" x2="155.88457268119907" y2="220.0" stroke="black" stroke-width="1"/>
<line x1="155.88457268119907" y1="220.0" x2="155.88457268119907" y2="210.0" stroke="black" stroke-width="1"/>
<line x1="155.88457268119907" y1="210.0" x2="147.22431864335468" y2="205.0" stroke="black" stroke-width="1"/>
<line x1="147.22431864335468" y1="205.0" x2="138.56406460551028" y2="210.0" stroke="black" stroke-width="1"/>
<line x1="138.56406460551028" y1="210.0" x2="138.56406460551028" y2="220.0" stroke="black" stroke-width="1"/>
<line x1="138.56406460551028" y1="220.0" x2="147.22431864335468" y2="225.0" stroke="black" stroke-width="1"/>
<line x1="147.22431864335468" y1="225.0" x2="147.22431864335468" y2="235.0" stroke="black" stroke-width="1"/>
<line x1="147.22431864335468" y1="235.0" x2="138.56406460551028" y2="240.0" stroke="black" stroke-width="1"/>
<line x1="138.56406460551028" y1="240.0" x2="129.9038105676659" y2="235.0" stroke="black" stroke-width="1"/>
<line x1="129.9038105676659" y1="235.0" x2="121.2435565298215" y2="240.0" stroke="black" stroke-width="1"/>
<line x1="121.2435565298215" y1="240.0" x2="121.2435565298215" y2="250.0" stroke="black" stroke-width="1"/>
<line x1="121.2435565298215" y1="250.0" x2="112.58330249197712" y2="255.0" stroke="black" stroke-width="1"/>
<line x1="112.58330249197712" y1="255.0" x2="103.92304845413274" y2="250.0" stroke="black" stroke-width="1"/>
<line x1="103.92304845413274" y1="250.0" x2="103.92304845413274" y2="240.0" stroke="black" stroke-width="1"/>
<line x1="103.92304845413274" y1="240.0" x2="112.58330249197712" y2="235.0" stroke="black" stroke-width="1"/>
<line x1="112.58330249197712" y1="235.0" x2="112.58330249197712" y2="225.0" stroke="black" stroke-width="1"/>
<line x1="112.58330249197712" y1="225.0" x2="103.92304845413274" y2="220.0" stroke="black" stroke-width="1"/>
<line x1="103.92304845413274" y1="220.0" x2="95.26279441628836" y2="225.0" stroke="black" stroke-width="1"/>
<line x1="95.26279441628836" y1="225.0" x2="86.60254037844398" y2="220.0" stroke="black" stroke-width="1"/>
<line x1="86.60254037844398" y1="220.0" x2="86.60254037844398" y2="210.0" stroke="black" stroke-width="1"/>
<line x1="86.60254037844398" y1="210.0" x2="77.9422863405996" y2="205.0" stroke="black" stroke-width="1"/>
<line x1="77.9422863405996" y1="205.0" x2="69.28203230275521" y2="210.0" stroke="black" stroke-width="1"/>
<line x1="69.28203230275521" y1="210.0" x2="69.28203230275521" y2="220.0" stroke="black" stroke-width="1"/>
<line x1="69.28203230275521" y1="220.0" x2="77.9422863405996" y2="225.0" stroke="black" stroke-width="1"/>
<line x1="77.9422863405996" y1="225.0" x2="77.9422863405996" y2="235.0" stroke="black" stroke-width="1"/>
<line x1="77.9422863405996" y1="235.0" x2="69.28203230275521" y2="240.0" stroke="black" stroke-width="1"/>
<line x1="69.28203230275521" y1="240.0" x2="69.28203230275521" y2="250.0" stroke="black" stroke-width="1"/>
<line x1="69.28203230275521" y1="250.0" x2="77.9422863405996" y2="255.0" stroke="black" stroke-width="1"/>
<line x1="77.9422863405996" y1="255.0" x2="86.60254037844398" y2="250.0" stroke="black" stroke-width="1"/>
<line x1="86.60254037844398" y1="250.0" x2="95.26279441628836" y2="255.0" stroke="black" stroke-width="1"/>
<line x1="95.26279441628836" y1="255.0" x2="95.26279441628836" y2="265.0" stroke="black" stroke-width="1"/>
<line x1="95.26279441628836" y1="265.0" x2="86.60254037844398" y2="270.0" stroke="black" stroke-width="1"/>
<line x1="86.60254037844398" y1="270.0" x2="77.9422863405996" y2="265.0" stroke="black" stroke-width="1"/>
<line x1="77.9422863405996" y1="265.0" x2="69.28203230275521" y2="270.0" stroke="black" stroke-width="1"/>
<line x1="69.28203230275521" y1="270.0" x2="69.28203230275521" y2="280.0" stroke="black" stroke-width="1"/>
<line x1="69.28203230275521" y1="280.0" x2="60.62177826491083" y2="285.0" stroke="black" stroke-width="1"/>
<line x1="60.62177826491083" y1="285.0" x2="51.96152422706645" y2="280.0" stroke="black" stroke-width="1"/>
<line x1="51.96152422706645" y1="280.0" x2="51.96152422706645" y2="270.0" stroke="black" stroke-width="1"/>
<line x1="51.96152422706645" y1="270.0" x2="43.301270189222066" y2="265.0" stroke="black" stroke-width="1"/>
<line x1="43.301270189222066" y1="265.0" x2="34.641016151377684" y2="270.0" stroke="black" stroke-width="1"/>
<line x1="34.641016151377684" y1="270.0" x2="34.641016151377684" y2="280.0" stroke="black" stroke-width="1"/>
<line x1="34.641016151377684" y1="280.0" x2="43.30127018922207" y2="285.0" stroke="black" stroke-width="1"/>
<line x1="43.30127018922207" y1="285.0" x2="43.30127018922207" y2="295.0" stroke="black" stroke-width="1"/>
<line x1="43.30127018922207" y1="295.0" x2="34.64101615137769" y2="300.0" stroke="black" stroke-width="1"/>
<line x1="34.64101615137769" y1="300.0" x2="25.980762113533306" y2="295.0" stroke="black" stroke-width="1"/>
<line x1="25.980762113533306" y1="295.0" x2="17.32050807568892" y2="300.0" stroke="black" stroke-width="1"/>
<line x1="17.32050807568892" y1="300.0" x2="17.32050807568892" y2="310.0" stroke="black" stroke-width="1"/>
<line x1="17.32050807568892" y1="310.0" x2="8.660254037844537" y2="315.0" stroke="black" stroke-width="1"/>
<line x1="8.660254037844537" y1="315.0" x2="1.509903313490213e-13" y2="310.0" stroke="black" stroke-width="1"/>
<line x1="1.509903313490213e-13" y1="310.0" x2="1.509903313490213e-13" y2="300.0" stroke="black" stroke-width="1"/>
<line x1="1.509903313490213e-13" y1="300.0" x2="8.660254037844537" y2="295.0" stroke="black" stroke-width="1"/>
<line x1="8.660254037844537" y1="295.0" x2="8.660254037844537" y2="285.0" stroke="black" stroke-width="1"/>
<line x1="8.660254037844537" y1="285.0" x2="1.509903313490213e-13" y2="280.0" stroke="black" stroke-width="1"/>
<line x1="1.509903313490213e-13" y1="280.0" x2="1.509903313490213e-13" y2="270.0" stroke="black" stroke-width="1"/>
<line x1="1.509903313490213e-13" y1="270.0" x2="8.660254037844537" y2="265.0" stroke="black" stroke-width="1"/>
<line x1="8.660254037844537" y1="265.0" x2="17.320508075688924" y2="270.0" stroke="black" stroke-width="1"/>
<line x1="17.320508075688924" y1="270.0" x2="25.98076211353331" y2="265.0" stroke="black" stroke-width="1"/>
<line x1="25.98076211353331" y1="265.0" x2="25.98076211353331" y2="255.0" stroke="black" stroke-width="1"/>
<line x1="25.98076211353331" y1="255.0" x2="17.320508075688924" y2="250.0" stroke="black" stroke-width="1"/>
<line x1="17.320508075688924" y1="250.0" x2="8.66025403784454" y2="255.0" stroke="black" stroke-width="1"/>
<line x1="8.66025403784454" y1="255.0" x2="1.545430450278218e-13" y2="250.0" stroke="black" stroke-width="1"/>
<line x1="1.545430450278218e-13" y1="250.0" x2="1.545430450278218e-13" y2="240.0" stroke="black" stroke-width="1"/>
<line x1="1.545430450278218e-13" y1="240.0" x2="8.66025403784454" y2="235.0" stroke="black" stroke-width="1"/>
<line x1="8.66025403784454" y1="235.0" x2="8.66025403784454" y2="225.0" stroke="black" stroke-width="1"/>
<line x1="8.66025403784454" y1="225.0" x2="1.545430450278218e-13" y2="220.0" stroke="black" stroke-width="1"/>
<line x1="1.545430450278218e-13" y1="220.0" x2="1.545430450278218e-13" y2="210.0" stroke="black" stroke-width="1"/>
<line x1="1.545430450278218e-13" y1="210.0" x2="8.66025403784454" y2="205.0" stroke="black" stroke-width="1"/>
<line x1="8.66025403784454" y1="205.0" x2="17.320508075688927" y2="210.0" stroke="black" stroke-width="1"/>
<line x1="17.320508075688927" y1="210.0" x2="17.320508075688927" y2="220.0" stroke="black" stroke-width="1"/>
<line x1="17.320508075688927" y1="220.0" x2="25.980762113533316" y2="225.0" stroke="black" stroke-width="1"/>
<line x1="25.980762113533316" y1="225.0" x2="34.6410161513777" y2="220.0" stroke="black" stroke-width="1"/>
<line x1="34.6410161513777" y1="220.0" x2="34.6410161513777" y2="210.0" stroke="black" stroke-width="1"/>
<line x1="34.6410161513777" y1="210.0" x2="43.30127018922208" y2="205.0" stroke="black" stroke-width="1"/>
<line x1="43.30127018922208" y1="205.0" x2="51.96152422706647" y2="210.0" stroke="black" stroke-width="1"/>
<line x1="51.96152422706647" y1="210.0" x2="60.62177826491086" y2="205.0" stroke="black" stroke-width="1"/>
<line x1="60.62177826491086" y1="205.0" x2="60.62177826491086" y2="195.0" stroke="black" stroke-width="1"/>
<line x1="60.62177826491086" y1="195.0" x2="51.96152422706648" y2="190.0" stroke="black" stroke-width="1"/>
<line x1="51.96152422706648" y1="190.0" x2="43.301270189222095" y2="195.0" stroke="black" stroke-width="1"/>
<line x1="43.301270189222095" y1="195.0" x2="34.64101615137771" y2="190.0" stroke="black" stroke-width="1"/>
<line x1="34.64101615137771" y1="190.0" x2="34.64101615137771" y2="180.0" stroke="black" stroke-width="1"/>
<line x1="34.64101615137771" y1="180.0" x2="25.980762113533327" y2="175.0" stroke="black" stroke-width="1"/>
<line x1="25.980762113533327" y1="175.0" x2="17.32050807568894" y2="180.0" stroke="black" stroke-width="1"/>
<line x1="17.32050807568894" y1="180.0" x2="17.32050807568894" y2="190.0" stroke="black" stroke-width="1"/>
<line x1="17.32050807568894" y1="190.0" x2="8.660254037844558" y2="195.0" stroke="black" stroke-width="1"/>
<line x1="8.660254037844558" y1="195.0" x2="1.723066134218243e-13" y2="190.0" stroke="black" stroke-width="1"/>
<line x1="1.723066134218243e-13" y1="190.0" x2="1.723066134218243e-13" y2="180.0" stroke="black" stroke-width="1"/>
<line x1="1.723066134218243e-13" y1="180.0" x2="8.660254037844558" y2="175.0" stroke="black" stroke-width="1"/>
<line x1="8.660254037844558" y1="175.0" x2="8.660254037844558" y2="165.0" stroke="black" stroke-width="1"/>
<line x1="8.660254037844558" y1="165.0" x2="1.723066134218243e-13" y2="160.0" stroke="black" stroke-width="1"/>
<line x1="1.723066134218243e-13" y1="160.0" x2="1.723066134218243e-13" y2="150.0" stroke="black" stroke-width="1"/>
<line x1="1.723066134218243e-13" y1="150.0" x2="8.660254037844558" y2="145.0" stroke="black" stroke-width="1"/>
<line x1="8.660254037844558" y1="145.0" x2="17.320508075688945" y2="150.0" stroke="black" stroke-width="1"/>
<line x1="17.320508075688945" y1="150.0" x2="25.98076211353333" y2="145.0" stroke="black" stroke-width="1"/>
<line x1="25.98076211353333" y1="145.0" x2="25.98076211353333" y2="135.0" stroke="black" stroke-width="1"/>
<line x1="25.98076211353333" y1="135.0" x2="17.320508075688945" y2="130.0" stroke="black" stroke-width="1"/>
<line x1="17.320508075688945" y1="130.0" x2="8.660254037844561" y2="135.0" stroke="black" stroke-width="1"/>
<line x1="8.660254037844561" y1="135.0" x2="1.758593271006248e-13" y2="130.0" stroke="black" stroke-width="1"/>
<line x1="1.758593271006248e-13" y1="130.0" x2="1.758593271006248e-13" y2="120.0" stroke="black" stroke-width="1"/>
<line x1="1.758593271006248e-13" y1="120.0" x2="8.660254037844561" y2="115.0" stroke="black" stroke-width="1"/>
<line x1="8.660254037844561" y1="115.0" x2="8.660254037844561" y2="105.0" stroke="black" stroke-width="1"/>
<line x1="8.660254037844561" y1="105.0" x2="1.758593271006248e-13" y2="100.0" stroke="black" stroke-width="1"/>
<line x1="1.758593271006248e-13" y1="100.0" x2="1.758593271006248e-13" y2="90.0" stroke="black" stroke-width="1"/>
<line x1="1.758593271006248e-13" y1="90.0" x2="8.660254037844561" y2="85.0" stroke="black" stroke-width="1"/>
<line x1="8.660254037844561" y1="85.0" x2="17.32050807568895" y2="90.0" stroke="black" stroke-width="1"/>
<line x1="17.32050807568895" y1="90.0" x2="17.32050807568895" y2="100.0" stroke="black" stroke-width="1"/>
<line x1="17.32050807568895" y1="100.0" x2="25.980762113533338" y2="105.0" stroke="black" stroke-width="1"/>
<line x1="25.980762113533338" y1="105.0" x2="34.64101615137773" y2="100.0" stroke="black" stroke-width="1"/>
<line x1="34.64101615137773" y1="100.0" x2="43.301270189222116" y2="105.0" stroke="black" stroke-width="1"/>
<line x1="43.301270189222116" y1="105.0" x2="43.301270189222116" y2="115.0" stroke="black" stroke-width="1"/>
<line x1="43.301270189222116" y1="115.0" x2="34.641016151377734" y2="120.0" stroke="black" stroke-width="1"/>
<line x1="34.641016151377734" y1="120.0" x2="34.641016151377734" y2="130.0" stroke="black" stroke-width="1"/>
<line x1="34.641016151377734" y1="130.0" x2="43.30127018922212" y2="135.0" stroke="black" stroke-width="1"/>
<line x1="43.30127018922212" y1="135.0" x2="51.961524227066505" y2="130.0" stroke="black" stroke-width="1"/>
<line x1="51.961524227066505" y1="130.0" x2="51.961524227066505" y2="120.0" stroke="black" stroke-width="1"/>
<line x1="51.961524227066505" y1="120.0" x2="60.62177826491089" y2="115.0" stroke="black" stroke-width="1"/>
<line x1="60.62177826491089" y1="115.0" x2="69.28203230275527" y2="120.0" stroke="black" stroke-width="1"/>
<line x1="69.28203230275527" y1="120.0" x2="77.94228634059965" y2="115.0" stroke="black" stroke-width="1"/>
<line x1="77.94228634059965" y1="115.0" x2="77.94228634059965" y2="105.0" stroke="black" stroke-width="1"/>
<line x1="77.94228634059965" y1="105.0" x2="69.28203230275527" y2="100.0" stroke="black" stroke-width="1"/>
<line x1="69.28203230275527" y1="100.0" x2="69.28203230275527" y2="90.0" stroke="black" stroke-width="1"/>
<line x1="69.28203230275527" y1="90.0" x2="77.94228634059965" y2="85.0" stroke="black" stroke-width="1"/>
<line x1="77.94228634059965" y1="85.0" x2="86.60254037844403" y2="90.0" stroke="black" stroke-width="1"/>
<line x1="86.60254037844403" y1="90.0" x2="86.60254037844403" y2="100.0" stroke="black" stroke-width="1"/>
<line x1="86.60254037844403" y1="100.0" x2="95.26279441628841" y2="105.0" stroke="black" stroke-width="1"/>
<line x1="95.26279441628841" y1="105.0" x2="103.9230484541328" y2="100.0" stroke="black" stroke-width="1"/>
<line x1="103.9230484541328" y1="100.0" x2="103.9230484541328" y2="90.0" stroke="black" stroke-width="1"/>
<line x1="103.9230484541328" y1="90.0" x2="112.58330249197718" y2="85.0" stroke="black" stroke-width="1"/>
<line x1="112.58330249197718" y1="85.0" x2="121.24355652982156" y2="90.0" stroke="black" stroke-width="1"/>
<line x1="121.24355652982156" y1="90.0" x2="129.90381056766594" y2="85.0" stroke="black" stroke-width="1"/>
<line x1="129.90381056766594" y1="85.0" x2="129.90381056766594" y2="75.0" stroke="black" stroke-width="1"/>
<line x1="129.90381056766594" y1="75.0" x2="121.24355652982156" y2="70.0" stroke="black" stroke-width="1"/>
<line x1="121.24355652982156" y1="70.0" x2="112.58330249197718" y2="75.0" stroke="black" stroke-width="1"/>
<line x1="112.58330249197718" y1="75.0" x2="103.9230484541328" y2="70.0" stroke="black" stroke-width="1"/>
<line x1="103.9230484541328" y1="70.0" x2="103.9230484541328" y2="60.0" stroke="black" stroke-width="1"/>
<line x1="103.9230484541328" y1="60.0" x2="95.26279441628841" y2="55.0" stroke="black" stroke-width="1"/>
<line x1="95.26279441628841" y1="55.0" x2="86.60254037844403" y2="60.0" stroke="black" stroke-width="1"/>
<line x1="86.60254037844403" y1="60.0" x2="86.60254037844403" y2="70.0" stroke="black" stroke-width="1"/>
<line x1="86.60254037844403" y1="70.0" x2="77.94228634059965" y2="75.0" stroke="black" stroke-width="1"/>
<line x1="77.94228634059965" y1="75.0" x2="69.28203230275527" y2="70.0" stroke="black" stroke-width="1"/>
<line x1="69.28203230275527" y1="70.0" x2="69.28203230275527" y2="60.0" stroke="black" stroke-width="1"/>
<line x1="69.28203230275527" y1="60.0" x2="77.94228634059965" y2="55.0" stroke="black" stroke-width="1"/>
<line x1="77.94228634059965" y1="55.0" x2="77.94228634059965" y2="45.0" stroke="black" stroke-width="1"/>
<line x1="77.94228634059965" y1="45.0" x2="69.28203230275527" y2="40.0" stroke="black" stroke-width="1"/>
<line x1="69.28203230275527" y1="40.0" x2="60.62177826491089" y2="45.0" stroke="black" stroke-width="1"/>
<line x1="60.62177826491089" y1="45.0" x2="51.961524227066505" y2="40.0" stroke="black" stroke-width="1"/>
<line x1="51.961524227066505" y1="40.0" x2="51.961524227066505" y2="30.0" stroke="black" stroke-width="1"/>
<line x1="51.961524227066505" y1="30.0" x2="43.30127018922212" y2="25.0" stroke="black" stroke-width="1"/>
<line x1="43.30127018922212" y1="25.0" x2="34.64101615137774" y2="30.0" stroke="black" stroke-width="1"/>
<line x1="34.64101615137774" y1="30.0" x2="34.64101615137774" y2="40.0" stroke="black" stroke-width="1"/>
<line x1="34.64101615137774" y1="40.0" x2="43.30127018922213" y2="45.0" stroke="black" stroke-width="1"/>
<line x1="43.30127018922213" y1="45.0" x2="43.30127018922213" y2="55.0" stroke="black" stroke-width="1"/>
<line x1="43.30127018922213" y1="55.0" x2="34.64101615137775" y2="60.0" stroke="black" stroke-width="1"/>
<line x1="34.64101615137775" y1="60.0" x2="25.980762113533363" y2="55.0" stroke="black" stroke-width="1"/>
<line x1="25.980762113533363" y1="55.0" x2="17.320508075688977" y2="60.0" stroke="black" stroke-width="1"/>
<line x1="17.320508075688977" y1="60.0" x2="17.320508075688977" y2="70.0" stroke="black" stroke-width="1"/>
<line x1="17.320508075688977" y1="70.0" x2="8.660254037844593" y2="75.0" stroke="black" stroke-width="1"/>
<line x1="8.660254037844593" y1="75.0" x2="2.078337502098293e-13" y2="70.0" stroke="black" stroke-width="1"/>
<line x1="2.078337502098293e-13" y1="70.0" x2="2.078337502098293e-13" y2="60.0" stroke="black" stroke-width="1"/>
<line x1="2.078337502098293e-13" y1="60.0" x2="8.660254037844593" y2="55.0" stroke="black" stroke-width="1"/>
<line x1="8.660254037844593" y1="55.0" x2="8.660254037844593" y2="45.0" stroke="black" stroke-width="1"/>
<line x1="8.660254037844593" y1="45.0" x2="2.078337502098293e-13" y2="40.0" stroke="black" stroke-width="1"/>
<line x1="2.078337502098293e-13" y1="40.0" x2="2.078337502098293e-13" y2="30.0" stroke="black" stroke-width="1"/>
<line x1="2.078337502098293e-13" y1="30.0" x2="8.660254037844593" y2="25.0" stroke="black" stroke-width="1"/>
<line x1="8.660254037844593" y1="25.0" x2="17.32050807568898" y2="30.0" stroke="black" stroke-width="1"/>
<line x1="17.32050807568898" y1="30.0" x2="25.980762113533366" y2="25.0" stroke="black" stroke-width="1"/>
<line x1="25.980762113533366" y1="25.0" x2="25.980762113533366" y2="15.0" stroke="black" stroke-width="1"/>
<line x1="25.980762113533366" y1="15.0" x2="17.32050807568898" y2="10.0" stroke="black" stroke-width="1"/>
<line x1="17.32050807568898" y1="10.0" x2="8.660254037844597" y2="15.0" stroke="black" stroke-width="1"/>
<line x1="8.660254037844597" y1="15.0" x2="2.113864638886298e-13" y2="10.0" stroke="black" stroke-width="1"/>
<line x1="2.113864638886298e-13" y1="10.0" x2="2.113864638886298e-13" y2="0.0" stroke="black" stroke-width="1"/>
</svg>
