<svg width="277.1281292110204" height="315.0" xmlns="http://www.w3.org/2000/svg">
<line x1="277.12812921102034" y1="315.0" x2="277.12812921102034" y2="305.0" stroke="black" stroke-width="1"/>
<line x1="277.12812921102034" y1="305.0" x2="268.46787517317597" y2="300.0" stroke="black" stroke-width="1"/>
<line x1="268.46787517317597" y1="300.0" x2="259.80762113533154" y2="305.0" stroke="black" stroke-width="1"/>
<line x1="259.80762113533154" y1="305.0" x2="251.14736709748718" y2="300.0" stroke="black" stroke-width="1"/>
<line x1="251.14736709748718" y1="300.0" x2="251.14736709748718" y2="290.0" stroke="black" stroke-width="1"/>
<line x1="251.14736709748718" y1="290.0" x2="259.80762113533154" y2="285.0" stroke="black" stroke-width="1"/>
<line x1="259.80762113533154" y1="285.0" x2="268.46787517317597" y2="290.0" stroke="black" stroke-width="1"/>
<line x1="268.46787517317597" y1="290.0" x2="277.12812921102034" y2="285.0" stroke="black" stroke-width="1"/>
<line x1="277.12812921102034" y1="285.0" x2="277.12812921102034" y2="275.0" stroke="black" stroke-width="1"/>
<line x1="277.12812921102034" y1="275.0" x2="268.46787517317597" y2="270.0" stroke="black" stroke-width="1"/>
<line x1="268.46787517317597" y1="270.0" x2="268.46787517317597" y2="260.0" stroke="black" stroke-width="1"/>
<line x1="268.46787517317597" y1="260.0" x2="277.12812921102034" y2="255.0" stroke="black" stroke-width="1"/>
<line x1="277.12812921102034" y1="255.0" x2="277.12812921102034" y2="245.0" stroke="black" stroke-width="1"/>
<line x1="277.12812921102034" y1="245.0" x2="268.46787517317597" y2="240.0" stroke="black" stroke-width="1"/>
<line x1="268.46787517317597" y1="240.0" x2="259.80762113533154" y2="245.0" stroke="black" stroke-width="1"/>
<line x1="259.80762113533154" y1="245.0" x2="259.80762113533154" y2="255.0" stroke="black" stroke-width="1"/>
<line x1="259.80762113533154" y1="255.0" x2="251.14736709748718" y2="260.0" stroke="black" stroke-width="1"/>
<line x1="251.14736709748718" y1="260.0" x2="242.4871130596428" y2="255.0" stroke="black" stroke-width="1"/>
<line x1="242.4871130596428" y1="255.0" x2="233.8268590217984" y2="260.0" stroke="black" stroke-width="1"/>
<line x1="233.8268590217984" y1="260.0" x2="233.8268590217984" y2="270.0" stroke="black" stroke-width="1"/>
<line x1="233.8268590217984" y1="270.0" x2="242.4871130596428" y2="275.0" stroke="black" stroke-width="1"/>
<line x1="242.4871130596428" y1="275.0" x2="242.4871130596428" y2="285.0" stroke="black" stroke-width="1"/>
<line x1="242.4871130596428" y1="285.0" x2="233.8268590217984" y2="290.0" stroke="black" stroke-width="1"/>
<line x1="233.8268590217984" y1="290.0" x2="225.16660498395402" y2="285.0" stroke="black" stroke-width="1"/>
<line x1="225.16660498395402" y1="285.0" x2="225.16660498395402" y2="275.0" stroke="black" stroke-width="1"/>
<line x1="225.16660498395402" y1="275.0" x2="216.50635094610965" y2="270.0" stroke="black" stroke-width="1"/>
<line x1="216.50635094610965" y1="270.0" x2="207.84609690826528" y2="275.0" stroke="black" stroke-width="1"/>
<line x1="207.84609690826528" y1="275.0" x2="199.18584287042088" y2="270.0" stroke="black" stroke-width="1"/>
<line x1="199.18584287042088" y1="270.0" x2="199.18584287042088" y2="260.0" stroke="black" stroke-width="1"/>
<line x1="199.18584287042088" y1="260.0" x2="207.84609690826528" y2="255.00000000000003" stroke="black" stroke-width="1"/>
<line x1="207.84609690826528" y1="255.00000000000003" x2="207.84609690826528" y2="245.00000000000003" stroke="black" stroke-width="1"/>
<line x1="207.84609690826528" y1="245.00000000000003" x2="199.18584287042088" y2="240.00000000000003" stroke="black" stroke-width="1"/>
<line x1="199.18584287042088" y1="240.00000000000003" x2="190.5255888325765" y2="245.00000000000003" stroke="black" stroke-width="1"/>
<line x1="190.5255888325765" y1="245.00000000000003" x2="190.5255888325765" y2="255.00000000000003" stroke="black" stroke-width="1"/>
<line x1="190.5255888325765" y1="255.00000000000003" x2="181.86533479473212" y2="260.00000000000006" stroke="black" stroke-width="1"/>
<line x1="181.86533479473212" y1="260.00000000000006" x2="173.20508075688775" y2="255.00000000000003" stroke="black" stroke-width="1"/>
<line x1="173.20508075688775" y1="255.00000000000003" x2="173.20508075688775" y2="245.00000000000003" stroke="black" stroke-width="1"/>
<line x1="173.20508075688775" y1="245.00000000000003" x2="164.54482671904336" y2="240.00000000000003" stroke="black" stroke-width="1"/>
<line x1="164.54482671904336" y1="240.00000000000003" x2="155.88457268119896" y2="245.00000000000003" stroke="black" stroke-width="1"/>
<line x1="155.88457268119896" y1="245.00000000000003" x2="147.2243186433546" y2="240.00000000000003" stroke="black" stroke-width="1"/>
<line x1="147.2243186433546" y1="240.00000000000003" x2="147.2243186433546" y2="230.00000000000003" stroke="black" stroke-width="1"/>
<line x1="147.2243186433546" y1="230.00000000000003" x2="155.88457268119896" y2="225.00000000000003" stroke="black" stroke-width="1"/>
<line x1="155.88457268119896" y1="225.00000000000003" x2="164.54482671904336" y2="230.00000000000003" stroke="black" stroke-width="1"/>
<line x1="164.54482671904336" y1="230.00000000000003" x2="173.20508075688775" y2="225.00000000000003" stroke="black" stroke-width="1"/>
<line x1="173.20508075688775" y1="225.00000000000003" x2="173.20508075688775" y2="215.00000000000003" stroke="black" stroke-width="1"/>
<line x1="173.20508075688775" y1="215.00000000000003" x2="181.86533479473212" y2="210.00000000000003" stroke="black" stroke-width="1"/>
<line x1="181.86533479473212" y1="210.00000000000003" x2="190.5255888325765" y2="215.00000000000003" stroke="black" stroke-width="1"/>
<line x1="190.5255888325765" y1="215.00000000000003" x2="190.5255888325765" y2="225.00000000000003" stroke="black" stroke-width="1"/>
<line x1="190.5255888325765" y1="225.00000000000003" x2="199.18584287042088" y2="230.00000000000003" stroke="black" stroke-width="1"/>
<line x1="199.18584287042088" y1="230.00000000000003" x2="207.84609690826528" y2="225.00000000000003" stroke="black" stroke-width="1"/>
<line x1="207.84609690826528" y1="225.00000000000003" x2="207.84609690826528" y2="215.00000000000003" stroke="black" stroke-width="1"/>
<line x1="207.84609690826528" y1="215.00000000000003" x2="199.18584287042088" y2="210.00000000000003" stroke="black" stroke-width="1"/>
<line x1="199.18584287042088" y1="210.00000000000003" x2="199.18584287042088" y2="200.00000000000003" stroke="black" stroke-width="1"/>
<line x1="199.18584287042088" y1="200.00000000000003" x2="207.84609690826528" y2="195.00000000000003" stroke="black" stroke-width="1"/>
<line x1="207.84609690826528" y1="195.00000000000003" x2="216.50635094610965" y2="200.00000000000003" stroke="black" stroke-width="1"/>
<line x1="216.50635094610965" y1="200.00000000000003" x2="225.16660498395404" y2="195.00000000000003" stroke="black" stroke-width="1"/>
<line x1="225.16660498395404" y1="195.00000000000003" x2="225.16660498395404" y2="185.00000000000003" stroke="black" stroke-width="1"/>
<line x1="225.16660498395404" y1="185.00000000000003" x2="233.82685902179844" y2="180.00000000000003" stroke="black" stroke-width="1"/>
<line x1="233.82685902179844" y1="180.00000000000003" x2="242.4871130596428" y2="185.00000000000003" stroke="black" stroke-width="1"/>
<line x1="242.4871130596428" y1="185.00000000000003" x2="242.4871130596428" y2="195.00000000000003" stroke="black" stroke-width="1"/>
<line x1="242.4871130596428" y1="195.00000000000003" x2="233.82685902179844" y2="200.00000000000003" stroke="black" stroke-width="1"/>
<line x1="233.82685902179844" y1="200.00000000000003" x2="233.82685902179844" y2="210.00000000000003" stroke="black" stroke-width="1"/>
<line x1="233.82685902179844" y1="210.00000000000003" x2="242.4871130596428" y2="215.00000000000003" stroke="black" stroke-width="1"/>
<line x1="242.4871130596428" y1="215.00000000000003" x2="251.1473670974872" y2="210.00000000000003" stroke="black" stroke-width="1"/>
<line x1="251.1473670974872" y1="210.00000000000003" x2="259.8076211353316" y2="215.00000000000003" stroke="black" stroke-width="1"/>
<line x1="259.8076211353316" y1="215.00000000000003" x2="259.8076211353316" y2="225.00000000000003" stroke="black" stroke-width="1"/>
<line x1="259.8076211353316" y1="225.00000000000003" x2="268.46787517317597" y2="230.00000000000003" stroke="black" stroke-width="1"/>
<line x1="268.46787517317597" y1="230.00000000000003" x2="277.1281292110204" y2="225.00000000000003" stroke="black" stroke-width="1"/>
<line x1="277.1281292110204" y1="225.00000000000003" x2="277.1281292110204" y2="215.00000000000003" stroke="black" stroke-width="1"/>
<line x1="277.1281292110204" y1="215.00000000000003" x2="268.46787517317597" y2="210.00000000000003" stroke="black" stroke-width="1"/>
<line x1="268.46787517317597" y1="210.00000000000003" x2="268.46787517317597" y2="200.00000000000003" stroke="black" stroke-width="1"/>
<line x1="268.46787517317597" y1="200.00000000000003" x2="277.1281292110204" y2="195.00000000000003" stroke="black" stroke-width="1"/>
<line x1="277.1281292110204" y1="195.00000000000003" x2="277.1281292110204" y2="185.00000000000003" stroke="black" stroke-width="1"/>
<line x1="277.1281292110204" y1="185.00000000000003" x2="268.46787517317597" y2="180.00000000000003" stroke="black" stroke-width="1"/>
<line x1="268.46787517317597" y1="180.00000000000003" x2="259.8076211353316" y2="185.00000000000003" stroke="black" stroke-width="1"/>
<line x1="259.8076211353316" y1="185.00000000000003" x2="251.1473670974872" y2="180.00000000000003" stroke="black" stroke-width="1"/>
<line x1="251.1473670974872" y1="180.00000000000003" x2="251.1473670974872" y2="170.00000000000003" stroke="black" stroke-width="1"/>
<line x1="251.1473670974872" y1="170.00000000000003" x2="259.8076211353316" y2="165.00000000000003" stroke="black" stroke-width="1"/>
<line x1="259.8076211353316" y1="165.00000000000003" x2="268.46787517317597" y2="170.00000000000003" stroke="black" stroke-width="1"/>
<line x1="268.46787517317597" y1="170.00000000000003" x2="277.1281292110204" y2="165.00000000000003" stroke="black" stroke-width="1"/>
<line x1="277.1281292110204" y1="165.00000000000003" x2="277.1281292110204" y2="155.00000000000003" stroke="black" stroke-width="1"/>
<line x1="277.1281292110204" y1="155.00000000000003" x2="268.46787517317597" y2="150.00000000000003" stroke="black" stroke-width="1"/>
<line x1="268.46787517317597" y1="150.00000000000003" x2="268.46787517317597" y2="140.00000000000003" stroke="black" stroke-width="1"/>
<line x1="268.46787517317597" y1="140.00000000000003" x2="277.1281292110204" y2="135.00000000000003" stroke="black" stroke-width="1"/>
<line x1="277.1281292110204" y1="135.00000000000003" x2="277.1281292110204" y2="125.00000000000003" stroke="black" stroke-width="1"/>
<line x1="277.1281292110204" y1="125.00000000000003" x2="268.46787517317597" y2="120.00000000000003" stroke="black" stroke-width="1"/>
<line x1="268.46787517317597" y1="120.00000000000003" x2="259.8076211353316" y2="125.00000000000003" stroke="black" stroke-width="1"/>
<line x1="259.8076211353316" y1="125.00000000000003" x2="259.8076211353316" y2="135.00000000000003" stroke="black" stroke-width="1"/>
<line x1="259.8076211353316" y1="135.00000000000003" x2="251.14736709748723" y2="140.00000000000003" stroke="black" stroke-width="1"/>
<line x1="251.14736709748723" y1="140.00000000000003" x2="242.48711305964284" y2="135.00000000000003" stroke="black" stroke-width="1"/>
<line x1="242.48711305964284" y1="135.00000000000003" x2="242.48711305964284" y2="125.00000000000003" stroke="black" stroke-width="1"/>
<line x1="242.48711305964284" y1="125.00000000000003" x2="233.82685902179844" y2="120.00000000000003" stroke="black" stroke-width="1"/>
<line x1="233.82685902179844" y1="120.00000000000003" x2="225.16660498395407" y2="125.00000000000003" stroke="black" stroke-width="1"/>
<line x1="225.16660498395407" y1="125.00000000000003" x2="216.5063509461097" y2="120.00000000000003" stroke="black" stroke-width="1"/>
<line x1="216.5063509461097" y1="120.00000000000003" x2="216.5063509461097" y2="110.00000000000003" stroke="black" stroke-width="1"/>
<line x1="216.5063509461097" y1="110.00000000000003" x2="225.16660498395407" y2="105.00000000000003" stroke="black" stroke-width="1"/>
<line x1="225.16660498395407" y1="105.00000000000003" x2="233.82685902179847" y2="110.00000000000003" stroke="black" stroke-width="1"/>
<line x1="233.82685902179847" y1="110.00000000000003" x2="242.48711305964287" y2="105.00000000000003" stroke="black" stroke-width="1"/>
<line x1="242.48711305964287" y1="105.00000000000003" x2="242.48711305964287" y2="95.00000000000003" stroke="black" stroke-width="1"/>
<line x1="242.48711305964287" y1="95.00000000000003" x2="251.14736709748723" y2="90.00000000000003" stroke="black" stroke-width="1"/>
<line x1="251.14736709748723" y1="90.00000000000003" x2="259.8076211353316" y2="95.00000000000003" stroke="black" stroke-width="1"/>
<line x1="259.8076211353316" y1="95.00000000000003" x2="259.8076211353316" y2="105.00000000000003" stroke="black" stroke-width="1"/>
<line x1="259.8076211353316" y1="105.00000000000003" x2="268.467875173176" y2="110.00000000000003" stroke="black" stroke-width="1"/>
<line x1="268.467875173176" y1="110.00000000000003" x2="277.1281292110204" y2="105.00000000000003" stroke="black" stroke-width="1"/>
<line x1="277.1281292110204" y1="105.00000000000003" x2="277.1281292110204" y2="95.00000000000003" stroke="black" stroke-width="1"/>
<line x1="277.1281292110204" y1="95.00000000000003" x2="268.467875173176" y2="90.00000000000003" stroke="black" stroke-width="1"/>
<line x1="268.467875173176" y1="90.00000000000003" x2="268.467875173176" y2="80.00000000000003" stroke="black" stroke-width="1"/>
<line x1="268.467875173176" y1="80.00000000000003" x2="277.1281292110204" y2="75.00000000000003" stroke="black" stroke-width="1"/>
<line x1="277.1281292110204" y1="75.00000000000003" x2="277.1281292110204" y2="65.00000000000003" stroke="black" stroke-width="1"/>
<line x1="277.1281292110204" y1="65.00000000000003" x2="268.467875173176" y2="60.00000000000003" stroke="black" stroke-width="1"/>
<line x1="268.467875173176" y1="60.00000000000003" x2="259.8076211353316" y2="65.00000000000003" stroke="black" stroke-width="1"/>
<line x1="259.8076211353316" y1="65.00000000000003" x2="251.14736709748723" y2="60.00000000000003" stroke="black" stroke-width="1"/>
<line x1="251.14736709748723" y1="60.00000000000003" x2="251.14736709748723" y2="50.0" stroke="black" stroke-width="1"/>
<line x1="251.14736709748723" y1="50.0" x2="259.8076211353316" y2="45.0" stroke="black" stroke-width="1"/>
<line x1="259.8076211353316" y1="45.0" x2="268.467875173176" y2="50.0" stroke="black" stroke-width="1"/>
<line x1="268.467875173176" y1="50.0" x2="277.1281292110204" y2="45.0" stroke="black" stroke-width="1"/>
<line x1="277.1281292110204" y1="45.0" x2="277.1281292110204" y2="35.0" stroke="black" stroke-width="1"/>
<line x1="277.1281292110204" y1="35.0" x2="268.467875173176" y2="30.0" stroke="black" stroke-width="1"/>
<line x1="268.467875173176" y1="30.0" x2="268.467875173176" y2="20.0" stroke="black" stroke-width="1"/>
<line x1="268.467875173176" y1="20.0" x2="277.1281292110204" y2="15.0" stroke="black" stroke-width="1"/>
<line x1="277.1281292110204" y1="15.0" x2="277.1281292110204" y2="5.0" stroke="black" stroke-width="1"/>
<line x1="277.1281292110204" y1="5.0" x2="268.467875173176" y2="0.0" stroke="black" stroke-width="1"/>
<line x1="268.467875173176" y1="0.0" x2="259.8076211353316" y2="5.0" stroke="black" stroke-width="1"/>
<line x1="259.8076211353316" y1="5.0" x2="259.8076211353316" y2="15.0" stroke="black" stroke-width="1"/>
<line x1="259.8076211353316" y1="15.0" x2="251.14736709748723" y2="20.0" stroke="black" stroke-width="1"/>
<line x1="251.14736709748723" y1="20.0" x2="242.48711305964287" y2="15.0" stroke="black" stroke-width="1"/>
<line x1="242.48711305964287" y1="15.0" x2="233.8268590217985" y2="20.0" stroke="black" stroke-width="1"/>
<line x1="233.8268590217985" y1="20.0" x2="233.8268590217985" y2="30.0" stroke="black" stroke-width="1"/>
<line x1="233.8268590217985" y1="30.0" x2="242.48711305964287" y2="35.0" stroke="black" stroke-width="1"/>
<line x1="242.48711305964287" y1="35.0" x2="242.48711305964287" y2="45.0" stroke="black" stroke-width="1"/>
<line x1="242.48711305964287" y1="45.0" x2="233.8268590217985" y2="50.0" stroke="black" stroke-width="1"/>
<line x1="233.8268590217985" y1="50.0" x2="225.1666049839541" y2="45.0" stroke="black" stroke-width="1"/>
<line x1="225.1666049839541" y1="45.0" x2="225.1666049839541" y2="35.0" stroke="black" stroke-width="1"/>
<line x1="225.1666049839541" y1="35.0" x2="216.5063509461097" y2="30.0" stroke="black" stroke-width="1"/>
<line x1="216.5063509461097" y1="30.0" x2="207.84609690826534" y2="35.0" stroke="black" stroke-width="1"/>
<line x1="207.84609690826534" y1="35.0" x2="207.84609690826534" y2="45.0" stroke="black" stroke-width="1"/>
<line x1="207.84609690826534" y1="45.0" x2="199.18584287042097" y2="50.0" stroke="black" stroke-width="1"/>
<line x1="199.18584287042097" y1="50.0" x2="190.52558883257657" y2="45.0" stroke="black" stroke-width="1"/>
<line x1="190.52558883257657" y1="45.0" x2="181.86533479473218" y2="50.0" stroke="black" stroke-width="1"/>
<line x1="181.86533479473218" y1="50.0" x2="181.86533479473218" y2="60.0" stroke="black" stroke-width="1"/>
<line x1="181.86533479473218" y1="60.0" x2="190.52558883257657" y2="65.0" stroke="black" stroke-width="1"/>
<line x1="190.52558883257657" y1="65.0" x2="199.18584287042097" y2="60.0" stroke="black" stroke-width="1"/>
<line x1="199.18584287042097" y1="60.0" x2="207.84609690826534" y2="65.0" stroke="black" stroke-width="1"/>
<line x1="207.84609690826534" y1="65.0" x2="207.84609690826534" y2="75.0" stroke="black" stroke-width="1"/>
<line x1="207.84609690826534" y1="75.0" x2="199.18584287042097" y2="80.0" stroke="black" stroke-width="1"/>
<line x1="199.18584287042097" y1="80.0" x2="199.18584287042097" y2="90.0" stroke="black" stroke-width="1"/>
<line x1="199.18584287042097" y1="90.0" x2="207.84609690826534" y2="95.0" stroke="black" stroke-width="1"/>
<line x1="207.84609690826534" y1="95.0" x2="207.84609690826534" y2="105.0" stroke="black" stroke-width="1"/>
<line x1="207.84609690826534" y1="105.0" x2="199.18584287042097" y2="110.0" stroke="black" stroke-width="1"/>
<line x1="199.18584287042097" y1="110.0" x2="190.52558883257657" y2="105.0" stroke="black" stroke-width="1"/>
<line x1="190.52558883257657" y1="105.0" x2="190.52558883257657" y2="95.0" stroke="black" stroke-width="1"/>
<line x1="190.52558883257657" y1="95.0" x2="181.86533479473218" y2="90.0" stroke="black" stroke-width="1"/>
<line x1="181.86533479473218" y1="90.0" x2="173.2050807568878" y2="95.0" stroke="black" stroke-width="1"/>
<line x1="173.2050807568878" y1="95.0" x2="164.54482671904344" y2="90.0" stroke="black" stroke-width="1"/>
<line x1="164.54482671904344" y1="90.0" x2="164.54482671904344" y2="80.0" stroke="black" stroke-width="1"/>
<line x1="164.54482671904344" y1="80.0" x2="173.2050807568878" y2="75.0" stroke="black" stroke-width="1"/>
<line x1="173.2050807568878" y1="75.0" x2="173.2050807568878" y2="65.0" stroke="black" stroke-width="1"/>
<line x1="173.2050807568878" y1="65.0" x2="164.54482671904344" y2="60.0" stroke="black" stroke-width="1"/>
<line x1="164.54482671904344" y1="60.0" x2="155.88457268119905" y2="65.0" stroke="black" stroke-width="1"/>
<line x1="155.88457268119905" y1="65.0" x2="155.88457268119905" y2="75.0" stroke="black" stroke-width="1"/>
<line x1="155.88457268119905" y1="75.0" x2="147.22431864335465" y2="80.0" stroke="black" stroke-width="1"/>
<line x1="147.22431864335465" y1="80.0" x2="138.56406460551025" y2="75.0" stroke="black" stroke-width="1"/>
<line x1="138.56406460551025" y1="75.0" x2="129.90381056766586" y2="80.0" stroke="black" stroke-width="1"/>
<line x1="129.90381056766586" y1="80.0" x2="129.90381056766586" y2="90.0" stroke="black" stroke-width="1"/>
<line x1="129.90381056766586" y1="90.0" x2="138.56406460551025" y2="95.0" stroke="black" stroke-width="1"/>
<line x1="138.56406460551025" y1="95.0" x2="138.56406460551025" y2="105.0" stroke="black" stroke-width="1"/>
<line x1="138.56406460551025" y1="105.0" x2="129.90381056766586" y2="110.0" stroke="black" stroke-width="1"/>
<line x1="129.90381056766586" y1="110.0" x2="121.24355652982146" y2="105.0" stroke="black" stroke-width="1"/>
<line x1="121.24355652982146" y1="105.0" x2="121.24355652982146" y2="95.0" stroke="black" stroke-width="1"/>
<line x1="121.24355652982146" y1="95.0" x2="112.58330249197707" y2="90.0" stroke="black" stroke-width="1"/>
<line x1="112.58330249197707" y1="90.0" x2="103.92304845413267" y2="95.0" stroke="black" stroke-width="1"/>
<line x1="103.92304845413267" y1="95.0" x2="103.92304845413267" y2="105.0" stroke="black" stroke-width="1"/>
<line x1="103.92304845413267" y1="105.0" x2="95.26279441628827" y2="110.0" stroke="black" stroke-width="1"/>
<line x1="95.26279441628827" y1="110.0" x2="86.60254037844388" y2="105.0" stroke="black" stroke-width="1"/>
<line x1="86.60254037844388" y1="105.0" x2="77.94228634059948" y2="110.0" stroke="black" stroke-width="1"/>
<line x1="77.94228634059948" y1="110.0" x2="77.94228634059948" y2="120.0" stroke="black" stroke-width="1"/>
<line x1="77.94228634059948" y1="120.0" x2="86.60254037844388" y2="125.0" stroke="black" stroke-width="1"/>
<line x1="86.60254037844388" y1="125.0" x2="95.26279441628827" y2="120.0" stroke="black" stroke-width="1"/>
<line x1="95.26279441628827" y1="120.0" x2="103.92304845413267" y2="125.0" stroke="black" stroke-width="1"/>
<line x1="103.92304845413267" y1="125.0" x2="103.92304845413267" y2="135.0" stroke="black" stroke-width="1"/>
<line x1="103.92304845413267" y1="135.0" x2="112.58330249197707" y2="140.0" stroke="black" stroke-width="1"/>
<line x1="112.58330249197707" y1="140.0" x2="121.24355652982146" y2="135.0" stroke="black" stroke-width="1"/>
<line x1="121.24355652982146" y1="135.0" x2="121.24355652982146" y2="125.0" stroke="black" stroke-width="1"/>
<line x1="121.24355652982146" y1="125.0" x2="129.90381056766586" y2="120.0" stroke="black" stroke-width="1"/>
<line x1="129.90381056766586" y1="120.0" x2="138.56406460551025" y2="125.0" stroke="black" stroke-width="1"/>
<line x1="138.56406460551025" y1="125.0" x2="138.56406460551025" y2="135.0" stroke="black" stroke-width="1"/>
<line x1="138.56406460551025" y1="135.0" x2="129.90381056766586" y2="140.0" stroke="black" stroke-width="1"/>
<line x1="129.90381056766586" y1="140.0" x2="129.90381056766586" y2="150.0" stroke="black" stroke-width="1"/>
<line x1="129.90381056766586" y1="150.0" x2="138.56406460551025" y2="155.0" stroke="black" stroke-width="1"/>
<line x1="138.56406460551025" y1="155.0" x2="138.56406460551025" y2="165.0" stroke="black" stroke-width="1"/>
<line x1="138.56406460551025" y1="165.0" x2="129.90381056766586" y2="170.0" stroke="black" stroke-width="1"/>
<line x1="129.90381056766586" y1="170.0" x2="121.24355652982146" y2="165.0" stroke="black" stroke-width="1"/>
<line x1="121.24355652982146" y1="165.0" x2="112.58330249197707" y2="170.0" stroke="black" stroke-width="1"/>
<line x1="112.58330249197707" y1="170.0" x2="112.58330249197707" y2="180.0" stroke="black" stroke-width="1"/>
<line x1="112.58330249197707" y1="180.0" x2="121.24355652982146" y2="185.0" stroke="black" stroke-width="1"/>
<line x1="121.24355652982146" y1="185.0" x2="129.90381056766586" y2="180.0" stroke="black" stroke-width="1"/>
<line x1="129.90381056766586" y1="180.0" x2="138.56406460551025" y2="185.0" stroke="black" stroke-width="1"/>
<line x1="138.56406460551025" y1="185.0" x2="138.56406460551025" y2="195.0" stroke="black" stroke-width="1"/>
<line x1="138.56406460551025" y1="195.0" x2="129.90381056766586" y2="200.0" stroke="black" stroke-width="1"/>
<line x1="129.90381056766586" y1="200.0" x2="129.90381056766586" y2="210.0" stroke="black" stroke-width="1"/>
<line x1="129.90381056766586" y1="210.0" x2="138.56406460551025" y2="215.0" stroke="black" stroke-width="1"/>
<line x1="138.56406460551025" y1="215.0" x2="138.56406460551025" y2="225.0" stroke="black" stroke-width="1"/>
<line x1="138.56406460551025" y1="225.0" x2="129.90381056766586" y2="230.0" stroke="black" stroke-width="1"/>
<line x1="129.90381056766586" y1="230.0" x2="121.24355652982146" y2="225.0" stroke="black" stroke-width="1"/>
<line x1="121.24355652982146" y1="225.0" x2="121.24355652982146" y2="215.0" stroke="black" stroke-width="1"/>
<line x1="121.24355652982146" y1="215.0" x2="112.58330249197707" y2="210.0" stroke="black" stroke-width="1"/>
<line x1="112.58330249197707" y1="210.0" x2="103.92304845413267" y2="215.0" stroke="black" stroke-width="1"/>
<line x1="103.92304845413267" y1="215.0" x2="95.26279441628827" y2="210.0" stroke="black" stroke-width="1"/>
<line x1="95.26279441628827" y1="210.0" x2="95.26279441628827" y2="200.0" stroke="black" stroke-width="1"/>
<line x1="95.26279441628827" y1="200.0" x2="103.92304845413267" y2="195.0" stroke="black" stroke-width="1"/>
<line x1="103.92304845413267" y1="195.0" x2="103.92304845413267" y2="185.0" stroke="black" stroke-width="1"/>
<line x1="103.92304845413267" y1="185.0" x2="95.26279441628827" y2="180.0" stroke="black" stroke-width="1"/>
<line x1="95.26279441628827" y1="180.0" x2="86.60254037844388" y2="185.0" stroke="black" stroke-width="1"/>
<line x1="86.60254037844388" y1="185.0" x2="86.60254037844388" y2="195.0" stroke="black" stroke-width="1"/>
<line x1="86.60254037844388" y1="195.0" x2="77.94228634059948" y2="200.0" stroke="black" stroke-width="1"/>
<line x1="77.94228634059948" y1="200.0" x2="69.28203230275508" y2="195.0" stroke="black" stroke-width="1"/>
<line x1="69.28203230275508" y1="195.0" x2="69.28203230275508" y2="185.0" stroke="black" stroke-width="1"/>
<line x1="69.28203230275508" y1="185.0" x2="60.62177826491069" y2="180.0" stroke="black" stroke-width="1"/>
<line x1="60.62177826491069" y1="180.0" x2="51.96152422706629" y2="185.0" stroke="black" stroke-width="1"/>
<line x1="51.96152422706629" y1="185.0" x2="43.301270189221896" y2="180.0" stroke="black" stroke-width="1"/>
<line x1="43.301270189221896" y1="180.0" x2="43.301270189221896" y2="170.0" stroke="black" stroke-width="1"/>
<line x1="43.301270189221896" y1="170.0" x2="51.96152422706629" y2="165.0" stroke="black" stroke-width="1"/>
<line x1="51.96152422706629" y1="165.0" x2="60.62177826491069" y2="170.0" stroke="black" stroke-width="1"/>
<line x1="60.62177826491069" y1="170.0" x2="69.28203230275508" y2="165.0" stroke="black" stroke-width="1"/>
<line x1="69.28203230275508" y1="165.0" x2="69.28203230275508" y2="155.0" stroke="black" stroke-width="1"/>
<line x1="69.28203230275508" y1="155.0" x2="60.62177826491069" y2="150.0" stroke="black" stroke-width="1"/>
<line x1="60.62177826491069" y1="150.0" x2="60.62177826491069" y2="140.0" stroke="black" stroke-width="1"/>
<line x1="60.62177826491069" y1="140.0" x2="69.28203230275508" y2="135.0" stroke="black" stroke-width="1"/>
<line x1="69.28203230275508" y1="135.0" x2="69.28203230275508" y2="125.0" stroke="black" stroke-width="1"/>
<line x1="69.28203230275508" y1="125.0" x2="60.62177826491069" y2="120.0" stroke="black" stroke-width="1"/>
<line x1="60.62177826491069" y1="120.0" x2="51.96152422706629" y2="125.0" stroke="black" stroke-width="1"/>
<line x1="51.96152422706629" y1="125.0" x2="51.96152422706629" y2="135.0" stroke="black" stroke-width="1"/>
<line x1="51.96152422706629" y1="135.0" x2="43.301270189221896" y2="140.0" stroke="black" stroke-width="1"/>
<line x1="43.301270189221896" y1="140.0" x2="34.6410161513775" y2="135.0" stroke="black" stroke-width="1"/>
<line x1="34.6410161513775" y1="135.0" x2="25.980762113533103" y2="140.0" stroke="black" stroke-width="1"/>
<line x1="25.980762113533103" y1="140.0" x2="25.980762113533103" y2="150.0" stroke="black" stroke-width="1"/>
<line x1="25.980762113533103" y1="150.0" x2="34.6410161513775" y2="155.0" stroke="black" stroke-width="1"/>
<line x1="34.6410161513775" y1="155.0" x2="34.6410161513775" y2="165.0" stroke="black" stroke-width="1"/>
<line x1="34.6410161513775" y1="165.0" x2="25.980762113533103" y2="170.0" stroke="black" stroke-width="1"/>
<line x1="25.980762113533103" y1="170.0" x2="17.320508075688736" y2="165.0" stroke="black" stroke-width="1"/>
<line x1="17.320508075688736" y1="165.0" x2="17.320508075688736" y2="155.0" stroke="black" stroke-width="1"/>
<line x1="17.320508075688736" y1="155.0" x2="8.660254037844368" y2="150.0" stroke="black" stroke-width="1"/>
<line x1="8.660254037844368" y1="150.0" x2="0.0" y2="155.0" stroke="black" stroke-width="1"/>
</svg>
