<svg width="129.90381056766577" height="160.0" xmlns="http://www.w3.org/2000/svg">
<line x1="0" y1="160.0" x2="0.0" y2="150.0" stroke="black" stroke-width="1"/>
<line x1="0.0" y1="150.0" x2="8.660254037844386" y2="145.0" stroke="black" stroke-width="1"/>
<line x1="8.660254037844386" y1="145.0" x2="17.32050807568877" y2="150.0" stroke="black" stroke-width="1"/>
<line x1="17.32050807568877" y1="150.0" x2="25.980762113533157" y2="145.0" stroke="black" stroke-width="1"/>
<line x1="25.980762113533157" y1="145.0" x2="25.980762113533157" y2="135.0" stroke="black" stroke-width="1"/>
<line x1="25.980762113533157" y1="135.0" x2="17.32050807568877" y2="130.0" stroke="black" stroke-width="1"/>
<line x1="17.32050807568877" y1="130.0" x2="8.660254037844387" y2="135.0" stroke="black" stroke-width="1"/>
<line x1="8.660254037844387" y1="135.0" x2="1.7763568394002505e-15" y2="130.0" stroke="black" stroke-width="1"/>
<line x1="1.7763568394002505e-15" y1="130.0" x2="1.7763568394002505e-15" y2="120.0" stroke="black" stroke-width="1"/>
<line x1="1.7763568394002505e-15" y1="120.0" x2="8.660254037844387" y2="115.0" stroke="black" stroke-width="1"/>
<line x1="8.660254037844387" y1="115.0" x2="8.660254037844387" y2="105.0" stroke="black" stroke-width="1"/>
<line x1="8.660254037844387" y1="105.0" x2="1.7763568394002505e-15" y2="100.0" stroke="black" stroke-width="1"/>
<line x1="1.7763568394002505e-15" y1="100.0" x2="1.7763568394002505e-15" y2="90.0" stroke="black" stroke-width="1"/>
<line x1="1.7763568394002505e-15" y1="90.0" x2="8.660254037844387" y2="85.0" stroke="black" stroke-width="1"/>
<line x1="8.660254037844387" y1="85.0" x2="17.320508075688775" y2="90.0" stroke="black" stroke-width="1"/>
<line x1="17.320508075688775" y1="90.0" x2="17.320508075688775" y2="100.0" stroke="black" stroke-width="1"/>
<line x1="17.320508075688775" y1="100.0" x2="25.98076211353316" y2="105.0" stroke="black" stroke-width="1"/>
<line x1="25.98076211353316" y1="105.0" x2="34.64101615137754" y2="100.0" stroke="black" stroke-width="1"/>
<line x1="34.64101615137754" y1="100.0" x2="43.30127018922193" y2="105.0" stroke="black" stroke-width="1"/>
<line x1="43.30127018922193" y1="105.0" x2="43.30127018922193" y2="115.0" stroke="black" stroke-width="1"/>
<line x1="43.30127018922193" y1="115.0" x2="34.64101615137755" y2="120.0" stroke="black" stroke-width="1"/>
<line x1="34.64101615137755" y1="120.0" x2="34.64101615137755" y2="130.0" stroke="black" stroke-width="1"/>
<line x1="34.64101615137755" y1="130.0" x2="43.30127018922194" y2="135.0" stroke="black" stroke-width="1"/>
<line x1="43.30127018922194" y1="135.0" x2="51.96152422706632" y2="130.0" stroke="black" stroke-width="1"/>
<line x1="51.96152422706632" y1="130.0" x2="51.96152422706632" y2="120.0" stroke="black" stroke-width="1"/>
<line x1="51.96152422706632" y1="120.0" x2="60.6217782649107" y2="115.0" stroke="black" stroke-width="1"/>
<line x1="60.6217782649107" y1="115.0" x2="69.28203230275508" y2="120.0" stroke="black" stroke-width="1"/>
<line x1="69.28203230275508" y1="120.0" x2="77.94228634059947" y2="115.0" stroke="black" stroke-width="1"/>
<line x1="77.94228634059947" y1="115.0" x2="77.94228634059947" y2="105.0" stroke="black" stroke-width="1"/>
<line x1="77.94228634059947" y1="105.0" x2="69.28203230275508" y2="100.0" stroke="black" stroke-width="1"/>
<line x1="69.28203230275508" y1="100.0" x2="69.28203230275508" y2="90.0" stroke="black" stroke-width="1"/>
<line x1="69.28203230275508" y1="90.0" x2="77.94228634059947" y2="85.0" stroke="black" stroke-width="1"/>
<line x1="77.94228634059947" y1="85.0" x2="86.60254037844385" y2="90.0" stroke="black" stroke-width="1"/>
<line x1="86.60254037844385" y1="90.0" x2="86.60254037844385" y2="100.0" stroke="black" stroke-width="1"/>
<line x1="86.60254037844385" y1="100.0" x2="95.26279441628823" y2="105.0" stroke="black" stroke-width="1"/>
<line x1="95.26279441628823" y1="105.0" x2="103.92304845413261" y2="100.0" stroke="black" stroke-width="1"/>
<line x1="103.92304845413261" y1="100.0" x2="103.92304845413261" y2="90.0" stroke="black" stroke-width="1"/>
<line x1="103.92304845413261" y1="90.0" x2="112.583302491977" y2="85.0" stroke="black" stroke-width="1"/>
<line x1="112.583302491977" y1="85.0" x2="121.24355652982138" y2="90.0" stroke="black" stroke-width="1"/>
<line x1="121.24355652982138" y1="90.0" x2="129.90381056766577" y2="85.0" stroke="black" stroke-width="1"/>
<line x1="129.90381056766577" y1="85.0" x2="129.90381056766577" y2="75.0" stroke="black" stroke-width="1"/>
<line x1="129.90381056766577" y1="75.0" x2="121.24355652982139" y2="70.0" stroke="black" stroke-width="1"/>
<line x1="121.24355652982139" y1="70.0" x2="112.58330249197701" y2="75.0" stroke="black" stroke-width="1"/>
<line x1="112.58330249197701" y1="75.0" x2="103.92304845413263" y2="70.0" stroke="black" stroke-width="1"/>
<line x1="103.92304845413263" y1="70.0" x2="103.92304845413263" y2="60.0" stroke="black" stroke-width="1"/>
<line x1="103.92304845413263" y1="60.0" x2="95.26279441628824" y2="55.0" stroke="black" stroke-width="1"/>
<line x1="95.26279441628824" y1="55.0" x2="86.60254037844386" y2="60.0" stroke="black" stroke-width="1"/>
<line x1="86.60254037844386" y1="60.0" x2="86.60254037844386" y2="70.0" stroke="black" stroke-width="1"/>
<line x1="86.60254037844386" y1="70.0" x2="77.94228634059948" y2="75.0" stroke="black" stroke-width="1"/>
<line x1="77.94228634059948" y1="75.0" x2="69.2820323027551" y2="70.0" stroke="black" stroke-width="1"/>
<line x1="69.2820323027551" y1="70.0" x2="69.2820323027551" y2="60.0" stroke="black" stroke-width="1"/>
<line x1="69.2820323027551" y1="60.0" x2="77.94228634059948" y2="55.0" stroke="black" stroke-width="1"/>
<line x1="77.94228634059948" y1="55.0" x2="77.94228634059948" y2="45.0" stroke="black" stroke-width="1"/>
<line x1="77.94228634059948" y1="45.0" x2="69.2820323027551" y2="40.0" stroke="black" stroke-width="1"/>
<line x1="69.2820323027551" y1="40.0" x2="60.621778264910716" y2="45.0" stroke="black" stroke-width="1"/>
<line x1="60.621778264910716" y1="45.0" x2="51.961524227066334" y2="40.0" stroke="black" stroke-width="1"/>
<line x1="51.961524227066334" y1="40.0" x2="51.961524227066334" y2="30.0" stroke="black" stroke-width="1"/>
<line x1="51.961524227066334" y1="30.0" x2="43.30127018922195" y2="25.0" stroke="black" stroke-width="1"/>
<line x1="43.30127018922195" y1="25.0" x2="34.64101615137757" y2="30.0" stroke="black" stroke-width="1"/>
<line x1="34.64101615137757" y1="30.0" x2="34.64101615137757" y2="40.0" stroke="black" stroke-width="1"/>
<line x1="34.64101615137757" y1="40.0" x2="43.30127018922196" y2="45.0" stroke="black" stroke-width="1"/>
<line x1="43.30127018922196" y1="45.0" x2="43.30127018922196" y2="55.0" stroke="black" stroke-width="1"/>
<line x1="43.30127018922196" y1="55.0" x2="34.64101615137758" y2="60.0" stroke="black" stroke-width="1"/>
<line x1="34.64101615137758" y1="60.0" x2="25.980762113533192" y2="55.0" stroke="black" stroke-width="1"/>
<line x1="25.980762113533192" y1="55.0" x2="17.320508075688807" y2="60.0" stroke="black" stroke-width="1"/>
<line x1="17.320508075688807" y1="60.0" x2="17.320508075688807" y2="70.0" stroke="black" stroke-width="1"/>
<line x1="17.320508075688807" y1="70.0" x2="8.660254037844423" y2="75.0" stroke="black" stroke-width="1"/>
<line x1="8.660254037844423" y1="75.0" x2="3.730349362740526e-14" y2="70.0" stroke="black" stroke-width="1"/>
<line x1="3.730349362740526e-14" y1="70.0" x2="3.730349362740526e-14" y2="60.0" stroke="black" stroke-width="1"/>
<line x1="3.730349362740526e-14" y1="60.0" x2="8.660254037844423" y2="55.0" stroke="black" stroke-width="1"/>
<line x1="8.660254037844423" y1="55.0" x2="8.660254037844423" y2="45.0" stroke="black" stroke-width="1"/>
<line x1="8.660254037844423" y1="45.0" x2="3.730349362740526e-14" y2="40.0" stroke="black" stroke-width="1"/>
<line x1="3.730349362740526e-14" y1="40.0" x2="3.730349362740526e-14" y2="30.0" stroke="black" stroke-width="1"/>
<line x1="3.730349362740526e-14" y1="30.0" x2="8.660254037844423" y2="25.0" stroke="black" stroke-width="1"/>
<line x1="8.660254037844423" y1="25.0" x2="17.32050807568881" y2="30.0" stroke="black" stroke-width="1"/>
<line x1="17.32050807568881" y1="30.0" x2="25.980762113533196" y2="25.0" stroke="black" stroke-width="1"/>
<line x1="25.980762113533196" y1="25.0" x2="25.980762113533196" y2="15.0" stroke="black" stroke-width="1"/>
<line x1="25.980762113533196" y1="15.0" x2="17.32050807568881" y2="10.0" stroke="black" stroke-width="1"/>
<line x1="17.32050807568881" y1="10.0" x2="8.660254037844426" y2="15.0" stroke="black" stroke-width="1"/>
<line x1="8.660254037844426" y1="15.0" x2="4.085620730620576e-14" y2="10.0" stroke="black" stroke-width="1"/>
<line x1="4.085620730620576e-14" y1="10.0" x2="4.085620730620576e-14" y2="0.0" stroke="black" stroke-width="1"/>
</svg>
