<svg width="125.65463278469467" height="190.630778703665" xmlns="http://www.w3.org/2000/svg">
<line x1="41.884877594898214" y1="190.630778703665" x2="41.884877594898214" y2="180.630778703665" stroke="black" stroke-width="1"/>
<line x1="41.884877594898214" y1="180.630778703665" x2="41.884877594898214" y2="170.630778703665" stroke="black" stroke-width="1"/>
<line x1="41.884877594898214" y1="170.630778703665" x2="41.884877594898214" y2="160.630778703665" stroke="black" stroke-width="1"/>
<line x1="41.884877594898214" y1="160.630778703665" x2="41.884877594898214" y2="150.630778703665" stroke="black" stroke-width="1"/>
<line x1="41.884877594898214" y1="150.630778703665" x2="37.65869497749122" y2="141.5677008332985" stroke="black" stroke-width="1"/>
<line x1="37.65869497749122" y1="141.5677008332985" x2="33.43251236008423" y2="132.504622962932" stroke="black" stroke-width="1"/>
<line x1="33.43251236008423" y1="132.504622962932" x2="25.77206792889445" y2="126.0767468660666" stroke="black" stroke-width="1"/>
<line x1="25.77206792889445" y1="126.0767468660666" x2="16.112809666003766" y2="123.4885564150414" stroke="black" stroke-width="1"/>
<line x1="25.77206792889445" y1="126.0767468660666" x2="18.11162349770467" y2="119.64887076920121" stroke="black" stroke-width="1"/>
<line x1="25.77206792889445" y1="126.0767468660666" x2="18.11162349770467" y2="119.64887076920121" stroke="black" stroke-width="1"/>
<line x1="18.11162349770467" y1="119.64887076920121" x2="13.88544088029768" y2="110.58579289883471" stroke="black" stroke-width="1"/>
<line x1="13.88544088029768" y1="110.58579289883471" x2="9.659258262890688" y2="101.52271502846821" stroke="black" stroke-width="1"/>
<line x1="18.11162349770467" y1="119.64887076920121" x2="8.452365234813982" y2="117.06068031817601" stroke="black" stroke-width="1"/>
<line x1="33.43251236008423" y1="132.504622962932" x2="29.206329742677237" y2="123.44154509256549" stroke="black" stroke-width="1"/>
<line x1="29.206329742677237" y1="123.44154509256549" x2="21.545885311487456" y2="117.0136689957001" stroke="black" stroke-width="1"/>
<line x1="29.206329742677237" y1="123.44154509256549" x2="24.980147125270246" y2="114.37846722219899" stroke="black" stroke-width="1"/>
<line x1="29.206329742677237" y1="123.44154509256549" x2="24.980147125270246" y2="114.37846722219899" stroke="black" stroke-width="1"/>
<line x1="24.980147125270246" y1="114.37846722219899" x2="24.980147125270246" y2="104.37846722219899" stroke="black" stroke-width="1"/>
<line x1="24.980147125270246" y1="104.37846722219899" x2="24.980147125270246" y2="94.37846722219899" stroke="black" stroke-width="1"/>
<line x1="24.980147125270246" y1="114.37846722219899" x2="17.319702694080465" y2="107.9505911253336" stroke="black" stroke-width="1"/>
<line x1="33.43251236008423" y1="132.504622962932" x2="29.206329742677237" y2="123.44154509256549" stroke="black" stroke-width="1"/>
<line x1="29.206329742677237" y1="123.44154509256549" x2="24.980147125270246" y2="114.37846722219899" stroke="black" stroke-width="1"/>
<line x1="24.980147125270246" y1="114.37846722219899" x2="24.980147125270246" y2="104.37846722219899" stroke="black" stroke-width="1"/>
<line x1="24.980147125270246" y1="104.37846722219899" x2="24.980147125270246" y2="94.37846722219899" stroke="black" stroke-width="1"/>
<line x1="24.980147125270246" y1="94.37846722219899" x2="24.980147125270246" y2="84.37846722219899" stroke="black" stroke-width="1"/>
<line x1="24.980147125270246" y1="84.37846722219899" x2="20.753964507863255" y2="75.3153893518325" stroke="black" stroke-width="1"/>
<line x1="24.980147125270246" y1="84.37846722219899" x2="24.980147125270246" y2="74.37846722219899" stroke="black" stroke-width="1"/>
<line x1="24.980147125270246" y1="84.37846722219899" x2="24.980147125270246" y2="74.37846722219899" stroke="black" stroke-width="1"/>
<line x1="24.980147125270246" y1="74.37846722219899" x2="29.20632974267724" y2="65.3153893518325" stroke="black" stroke-width="1"/>
<line x1="29.20632974267724" y1="65.3153893518325" x2="33.43251236008423" y2="56.252311481465995" stroke="black" stroke-width="1"/>
<line x1="24.980147125270246" y1="74.37846722219899" x2="20.753964507863255" y2="65.3153893518325" stroke="black" stroke-width="1"/>
<line x1="24.980147125270246" y1="114.37846722219899" x2="17.319702694080465" y2="107.9505911253336" stroke="black" stroke-width="1"/>
<line x1="17.319702694080465" y1="107.9505911253336" x2="7.660444431189781" y2="105.3624006743084" stroke="black" stroke-width="1"/>
<line x1="17.319702694080465" y1="107.9505911253336" x2="9.659258262890688" y2="101.52271502846821" stroke="black" stroke-width="1"/>
<line x1="17.319702694080465" y1="107.9505911253336" x2="9.659258262890688" y2="101.52271502846821" stroke="black" stroke-width="1"/>
<line x1="9.659258262890688" y1="101.52271502846821" x2="5.433075645483697" y2="92.45963715810171" stroke="black" stroke-width="1"/>
<line x1="5.433075645483697" y1="92.45963715810171" x2="1.2068930280767063" y2="83.39655928773522" stroke="black" stroke-width="1"/>
<line x1="9.659258262890688" y1="101.52271502846821" x2="0.0" y2="98.93452457744301" stroke="black" stroke-width="1"/>
<line x1="41.884877594898214" y1="150.630778703665" x2="41.884877594898214" y2="140.630778703665" stroke="black" stroke-width="1"/>
<line x1="41.884877594898214" y1="140.630778703665" x2="41.884877594898214" y2="130.630778703665" stroke="black" stroke-width="1"/>
<line x1="41.884877594898214" y1="130.630778703665" x2="37.65869497749122" y2="121.56770083329849" stroke="black" stroke-width="1"/>
<line x1="37.65869497749122" y1="121.56770083329849" x2="29.998250546301442" y2="115.1398247364331" stroke="black" stroke-width="1"/>
<line x1="37.65869497749122" y1="121.56770083329849" x2="33.43251236008423" y2="112.50462296293199" stroke="black" stroke-width="1"/>
<line x1="37.65869497749122" y1="121.56770083329849" x2="33.43251236008423" y2="112.50462296293199" stroke="black" stroke-width="1"/>
<line x1="33.43251236008423" y1="112.50462296293199" x2="33.43251236008423" y2="102.50462296293199" stroke="black" stroke-width="1"/>
<line x1="33.43251236008423" y1="102.50462296293199" x2="33.43251236008423" y2="92.50462296293199" stroke="black" stroke-width="1"/>
<line x1="33.43251236008423" y1="112.50462296293199" x2="25.77206792889445" y2="106.0767468660666" stroke="black" stroke-width="1"/>
<line x1="41.884877594898214" y1="130.630778703665" x2="41.884877594898214" y2="120.63077870366499" stroke="black" stroke-width="1"/>
<line x1="41.884877594898214" y1="120.63077870366499" x2="37.65869497749122" y2="111.56770083329849" stroke="black" stroke-width="1"/>
<line x1="41.884877594898214" y1="120.63077870366499" x2="41.884877594898214" y2="110.63077870366499" stroke="black" stroke-width="1"/>
<line x1="41.884877594898214" y1="120.63077870366499" x2="41.884877594898214" y2="110.63077870366499" stroke="black" stroke-width="1"/>
<line x1="41.884877594898214" y1="110.63077870366499" x2="46.111060212305205" y2="101.56770083329849" stroke="black" stroke-width="1"/>
<line x1="46.111060212305205" y1="101.56770083329849" x2="50.3372428297122" y2="92.50462296293199" stroke="black" stroke-width="1"/>
<line x1="41.884877594898214" y1="110.63077870366499" x2="37.65869497749122" y2="101.56770083329849" stroke="black" stroke-width="1"/>
<line x1="41.884877594898214" y1="130.630778703665" x2="41.884877594898214" y2="120.63077870366499" stroke="black" stroke-width="1"/>
<line x1="41.884877594898214" y1="120.63077870366499" x2="41.884877594898214" y2="110.63077870366499" stroke="black" stroke-width="1"/>
<line x1="41.884877594898214" y1="110.63077870366499" x2="46.111060212305205" y2="101.56770083329849" stroke="black" stroke-width="1"/>
<line x1="46.111060212305205" y1="101.56770083329849" x2="50.3372428297122" y2="92.50462296293199" stroke="black" stroke-width="1"/>
<line x1="50.3372428297122" y1="92.50462296293199" x2="54.5634254471192" y2="83.44154509256549" stroke="black" stroke-width="1"/>
<line x1="54.5634254471192" y1="83.44154509256549" x2="54.5634254471192" y2="73.44154509256549" stroke="black" stroke-width="1"/>
<line x1="54.5634254471192" y1="83.44154509256549" x2="58.78960806452619" y2="74.37846722219899" stroke="black" stroke-width="1"/>
<line x1="54.5634254471192" y1="83.44154509256549" x2="58.78960806452619" y2="74.37846722219899" stroke="black" stroke-width="1"/>
<line x1="58.78960806452619" y1="74.37846722219899" x2="66.45005249571597" y2="67.9505911253336" stroke="black" stroke-width="1"/>
<line x1="66.45005249571597" y1="67.9505911253336" x2="74.11049692690575" y2="61.52271502846821" stroke="black" stroke-width="1"/>
<line x1="58.78960806452619" y1="74.37846722219899" x2="58.78960806452619" y2="64.37846722219899" stroke="black" stroke-width="1"/>
<line x1="41.884877594898214" y1="110.63077870366499" x2="37.65869497749122" y2="101.56770083329849" stroke="black" stroke-width="1"/>
<line x1="37.65869497749122" y1="101.56770083329849" x2="29.998250546301442" y2="95.1398247364331" stroke="black" stroke-width="1"/>
<line x1="37.65869497749122" y1="101.56770083329849" x2="33.43251236008423" y2="92.50462296293199" stroke="black" stroke-width="1"/>
<line x1="37.65869497749122" y1="101.56770083329849" x2="33.43251236008423" y2="92.50462296293199" stroke="black" stroke-width="1"/>
<line x1="33.43251236008423" y1="92.50462296293199" x2="33.43251236008423" y2="82.50462296293199" stroke="black" stroke-width="1"/>
<line x1="33.43251236008423" y1="82.50462296293199" x2="33.43251236008423" y2="72.50462296293199" stroke="black" stroke-width="1"/>
<line x1="33.43251236008423" y1="92.50462296293199" x2="25.77206792889445" y2="86.0767468660666" stroke="black" stroke-width="1"/>
<line x1="41.884877594898214" y1="150.630778703665" x2="41.884877594898214" y2="140.630778703665" stroke="black" stroke-width="1"/>
<line x1="41.884877594898214" y1="140.630778703665" x2="41.884877594898214" y2="130.630778703665" stroke="black" stroke-width="1"/>
<line x1="41.884877594898214" y1="130.630778703665" x2="41.884877594898214" y2="120.63077870366499" stroke="black" stroke-width="1"/>
<line x1="41.884877594898214" y1="120.63077870366499" x2="41.884877594898214" y2="110.63077870366499" stroke="black" stroke-width="1"/>
<line x1="41.884877594898214" y1="110.63077870366499" x2="46.111060212305205" y2="101.56770083329849" stroke="black" stroke-width="1"/>
<line x1="46.111060212305205" y1="101.56770083329849" x2="50.3372428297122" y2="92.50462296293199" stroke="black" stroke-width="1"/>
<line x1="50.3372428297122" y1="92.50462296293199" x2="54.5634254471192" y2="83.44154509256549" stroke="black" stroke-width="1"/>
<line x1="54.5634254471192" y1="83.44154509256549" x2="58.78960806452619" y2="74.37846722219899" stroke="black" stroke-width="1"/>
<line x1="58.78960806452619" y1="74.37846722219899" x2="63.01579068193318" y2="65.3153893518325" stroke="black" stroke-width="1"/>
<line x1="63.01579068193318" y1="65.3153893518325" x2="67.24197329934017" y2="56.252311481465995" stroke="black" stroke-width="1"/>
<line x1="67.24197329934017" y1="56.252311481465995" x2="67.24197329934017" y2="46.252311481465995" stroke="black" stroke-width="1"/>
<line x1="67.24197329934017" y1="46.252311481465995" x2="63.01579068193319" y2="37.189233611099496" stroke="black" stroke-width="1"/>
<line x1="67.24197329934017" y1="46.252311481465995" x2="67.24197329934017" y2="36.252311481465995" stroke="black" stroke-width="1"/>
<line x1="67.24197329934017" y1="46.252311481465995" x2="67.24197329934017" y2="36.252311481465995" stroke="black" stroke-width="1"/>
<line x1="67.24197329934017" y1="36.252311481465995" x2="71.46815591674718" y2="27.189233611099496" stroke="black" stroke-width="1"/>
<line x1="71.46815591674718" y1="27.189233611099496" x2="75.69433853415417" y2="18.126155740732997" stroke="black" stroke-width="1"/>
<line x1="67.24197329934017" y1="36.252311481465995" x2="63.01579068193319" y2="27.189233611099496" stroke="black" stroke-width="1"/>
<line x1="67.24197329934017" y1="56.252311481465995" x2="71.46815591674718" y2="47.189233611099496" stroke="black" stroke-width="1"/>
<line x1="71.46815591674718" y1="47.189233611099496" x2="71.46815591674718" y2="37.189233611099496" stroke="black" stroke-width="1"/>
<line x1="71.46815591674718" y1="47.189233611099496" x2="75.69433853415417" y2="38.126155740733" stroke="black" stroke-width="1"/>
<line x1="71.46815591674718" y1="47.189233611099496" x2="75.69433853415417" y2="38.126155740733" stroke="black" stroke-width="1"/>
<line x1="75.69433853415417" y1="38.126155740733" x2="83.35478296534396" y2="31.698279643867608" stroke="black" stroke-width="1"/>
<line x1="83.35478296534396" y1="31.698279643867608" x2="91.01522739653373" y2="25.270403547002218" stroke="black" stroke-width="1"/>
<line x1="75.69433853415417" y1="38.126155740733" x2="75.69433853415417" y2="28.126155740732997" stroke="black" stroke-width="1"/>
<line x1="67.24197329934017" y1="56.252311481465995" x2="71.46815591674718" y2="47.189233611099496" stroke="black" stroke-width="1"/>
<line x1="71.46815591674718" y1="47.189233611099496" x2="75.69433853415417" y2="38.126155740733" stroke="black" stroke-width="1"/>
<line x1="75.69433853415417" y1="38.126155740733" x2="83.35478296534396" y2="31.698279643867608" stroke="black" stroke-width="1"/>
<line x1="83.35478296534396" y1="31.698279643867608" x2="91.01522739653373" y2="25.270403547002218" stroke="black" stroke-width="1"/>
<line x1="91.01522739653373" y1="25.270403547002218" x2="98.6756718277235" y2="18.842527450136828" stroke="black" stroke-width="1"/>
<line x1="98.6756718277235" y1="18.842527450136828" x2="102.90185444513051" y2="9.77944957977033" stroke="black" stroke-width="1"/>
<line x1="98.6756718277235" y1="18.842527450136828" x2="106.3361162589133" y2="12.414651353271438" stroke="black" stroke-width="1"/>
<line x1="98.6756718277235" y1="18.842527450136828" x2="106.3361162589133" y2="12.414651353271438" stroke="black" stroke-width="1"/>
<line x1="106.3361162589133" y1="12.414651353271438" x2="115.99537452180398" y2="9.826460902246225" stroke="black" stroke-width="1"/>
<line x1="115.99537452180398" y1="9.826460902246225" x2="125.65463278469467" y2="7.2382704512210125" stroke="black" stroke-width="1"/>
<line x1="106.3361162589133" y1="12.414651353271438" x2="110.56229887632028" y2="3.3515734829049393" stroke="black" stroke-width="1"/>
<line x1="75.69433853415417" y1="38.126155740733" x2="75.69433853415417" y2="28.126155740732997" stroke="black" stroke-width="1"/>
<line x1="75.69433853415417" y1="28.126155740732997" x2="71.46815591674718" y2="19.0630778703665" stroke="black" stroke-width="1"/>
<line x1="75.69433853415417" y1="28.126155740732997" x2="75.69433853415417" y2="18.126155740732997" stroke="black" stroke-width="1"/>
<line x1="75.69433853415417" y1="28.126155740732997" x2="75.69433853415417" y2="18.126155740732997" stroke="black" stroke-width="1"/>
<line x1="75.69433853415417" y1="18.126155740732997" x2="79.92052115156116" y2="9.063077870366499" stroke="black" stroke-width="1"/>
<line x1="79.92052115156116" y1="9.063077870366499" x2="84.14670376896815" y2="0.0" stroke="black" stroke-width="1"/>
<line x1="75.69433853415417" y1="18.126155740732997" x2="71.46815591674718" y2="9.063077870366499" stroke="black" stroke-width="1"/>
<line x1="41.884877594898214" y1="110.63077870366499" x2="37.65869497749122" y2="101.56770083329849" stroke="black" stroke-width="1"/>
<line x1="37.65869497749122" y1="101.56770083329849" x2="33.43251236008423" y2="92.50462296293199" stroke="black" stroke-width="1"/>
<line x1="33.43251236008423" y1="92.50462296293199" x2="25.77206792889445" y2="86.0767468660666" stroke="black" stroke-width="1"/>
<line x1="25.77206792889445" y1="86.0767468660666" x2="16.112809666003766" y2="83.4885564150414" stroke="black" stroke-width="1"/>
<line x1="25.77206792889445" y1="86.0767468660666" x2="18.11162349770467" y2="79.64887076920121" stroke="black" stroke-width="1"/>
<line x1="25.77206792889445" y1="86.0767468660666" x2="18.11162349770467" y2="79.64887076920121" stroke="black" stroke-width="1"/>
<line x1="18.11162349770467" y1="79.64887076920121" x2="13.88544088029768" y2="70.58579289883471" stroke="black" stroke-width="1"/>
<line x1="13.88544088029768" y1="70.58579289883471" x2="9.659258262890688" y2="61.52271502846821" stroke="black" stroke-width="1"/>
<line x1="18.11162349770467" y1="79.64887076920121" x2="8.452365234813982" y2="77.06068031817601" stroke="black" stroke-width="1"/>
<line x1="33.43251236008423" y1="92.50462296293199" x2="29.206329742677237" y2="83.44154509256549" stroke="black" stroke-width="1"/>
<line x1="29.206329742677237" y1="83.44154509256549" x2="21.545885311487456" y2="77.0136689957001" stroke="black" stroke-width="1"/>
<line x1="29.206329742677237" y1="83.44154509256549" x2="24.980147125270246" y2="74.37846722219899" stroke="black" stroke-width="1"/>
<line x1="29.206329742677237" y1="83.44154509256549" x2="24.980147125270246" y2="74.37846722219899" stroke="black" stroke-width="1"/>
<line x1="24.980147125270246" y1="74.37846722219899" x2="24.980147125270246" y2="64.37846722219899" stroke="black" stroke-width="1"/>
<line x1="24.980147125270246" y1="64.37846722219899" x2="24.980147125270246" y2="54.37846722219899" stroke="black" stroke-width="1"/>
<line x1="24.980147125270246" y1="74.37846722219899" x2="17.319702694080465" y2="67.9505911253336" stroke="black" stroke-width="1"/>
<line x1="33.43251236008423" y1="92.50462296293199" x2="29.206329742677237" y2="83.44154509256549" stroke="black" stroke-width="1"/>
<line x1="29.206329742677237" y1="83.44154509256549" x2="24.980147125270246" y2="74.37846722219899" stroke="black" stroke-width="1"/>
<line x1="24.980147125270246" y1="74.37846722219899" x2="24.980147125270246" y2="64.37846722219899" stroke="black" stroke-width="1"/>
<line x1="24.980147125270246" y1="64.37846722219899" x2="24.980147125270246" y2="54.37846722219899" stroke="black" stroke-width="1"/>
<line x1="24.980147125270246" y1="54.37846722219899" x2="24.980147125270246" y2="44.37846722219899" stroke="black" stroke-width="1"/>
<line x1="24.980147125270246" y1="44.37846722219899" x2="20.753964507863255" y2="35.31538935183249" stroke="black" stroke-width="1"/>
<line x1="24.980147125270246" y1="44.37846722219899" x2="24.980147125270246" y2="34.37846722219899" stroke="black" stroke-width="1"/>
<line x1="24.980147125270246" y1="44.37846722219899" x2="24.980147125270246" y2="34.37846722219899" stroke="black" stroke-width="1"/>
<line x1="24.980147125270246" y1="34.37846722219899" x2="29.20632974267724" y2="25.315389351832494" stroke="black" stroke-width="1"/>
<line x1="29.20632974267724" y1="25.315389351832494" x2="33.43251236008423" y2="16.252311481465995" stroke="black" stroke-width="1"/>
<line x1="24.980147125270246" y1="34.37846722219899" x2="20.753964507863255" y2="25.315389351832494" stroke="black" stroke-width="1"/>
<line x1="24.980147125270246" y1="74.37846722219899" x2="17.319702694080465" y2="67.9505911253336" stroke="black" stroke-width="1"/>
<line x1="17.319702694080465" y1="67.9505911253336" x2="7.660444431189781" y2="65.3624006743084" stroke="black" stroke-width="1"/>
<line x1="17.319702694080465" y1="67.9505911253336" x2="9.659258262890688" y2="61.52271502846821" stroke="black" stroke-width="1"/>
<line x1="17.319702694080465" y1="67.9505911253336" x2="9.659258262890688" y2="61.52271502846821" stroke="black" stroke-width="1"/>
<line x1="9.659258262890688" y1="61.52271502846821" x2="5.433075645483697" y2="52.459637158101714" stroke="black" stroke-width="1"/>
<line x1="5.433075645483697" y1="52.459637158101714" x2="1.2068930280767063" y2="43.396559287735215" stroke="black" stroke-width="1"/>
<line x1="9.659258262890688" y1="61.52271502846821" x2="0.0" y2="58.934524577443" stroke="black" stroke-width="1"/>
</svg>
