<svg width="130.71067811865476" height="145.35533905932738" xmlns="http://www.w3.org/2000/svg">
<line x1="65.35533905932738" y1="145.35533905932738" x2="65.35533905932738" y2="135.35533905932738" stroke="black" stroke-width="1"/>
<line x1="65.35533905932738" y1="135.35533905932738" x2="65.35533905932738" y2="125.35533905932738" stroke="black" stroke-width="1"/>
<line x1="65.35533905932738" y1="125.35533905932738" x2="65.35533905932738" y2="115.35533905932738" stroke="black" stroke-width="1"/>
<line x1="65.35533905932738" y1="115.35533905932738" x2="65.35533905932738" y2="105.35533905932738" stroke="black" stroke-width="1"/>
<line x1="65.35533905932738" y1="105.35533905932738" x2="65.35533905932738" y2="95.35533905932738" stroke="black" stroke-width="1"/>
<line x1="65.35533905932738" y1="95.35533905932738" x2="65.35533905932738" y2="85.35533905932738" stroke="black" stroke-width="1"/>
<line x1="65.35533905932738" y1="85.35533905932738" x2="65.35533905932738" y2="75.35533905932738" stroke="black" stroke-width="1"/>
<line x1="65.35533905932738" y1="75.35533905932738" x2="65.35533905932738" y2="65.35533905932738" stroke="black" stroke-width="1"/>
<line x1="65.35533905932738" y1="65.35533905932738" x2="72.42640687119285" y2="58.2842712474619" stroke="black" stroke-width="1"/>
<line x1="72.42640687119285" y1="58.2842712474619" x2="79.49747468305833" y2="51.21320343559643" stroke="black" stroke-width="1"/>
<line x1="79.49747468305833" y1="51.21320343559643" x2="86.5685424949238" y2="44.14213562373095" stroke="black" stroke-width="1"/>
<line x1="86.5685424949238" y1="44.14213562373095" x2="93.63961030678928" y2="37.071067811865476" stroke="black" stroke-width="1"/>
<line x1="93.63961030678928" y1="37.071067811865476" x2="103.63961030678928" y2="37.071067811865476" stroke="black" stroke-width="1"/>
<line x1="103.63961030678928" y1="37.071067811865476" x2="113.63961030678928" y2="37.071067811865476" stroke="black" stroke-width="1"/>
<line x1="113.63961030678928" y1="37.071067811865476" x2="120.71067811865476" y2="44.14213562373095" stroke="black" stroke-width="1"/>
<line x1="120.71067811865476" y1="44.14213562373095" x2="120.71067811865476" y2="54.14213562373095" stroke="black" stroke-width="1"/>
<line x1="120.71067811865476" y1="44.14213562373095" x2="130.71067811865476" y2="44.14213562373095" stroke="black" stroke-width="1"/>
<line x1="113.63961030678928" y1="37.071067811865476" x2="120.71067811865476" y2="30.0" stroke="black" stroke-width="1"/>
<line x1="120.71067811865476" y1="30.0" x2="130.71067811865476" y2="30.0" stroke="black" stroke-width="1"/>
<line x1="120.71067811865476" y1="30.0" x2="120.71067811865476" y2="20.0" stroke="black" stroke-width="1"/>
<line x1="93.63961030678928" y1="37.071067811865476" x2="93.63961030678928" y2="27.071067811865476" stroke="black" stroke-width="1"/>
<line x1="93.63961030678928" y1="27.071067811865476" x2="93.63961030678928" y2="17.071067811865476" stroke="black" stroke-width="1"/>
<line x1="93.63961030678928" y1="17.071067811865476" x2="100.71067811865476" y2="10.0" stroke="black" stroke-width="1"/>
<line x1="100.71067811865476" y1="10.0" x2="110.71067811865476" y2="10.0" stroke="black" stroke-width="1"/>
<line x1="100.71067811865476" y1="10.0" x2="100.71067811865476" y2="0.0" stroke="black" stroke-width="1"/>
<line x1="93.63961030678928" y1="17.071067811865476" x2="86.5685424949238" y2="10.0" stroke="black" stroke-width="1"/>
<line x1="86.5685424949238" y1="10.0" x2="86.5685424949238" y2="0.0" stroke="black" stroke-width="1"/>
<line x1="86.5685424949238" y1="10.0" x2="76.5685424949238" y2="10.0" stroke="black" stroke-width="1"/>
<line x1="65.35533905932738" y1="65.35533905932738" x2="58.2842712474619" y2="58.2842712474619" stroke="black" stroke-width="1"/>
<line x1="58.2842712474619" y1="58.2842712474619" x2="51.21320343559643" y2="51.21320343559643" stroke="black" stroke-width="1"/>
<line x1="51.21320343559643" y1="51.21320343559643" x2="44.142135623730944" y2="44.14213562373095" stroke="black" stroke-width="1"/>
<line x1="44.142135623730944" y1="44.14213562373095" x2="37.07106781186547" y2="37.071067811865476" stroke="black" stroke-width="1"/>
<line x1="37.07106781186547" y1="37.071067811865476" x2="37.07106781186547" y2="27.071067811865476" stroke="black" stroke-width="1"/>
<line x1="37.07106781186547" y1="27.071067811865476" x2="37.07106781186547" y2="17.071067811865476" stroke="black" stroke-width="1"/>
<line x1="37.07106781186547" y1="17.071067811865476" x2="44.142135623730944" y2="10.0" stroke="black" stroke-width="1"/>
<line x1="44.142135623730944" y1="10.0" x2="54.142135623730944" y2="10.0" stroke="black" stroke-width="1"/>
<line x1="44.142135623730944" y1="10.0" x2="44.142135623730944" y2="0.0" stroke="black" stroke-width="1"/>
<line x1="37.07106781186547" y1="17.071067811865476" x2="29.999999999999993" y2="10.0" stroke="black" stroke-width="1"/>
<line x1="29.999999999999993" y1="10.0" x2="29.999999999999993" y2="0.0" stroke="black" stroke-width="1"/>
<line x1="29.999999999999993" y1="10.0" x2="19.999999999999993" y2="10.0" stroke="black" stroke-width="1"/>
<line x1="37.07106781186547" y1="37.071067811865476" x2="27.07106781186547" y2="37.071067811865476" stroke="black" stroke-width="1"/>
<line x1="27.07106781186547" y1="37.071067811865476" x2="17.07106781186547" y2="37.071067811865476" stroke="black" stroke-width="1"/>
<line x1="17.07106781186547" y1="37.071067811865476" x2="9.999999999999993" y2="30.0" stroke="black" stroke-width="1"/>
<line x1="9.999999999999993" y1="30.0" x2="9.999999999999993" y2="20.0" stroke="black" stroke-width="1"/>
<line x1="9.999999999999993" y1="30.0" x2="0.0" y2="30.0" stroke="black" stroke-width="1"/>
<line x1="17.07106781186547" y1="37.071067811865476" x2="9.999999999999993" y2="44.14213562373095" stroke="black" stroke-width="1"/>
<line x1="9.999999999999993" y1="44.14213562373095" x2="0.0" y2="44.14213562373095" stroke="black" stroke-width="1"/>
<line x1="9.999999999999993" y1="44.14213562373095" x2="9.999999999999993" y2="54.14213562373095" stroke="black" stroke-width="1"/>
</svg>
