<svg width="286.32630949201297" height="394.1173096010608" xmlns="http://www.w3.org/2000/svg">
<line x1="99.09064405217597" y1="394.1173096010608" x2="99.09064405217597" y2="384.1173096010608" stroke="black" stroke-width="1"/>
<line x1="99.09064405217597" y1="384.1173096010608" x2="99.09064405217597" y2="374.1173096010608" stroke="black" stroke-width="1"/>
<line x1="99.09064405217597" y1="374.1173096010608" x2="99.09064405217597" y2="364.1173096010608" stroke="black" stroke-width="1"/>
<line x1="99.09064405217597" y1="364.1173096010608" x2="99.09064405217597" y2="354.1173096010608" stroke="black" stroke-width="1"/>
<line x1="99.09064405217597" y1="354.1173096010608" x2="99.09064405217597" y2="344.1173096010608" stroke="black" stroke-width="1"/>
<line x1="99.09064405217597" y1="344.1173096010608" x2="99.09064405217597" y2="334.1173096010608" stroke="black" stroke-width="1"/>
<line x1="99.09064405217597" y1="334.1173096010608" x2="99.09064405217597" y2="324.1173096010608" stroke="black" stroke-width="1"/>
<line x1="99.09064405217597" y1="324.1173096010608" x2="99.09064405217597" y2="314.1173096010608" stroke="black" stroke-width="1"/>
<line x1="99.09064405217597" y1="314.1173096010608" x2="94.86446143476898" y2="305.0542317306943" stroke="black" stroke-width="1"/>
<line x1="94.86446143476898" y1="305.0542317306943" x2="90.63827881736199" y2="295.9911538603278" stroke="black" stroke-width="1"/>
<line x1="90.63827881736199" y1="295.9911538603278" x2="86.412096199955" y2="286.9280759899613" stroke="black" stroke-width="1"/>
<line x1="86.412096199955" y1="286.9280759899613" x2="82.18591358254801" y2="277.8649981195948" stroke="black" stroke-width="1"/>
<line x1="82.18591358254801" y1="277.8649981195948" x2="74.52546915135822" y2="271.43712202272945" stroke="black" stroke-width="1"/>
<line x1="74.52546915135822" y1="271.43712202272945" x2="66.86502472016845" y2="265.00924592586404" stroke="black" stroke-width="1"/>
<line x1="66.86502472016845" y1="265.00924592586404" x2="57.20576645727776" y2="262.4210554748388" stroke="black" stroke-width="1"/>
<line x1="57.20576645727776" y1="262.4210554748388" x2="47.35768892715568" y2="264.15753725150813" stroke="black" stroke-width="1"/>
<line x1="57.20576645727776" y1="262.4210554748388" x2="47.54650819438707" y2="259.8328650238136" stroke="black" stroke-width="1"/>
<line x1="57.20576645727776" y1="262.4210554748388" x2="47.54650819438707" y2="259.8328650238136" stroke="black" stroke-width="1"/>
<line x1="47.54650819438707" y1="259.8328650238136" x2="39.88606376319729" y2="253.40498892694822" stroke="black" stroke-width="1"/>
<line x1="39.88606376319729" y1="253.40498892694822" x2="32.22561933200751" y2="246.97711283008283" stroke="black" stroke-width="1"/>
<line x1="47.54650819438707" y1="259.8328650238136" x2="37.69843066426499" y2="261.5693468004829" stroke="black" stroke-width="1"/>
<line x1="66.86502472016845" y1="265.00924592586404" x2="59.20458028897867" y2="258.5813698289986" stroke="black" stroke-width="1"/>
<line x1="59.20458028897867" y1="258.5813698289986" x2="49.54532202608799" y2="255.99317937797343" stroke="black" stroke-width="1"/>
<line x1="59.20458028897867" y1="258.5813698289986" x2="51.54413585778889" y2="252.15349373213326" stroke="black" stroke-width="1"/>
<line x1="59.20458028897867" y1="258.5813698289986" x2="51.54413585778889" y2="252.15349373213326" stroke="black" stroke-width="1"/>
<line x1="51.54413585778889" y1="252.15349373213326" x2="47.3179532403819" y2="243.09041586176676" stroke="black" stroke-width="1"/>
<line x1="47.3179532403819" y1="243.09041586176676" x2="43.091770622974906" y2="234.02733799140026" stroke="black" stroke-width="1"/>
<line x1="51.54413585778889" y1="252.15349373213326" x2="41.8848775948982" y2="249.56530328110804" stroke="black" stroke-width="1"/>
<line x1="66.86502472016845" y1="265.00924592586404" x2="59.20458028897867" y2="258.5813698289986" stroke="black" stroke-width="1"/>
<line x1="59.20458028897867" y1="258.5813698289986" x2="51.54413585778889" y2="252.15349373213326" stroke="black" stroke-width="1"/>
<line x1="51.54413585778889" y1="252.15349373213326" x2="47.3179532403819" y2="243.09041586176676" stroke="black" stroke-width="1"/>
<line x1="47.3179532403819" y1="243.09041586176676" x2="43.091770622974906" y2="234.02733799140026" stroke="black" stroke-width="1"/>
<line x1="43.091770622974906" y1="234.02733799140026" x2="38.865588005567915" y2="224.96426012103376" stroke="black" stroke-width="1"/>
<line x1="38.865588005567915" y1="224.96426012103376" x2="31.205143574378127" y2="218.53638402416837" stroke="black" stroke-width="1"/>
<line x1="38.865588005567915" y1="224.96426012103376" x2="34.639405388160924" y2="215.90118225066726" stroke="black" stroke-width="1"/>
<line x1="38.865588005567915" y1="224.96426012103376" x2="34.639405388160924" y2="215.90118225066726" stroke="black" stroke-width="1"/>
<line x1="34.639405388160924" y1="215.90118225066726" x2="34.639405388160924" y2="205.90118225066726" stroke="black" stroke-width="1"/>
<line x1="34.639405388160924" y1="205.90118225066726" x2="34.639405388160924" y2="195.90118225066726" stroke="black" stroke-width="1"/>
<line x1="34.639405388160924" y1="215.90118225066726" x2="26.97896095697115" y2="209.47330615380187" stroke="black" stroke-width="1"/>
<line x1="51.54413585778889" y1="252.15349373213326" x2="41.8848775948982" y2="249.56530328110804" stroke="black" stroke-width="1"/>
<line x1="41.8848775948982" y1="249.56530328110804" x2="32.036800064776116" y2="251.30178505777735" stroke="black" stroke-width="1"/>
<line x1="41.8848775948982" y1="249.56530328110804" x2="32.22561933200751" y2="246.97711283008283" stroke="black" stroke-width="1"/>
<line x1="41.8848775948982" y1="249.56530328110804" x2="32.22561933200751" y2="246.97711283008283" stroke="black" stroke-width="1"/>
<line x1="32.22561933200751" y1="246.97711283008283" x2="24.565174900817738" y2="240.54923673321744" stroke="black" stroke-width="1"/>
<line x1="24.565174900817738" y1="240.54923673321744" x2="16.904730469627964" y2="234.12136063635205" stroke="black" stroke-width="1"/>
<line x1="32.22561933200751" y1="246.97711283008283" x2="22.377541801885428" y2="248.71359460675214" stroke="black" stroke-width="1"/>
<line x1="82.18591358254801" y1="277.8649981195948" x2="77.95973096514102" y2="268.8019202492283" stroke="black" stroke-width="1"/>
<line x1="77.95973096514102" y1="268.8019202492283" x2="73.73354834773403" y2="259.7388423788618" stroke="black" stroke-width="1"/>
<line x1="73.73354834773403" y1="259.7388423788618" x2="66.07310391654424" y2="253.31096628199643" stroke="black" stroke-width="1"/>
<line x1="66.07310391654424" y1="253.31096628199643" x2="56.41384565365355" y2="250.72277583097122" stroke="black" stroke-width="1"/>
<line x1="66.07310391654424" y1="253.31096628199643" x2="58.41265948535446" y2="246.88309018513104" stroke="black" stroke-width="1"/>
<line x1="66.07310391654424" y1="253.31096628199643" x2="58.41265948535446" y2="246.88309018513104" stroke="black" stroke-width="1"/>
<line x1="58.41265948535446" y1="246.88309018513104" x2="54.18647686794747" y2="237.82001231476454" stroke="black" stroke-width="1"/>
<line x1="54.18647686794747" y1="237.82001231476454" x2="49.96029425054048" y2="228.75693444439804" stroke="black" stroke-width="1"/>
<line x1="58.41265948535446" y1="246.88309018513104" x2="48.75340122246378" y2="244.29489973410583" stroke="black" stroke-width="1"/>
<line x1="73.73354834773403" y1="259.7388423788618" x2="69.50736573032704" y2="250.67576450849532" stroke="black" stroke-width="1"/>
<line x1="69.50736573032704" y1="250.67576450849532" x2="61.84692129913725" y2="244.24788841162993" stroke="black" stroke-width="1"/>
<line x1="69.50736573032704" y1="250.67576450849532" x2="65.28118311292005" y2="241.61268663812882" stroke="black" stroke-width="1"/>
<line x1="69.50736573032704" y1="250.67576450849532" x2="65.28118311292005" y2="241.61268663812882" stroke="black" stroke-width="1"/>
<line x1="65.28118311292005" y1="241.61268663812882" x2="65.28118311292005" y2="231.61268663812882" stroke="black" stroke-width="1"/>
<line x1="65.28118311292005" y1="231.61268663812882" x2="65.28118311292005" y2="221.61268663812882" stroke="black" stroke-width="1"/>
<line x1="65.28118311292005" y1="241.61268663812882" x2="57.62073868173026" y2="235.18481054126343" stroke="black" stroke-width="1"/>
<line x1="73.73354834773403" y1="259.7388423788618" x2="69.50736573032704" y2="250.67576450849532" stroke="black" stroke-width="1"/>
<line x1="69.50736573032704" y1="250.67576450849532" x2="65.28118311292005" y2="241.61268663812882" stroke="black" stroke-width="1"/>
<line x1="65.28118311292005" y1="241.61268663812882" x2="65.28118311292005" y2="231.61268663812882" stroke="black" stroke-width="1"/>
<line x1="65.28118311292005" y1="231.61268663812882" x2="65.28118311292005" y2="221.61268663812882" stroke="black" stroke-width="1"/>
<line x1="65.28118311292005" y1="221.61268663812882" x2="65.28118311292005" y2="211.61268663812882" stroke="black" stroke-width="1"/>
<line x1="65.28118311292005" y1="211.61268663812882" x2="61.05500049551305" y2="202.54960876776232" stroke="black" stroke-width="1"/>
<line x1="65.28118311292005" y1="211.61268663812882" x2="65.28118311292005" y2="201.61268663812882" stroke="black" stroke-width="1"/>
<line x1="65.28118311292005" y1="211.61268663812882" x2="65.28118311292005" y2="201.61268663812882" stroke="black" stroke-width="1"/>
<line x1="65.28118311292005" y1="201.61268663812882" x2="69.50736573032704" y2="192.54960876776232" stroke="black" stroke-width="1"/>
<line x1="69.50736573032704" y1="192.54960876776232" x2="73.73354834773403" y2="183.48653089739582" stroke="black" stroke-width="1"/>
<line x1="65.28118311292005" y1="201.61268663812882" x2="61.05500049551305" y2="192.54960876776232" stroke="black" stroke-width="1"/>
<line x1="65.28118311292005" y1="241.61268663812882" x2="57.62073868173026" y2="235.18481054126343" stroke="black" stroke-width="1"/>
<line x1="57.62073868173026" y1="235.18481054126343" x2="47.96148041883957" y2="232.59662009023822" stroke="black" stroke-width="1"/>
<line x1="57.62073868173026" y1="235.18481054126343" x2="49.96029425054048" y2="228.75693444439804" stroke="black" stroke-width="1"/>
<line x1="57.62073868173026" y1="235.18481054126343" x2="49.96029425054048" y2="228.75693444439804" stroke="black" stroke-width="1"/>
<line x1="49.96029425054048" y1="228.75693444439804" x2="45.73411163313349" y2="219.69385657403154" stroke="black" stroke-width="1"/>
<line x1="45.73411163313349" y1="219.69385657403154" x2="41.507929015726496" y2="210.63077870366504" stroke="black" stroke-width="1"/>
<line x1="49.96029425054048" y1="228.75693444439804" x2="40.3010359876498" y2="226.16874399337283" stroke="black" stroke-width="1"/>
<line x1="82.18591358254801" y1="277.8649981195948" x2="77.95973096514102" y2="268.8019202492283" stroke="black" stroke-width="1"/>
<line x1="77.95973096514102" y1="268.8019202492283" x2="73.73354834773403" y2="259.7388423788618" stroke="black" stroke-width="1"/>
<line x1="73.73354834773403" y1="259.7388423788618" x2="69.50736573032704" y2="250.67576450849532" stroke="black" stroke-width="1"/>
<line x1="69.50736573032704" y1="250.67576450849532" x2="65.28118311292005" y2="241.61268663812882" stroke="black" stroke-width="1"/>
<line x1="65.28118311292005" y1="241.61268663812882" x2="65.28118311292005" y2="231.61268663812882" stroke="black" stroke-width="1"/>
<line x1="65.28118311292005" y1="231.61268663812882" x2="65.28118311292005" y2="221.61268663812882" stroke="black" stroke-width="1"/>
<line x1="65.28118311292005" y1="221.61268663812882" x2="65.28118311292005" y2="211.61268663812882" stroke="black" stroke-width="1"/>
<line x1="65.28118311292005" y1="211.61268663812882" x2="65.28118311292005" y2="201.61268663812882" stroke="black" stroke-width="1"/>
<line x1="65.28118311292005" y1="201.61268663812882" x2="65.28118311292005" y2="191.61268663812882" stroke="black" stroke-width="1"/>
<line x1="65.28118311292005" y1="191.61268663812882" x2="65.28118311292005" y2="181.61268663812882" stroke="black" stroke-width="1"/>
<line x1="65.28118311292005" y1="181.61268663812882" x2="61.05500049551305" y2="172.54960876776232" stroke="black" stroke-width="1"/>
<line x1="61.05500049551305" y1="172.54960876776232" x2="53.39455606432327" y2="166.12173267089693" stroke="black" stroke-width="1"/>
<line x1="61.05500049551305" y1="172.54960876776232" x2="56.82881787810606" y2="163.48653089739582" stroke="black" stroke-width="1"/>
<line x1="61.05500049551305" y1="172.54960876776232" x2="56.82881787810606" y2="163.48653089739582" stroke="black" stroke-width="1"/>
<line x1="56.82881787810606" y1="163.48653089739582" x2="56.82881787810606" y2="153.48653089739582" stroke="black" stroke-width="1"/>
<line x1="56.82881787810606" y1="153.48653089739582" x2="56.82881787810606" y2="143.48653089739582" stroke="black" stroke-width="1"/>
<line x1="56.82881787810606" y1="163.48653089739582" x2="49.16837344691628" y2="157.05865480053043" stroke="black" stroke-width="1"/>
<line x1="65.28118311292005" y1="181.61268663812882" x2="65.28118311292005" y2="171.61268663812882" stroke="black" stroke-width="1"/>
<line x1="65.28118311292005" y1="171.61268663812882" x2="61.05500049551305" y2="162.54960876776232" stroke="black" stroke-width="1"/>
<line x1="65.28118311292005" y1="171.61268663812882" x2="65.28118311292005" y2="161.61268663812882" stroke="black" stroke-width="1"/>
<line x1="65.28118311292005" y1="171.61268663812882" x2="65.28118311292005" y2="161.61268663812882" stroke="black" stroke-width="1"/>
<line x1="65.28118311292005" y1="161.61268663812882" x2="69.50736573032704" y2="152.54960876776232" stroke="black" stroke-width="1"/>
<line x1="69.50736573032704" y1="152.54960876776232" x2="73.73354834773403" y2="143.48653089739582" stroke="black" stroke-width="1"/>
<line x1="65.28118311292005" y1="161.61268663812882" x2="61.05500049551305" y2="152.54960876776232" stroke="black" stroke-width="1"/>
<line x1="65.28118311292005" y1="181.61268663812882" x2="65.28118311292005" y2="171.61268663812882" stroke="black" stroke-width="1"/>
<line x1="65.28118311292005" y1="171.61268663812882" x2="65.28118311292005" y2="161.61268663812882" stroke="black" stroke-width="1"/>
<line x1="65.28118311292005" y1="161.61268663812882" x2="69.50736573032704" y2="152.54960876776232" stroke="black" stroke-width="1"/>
<line x1="69.50736573032704" y1="152.54960876776232" x2="73.73354834773403" y2="143.48653089739582" stroke="black" stroke-width="1"/>
<line x1="73.73354834773403" y1="143.48653089739582" x2="77.95973096514102" y2="134.42345302702932" stroke="black" stroke-width="1"/>
<line x1="77.95973096514102" y1="134.42345302702932" x2="77.95973096514102" y2="124.42345302702932" stroke="black" stroke-width="1"/>
<line x1="77.95973096514102" y1="134.42345302702932" x2="82.18591358254801" y2="125.36037515666283" stroke="black" stroke-width="1"/>
<line x1="77.95973096514102" y1="134.42345302702932" x2="82.18591358254801" y2="125.36037515666283" stroke="black" stroke-width="1"/>
<line x1="82.18591358254801" y1="125.36037515666283" x2="89.8463580137378" y2="118.93249905979741" stroke="black" stroke-width="1"/>
<line x1="89.8463580137378" y1="118.93249905979741" x2="97.50680244492757" y2="112.50462296293199" stroke="black" stroke-width="1"/>
<line x1="82.18591358254801" y1="125.36037515666283" x2="82.18591358254801" y2="115.36037515666283" stroke="black" stroke-width="1"/>
<line x1="65.28118311292005" y1="161.61268663812882" x2="61.05500049551305" y2="152.54960876776232" stroke="black" stroke-width="1"/>
<line x1="61.05500049551305" y1="152.54960876776232" x2="53.39455606432327" y2="146.12173267089693" stroke="black" stroke-width="1"/>
<line x1="61.05500049551305" y1="152.54960876776232" x2="56.82881787810606" y2="143.48653089739582" stroke="black" stroke-width="1"/>
<line x1="61.05500049551305" y1="152.54960876776232" x2="56.82881787810606" y2="143.48653089739582" stroke="black" stroke-width="1"/>
<line x1="56.82881787810606" y1="143.48653089739582" x2="56.82881787810606" y2="133.48653089739582" stroke="black" stroke-width="1"/>
<line x1="56.82881787810606" y1="133.48653089739582" x2="56.82881787810606" y2="123.48653089739582" stroke="black" stroke-width="1"/>
<line x1="56.82881787810606" y1="143.48653089739582" x2="49.16837344691628" y2="137.0586548005304" stroke="black" stroke-width="1"/>
<line x1="65.28118311292005" y1="241.61268663812882" x2="57.62073868173026" y2="235.18481054126343" stroke="black" stroke-width="1"/>
<line x1="57.62073868173026" y1="235.18481054126343" x2="49.96029425054048" y2="228.75693444439804" stroke="black" stroke-width="1"/>
<line x1="49.96029425054048" y1="228.75693444439804" x2="40.3010359876498" y2="226.16874399337283" stroke="black" stroke-width="1"/>
<line x1="40.3010359876498" y1="226.16874399337283" x2="30.452958457527714" y2="227.90522577004214" stroke="black" stroke-width="1"/>
<line x1="40.3010359876498" y1="226.16874399337283" x2="30.64177772475911" y2="223.58055354234762" stroke="black" stroke-width="1"/>
<line x1="40.3010359876498" y1="226.16874399337283" x2="30.64177772475911" y2="223.58055354234762" stroke="black" stroke-width="1"/>
<line x1="30.64177772475911" y1="223.58055354234762" x2="22.98133329356932" y2="217.15267744548223" stroke="black" stroke-width="1"/>
<line x1="22.98133329356932" y1="217.15267744548223" x2="15.320888862379547" y2="210.72480134861684" stroke="black" stroke-width="1"/>
<line x1="30.64177772475911" y1="223.58055354234762" x2="20.793700194637026" y2="225.31703531901692" stroke="black" stroke-width="1"/>
<line x1="49.96029425054048" y1="228.75693444439804" x2="42.2998498193507" y2="222.32905834753265" stroke="black" stroke-width="1"/>
<line x1="42.2998498193507" y1="222.32905834753265" x2="32.64059155646001" y2="219.74086789650744" stroke="black" stroke-width="1"/>
<line x1="42.2998498193507" y1="222.32905834753265" x2="34.639405388160924" y2="215.90118225066726" stroke="black" stroke-width="1"/>
<line x1="42.2998498193507" y1="222.32905834753265" x2="34.639405388160924" y2="215.90118225066726" stroke="black" stroke-width="1"/>
<line x1="34.639405388160924" y1="215.90118225066726" x2="30.413222770753933" y2="206.83810438030076" stroke="black" stroke-width="1"/>
<line x1="30.413222770753933" y1="206.83810438030076" x2="26.187040153346942" y2="197.77502650993426" stroke="black" stroke-width="1"/>
<line x1="34.639405388160924" y1="215.90118225066726" x2="24.980147125270236" y2="213.31299179964205" stroke="black" stroke-width="1"/>
<line x1="49.96029425054048" y1="228.75693444439804" x2="42.2998498193507" y2="222.32905834753265" stroke="black" stroke-width="1"/>
<line x1="42.2998498193507" y1="222.32905834753265" x2="34.639405388160924" y2="215.90118225066726" stroke="black" stroke-width="1"/>
<line x1="34.639405388160924" y1="215.90118225066726" x2="30.413222770753933" y2="206.83810438030076" stroke="black" stroke-width="1"/>
<line x1="30.413222770753933" y1="206.83810438030076" x2="26.187040153346942" y2="197.77502650993426" stroke="black" stroke-width="1"/>
<line x1="26.187040153346942" y1="197.77502650993426" x2="21.96085753593995" y2="188.71194863956777" stroke="black" stroke-width="1"/>
<line x1="21.96085753593995" y1="188.71194863956777" x2="14.300413104750163" y2="182.28407254270238" stroke="black" stroke-width="1"/>
<line x1="21.96085753593995" y1="188.71194863956777" x2="17.73467491853296" y2="179.64887076920127" stroke="black" stroke-width="1"/>
<line x1="21.96085753593995" y1="188.71194863956777" x2="17.73467491853296" y2="179.64887076920127" stroke="black" stroke-width="1"/>
<line x1="17.73467491853296" y1="179.64887076920127" x2="17.73467491853296" y2="169.64887076920127" stroke="black" stroke-width="1"/>
<line x1="17.73467491853296" y1="169.64887076920127" x2="17.73467491853296" y2="159.64887076920127" stroke="black" stroke-width="1"/>
<line x1="17.73467491853296" y1="179.64887076920127" x2="10.074230487343186" y2="173.22099467233588" stroke="black" stroke-width="1"/>
<line x1="34.639405388160924" y1="215.90118225066726" x2="24.980147125270236" y2="213.31299179964205" stroke="black" stroke-width="1"/>
<line x1="24.980147125270236" y1="213.31299179964205" x2="15.132069595148153" y2="215.04947357631136" stroke="black" stroke-width="1"/>
<line x1="24.980147125270236" y1="213.31299179964205" x2="15.320888862379547" y2="210.72480134861684" stroke="black" stroke-width="1"/>
<line x1="24.980147125270236" y1="213.31299179964205" x2="15.320888862379547" y2="210.72480134861684" stroke="black" stroke-width="1"/>
<line x1="15.320888862379547" y1="210.72480134861684" x2="7.660444431189774" y2="204.29692525175145" stroke="black" stroke-width="1"/>
<line x1="7.660444431189774" y1="204.29692525175145" x2="0.0" y2="197.86904915488606" stroke="black" stroke-width="1"/>
<line x1="15.320888862379547" y1="210.72480134861684" x2="5.472811332257464" y2="212.46128312528614" stroke="black" stroke-width="1"/>
<line x1="99.09064405217597" y1="314.1173096010608" x2="99.09064405217597" y2="304.1173096010608" stroke="black" stroke-width="1"/>
<line x1="99.09064405217597" y1="304.1173096010608" x2="99.09064405217597" y2="294.1173096010608" stroke="black" stroke-width="1"/>
<line x1="99.09064405217597" y1="294.1173096010608" x2="99.09064405217597" y2="284.1173096010608" stroke="black" stroke-width="1"/>
<line x1="99.09064405217597" y1="284.1173096010608" x2="99.09064405217597" y2="274.1173096010608" stroke="black" stroke-width="1"/>
<line x1="99.09064405217597" y1="274.1173096010608" x2="94.86446143476898" y2="265.0542317306943" stroke="black" stroke-width="1"/>
<line x1="94.86446143476898" y1="265.0542317306943" x2="90.63827881736199" y2="255.9911538603278" stroke="black" stroke-width="1"/>
<line x1="90.63827881736199" y1="255.9911538603278" x2="82.97783438617222" y2="249.56327776346242" stroke="black" stroke-width="1"/>
<line x1="82.97783438617222" y1="249.56327776346242" x2="73.31857612328153" y2="246.9750873124372" stroke="black" stroke-width="1"/>
<line x1="82.97783438617222" y1="249.56327776346242" x2="75.31738995498243" y2="243.13540166659703" stroke="black" stroke-width="1"/>
<line x1="82.97783438617222" y1="249.56327776346242" x2="75.31738995498243" y2="243.13540166659703" stroke="black" stroke-width="1"/>
<line x1="75.31738995498243" y1="243.13540166659703" x2="71.09120733757544" y2="234.07232379623053" stroke="black" stroke-width="1"/>
<line x1="71.09120733757544" y1="234.07232379623053" x2="66.86502472016845" y2="225.00924592586404" stroke="black" stroke-width="1"/>
<line x1="75.31738995498243" y1="243.13540166659703" x2="65.65813169209174" y2="240.54721121557182" stroke="black" stroke-width="1"/>
<line x1="90.63827881736199" y1="255.9911538603278" x2="86.412096199955" y2="246.92807598996131" stroke="black" stroke-width="1"/>
<line x1="86.412096199955" y1="246.92807598996131" x2="78.75165176876521" y2="240.50019989309592" stroke="black" stroke-width="1"/>
<line x1="86.412096199955" y1="246.92807598996131" x2="82.18591358254801" y2="237.86499811959482" stroke="black" stroke-width="1"/>
<line x1="86.412096199955" y1="246.92807598996131" x2="82.18591358254801" y2="237.86499811959482" stroke="black" stroke-width="1"/>
<line x1="82.18591358254801" y1="237.86499811959482" x2="82.18591358254801" y2="227.86499811959482" stroke="black" stroke-width="1"/>
<line x1="82.18591358254801" y1="227.86499811959482" x2="82.18591358254801" y2="217.86499811959482" stroke="black" stroke-width="1"/>
<line x1="82.18591358254801" y1="237.86499811959482" x2="74.52546915135822" y2="231.43712202272943" stroke="black" stroke-width="1"/>
<line x1="90.63827881736199" y1="255.9911538603278" x2="86.412096199955" y2="246.92807598996131" stroke="black" stroke-width="1"/>
<line x1="86.412096199955" y1="246.92807598996131" x2="82.18591358254801" y2="237.86499811959482" stroke="black" stroke-width="1"/>
<line x1="82.18591358254801" y1="237.86499811959482" x2="82.18591358254801" y2="227.86499811959482" stroke="black" stroke-width="1"/>
<line x1="82.18591358254801" y1="227.86499811959482" x2="82.18591358254801" y2="217.86499811959482" stroke="black" stroke-width="1"/>
<line x1="82.18591358254801" y1="217.86499811959482" x2="82.18591358254801" y2="207.86499811959482" stroke="black" stroke-width="1"/>
<line x1="82.18591358254801" y1="207.86499811959482" x2="77.95973096514102" y2="198.80192024922832" stroke="black" stroke-width="1"/>
<line x1="82.18591358254801" y1="207.86499811959482" x2="82.18591358254801" y2="197.86499811959482" stroke="black" stroke-width="1"/>
<line x1="82.18591358254801" y1="207.86499811959482" x2="82.18591358254801" y2="197.86499811959482" stroke="black" stroke-width="1"/>
<line x1="82.18591358254801" y1="197.86499811959482" x2="86.412096199955" y2="188.80192024922832" stroke="black" stroke-width="1"/>
<line x1="86.412096199955" y1="188.80192024922832" x2="90.63827881736199" y2="179.73884237886182" stroke="black" stroke-width="1"/>
<line x1="82.18591358254801" y1="197.86499811959482" x2="77.95973096514102" y2="188.80192024922832" stroke="black" stroke-width="1"/>
<line x1="82.18591358254801" y1="237.86499811959482" x2="74.52546915135822" y2="231.43712202272943" stroke="black" stroke-width="1"/>
<line x1="74.52546915135822" y1="231.43712202272943" x2="64.86621088846755" y2="228.8489315717042" stroke="black" stroke-width="1"/>
<line x1="74.52546915135822" y1="231.43712202272943" x2="66.86502472016845" y2="225.00924592586404" stroke="black" stroke-width="1"/>
<line x1="74.52546915135822" y1="231.43712202272943" x2="66.86502472016845" y2="225.00924592586404" stroke="black" stroke-width="1"/>
<line x1="66.86502472016845" y1="225.00924592586404" x2="62.63884210276146" y2="215.94616805549754" stroke="black" stroke-width="1"/>
<line x1="62.63884210276146" y1="215.94616805549754" x2="58.41265948535447" y2="206.88309018513104" stroke="black" stroke-width="1"/>
<line x1="66.86502472016845" y1="225.00924592586404" x2="57.20576645727776" y2="222.42105547483882" stroke="black" stroke-width="1"/>
<line x1="99.09064405217597" y1="274.1173096010608" x2="99.09064405217597" y2="264.1173096010608" stroke="black" stroke-width="1"/>
<line x1="99.09064405217597" y1="264.1173096010608" x2="99.09064405217597" y2="254.1173096010608" stroke="black" stroke-width="1"/>
<line x1="99.09064405217597" y1="254.1173096010608" x2="94.86446143476898" y2="245.0542317306943" stroke="black" stroke-width="1"/>
<line x1="94.86446143476898" y1="245.0542317306943" x2="87.2040170035792" y2="238.62635563382892" stroke="black" stroke-width="1"/>
<line x1="94.86446143476898" y1="245.0542317306943" x2="90.63827881736199" y2="235.9911538603278" stroke="black" stroke-width="1"/>
<line x1="94.86446143476898" y1="245.0542317306943" x2="90.63827881736199" y2="235.9911538603278" stroke="black" stroke-width="1"/>
<line x1="90.63827881736199" y1="235.9911538603278" x2="90.63827881736199" y2="225.9911538603278" stroke="black" stroke-width="1"/>
<line x1="90.63827881736199" y1="225.9911538603278" x2="90.63827881736199" y2="215.9911538603278" stroke="black" stroke-width="1"/>
<line x1="90.63827881736199" y1="235.9911538603278" x2="82.97783438617222" y2="229.56327776346242" stroke="black" stroke-width="1"/>
<line x1="99.09064405217597" y1="254.1173096010608" x2="99.09064405217597" y2="244.1173096010608" stroke="black" stroke-width="1"/>
<line x1="99.09064405217597" y1="244.1173096010608" x2="94.86446143476898" y2="235.0542317306943" stroke="black" stroke-width="1"/>
<line x1="99.09064405217597" y1="244.1173096010608" x2="99.09064405217597" y2="234.1173096010608" stroke="black" stroke-width="1"/>
<line x1="99.09064405217597" y1="244.1173096010608" x2="99.09064405217597" y2="234.1173096010608" stroke="black" stroke-width="1"/>
<line x1="99.09064405217597" y1="234.1173096010608" x2="103.31682666958297" y2="225.0542317306943" stroke="black" stroke-width="1"/>
<line x1="103.31682666958297" y1="225.0542317306943" x2="107.54300928698996" y2="215.9911538603278" stroke="black" stroke-width="1"/>
<line x1="99.09064405217597" y1="234.1173096010608" x2="94.86446143476898" y2="225.0542317306943" stroke="black" stroke-width="1"/>
<line x1="99.09064405217597" y1="254.1173096010608" x2="99.09064405217597" y2="244.1173096010608" stroke="black" stroke-width="1"/>
<line x1="99.09064405217597" y1="244.1173096010608" x2="99.09064405217597" y2="234.1173096010608" stroke="black" stroke-width="1"/>
<line x1="99.09064405217597" y1="234.1173096010608" x2="103.31682666958297" y2="225.0542317306943" stroke="black" stroke-width="1"/>
<line x1="103.31682666958297" y1="225.0542317306943" x2="107.54300928698996" y2="215.9911538603278" stroke="black" stroke-width="1"/>
<line x1="107.54300928698996" y1="215.9911538603278" x2="111.76919190439696" y2="206.92807598996131" stroke="black" stroke-width="1"/>
<line x1="111.76919190439696" y1="206.92807598996131" x2="111.76919190439696" y2="196.92807598996131" stroke="black" stroke-width="1"/>
<line x1="111.76919190439696" y1="206.92807598996131" x2="115.99537452180395" y2="197.86499811959482" stroke="black" stroke-width="1"/>
<line x1="111.76919190439696" y1="206.92807598996131" x2="115.99537452180395" y2="197.86499811959482" stroke="black" stroke-width="1"/>
<line x1="115.99537452180395" y1="197.86499811959482" x2="123.65581895299374" y2="191.43712202272943" stroke="black" stroke-width="1"/>
<line x1="123.65581895299374" y1="191.43712202272943" x2="131.31626338418351" y2="185.00924592586404" stroke="black" stroke-width="1"/>
<line x1="115.99537452180395" y1="197.86499811959482" x2="115.99537452180395" y2="187.86499811959482" stroke="black" stroke-width="1"/>
<line x1="99.09064405217597" y1="234.1173096010608" x2="94.86446143476898" y2="225.0542317306943" stroke="black" stroke-width="1"/>
<line x1="94.86446143476898" y1="225.0542317306943" x2="87.2040170035792" y2="218.62635563382892" stroke="black" stroke-width="1"/>
<line x1="94.86446143476898" y1="225.0542317306943" x2="90.63827881736199" y2="215.9911538603278" stroke="black" stroke-width="1"/>
<line x1="94.86446143476898" y1="225.0542317306943" x2="90.63827881736199" y2="215.9911538603278" stroke="black" stroke-width="1"/>
<line x1="90.63827881736199" y1="215.9911538603278" x2="90.63827881736199" y2="205.9911538603278" stroke="black" stroke-width="1"/>
<line x1="90.63827881736199" y1="205.9911538603278" x2="90.63827881736199" y2="195.9911538603278" stroke="black" stroke-width="1"/>
<line x1="90.63827881736199" y1="215.9911538603278" x2="82.97783438617222" y2="209.56327776346242" stroke="black" stroke-width="1"/>
<line x1="99.09064405217597" y1="274.1173096010608" x2="99.09064405217597" y2="264.1173096010608" stroke="black" stroke-width="1"/>
<line x1="99.09064405217597" y1="264.1173096010608" x2="99.09064405217597" y2="254.1173096010608" stroke="black" stroke-width="1"/>
<line x1="99.09064405217597" y1="254.1173096010608" x2="99.09064405217597" y2="244.1173096010608" stroke="black" stroke-width="1"/>
<line x1="99.09064405217597" y1="244.1173096010608" x2="99.09064405217597" y2="234.1173096010608" stroke="black" stroke-width="1"/>
<line x1="99.09064405217597" y1="234.1173096010608" x2="103.31682666958297" y2="225.0542317306943" stroke="black" stroke-width="1"/>
<line x1="103.31682666958297" y1="225.0542317306943" x2="107.54300928698996" y2="215.9911538603278" stroke="black" stroke-width="1"/>
<line x1="107.54300928698996" y1="215.9911538603278" x2="111.76919190439696" y2="206.92807598996131" stroke="black" stroke-width="1"/>
<line x1="111.76919190439696" y1="206.92807598996131" x2="115.99537452180395" y2="197.86499811959482" stroke="black" stroke-width="1"/>
<line x1="115.99537452180395" y1="197.86499811959482" x2="120.22155713921094" y2="188.80192024922832" stroke="black" stroke-width="1"/>
<line x1="120.22155713921094" y1="188.80192024922832" x2="124.44773975661795" y2="179.73884237886182" stroke="black" stroke-width="1"/>
<line x1="124.44773975661795" y1="179.73884237886182" x2="124.44773975661795" y2="169.73884237886182" stroke="black" stroke-width="1"/>
<line x1="124.44773975661795" y1="169.73884237886182" x2="120.22155713921094" y2="160.67576450849532" stroke="black" stroke-width="1"/>
<line x1="124.44773975661795" y1="169.73884237886182" x2="124.44773975661795" y2="159.73884237886182" stroke="black" stroke-width="1"/>
<line x1="124.44773975661795" y1="169.73884237886182" x2="124.44773975661795" y2="159.73884237886182" stroke="black" stroke-width="1"/>
<line x1="124.44773975661795" y1="159.73884237886182" x2="128.67392237402493" y2="150.67576450849532" stroke="black" stroke-width="1"/>
<line x1="128.67392237402493" y1="150.67576450849532" x2="132.90010499143193" y2="141.61268663812882" stroke="black" stroke-width="1"/>
<line x1="124.44773975661795" y1="159.73884237886182" x2="120.22155713921094" y2="150.67576450849532" stroke="black" stroke-width="1"/>
<line x1="124.44773975661795" y1="179.73884237886182" x2="128.67392237402493" y2="170.67576450849532" stroke="black" stroke-width="1"/>
<line x1="128.67392237402493" y1="170.67576450849532" x2="128.67392237402493" y2="160.67576450849532" stroke="black" stroke-width="1"/>
<line x1="128.67392237402493" y1="170.67576450849532" x2="132.90010499143193" y2="161.61268663812882" stroke="black" stroke-width="1"/>
<line x1="128.67392237402493" y1="170.67576450849532" x2="132.90010499143193" y2="161.61268663812882" stroke="black" stroke-width="1"/>
<line x1="132.90010499143193" y1="161.61268663812882" x2="140.5605494226217" y2="155.18481054126343" stroke="black" stroke-width="1"/>
<line x1="140.5605494226217" y1="155.18481054126343" x2="148.22099385381148" y2="148.75693444439804" stroke="black" stroke-width="1"/>
<line x1="132.90010499143193" y1="161.61268663812882" x2="132.90010499143193" y2="151.61268663812882" stroke="black" stroke-width="1"/>
<line x1="124.44773975661795" y1="179.73884237886182" x2="128.67392237402493" y2="170.67576450849532" stroke="black" stroke-width="1"/>
<line x1="128.67392237402493" y1="170.67576450849532" x2="132.90010499143193" y2="161.61268663812882" stroke="black" stroke-width="1"/>
<line x1="132.90010499143193" y1="161.61268663812882" x2="140.5605494226217" y2="155.18481054126343" stroke="black" stroke-width="1"/>
<line x1="140.5605494226217" y1="155.18481054126343" x2="148.22099385381148" y2="148.75693444439804" stroke="black" stroke-width="1"/>
<line x1="148.22099385381148" y1="148.75693444439804" x2="155.88143828500128" y2="142.32905834753265" stroke="black" stroke-width="1"/>
<line x1="155.88143828500128" y1="142.32905834753265" x2="160.10762090240826" y2="133.26598047716618" stroke="black" stroke-width="1"/>
<line x1="155.88143828500128" y1="142.32905834753265" x2="163.54188271619105" y2="135.90118225066726" stroke="black" stroke-width="1"/>
<line x1="155.88143828500128" y1="142.32905834753265" x2="163.54188271619105" y2="135.90118225066726" stroke="black" stroke-width="1"/>
<line x1="163.54188271619105" y1="135.90118225066726" x2="173.20114097908174" y2="133.31299179964208" stroke="black" stroke-width="1"/>
<line x1="173.20114097908174" y1="133.31299179964208" x2="182.86039924197243" y2="130.7248013486169" stroke="black" stroke-width="1"/>
<line x1="163.54188271619105" y1="135.90118225066726" x2="167.76806533359803" y2="126.83810438030076" stroke="black" stroke-width="1"/>
<line x1="132.90010499143193" y1="161.61268663812882" x2="132.90010499143193" y2="151.61268663812882" stroke="black" stroke-width="1"/>
<line x1="132.90010499143193" y1="151.61268663812882" x2="128.67392237402493" y2="142.54960876776232" stroke="black" stroke-width="1"/>
<line x1="132.90010499143193" y1="151.61268663812882" x2="132.90010499143193" y2="141.61268663812882" stroke="black" stroke-width="1"/>
<line x1="132.90010499143193" y1="151.61268663812882" x2="132.90010499143193" y2="141.61268663812882" stroke="black" stroke-width="1"/>
<line x1="132.90010499143193" y1="141.61268663812882" x2="137.12628760883894" y2="132.54960876776232" stroke="black" stroke-width="1"/>
<line x1="137.12628760883894" y1="132.54960876776232" x2="141.3524702262459" y2="123.48653089739582" stroke="black" stroke-width="1"/>
<line x1="132.90010499143193" y1="141.61268663812882" x2="128.67392237402493" y2="132.54960876776232" stroke="black" stroke-width="1"/>
<line x1="99.09064405217597" y1="234.1173096010608" x2="94.86446143476898" y2="225.0542317306943" stroke="black" stroke-width="1"/>
<line x1="94.86446143476898" y1="225.0542317306943" x2="90.63827881736199" y2="215.9911538603278" stroke="black" stroke-width="1"/>
<line x1="90.63827881736199" y1="215.9911538603278" x2="82.97783438617222" y2="209.56327776346242" stroke="black" stroke-width="1"/>
<line x1="82.97783438617222" y1="209.56327776346242" x2="73.31857612328153" y2="206.9750873124372" stroke="black" stroke-width="1"/>
<line x1="82.97783438617222" y1="209.56327776346242" x2="75.31738995498243" y2="203.13540166659703" stroke="black" stroke-width="1"/>
<line x1="82.97783438617222" y1="209.56327776346242" x2="75.31738995498243" y2="203.13540166659703" stroke="black" stroke-width="1"/>
<line x1="75.31738995498243" y1="203.13540166659703" x2="71.09120733757544" y2="194.07232379623053" stroke="black" stroke-width="1"/>
<line x1="71.09120733757544" y1="194.07232379623053" x2="66.86502472016845" y2="185.00924592586404" stroke="black" stroke-width="1"/>
<line x1="75.31738995498243" y1="203.13540166659703" x2="65.65813169209174" y2="200.54721121557182" stroke="black" stroke-width="1"/>
<line x1="90.63827881736199" y1="215.9911538603278" x2="86.412096199955" y2="206.92807598996131" stroke="black" stroke-width="1"/>
<line x1="86.412096199955" y1="206.92807598996131" x2="78.75165176876521" y2="200.50019989309592" stroke="black" stroke-width="1"/>
<line x1="86.412096199955" y1="206.92807598996131" x2="82.18591358254801" y2="197.86499811959482" stroke="black" stroke-width="1"/>
<line x1="86.412096199955" y1="206.92807598996131" x2="82.18591358254801" y2="197.86499811959482" stroke="black" stroke-width="1"/>
<line x1="82.18591358254801" y1="197.86499811959482" x2="82.18591358254801" y2="187.86499811959482" stroke="black" stroke-width="1"/>
<line x1="82.18591358254801" y1="187.86499811959482" x2="82.18591358254801" y2="177.86499811959482" stroke="black" stroke-width="1"/>
<line x1="82.18591358254801" y1="197.86499811959482" x2="74.52546915135822" y2="191.43712202272943" stroke="black" stroke-width="1"/>
<line x1="90.63827881736199" y1="215.9911538603278" x2="86.412096199955" y2="206.92807598996131" stroke="black" stroke-width="1"/>
<line x1="86.412096199955" y1="206.92807598996131" x2="82.18591358254801" y2="197.86499811959482" stroke="black" stroke-width="1"/>
<line x1="82.18591358254801" y1="197.86499811959482" x2="82.18591358254801" y2="187.86499811959482" stroke="black" stroke-width="1"/>
<line x1="82.18591358254801" y1="187.86499811959482" x2="82.18591358254801" y2="177.86499811959482" stroke="black" stroke-width="1"/>
<line x1="82.18591358254801" y1="177.86499811959482" x2="82.18591358254801" y2="167.86499811959482" stroke="black" stroke-width="1"/>
<line x1="82.18591358254801" y1="167.86499811959482" x2="77.95973096514102" y2="158.80192024922832" stroke="black" stroke-width="1"/>
<line x1="82.18591358254801" y1="167.86499811959482" x2="82.18591358254801" y2="157.86499811959482" stroke="black" stroke-width="1"/>
<line x1="82.18591358254801" y1="167.86499811959482" x2="82.18591358254801" y2="157.86499811959482" stroke="black" stroke-width="1"/>
<line x1="82.18591358254801" y1="157.86499811959482" x2="86.412096199955" y2="148.80192024922832" stroke="black" stroke-width="1"/>
<line x1="86.412096199955" y1="148.80192024922832" x2="90.63827881736199" y2="139.73884237886182" stroke="black" stroke-width="1"/>
<line x1="82.18591358254801" y1="157.86499811959482" x2="77.95973096514102" y2="148.80192024922832" stroke="black" stroke-width="1"/>
<line x1="82.18591358254801" y1="197.86499811959482" x2="74.52546915135822" y2="191.43712202272943" stroke="black" stroke-width="1"/>
<line x1="74.52546915135822" y1="191.43712202272943" x2="64.86621088846755" y2="188.8489315717042" stroke="black" stroke-width="1"/>
<line x1="74.52546915135822" y1="191.43712202272943" x2="66.86502472016845" y2="185.00924592586404" stroke="black" stroke-width="1"/>
<line x1="74.52546915135822" y1="191.43712202272943" x2="66.86502472016845" y2="185.00924592586404" stroke="black" stroke-width="1"/>
<line x1="66.86502472016845" y1="185.00924592586404" x2="62.63884210276146" y2="175.94616805549754" stroke="black" stroke-width="1"/>
<line x1="62.63884210276146" y1="175.94616805549754" x2="58.41265948535447" y2="166.88309018513104" stroke="black" stroke-width="1"/>
<line x1="66.86502472016845" y1="185.00924592586404" x2="57.20576645727776" y2="182.42105547483882" stroke="black" stroke-width="1"/>
<line x1="99.09064405217597" y1="314.1173096010608" x2="99.09064405217597" y2="304.1173096010608" stroke="black" stroke-width="1"/>
<line x1="99.09064405217597" y1="304.1173096010608" x2="99.09064405217597" y2="294.1173096010608" stroke="black" stroke-width="1"/>
<line x1="99.09064405217597" y1="294.1173096010608" x2="99.09064405217597" y2="284.1173096010608" stroke="black" stroke-width="1"/>
<line x1="99.09064405217597" y1="284.1173096010608" x2="99.09064405217597" y2="274.1173096010608" stroke="black" stroke-width="1"/>
<line x1="99.09064405217597" y1="274.1173096010608" x2="99.09064405217597" y2="264.1173096010608" stroke="black" stroke-width="1"/>
<line x1="99.09064405217597" y1="264.1173096010608" x2="99.09064405217597" y2="254.1173096010608" stroke="black" stroke-width="1"/>
<line x1="99.09064405217597" y1="254.1173096010608" x2="99.09064405217597" y2="244.1173096010608" stroke="black" stroke-width="1"/>
<line x1="99.09064405217597" y1="244.1173096010608" x2="99.09064405217597" y2="234.1173096010608" stroke="black" stroke-width="1"/>
<line x1="99.09064405217597" y1="234.1173096010608" x2="103.31682666958297" y2="225.0542317306943" stroke="black" stroke-width="1"/>
<line x1="103.31682666958297" y1="225.0542317306943" x2="107.54300928698996" y2="215.9911538603278" stroke="black" stroke-width="1"/>
<line x1="107.54300928698996" y1="215.9911538603278" x2="111.76919190439696" y2="206.92807598996131" stroke="black" stroke-width="1"/>
<line x1="111.76919190439696" y1="206.92807598996131" x2="115.99537452180395" y2="197.86499811959482" stroke="black" stroke-width="1"/>
<line x1="115.99537452180395" y1="197.86499811959482" x2="120.22155713921094" y2="188.80192024922832" stroke="black" stroke-width="1"/>
<line x1="120.22155713921094" y1="188.80192024922832" x2="124.44773975661795" y2="179.73884237886182" stroke="black" stroke-width="1"/>
<line x1="124.44773975661795" y1="179.73884237886182" x2="128.67392237402493" y2="170.67576450849532" stroke="black" stroke-width="1"/>
<line x1="128.67392237402493" y1="170.67576450849532" x2="132.90010499143193" y2="161.61268663812882" stroke="black" stroke-width="1"/>
<line x1="132.90010499143193" y1="161.61268663812882" x2="137.12628760883894" y2="152.54960876776232" stroke="black" stroke-width="1"/>
<line x1="137.12628760883894" y1="152.54960876776232" x2="141.3524702262459" y2="143.48653089739582" stroke="black" stroke-width="1"/>
<line x1="141.3524702262459" y1="143.48653089739582" x2="145.5786528436529" y2="134.42345302702932" stroke="black" stroke-width="1"/>
<line x1="145.5786528436529" y1="134.42345302702932" x2="149.8048354610599" y2="125.36037515666283" stroke="black" stroke-width="1"/>
<line x1="149.8048354610599" y1="125.36037515666283" x2="149.8048354610599" y2="115.36037515666283" stroke="black" stroke-width="1"/>
<line x1="149.8048354610599" y1="115.36037515666283" x2="149.8048354610599" y2="105.36037515666283" stroke="black" stroke-width="1"/>
<line x1="149.8048354610599" y1="105.36037515666283" x2="145.5786528436529" y2="96.29729728629633" stroke="black" stroke-width="1"/>
<line x1="145.5786528436529" y1="96.29729728629633" x2="137.91820841246312" y2="89.86942118943091" stroke="black" stroke-width="1"/>
<line x1="145.5786528436529" y1="96.29729728629633" x2="141.3524702262459" y2="87.23421941592983" stroke="black" stroke-width="1"/>
<line x1="145.5786528436529" y1="96.29729728629633" x2="141.3524702262459" y2="87.23421941592983" stroke="black" stroke-width="1"/>
<line x1="141.3524702262459" y1="87.23421941592983" x2="141.3524702262459" y2="77.23421941592983" stroke="black" stroke-width="1"/>
<line x1="141.3524702262459" y1="77.23421941592983" x2="141.3524702262459" y2="67.23421941592983" stroke="black" stroke-width="1"/>
<line x1="141.3524702262459" y1="87.23421941592983" x2="133.69202579505614" y2="80.80634331906441" stroke="black" stroke-width="1"/>
<line x1="149.8048354610599" y1="105.36037515666283" x2="149.8048354610599" y2="95.36037515666283" stroke="black" stroke-width="1"/>
<line x1="149.8048354610599" y1="95.36037515666283" x2="145.5786528436529" y2="86.29729728629633" stroke="black" stroke-width="1"/>
<line x1="149.8048354610599" y1="95.36037515666283" x2="149.8048354610599" y2="85.36037515666283" stroke="black" stroke-width="1"/>
<line x1="149.8048354610599" y1="95.36037515666283" x2="149.8048354610599" y2="85.36037515666283" stroke="black" stroke-width="1"/>
<line x1="149.8048354610599" y1="85.36037515666283" x2="154.0310180784669" y2="76.29729728629633" stroke="black" stroke-width="1"/>
<line x1="154.0310180784669" y1="76.29729728629633" x2="158.25720069587388" y2="67.23421941592983" stroke="black" stroke-width="1"/>
<line x1="149.8048354610599" y1="85.36037515666283" x2="145.5786528436529" y2="76.29729728629633" stroke="black" stroke-width="1"/>
<line x1="149.8048354610599" y1="105.36037515666283" x2="149.8048354610599" y2="95.36037515666283" stroke="black" stroke-width="1"/>
<line x1="149.8048354610599" y1="95.36037515666283" x2="149.8048354610599" y2="85.36037515666283" stroke="black" stroke-width="1"/>
<line x1="149.8048354610599" y1="85.36037515666283" x2="154.0310180784669" y2="76.29729728629633" stroke="black" stroke-width="1"/>
<line x1="154.0310180784669" y1="76.29729728629633" x2="158.25720069587388" y2="67.23421941592983" stroke="black" stroke-width="1"/>
<line x1="158.25720069587388" y1="67.23421941592983" x2="162.48338331328085" y2="58.17114154556333" stroke="black" stroke-width="1"/>
<line x1="162.48338331328085" y1="58.17114154556333" x2="162.48338331328085" y2="48.17114154556333" stroke="black" stroke-width="1"/>
<line x1="162.48338331328085" y1="58.17114154556333" x2="166.70956593068786" y2="49.10806367519683" stroke="black" stroke-width="1"/>
<line x1="162.48338331328085" y1="58.17114154556333" x2="166.70956593068786" y2="49.10806367519683" stroke="black" stroke-width="1"/>
<line x1="166.70956593068786" y1="49.10806367519683" x2="174.37001036187763" y2="42.68018757833141" stroke="black" stroke-width="1"/>
<line x1="174.37001036187763" y1="42.68018757833141" x2="182.0304547930674" y2="36.252311481465995" stroke="black" stroke-width="1"/>
<line x1="166.70956593068786" y1="49.10806367519683" x2="166.70956593068786" y2="39.10806367519683" stroke="black" stroke-width="1"/>
<line x1="149.8048354610599" y1="85.36037515666283" x2="145.5786528436529" y2="76.29729728629633" stroke="black" stroke-width="1"/>
<line x1="145.5786528436529" y1="76.29729728629633" x2="137.91820841246312" y2="69.86942118943091" stroke="black" stroke-width="1"/>
<line x1="145.5786528436529" y1="76.29729728629633" x2="141.3524702262459" y2="67.23421941592983" stroke="black" stroke-width="1"/>
<line x1="145.5786528436529" y1="76.29729728629633" x2="141.3524702262459" y2="67.23421941592983" stroke="black" stroke-width="1"/>
<line x1="141.3524702262459" y1="67.23421941592983" x2="141.3524702262459" y2="57.23421941592983" stroke="black" stroke-width="1"/>
<line x1="141.3524702262459" y1="57.23421941592983" x2="141.3524702262459" y2="47.23421941592983" stroke="black" stroke-width="1"/>
<line x1="141.3524702262459" y1="67.23421941592983" x2="133.69202579505614" y2="60.80634331906441" stroke="black" stroke-width="1"/>
<line x1="149.8048354610599" y1="125.36037515666283" x2="154.0310180784669" y2="116.29729728629633" stroke="black" stroke-width="1"/>
<line x1="154.0310180784669" y1="116.29729728629633" x2="158.25720069587388" y2="107.23421941592983" stroke="black" stroke-width="1"/>
<line x1="158.25720069587388" y1="107.23421941592983" x2="158.25720069587388" y2="97.23421941592983" stroke="black" stroke-width="1"/>
<line x1="158.25720069587388" y1="97.23421941592983" x2="154.0310180784669" y2="88.17114154556333" stroke="black" stroke-width="1"/>
<line x1="158.25720069587388" y1="97.23421941592983" x2="158.25720069587388" y2="87.23421941592983" stroke="black" stroke-width="1"/>
<line x1="158.25720069587388" y1="97.23421941592983" x2="158.25720069587388" y2="87.23421941592983" stroke="black" stroke-width="1"/>
<line x1="158.25720069587388" y1="87.23421941592983" x2="162.48338331328085" y2="78.17114154556333" stroke="black" stroke-width="1"/>
<line x1="162.48338331328085" y1="78.17114154556333" x2="166.70956593068786" y2="69.10806367519683" stroke="black" stroke-width="1"/>
<line x1="158.25720069587388" y1="87.23421941592983" x2="154.0310180784669" y2="78.17114154556333" stroke="black" stroke-width="1"/>
<line x1="158.25720069587388" y1="107.23421941592983" x2="162.48338331328085" y2="98.17114154556333" stroke="black" stroke-width="1"/>
<line x1="162.48338331328085" y1="98.17114154556333" x2="162.48338331328085" y2="88.17114154556333" stroke="black" stroke-width="1"/>
<line x1="162.48338331328085" y1="98.17114154556333" x2="166.70956593068786" y2="89.10806367519683" stroke="black" stroke-width="1"/>
<line x1="162.48338331328085" y1="98.17114154556333" x2="166.70956593068786" y2="89.10806367519683" stroke="black" stroke-width="1"/>
<line x1="166.70956593068786" y1="89.10806367519683" x2="174.37001036187763" y2="82.68018757833141" stroke="black" stroke-width="1"/>
<line x1="174.37001036187763" y1="82.68018757833141" x2="182.0304547930674" y2="76.252311481466" stroke="black" stroke-width="1"/>
<line x1="166.70956593068786" y1="89.10806367519683" x2="166.70956593068786" y2="79.10806367519683" stroke="black" stroke-width="1"/>
<line x1="158.25720069587388" y1="107.23421941592983" x2="162.48338331328085" y2="98.17114154556333" stroke="black" stroke-width="1"/>
<line x1="162.48338331328085" y1="98.17114154556333" x2="166.70956593068786" y2="89.10806367519683" stroke="black" stroke-width="1"/>
<line x1="166.70956593068786" y1="89.10806367519683" x2="174.37001036187763" y2="82.68018757833141" stroke="black" stroke-width="1"/>
<line x1="174.37001036187763" y1="82.68018757833141" x2="182.0304547930674" y2="76.252311481466" stroke="black" stroke-width="1"/>
<line x1="182.0304547930674" y1="76.252311481466" x2="189.69089922425718" y2="69.82443538460058" stroke="black" stroke-width="1"/>
<line x1="189.69089922425718" y1="69.82443538460058" x2="193.91708184166419" y2="60.76135751423408" stroke="black" stroke-width="1"/>
<line x1="189.69089922425718" y1="69.82443538460058" x2="197.35134365544695" y2="63.39655928773516" stroke="black" stroke-width="1"/>
<line x1="189.69089922425718" y1="69.82443538460058" x2="197.35134365544695" y2="63.39655928773516" stroke="black" stroke-width="1"/>
<line x1="197.35134365544695" y1="63.39655928773516" x2="207.01060191833764" y2="60.808368836709974" stroke="black" stroke-width="1"/>
<line x1="207.01060191833764" y1="60.808368836709974" x2="216.66986018122833" y2="58.22017838568479" stroke="black" stroke-width="1"/>
<line x1="197.35134365544695" y1="63.39655928773516" x2="201.57752627285396" y2="54.33348141736866" stroke="black" stroke-width="1"/>
<line x1="166.70956593068786" y1="89.10806367519683" x2="166.70956593068786" y2="79.10806367519683" stroke="black" stroke-width="1"/>
<line x1="166.70956593068786" y1="79.10806367519683" x2="162.48338331328085" y2="70.04498580483033" stroke="black" stroke-width="1"/>
<line x1="166.70956593068786" y1="79.10806367519683" x2="166.70956593068786" y2="69.10806367519683" stroke="black" stroke-width="1"/>
<line x1="166.70956593068786" y1="79.10806367519683" x2="166.70956593068786" y2="69.10806367519683" stroke="black" stroke-width="1"/>
<line x1="166.70956593068786" y1="69.10806367519683" x2="170.93574854809486" y2="60.04498580483033" stroke="black" stroke-width="1"/>
<line x1="170.93574854809486" y1="60.04498580483033" x2="175.16193116550184" y2="50.981907934463834" stroke="black" stroke-width="1"/>
<line x1="166.70956593068786" y1="69.10806367519683" x2="162.48338331328085" y2="60.04498580483033" stroke="black" stroke-width="1"/>
<line x1="149.8048354610599" y1="125.36037515666283" x2="154.0310180784669" y2="116.29729728629633" stroke="black" stroke-width="1"/>
<line x1="154.0310180784669" y1="116.29729728629633" x2="158.25720069587388" y2="107.23421941592983" stroke="black" stroke-width="1"/>
<line x1="158.25720069587388" y1="107.23421941592983" x2="162.48338331328085" y2="98.17114154556333" stroke="black" stroke-width="1"/>
<line x1="162.48338331328085" y1="98.17114154556333" x2="166.70956593068786" y2="89.10806367519683" stroke="black" stroke-width="1"/>
<line x1="166.70956593068786" y1="89.10806367519683" x2="174.37001036187763" y2="82.68018757833141" stroke="black" stroke-width="1"/>
<line x1="174.37001036187763" y1="82.68018757833141" x2="182.0304547930674" y2="76.252311481466" stroke="black" stroke-width="1"/>
<line x1="182.0304547930674" y1="76.252311481466" x2="189.69089922425718" y2="69.82443538460058" stroke="black" stroke-width="1"/>
<line x1="189.69089922425718" y1="69.82443538460058" x2="197.35134365544695" y2="63.39655928773516" stroke="black" stroke-width="1"/>
<line x1="197.35134365544695" y1="63.39655928773516" x2="205.01178808663673" y2="56.96868319086974" stroke="black" stroke-width="1"/>
<line x1="205.01178808663673" y1="56.96868319086974" x2="212.6722325178265" y2="50.54080709400432" stroke="black" stroke-width="1"/>
<line x1="212.6722325178265" y1="50.54080709400432" x2="216.8984151352335" y2="41.47772922363782" stroke="black" stroke-width="1"/>
<line x1="216.8984151352335" y1="41.47772922363782" x2="216.8984151352335" y2="31.477729223637823" stroke="black" stroke-width="1"/>
<line x1="216.8984151352335" y1="41.47772922363782" x2="221.12459775264048" y2="32.414651353271324" stroke="black" stroke-width="1"/>
<line x1="216.8984151352335" y1="41.47772922363782" x2="221.12459775264048" y2="32.414651353271324" stroke="black" stroke-width="1"/>
<line x1="221.12459775264048" y1="32.414651353271324" x2="228.78504218383026" y2="25.986775256405906" stroke="black" stroke-width="1"/>
<line x1="228.78504218383026" y1="25.986775256405906" x2="236.44548661502003" y2="19.558899159540488" stroke="black" stroke-width="1"/>
<line x1="221.12459775264048" y1="32.414651353271324" x2="221.12459775264048" y2="22.414651353271324" stroke="black" stroke-width="1"/>
<line x1="212.6722325178265" y1="50.54080709400432" x2="220.33267694901627" y2="44.1129309971389" stroke="black" stroke-width="1"/>
<line x1="220.33267694901627" y1="44.1129309971389" x2="224.55885956642328" y2="35.049853126772405" stroke="black" stroke-width="1"/>
<line x1="220.33267694901627" y1="44.1129309971389" x2="227.99312138020605" y2="37.685054900273485" stroke="black" stroke-width="1"/>
<line x1="220.33267694901627" y1="44.1129309971389" x2="227.99312138020605" y2="37.685054900273485" stroke="black" stroke-width="1"/>
<line x1="227.99312138020605" y1="37.685054900273485" x2="237.65237964309674" y2="35.0968644492483" stroke="black" stroke-width="1"/>
<line x1="237.65237964309674" y1="35.0968644492483" x2="247.31163790598742" y2="32.50867399822312" stroke="black" stroke-width="1"/>
<line x1="227.99312138020605" y1="37.685054900273485" x2="232.21930399761305" y2="28.621977029906986" stroke="black" stroke-width="1"/>
<line x1="212.6722325178265" y1="50.54080709400432" x2="220.33267694901627" y2="44.1129309971389" stroke="black" stroke-width="1"/>
<line x1="220.33267694901627" y1="44.1129309971389" x2="227.99312138020605" y2="37.685054900273485" stroke="black" stroke-width="1"/>
<line x1="227.99312138020605" y1="37.685054900273485" x2="237.65237964309674" y2="35.0968644492483" stroke="black" stroke-width="1"/>
<line x1="237.65237964309674" y1="35.0968644492483" x2="247.31163790598742" y2="32.50867399822312" stroke="black" stroke-width="1"/>
<line x1="247.31163790598742" y1="32.50867399822312" x2="256.9708961688781" y2="29.920483547197932" stroke="black" stroke-width="1"/>
<line x1="256.9708961688781" y1="29.920483547197932" x2="264.6313406000679" y2="23.492607450332514" stroke="black" stroke-width="1"/>
<line x1="256.9708961688781" y1="29.920483547197932" x2="266.6301544317688" y2="27.332293096172748" stroke="black" stroke-width="1"/>
<line x1="256.9708961688781" y1="29.920483547197932" x2="266.6301544317688" y2="27.332293096172748" stroke="black" stroke-width="1"/>
<line x1="266.6301544317688" y1="27.332293096172748" x2="276.47823196189086" y2="29.068774872842027" stroke="black" stroke-width="1"/>
<line x1="276.47823196189086" y1="29.068774872842027" x2="286.32630949201297" y2="30.805256649511307" stroke="black" stroke-width="1"/>
<line x1="266.6301544317688" y1="27.332293096172748" x2="274.2905988629586" y2="20.90441699930733" stroke="black" stroke-width="1"/>
<line x1="227.99312138020605" y1="37.685054900273485" x2="232.21930399761305" y2="28.621977029906986" stroke="black" stroke-width="1"/>
<line x1="232.21930399761305" y1="28.621977029906986" x2="232.21930399761305" y2="18.621977029906986" stroke="black" stroke-width="1"/>
<line x1="232.21930399761305" y1="28.621977029906986" x2="236.44548661502006" y2="19.558899159540488" stroke="black" stroke-width="1"/>
<line x1="232.21930399761305" y1="28.621977029906986" x2="236.44548661502006" y2="19.558899159540488" stroke="black" stroke-width="1"/>
<line x1="236.44548661502006" y1="19.558899159540488" x2="244.10593104620983" y2="13.13102306267507" stroke="black" stroke-width="1"/>
<line x1="244.10593104620983" y1="13.13102306267507" x2="251.7663754773996" y2="6.703146965809651" stroke="black" stroke-width="1"/>
<line x1="236.44548661502006" y1="19.558899159540488" x2="236.44548661502006" y2="9.558899159540488" stroke="black" stroke-width="1"/>
<line x1="166.70956593068786" y1="89.10806367519683" x2="166.70956593068786" y2="79.10806367519683" stroke="black" stroke-width="1"/>
<line x1="166.70956593068786" y1="79.10806367519683" x2="166.70956593068786" y2="69.10806367519683" stroke="black" stroke-width="1"/>
<line x1="166.70956593068786" y1="69.10806367519683" x2="162.48338331328085" y2="60.04498580483033" stroke="black" stroke-width="1"/>
<line x1="162.48338331328085" y1="60.04498580483033" x2="154.82293888209108" y2="53.617109707964914" stroke="black" stroke-width="1"/>
<line x1="162.48338331328085" y1="60.04498580483033" x2="158.25720069587388" y2="50.981907934463834" stroke="black" stroke-width="1"/>
<line x1="162.48338331328085" y1="60.04498580483033" x2="158.25720069587388" y2="50.981907934463834" stroke="black" stroke-width="1"/>
<line x1="158.25720069587388" y1="50.981907934463834" x2="158.25720069587388" y2="40.981907934463834" stroke="black" stroke-width="1"/>
<line x1="158.25720069587388" y1="40.981907934463834" x2="158.25720069587388" y2="30.981907934463834" stroke="black" stroke-width="1"/>
<line x1="158.25720069587388" y1="50.981907934463834" x2="150.5967562646841" y2="44.554031837598416" stroke="black" stroke-width="1"/>
<line x1="166.70956593068786" y1="69.10806367519683" x2="166.70956593068786" y2="59.10806367519683" stroke="black" stroke-width="1"/>
<line x1="166.70956593068786" y1="59.10806367519683" x2="162.48338331328085" y2="50.04498580483033" stroke="black" stroke-width="1"/>
<line x1="166.70956593068786" y1="59.10806367519683" x2="166.70956593068786" y2="49.10806367519683" stroke="black" stroke-width="1"/>
<line x1="166.70956593068786" y1="59.10806367519683" x2="166.70956593068786" y2="49.10806367519683" stroke="black" stroke-width="1"/>
<line x1="166.70956593068786" y1="49.10806367519683" x2="170.93574854809486" y2="40.04498580483033" stroke="black" stroke-width="1"/>
<line x1="170.93574854809486" y1="40.04498580483033" x2="175.16193116550184" y2="30.981907934463834" stroke="black" stroke-width="1"/>
<line x1="166.70956593068786" y1="49.10806367519683" x2="162.48338331328085" y2="40.04498580483033" stroke="black" stroke-width="1"/>
<line x1="166.70956593068786" y1="69.10806367519683" x2="166.70956593068786" y2="59.10806367519683" stroke="black" stroke-width="1"/>
<line x1="166.70956593068786" y1="59.10806367519683" x2="166.70956593068786" y2="49.10806367519683" stroke="black" stroke-width="1"/>
<line x1="166.70956593068786" y1="49.10806367519683" x2="170.93574854809486" y2="40.04498580483033" stroke="black" stroke-width="1"/>
<line x1="170.93574854809486" y1="40.04498580483033" x2="175.16193116550184" y2="30.981907934463834" stroke="black" stroke-width="1"/>
<line x1="175.16193116550184" y1="30.981907934463834" x2="179.38811378290882" y2="21.918830064097335" stroke="black" stroke-width="1"/>
<line x1="179.38811378290882" y1="21.918830064097335" x2="179.38811378290882" y2="11.918830064097335" stroke="black" stroke-width="1"/>
<line x1="179.38811378290882" y1="21.918830064097335" x2="183.61429640031582" y2="12.855752193730837" stroke="black" stroke-width="1"/>
<line x1="179.38811378290882" y1="21.918830064097335" x2="183.61429640031582" y2="12.855752193730837" stroke="black" stroke-width="1"/>
<line x1="183.61429640031582" y1="12.855752193730837" x2="191.2747408315056" y2="6.427876096865418" stroke="black" stroke-width="1"/>
<line x1="191.2747408315056" y1="6.427876096865418" x2="198.93518526269537" y2="0.0" stroke="black" stroke-width="1"/>
<line x1="183.61429640031582" y1="12.855752193730837" x2="183.61429640031582" y2="2.8557521937308366" stroke="black" stroke-width="1"/>
<line x1="166.70956593068786" y1="49.10806367519683" x2="162.48338331328085" y2="40.04498580483033" stroke="black" stroke-width="1"/>
<line x1="162.48338331328085" y1="40.04498580483033" x2="154.82293888209108" y2="33.617109707964914" stroke="black" stroke-width="1"/>
<line x1="162.48338331328085" y1="40.04498580483033" x2="158.25720069587388" y2="30.981907934463834" stroke="black" stroke-width="1"/>
<line x1="162.48338331328085" y1="40.04498580483033" x2="158.25720069587388" y2="30.981907934463834" stroke="black" stroke-width="1"/>
<line x1="158.25720069587388" y1="30.981907934463834" x2="158.25720069587388" y2="20.981907934463834" stroke="black" stroke-width="1"/>
<line x1="158.25720069587388" y1="20.981907934463834" x2="158.25720069587388" y2="10.981907934463834" stroke="black" stroke-width="1"/>
<line x1="158.25720069587388" y1="30.981907934463834" x2="150.5967562646841" y2="24.554031837598416" stroke="black" stroke-width="1"/>
<line x1="99.09064405217597" y1="234.1173096010608" x2="94.86446143476898" y2="225.0542317306943" stroke="black" stroke-width="1"/>
<line x1="94.86446143476898" y1="225.0542317306943" x2="90.63827881736199" y2="215.9911538603278" stroke="black" stroke-width="1"/>
<line x1="90.63827881736199" y1="215.9911538603278" x2="86.412096199955" y2="206.92807598996131" stroke="black" stroke-width="1"/>
<line x1="86.412096199955" y1="206.92807598996131" x2="82.18591358254801" y2="197.86499811959482" stroke="black" stroke-width="1"/>
<line x1="82.18591358254801" y1="197.86499811959482" x2="74.52546915135822" y2="191.43712202272943" stroke="black" stroke-width="1"/>
<line x1="74.52546915135822" y1="191.43712202272943" x2="66.86502472016845" y2="185.00924592586404" stroke="black" stroke-width="1"/>
<line x1="66.86502472016845" y1="185.00924592586404" x2="57.20576645727776" y2="182.42105547483882" stroke="black" stroke-width="1"/>
<line x1="57.20576645727776" y1="182.42105547483882" x2="47.35768892715568" y2="184.15753725150813" stroke="black" stroke-width="1"/>
<line x1="57.20576645727776" y1="182.42105547483882" x2="47.54650819438707" y2="179.8328650238136" stroke="black" stroke-width="1"/>
<line x1="57.20576645727776" y1="182.42105547483882" x2="47.54650819438707" y2="179.8328650238136" stroke="black" stroke-width="1"/>
<line x1="47.54650819438707" y1="179.8328650238136" x2="39.88606376319729" y2="173.40498892694822" stroke="black" stroke-width="1"/>
<line x1="39.88606376319729" y1="173.40498892694822" x2="32.22561933200751" y2="166.97711283008283" stroke="black" stroke-width="1"/>
<line x1="47.54650819438707" y1="179.8328650238136" x2="37.69843066426499" y2="181.56934680048292" stroke="black" stroke-width="1"/>
<line x1="66.86502472016845" y1="185.00924592586404" x2="59.20458028897867" y2="178.58136982899865" stroke="black" stroke-width="1"/>
<line x1="59.20458028897867" y1="178.58136982899865" x2="49.54532202608799" y2="175.99317937797343" stroke="black" stroke-width="1"/>
<line x1="59.20458028897867" y1="178.58136982899865" x2="51.54413585778889" y2="172.15349373213326" stroke="black" stroke-width="1"/>
<line x1="59.20458028897867" y1="178.58136982899865" x2="51.54413585778889" y2="172.15349373213326" stroke="black" stroke-width="1"/>
<line x1="51.54413585778889" y1="172.15349373213326" x2="47.3179532403819" y2="163.09041586176676" stroke="black" stroke-width="1"/>
<line x1="47.3179532403819" y1="163.09041586176676" x2="43.091770622974906" y2="154.02733799140026" stroke="black" stroke-width="1"/>
<line x1="51.54413585778889" y1="172.15349373213326" x2="41.8848775948982" y2="169.56530328110804" stroke="black" stroke-width="1"/>
<line x1="66.86502472016845" y1="185.00924592586404" x2="59.20458028897867" y2="178.58136982899865" stroke="black" stroke-width="1"/>
<line x1="59.20458028897867" y1="178.58136982899865" x2="51.54413585778889" y2="172.15349373213326" stroke="black" stroke-width="1"/>
<line x1="51.54413585778889" y1="172.15349373213326" x2="47.3179532403819" y2="163.09041586176676" stroke="black" stroke-width="1"/>
<line x1="47.3179532403819" y1="163.09041586176676" x2="43.091770622974906" y2="154.02733799140026" stroke="black" stroke-width="1"/>
<line x1="43.091770622974906" y1="154.02733799140026" x2="38.865588005567915" y2="144.96426012103376" stroke="black" stroke-width="1"/>
<line x1="38.865588005567915" y1="144.96426012103376" x2="31.205143574378127" y2="138.53638402416837" stroke="black" stroke-width="1"/>
<line x1="38.865588005567915" y1="144.96426012103376" x2="34.639405388160924" y2="135.90118225066726" stroke="black" stroke-width="1"/>
<line x1="38.865588005567915" y1="144.96426012103376" x2="34.639405388160924" y2="135.90118225066726" stroke="black" stroke-width="1"/>
<line x1="34.639405388160924" y1="135.90118225066726" x2="34.639405388160924" y2="125.90118225066726" stroke="black" stroke-width="1"/>
<line x1="34.639405388160924" y1="125.90118225066726" x2="34.639405388160924" y2="115.90118225066726" stroke="black" stroke-width="1"/>
<line x1="34.639405388160924" y1="135.90118225066726" x2="26.97896095697115" y2="129.47330615380184" stroke="black" stroke-width="1"/>
<line x1="51.54413585778889" y1="172.15349373213326" x2="41.8848775948982" y2="169.56530328110804" stroke="black" stroke-width="1"/>
<line x1="41.8848775948982" y1="169.56530328110804" x2="32.036800064776116" y2="171.30178505777735" stroke="black" stroke-width="1"/>
<line x1="41.8848775948982" y1="169.56530328110804" x2="32.22561933200751" y2="166.97711283008283" stroke="black" stroke-width="1"/>
<line x1="41.8848775948982" y1="169.56530328110804" x2="32.22561933200751" y2="166.97711283008283" stroke="black" stroke-width="1"/>
<line x1="32.22561933200751" y1="166.97711283008283" x2="24.565174900817738" y2="160.54923673321744" stroke="black" stroke-width="1"/>
<line x1="24.565174900817738" y1="160.54923673321744" x2="16.904730469627964" y2="154.12136063635205" stroke="black" stroke-width="1"/>
<line x1="32.22561933200751" y1="166.97711283008283" x2="22.377541801885428" y2="168.71359460675214" stroke="black" stroke-width="1"/>
<line x1="82.18591358254801" y1="197.86499811959482" x2="77.95973096514102" y2="188.80192024922832" stroke="black" stroke-width="1"/>
<line x1="77.95973096514102" y1="188.80192024922832" x2="73.73354834773403" y2="179.73884237886182" stroke="black" stroke-width="1"/>
<line x1="73.73354834773403" y1="179.73884237886182" x2="66.07310391654424" y2="173.31096628199643" stroke="black" stroke-width="1"/>
<line x1="66.07310391654424" y1="173.31096628199643" x2="56.41384565365355" y2="170.72277583097122" stroke="black" stroke-width="1"/>
<line x1="66.07310391654424" y1="173.31096628199643" x2="58.41265948535446" y2="166.88309018513104" stroke="black" stroke-width="1"/>
<line x1="66.07310391654424" y1="173.31096628199643" x2="58.41265948535446" y2="166.88309018513104" stroke="black" stroke-width="1"/>
<line x1="58.41265948535446" y1="166.88309018513104" x2="54.18647686794747" y2="157.82001231476454" stroke="black" stroke-width="1"/>
<line x1="54.18647686794747" y1="157.82001231476454" x2="49.96029425054048" y2="148.75693444439804" stroke="black" stroke-width="1"/>
<line x1="58.41265948535446" y1="166.88309018513104" x2="48.75340122246378" y2="164.29489973410583" stroke="black" stroke-width="1"/>
<line x1="73.73354834773403" y1="179.73884237886182" x2="69.50736573032704" y2="170.67576450849532" stroke="black" stroke-width="1"/>
<line x1="69.50736573032704" y1="170.67576450849532" x2="61.84692129913725" y2="164.24788841162993" stroke="black" stroke-width="1"/>
<line x1="69.50736573032704" y1="170.67576450849532" x2="65.28118311292005" y2="161.61268663812882" stroke="black" stroke-width="1"/>
<line x1="69.50736573032704" y1="170.67576450849532" x2="65.28118311292005" y2="161.61268663812882" stroke="black" stroke-width="1"/>
<line x1="65.28118311292005" y1="161.61268663812882" x2="65.28118311292005" y2="151.61268663812882" stroke="black" stroke-width="1"/>
<line x1="65.28118311292005" y1="151.61268663812882" x2="65.28118311292005" y2="141.61268663812882" stroke="black" stroke-width="1"/>
<line x1="65.28118311292005" y1="161.61268663812882" x2="57.62073868173026" y2="155.18481054126343" stroke="black" stroke-width="1"/>
<line x1="73.73354834773403" y1="179.73884237886182" x2="69.50736573032704" y2="170.67576450849532" stroke="black" stroke-width="1"/>
<line x1="69.50736573032704" y1="170.67576450849532" x2="65.28118311292005" y2="161.61268663812882" stroke="black" stroke-width="1"/>
<line x1="65.28118311292005" y1="161.61268663812882" x2="65.28118311292005" y2="151.61268663812882" stroke="black" stroke-width="1"/>
<line x1="65.28118311292005" y1="151.61268663812882" x2="65.28118311292005" y2="141.61268663812882" stroke="black" stroke-width="1"/>
<line x1="65.28118311292005" y1="141.61268663812882" x2="65.28118311292005" y2="131.61268663812882" stroke="black" stroke-width="1"/>
<line x1="65.28118311292005" y1="131.61268663812882" x2="61.05500049551305" y2="122.54960876776232" stroke="black" stroke-width="1"/>
<line x1="65.28118311292005" y1="131.61268663812882" x2="65.28118311292005" y2="121.61268663812882" stroke="black" stroke-width="1"/>
<line x1="65.28118311292005" y1="131.61268663812882" x2="65.28118311292005" y2="121.61268663812882" stroke="black" stroke-width="1"/>
<line x1="65.28118311292005" y1="121.61268663812882" x2="69.50736573032704" y2="112.54960876776232" stroke="black" stroke-width="1"/>
<line x1="69.50736573032704" y1="112.54960876776232" x2="73.73354834773403" y2="103.48653089739582" stroke="black" stroke-width="1"/>
<line x1="65.28118311292005" y1="121.61268663812882" x2="61.05500049551305" y2="112.54960876776232" stroke="black" stroke-width="1"/>
<line x1="65.28118311292005" y1="161.61268663812882" x2="57.62073868173026" y2="155.18481054126343" stroke="black" stroke-width="1"/>
<line x1="57.62073868173026" y1="155.18481054126343" x2="47.96148041883957" y2="152.59662009023822" stroke="black" stroke-width="1"/>
<line x1="57.62073868173026" y1="155.18481054126343" x2="49.96029425054048" y2="148.75693444439804" stroke="black" stroke-width="1"/>
<line x1="57.62073868173026" y1="155.18481054126343" x2="49.96029425054048" y2="148.75693444439804" stroke="black" stroke-width="1"/>
<line x1="49.96029425054048" y1="148.75693444439804" x2="45.73411163313349" y2="139.69385657403154" stroke="black" stroke-width="1"/>
<line x1="45.73411163313349" y1="139.69385657403154" x2="41.507929015726496" y2="130.63077870366504" stroke="black" stroke-width="1"/>
<line x1="49.96029425054048" y1="148.75693444439804" x2="40.3010359876498" y2="146.16874399337283" stroke="black" stroke-width="1"/>
<line x1="82.18591358254801" y1="197.86499811959482" x2="77.95973096514102" y2="188.80192024922832" stroke="black" stroke-width="1"/>
<line x1="77.95973096514102" y1="188.80192024922832" x2="73.73354834773403" y2="179.73884237886182" stroke="black" stroke-width="1"/>
<line x1="73.73354834773403" y1="179.73884237886182" x2="69.50736573032704" y2="170.67576450849532" stroke="black" stroke-width="1"/>
<line x1="69.50736573032704" y1="170.67576450849532" x2="65.28118311292005" y2="161.61268663812882" stroke="black" stroke-width="1"/>
<line x1="65.28118311292005" y1="161.61268663812882" x2="65.28118311292005" y2="151.61268663812882" stroke="black" stroke-width="1"/>
<line x1="65.28118311292005" y1="151.61268663812882" x2="65.28118311292005" y2="141.61268663812882" stroke="black" stroke-width="1"/>
<line x1="65.28118311292005" y1="141.61268663812882" x2="65.28118311292005" y2="131.61268663812882" stroke="black" stroke-width="1"/>
<line x1="65.28118311292005" y1="131.61268663812882" x2="65.28118311292005" y2="121.61268663812882" stroke="black" stroke-width="1"/>
<line x1="65.28118311292005" y1="121.61268663812882" x2="65.28118311292005" y2="111.61268663812882" stroke="black" stroke-width="1"/>
<line x1="65.28118311292005" y1="111.61268663812882" x2="65.28118311292005" y2="101.61268663812882" stroke="black" stroke-width="1"/>
<line x1="65.28118311292005" y1="101.61268663812882" x2="61.05500049551305" y2="92.54960876776232" stroke="black" stroke-width="1"/>
<line x1="61.05500049551305" y1="92.54960876776232" x2="53.39455606432327" y2="86.1217326708969" stroke="black" stroke-width="1"/>
<line x1="61.05500049551305" y1="92.54960876776232" x2="56.82881787810606" y2="83.48653089739582" stroke="black" stroke-width="1"/>
<line x1="61.05500049551305" y1="92.54960876776232" x2="56.82881787810606" y2="83.48653089739582" stroke="black" stroke-width="1"/>
<line x1="56.82881787810606" y1="83.48653089739582" x2="56.82881787810606" y2="73.48653089739582" stroke="black" stroke-width="1"/>
<line x1="56.82881787810606" y1="73.48653089739582" x2="56.82881787810606" y2="63.486530897395824" stroke="black" stroke-width="1"/>
<line x1="56.82881787810606" y1="83.48653089739582" x2="49.16837344691628" y2="77.0586548005304" stroke="black" stroke-width="1"/>
<line x1="65.28118311292005" y1="101.61268663812882" x2="65.28118311292005" y2="91.61268663812882" stroke="black" stroke-width="1"/>
<line x1="65.28118311292005" y1="91.61268663812882" x2="61.05500049551305" y2="82.54960876776232" stroke="black" stroke-width="1"/>
<line x1="65.28118311292005" y1="91.61268663812882" x2="65.28118311292005" y2="81.61268663812882" stroke="black" stroke-width="1"/>
<line x1="65.28118311292005" y1="91.61268663812882" x2="65.28118311292005" y2="81.61268663812882" stroke="black" stroke-width="1"/>
<line x1="65.28118311292005" y1="81.61268663812882" x2="69.50736573032704" y2="72.54960876776232" stroke="black" stroke-width="1"/>
<line x1="69.50736573032704" y1="72.54960876776232" x2="73.73354834773403" y2="63.486530897395824" stroke="black" stroke-width="1"/>
<line x1="65.28118311292005" y1="81.61268663812882" x2="61.05500049551305" y2="72.54960876776232" stroke="black" stroke-width="1"/>
<line x1="65.28118311292005" y1="101.61268663812882" x2="65.28118311292005" y2="91.61268663812882" stroke="black" stroke-width="1"/>
<line x1="65.28118311292005" y1="91.61268663812882" x2="65.28118311292005" y2="81.61268663812882" stroke="black" stroke-width="1"/>
<line x1="65.28118311292005" y1="81.61268663812882" x2="69.50736573032704" y2="72.54960876776232" stroke="black" stroke-width="1"/>
<line x1="69.50736573032704" y1="72.54960876776232" x2="73.73354834773403" y2="63.486530897395824" stroke="black" stroke-width="1"/>
<line x1="73.73354834773403" y1="63.486530897395824" x2="77.95973096514102" y2="54.423453027029325" stroke="black" stroke-width="1"/>
<line x1="77.95973096514102" y1="54.423453027029325" x2="77.95973096514102" y2="44.423453027029325" stroke="black" stroke-width="1"/>
<line x1="77.95973096514102" y1="54.423453027029325" x2="82.18591358254801" y2="45.360375156662826" stroke="black" stroke-width="1"/>
<line x1="77.95973096514102" y1="54.423453027029325" x2="82.18591358254801" y2="45.360375156662826" stroke="black" stroke-width="1"/>
<line x1="82.18591358254801" y1="45.360375156662826" x2="89.8463580137378" y2="38.93249905979741" stroke="black" stroke-width="1"/>
<line x1="89.8463580137378" y1="38.93249905979741" x2="97.50680244492757" y2="32.50462296293199" stroke="black" stroke-width="1"/>
<line x1="82.18591358254801" y1="45.360375156662826" x2="82.18591358254801" y2="35.360375156662826" stroke="black" stroke-width="1"/>
<line x1="65.28118311292005" y1="81.61268663812882" x2="61.05500049551305" y2="72.54960876776232" stroke="black" stroke-width="1"/>
<line x1="61.05500049551305" y1="72.54960876776232" x2="53.39455606432327" y2="66.1217326708969" stroke="black" stroke-width="1"/>
<line x1="61.05500049551305" y1="72.54960876776232" x2="56.82881787810606" y2="63.486530897395824" stroke="black" stroke-width="1"/>
<line x1="61.05500049551305" y1="72.54960876776232" x2="56.82881787810606" y2="63.486530897395824" stroke="black" stroke-width="1"/>
<line x1="56.82881787810606" y1="63.486530897395824" x2="56.82881787810606" y2="53.486530897395824" stroke="black" stroke-width="1"/>
<line x1="56.82881787810606" y1="53.486530897395824" x2="56.82881787810606" y2="43.486530897395824" stroke="black" stroke-width="1"/>
<line x1="56.82881787810606" y1="63.486530897395824" x2="49.16837344691628" y2="57.058654800530405" stroke="black" stroke-width="1"/>
<line x1="65.28118311292005" y1="161.61268663812882" x2="57.62073868173026" y2="155.18481054126343" stroke="black" stroke-width="1"/>
<line x1="57.62073868173026" y1="155.18481054126343" x2="49.96029425054048" y2="148.75693444439804" stroke="black" stroke-width="1"/>
<line x1="49.96029425054048" y1="148.75693444439804" x2="40.3010359876498" y2="146.16874399337283" stroke="black" stroke-width="1"/>
<line x1="40.3010359876498" y1="146.16874399337283" x2="30.452958457527714" y2="147.90522577004214" stroke="black" stroke-width="1"/>
<line x1="40.3010359876498" y1="146.16874399337283" x2="30.64177772475911" y2="143.58055354234762" stroke="black" stroke-width="1"/>
<line x1="40.3010359876498" y1="146.16874399337283" x2="30.64177772475911" y2="143.58055354234762" stroke="black" stroke-width="1"/>
<line x1="30.64177772475911" y1="143.58055354234762" x2="22.98133329356932" y2="137.1526774454822" stroke="black" stroke-width="1"/>
<line x1="22.98133329356932" y1="137.1526774454822" x2="15.320888862379547" y2="130.72480134861678" stroke="black" stroke-width="1"/>
<line x1="30.64177772475911" y1="143.58055354234762" x2="20.793700194637026" y2="145.31703531901692" stroke="black" stroke-width="1"/>
<line x1="49.96029425054048" y1="148.75693444439804" x2="42.2998498193507" y2="142.32905834753265" stroke="black" stroke-width="1"/>
<line x1="42.2998498193507" y1="142.32905834753265" x2="32.64059155646001" y2="139.74086789650744" stroke="black" stroke-width="1"/>
<line x1="42.2998498193507" y1="142.32905834753265" x2="34.639405388160924" y2="135.90118225066726" stroke="black" stroke-width="1"/>
<line x1="42.2998498193507" y1="142.32905834753265" x2="34.639405388160924" y2="135.90118225066726" stroke="black" stroke-width="1"/>
<line x1="34.639405388160924" y1="135.90118225066726" x2="30.413222770753933" y2="126.83810438030076" stroke="black" stroke-width="1"/>
<line x1="30.413222770753933" y1="126.83810438030076" x2="26.187040153346942" y2="117.77502650993426" stroke="black" stroke-width="1"/>
<line x1="34.639405388160924" y1="135.90118225066726" x2="24.980147125270236" y2="133.31299179964208" stroke="black" stroke-width="1"/>
<line x1="49.96029425054048" y1="148.75693444439804" x2="42.2998498193507" y2="142.32905834753265" stroke="black" stroke-width="1"/>
<line x1="42.2998498193507" y1="142.32905834753265" x2="34.639405388160924" y2="135.90118225066726" stroke="black" stroke-width="1"/>
<line x1="34.639405388160924" y1="135.90118225066726" x2="30.413222770753933" y2="126.83810438030076" stroke="black" stroke-width="1"/>
<line x1="30.413222770753933" y1="126.83810438030076" x2="26.187040153346942" y2="117.77502650993426" stroke="black" stroke-width="1"/>
<line x1="26.187040153346942" y1="117.77502650993426" x2="21.96085753593995" y2="108.71194863956777" stroke="black" stroke-width="1"/>
<line x1="21.96085753593995" y1="108.71194863956777" x2="14.300413104750163" y2="102.28407254270235" stroke="black" stroke-width="1"/>
<line x1="21.96085753593995" y1="108.71194863956777" x2="17.73467491853296" y2="99.64887076920127" stroke="black" stroke-width="1"/>
<line x1="21.96085753593995" y1="108.71194863956777" x2="17.73467491853296" y2="99.64887076920127" stroke="black" stroke-width="1"/>
<line x1="17.73467491853296" y1="99.64887076920127" x2="17.73467491853296" y2="89.64887076920127" stroke="black" stroke-width="1"/>
<line x1="17.73467491853296" y1="89.64887076920127" x2="17.73467491853296" y2="79.64887076920127" stroke="black" stroke-width="1"/>
<line x1="17.73467491853296" y1="99.64887076920127" x2="10.074230487343186" y2="93.22099467233585" stroke="black" stroke-width="1"/>
<line x1="34.639405388160924" y1="135.90118225066726" x2="24.980147125270236" y2="133.31299179964208" stroke="black" stroke-width="1"/>
<line x1="24.980147125270236" y1="133.31299179964208" x2="15.132069595148153" y2="135.04947357631136" stroke="black" stroke-width="1"/>
<line x1="24.980147125270236" y1="133.31299179964208" x2="15.320888862379547" y2="130.7248013486169" stroke="black" stroke-width="1"/>
<line x1="24.980147125270236" y1="133.31299179964208" x2="15.320888862379547" y2="130.7248013486169" stroke="black" stroke-width="1"/>
<line x1="15.320888862379547" y1="130.7248013486169" x2="7.660444431189774" y2="124.29692525175147" stroke="black" stroke-width="1"/>
<line x1="7.660444431189774" y1="124.29692525175147" x2="0.0" y2="117.86904915488606" stroke="black" stroke-width="1"/>
<line x1="15.320888862379547" y1="130.7248013486169" x2="5.472811332257464" y2="132.46128312528617" stroke="black" stroke-width="1"/>
</svg>
