<svg width="48.3384289980113" height="89.10806367519677" xmlns="http://www.w3.org/2000/svg">
<line x1="16.112809666003763" y1="89.10806367519677" x2="16.112809666003763" y2="79.10806367519677" stroke="black" stroke-width="1"/>
<line x1="16.112809666003763" y1="79.10806367519677" x2="16.112809666003763" y2="69.10806367519677" stroke="black" stroke-width="1"/>
<line x1="16.112809666003763" y1="69.10806367519677" x2="11.886627048596772" y2="60.044985804830276" stroke="black" stroke-width="1"/>
<line x1="11.886627048596772" y1="60.044985804830276" x2="4.226182617406991" y2="53.617109707964886" stroke="black" stroke-width="1"/>
<line x1="11.886627048596772" y1="60.044985804830276" x2="7.660444431189779" y2="50.98190793446378" stroke="black" stroke-width="1"/>
<line x1="11.886627048596772" y1="60.044985804830276" x2="7.660444431189779" y2="50.98190793446378" stroke="black" stroke-width="1"/>
<line x1="7.660444431189779" y1="50.98190793446378" x2="7.660444431189779" y2="40.98190793446378" stroke="black" stroke-width="1"/>
<line x1="7.660444431189779" y1="40.98190793446378" x2="7.660444431189779" y2="30.981907934463777" stroke="black" stroke-width="1"/>
<line x1="7.660444431189779" y1="50.98190793446378" x2="0.0" y2="44.55403183759839" stroke="black" stroke-width="1"/>
<line x1="16.112809666003763" y1="69.10806367519677" x2="16.112809666003763" y2="59.108063675196775" stroke="black" stroke-width="1"/>
<line x1="16.112809666003763" y1="59.108063675196775" x2="11.886627048596772" y2="50.044985804830276" stroke="black" stroke-width="1"/>
<line x1="16.112809666003763" y1="59.108063675196775" x2="16.112809666003763" y2="49.108063675196775" stroke="black" stroke-width="1"/>
<line x1="16.112809666003763" y1="59.108063675196775" x2="16.112809666003763" y2="49.108063675196775" stroke="black" stroke-width="1"/>
<line x1="16.112809666003763" y1="49.108063675196775" x2="20.338992283410757" y2="40.044985804830276" stroke="black" stroke-width="1"/>
<line x1="20.338992283410757" y1="40.044985804830276" x2="24.565174900817752" y2="30.981907934463777" stroke="black" stroke-width="1"/>
<line x1="16.112809666003763" y1="49.108063675196775" x2="11.886627048596772" y2="40.044985804830276" stroke="black" stroke-width="1"/>
<line x1="16.112809666003763" y1="69.10806367519677" x2="16.112809666003763" y2="59.108063675196775" stroke="black" stroke-width="1"/>
<line x1="16.112809666003763" y1="59.108063675196775" x2="16.112809666003763" y2="49.108063675196775" stroke="black" stroke-width="1"/>
<line x1="16.112809666003763" y1="49.108063675196775" x2="20.338992283410757" y2="40.044985804830276" stroke="black" stroke-width="1"/>
<line x1="20.338992283410757" y1="40.044985804830276" x2="24.565174900817752" y2="30.981907934463777" stroke="black" stroke-width="1"/>
<line x1="24.565174900817752" y1="30.981907934463777" x2="28.791357518224746" y2="21.91883006409728" stroke="black" stroke-width="1"/>
<line x1="28.791357518224746" y1="21.91883006409728" x2="28.791357518224746" y2="11.918830064097278" stroke="black" stroke-width="1"/>
<line x1="28.791357518224746" y1="21.91883006409728" x2="33.01754013563174" y2="12.85575219373078" stroke="black" stroke-width="1"/>
<line x1="28.791357518224746" y1="21.91883006409728" x2="33.01754013563174" y2="12.85575219373078" stroke="black" stroke-width="1"/>
<line x1="33.01754013563174" y1="12.85575219373078" x2="40.67798456682152" y2="6.42787609686539" stroke="black" stroke-width="1"/>
<line x1="40.67798456682152" y1="6.42787609686539" x2="48.3384289980113" y2="0.0" stroke="black" stroke-width="1"/>
<line x1="33.01754013563174" y1="12.85575219373078" x2="33.01754013563174" y2="2.8557521937307797" stroke="black" stroke-width="1"/>
<line x1="16.112809666003763" y1="49.108063675196775" x2="11.886627048596772" y2="40.044985804830276" stroke="black" stroke-width="1"/>
<line x1="11.886627048596772" y1="40.044985804830276" x2="4.226182617406991" y2="33.617109707964886" stroke="black" stroke-width="1"/>
<line x1="11.886627048596772" y1="40.044985804830276" x2="7.660444431189779" y2="30.981907934463777" stroke="black" stroke-width="1"/>
<line x1="11.886627048596772" y1="40.044985804830276" x2="7.660444431189779" y2="30.981907934463777" stroke="black" stroke-width="1"/>
<line x1="7.660444431189779" y1="30.981907934463777" x2="7.660444431189779" y2="20.981907934463777" stroke="black" stroke-width="1"/>
<line x1="7.660444431189779" y1="20.981907934463777" x2="7.660444431189779" y2="10.981907934463777" stroke="black" stroke-width="1"/>
<line x1="7.660444431189779" y1="30.981907934463777" x2="0.0" y2="24.554031837598387" stroke="black" stroke-width="1"/>
</svg>
