<svg width="62.42640687119286" height="71.21320343559643" xmlns="http://www.w3.org/2000/svg">
<line x1="31.213203435596434" y1="71.21320343559643" x2="31.213203435596434" y2="61.21320343559643" stroke="black" stroke-width="1"/>
<line x1="31.213203435596434" y1="61.21320343559643" x2="31.213203435596434" y2="51.21320343559643" stroke="black" stroke-width="1"/>
<line x1="31.213203435596434" y1="51.21320343559643" x2="31.213203435596434" y2="41.21320343559643" stroke="black" stroke-width="1"/>
<line x1="31.213203435596434" y1="41.21320343559643" x2="31.213203435596434" y2="31.213203435596427" stroke="black" stroke-width="1"/>
<line x1="31.213203435596434" y1="31.213203435596427" x2="38.28427124746191" y2="24.14213562373095" stroke="black" stroke-width="1"/>
<line x1="38.28427124746191" y1="24.14213562373095" x2="45.355339059327385" y2="17.071067811865476" stroke="black" stroke-width="1"/>
<line x1="45.355339059327385" y1="17.071067811865476" x2="55.355339059327385" y2="17.071067811865476" stroke="black" stroke-width="1"/>
<line x1="55.355339059327385" y1="17.071067811865476" x2="62.42640687119286" y2="24.14213562373095" stroke="black" stroke-width="1"/>
<line x1="55.355339059327385" y1="17.071067811865476" x2="62.42640687119286" y2="10.0" stroke="black" stroke-width="1"/>
<line x1="45.355339059327385" y1="17.071067811865476" x2="45.355339059327385" y2="7.0710678118654755" stroke="black" stroke-width="1"/>
<line x1="45.355339059327385" y1="7.0710678118654755" x2="52.42640687119285" y2="0.0" stroke="black" stroke-width="1"/>
<line x1="45.355339059327385" y1="7.0710678118654755" x2="38.2842712474619" y2="0.0" stroke="black" stroke-width="1"/>
<line x1="31.213203435596434" y1="31.213203435596427" x2="24.142135623730958" y2="24.14213562373095" stroke="black" stroke-width="1"/>
<line x1="24.142135623730958" y1="24.14213562373095" x2="17.07106781186548" y2="17.071067811865476" stroke="black" stroke-width="1"/>
<line x1="17.07106781186548" y1="17.071067811865476" x2="17.07106781186548" y2="7.0710678118654755" stroke="black" stroke-width="1"/>
<line x1="17.07106781186548" y1="7.0710678118654755" x2="24.142135623730955" y2="0.0" stroke="black" stroke-width="1"/>
<line x1="17.07106781186548" y1="7.0710678118654755" x2="10.0" y2="0.0" stroke="black" stroke-width="1"/>
<line x1="17.07106781186548" y1="17.071067811865476" x2="7.071067811865479" y2="17.071067811865476" stroke="black" stroke-width="1"/>
<line x1="7.071067811865479" y1="17.071067811865476" x2="0.0" y2="10.0" stroke="black" stroke-width="1"/>
<line x1="7.071067811865479" y1="17.071067811865476" x2="3.552713678800501e-15" y2="24.14213562373095" stroke="black" stroke-width="1"/>
</svg>
