<svg width="279.6410161513776" height="548.4678751731757" xmlns="http://www.w3.org/2000/svg">
<line x1="57.32050807568879" y1="548.4678751731757" x2="57.32050807568879" y2="538.4678751731757" stroke="black" stroke-width="1"/>
<line x1="57.32050807568879" y1="538.4678751731757" x2="62.32050807568879" y2="529.8076211353313" stroke="black" stroke-width="1"/>
<line x1="57.32050807568879" y1="538.4678751731757" x2="57.32050807568879" y2="528.4678751731757" stroke="black" stroke-width="1"/>
<line x1="57.32050807568879" y1="528.4678751731757" x2="62.32050807568879" y2="519.8076211353313" stroke="black" stroke-width="1"/>
<line x1="62.32050807568879" y1="519.8076211353313" x2="62.32050807568879" y2="509.8076211353313" stroke="black" stroke-width="1"/>
<line x1="62.32050807568879" y1="519.8076211353313" x2="67.32050807568879" y2="511.1473670974869" stroke="black" stroke-width="1"/>
<line x1="57.32050807568879" y1="528.4678751731757" x2="57.32050807568879" y2="518.4678751731757" stroke="black" stroke-width="1"/>
<line x1="57.32050807568879" y1="518.4678751731757" x2="62.32050807568879" y2="509.8076211353313" stroke="black" stroke-width="1"/>
<line x1="57.32050807568879" y1="518.4678751731757" x2="57.32050807568879" y2="508.4678751731757" stroke="black" stroke-width="1"/>
<line x1="57.32050807568879" y1="508.4678751731757" x2="62.32050807568879" y2="499.8076211353313" stroke="black" stroke-width="1"/>
<line x1="62.32050807568879" y1="499.8076211353313" x2="70.98076211353317" y2="494.8076211353313" stroke="black" stroke-width="1"/>
<line x1="62.32050807568879" y1="499.8076211353313" x2="67.32050807568879" y2="491.1473670974869" stroke="black" stroke-width="1"/>
<line x1="67.32050807568879" y1="491.1473670974869" x2="67.32050807568879" y2="481.1473670974869" stroke="black" stroke-width="1"/>
<line x1="67.32050807568879" y1="481.1473670974869" x2="72.32050807568879" y2="472.4871130596425" stroke="black" stroke-width="1"/>
<line x1="67.32050807568879" y1="481.1473670974869" x2="67.32050807568879" y2="471.1473670974869" stroke="black" stroke-width="1"/>
<line x1="67.32050807568879" y1="491.1473670974869" x2="72.32050807568879" y2="482.4871130596425" stroke="black" stroke-width="1"/>
<line x1="72.32050807568879" y1="482.4871130596425" x2="80.98076211353317" y2="477.4871130596425" stroke="black" stroke-width="1"/>
<line x1="72.32050807568879" y1="482.4871130596425" x2="77.32050807568879" y2="473.82685902179816" stroke="black" stroke-width="1"/>
<line x1="57.32050807568879" y1="508.4678751731757" x2="57.32050807568879" y2="498.4678751731757" stroke="black" stroke-width="1"/>
<line x1="57.32050807568879" y1="498.4678751731757" x2="62.32050807568879" y2="489.8076211353313" stroke="black" stroke-width="1"/>
<line x1="57.32050807568879" y1="498.4678751731757" x2="57.32050807568879" y2="488.4678751731757" stroke="black" stroke-width="1"/>
<line x1="57.32050807568879" y1="488.4678751731757" x2="52.320508075688785" y2="479.8076211353313" stroke="black" stroke-width="1"/>
<line x1="52.320508075688785" y1="479.8076211353313" x2="52.320508075688785" y2="469.8076211353313" stroke="black" stroke-width="1"/>
<line x1="52.320508075688785" y1="479.8076211353313" x2="47.320508075688785" y2="471.14736709748695" stroke="black" stroke-width="1"/>
<line x1="57.32050807568879" y1="488.4678751731757" x2="57.32050807568879" y2="478.4678751731757" stroke="black" stroke-width="1"/>
<line x1="57.32050807568879" y1="478.4678751731757" x2="62.32050807568879" y2="469.8076211353313" stroke="black" stroke-width="1"/>
<line x1="57.32050807568879" y1="478.4678751731757" x2="57.32050807568879" y2="468.4678751731757" stroke="black" stroke-width="1"/>
<line x1="57.32050807568879" y1="468.4678751731757" x2="52.320508075688785" y2="459.8076211353313" stroke="black" stroke-width="1"/>
<line x1="52.320508075688785" y1="459.8076211353313" x2="52.320508075688785" y2="449.8076211353313" stroke="black" stroke-width="1"/>
<line x1="52.320508075688785" y1="459.8076211353313" x2="47.320508075688785" y2="451.14736709748695" stroke="black" stroke-width="1"/>
<line x1="47.320508075688785" y1="451.14736709748695" x2="47.320508075688785" y2="441.14736709748695" stroke="black" stroke-width="1"/>
<line x1="47.320508075688785" y1="441.14736709748695" x2="42.32050807568878" y2="432.4871130596425" stroke="black" stroke-width="1"/>
<line x1="47.320508075688785" y1="441.14736709748695" x2="47.320508075688785" y2="431.14736709748695" stroke="black" stroke-width="1"/>
<line x1="47.320508075688785" y1="451.14736709748695" x2="42.32050807568878" y2="442.4871130596425" stroke="black" stroke-width="1"/>
<line x1="42.32050807568878" y1="442.4871130596425" x2="42.32050807568878" y2="432.4871130596425" stroke="black" stroke-width="1"/>
<line x1="42.32050807568878" y1="442.4871130596425" x2="37.32050807568878" y2="433.82685902179816" stroke="black" stroke-width="1"/>
<line x1="37.32050807568878" y1="433.82685902179816" x2="28.66025403784439" y2="428.82685902179816" stroke="black" stroke-width="1"/>
<line x1="28.66025403784439" y1="428.82685902179816" x2="18.66025403784439" y2="428.82685902179816" stroke="black" stroke-width="1"/>
<line x1="28.66025403784439" y1="428.82685902179816" x2="20.0" y2="423.82685902179816" stroke="black" stroke-width="1"/>
<line x1="20.0" y1="423.82685902179816" x2="10.0" y2="423.82685902179816" stroke="black" stroke-width="1"/>
<line x1="10.0" y1="423.82685902179816" x2="1.339745962155618" y2="428.82685902179816" stroke="black" stroke-width="1"/>
<line x1="10.0" y1="423.82685902179816" x2="0.0" y2="423.82685902179816" stroke="black" stroke-width="1"/>
<line x1="20.0" y1="423.82685902179816" x2="11.339745962155618" y2="418.82685902179816" stroke="black" stroke-width="1"/>
<line x1="11.339745962155618" y1="418.82685902179816" x2="1.339745962155618" y2="418.82685902179816" stroke="black" stroke-width="1"/>
<line x1="11.339745962155618" y1="418.82685902179816" x2="2.679491924311236" y2="413.82685902179816" stroke="black" stroke-width="1"/>
<line x1="37.32050807568878" y1="433.82685902179816" x2="32.32050807568877" y2="425.1666049839538" stroke="black" stroke-width="1"/>
<line x1="32.32050807568877" y1="425.1666049839538" x2="32.32050807568877" y2="415.1666049839538" stroke="black" stroke-width="1"/>
<line x1="32.32050807568877" y1="425.1666049839538" x2="27.320508075688767" y2="416.50635094610936" stroke="black" stroke-width="1"/>
<line x1="27.320508075688767" y1="416.50635094610936" x2="18.660254037844382" y2="411.50635094610936" stroke="black" stroke-width="1"/>
<line x1="27.320508075688767" y1="416.50635094610936" x2="22.320508075688764" y2="407.846096908265" stroke="black" stroke-width="1"/>
<line x1="22.320508075688764" y1="407.846096908265" x2="13.660254037844382" y2="402.846096908265" stroke="black" stroke-width="1"/>
<line x1="13.660254037844382" y1="402.846096908265" x2="3.660254037844382" y2="402.846096908265" stroke="black" stroke-width="1"/>
<line x1="13.660254037844382" y1="402.846096908265" x2="5.0" y2="397.846096908265" stroke="black" stroke-width="1"/>
<line x1="22.320508075688764" y1="407.846096908265" x2="17.320508075688757" y2="399.18584287042063" stroke="black" stroke-width="1"/>
<line x1="17.320508075688757" y1="399.18584287042063" x2="17.320508075688757" y2="389.18584287042063" stroke="black" stroke-width="1"/>
<line x1="17.320508075688757" y1="399.18584287042063" x2="12.32050807568875" y2="390.5255888325762" stroke="black" stroke-width="1"/>
<line x1="57.32050807568879" y1="468.4678751731757" x2="57.32050807568879" y2="458.4678751731757" stroke="black" stroke-width="1"/>
<line x1="57.32050807568879" y1="458.4678751731757" x2="62.32050807568879" y2="449.8076211353313" stroke="black" stroke-width="1"/>
<line x1="57.32050807568879" y1="458.4678751731757" x2="57.32050807568879" y2="448.4678751731757" stroke="black" stroke-width="1"/>
<line x1="57.32050807568879" y1="448.4678751731757" x2="52.320508075688785" y2="439.8076211353313" stroke="black" stroke-width="1"/>
<line x1="57.32050807568879" y1="448.4678751731757" x2="57.32050807568879" y2="438.4678751731757" stroke="black" stroke-width="1"/>
<line x1="57.32050807568879" y1="438.4678751731757" x2="52.320508075688785" y2="429.8076211353313" stroke="black" stroke-width="1"/>
<line x1="52.320508075688785" y1="429.8076211353313" x2="43.6602540378444" y2="424.8076211353313" stroke="black" stroke-width="1"/>
<line x1="52.320508075688785" y1="429.8076211353313" x2="47.320508075688785" y2="421.14736709748695" stroke="black" stroke-width="1"/>
<line x1="57.32050807568879" y1="438.4678751731757" x2="57.32050807568879" y2="428.4678751731757" stroke="black" stroke-width="1"/>
<line x1="57.32050807568879" y1="428.4678751731757" x2="52.320508075688785" y2="419.80762113533126" stroke="black" stroke-width="1"/>
<line x1="57.32050807568879" y1="428.4678751731757" x2="57.32050807568879" y2="418.4678751731757" stroke="black" stroke-width="1"/>
<line x1="57.32050807568879" y1="418.4678751731757" x2="62.32050807568879" y2="409.80762113533126" stroke="black" stroke-width="1"/>
<line x1="62.32050807568879" y1="409.80762113533126" x2="62.32050807568879" y2="399.80762113533126" stroke="black" stroke-width="1"/>
<line x1="62.32050807568879" y1="409.80762113533126" x2="67.32050807568879" y2="401.1473670974869" stroke="black" stroke-width="1"/>
<line x1="67.32050807568879" y1="401.1473670974869" x2="75.98076211353317" y2="396.1473670974869" stroke="black" stroke-width="1"/>
<line x1="75.98076211353317" y1="396.1473670974869" x2="85.98076211353317" y2="396.1473670974869" stroke="black" stroke-width="1"/>
<line x1="75.98076211353317" y1="396.1473670974869" x2="84.64101615137756" y2="391.1473670974869" stroke="black" stroke-width="1"/>
<line x1="84.64101615137756" y1="391.1473670974869" x2="89.64101615137756" y2="382.4871130596425" stroke="black" stroke-width="1"/>
<line x1="84.64101615137756" y1="391.1473670974869" x2="93.30127018922195" y2="386.1473670974869" stroke="black" stroke-width="1"/>
<line x1="67.32050807568879" y1="401.1473670974869" x2="72.32050807568879" y2="392.4871130596425" stroke="black" stroke-width="1"/>
<line x1="72.32050807568879" y1="392.4871130596425" x2="72.32050807568879" y2="382.4871130596425" stroke="black" stroke-width="1"/>
<line x1="72.32050807568879" y1="392.4871130596425" x2="77.32050807568879" y2="383.8268590217981" stroke="black" stroke-width="1"/>
<line x1="57.32050807568879" y1="418.4678751731757" x2="57.32050807568879" y2="408.4678751731757" stroke="black" stroke-width="1"/>
<line x1="57.32050807568879" y1="408.4678751731757" x2="62.32050807568879" y2="399.80762113533126" stroke="black" stroke-width="1"/>
<line x1="57.32050807568879" y1="408.4678751731757" x2="57.32050807568879" y2="398.4678751731757" stroke="black" stroke-width="1"/>
<line x1="57.32050807568879" y1="398.4678751731757" x2="52.320508075688785" y2="389.80762113533126" stroke="black" stroke-width="1"/>
<line x1="52.320508075688785" y1="389.80762113533126" x2="52.320508075688785" y2="379.80762113533126" stroke="black" stroke-width="1"/>
<line x1="52.320508075688785" y1="389.80762113533126" x2="47.320508075688785" y2="381.1473670974869" stroke="black" stroke-width="1"/>
<line x1="57.32050807568879" y1="398.4678751731757" x2="57.32050807568879" y2="388.4678751731757" stroke="black" stroke-width="1"/>
<line x1="57.32050807568879" y1="388.4678751731757" x2="52.320508075688785" y2="379.80762113533126" stroke="black" stroke-width="1"/>
<line x1="57.32050807568879" y1="388.4678751731757" x2="57.32050807568879" y2="378.4678751731757" stroke="black" stroke-width="1"/>
<line x1="57.32050807568879" y1="378.4678751731757" x2="62.32050807568879" y2="369.80762113533126" stroke="black" stroke-width="1"/>
<line x1="62.32050807568879" y1="369.80762113533126" x2="70.98076211353317" y2="364.80762113533126" stroke="black" stroke-width="1"/>
<line x1="62.32050807568879" y1="369.80762113533126" x2="67.32050807568879" y2="361.1473670974869" stroke="black" stroke-width="1"/>
<line x1="67.32050807568879" y1="361.1473670974869" x2="67.32050807568879" y2="351.1473670974869" stroke="black" stroke-width="1"/>
<line x1="67.32050807568879" y1="361.1473670974869" x2="72.32050807568879" y2="352.4871130596425" stroke="black" stroke-width="1"/>
<line x1="72.32050807568879" y1="352.4871130596425" x2="80.98076211353317" y2="347.4871130596425" stroke="black" stroke-width="1"/>
<line x1="80.98076211353317" y1="347.4871130596425" x2="90.98076211353317" y2="347.4871130596425" stroke="black" stroke-width="1"/>
<line x1="80.98076211353317" y1="347.4871130596425" x2="89.64101615137756" y2="342.4871130596425" stroke="black" stroke-width="1"/>
<line x1="72.32050807568879" y1="352.4871130596425" x2="77.32050807568879" y2="343.8268590217981" stroke="black" stroke-width="1"/>
<line x1="77.32050807568879" y1="343.8268590217981" x2="77.32050807568879" y2="333.8268590217981" stroke="black" stroke-width="1"/>
<line x1="77.32050807568879" y1="343.8268590217981" x2="82.32050807568879" y2="335.1666049839537" stroke="black" stroke-width="1"/>
<line x1="82.32050807568879" y1="335.1666049839537" x2="90.98076211353317" y2="330.1666049839537" stroke="black" stroke-width="1"/>
<line x1="90.98076211353317" y1="330.1666049839537" x2="100.98076211353317" y2="330.1666049839537" stroke="black" stroke-width="1"/>
<line x1="90.98076211353317" y1="330.1666049839537" x2="99.64101615137756" y2="325.1666049839537" stroke="black" stroke-width="1"/>
<line x1="99.64101615137756" y1="325.1666049839537" x2="104.64101615137756" y2="316.5063509461093" stroke="black" stroke-width="1"/>
<line x1="99.64101615137756" y1="325.1666049839537" x2="108.30127018922194" y2="320.1666049839537" stroke="black" stroke-width="1"/>
<line x1="108.30127018922194" y1="320.1666049839537" x2="118.30127018922194" y2="320.1666049839537" stroke="black" stroke-width="1"/>
<line x1="118.30127018922194" y1="320.1666049839537" x2="126.96152422706632" y2="315.1666049839537" stroke="black" stroke-width="1"/>
<line x1="118.30127018922194" y1="320.1666049839537" x2="128.30127018922195" y2="320.1666049839537" stroke="black" stroke-width="1"/>
<line x1="108.30127018922194" y1="320.1666049839537" x2="116.96152422706632" y2="315.1666049839537" stroke="black" stroke-width="1"/>
<line x1="116.96152422706632" y1="315.1666049839537" x2="121.96152422706632" y2="306.5063509461093" stroke="black" stroke-width="1"/>
<line x1="116.96152422706632" y1="315.1666049839537" x2="125.6217782649107" y2="310.1666049839537" stroke="black" stroke-width="1"/>
<line x1="82.32050807568879" y1="335.1666049839537" x2="87.32050807568879" y2="326.5063509461093" stroke="black" stroke-width="1"/>
<line x1="87.32050807568879" y1="326.5063509461093" x2="95.98076211353317" y2="321.5063509461093" stroke="black" stroke-width="1"/>
<line x1="87.32050807568879" y1="326.5063509461093" x2="92.32050807568879" y2="317.84609690826494" stroke="black" stroke-width="1"/>
<line x1="92.32050807568879" y1="317.84609690826494" x2="92.32050807568879" y2="307.84609690826494" stroke="black" stroke-width="1"/>
<line x1="92.32050807568879" y1="307.84609690826494" x2="97.32050807568879" y2="299.1858428704205" stroke="black" stroke-width="1"/>
<line x1="92.32050807568879" y1="307.84609690826494" x2="92.32050807568879" y2="297.84609690826494" stroke="black" stroke-width="1"/>
<line x1="92.32050807568879" y1="297.84609690826494" x2="87.32050807568878" y2="289.1858428704205" stroke="black" stroke-width="1"/>
<line x1="92.32050807568879" y1="297.84609690826494" x2="92.32050807568879" y2="287.84609690826494" stroke="black" stroke-width="1"/>
<line x1="92.32050807568879" y1="317.84609690826494" x2="97.32050807568879" y2="309.1858428704205" stroke="black" stroke-width="1"/>
<line x1="97.32050807568879" y1="309.1858428704205" x2="105.98076211353317" y2="304.1858428704205" stroke="black" stroke-width="1"/>
<line x1="97.32050807568879" y1="309.1858428704205" x2="102.32050807568879" y2="300.5255888325761" stroke="black" stroke-width="1"/>
<line x1="102.32050807568879" y1="300.5255888325761" x2="102.32050807568879" y2="290.5255888325761" stroke="black" stroke-width="1"/>
<line x1="102.32050807568879" y1="300.5255888325761" x2="107.32050807568879" y2="291.8653347947317" stroke="black" stroke-width="1"/>
<line x1="107.32050807568879" y1="291.8653347947317" x2="107.32050807568879" y2="281.8653347947317" stroke="black" stroke-width="1"/>
<line x1="107.32050807568879" y1="281.8653347947317" x2="102.32050807568878" y2="273.20508075688736" stroke="black" stroke-width="1"/>
<line x1="107.32050807568879" y1="281.8653347947317" x2="107.32050807568879" y2="271.8653347947317" stroke="black" stroke-width="1"/>
<line x1="107.32050807568879" y1="271.8653347947317" x2="112.32050807568879" y2="263.20508075688736" stroke="black" stroke-width="1"/>
<line x1="112.32050807568879" y1="263.20508075688736" x2="120.98076211353317" y2="258.20508075688736" stroke="black" stroke-width="1"/>
<line x1="112.32050807568879" y1="263.20508075688736" x2="117.32050807568879" y2="254.544826719043" stroke="black" stroke-width="1"/>
<line x1="107.32050807568879" y1="271.8653347947317" x2="107.32050807568879" y2="261.8653347947317" stroke="black" stroke-width="1"/>
<line x1="107.32050807568879" y1="261.8653347947317" x2="102.32050807568878" y2="253.20508075688736" stroke="black" stroke-width="1"/>
<line x1="107.32050807568879" y1="261.8653347947317" x2="107.32050807568879" y2="251.86533479473172" stroke="black" stroke-width="1"/>
<line x1="107.32050807568879" y1="251.86533479473172" x2="102.32050807568878" y2="243.20508075688736" stroke="black" stroke-width="1"/>
<line x1="102.32050807568878" y1="243.20508075688736" x2="93.6602540378444" y2="238.20508075688736" stroke="black" stroke-width="1"/>
<line x1="102.32050807568878" y1="243.20508075688736" x2="97.32050807568876" y2="234.544826719043" stroke="black" stroke-width="1"/>
<line x1="107.32050807568879" y1="251.86533479473172" x2="107.32050807568879" y2="241.86533479473172" stroke="black" stroke-width="1"/>
<line x1="107.32050807568879" y1="241.86533479473172" x2="112.32050807568879" y2="233.20508075688736" stroke="black" stroke-width="1"/>
<line x1="107.32050807568879" y1="241.86533479473172" x2="107.32050807568879" y2="231.86533479473172" stroke="black" stroke-width="1"/>
<line x1="107.32050807568879" y1="231.86533479473172" x2="102.32050807568878" y2="223.20508075688736" stroke="black" stroke-width="1"/>
<line x1="107.32050807568879" y1="231.86533479473172" x2="107.32050807568879" y2="221.86533479473172" stroke="black" stroke-width="1"/>
<line x1="107.32050807568879" y1="291.8653347947317" x2="112.32050807568879" y2="283.20508075688736" stroke="black" stroke-width="1"/>
<line x1="112.32050807568879" y1="283.20508075688736" x2="120.98076211353317" y2="278.20508075688736" stroke="black" stroke-width="1"/>
<line x1="112.32050807568879" y1="283.20508075688736" x2="117.32050807568879" y2="274.544826719043" stroke="black" stroke-width="1"/>
<line x1="117.32050807568879" y1="274.544826719043" x2="117.32050807568879" y2="264.544826719043" stroke="black" stroke-width="1"/>
<line x1="117.32050807568879" y1="274.544826719043" x2="122.32050807568878" y2="265.8845726811986" stroke="black" stroke-width="1"/>
<line x1="122.32050807568878" y1="265.8845726811986" x2="130.98076211353316" y2="260.8845726811986" stroke="black" stroke-width="1"/>
<line x1="130.98076211353316" y1="260.8845726811986" x2="140.98076211353316" y2="260.8845726811986" stroke="black" stroke-width="1"/>
<line x1="130.98076211353316" y1="260.8845726811986" x2="139.64101615137753" y2="255.88457268119862" stroke="black" stroke-width="1"/>
<line x1="122.32050807568878" y1="265.8845726811986" x2="127.32050807568878" y2="257.22431864335425" stroke="black" stroke-width="1"/>
<line x1="127.32050807568878" y1="257.22431864335425" x2="135.98076211353316" y2="252.22431864335425" stroke="black" stroke-width="1"/>
<line x1="127.32050807568878" y1="257.22431864335425" x2="132.3205080756888" y2="248.56406460550988" stroke="black" stroke-width="1"/>
<line x1="132.3205080756888" y1="248.56406460550988" x2="132.3205080756888" y2="238.56406460550988" stroke="black" stroke-width="1"/>
<line x1="132.3205080756888" y1="248.56406460550988" x2="137.3205080756888" y2="239.90381056766552" stroke="black" stroke-width="1"/>
<line x1="137.3205080756888" y1="239.90381056766552" x2="137.3205080756888" y2="229.90381056766552" stroke="black" stroke-width="1"/>
<line x1="137.3205080756888" y1="229.90381056766552" x2="142.3205080756888" y2="221.24355652982115" stroke="black" stroke-width="1"/>
<line x1="137.3205080756888" y1="229.90381056766552" x2="137.3205080756888" y2="219.90381056766552" stroke="black" stroke-width="1"/>
<line x1="137.3205080756888" y1="219.90381056766552" x2="132.3205080756888" y2="211.24355652982115" stroke="black" stroke-width="1"/>
<line x1="137.3205080756888" y1="219.90381056766552" x2="137.3205080756888" y2="209.90381056766552" stroke="black" stroke-width="1"/>
<line x1="137.3205080756888" y1="239.90381056766552" x2="142.3205080756888" y2="231.24355652982115" stroke="black" stroke-width="1"/>
<line x1="142.3205080756888" y1="231.24355652982115" x2="150.98076211353316" y2="226.24355652982115" stroke="black" stroke-width="1"/>
<line x1="142.3205080756888" y1="231.24355652982115" x2="147.3205080756888" y2="222.58330249197678" stroke="black" stroke-width="1"/>
<line x1="147.3205080756888" y1="222.58330249197678" x2="147.3205080756888" y2="212.58330249197678" stroke="black" stroke-width="1"/>
<line x1="147.3205080756888" y1="222.58330249197678" x2="152.3205080756888" y2="213.9230484541324" stroke="black" stroke-width="1"/>
<line x1="152.3205080756888" y1="213.9230484541324" x2="160.98076211353316" y2="208.9230484541324" stroke="black" stroke-width="1"/>
<line x1="160.98076211353316" y1="208.9230484541324" x2="170.98076211353316" y2="208.9230484541324" stroke="black" stroke-width="1"/>
<line x1="160.98076211353316" y1="208.9230484541324" x2="169.64101615137753" y2="203.9230484541324" stroke="black" stroke-width="1"/>
<line x1="169.64101615137753" y1="203.9230484541324" x2="179.64101615137753" y2="203.9230484541324" stroke="black" stroke-width="1"/>
<line x1="179.64101615137753" y1="203.9230484541324" x2="188.30127018922192" y2="198.9230484541324" stroke="black" stroke-width="1"/>
<line x1="179.64101615137753" y1="203.9230484541324" x2="189.64101615137753" y2="203.9230484541324" stroke="black" stroke-width="1"/>
<line x1="169.64101615137753" y1="203.9230484541324" x2="178.30127018922192" y2="198.9230484541324" stroke="black" stroke-width="1"/>
<line x1="178.30127018922192" y1="198.9230484541324" x2="183.30127018922192" y2="190.26279441628805" stroke="black" stroke-width="1"/>
<line x1="178.30127018922192" y1="198.9230484541324" x2="186.96152422706632" y2="193.9230484541324" stroke="black" stroke-width="1"/>
<line x1="186.96152422706632" y1="193.9230484541324" x2="196.96152422706632" y2="193.9230484541324" stroke="black" stroke-width="1"/>
<line x1="196.96152422706632" y1="193.9230484541324" x2="205.62177826491072" y2="198.9230484541324" stroke="black" stroke-width="1"/>
<line x1="196.96152422706632" y1="193.9230484541324" x2="206.96152422706632" y2="193.9230484541324" stroke="black" stroke-width="1"/>
<line x1="206.96152422706632" y1="193.9230484541324" x2="215.62177826491072" y2="188.9230484541324" stroke="black" stroke-width="1"/>
<line x1="206.96152422706632" y1="193.9230484541324" x2="216.96152422706632" y2="193.9230484541324" stroke="black" stroke-width="1"/>
<line x1="216.96152422706632" y1="193.9230484541324" x2="225.62177826491072" y2="198.9230484541324" stroke="black" stroke-width="1"/>
<line x1="225.62177826491072" y1="198.9230484541324" x2="230.62177826491072" y2="207.58330249197678" stroke="black" stroke-width="1"/>
<line x1="225.62177826491072" y1="198.9230484541324" x2="234.2820323027551" y2="203.9230484541324" stroke="black" stroke-width="1"/>
<line x1="234.2820323027551" y1="203.9230484541324" x2="244.2820323027551" y2="203.9230484541324" stroke="black" stroke-width="1"/>
<line x1="234.2820323027551" y1="203.9230484541324" x2="242.9422863405995" y2="208.9230484541324" stroke="black" stroke-width="1"/>
<line x1="216.96152422706632" y1="193.9230484541324" x2="226.96152422706632" y2="193.9230484541324" stroke="black" stroke-width="1"/>
<line x1="226.96152422706632" y1="193.9230484541324" x2="235.62177826491072" y2="188.9230484541324" stroke="black" stroke-width="1"/>
<line x1="226.96152422706632" y1="193.9230484541324" x2="236.96152422706632" y2="193.9230484541324" stroke="black" stroke-width="1"/>
<line x1="236.96152422706632" y1="193.9230484541324" x2="245.62177826491072" y2="188.9230484541324" stroke="black" stroke-width="1"/>
<line x1="245.62177826491072" y1="188.9230484541324" x2="255.62177826491072" y2="188.9230484541324" stroke="black" stroke-width="1"/>
<line x1="245.62177826491072" y1="188.9230484541324" x2="254.2820323027551" y2="183.9230484541324" stroke="black" stroke-width="1"/>
<line x1="236.96152422706632" y1="193.9230484541324" x2="246.96152422706632" y2="193.9230484541324" stroke="black" stroke-width="1"/>
<line x1="246.96152422706632" y1="193.9230484541324" x2="255.62177826491072" y2="198.9230484541324" stroke="black" stroke-width="1"/>
<line x1="246.96152422706632" y1="193.9230484541324" x2="256.9615242270663" y2="193.9230484541324" stroke="black" stroke-width="1"/>
<line x1="256.9615242270663" y1="193.9230484541324" x2="265.62177826491074" y2="188.9230484541324" stroke="black" stroke-width="1"/>
<line x1="256.9615242270663" y1="193.9230484541324" x2="266.9615242270663" y2="193.9230484541324" stroke="black" stroke-width="1"/>
<line x1="186.96152422706632" y1="193.9230484541324" x2="195.62177826491072" y2="188.9230484541324" stroke="black" stroke-width="1"/>
<line x1="195.62177826491072" y1="188.9230484541324" x2="200.62177826491072" y2="180.26279441628805" stroke="black" stroke-width="1"/>
<line x1="195.62177826491072" y1="188.9230484541324" x2="204.2820323027551" y2="183.9230484541324" stroke="black" stroke-width="1"/>
<line x1="204.2820323027551" y1="183.9230484541324" x2="209.2820323027551" y2="175.26279441628805" stroke="black" stroke-width="1"/>
<line x1="209.2820323027551" y1="175.26279441628805" x2="209.2820323027551" y2="165.26279441628805" stroke="black" stroke-width="1"/>
<line x1="209.2820323027551" y1="175.26279441628805" x2="214.2820323027551" y2="166.60254037844368" stroke="black" stroke-width="1"/>
<line x1="204.2820323027551" y1="183.9230484541324" x2="212.9422863405995" y2="178.9230484541324" stroke="black" stroke-width="1"/>
<line x1="212.9422863405995" y1="178.9230484541324" x2="217.9422863405995" y2="170.26279441628805" stroke="black" stroke-width="1"/>
<line x1="212.9422863405995" y1="178.9230484541324" x2="221.6025403784439" y2="173.9230484541324" stroke="black" stroke-width="1"/>
<line x1="221.6025403784439" y1="173.9230484541324" x2="226.6025403784439" y2="165.26279441628805" stroke="black" stroke-width="1"/>
<line x1="226.6025403784439" y1="165.26279441628805" x2="226.6025403784439" y2="155.26279441628805" stroke="black" stroke-width="1"/>
<line x1="226.6025403784439" y1="165.26279441628805" x2="231.6025403784439" y2="156.60254037844368" stroke="black" stroke-width="1"/>
<line x1="231.6025403784439" y1="156.60254037844368" x2="240.2627944162883" y2="151.60254037844368" stroke="black" stroke-width="1"/>
<line x1="240.2627944162883" y1="151.60254037844368" x2="250.2627944162883" y2="151.60254037844368" stroke="black" stroke-width="1"/>
<line x1="240.2627944162883" y1="151.60254037844368" x2="248.9230484541327" y2="146.60254037844368" stroke="black" stroke-width="1"/>
<line x1="248.9230484541327" y1="146.60254037844368" x2="253.9230484541327" y2="137.9422863405993" stroke="black" stroke-width="1"/>
<line x1="248.9230484541327" y1="146.60254037844368" x2="257.58330249197707" y2="141.60254037844368" stroke="black" stroke-width="1"/>
<line x1="231.6025403784439" y1="156.60254037844368" x2="236.6025403784439" y2="147.9422863405993" stroke="black" stroke-width="1"/>
<line x1="236.6025403784439" y1="147.9422863405993" x2="245.2627944162883" y2="142.9422863405993" stroke="black" stroke-width="1"/>
<line x1="236.6025403784439" y1="147.9422863405993" x2="241.6025403784439" y2="139.28203230275494" stroke="black" stroke-width="1"/>
<line x1="241.6025403784439" y1="139.28203230275494" x2="241.6025403784439" y2="129.28203230275494" stroke="black" stroke-width="1"/>
<line x1="241.6025403784439" y1="139.28203230275494" x2="246.6025403784439" y2="130.62177826491057" stroke="black" stroke-width="1"/>
<line x1="221.6025403784439" y1="173.9230484541324" x2="230.2627944162883" y2="168.9230484541324" stroke="black" stroke-width="1"/>
<line x1="230.2627944162883" y1="168.9230484541324" x2="235.2627944162883" y2="160.26279441628805" stroke="black" stroke-width="1"/>
<line x1="230.2627944162883" y1="168.9230484541324" x2="238.9230484541327" y2="163.9230484541324" stroke="black" stroke-width="1"/>
<line x1="238.9230484541327" y1="163.9230484541324" x2="243.9230484541327" y2="155.26279441628805" stroke="black" stroke-width="1"/>
<line x1="243.9230484541327" y1="155.26279441628805" x2="252.5833024919771" y2="150.26279441628805" stroke="black" stroke-width="1"/>
<line x1="243.9230484541327" y1="155.26279441628805" x2="248.9230484541327" y2="146.60254037844368" stroke="black" stroke-width="1"/>
<line x1="238.9230484541327" y1="163.9230484541324" x2="247.5833024919771" y2="158.9230484541324" stroke="black" stroke-width="1"/>
<line x1="247.5833024919771" y1="158.9230484541324" x2="257.58330249197707" y2="158.9230484541324" stroke="black" stroke-width="1"/>
<line x1="247.5833024919771" y1="158.9230484541324" x2="256.2435565298215" y2="153.9230484541324" stroke="black" stroke-width="1"/>
<line x1="256.2435565298215" y1="153.9230484541324" x2="261.2435565298215" y2="145.26279441628805" stroke="black" stroke-width="1"/>
<line x1="256.2435565298215" y1="153.9230484541324" x2="264.9038105676659" y2="148.9230484541324" stroke="black" stroke-width="1"/>
<line x1="152.3205080756888" y1="213.9230484541324" x2="157.3205080756888" y2="205.26279441628805" stroke="black" stroke-width="1"/>
<line x1="157.3205080756888" y1="205.26279441628805" x2="165.98076211353316" y2="200.26279441628805" stroke="black" stroke-width="1"/>
<line x1="157.3205080756888" y1="205.26279441628805" x2="162.3205080756888" y2="196.60254037844368" stroke="black" stroke-width="1"/>
<line x1="162.3205080756888" y1="196.60254037844368" x2="162.3205080756888" y2="186.60254037844368" stroke="black" stroke-width="1"/>
<line x1="162.3205080756888" y1="186.60254037844368" x2="157.3205080756888" y2="177.9422863405993" stroke="black" stroke-width="1"/>
<line x1="162.3205080756888" y1="186.60254037844368" x2="162.3205080756888" y2="176.60254037844368" stroke="black" stroke-width="1"/>
<line x1="162.3205080756888" y1="196.60254037844368" x2="167.3205080756888" y2="187.9422863405993" stroke="black" stroke-width="1"/>
<line x1="167.3205080756888" y1="187.9422863405993" x2="175.98076211353316" y2="182.9422863405993" stroke="black" stroke-width="1"/>
<line x1="167.3205080756888" y1="187.9422863405993" x2="172.3205080756888" y2="179.28203230275494" stroke="black" stroke-width="1"/>
<line x1="172.3205080756888" y1="179.28203230275494" x2="180.98076211353316" y2="174.28203230275494" stroke="black" stroke-width="1"/>
<line x1="180.98076211353316" y1="174.28203230275494" x2="185.98076211353316" y2="165.62177826491057" stroke="black" stroke-width="1"/>
<line x1="180.98076211353316" y1="174.28203230275494" x2="189.64101615137756" y2="169.28203230275494" stroke="black" stroke-width="1"/>
<line x1="189.64101615137756" y1="169.28203230275494" x2="199.64101615137756" y2="169.28203230275494" stroke="black" stroke-width="1"/>
<line x1="199.64101615137756" y1="169.28203230275494" x2="208.30127018922195" y2="174.28203230275494" stroke="black" stroke-width="1"/>
<line x1="199.64101615137756" y1="169.28203230275494" x2="209.64101615137756" y2="169.28203230275494" stroke="black" stroke-width="1"/>
<line x1="209.64101615137756" y1="169.28203230275494" x2="218.30127018922195" y2="164.28203230275494" stroke="black" stroke-width="1"/>
<line x1="209.64101615137756" y1="169.28203230275494" x2="219.64101615137756" y2="169.28203230275494" stroke="black" stroke-width="1"/>
<line x1="189.64101615137756" y1="169.28203230275494" x2="198.30127018922195" y2="164.28203230275494" stroke="black" stroke-width="1"/>
<line x1="198.30127018922195" y1="164.28203230275494" x2="203.30127018922195" y2="155.62177826491057" stroke="black" stroke-width="1"/>
<line x1="198.30127018922195" y1="164.28203230275494" x2="206.96152422706635" y2="159.28203230275494" stroke="black" stroke-width="1"/>
<line x1="172.3205080756888" y1="179.28203230275494" x2="177.3205080756888" y2="170.62177826491057" stroke="black" stroke-width="1"/>
<line x1="177.3205080756888" y1="170.62177826491057" x2="177.3205080756888" y2="160.62177826491057" stroke="black" stroke-width="1"/>
<line x1="177.3205080756888" y1="170.62177826491057" x2="182.3205080756888" y2="161.9615242270662" stroke="black" stroke-width="1"/>
<line x1="182.3205080756888" y1="161.9615242270662" x2="190.98076211353316" y2="156.9615242270662" stroke="black" stroke-width="1"/>
<line x1="190.98076211353316" y1="156.9615242270662" x2="195.98076211353316" y2="148.30127018922184" stroke="black" stroke-width="1"/>
<line x1="190.98076211353316" y1="156.9615242270662" x2="199.64101615137756" y2="151.9615242270662" stroke="black" stroke-width="1"/>
<line x1="182.3205080756888" y1="161.9615242270662" x2="187.32050807568876" y2="153.30127018922184" stroke="black" stroke-width="1"/>
<line x1="187.32050807568876" y1="153.30127018922184" x2="195.98076211353316" y2="148.30127018922184" stroke="black" stroke-width="1"/>
<line x1="187.32050807568876" y1="153.30127018922184" x2="192.32050807568876" y2="144.64101615137747" stroke="black" stroke-width="1"/>
<line x1="192.32050807568876" y1="144.64101615137747" x2="192.32050807568876" y2="134.64101615137747" stroke="black" stroke-width="1"/>
<line x1="192.32050807568876" y1="144.64101615137747" x2="197.32050807568876" y2="135.9807621135331" stroke="black" stroke-width="1"/>
<line x1="197.32050807568876" y1="135.9807621135331" x2="197.32050807568876" y2="125.9807621135331" stroke="black" stroke-width="1"/>
<line x1="197.32050807568876" y1="125.9807621135331" x2="192.32050807568876" y2="117.32050807568874" stroke="black" stroke-width="1"/>
<line x1="197.32050807568876" y1="125.9807621135331" x2="197.32050807568876" y2="115.9807621135331" stroke="black" stroke-width="1"/>
<line x1="197.32050807568876" y1="135.9807621135331" x2="202.32050807568876" y2="127.32050807568874" stroke="black" stroke-width="1"/>
<line x1="202.32050807568876" y1="127.32050807568874" x2="210.98076211353316" y2="122.32050807568874" stroke="black" stroke-width="1"/>
<line x1="202.32050807568876" y1="127.32050807568874" x2="207.32050807568876" y2="118.66025403784437" stroke="black" stroke-width="1"/>
<line x1="207.32050807568876" y1="118.66025403784437" x2="207.32050807568876" y2="108.66025403784437" stroke="black" stroke-width="1"/>
<line x1="207.32050807568876" y1="118.66025403784437" x2="212.32050807568876" y2="110.0" stroke="black" stroke-width="1"/>
<line x1="212.32050807568876" y1="110.0" x2="212.32050807568876" y2="100.0" stroke="black" stroke-width="1"/>
<line x1="212.32050807568876" y1="100.0" x2="217.32050807568876" y2="91.33974596215563" stroke="black" stroke-width="1"/>
<line x1="212.32050807568876" y1="100.0" x2="212.32050807568876" y2="90.0" stroke="black" stroke-width="1"/>
<line x1="212.32050807568876" y1="90.0" x2="207.32050807568876" y2="81.33974596215563" stroke="black" stroke-width="1"/>
<line x1="212.32050807568876" y1="90.0" x2="212.32050807568876" y2="80.0" stroke="black" stroke-width="1"/>
<line x1="212.32050807568876" y1="80.0" x2="207.32050807568876" y2="71.33974596215563" stroke="black" stroke-width="1"/>
<line x1="207.32050807568876" y1="71.33974596215563" x2="198.66025403784437" y2="66.33974596215563" stroke="black" stroke-width="1"/>
<line x1="207.32050807568876" y1="71.33974596215563" x2="202.32050807568876" y2="62.679491924311264" stroke="black" stroke-width="1"/>
<line x1="212.32050807568876" y1="80.0" x2="212.32050807568876" y2="70.0" stroke="black" stroke-width="1"/>
<line x1="212.32050807568876" y1="70.0" x2="217.32050807568876" y2="61.33974596215563" stroke="black" stroke-width="1"/>
<line x1="212.32050807568876" y1="70.0" x2="212.32050807568876" y2="60.0" stroke="black" stroke-width="1"/>
<line x1="212.32050807568876" y1="60.0" x2="217.32050807568876" y2="51.33974596215563" stroke="black" stroke-width="1"/>
<line x1="217.32050807568876" y1="51.33974596215563" x2="225.98076211353316" y2="46.33974596215563" stroke="black" stroke-width="1"/>
<line x1="217.32050807568876" y1="51.33974596215563" x2="222.32050807568876" y2="42.679491924311264" stroke="black" stroke-width="1"/>
<line x1="222.32050807568876" y1="42.679491924311264" x2="230.98076211353316" y2="37.679491924311264" stroke="black" stroke-width="1"/>
<line x1="230.98076211353316" y1="37.679491924311264" x2="235.98076211353316" y2="29.01923788646684" stroke="black" stroke-width="1"/>
<line x1="230.98076211353316" y1="37.679491924311264" x2="239.64101615137756" y2="32.679491924311264" stroke="black" stroke-width="1"/>
<line x1="222.32050807568876" y1="42.679491924311264" x2="227.32050807568876" y2="34.01923788646684" stroke="black" stroke-width="1"/>
<line x1="227.32050807568876" y1="34.01923788646684" x2="227.32050807568876" y2="24.01923788646684" stroke="black" stroke-width="1"/>
<line x1="227.32050807568876" y1="34.01923788646684" x2="232.32050807568876" y2="25.358983848622415" stroke="black" stroke-width="1"/>
<line x1="212.32050807568876" y1="60.0" x2="212.32050807568876" y2="50.0" stroke="black" stroke-width="1"/>
<line x1="212.32050807568876" y1="50.0" x2="217.32050807568876" y2="41.33974596215563" stroke="black" stroke-width="1"/>
<line x1="212.32050807568876" y1="50.0" x2="212.32050807568876" y2="40.0" stroke="black" stroke-width="1"/>
<line x1="212.32050807568876" y1="40.0" x2="207.32050807568876" y2="31.339745962155575" stroke="black" stroke-width="1"/>
<line x1="212.32050807568876" y1="40.0" x2="212.32050807568876" y2="30.0" stroke="black" stroke-width="1"/>
<line x1="212.32050807568876" y1="30.0" x2="207.32050807568876" y2="21.339745962155575" stroke="black" stroke-width="1"/>
<line x1="207.32050807568876" y1="21.339745962155575" x2="207.32050807568876" y2="11.339745962155575" stroke="black" stroke-width="1"/>
<line x1="207.32050807568876" y1="21.339745962155575" x2="202.32050807568876" y2="12.67949192431115" stroke="black" stroke-width="1"/>
<line x1="202.32050807568876" y1="12.67949192431115" x2="193.66025403784437" y2="7.679491924311151" stroke="black" stroke-width="1"/>
<line x1="202.32050807568876" y1="12.67949192431115" x2="197.32050807568876" y2="4.019237886466726" stroke="black" stroke-width="1"/>
<line x1="212.32050807568876" y1="30.0" x2="212.32050807568876" y2="20.0" stroke="black" stroke-width="1"/>
<line x1="212.32050807568876" y1="20.0" x2="217.32050807568876" y2="11.339745962155575" stroke="black" stroke-width="1"/>
<line x1="212.32050807568876" y1="20.0" x2="212.32050807568876" y2="10.0" stroke="black" stroke-width="1"/>
<line x1="212.32050807568876" y1="10.0" x2="207.32050807568876" y2="1.3397459621555754" stroke="black" stroke-width="1"/>
<line x1="212.32050807568876" y1="10.0" x2="212.32050807568876" y2="0.0" stroke="black" stroke-width="1"/>
<line x1="212.32050807568876" y1="110.0" x2="217.32050807568876" y2="101.33974596215563" stroke="black" stroke-width="1"/>
<line x1="217.32050807568876" y1="101.33974596215563" x2="225.98076211353316" y2="96.33974596215563" stroke="black" stroke-width="1"/>
<line x1="217.32050807568876" y1="101.33974596215563" x2="222.32050807568876" y2="92.67949192431126" stroke="black" stroke-width="1"/>
<line x1="222.32050807568876" y1="92.67949192431126" x2="230.98076211353316" y2="87.67949192431126" stroke="black" stroke-width="1"/>
<line x1="230.98076211353316" y1="87.67949192431126" x2="235.98076211353316" y2="79.0192378864669" stroke="black" stroke-width="1"/>
<line x1="230.98076211353316" y1="87.67949192431126" x2="239.64101615137756" y2="82.67949192431126" stroke="black" stroke-width="1"/>
<line x1="222.32050807568876" y1="92.67949192431126" x2="227.32050807568876" y2="84.0192378864669" stroke="black" stroke-width="1"/>
<line x1="227.32050807568876" y1="84.0192378864669" x2="227.32050807568876" y2="74.0192378864669" stroke="black" stroke-width="1"/>
<line x1="227.32050807568876" y1="84.0192378864669" x2="232.32050807568876" y2="75.35898384862253" stroke="black" stroke-width="1"/>
<line x1="232.32050807568876" y1="75.35898384862253" x2="232.32050807568876" y2="65.35898384862253" stroke="black" stroke-width="1"/>
<line x1="232.32050807568876" y1="65.35898384862253" x2="227.32050807568876" y2="56.69872981077816" stroke="black" stroke-width="1"/>
<line x1="232.32050807568876" y1="65.35898384862253" x2="232.32050807568876" y2="55.35898384862253" stroke="black" stroke-width="1"/>
<line x1="232.32050807568876" y1="75.35898384862253" x2="237.32050807568876" y2="66.69872981077816" stroke="black" stroke-width="1"/>
<line x1="237.32050807568876" y1="66.69872981077816" x2="237.32050807568876" y2="56.69872981077816" stroke="black" stroke-width="1"/>
<line x1="237.32050807568876" y1="66.69872981077816" x2="242.32050807568876" y2="58.03847577293379" stroke="black" stroke-width="1"/>
<line x1="242.32050807568876" y1="58.03847577293379" x2="250.98076211353316" y2="53.03847577293379" stroke="black" stroke-width="1"/>
<line x1="250.98076211353316" y1="53.03847577293379" x2="255.98076211353316" y2="44.378221735089426" stroke="black" stroke-width="1"/>
<line x1="250.98076211353316" y1="53.03847577293379" x2="259.6410161513776" y2="48.03847577293379" stroke="black" stroke-width="1"/>
<line x1="259.6410161513776" y1="48.03847577293379" x2="269.6410161513776" y2="48.03847577293379" stroke="black" stroke-width="1"/>
<line x1="269.6410161513776" y1="48.03847577293379" x2="278.30127018922195" y2="53.03847577293379" stroke="black" stroke-width="1"/>
<line x1="269.6410161513776" y1="48.03847577293379" x2="279.6410161513776" y2="48.03847577293379" stroke="black" stroke-width="1"/>
<line x1="259.6410161513776" y1="48.03847577293379" x2="268.30127018922195" y2="43.03847577293379" stroke="black" stroke-width="1"/>
<line x1="268.30127018922195" y1="43.03847577293379" x2="273.30127018922195" y2="34.37822173508937" stroke="black" stroke-width="1"/>
<line x1="268.30127018922195" y1="43.03847577293379" x2="276.9615242270663" y2="38.03847577293379" stroke="black" stroke-width="1"/>
<line x1="242.32050807568876" y1="58.03847577293379" x2="247.32050807568876" y2="49.378221735089426" stroke="black" stroke-width="1"/>
<line x1="247.32050807568876" y1="49.378221735089426" x2="255.98076211353316" y2="44.378221735089426" stroke="black" stroke-width="1"/>
<line x1="247.32050807568876" y1="49.378221735089426" x2="252.32050807568876" y2="40.71796769724506" stroke="black" stroke-width="1"/>
<line x1="252.32050807568876" y1="40.71796769724506" x2="252.32050807568876" y2="30.717967697245058" stroke="black" stroke-width="1"/>
<line x1="252.32050807568876" y1="40.71796769724506" x2="257.32050807568874" y2="32.05771365940063" stroke="black" stroke-width="1"/>
<line x1="257.32050807568874" y1="32.05771365940063" x2="257.32050807568874" y2="22.057713659400633" stroke="black" stroke-width="1"/>
<line x1="257.32050807568874" y1="22.057713659400633" x2="262.32050807568874" y2="13.397459621556209" stroke="black" stroke-width="1"/>
<line x1="257.32050807568874" y1="22.057713659400633" x2="257.32050807568874" y2="12.057713659400633" stroke="black" stroke-width="1"/>
<line x1="257.32050807568874" y1="32.05771365940063" x2="262.32050807568874" y2="23.39745962155621" stroke="black" stroke-width="1"/>
<line x1="262.32050807568874" y1="23.39745962155621" x2="270.98076211353316" y2="18.39745962155621" stroke="black" stroke-width="1"/>
<line x1="262.32050807568874" y1="23.39745962155621" x2="267.32050807568874" y2="14.737205583711784" stroke="black" stroke-width="1"/>
<line x1="57.32050807568879" y1="378.4678751731757" x2="57.32050807568879" y2="368.4678751731757" stroke="black" stroke-width="1"/>
<line x1="57.32050807568879" y1="368.4678751731757" x2="62.32050807568879" y2="359.80762113533126" stroke="black" stroke-width="1"/>
<line x1="57.32050807568879" y1="368.4678751731757" x2="57.32050807568879" y2="358.4678751731757" stroke="black" stroke-width="1"/>
<line x1="57.32050807568879" y1="358.4678751731757" x2="52.320508075688785" y2="349.80762113533126" stroke="black" stroke-width="1"/>
<line x1="52.320508075688785" y1="349.80762113533126" x2="43.6602540378444" y2="344.80762113533126" stroke="black" stroke-width="1"/>
<line x1="52.320508075688785" y1="349.80762113533126" x2="47.320508075688785" y2="341.1473670974869" stroke="black" stroke-width="1"/>
<line x1="57.32050807568879" y1="358.4678751731757" x2="57.32050807568879" y2="348.4678751731757" stroke="black" stroke-width="1"/>
<line x1="57.32050807568879" y1="348.4678751731757" x2="62.32050807568879" y2="339.80762113533126" stroke="black" stroke-width="1"/>
<line x1="57.32050807568879" y1="348.4678751731757" x2="57.32050807568879" y2="338.4678751731757" stroke="black" stroke-width="1"/>
<line x1="57.32050807568879" y1="338.4678751731757" x2="52.320508075688785" y2="329.80762113533126" stroke="black" stroke-width="1"/>
<line x1="57.32050807568879" y1="338.4678751731757" x2="57.32050807568879" y2="328.4678751731757" stroke="black" stroke-width="1"/>
<line x1="57.32050807568879" y1="328.4678751731757" x2="52.320508075688785" y2="319.80762113533126" stroke="black" stroke-width="1"/>
<line x1="52.320508075688785" y1="319.80762113533126" x2="43.6602540378444" y2="314.80762113533126" stroke="black" stroke-width="1"/>
<line x1="52.320508075688785" y1="319.80762113533126" x2="47.320508075688785" y2="311.1473670974869" stroke="black" stroke-width="1"/>
<line x1="47.320508075688785" y1="311.1473670974869" x2="47.320508075688785" y2="301.1473670974869" stroke="black" stroke-width="1"/>
<line x1="47.320508075688785" y1="301.1473670974869" x2="52.320508075688785" y2="292.4871130596425" stroke="black" stroke-width="1"/>
<line x1="47.320508075688785" y1="301.1473670974869" x2="47.320508075688785" y2="291.1473670974869" stroke="black" stroke-width="1"/>
<line x1="47.320508075688785" y1="311.1473670974869" x2="42.32050807568878" y2="302.4871130596425" stroke="black" stroke-width="1"/>
<line x1="42.32050807568878" y1="302.4871130596425" x2="42.32050807568878" y2="292.4871130596425" stroke="black" stroke-width="1"/>
<line x1="42.32050807568878" y1="302.4871130596425" x2="37.32050807568878" y2="293.8268590217981" stroke="black" stroke-width="1"/>
<line x1="37.32050807568878" y1="293.8268590217981" x2="28.66025403784439" y2="288.8268590217981" stroke="black" stroke-width="1"/>
<line x1="37.32050807568878" y1="293.8268590217981" x2="32.32050807568877" y2="285.16660498395373" stroke="black" stroke-width="1"/>
<line x1="57.32050807568879" y1="328.4678751731757" x2="57.32050807568879" y2="318.4678751731757" stroke="black" stroke-width="1"/>
<line x1="57.32050807568879" y1="318.4678751731757" x2="62.32050807568879" y2="309.80762113533126" stroke="black" stroke-width="1"/>
<line x1="57.32050807568879" y1="318.4678751731757" x2="57.32050807568879" y2="308.4678751731757" stroke="black" stroke-width="1"/>
<line x1="57.32050807568879" y1="308.4678751731757" x2="52.320508075688785" y2="299.80762113533126" stroke="black" stroke-width="1"/>
<line x1="57.32050807568879" y1="308.4678751731757" x2="57.32050807568879" y2="298.4678751731757" stroke="black" stroke-width="1"/>
<line x1="57.32050807568879" y1="298.4678751731757" x2="62.32050807568879" y2="289.8076211353313" stroke="black" stroke-width="1"/>
<line x1="62.32050807568879" y1="289.8076211353313" x2="62.32050807568879" y2="279.8076211353313" stroke="black" stroke-width="1"/>
<line x1="62.32050807568879" y1="289.8076211353313" x2="67.32050807568879" y2="281.14736709748695" stroke="black" stroke-width="1"/>
<line x1="57.32050807568879" y1="298.4678751731757" x2="57.32050807568879" y2="288.4678751731757" stroke="black" stroke-width="1"/>
<line x1="57.32050807568879" y1="288.4678751731757" x2="62.32050807568879" y2="279.8076211353313" stroke="black" stroke-width="1"/>
<line x1="57.32050807568879" y1="288.4678751731757" x2="57.32050807568879" y2="278.4678751731757" stroke="black" stroke-width="1"/>
<line x1="57.32050807568879" y1="278.4678751731757" x2="52.320508075688785" y2="269.8076211353313" stroke="black" stroke-width="1"/>
<line x1="57.32050807568879" y1="278.4678751731757" x2="57.32050807568879" y2="268.4678751731757" stroke="black" stroke-width="1"/>
<line x1="57.32050807568879" y1="268.4678751731757" x2="62.32050807568879" y2="259.8076211353313" stroke="black" stroke-width="1"/>
<line x1="62.32050807568879" y1="259.8076211353313" x2="62.32050807568879" y2="249.80762113533132" stroke="black" stroke-width="1"/>
<line x1="62.32050807568879" y1="259.8076211353313" x2="67.32050807568879" y2="251.14736709748695" stroke="black" stroke-width="1"/>
<line x1="67.32050807568879" y1="251.14736709748695" x2="75.98076211353317" y2="246.14736709748695" stroke="black" stroke-width="1"/>
<line x1="75.98076211353317" y1="246.14736709748695" x2="85.98076211353317" y2="246.14736709748695" stroke="black" stroke-width="1"/>
<line x1="75.98076211353317" y1="246.14736709748695" x2="84.64101615137756" y2="241.14736709748695" stroke="black" stroke-width="1"/>
<line x1="67.32050807568879" y1="251.14736709748695" x2="72.32050807568879" y2="242.48711305964258" stroke="black" stroke-width="1"/>
<line x1="72.32050807568879" y1="242.48711305964258" x2="80.98076211353317" y2="237.48711305964258" stroke="black" stroke-width="1"/>
<line x1="72.32050807568879" y1="242.48711305964258" x2="77.32050807568879" y2="233.8268590217982" stroke="black" stroke-width="1"/>
<line x1="77.32050807568879" y1="233.8268590217982" x2="77.32050807568879" y2="223.8268590217982" stroke="black" stroke-width="1"/>
<line x1="77.32050807568879" y1="223.8268590217982" x2="82.32050807568879" y2="215.16660498395385" stroke="black" stroke-width="1"/>
<line x1="77.32050807568879" y1="223.8268590217982" x2="77.32050807568879" y2="213.8268590217982" stroke="black" stroke-width="1"/>
<line x1="77.32050807568879" y1="213.8268590217982" x2="72.32050807568879" y2="205.16660498395385" stroke="black" stroke-width="1"/>
<line x1="77.32050807568879" y1="213.8268590217982" x2="77.32050807568879" y2="203.8268590217982" stroke="black" stroke-width="1"/>
<line x1="77.32050807568879" y1="233.8268590217982" x2="82.32050807568879" y2="225.16660498395385" stroke="black" stroke-width="1"/>
<line x1="82.32050807568879" y1="225.16660498395385" x2="82.32050807568879" y2="215.16660498395385" stroke="black" stroke-width="1"/>
<line x1="82.32050807568879" y1="225.16660498395385" x2="87.32050807568879" y2="216.50635094610948" stroke="black" stroke-width="1"/>
<line x1="87.32050807568879" y1="216.50635094610948" x2="95.98076211353317" y2="211.50635094610948" stroke="black" stroke-width="1"/>
<line x1="95.98076211353317" y1="211.50635094610948" x2="105.98076211353317" y2="211.50635094610948" stroke="black" stroke-width="1"/>
<line x1="95.98076211353317" y1="211.50635094610948" x2="104.64101615137756" y2="206.50635094610948" stroke="black" stroke-width="1"/>
<line x1="104.64101615137756" y1="206.50635094610948" x2="109.64101615137756" y2="197.8460969082651" stroke="black" stroke-width="1"/>
<line x1="104.64101615137756" y1="206.50635094610948" x2="113.30127018922194" y2="201.50635094610948" stroke="black" stroke-width="1"/>
<line x1="113.30127018922194" y1="201.50635094610948" x2="123.30127018922194" y2="201.50635094610948" stroke="black" stroke-width="1"/>
<line x1="123.30127018922194" y1="201.50635094610948" x2="131.96152422706632" y2="206.50635094610948" stroke="black" stroke-width="1"/>
<line x1="123.30127018922194" y1="201.50635094610948" x2="133.30127018922195" y2="201.50635094610948" stroke="black" stroke-width="1"/>
<line x1="113.30127018922194" y1="201.50635094610948" x2="121.96152422706632" y2="196.50635094610948" stroke="black" stroke-width="1"/>
<line x1="121.96152422706632" y1="196.50635094610948" x2="126.96152422706632" y2="187.8460969082651" stroke="black" stroke-width="1"/>
<line x1="121.96152422706632" y1="196.50635094610948" x2="130.6217782649107" y2="191.50635094610948" stroke="black" stroke-width="1"/>
<line x1="87.32050807568879" y1="216.50635094610948" x2="92.32050807568879" y2="207.8460969082651" stroke="black" stroke-width="1"/>
<line x1="92.32050807568879" y1="207.8460969082651" x2="100.98076211353317" y2="202.8460969082651" stroke="black" stroke-width="1"/>
<line x1="92.32050807568879" y1="207.8460969082651" x2="97.32050807568879" y2="199.18584287042074" stroke="black" stroke-width="1"/>
<line x1="97.32050807568879" y1="199.18584287042074" x2="97.32050807568879" y2="189.18584287042074" stroke="black" stroke-width="1"/>
<line x1="97.32050807568879" y1="199.18584287042074" x2="102.32050807568879" y2="190.52558883257637" stroke="black" stroke-width="1"/>
<line x1="102.32050807568879" y1="190.52558883257637" x2="102.32050807568879" y2="180.52558883257637" stroke="black" stroke-width="1"/>
<line x1="102.32050807568879" y1="180.52558883257637" x2="97.32050807568878" y2="171.865334794732" stroke="black" stroke-width="1"/>
<line x1="102.32050807568879" y1="180.52558883257637" x2="102.32050807568879" y2="170.52558883257637" stroke="black" stroke-width="1"/>
<line x1="102.32050807568879" y1="190.52558883257637" x2="107.32050807568879" y2="181.865334794732" stroke="black" stroke-width="1"/>
<line x1="107.32050807568879" y1="181.865334794732" x2="107.32050807568879" y2="171.865334794732" stroke="black" stroke-width="1"/>
<line x1="107.32050807568879" y1="181.865334794732" x2="112.32050807568879" y2="173.20508075688764" stroke="black" stroke-width="1"/>
<line x1="112.32050807568879" y1="173.20508075688764" x2="112.32050807568879" y2="163.20508075688764" stroke="black" stroke-width="1"/>
<line x1="112.32050807568879" y1="163.20508075688764" x2="117.32050807568879" y2="154.54482671904327" stroke="black" stroke-width="1"/>
<line x1="112.32050807568879" y1="163.20508075688764" x2="112.32050807568879" y2="153.20508075688764" stroke="black" stroke-width="1"/>
<line x1="112.32050807568879" y1="153.20508075688764" x2="107.32050807568878" y2="144.54482671904327" stroke="black" stroke-width="1"/>
<line x1="107.32050807568878" y1="144.54482671904327" x2="98.6602540378444" y2="139.54482671904327" stroke="black" stroke-width="1"/>
<line x1="107.32050807568878" y1="144.54482671904327" x2="102.32050807568876" y2="135.8845726811989" stroke="black" stroke-width="1"/>
<line x1="112.32050807568879" y1="153.20508075688764" x2="112.32050807568879" y2="143.20508075688764" stroke="black" stroke-width="1"/>
<line x1="112.32050807568879" y1="143.20508075688764" x2="117.32050807568879" y2="134.54482671904327" stroke="black" stroke-width="1"/>
<line x1="112.32050807568879" y1="143.20508075688764" x2="112.32050807568879" y2="133.20508075688764" stroke="black" stroke-width="1"/>
<line x1="112.32050807568879" y1="173.20508075688764" x2="117.32050807568879" y2="164.54482671904327" stroke="black" stroke-width="1"/>
<line x1="117.32050807568879" y1="164.54482671904327" x2="125.98076211353317" y2="159.54482671904327" stroke="black" stroke-width="1"/>
<line x1="117.32050807568879" y1="164.54482671904327" x2="122.32050807568878" y2="155.8845726811989" stroke="black" stroke-width="1"/>
<line x1="122.32050807568878" y1="155.8845726811989" x2="122.32050807568878" y2="145.8845726811989" stroke="black" stroke-width="1"/>
<line x1="122.32050807568878" y1="145.8845726811989" x2="127.32050807568878" y2="137.22431864335454" stroke="black" stroke-width="1"/>
<line x1="122.32050807568878" y1="145.8845726811989" x2="122.32050807568878" y2="135.8845726811989" stroke="black" stroke-width="1"/>
<line x1="122.32050807568878" y1="155.8845726811989" x2="127.32050807568878" y2="147.22431864335454" stroke="black" stroke-width="1"/>
<line x1="127.32050807568878" y1="147.22431864335454" x2="127.32050807568878" y2="137.22431864335454" stroke="black" stroke-width="1"/>
<line x1="127.32050807568878" y1="147.22431864335454" x2="132.3205080756888" y2="138.56406460551017" stroke="black" stroke-width="1"/>
<line x1="57.32050807568879" y1="268.4678751731757" x2="57.32050807568879" y2="258.4678751731757" stroke="black" stroke-width="1"/>
<line x1="57.32050807568879" y1="258.4678751731757" x2="52.320508075688785" y2="249.80762113533132" stroke="black" stroke-width="1"/>
<line x1="57.32050807568879" y1="258.4678751731757" x2="57.32050807568879" y2="248.46787517317568" stroke="black" stroke-width="1"/>
<line x1="57.32050807568879" y1="248.46787517317568" x2="52.320508075688785" y2="239.80762113533132" stroke="black" stroke-width="1"/>
<line x1="52.320508075688785" y1="239.80762113533132" x2="43.6602540378444" y2="234.80762113533132" stroke="black" stroke-width="1"/>
<line x1="52.320508075688785" y1="239.80762113533132" x2="47.320508075688785" y2="231.14736709748695" stroke="black" stroke-width="1"/>
<line x1="57.32050807568879" y1="248.46787517317568" x2="57.32050807568879" y2="238.46787517317568" stroke="black" stroke-width="1"/>
<line x1="57.32050807568879" y1="238.46787517317568" x2="52.320508075688785" y2="229.80762113533132" stroke="black" stroke-width="1"/>
<line x1="57.32050807568879" y1="238.46787517317568" x2="57.32050807568879" y2="228.46787517317568" stroke="black" stroke-width="1"/>
<line x1="57.32050807568879" y1="228.46787517317568" x2="62.32050807568879" y2="219.80762113533132" stroke="black" stroke-width="1"/>
<line x1="62.32050807568879" y1="219.80762113533132" x2="62.32050807568879" y2="209.80762113533132" stroke="black" stroke-width="1"/>
<line x1="62.32050807568879" y1="219.80762113533132" x2="67.32050807568879" y2="211.14736709748695" stroke="black" stroke-width="1"/>
<line x1="67.32050807568879" y1="211.14736709748695" x2="75.98076211353317" y2="206.14736709748695" stroke="black" stroke-width="1"/>
<line x1="75.98076211353317" y1="206.14736709748695" x2="85.98076211353317" y2="206.14736709748695" stroke="black" stroke-width="1"/>
<line x1="75.98076211353317" y1="206.14736709748695" x2="84.64101615137756" y2="201.14736709748695" stroke="black" stroke-width="1"/>
<line x1="84.64101615137756" y1="201.14736709748695" x2="89.64101615137756" y2="192.48711305964258" stroke="black" stroke-width="1"/>
<line x1="84.64101615137756" y1="201.14736709748695" x2="93.30127018922195" y2="196.14736709748695" stroke="black" stroke-width="1"/>
<line x1="67.32050807568879" y1="211.14736709748695" x2="72.32050807568879" y2="202.48711305964258" stroke="black" stroke-width="1"/>
<line x1="72.32050807568879" y1="202.48711305964258" x2="72.32050807568879" y2="192.48711305964258" stroke="black" stroke-width="1"/>
<line x1="72.32050807568879" y1="202.48711305964258" x2="77.32050807568879" y2="193.8268590217982" stroke="black" stroke-width="1"/>
<line x1="77.32050807568879" y1="193.8268590217982" x2="77.32050807568879" y2="183.8268590217982" stroke="black" stroke-width="1"/>
<line x1="77.32050807568879" y1="183.8268590217982" x2="72.32050807568879" y2="175.16660498395385" stroke="black" stroke-width="1"/>
<line x1="77.32050807568879" y1="183.8268590217982" x2="77.32050807568879" y2="173.8268590217982" stroke="black" stroke-width="1"/>
<line x1="77.32050807568879" y1="193.8268590217982" x2="82.32050807568879" y2="185.16660498395385" stroke="black" stroke-width="1"/>
<line x1="82.32050807568879" y1="185.16660498395385" x2="90.98076211353317" y2="180.16660498395385" stroke="black" stroke-width="1"/>
<line x1="82.32050807568879" y1="185.16660498395385" x2="87.32050807568879" y2="176.50635094610948" stroke="black" stroke-width="1"/>
<line x1="87.32050807568879" y1="176.50635094610948" x2="87.32050807568879" y2="166.50635094610948" stroke="black" stroke-width="1"/>
<line x1="87.32050807568879" y1="176.50635094610948" x2="92.32050807568879" y2="167.8460969082651" stroke="black" stroke-width="1"/>
<line x1="57.32050807568879" y1="228.46787517317568" x2="57.32050807568879" y2="218.46787517317568" stroke="black" stroke-width="1"/>
<line x1="57.32050807568879" y1="218.46787517317568" x2="62.32050807568879" y2="209.80762113533132" stroke="black" stroke-width="1"/>
<line x1="57.32050807568879" y1="218.46787517317568" x2="57.32050807568879" y2="208.46787517317568" stroke="black" stroke-width="1"/>
<line x1="57.32050807568879" y1="208.46787517317568" x2="62.32050807568879" y2="199.80762113533132" stroke="black" stroke-width="1"/>
<line x1="62.32050807568879" y1="199.80762113533132" x2="62.32050807568879" y2="189.80762113533132" stroke="black" stroke-width="1"/>
<line x1="62.32050807568879" y1="199.80762113533132" x2="67.32050807568879" y2="191.14736709748695" stroke="black" stroke-width="1"/>
<line x1="57.32050807568879" y1="208.46787517317568" x2="57.32050807568879" y2="198.46787517317568" stroke="black" stroke-width="1"/>
<line x1="57.32050807568879" y1="198.46787517317568" x2="62.32050807568879" y2="189.80762113533132" stroke="black" stroke-width="1"/>
<line x1="57.32050807568879" y1="198.46787517317568" x2="57.32050807568879" y2="188.46787517317568" stroke="black" stroke-width="1"/>
</svg>
