<svg width="255.56349186104046" height="287.78174593052023" xmlns="http://www.w3.org/2000/svg">
<line x1="127.78174593052023" y1="287.78174593052023" x2="127.78174593052023" y2="277.78174593052023" stroke="black" stroke-width="1"/>
<line x1="127.78174593052023" y1="277.78174593052023" x2="127.78174593052023" y2="267.78174593052023" stroke="black" stroke-width="1"/>
<line x1="127.78174593052023" y1="267.78174593052023" x2="127.78174593052023" y2="257.78174593052023" stroke="black" stroke-width="1"/>
<line x1="127.78174593052023" y1="257.78174593052023" x2="127.78174593052023" y2="247.78174593052023" stroke="black" stroke-width="1"/>
<line x1="127.78174593052023" y1="247.78174593052023" x2="127.78174593052023" y2="237.78174593052023" stroke="black" stroke-width="1"/>
<line x1="127.78174593052023" y1="237.78174593052023" x2="127.78174593052023" y2="227.78174593052023" stroke="black" stroke-width="1"/>
<line x1="127.78174593052023" y1="227.78174593052023" x2="127.78174593052023" y2="217.78174593052023" stroke="black" stroke-width="1"/>
<line x1="127.78174593052023" y1="217.78174593052023" x2="127.78174593052023" y2="207.78174593052023" stroke="black" stroke-width="1"/>
<line x1="127.78174593052023" y1="207.78174593052023" x2="127.78174593052023" y2="197.78174593052023" stroke="black" stroke-width="1"/>
<line x1="127.78174593052023" y1="197.78174593052023" x2="127.78174593052023" y2="187.78174593052023" stroke="black" stroke-width="1"/>
<line x1="127.78174593052023" y1="187.78174593052023" x2="127.78174593052023" y2="177.78174593052023" stroke="black" stroke-width="1"/>
<line x1="127.78174593052023" y1="177.78174593052023" x2="127.78174593052023" y2="167.78174593052023" stroke="black" stroke-width="1"/>
<line x1="127.78174593052023" y1="167.78174593052023" x2="127.78174593052023" y2="157.78174593052023" stroke="black" stroke-width="1"/>
<line x1="127.78174593052023" y1="157.78174593052023" x2="127.78174593052023" y2="147.78174593052023" stroke="black" stroke-width="1"/>
<line x1="127.78174593052023" y1="147.78174593052023" x2="127.78174593052023" y2="137.78174593052023" stroke="black" stroke-width="1"/>
<line x1="127.78174593052023" y1="137.78174593052023" x2="127.78174593052023" y2="127.78174593052023" stroke="black" stroke-width="1"/>
<line x1="127.78174593052023" y1="127.78174593052023" x2="134.8528137423857" y2="120.71067811865476" stroke="black" stroke-width="1"/>
<line x1="134.8528137423857" y1="120.71067811865476" x2="141.92388155425118" y2="113.63961030678928" stroke="black" stroke-width="1"/>
<line x1="141.92388155425118" y1="113.63961030678928" x2="148.99494936611666" y2="106.5685424949238" stroke="black" stroke-width="1"/>
<line x1="148.99494936611666" y1="106.5685424949238" x2="156.06601717798213" y2="99.49747468305833" stroke="black" stroke-width="1"/>
<line x1="156.06601717798213" y1="99.49747468305833" x2="163.1370849898476" y2="92.42640687119285" stroke="black" stroke-width="1"/>
<line x1="163.1370849898476" y1="92.42640687119285" x2="170.20815280171308" y2="85.35533905932738" stroke="black" stroke-width="1"/>
<line x1="170.20815280171308" y1="85.35533905932738" x2="177.27922061357856" y2="78.2842712474619" stroke="black" stroke-width="1"/>
<line x1="177.27922061357856" y1="78.2842712474619" x2="184.35028842544403" y2="71.21320343559643" stroke="black" stroke-width="1"/>
<line x1="184.35028842544403" y1="71.21320343559643" x2="194.35028842544403" y2="71.21320343559643" stroke="black" stroke-width="1"/>
<line x1="194.35028842544403" y1="71.21320343559643" x2="204.35028842544403" y2="71.21320343559643" stroke="black" stroke-width="1"/>
<line x1="204.35028842544403" y1="71.21320343559643" x2="214.35028842544403" y2="71.21320343559643" stroke="black" stroke-width="1"/>
<line x1="214.35028842544403" y1="71.21320343559643" x2="224.35028842544403" y2="71.21320343559643" stroke="black" stroke-width="1"/>
<line x1="224.35028842544403" y1="71.21320343559643" x2="231.4213562373095" y2="78.2842712474619" stroke="black" stroke-width="1"/>
<line x1="231.4213562373095" y1="78.2842712474619" x2="238.49242404917499" y2="85.35533905932738" stroke="black" stroke-width="1"/>
<line x1="238.49242404917499" y1="85.35533905932738" x2="238.49242404917499" y2="95.35533905932738" stroke="black" stroke-width="1"/>
<line x1="238.49242404917499" y1="95.35533905932738" x2="231.4213562373095" y2="102.42640687119285" stroke="black" stroke-width="1"/>
<line x1="238.49242404917499" y1="95.35533905932738" x2="245.56349186104046" y2="102.42640687119285" stroke="black" stroke-width="1"/>
<line x1="238.49242404917499" y1="85.35533905932738" x2="248.49242404917499" y2="85.35533905932738" stroke="black" stroke-width="1"/>
<line x1="248.49242404917499" y1="85.35533905932738" x2="255.56349186104046" y2="92.42640687119285" stroke="black" stroke-width="1"/>
<line x1="248.49242404917499" y1="85.35533905932738" x2="255.56349186104046" y2="78.2842712474619" stroke="black" stroke-width="1"/>
<line x1="224.35028842544403" y1="71.21320343559643" x2="231.4213562373095" y2="64.14213562373095" stroke="black" stroke-width="1"/>
<line x1="231.4213562373095" y1="64.14213562373095" x2="238.49242404917499" y2="57.071067811865476" stroke="black" stroke-width="1"/>
<line x1="238.49242404917499" y1="57.071067811865476" x2="248.49242404917499" y2="57.071067811865476" stroke="black" stroke-width="1"/>
<line x1="248.49242404917499" y1="57.071067811865476" x2="255.56349186104046" y2="64.14213562373095" stroke="black" stroke-width="1"/>
<line x1="248.49242404917499" y1="57.071067811865476" x2="255.56349186104046" y2="50.0" stroke="black" stroke-width="1"/>
<line x1="238.49242404917499" y1="57.071067811865476" x2="238.49242404917499" y2="47.071067811865476" stroke="black" stroke-width="1"/>
<line x1="238.49242404917499" y1="47.071067811865476" x2="245.56349186104046" y2="40.0" stroke="black" stroke-width="1"/>
<line x1="238.49242404917499" y1="47.071067811865476" x2="231.4213562373095" y2="40.0" stroke="black" stroke-width="1"/>
<line x1="184.35028842544403" y1="71.21320343559643" x2="184.35028842544403" y2="61.21320343559643" stroke="black" stroke-width="1"/>
<line x1="184.35028842544403" y1="61.21320343559643" x2="184.35028842544403" y2="51.21320343559643" stroke="black" stroke-width="1"/>
<line x1="184.35028842544403" y1="51.21320343559643" x2="184.35028842544403" y2="41.21320343559643" stroke="black" stroke-width="1"/>
<line x1="184.35028842544403" y1="41.21320343559643" x2="184.35028842544403" y2="31.213203435596427" stroke="black" stroke-width="1"/>
<line x1="184.35028842544403" y1="31.213203435596427" x2="191.4213562373095" y2="24.14213562373095" stroke="black" stroke-width="1"/>
<line x1="191.4213562373095" y1="24.14213562373095" x2="198.49242404917499" y2="17.071067811865476" stroke="black" stroke-width="1"/>
<line x1="198.49242404917499" y1="17.071067811865476" x2="208.49242404917499" y2="17.071067811865476" stroke="black" stroke-width="1"/>
<line x1="208.49242404917499" y1="17.071067811865476" x2="215.56349186104046" y2="24.14213562373095" stroke="black" stroke-width="1"/>
<line x1="208.49242404917499" y1="17.071067811865476" x2="215.56349186104046" y2="10.0" stroke="black" stroke-width="1"/>
<line x1="198.49242404917499" y1="17.071067811865476" x2="198.49242404917499" y2="7.0710678118654755" stroke="black" stroke-width="1"/>
<line x1="198.49242404917499" y1="7.0710678118654755" x2="205.56349186104046" y2="0.0" stroke="black" stroke-width="1"/>
<line x1="198.49242404917499" y1="7.0710678118654755" x2="191.4213562373095" y2="0.0" stroke="black" stroke-width="1"/>
<line x1="184.35028842544403" y1="31.213203435596427" x2="177.27922061357856" y2="24.14213562373095" stroke="black" stroke-width="1"/>
<line x1="177.27922061357856" y1="24.14213562373095" x2="170.20815280171308" y2="17.071067811865476" stroke="black" stroke-width="1"/>
<line x1="170.20815280171308" y1="17.071067811865476" x2="170.20815280171308" y2="7.0710678118654755" stroke="black" stroke-width="1"/>
<line x1="170.20815280171308" y1="7.0710678118654755" x2="177.27922061357856" y2="0.0" stroke="black" stroke-width="1"/>
<line x1="170.20815280171308" y1="7.0710678118654755" x2="163.1370849898476" y2="0.0" stroke="black" stroke-width="1"/>
<line x1="170.20815280171308" y1="17.071067811865476" x2="160.20815280171308" y2="17.071067811865476" stroke="black" stroke-width="1"/>
<line x1="160.20815280171308" y1="17.071067811865476" x2="153.1370849898476" y2="10.0" stroke="black" stroke-width="1"/>
<line x1="160.20815280171308" y1="17.071067811865476" x2="153.1370849898476" y2="24.14213562373095" stroke="black" stroke-width="1"/>
<line x1="127.78174593052023" y1="127.78174593052023" x2="120.71067811865476" y2="120.71067811865476" stroke="black" stroke-width="1"/>
<line x1="120.71067811865476" y1="120.71067811865476" x2="113.63961030678928" y2="113.63961030678928" stroke="black" stroke-width="1"/>
<line x1="113.63961030678928" y1="113.63961030678928" x2="106.5685424949238" y2="106.5685424949238" stroke="black" stroke-width="1"/>
<line x1="106.5685424949238" y1="106.5685424949238" x2="99.49747468305833" y2="99.49747468305833" stroke="black" stroke-width="1"/>
<line x1="99.49747468305833" y1="99.49747468305833" x2="92.42640687119285" y2="92.42640687119285" stroke="black" stroke-width="1"/>
<line x1="92.42640687119285" y1="92.42640687119285" x2="85.35533905932738" y2="85.35533905932738" stroke="black" stroke-width="1"/>
<line x1="85.35533905932738" y1="85.35533905932738" x2="78.2842712474619" y2="78.2842712474619" stroke="black" stroke-width="1"/>
<line x1="78.2842712474619" y1="78.2842712474619" x2="71.21320343559643" y2="71.21320343559643" stroke="black" stroke-width="1"/>
<line x1="71.21320343559643" y1="71.21320343559643" x2="71.21320343559643" y2="61.21320343559643" stroke="black" stroke-width="1"/>
<line x1="71.21320343559643" y1="61.21320343559643" x2="71.21320343559643" y2="51.21320343559643" stroke="black" stroke-width="1"/>
<line x1="71.21320343559643" y1="51.21320343559643" x2="71.21320343559643" y2="41.21320343559643" stroke="black" stroke-width="1"/>
<line x1="71.21320343559643" y1="41.21320343559643" x2="71.21320343559643" y2="31.213203435596427" stroke="black" stroke-width="1"/>
<line x1="71.21320343559643" y1="31.213203435596427" x2="78.2842712474619" y2="24.14213562373095" stroke="black" stroke-width="1"/>
<line x1="78.2842712474619" y1="24.14213562373095" x2="85.35533905932738" y2="17.071067811865476" stroke="black" stroke-width="1"/>
<line x1="85.35533905932738" y1="17.071067811865476" x2="95.35533905932738" y2="17.071067811865476" stroke="black" stroke-width="1"/>
<line x1="95.35533905932738" y1="17.071067811865476" x2="102.42640687119285" y2="24.14213562373095" stroke="black" stroke-width="1"/>
<line x1="95.35533905932738" y1="17.071067811865476" x2="102.42640687119285" y2="10.0" stroke="black" stroke-width="1"/>
<line x1="85.35533905932738" y1="17.071067811865476" x2="85.35533905932738" y2="7.0710678118654755" stroke="black" stroke-width="1"/>
<line x1="85.35533905932738" y1="7.0710678118654755" x2="92.42640687119285" y2="0.0" stroke="black" stroke-width="1"/>
<line x1="85.35533905932738" y1="7.0710678118654755" x2="78.2842712474619" y2="0.0" stroke="black" stroke-width="1"/>
<line x1="71.21320343559643" y1="31.213203435596427" x2="64.14213562373095" y2="24.14213562373095" stroke="black" stroke-width="1"/>
<line x1="64.14213562373095" y1="24.14213562373095" x2="57.07106781186546" y2="17.071067811865476" stroke="black" stroke-width="1"/>
<line x1="57.07106781186546" y1="17.071067811865476" x2="57.07106781186546" y2="7.0710678118654755" stroke="black" stroke-width="1"/>
<line x1="57.07106781186546" y1="7.0710678118654755" x2="64.14213562373094" y2="0.0" stroke="black" stroke-width="1"/>
<line x1="57.07106781186546" y1="7.0710678118654755" x2="49.999999999999986" y2="0.0" stroke="black" stroke-width="1"/>
<line x1="57.07106781186546" y1="17.071067811865476" x2="47.07106781186546" y2="17.071067811865476" stroke="black" stroke-width="1"/>
<line x1="47.07106781186546" y1="17.071067811865476" x2="39.999999999999986" y2="10.0" stroke="black" stroke-width="1"/>
<line x1="47.07106781186546" y1="17.071067811865476" x2="39.999999999999986" y2="24.14213562373095" stroke="black" stroke-width="1"/>
<line x1="71.21320343559643" y1="71.21320343559643" x2="61.21320343559643" y2="71.21320343559643" stroke="black" stroke-width="1"/>
<line x1="61.21320343559643" y1="71.21320343559643" x2="51.21320343559643" y2="71.21320343559643" stroke="black" stroke-width="1"/>
<line x1="51.21320343559643" y1="71.21320343559643" x2="41.21320343559643" y2="71.21320343559643" stroke="black" stroke-width="1"/>
<line x1="41.21320343559643" y1="71.21320343559643" x2="31.213203435596427" y2="71.21320343559643" stroke="black" stroke-width="1"/>
<line x1="31.213203435596427" y1="71.21320343559643" x2="24.14213562373095" y2="64.14213562373095" stroke="black" stroke-width="1"/>
<line x1="24.14213562373095" y1="64.14213562373095" x2="17.071067811865476" y2="57.071067811865476" stroke="black" stroke-width="1"/>
<line x1="17.071067811865476" y1="57.071067811865476" x2="17.071067811865476" y2="47.071067811865476" stroke="black" stroke-width="1"/>
<line x1="17.071067811865476" y1="47.071067811865476" x2="24.14213562373095" y2="40.0" stroke="black" stroke-width="1"/>
<line x1="17.071067811865476" y1="47.071067811865476" x2="10.0" y2="40.0" stroke="black" stroke-width="1"/>
<line x1="17.071067811865476" y1="57.071067811865476" x2="7.0710678118654755" y2="57.071067811865476" stroke="black" stroke-width="1"/>
<line x1="7.0710678118654755" y1="57.071067811865476" x2="0.0" y2="50.0" stroke="black" stroke-width="1"/>
<line x1="7.0710678118654755" y1="57.071067811865476" x2="0.0" y2="64.14213562373095" stroke="black" stroke-width="1"/>
<line x1="31.213203435596427" y1="71.21320343559643" x2="24.14213562373095" y2="78.2842712474619" stroke="black" stroke-width="1"/>
<line x1="24.14213562373095" y1="78.2842712474619" x2="17.071067811865476" y2="85.35533905932738" stroke="black" stroke-width="1"/>
<line x1="17.071067811865476" y1="85.35533905932738" x2="7.0710678118654755" y2="85.35533905932738" stroke="black" stroke-width="1"/>
<line x1="7.0710678118654755" y1="85.35533905932738" x2="0.0" y2="78.2842712474619" stroke="black" stroke-width="1"/>
<line x1="7.0710678118654755" y1="85.35533905932738" x2="0.0" y2="92.42640687119285" stroke="black" stroke-width="1"/>
<line x1="17.071067811865476" y1="85.35533905932738" x2="17.071067811865476" y2="95.35533905932738" stroke="black" stroke-width="1"/>
<line x1="17.071067811865476" y1="95.35533905932738" x2="10.0" y2="102.42640687119285" stroke="black" stroke-width="1"/>
<line x1="17.071067811865476" y1="95.35533905932738" x2="24.14213562373095" y2="102.42640687119285" stroke="black" stroke-width="1"/>
</svg>
