<svg width="516.98484809835" height="578.4924240491753" xmlns="http://www.w3.org/2000/svg">
<line x1="258.492424049175" y1="578.4924240491753" x2="258.492424049175" y2="568.4924240491753" stroke="black" stroke-width="1"/>
<line x1="258.492424049175" y1="568.4924240491753" x2="258.492424049175" y2="558.4924240491753" stroke="black" stroke-width="1"/>
<line x1="258.492424049175" y1="558.4924240491753" x2="258.492424049175" y2="548.4924240491753" stroke="black" stroke-width="1"/>
<line x1="258.492424049175" y1="548.4924240491753" x2="258.492424049175" y2="538.4924240491753" stroke="black" stroke-width="1"/>
<line x1="258.492424049175" y1="538.4924240491753" x2="258.492424049175" y2="528.4924240491753" stroke="black" stroke-width="1"/>
<line x1="258.492424049175" y1="528.4924240491753" x2="258.492424049175" y2="518.4924240491753" stroke="black" stroke-width="1"/>
<line x1="258.492424049175" y1="518.4924240491753" x2="258.492424049175" y2="508.49242404917527" stroke="black" stroke-width="1"/>
<line x1="258.492424049175" y1="508.49242404917527" x2="258.492424049175" y2="498.49242404917527" stroke="black" stroke-width="1"/>
<line x1="258.492424049175" y1="498.49242404917527" x2="258.492424049175" y2="488.49242404917527" stroke="black" stroke-width="1"/>
<line x1="258.492424049175" y1="488.49242404917527" x2="258.492424049175" y2="478.49242404917527" stroke="black" stroke-width="1"/>
<line x1="258.492424049175" y1="478.49242404917527" x2="258.492424049175" y2="468.49242404917527" stroke="black" stroke-width="1"/>
<line x1="258.492424049175" y1="468.49242404917527" x2="258.492424049175" y2="458.49242404917527" stroke="black" stroke-width="1"/>
<line x1="258.492424049175" y1="458.49242404917527" x2="258.492424049175" y2="448.49242404917527" stroke="black" stroke-width="1"/>
<line x1="258.492424049175" y1="448.49242404917527" x2="258.492424049175" y2="438.49242404917527" stroke="black" stroke-width="1"/>
<line x1="258.492424049175" y1="438.49242404917527" x2="258.492424049175" y2="428.49242404917527" stroke="black" stroke-width="1"/>
<line x1="258.492424049175" y1="428.49242404917527" x2="258.492424049175" y2="418.49242404917527" stroke="black" stroke-width="1"/>
<line x1="258.492424049175" y1="418.49242404917527" x2="258.492424049175" y2="408.49242404917527" stroke="black" stroke-width="1"/>
<line x1="258.492424049175" y1="408.49242404917527" x2="258.492424049175" y2="398.49242404917527" stroke="black" stroke-width="1"/>
<line x1="258.492424049175" y1="398.49242404917527" x2="258.492424049175" y2="388.49242404917527" stroke="black" stroke-width="1"/>
<line x1="258.492424049175" y1="388.49242404917527" x2="258.492424049175" y2="378.49242404917527" stroke="black" stroke-width="1"/>
<line x1="258.492424049175" y1="378.49242404917527" x2="258.492424049175" y2="368.49242404917527" stroke="black" stroke-width="1"/>
<line x1="258.492424049175" y1="368.49242404917527" x2="258.492424049175" y2="358.49242404917527" stroke="black" stroke-width="1"/>
<line x1="258.492424049175" y1="358.49242404917527" x2="258.492424049175" y2="348.49242404917527" stroke="black" stroke-width="1"/>
<line x1="258.492424049175" y1="348.49242404917527" x2="258.492424049175" y2="338.49242404917527" stroke="black" stroke-width="1"/>
<line x1="258.492424049175" y1="338.49242404917527" x2="258.492424049175" y2="328.49242404917527" stroke="black" stroke-width="1"/>
<line x1="258.492424049175" y1="328.49242404917527" x2="258.492424049175" y2="318.49242404917527" stroke="black" stroke-width="1"/>
<line x1="258.492424049175" y1="318.49242404917527" x2="258.492424049175" y2="308.49242404917527" stroke="black" stroke-width="1"/>
<line x1="258.492424049175" y1="308.49242404917527" x2="258.492424049175" y2="298.49242404917527" stroke="black" stroke-width="1"/>
<line x1="258.492424049175" y1="298.49242404917527" x2="258.492424049175" y2="288.49242404917527" stroke="black" stroke-width="1"/>
<line x1="258.492424049175" y1="288.49242404917527" x2="258.492424049175" y2="278.49242404917527" stroke="black" stroke-width="1"/>
<line x1="258.492424049175" y1="278.49242404917527" x2="258.492424049175" y2="268.49242404917527" stroke="black" stroke-width="1"/>
<line x1="258.492424049175" y1="268.49242404917527" x2="258.492424049175" y2="258.49242404917527" stroke="black" stroke-width="1"/>
<line x1="258.492424049175" y1="258.49242404917527" x2="265.56349186104046" y2="251.4213562373098" stroke="black" stroke-width="1"/>
<line x1="265.56349186104046" y1="251.4213562373098" x2="272.63455967290594" y2="244.35028842544432" stroke="black" stroke-width="1"/>
<line x1="272.63455967290594" y1="244.35028842544432" x2="279.7056274847714" y2="237.27922061357884" stroke="black" stroke-width="1"/>
<line x1="279.7056274847714" y1="237.27922061357884" x2="286.7766952966369" y2="230.20815280171337" stroke="black" stroke-width="1"/>
<line x1="286.7766952966369" y1="230.20815280171337" x2="293.84776310850236" y2="223.1370849898479" stroke="black" stroke-width="1"/>
<line x1="293.84776310850236" y1="223.1370849898479" x2="300.91883092036784" y2="216.06601717798242" stroke="black" stroke-width="1"/>
<line x1="300.91883092036784" y1="216.06601717798242" x2="307.9898987322333" y2="208.99494936611694" stroke="black" stroke-width="1"/>
<line x1="307.9898987322333" y1="208.99494936611694" x2="315.0609665440988" y2="201.92388155425147" stroke="black" stroke-width="1"/>
<line x1="315.0609665440988" y1="201.92388155425147" x2="322.13203435596427" y2="194.852813742386" stroke="black" stroke-width="1"/>
<line x1="322.13203435596427" y1="194.852813742386" x2="329.20310216782974" y2="187.78174593052051" stroke="black" stroke-width="1"/>
<line x1="329.20310216782974" y1="187.78174593052051" x2="336.2741699796952" y2="180.71067811865504" stroke="black" stroke-width="1"/>
<line x1="336.2741699796952" y1="180.71067811865504" x2="343.3452377915607" y2="173.63961030678956" stroke="black" stroke-width="1"/>
<line x1="343.3452377915607" y1="173.63961030678956" x2="350.41630560342617" y2="166.5685424949241" stroke="black" stroke-width="1"/>
<line x1="350.41630560342617" y1="166.5685424949241" x2="357.48737341529164" y2="159.4974746830586" stroke="black" stroke-width="1"/>
<line x1="357.48737341529164" y1="159.4974746830586" x2="364.5584412271571" y2="152.42640687119314" stroke="black" stroke-width="1"/>
<line x1="364.5584412271571" y1="152.42640687119314" x2="371.6295090390226" y2="145.35533905932766" stroke="black" stroke-width="1"/>
<line x1="371.6295090390226" y1="145.35533905932766" x2="381.6295090390226" y2="145.35533905932766" stroke="black" stroke-width="1"/>
<line x1="381.6295090390226" y1="145.35533905932766" x2="391.6295090390226" y2="145.35533905932766" stroke="black" stroke-width="1"/>
<line x1="391.6295090390226" y1="145.35533905932766" x2="401.6295090390226" y2="145.35533905932766" stroke="black" stroke-width="1"/>
<line x1="401.6295090390226" y1="145.35533905932766" x2="411.6295090390226" y2="145.35533905932766" stroke="black" stroke-width="1"/>
<line x1="411.6295090390226" y1="145.35533905932766" x2="421.6295090390226" y2="145.35533905932766" stroke="black" stroke-width="1"/>
<line x1="421.6295090390226" y1="145.35533905932766" x2="431.6295090390226" y2="145.35533905932766" stroke="black" stroke-width="1"/>
<line x1="431.6295090390226" y1="145.35533905932766" x2="441.6295090390226" y2="145.35533905932766" stroke="black" stroke-width="1"/>
<line x1="441.6295090390226" y1="145.35533905932766" x2="451.6295090390226" y2="145.35533905932766" stroke="black" stroke-width="1"/>
<line x1="451.6295090390226" y1="145.35533905932766" x2="458.70057685088807" y2="152.42640687119314" stroke="black" stroke-width="1"/>
<line x1="458.70057685088807" y1="152.42640687119314" x2="465.77164466275354" y2="159.4974746830586" stroke="black" stroke-width="1"/>
<line x1="465.77164466275354" y1="159.4974746830586" x2="472.842712474619" y2="166.5685424949241" stroke="black" stroke-width="1"/>
<line x1="472.842712474619" y1="166.5685424949241" x2="479.9137802864845" y2="173.63961030678956" stroke="black" stroke-width="1"/>
<line x1="479.9137802864845" y1="173.63961030678956" x2="479.9137802864845" y2="183.63961030678956" stroke="black" stroke-width="1"/>
<line x1="479.9137802864845" y1="183.63961030678956" x2="479.9137802864845" y2="193.63961030678956" stroke="black" stroke-width="1"/>
<line x1="479.9137802864845" y1="193.63961030678956" x2="472.842712474619" y2="200.71067811865504" stroke="black" stroke-width="1"/>
<line x1="472.842712474619" y1="200.71067811865504" x2="462.842712474619" y2="200.71067811865504" stroke="black" stroke-width="1"/>
<line x1="472.842712474619" y1="200.71067811865504" x2="472.842712474619" y2="210.71067811865504" stroke="black" stroke-width="1"/>
<line x1="479.9137802864845" y1="193.63961030678956" x2="486.98484809834997" y2="200.71067811865504" stroke="black" stroke-width="1"/>
<line x1="486.98484809834997" y1="200.71067811865504" x2="486.98484809834997" y2="210.71067811865504" stroke="black" stroke-width="1"/>
<line x1="486.98484809834997" y1="200.71067811865504" x2="496.98484809834997" y2="200.71067811865504" stroke="black" stroke-width="1"/>
<line x1="479.9137802864845" y1="173.63961030678956" x2="489.9137802864845" y2="173.63961030678956" stroke="black" stroke-width="1"/>
<line x1="489.9137802864845" y1="173.63961030678956" x2="499.9137802864845" y2="173.63961030678956" stroke="black" stroke-width="1"/>
<line x1="499.9137802864845" y1="173.63961030678956" x2="506.98484809834997" y2="180.71067811865504" stroke="black" stroke-width="1"/>
<line x1="506.98484809834997" y1="180.71067811865504" x2="506.98484809834997" y2="190.71067811865504" stroke="black" stroke-width="1"/>
<line x1="506.98484809834997" y1="180.71067811865504" x2="516.98484809835" y2="180.71067811865504" stroke="black" stroke-width="1"/>
<line x1="499.9137802864845" y1="173.63961030678956" x2="506.98484809834997" y2="166.5685424949241" stroke="black" stroke-width="1"/>
<line x1="506.98484809834997" y1="166.5685424949241" x2="516.98484809835" y2="166.5685424949241" stroke="black" stroke-width="1"/>
<line x1="506.98484809834997" y1="166.5685424949241" x2="506.98484809834997" y2="156.5685424949241" stroke="black" stroke-width="1"/>
<line x1="451.6295090390226" y1="145.35533905932766" x2="458.70057685088807" y2="138.2842712474622" stroke="black" stroke-width="1"/>
<line x1="458.70057685088807" y1="138.2842712474622" x2="465.77164466275354" y2="131.2132034355967" stroke="black" stroke-width="1"/>
<line x1="465.77164466275354" y1="131.2132034355967" x2="472.842712474619" y2="124.14213562373124" stroke="black" stroke-width="1"/>
<line x1="472.842712474619" y1="124.14213562373124" x2="479.9137802864845" y2="117.07106781186576" stroke="black" stroke-width="1"/>
<line x1="479.9137802864845" y1="117.07106781186576" x2="489.9137802864845" y2="117.07106781186576" stroke="black" stroke-width="1"/>
<line x1="489.9137802864845" y1="117.07106781186576" x2="499.9137802864845" y2="117.07106781186576" stroke="black" stroke-width="1"/>
<line x1="499.9137802864845" y1="117.07106781186576" x2="506.98484809834997" y2="124.14213562373124" stroke="black" stroke-width="1"/>
<line x1="506.98484809834997" y1="124.14213562373124" x2="506.98484809834997" y2="134.14213562373124" stroke="black" stroke-width="1"/>
<line x1="506.98484809834997" y1="124.14213562373124" x2="516.98484809835" y2="124.14213562373124" stroke="black" stroke-width="1"/>
<line x1="499.9137802864845" y1="117.07106781186576" x2="506.98484809834997" y2="110.00000000000028" stroke="black" stroke-width="1"/>
<line x1="506.98484809834997" y1="110.00000000000028" x2="516.98484809835" y2="110.00000000000028" stroke="black" stroke-width="1"/>
<line x1="506.98484809834997" y1="110.00000000000028" x2="506.98484809834997" y2="100.00000000000028" stroke="black" stroke-width="1"/>
<line x1="479.9137802864845" y1="117.07106781186576" x2="479.9137802864845" y2="107.07106781186576" stroke="black" stroke-width="1"/>
<line x1="479.9137802864845" y1="107.07106781186576" x2="479.9137802864845" y2="97.07106781186576" stroke="black" stroke-width="1"/>
<line x1="479.9137802864845" y1="97.07106781186576" x2="486.98484809834997" y2="90.00000000000028" stroke="black" stroke-width="1"/>
<line x1="486.98484809834997" y1="90.00000000000028" x2="496.98484809834997" y2="90.00000000000028" stroke="black" stroke-width="1"/>
<line x1="486.98484809834997" y1="90.00000000000028" x2="486.98484809834997" y2="80.00000000000028" stroke="black" stroke-width="1"/>
<line x1="479.9137802864845" y1="97.07106781186576" x2="472.842712474619" y2="90.00000000000028" stroke="black" stroke-width="1"/>
<line x1="472.842712474619" y1="90.00000000000028" x2="472.842712474619" y2="80.00000000000028" stroke="black" stroke-width="1"/>
<line x1="472.842712474619" y1="90.00000000000028" x2="462.842712474619" y2="90.00000000000028" stroke="black" stroke-width="1"/>
<line x1="371.6295090390226" y1="145.35533905932766" x2="371.6295090390226" y2="135.35533905932766" stroke="black" stroke-width="1"/>
<line x1="371.6295090390226" y1="135.35533905932766" x2="371.6295090390226" y2="125.35533905932766" stroke="black" stroke-width="1"/>
<line x1="371.6295090390226" y1="125.35533905932766" x2="371.6295090390226" y2="115.35533905932766" stroke="black" stroke-width="1"/>
<line x1="371.6295090390226" y1="115.35533905932766" x2="371.6295090390226" y2="105.35533905932766" stroke="black" stroke-width="1"/>
<line x1="371.6295090390226" y1="105.35533905932766" x2="371.6295090390226" y2="95.35533905932766" stroke="black" stroke-width="1"/>
<line x1="371.6295090390226" y1="95.35533905932766" x2="371.6295090390226" y2="85.35533905932766" stroke="black" stroke-width="1"/>
<line x1="371.6295090390226" y1="85.35533905932766" x2="371.6295090390226" y2="75.35533905932766" stroke="black" stroke-width="1"/>
<line x1="371.6295090390226" y1="75.35533905932766" x2="371.6295090390226" y2="65.35533905932766" stroke="black" stroke-width="1"/>
<line x1="371.6295090390226" y1="65.35533905932766" x2="378.70057685088807" y2="58.28427124746213" stroke="black" stroke-width="1"/>
<line x1="378.70057685088807" y1="58.28427124746213" x2="385.77164466275354" y2="51.2132034355966" stroke="black" stroke-width="1"/>
<line x1="385.77164466275354" y1="51.2132034355966" x2="392.842712474619" y2="44.142135623731065" stroke="black" stroke-width="1"/>
<line x1="392.842712474619" y1="44.142135623731065" x2="399.91378028648444" y2="37.07106781186553" stroke="black" stroke-width="1"/>
<line x1="399.91378028648444" y1="37.07106781186553" x2="409.91378028648444" y2="37.07106781186553" stroke="black" stroke-width="1"/>
<line x1="409.91378028648444" y1="37.07106781186553" x2="419.91378028648444" y2="37.07106781186553" stroke="black" stroke-width="1"/>
<line x1="419.91378028648444" y1="37.07106781186553" x2="426.98484809834997" y2="44.14213562373095" stroke="black" stroke-width="1"/>
<line x1="426.98484809834997" y1="44.14213562373095" x2="426.98484809834997" y2="54.14213562373095" stroke="black" stroke-width="1"/>
<line x1="426.98484809834997" y1="44.14213562373095" x2="436.98484809834997" y2="44.14213562373095" stroke="black" stroke-width="1"/>
<line x1="419.91378028648444" y1="37.07106781186553" x2="426.98484809834997" y2="30.0" stroke="black" stroke-width="1"/>
<line x1="426.98484809834997" y1="30.0" x2="436.98484809834997" y2="30.0" stroke="black" stroke-width="1"/>
<line x1="426.98484809834997" y1="30.0" x2="426.98484809834997" y2="20.0" stroke="black" stroke-width="1"/>
<line x1="399.91378028648444" y1="37.07106781186553" x2="399.91378028648444" y2="27.071067811865532" stroke="black" stroke-width="1"/>
<line x1="399.91378028648444" y1="27.071067811865532" x2="399.91378028648444" y2="17.071067811865532" stroke="black" stroke-width="1"/>
<line x1="399.91378028648444" y1="17.071067811865532" x2="406.98484809834997" y2="10.0" stroke="black" stroke-width="1"/>
<line x1="406.98484809834997" y1="10.0" x2="416.98484809834997" y2="10.0" stroke="black" stroke-width="1"/>
<line x1="406.98484809834997" y1="10.0" x2="406.98484809834997" y2="0.0" stroke="black" stroke-width="1"/>
<line x1="399.91378028648444" y1="17.071067811865532" x2="392.842712474619" y2="10.000000000000114" stroke="black" stroke-width="1"/>
<line x1="392.842712474619" y1="10.000000000000114" x2="392.842712474619" y2="1.1368683772161603e-13" stroke="black" stroke-width="1"/>
<line x1="392.842712474619" y1="10.000000000000114" x2="382.842712474619" y2="10.000000000000114" stroke="black" stroke-width="1"/>
<line x1="371.6295090390226" y1="65.35533905932766" x2="364.5584412271571" y2="58.28427124746224" stroke="black" stroke-width="1"/>
<line x1="364.5584412271571" y1="58.28427124746224" x2="357.48737341529164" y2="51.213203435596824" stroke="black" stroke-width="1"/>
<line x1="357.48737341529164" y1="51.213203435596824" x2="350.41630560342617" y2="44.142135623731406" stroke="black" stroke-width="1"/>
<line x1="350.41630560342617" y1="44.142135623731406" x2="343.3452377915607" y2="37.07106781186599" stroke="black" stroke-width="1"/>
<line x1="343.3452377915607" y1="37.07106781186599" x2="343.3452377915607" y2="27.071067811865987" stroke="black" stroke-width="1"/>
<line x1="343.3452377915607" y1="27.071067811865987" x2="343.3452377915607" y2="17.071067811865987" stroke="black" stroke-width="1"/>
<line x1="343.3452377915607" y1="17.071067811865987" x2="350.41630560342617" y2="10.000000000000455" stroke="black" stroke-width="1"/>
<line x1="350.41630560342617" y1="10.000000000000455" x2="360.41630560342617" y2="10.000000000000455" stroke="black" stroke-width="1"/>
<line x1="350.41630560342617" y1="10.000000000000455" x2="350.41630560342617" y2="4.547473508864641e-13" stroke="black" stroke-width="1"/>
<line x1="343.3452377915607" y1="17.071067811865987" x2="336.2741699796952" y2="10.000000000000568" stroke="black" stroke-width="1"/>
<line x1="336.2741699796952" y1="10.000000000000568" x2="336.2741699796952" y2="5.684341886080801e-13" stroke="black" stroke-width="1"/>
<line x1="336.2741699796952" y1="10.000000000000568" x2="326.2741699796952" y2="10.000000000000568" stroke="black" stroke-width="1"/>
<line x1="343.3452377915607" y1="37.07106781186599" x2="333.3452377915607" y2="37.07106781186599" stroke="black" stroke-width="1"/>
<line x1="333.3452377915607" y1="37.07106781186599" x2="323.3452377915607" y2="37.07106781186599" stroke="black" stroke-width="1"/>
<line x1="323.3452377915607" y1="37.07106781186599" x2="316.2741699796952" y2="30.00000000000057" stroke="black" stroke-width="1"/>
<line x1="316.2741699796952" y1="30.00000000000057" x2="316.2741699796952" y2="20.00000000000057" stroke="black" stroke-width="1"/>
<line x1="316.2741699796952" y1="30.00000000000057" x2="306.2741699796952" y2="30.00000000000057" stroke="black" stroke-width="1"/>
<line x1="323.3452377915607" y1="37.07106781186599" x2="316.2741699796952" y2="44.14213562373152" stroke="black" stroke-width="1"/>
<line x1="316.2741699796952" y1="44.14213562373152" x2="306.2741699796952" y2="44.14213562373152" stroke="black" stroke-width="1"/>
<line x1="316.2741699796952" y1="44.14213562373152" x2="316.2741699796952" y2="54.14213562373152" stroke="black" stroke-width="1"/>
<line x1="258.492424049175" y1="258.49242404917527" x2="251.4213562373095" y2="251.4213562373098" stroke="black" stroke-width="1"/>
<line x1="251.4213562373095" y1="251.4213562373098" x2="244.35028842544403" y2="244.35028842544432" stroke="black" stroke-width="1"/>
<line x1="244.35028842544403" y1="244.35028842544432" x2="237.27922061357856" y2="237.27922061357884" stroke="black" stroke-width="1"/>
<line x1="237.27922061357856" y1="237.27922061357884" x2="230.20815280171308" y2="230.20815280171337" stroke="black" stroke-width="1"/>
<line x1="230.20815280171308" y1="230.20815280171337" x2="223.1370849898476" y2="223.1370849898479" stroke="black" stroke-width="1"/>
<line x1="223.1370849898476" y1="223.1370849898479" x2="216.06601717798213" y2="216.06601717798242" stroke="black" stroke-width="1"/>
<line x1="216.06601717798213" y1="216.06601717798242" x2="208.99494936611666" y2="208.99494936611694" stroke="black" stroke-width="1"/>
<line x1="208.99494936611666" y1="208.99494936611694" x2="201.92388155425118" y2="201.92388155425147" stroke="black" stroke-width="1"/>
<line x1="201.92388155425118" y1="201.92388155425147" x2="194.8528137423857" y2="194.852813742386" stroke="black" stroke-width="1"/>
<line x1="194.8528137423857" y1="194.852813742386" x2="187.78174593052023" y2="187.78174593052051" stroke="black" stroke-width="1"/>
<line x1="187.78174593052023" y1="187.78174593052051" x2="180.71067811865476" y2="180.71067811865504" stroke="black" stroke-width="1"/>
<line x1="180.71067811865476" y1="180.71067811865504" x2="173.63961030678928" y2="173.63961030678956" stroke="black" stroke-width="1"/>
<line x1="173.63961030678928" y1="173.63961030678956" x2="166.5685424949238" y2="166.5685424949241" stroke="black" stroke-width="1"/>
<line x1="166.5685424949238" y1="166.5685424949241" x2="159.49747468305833" y2="159.4974746830586" stroke="black" stroke-width="1"/>
<line x1="159.49747468305833" y1="159.4974746830586" x2="152.42640687119285" y2="152.42640687119314" stroke="black" stroke-width="1"/>
<line x1="152.42640687119285" y1="152.42640687119314" x2="145.35533905932738" y2="145.35533905932766" stroke="black" stroke-width="1"/>
<line x1="145.35533905932738" y1="145.35533905932766" x2="145.35533905932738" y2="135.35533905932766" stroke="black" stroke-width="1"/>
<line x1="145.35533905932738" y1="135.35533905932766" x2="145.35533905932738" y2="125.35533905932766" stroke="black" stroke-width="1"/>
<line x1="145.35533905932738" y1="125.35533905932766" x2="145.35533905932738" y2="115.35533905932766" stroke="black" stroke-width="1"/>
<line x1="145.35533905932738" y1="115.35533905932766" x2="145.35533905932738" y2="105.35533905932766" stroke="black" stroke-width="1"/>
<line x1="145.35533905932738" y1="105.35533905932766" x2="145.35533905932738" y2="95.35533905932766" stroke="black" stroke-width="1"/>
<line x1="145.35533905932738" y1="95.35533905932766" x2="145.35533905932738" y2="85.35533905932766" stroke="black" stroke-width="1"/>
<line x1="145.35533905932738" y1="85.35533905932766" x2="145.35533905932738" y2="75.35533905932766" stroke="black" stroke-width="1"/>
<line x1="145.35533905932738" y1="75.35533905932766" x2="145.35533905932738" y2="65.35533905932766" stroke="black" stroke-width="1"/>
<line x1="145.35533905932738" y1="65.35533905932766" x2="152.42640687119285" y2="58.28427124746213" stroke="black" stroke-width="1"/>
<line x1="152.42640687119285" y1="58.28427124746213" x2="159.49747468305833" y2="51.2132034355966" stroke="black" stroke-width="1"/>
<line x1="159.49747468305833" y1="51.2132034355966" x2="166.5685424949238" y2="44.142135623731065" stroke="black" stroke-width="1"/>
<line x1="166.5685424949238" y1="44.142135623731065" x2="173.63961030678928" y2="37.07106781186553" stroke="black" stroke-width="1"/>
<line x1="173.63961030678928" y1="37.07106781186553" x2="183.63961030678928" y2="37.07106781186553" stroke="black" stroke-width="1"/>
<line x1="183.63961030678928" y1="37.07106781186553" x2="193.63961030678928" y2="37.07106781186553" stroke="black" stroke-width="1"/>
<line x1="193.63961030678928" y1="37.07106781186553" x2="200.71067811865476" y2="44.14213562373095" stroke="black" stroke-width="1"/>
<line x1="200.71067811865476" y1="44.14213562373095" x2="200.71067811865476" y2="54.14213562373095" stroke="black" stroke-width="1"/>
<line x1="200.71067811865476" y1="44.14213562373095" x2="210.71067811865476" y2="44.14213562373095" stroke="black" stroke-width="1"/>
<line x1="193.63961030678928" y1="37.07106781186553" x2="200.71067811865476" y2="30.0" stroke="black" stroke-width="1"/>
<line x1="200.71067811865476" y1="30.0" x2="210.71067811865476" y2="30.0" stroke="black" stroke-width="1"/>
<line x1="200.71067811865476" y1="30.0" x2="200.71067811865476" y2="20.0" stroke="black" stroke-width="1"/>
<line x1="173.63961030678928" y1="37.07106781186553" x2="173.63961030678928" y2="27.071067811865532" stroke="black" stroke-width="1"/>
<line x1="173.63961030678928" y1="27.071067811865532" x2="173.63961030678928" y2="17.071067811865532" stroke="black" stroke-width="1"/>
<line x1="173.63961030678928" y1="17.071067811865532" x2="180.71067811865476" y2="10.0" stroke="black" stroke-width="1"/>
<line x1="180.71067811865476" y1="10.0" x2="190.71067811865476" y2="10.0" stroke="black" stroke-width="1"/>
<line x1="180.71067811865476" y1="10.0" x2="180.71067811865476" y2="0.0" stroke="black" stroke-width="1"/>
<line x1="173.63961030678928" y1="17.071067811865532" x2="166.5685424949238" y2="10.000000000000114" stroke="black" stroke-width="1"/>
<line x1="166.5685424949238" y1="10.000000000000114" x2="166.5685424949238" y2="1.1368683772161603e-13" stroke="black" stroke-width="1"/>
<line x1="166.5685424949238" y1="10.000000000000114" x2="156.5685424949238" y2="10.000000000000114" stroke="black" stroke-width="1"/>
<line x1="145.35533905932738" y1="65.35533905932766" x2="138.2842712474619" y2="58.28427124746224" stroke="black" stroke-width="1"/>
<line x1="138.2842712474619" y1="58.28427124746224" x2="131.21320343559643" y2="51.213203435596824" stroke="black" stroke-width="1"/>
<line x1="131.21320343559643" y1="51.213203435596824" x2="124.14213562373092" y2="44.142135623731406" stroke="black" stroke-width="1"/>
<line x1="124.14213562373092" y1="44.142135623731406" x2="117.07106781186545" y2="37.07106781186599" stroke="black" stroke-width="1"/>
<line x1="117.07106781186545" y1="37.07106781186599" x2="117.07106781186545" y2="27.071067811865987" stroke="black" stroke-width="1"/>
<line x1="117.07106781186545" y1="27.071067811865987" x2="117.07106781186545" y2="17.071067811865987" stroke="black" stroke-width="1"/>
<line x1="117.07106781186545" y1="17.071067811865987" x2="124.14213562373092" y2="10.000000000000455" stroke="black" stroke-width="1"/>
<line x1="124.14213562373092" y1="10.000000000000455" x2="134.14213562373092" y2="10.000000000000455" stroke="black" stroke-width="1"/>
<line x1="124.14213562373092" y1="10.000000000000455" x2="124.14213562373092" y2="4.547473508864641e-13" stroke="black" stroke-width="1"/>
<line x1="117.07106781186545" y1="17.071067811865987" x2="109.99999999999997" y2="10.000000000000568" stroke="black" stroke-width="1"/>
<line x1="109.99999999999997" y1="10.000000000000568" x2="109.99999999999997" y2="5.684341886080801e-13" stroke="black" stroke-width="1"/>
<line x1="109.99999999999997" y1="10.000000000000568" x2="99.99999999999997" y2="10.000000000000568" stroke="black" stroke-width="1"/>
<line x1="117.07106781186545" y1="37.07106781186599" x2="107.07106781186545" y2="37.07106781186599" stroke="black" stroke-width="1"/>
<line x1="107.07106781186545" y1="37.07106781186599" x2="97.07106781186545" y2="37.07106781186599" stroke="black" stroke-width="1"/>
<line x1="97.07106781186545" y1="37.07106781186599" x2="89.99999999999997" y2="30.00000000000057" stroke="black" stroke-width="1"/>
<line x1="89.99999999999997" y1="30.00000000000057" x2="89.99999999999997" y2="20.00000000000057" stroke="black" stroke-width="1"/>
<line x1="89.99999999999997" y1="30.00000000000057" x2="79.99999999999997" y2="30.00000000000057" stroke="black" stroke-width="1"/>
<line x1="97.07106781186545" y1="37.07106781186599" x2="89.99999999999997" y2="44.14213562373152" stroke="black" stroke-width="1"/>
<line x1="89.99999999999997" y1="44.14213562373152" x2="79.99999999999997" y2="44.14213562373152" stroke="black" stroke-width="1"/>
<line x1="89.99999999999997" y1="44.14213562373152" x2="89.99999999999997" y2="54.14213562373152" stroke="black" stroke-width="1"/>
<line x1="145.35533905932738" y1="145.35533905932766" x2="135.35533905932738" y2="145.35533905932766" stroke="black" stroke-width="1"/>
<line x1="135.35533905932738" y1="145.35533905932766" x2="125.35533905932738" y2="145.35533905932766" stroke="black" stroke-width="1"/>
<line x1="125.35533905932738" y1="145.35533905932766" x2="115.35533905932738" y2="145.35533905932766" stroke="black" stroke-width="1"/>
<line x1="115.35533905932738" y1="145.35533905932766" x2="105.35533905932738" y2="145.35533905932766" stroke="black" stroke-width="1"/>
<line x1="105.35533905932738" y1="145.35533905932766" x2="95.35533905932738" y2="145.35533905932766" stroke="black" stroke-width="1"/>
<line x1="95.35533905932738" y1="145.35533905932766" x2="85.35533905932738" y2="145.35533905932766" stroke="black" stroke-width="1"/>
<line x1="85.35533905932738" y1="145.35533905932766" x2="75.35533905932738" y2="145.35533905932766" stroke="black" stroke-width="1"/>
<line x1="75.35533905932738" y1="145.35533905932766" x2="65.35533905932738" y2="145.35533905932766" stroke="black" stroke-width="1"/>
<line x1="65.35533905932738" y1="145.35533905932766" x2="58.2842712474619" y2="138.2842712474622" stroke="black" stroke-width="1"/>
<line x1="58.2842712474619" y1="138.2842712474622" x2="51.21320343559643" y2="131.2132034355967" stroke="black" stroke-width="1"/>
<line x1="51.21320343559643" y1="131.2132034355967" x2="44.14213562373095" y2="124.14213562373124" stroke="black" stroke-width="1"/>
<line x1="44.14213562373095" y1="124.14213562373124" x2="37.071067811865476" y2="117.07106781186576" stroke="black" stroke-width="1"/>
<line x1="37.071067811865476" y1="117.07106781186576" x2="37.071067811865476" y2="107.07106781186576" stroke="black" stroke-width="1"/>
<line x1="37.071067811865476" y1="107.07106781186576" x2="37.071067811865476" y2="97.07106781186576" stroke="black" stroke-width="1"/>
<line x1="37.071067811865476" y1="97.07106781186576" x2="44.14213562373095" y2="90.00000000000028" stroke="black" stroke-width="1"/>
<line x1="44.14213562373095" y1="90.00000000000028" x2="54.14213562373095" y2="90.00000000000028" stroke="black" stroke-width="1"/>
<line x1="44.14213562373095" y1="90.00000000000028" x2="44.14213562373095" y2="80.00000000000028" stroke="black" stroke-width="1"/>
<line x1="37.071067811865476" y1="97.07106781186576" x2="30.0" y2="90.00000000000028" stroke="black" stroke-width="1"/>
<line x1="30.0" y1="90.00000000000028" x2="30.0" y2="80.00000000000028" stroke="black" stroke-width="1"/>
<line x1="30.0" y1="90.00000000000028" x2="20.0" y2="90.00000000000028" stroke="black" stroke-width="1"/>
<line x1="37.071067811865476" y1="117.07106781186576" x2="27.071067811865476" y2="117.07106781186576" stroke="black" stroke-width="1"/>
<line x1="27.071067811865476" y1="117.07106781186576" x2="17.071067811865476" y2="117.07106781186576" stroke="black" stroke-width="1"/>
<line x1="17.071067811865476" y1="117.07106781186576" x2="10.0" y2="110.00000000000028" stroke="black" stroke-width="1"/>
<line x1="10.0" y1="110.00000000000028" x2="10.0" y2="100.00000000000028" stroke="black" stroke-width="1"/>
<line x1="10.0" y1="110.00000000000028" x2="0.0" y2="110.00000000000028" stroke="black" stroke-width="1"/>
<line x1="17.071067811865476" y1="117.07106781186576" x2="10.0" y2="124.14213562373124" stroke="black" stroke-width="1"/>
<line x1="10.0" y1="124.14213562373124" x2="0.0" y2="124.14213562373124" stroke="black" stroke-width="1"/>
<line x1="10.0" y1="124.14213562373124" x2="10.0" y2="134.14213562373124" stroke="black" stroke-width="1"/>
<line x1="65.35533905932738" y1="145.35533905932766" x2="58.2842712474619" y2="152.42640687119314" stroke="black" stroke-width="1"/>
<line x1="58.2842712474619" y1="152.42640687119314" x2="51.21320343559643" y2="159.4974746830586" stroke="black" stroke-width="1"/>
<line x1="51.21320343559643" y1="159.4974746830586" x2="44.14213562373095" y2="166.5685424949241" stroke="black" stroke-width="1"/>
<line x1="44.14213562373095" y1="166.5685424949241" x2="37.071067811865476" y2="173.63961030678956" stroke="black" stroke-width="1"/>
<line x1="37.071067811865476" y1="173.63961030678956" x2="27.071067811865476" y2="173.63961030678956" stroke="black" stroke-width="1"/>
<line x1="27.071067811865476" y1="173.63961030678956" x2="17.071067811865476" y2="173.63961030678956" stroke="black" stroke-width="1"/>
<line x1="17.071067811865476" y1="173.63961030678956" x2="10.0" y2="166.5685424949241" stroke="black" stroke-width="1"/>
<line x1="10.0" y1="166.5685424949241" x2="10.0" y2="156.5685424949241" stroke="black" stroke-width="1"/>
<line x1="10.0" y1="166.5685424949241" x2="0.0" y2="166.5685424949241" stroke="black" stroke-width="1"/>
<line x1="17.071067811865476" y1="173.63961030678956" x2="10.0" y2="180.71067811865504" stroke="black" stroke-width="1"/>
<line x1="10.0" y1="180.71067811865504" x2="0.0" y2="180.71067811865504" stroke="black" stroke-width="1"/>
<line x1="10.0" y1="180.71067811865504" x2="10.0" y2="190.71067811865504" stroke="black" stroke-width="1"/>
<line x1="37.071067811865476" y1="173.63961030678956" x2="37.071067811865476" y2="183.63961030678956" stroke="black" stroke-width="1"/>
<line x1="37.071067811865476" y1="183.63961030678956" x2="37.071067811865476" y2="193.63961030678956" stroke="black" stroke-width="1"/>
<line x1="37.071067811865476" y1="193.63961030678956" x2="30.0" y2="200.71067811865504" stroke="black" stroke-width="1"/>
<line x1="30.0" y1="200.71067811865504" x2="20.0" y2="200.71067811865504" stroke="black" stroke-width="1"/>
<line x1="30.0" y1="200.71067811865504" x2="30.0" y2="210.71067811865504" stroke="black" stroke-width="1"/>
<line x1="37.071067811865476" y1="193.63961030678956" x2="44.14213562373095" y2="200.71067811865504" stroke="black" stroke-width="1"/>
<line x1="44.14213562373095" y1="200.71067811865504" x2="44.14213562373095" y2="210.71067811865504" stroke="black" stroke-width="1"/>
<line x1="44.14213562373095" y1="200.71067811865504" x2="54.14213562373095" y2="200.71067811865504" stroke="black" stroke-width="1"/>
</svg>
