<svg width="301.96152422706643" height="745.7883832488651" xmlns="http://www.w3.org/2000/svg">
<line x1="229.64101615137767" y1="745.7883832488651" x2="229.64101615137767" y2="735.7883832488651" stroke="black" stroke-width="1"/>
<line x1="229.64101615137767" y1="735.7883832488651" x2="234.64101615137767" y2="727.1281292110207" stroke="black" stroke-width="1"/>
<line x1="229.64101615137767" y1="735.7883832488651" x2="229.64101615137767" y2="725.7883832488651" stroke="black" stroke-width="1"/>
<line x1="229.64101615137767" y1="725.7883832488651" x2="224.64101615137767" y2="717.1281292110207" stroke="black" stroke-width="1"/>
<line x1="229.64101615137767" y1="725.7883832488651" x2="229.64101615137767" y2="715.7883832488651" stroke="black" stroke-width="1"/>
<line x1="229.64101615137767" y1="715.7883832488651" x2="234.64101615137767" y2="707.1281292110207" stroke="black" stroke-width="1"/>
<line x1="234.64101615137767" y1="707.1281292110207" x2="243.30127018922207" y2="702.1281292110207" stroke="black" stroke-width="1"/>
<line x1="234.64101615137767" y1="707.1281292110207" x2="239.64101615137767" y2="698.4678751731764" stroke="black" stroke-width="1"/>
<line x1="239.64101615137767" y1="698.4678751731764" x2="239.64101615137767" y2="688.4678751731764" stroke="black" stroke-width="1"/>
<line x1="239.64101615137767" y1="698.4678751731764" x2="244.64101615137767" y2="689.8076211353319" stroke="black" stroke-width="1"/>
<line x1="229.64101615137767" y1="715.7883832488651" x2="229.64101615137767" y2="705.7883832488651" stroke="black" stroke-width="1"/>
<line x1="229.64101615137767" y1="705.7883832488651" x2="224.64101615137767" y2="697.1281292110207" stroke="black" stroke-width="1"/>
<line x1="229.64101615137767" y1="705.7883832488651" x2="229.64101615137767" y2="695.7883832488651" stroke="black" stroke-width="1"/>
<line x1="229.64101615137767" y1="695.7883832488651" x2="224.64101615137767" y2="687.1281292110207" stroke="black" stroke-width="1"/>
<line x1="224.64101615137767" y1="687.1281292110207" x2="224.64101615137767" y2="677.1281292110207" stroke="black" stroke-width="1"/>
<line x1="224.64101615137767" y1="687.1281292110207" x2="219.64101615137767" y2="678.4678751731764" stroke="black" stroke-width="1"/>
<line x1="229.64101615137767" y1="695.7883832488651" x2="229.64101615137767" y2="685.7883832488651" stroke="black" stroke-width="1"/>
<line x1="229.64101615137767" y1="685.7883832488651" x2="234.64101615137767" y2="677.1281292110207" stroke="black" stroke-width="1"/>
<line x1="229.64101615137767" y1="685.7883832488651" x2="229.64101615137767" y2="675.7883832488651" stroke="black" stroke-width="1"/>
<line x1="229.64101615137767" y1="675.7883832488651" x2="224.64101615137767" y2="667.1281292110207" stroke="black" stroke-width="1"/>
<line x1="224.64101615137767" y1="667.1281292110207" x2="224.64101615137767" y2="657.1281292110207" stroke="black" stroke-width="1"/>
<line x1="224.64101615137767" y1="667.1281292110207" x2="219.64101615137767" y2="658.4678751731764" stroke="black" stroke-width="1"/>
<line x1="219.64101615137767" y1="658.4678751731764" x2="210.98076211353327" y2="653.4678751731764" stroke="black" stroke-width="1"/>
<line x1="219.64101615137767" y1="658.4678751731764" x2="214.64101615137764" y2="649.8076211353319" stroke="black" stroke-width="1"/>
<line x1="214.64101615137764" y1="649.8076211353319" x2="214.64101615137764" y2="639.8076211353319" stroke="black" stroke-width="1"/>
<line x1="214.64101615137764" y1="639.8076211353319" x2="219.64101615137764" y2="631.1473670974876" stroke="black" stroke-width="1"/>
<line x1="214.64101615137764" y1="639.8076211353319" x2="214.64101615137764" y2="629.8076211353319" stroke="black" stroke-width="1"/>
<line x1="214.64101615137764" y1="629.8076211353319" x2="209.64101615137764" y2="621.1473670974876" stroke="black" stroke-width="1"/>
<line x1="214.64101615137764" y1="629.8076211353319" x2="214.64101615137764" y2="619.8076211353319" stroke="black" stroke-width="1"/>
<line x1="214.64101615137764" y1="649.8076211353319" x2="209.64101615137764" y2="641.1473670974876" stroke="black" stroke-width="1"/>
<line x1="209.64101615137764" y1="641.1473670974876" x2="200.98076211353327" y2="636.1473670974876" stroke="black" stroke-width="1"/>
<line x1="209.64101615137764" y1="641.1473670974876" x2="204.64101615137764" y2="632.4871130596432" stroke="black" stroke-width="1"/>
<line x1="204.64101615137764" y1="632.4871130596432" x2="195.98076211353327" y2="627.4871130596432" stroke="black" stroke-width="1"/>
<line x1="195.98076211353327" y1="627.4871130596432" x2="190.98076211353325" y2="618.8268590217988" stroke="black" stroke-width="1"/>
<line x1="195.98076211353327" y1="627.4871130596432" x2="187.32050807568888" y2="622.4871130596432" stroke="black" stroke-width="1"/>
<line x1="187.32050807568888" y1="622.4871130596432" x2="177.32050807568888" y2="622.4871130596432" stroke="black" stroke-width="1"/>
<line x1="187.32050807568888" y1="622.4871130596432" x2="178.66025403784448" y2="617.4871130596432" stroke="black" stroke-width="1"/>
<line x1="204.64101615137764" y1="632.4871130596432" x2="199.64101615137764" y2="623.8268590217988" stroke="black" stroke-width="1"/>
<line x1="199.64101615137764" y1="623.8268590217988" x2="199.64101615137764" y2="613.8268590217988" stroke="black" stroke-width="1"/>
<line x1="199.64101615137764" y1="623.8268590217988" x2="194.64101615137764" y2="615.1666049839544" stroke="black" stroke-width="1"/>
<line x1="194.64101615137764" y1="615.1666049839544" x2="185.98076211353327" y2="610.1666049839544" stroke="black" stroke-width="1"/>
<line x1="194.64101615137764" y1="615.1666049839544" x2="189.64101615137764" y2="606.50635094611" stroke="black" stroke-width="1"/>
<line x1="229.64101615137767" y1="675.7883832488651" x2="229.64101615137767" y2="665.7883832488651" stroke="black" stroke-width="1"/>
<line x1="229.64101615137767" y1="665.7883832488651" x2="224.64101615137767" y2="657.1281292110207" stroke="black" stroke-width="1"/>
<line x1="229.64101615137767" y1="665.7883832488651" x2="229.64101615137767" y2="655.7883832488651" stroke="black" stroke-width="1"/>
<line x1="229.64101615137767" y1="655.7883832488651" x2="234.64101615137767" y2="647.1281292110207" stroke="black" stroke-width="1"/>
<line x1="234.64101615137767" y1="647.1281292110207" x2="234.64101615137767" y2="637.1281292110207" stroke="black" stroke-width="1"/>
<line x1="234.64101615137767" y1="647.1281292110207" x2="239.64101615137767" y2="638.4678751731764" stroke="black" stroke-width="1"/>
<line x1="229.64101615137767" y1="655.7883832488651" x2="229.64101615137767" y2="645.7883832488651" stroke="black" stroke-width="1"/>
<line x1="229.64101615137767" y1="645.7883832488651" x2="234.64101615137767" y2="637.1281292110207" stroke="black" stroke-width="1"/>
<line x1="229.64101615137767" y1="645.7883832488651" x2="229.64101615137767" y2="635.7883832488651" stroke="black" stroke-width="1"/>
<line x1="229.64101615137767" y1="635.7883832488651" x2="224.64101615137767" y2="627.1281292110207" stroke="black" stroke-width="1"/>
<line x1="229.64101615137767" y1="635.7883832488651" x2="229.64101615137767" y2="625.7883832488651" stroke="black" stroke-width="1"/>
<line x1="229.64101615137767" y1="625.7883832488651" x2="234.64101615137767" y2="617.1281292110207" stroke="black" stroke-width="1"/>
<line x1="234.64101615137767" y1="617.1281292110207" x2="234.64101615137767" y2="607.1281292110207" stroke="black" stroke-width="1"/>
<line x1="234.64101615137767" y1="617.1281292110207" x2="239.64101615137767" y2="608.4678751731763" stroke="black" stroke-width="1"/>
<line x1="239.64101615137767" y1="608.4678751731763" x2="239.64101615137767" y2="598.4678751731763" stroke="black" stroke-width="1"/>
<line x1="239.64101615137767" y1="598.4678751731763" x2="244.64101615137767" y2="589.8076211353319" stroke="black" stroke-width="1"/>
<line x1="239.64101615137767" y1="598.4678751731763" x2="239.64101615137767" y2="588.4678751731763" stroke="black" stroke-width="1"/>
<line x1="239.64101615137767" y1="608.4678751731763" x2="244.64101615137767" y2="599.8076211353319" stroke="black" stroke-width="1"/>
<line x1="244.64101615137767" y1="599.8076211353319" x2="253.30127018922207" y2="594.8076211353319" stroke="black" stroke-width="1"/>
<line x1="244.64101615137767" y1="599.8076211353319" x2="249.64101615137767" y2="591.1473670974875" stroke="black" stroke-width="1"/>
<line x1="249.64101615137767" y1="591.1473670974875" x2="249.64101615137767" y2="581.1473670974875" stroke="black" stroke-width="1"/>
<line x1="249.64101615137767" y1="591.1473670974875" x2="254.64101615137767" y2="582.4871130596431" stroke="black" stroke-width="1"/>
<line x1="254.64101615137767" y1="582.4871130596431" x2="263.30127018922207" y2="577.4871130596431" stroke="black" stroke-width="1"/>
<line x1="263.30127018922207" y1="577.4871130596431" x2="268.30127018922207" y2="568.8268590217988" stroke="black" stroke-width="1"/>
<line x1="263.30127018922207" y1="577.4871130596431" x2="271.96152422706643" y2="572.4871130596431" stroke="black" stroke-width="1"/>
<line x1="271.96152422706643" y1="572.4871130596431" x2="281.96152422706643" y2="572.4871130596431" stroke="black" stroke-width="1"/>
<line x1="281.96152422706643" y1="572.4871130596431" x2="290.6217782649108" y2="577.4871130596431" stroke="black" stroke-width="1"/>
<line x1="281.96152422706643" y1="572.4871130596431" x2="291.96152422706643" y2="572.4871130596431" stroke="black" stroke-width="1"/>
<line x1="291.96152422706643" y1="572.4871130596431" x2="300.6217782649108" y2="567.4871130596431" stroke="black" stroke-width="1"/>
<line x1="291.96152422706643" y1="572.4871130596431" x2="301.96152422706643" y2="572.4871130596431" stroke="black" stroke-width="1"/>
<line x1="271.96152422706643" y1="572.4871130596431" x2="280.6217782649108" y2="567.4871130596431" stroke="black" stroke-width="1"/>
<line x1="280.6217782649108" y1="567.4871130596431" x2="290.6217782649108" y2="567.4871130596431" stroke="black" stroke-width="1"/>
<line x1="280.6217782649108" y1="567.4871130596431" x2="289.28203230275517" y2="562.4871130596431" stroke="black" stroke-width="1"/>
<line x1="289.28203230275517" y1="562.4871130596431" x2="294.28203230275517" y2="553.8268590217988" stroke="black" stroke-width="1"/>
<line x1="289.28203230275517" y1="562.4871130596431" x2="297.9422863405996" y2="557.4871130596431" stroke="black" stroke-width="1"/>
<line x1="254.64101615137767" y1="582.4871130596431" x2="259.64101615137764" y2="573.8268590217988" stroke="black" stroke-width="1"/>
<line x1="259.64101615137764" y1="573.8268590217988" x2="259.64101615137764" y2="563.8268590217988" stroke="black" stroke-width="1"/>
<line x1="259.64101615137764" y1="573.8268590217988" x2="264.64101615137764" y2="565.1666049839544" stroke="black" stroke-width="1"/>
<line x1="264.64101615137764" y1="565.1666049839544" x2="264.64101615137764" y2="555.1666049839544" stroke="black" stroke-width="1"/>
<line x1="264.64101615137764" y1="555.1666049839544" x2="269.64101615137764" y2="546.5063509461099" stroke="black" stroke-width="1"/>
<line x1="264.64101615137764" y1="555.1666049839544" x2="264.64101615137764" y2="545.1666049839544" stroke="black" stroke-width="1"/>
<line x1="264.64101615137764" y1="565.1666049839544" x2="269.64101615137764" y2="556.5063509461099" stroke="black" stroke-width="1"/>
<line x1="269.64101615137764" y1="556.5063509461099" x2="278.30127018922207" y2="551.5063509461099" stroke="black" stroke-width="1"/>
<line x1="269.64101615137764" y1="556.5063509461099" x2="274.64101615137764" y2="547.8460969082655" stroke="black" stroke-width="1"/>
<line x1="229.64101615137767" y1="625.7883832488651" x2="229.64101615137767" y2="615.7883832488651" stroke="black" stroke-width="1"/>
<line x1="229.64101615137767" y1="615.7883832488651" x2="234.64101615137767" y2="607.1281292110207" stroke="black" stroke-width="1"/>
<line x1="229.64101615137767" y1="615.7883832488651" x2="229.64101615137767" y2="605.7883832488651" stroke="black" stroke-width="1"/>
<line x1="229.64101615137767" y1="605.7883832488651" x2="224.64101615137767" y2="597.1281292110207" stroke="black" stroke-width="1"/>
<line x1="224.64101615137767" y1="597.1281292110207" x2="224.64101615137767" y2="587.1281292110207" stroke="black" stroke-width="1"/>
<line x1="224.64101615137767" y1="597.1281292110207" x2="219.64101615137767" y2="588.4678751731763" stroke="black" stroke-width="1"/>
<line x1="229.64101615137767" y1="605.7883832488651" x2="229.64101615137767" y2="595.7883832488651" stroke="black" stroke-width="1"/>
<line x1="229.64101615137767" y1="595.7883832488651" x2="234.64101615137767" y2="587.1281292110207" stroke="black" stroke-width="1"/>
<line x1="229.64101615137767" y1="595.7883832488651" x2="229.64101615137767" y2="585.7883832488651" stroke="black" stroke-width="1"/>
<line x1="229.64101615137767" y1="585.7883832488651" x2="224.64101615137767" y2="577.1281292110207" stroke="black" stroke-width="1"/>
<line x1="229.64101615137767" y1="585.7883832488651" x2="229.64101615137767" y2="575.7883832488651" stroke="black" stroke-width="1"/>
<line x1="229.64101615137767" y1="575.7883832488651" x2="234.64101615137767" y2="567.1281292110207" stroke="black" stroke-width="1"/>
<line x1="234.64101615137767" y1="567.1281292110207" x2="243.30127018922207" y2="562.1281292110207" stroke="black" stroke-width="1"/>
<line x1="234.64101615137767" y1="567.1281292110207" x2="239.64101615137767" y2="558.4678751731763" stroke="black" stroke-width="1"/>
<line x1="239.64101615137767" y1="558.4678751731763" x2="239.64101615137767" y2="548.4678751731763" stroke="black" stroke-width="1"/>
<line x1="239.64101615137767" y1="548.4678751731763" x2="234.64101615137767" y2="539.8076211353319" stroke="black" stroke-width="1"/>
<line x1="239.64101615137767" y1="548.4678751731763" x2="239.64101615137767" y2="538.4678751731763" stroke="black" stroke-width="1"/>
<line x1="239.64101615137767" y1="558.4678751731763" x2="244.64101615137767" y2="549.8076211353319" stroke="black" stroke-width="1"/>
<line x1="244.64101615137767" y1="549.8076211353319" x2="253.30127018922207" y2="544.8076211353319" stroke="black" stroke-width="1"/>
<line x1="244.64101615137767" y1="549.8076211353319" x2="249.64101615137767" y2="541.1473670974875" stroke="black" stroke-width="1"/>
<line x1="249.64101615137767" y1="541.1473670974875" x2="249.64101615137767" y2="531.1473670974875" stroke="black" stroke-width="1"/>
<line x1="249.64101615137767" y1="541.1473670974875" x2="254.64101615137767" y2="532.4871130596431" stroke="black" stroke-width="1"/>
<line x1="229.64101615137767" y1="575.7883832488651" x2="229.64101615137767" y2="565.7883832488651" stroke="black" stroke-width="1"/>
<line x1="229.64101615137767" y1="565.7883832488651" x2="234.64101615137767" y2="557.1281292110207" stroke="black" stroke-width="1"/>
<line x1="229.64101615137767" y1="565.7883832488651" x2="229.64101615137767" y2="555.7883832488651" stroke="black" stroke-width="1"/>
<line x1="229.64101615137767" y1="555.7883832488651" x2="224.64101615137767" y2="547.1281292110207" stroke="black" stroke-width="1"/>
<line x1="229.64101615137767" y1="555.7883832488651" x2="229.64101615137767" y2="545.7883832488651" stroke="black" stroke-width="1"/>
<line x1="229.64101615137767" y1="545.7883832488651" x2="224.64101615137767" y2="537.1281292110207" stroke="black" stroke-width="1"/>
<line x1="224.64101615137767" y1="537.1281292110207" x2="224.64101615137767" y2="527.1281292110207" stroke="black" stroke-width="1"/>
<line x1="224.64101615137767" y1="537.1281292110207" x2="219.64101615137767" y2="528.4678751731763" stroke="black" stroke-width="1"/>
<line x1="229.64101615137767" y1="545.7883832488651" x2="229.64101615137767" y2="535.7883832488651" stroke="black" stroke-width="1"/>
<line x1="229.64101615137767" y1="535.7883832488651" x2="234.64101615137767" y2="527.1281292110207" stroke="black" stroke-width="1"/>
<line x1="229.64101615137767" y1="535.7883832488651" x2="229.64101615137767" y2="525.7883832488651" stroke="black" stroke-width="1"/>
<line x1="229.64101615137767" y1="525.7883832488651" x2="224.64101615137767" y2="517.1281292110207" stroke="black" stroke-width="1"/>
<line x1="224.64101615137767" y1="517.1281292110207" x2="215.98076211353327" y2="512.1281292110207" stroke="black" stroke-width="1"/>
<line x1="224.64101615137767" y1="517.1281292110207" x2="219.64101615137767" y2="508.4678751731763" stroke="black" stroke-width="1"/>
<line x1="219.64101615137767" y1="508.4678751731763" x2="210.98076211353327" y2="503.4678751731763" stroke="black" stroke-width="1"/>
<line x1="210.98076211353327" y1="503.4678751731763" x2="205.98076211353327" y2="494.80762113533194" stroke="black" stroke-width="1"/>
<line x1="210.98076211353327" y1="503.4678751731763" x2="202.32050807568888" y2="498.4678751731763" stroke="black" stroke-width="1"/>
<line x1="202.32050807568888" y1="498.4678751731763" x2="192.3205080756889" y2="498.4678751731763" stroke="black" stroke-width="1"/>
<line x1="202.32050807568888" y1="498.4678751731763" x2="193.6602540378445" y2="493.4678751731763" stroke="black" stroke-width="1"/>
<line x1="219.64101615137767" y1="508.4678751731763" x2="214.64101615137764" y2="499.80762113533194" stroke="black" stroke-width="1"/>
<line x1="214.64101615137764" y1="499.80762113533194" x2="214.64101615137764" y2="489.80762113533194" stroke="black" stroke-width="1"/>
<line x1="214.64101615137764" y1="499.80762113533194" x2="209.64101615137764" y2="491.1473670974875" stroke="black" stroke-width="1"/>
<line x1="209.64101615137764" y1="491.1473670974875" x2="200.98076211353327" y2="486.1473670974875" stroke="black" stroke-width="1"/>
<line x1="209.64101615137764" y1="491.1473670974875" x2="204.64101615137764" y2="482.48711305964315" stroke="black" stroke-width="1"/>
<line x1="229.64101615137767" y1="525.7883832488651" x2="229.64101615137767" y2="515.7883832488651" stroke="black" stroke-width="1"/>
<line x1="229.64101615137767" y1="515.7883832488651" x2="224.64101615137767" y2="507.1281292110207" stroke="black" stroke-width="1"/>
<line x1="229.64101615137767" y1="515.7883832488651" x2="229.64101615137767" y2="505.7883832488651" stroke="black" stroke-width="1"/>
<line x1="229.64101615137767" y1="505.7883832488651" x2="234.64101615137767" y2="497.1281292110207" stroke="black" stroke-width="1"/>
<line x1="234.64101615137767" y1="497.1281292110207" x2="243.30127018922207" y2="492.1281292110207" stroke="black" stroke-width="1"/>
<line x1="234.64101615137767" y1="497.1281292110207" x2="239.64101615137767" y2="488.4678751731763" stroke="black" stroke-width="1"/>
<line x1="229.64101615137767" y1="505.7883832488651" x2="229.64101615137767" y2="495.7883832488651" stroke="black" stroke-width="1"/>
<line x1="229.64101615137767" y1="495.7883832488651" x2="224.64101615137767" y2="487.12812921102073" stroke="black" stroke-width="1"/>
<line x1="229.64101615137767" y1="495.7883832488651" x2="229.64101615137767" y2="485.7883832488651" stroke="black" stroke-width="1"/>
<line x1="229.64101615137767" y1="485.7883832488651" x2="224.64101615137767" y2="477.12812921102073" stroke="black" stroke-width="1"/>
<line x1="224.64101615137767" y1="477.12812921102073" x2="224.64101615137767" y2="467.12812921102073" stroke="black" stroke-width="1"/>
<line x1="224.64101615137767" y1="477.12812921102073" x2="219.64101615137767" y2="468.46787517317637" stroke="black" stroke-width="1"/>
<line x1="219.64101615137767" y1="468.46787517317637" x2="210.98076211353327" y2="463.46787517317637" stroke="black" stroke-width="1"/>
<line x1="219.64101615137767" y1="468.46787517317637" x2="214.64101615137764" y2="459.807621135332" stroke="black" stroke-width="1"/>
<line x1="214.64101615137764" y1="459.807621135332" x2="214.64101615137764" y2="449.807621135332" stroke="black" stroke-width="1"/>
<line x1="214.64101615137764" y1="449.807621135332" x2="219.64101615137764" y2="441.14736709748763" stroke="black" stroke-width="1"/>
<line x1="214.64101615137764" y1="449.807621135332" x2="214.64101615137764" y2="439.807621135332" stroke="black" stroke-width="1"/>
<line x1="214.64101615137764" y1="459.807621135332" x2="209.64101615137764" y2="451.14736709748763" stroke="black" stroke-width="1"/>
<line x1="209.64101615137764" y1="451.14736709748763" x2="209.64101615137764" y2="441.14736709748763" stroke="black" stroke-width="1"/>
<line x1="209.64101615137764" y1="451.14736709748763" x2="204.64101615137764" y2="442.48711305964326" stroke="black" stroke-width="1"/>
<line x1="204.64101615137764" y1="442.48711305964326" x2="195.98076211353327" y2="437.48711305964326" stroke="black" stroke-width="1"/>
<line x1="204.64101615137764" y1="442.48711305964326" x2="199.64101615137764" y2="433.8268590217989" stroke="black" stroke-width="1"/>
<line x1="199.64101615137764" y1="433.8268590217989" x2="190.98076211353327" y2="428.8268590217989" stroke="black" stroke-width="1"/>
<line x1="190.98076211353327" y1="428.8268590217989" x2="185.98076211353325" y2="420.1666049839545" stroke="black" stroke-width="1"/>
<line x1="190.98076211353327" y1="428.8268590217989" x2="182.32050807568888" y2="423.8268590217989" stroke="black" stroke-width="1"/>
<line x1="182.32050807568888" y1="423.8268590217989" x2="172.32050807568888" y2="423.8268590217989" stroke="black" stroke-width="1"/>
<line x1="182.32050807568888" y1="423.8268590217989" x2="173.66025403784448" y2="418.8268590217989" stroke="black" stroke-width="1"/>
<line x1="199.64101615137764" y1="433.8268590217989" x2="194.64101615137764" y2="425.1666049839545" stroke="black" stroke-width="1"/>
<line x1="194.64101615137764" y1="425.1666049839545" x2="194.64101615137764" y2="415.1666049839545" stroke="black" stroke-width="1"/>
<line x1="194.64101615137764" y1="425.1666049839545" x2="189.64101615137764" y2="416.50635094611016" stroke="black" stroke-width="1"/>
<line x1="189.64101615137764" y1="416.50635094611016" x2="180.98076211353325" y2="411.50635094611016" stroke="black" stroke-width="1"/>
<line x1="180.98076211353325" y1="411.50635094611016" x2="170.98076211353325" y2="411.50635094611016" stroke="black" stroke-width="1"/>
<line x1="180.98076211353325" y1="411.50635094611016" x2="172.32050807568885" y2="406.50635094611016" stroke="black" stroke-width="1"/>
<line x1="172.32050807568885" y1="406.50635094611016" x2="162.32050807568885" y2="406.50635094611016" stroke="black" stroke-width="1"/>
<line x1="162.32050807568885" y1="406.50635094611016" x2="153.66025403784448" y2="401.50635094611016" stroke="black" stroke-width="1"/>
<line x1="162.32050807568885" y1="406.50635094611016" x2="152.32050807568885" y2="406.50635094611016" stroke="black" stroke-width="1"/>
<line x1="152.32050807568885" y1="406.50635094611016" x2="143.66025403784448" y2="411.50635094611016" stroke="black" stroke-width="1"/>
<line x1="152.32050807568885" y1="406.50635094611016" x2="142.32050807568885" y2="406.50635094611016" stroke="black" stroke-width="1"/>
<line x1="172.32050807568885" y1="406.50635094611016" x2="163.66025403784448" y2="401.50635094611016" stroke="black" stroke-width="1"/>
<line x1="163.66025403784448" y1="401.50635094611016" x2="153.66025403784448" y2="401.50635094611016" stroke="black" stroke-width="1"/>
<line x1="163.66025403784448" y1="401.50635094611016" x2="155.0000000000001" y2="396.50635094611016" stroke="black" stroke-width="1"/>
<line x1="189.64101615137764" y1="416.50635094611016" x2="184.64101615137764" y2="407.8460969082658" stroke="black" stroke-width="1"/>
<line x1="184.64101615137764" y1="407.8460969082658" x2="175.98076211353325" y2="402.8460969082658" stroke="black" stroke-width="1"/>
<line x1="184.64101615137764" y1="407.8460969082658" x2="179.6410161513776" y2="399.1858428704214" stroke="black" stroke-width="1"/>
<line x1="179.6410161513776" y1="399.1858428704214" x2="179.6410161513776" y2="389.1858428704214" stroke="black" stroke-width="1"/>
<line x1="179.6410161513776" y1="389.1858428704214" x2="174.6410161513776" y2="380.52558883257706" stroke="black" stroke-width="1"/>
<line x1="179.6410161513776" y1="389.1858428704214" x2="179.6410161513776" y2="379.1858428704214" stroke="black" stroke-width="1"/>
<line x1="179.6410161513776" y1="399.1858428704214" x2="174.6410161513776" y2="390.52558883257706" stroke="black" stroke-width="1"/>
<line x1="174.6410161513776" y1="390.52558883257706" x2="174.6410161513776" y2="380.52558883257706" stroke="black" stroke-width="1"/>
<line x1="174.6410161513776" y1="390.52558883257706" x2="169.6410161513776" y2="381.8653347947327" stroke="black" stroke-width="1"/>
<line x1="169.6410161513776" y1="381.8653347947327" x2="160.98076211353322" y2="376.8653347947327" stroke="black" stroke-width="1"/>
<line x1="160.98076211353322" y1="376.8653347947327" x2="155.98076211353322" y2="368.2050807568883" stroke="black" stroke-width="1"/>
<line x1="160.98076211353322" y1="376.8653347947327" x2="152.32050807568885" y2="371.8653347947327" stroke="black" stroke-width="1"/>
<line x1="152.32050807568885" y1="371.8653347947327" x2="142.32050807568885" y2="371.8653347947327" stroke="black" stroke-width="1"/>
<line x1="152.32050807568885" y1="371.8653347947327" x2="143.66025403784445" y2="366.8653347947327" stroke="black" stroke-width="1"/>
<line x1="169.6410161513776" y1="381.8653347947327" x2="164.64101615137758" y2="373.2050807568883" stroke="black" stroke-width="1"/>
<line x1="164.64101615137758" y1="373.2050807568883" x2="155.98076211353322" y2="368.2050807568883" stroke="black" stroke-width="1"/>
<line x1="164.64101615137758" y1="373.2050807568883" x2="159.64101615137758" y2="364.54482671904395" stroke="black" stroke-width="1"/>
<line x1="229.64101615137767" y1="485.7883832488651" x2="229.64101615137767" y2="475.7883832488651" stroke="black" stroke-width="1"/>
<line x1="229.64101615137767" y1="475.7883832488651" x2="234.64101615137767" y2="467.12812921102073" stroke="black" stroke-width="1"/>
<line x1="229.64101615137767" y1="475.7883832488651" x2="229.64101615137767" y2="465.7883832488651" stroke="black" stroke-width="1"/>
<line x1="229.64101615137767" y1="465.7883832488651" x2="224.64101615137767" y2="457.12812921102073" stroke="black" stroke-width="1"/>
<line x1="229.64101615137767" y1="465.7883832488651" x2="229.64101615137767" y2="455.7883832488651" stroke="black" stroke-width="1"/>
<line x1="229.64101615137767" y1="455.7883832488651" x2="234.64101615137767" y2="447.12812921102073" stroke="black" stroke-width="1"/>
<line x1="234.64101615137767" y1="447.12812921102073" x2="243.30127018922207" y2="442.12812921102073" stroke="black" stroke-width="1"/>
<line x1="234.64101615137767" y1="447.12812921102073" x2="239.64101615137767" y2="438.46787517317637" stroke="black" stroke-width="1"/>
<line x1="239.64101615137767" y1="438.46787517317637" x2="239.64101615137767" y2="428.46787517317637" stroke="black" stroke-width="1"/>
<line x1="239.64101615137767" y1="438.46787517317637" x2="244.64101615137767" y2="429.807621135332" stroke="black" stroke-width="1"/>
<line x1="229.64101615137767" y1="455.7883832488651" x2="229.64101615137767" y2="445.7883832488651" stroke="black" stroke-width="1"/>
<line x1="229.64101615137767" y1="445.7883832488651" x2="234.64101615137767" y2="437.12812921102073" stroke="black" stroke-width="1"/>
<line x1="229.64101615137767" y1="445.7883832488651" x2="229.64101615137767" y2="435.7883832488651" stroke="black" stroke-width="1"/>
<line x1="229.64101615137767" y1="435.7883832488651" x2="224.64101615137767" y2="427.12812921102073" stroke="black" stroke-width="1"/>
<line x1="224.64101615137767" y1="427.12812921102073" x2="224.64101615137767" y2="417.12812921102073" stroke="black" stroke-width="1"/>
<line x1="224.64101615137767" y1="427.12812921102073" x2="219.64101615137767" y2="418.46787517317637" stroke="black" stroke-width="1"/>
<line x1="229.64101615137767" y1="435.7883832488651" x2="229.64101615137767" y2="425.7883832488651" stroke="black" stroke-width="1"/>
<line x1="229.64101615137767" y1="425.7883832488651" x2="234.64101615137767" y2="417.12812921102073" stroke="black" stroke-width="1"/>
<line x1="229.64101615137767" y1="425.7883832488651" x2="229.64101615137767" y2="415.7883832488651" stroke="black" stroke-width="1"/>
<line x1="229.64101615137767" y1="415.7883832488651" x2="224.64101615137767" y2="407.12812921102073" stroke="black" stroke-width="1"/>
<line x1="224.64101615137767" y1="407.12812921102073" x2="224.64101615137767" y2="397.12812921102073" stroke="black" stroke-width="1"/>
<line x1="224.64101615137767" y1="407.12812921102073" x2="219.64101615137767" y2="398.46787517317637" stroke="black" stroke-width="1"/>
<line x1="219.64101615137767" y1="398.46787517317637" x2="210.98076211353327" y2="393.46787517317637" stroke="black" stroke-width="1"/>
<line x1="210.98076211353327" y1="393.46787517317637" x2="200.98076211353327" y2="393.46787517317637" stroke="black" stroke-width="1"/>
<line x1="210.98076211353327" y1="393.46787517317637" x2="202.32050807568888" y2="388.46787517317637" stroke="black" stroke-width="1"/>
<line x1="219.64101615137767" y1="398.46787517317637" x2="214.64101615137764" y2="389.807621135332" stroke="black" stroke-width="1"/>
<line x1="214.64101615137764" y1="389.807621135332" x2="214.64101615137764" y2="379.807621135332" stroke="black" stroke-width="1"/>
<line x1="214.64101615137764" y1="389.807621135332" x2="209.64101615137764" y2="381.14736709748763" stroke="black" stroke-width="1"/>
<line x1="209.64101615137764" y1="381.14736709748763" x2="200.98076211353327" y2="376.14736709748763" stroke="black" stroke-width="1"/>
<line x1="209.64101615137764" y1="381.14736709748763" x2="204.64101615137764" y2="372.48711305964326" stroke="black" stroke-width="1"/>
<line x1="229.64101615137767" y1="415.7883832488651" x2="229.64101615137767" y2="405.7883832488651" stroke="black" stroke-width="1"/>
<line x1="229.64101615137767" y1="405.7883832488651" x2="224.64101615137767" y2="397.12812921102073" stroke="black" stroke-width="1"/>
<line x1="229.64101615137767" y1="405.7883832488651" x2="229.64101615137767" y2="395.7883832488651" stroke="black" stroke-width="1"/>
<line x1="229.64101615137767" y1="395.7883832488651" x2="234.64101615137767" y2="387.12812921102073" stroke="black" stroke-width="1"/>
<line x1="234.64101615137767" y1="387.12812921102073" x2="243.30127018922207" y2="382.12812921102073" stroke="black" stroke-width="1"/>
<line x1="234.64101615137767" y1="387.12812921102073" x2="239.64101615137767" y2="378.46787517317637" stroke="black" stroke-width="1"/>
<line x1="229.64101615137767" y1="395.7883832488651" x2="229.64101615137767" y2="385.7883832488651" stroke="black" stroke-width="1"/>
<line x1="229.64101615137767" y1="385.7883832488651" x2="224.64101615137767" y2="377.12812921102073" stroke="black" stroke-width="1"/>
<line x1="229.64101615137767" y1="385.7883832488651" x2="229.64101615137767" y2="375.7883832488651" stroke="black" stroke-width="1"/>
<line x1="229.64101615137767" y1="375.7883832488651" x2="224.64101615137767" y2="367.12812921102073" stroke="black" stroke-width="1"/>
<line x1="224.64101615137767" y1="367.12812921102073" x2="224.64101615137767" y2="357.12812921102073" stroke="black" stroke-width="1"/>
<line x1="224.64101615137767" y1="367.12812921102073" x2="219.64101615137767" y2="358.46787517317637" stroke="black" stroke-width="1"/>
<line x1="219.64101615137767" y1="358.46787517317637" x2="219.64101615137767" y2="348.46787517317637" stroke="black" stroke-width="1"/>
<line x1="219.64101615137767" y1="348.46787517317637" x2="224.64101615137767" y2="339.807621135332" stroke="black" stroke-width="1"/>
<line x1="219.64101615137767" y1="348.46787517317637" x2="219.64101615137767" y2="338.46787517317637" stroke="black" stroke-width="1"/>
<line x1="219.64101615137767" y1="358.46787517317637" x2="214.64101615137764" y2="349.807621135332" stroke="black" stroke-width="1"/>
<line x1="214.64101615137764" y1="349.807621135332" x2="214.64101615137764" y2="339.807621135332" stroke="black" stroke-width="1"/>
<line x1="214.64101615137764" y1="349.807621135332" x2="209.64101615137764" y2="341.14736709748763" stroke="black" stroke-width="1"/>
<line x1="209.64101615137764" y1="341.14736709748763" x2="200.98076211353327" y2="336.14736709748763" stroke="black" stroke-width="1"/>
<line x1="209.64101615137764" y1="341.14736709748763" x2="204.64101615137764" y2="332.48711305964326" stroke="black" stroke-width="1"/>
<line x1="204.64101615137764" y1="332.48711305964326" x2="195.98076211353327" y2="327.48711305964326" stroke="black" stroke-width="1"/>
<line x1="195.98076211353327" y1="327.48711305964326" x2="190.98076211353325" y2="318.8268590217989" stroke="black" stroke-width="1"/>
<line x1="195.98076211353327" y1="327.48711305964326" x2="187.32050807568888" y2="322.48711305964326" stroke="black" stroke-width="1"/>
<line x1="187.32050807568888" y1="322.48711305964326" x2="177.32050807568888" y2="322.48711305964326" stroke="black" stroke-width="1"/>
<line x1="187.32050807568888" y1="322.48711305964326" x2="178.66025403784448" y2="317.48711305964326" stroke="black" stroke-width="1"/>
<line x1="204.64101615137764" y1="332.48711305964326" x2="199.64101615137764" y2="323.8268590217989" stroke="black" stroke-width="1"/>
<line x1="199.64101615137764" y1="323.8268590217989" x2="199.64101615137764" y2="313.8268590217989" stroke="black" stroke-width="1"/>
<line x1="199.64101615137764" y1="323.8268590217989" x2="194.64101615137764" y2="315.1666049839545" stroke="black" stroke-width="1"/>
<line x1="194.64101615137764" y1="315.1666049839545" x2="185.98076211353327" y2="310.1666049839545" stroke="black" stroke-width="1"/>
<line x1="194.64101615137764" y1="315.1666049839545" x2="189.64101615137764" y2="306.50635094611016" stroke="black" stroke-width="1"/>
<line x1="189.64101615137764" y1="306.50635094611016" x2="180.98076211353325" y2="301.50635094611016" stroke="black" stroke-width="1"/>
<line x1="180.98076211353325" y1="301.50635094611016" x2="175.98076211353325" y2="292.8460969082658" stroke="black" stroke-width="1"/>
<line x1="180.98076211353325" y1="301.50635094611016" x2="172.32050807568885" y2="296.50635094611016" stroke="black" stroke-width="1"/>
<line x1="172.32050807568885" y1="296.50635094611016" x2="167.32050807568885" y2="287.8460969082658" stroke="black" stroke-width="1"/>
<line x1="167.32050807568885" y1="287.8460969082658" x2="167.32050807568885" y2="277.8460969082658" stroke="black" stroke-width="1"/>
<line x1="167.32050807568885" y1="287.8460969082658" x2="162.32050807568885" y2="279.1858428704214" stroke="black" stroke-width="1"/>
<line x1="172.32050807568885" y1="296.50635094611016" x2="163.66025403784448" y2="291.50635094611016" stroke="black" stroke-width="1"/>
<line x1="163.66025403784448" y1="291.50635094611016" x2="158.66025403784448" y2="282.8460969082658" stroke="black" stroke-width="1"/>
<line x1="163.66025403784448" y1="291.50635094611016" x2="155.0000000000001" y2="286.50635094611016" stroke="black" stroke-width="1"/>
<line x1="189.64101615137764" y1="306.50635094611016" x2="184.64101615137764" y2="297.8460969082658" stroke="black" stroke-width="1"/>
<line x1="184.64101615137764" y1="297.8460969082658" x2="175.98076211353325" y2="292.8460969082658" stroke="black" stroke-width="1"/>
<line x1="184.64101615137764" y1="297.8460969082658" x2="179.6410161513776" y2="289.1858428704214" stroke="black" stroke-width="1"/>
<line x1="179.6410161513776" y1="289.1858428704214" x2="170.98076211353322" y2="284.1858428704214" stroke="black" stroke-width="1"/>
<line x1="170.98076211353322" y1="284.1858428704214" x2="165.98076211353322" y2="275.52558883257706" stroke="black" stroke-width="1"/>
<line x1="170.98076211353322" y1="284.1858428704214" x2="162.32050807568885" y2="279.1858428704214" stroke="black" stroke-width="1"/>
<line x1="162.32050807568885" y1="279.1858428704214" x2="152.32050807568885" y2="279.1858428704214" stroke="black" stroke-width="1"/>
<line x1="162.32050807568885" y1="279.1858428704214" x2="153.66025403784448" y2="274.1858428704214" stroke="black" stroke-width="1"/>
<line x1="179.6410161513776" y1="289.1858428704214" x2="174.6410161513776" y2="280.52558883257706" stroke="black" stroke-width="1"/>
<line x1="174.6410161513776" y1="280.52558883257706" x2="165.98076211353322" y2="275.52558883257706" stroke="black" stroke-width="1"/>
<line x1="174.6410161513776" y1="280.52558883257706" x2="169.6410161513776" y2="271.8653347947327" stroke="black" stroke-width="1"/>
<line x1="169.6410161513776" y1="271.8653347947327" x2="169.6410161513776" y2="261.8653347947327" stroke="black" stroke-width="1"/>
<line x1="169.6410161513776" y1="261.8653347947327" x2="174.6410161513776" y2="253.20508075688832" stroke="black" stroke-width="1"/>
<line x1="169.6410161513776" y1="261.8653347947327" x2="169.6410161513776" y2="251.8653347947327" stroke="black" stroke-width="1"/>
<line x1="169.6410161513776" y1="251.8653347947327" x2="164.64101615137758" y2="243.20508075688832" stroke="black" stroke-width="1"/>
<line x1="169.6410161513776" y1="251.8653347947327" x2="169.6410161513776" y2="241.8653347947327" stroke="black" stroke-width="1"/>
<line x1="169.6410161513776" y1="241.8653347947327" x2="174.6410161513776" y2="233.20508075688826" stroke="black" stroke-width="1"/>
<line x1="174.6410161513776" y1="233.20508075688826" x2="183.301270189222" y2="228.20508075688826" stroke="black" stroke-width="1"/>
<line x1="174.6410161513776" y1="233.20508075688826" x2="179.6410161513776" y2="224.54482671904384" stroke="black" stroke-width="1"/>
<line x1="169.6410161513776" y1="241.8653347947327" x2="169.6410161513776" y2="231.8653347947327" stroke="black" stroke-width="1"/>
<line x1="169.6410161513776" y1="231.8653347947327" x2="174.6410161513776" y2="223.20508075688826" stroke="black" stroke-width="1"/>
<line x1="169.6410161513776" y1="231.8653347947327" x2="169.6410161513776" y2="221.8653347947327" stroke="black" stroke-width="1"/>
<line x1="169.6410161513776" y1="221.8653347947327" x2="164.64101615137758" y2="213.20508075688826" stroke="black" stroke-width="1"/>
<line x1="169.6410161513776" y1="221.8653347947327" x2="169.6410161513776" y2="211.8653347947327" stroke="black" stroke-width="1"/>
<line x1="169.6410161513776" y1="211.8653347947327" x2="164.64101615137758" y2="203.20508075688826" stroke="black" stroke-width="1"/>
<line x1="164.64101615137758" y1="203.20508075688826" x2="164.64101615137758" y2="193.20508075688826" stroke="black" stroke-width="1"/>
<line x1="164.64101615137758" y1="203.20508075688826" x2="159.64101615137758" y2="194.54482671904384" stroke="black" stroke-width="1"/>
<line x1="159.64101615137758" y1="194.54482671904384" x2="150.98076211353322" y2="189.54482671904384" stroke="black" stroke-width="1"/>
<line x1="159.64101615137758" y1="194.54482671904384" x2="154.64101615137758" y2="185.88457268119942" stroke="black" stroke-width="1"/>
<line x1="169.6410161513776" y1="211.8653347947327" x2="169.6410161513776" y2="201.8653347947327" stroke="black" stroke-width="1"/>
<line x1="169.6410161513776" y1="201.8653347947327" x2="164.64101615137758" y2="193.20508075688826" stroke="black" stroke-width="1"/>
<line x1="169.6410161513776" y1="201.8653347947327" x2="169.6410161513776" y2="191.8653347947327" stroke="black" stroke-width="1"/>
<line x1="169.6410161513776" y1="191.8653347947327" x2="164.64101615137758" y2="183.20508075688826" stroke="black" stroke-width="1"/>
<line x1="164.64101615137758" y1="183.20508075688826" x2="155.98076211353322" y2="178.20508075688826" stroke="black" stroke-width="1"/>
<line x1="164.64101615137758" y1="183.20508075688826" x2="159.64101615137758" y2="174.54482671904384" stroke="black" stroke-width="1"/>
<line x1="159.64101615137758" y1="174.54482671904384" x2="159.64101615137758" y2="164.54482671904384" stroke="black" stroke-width="1"/>
<line x1="159.64101615137758" y1="164.54482671904384" x2="164.64101615137758" y2="155.88457268119942" stroke="black" stroke-width="1"/>
<line x1="159.64101615137758" y1="164.54482671904384" x2="159.64101615137758" y2="154.54482671904384" stroke="black" stroke-width="1"/>
<line x1="159.64101615137758" y1="174.54482671904384" x2="154.64101615137758" y2="165.88457268119942" stroke="black" stroke-width="1"/>
<line x1="154.64101615137758" y1="165.88457268119942" x2="154.64101615137758" y2="155.88457268119942" stroke="black" stroke-width="1"/>
<line x1="154.64101615137758" y1="165.88457268119942" x2="149.64101615137758" y2="157.224318643355" stroke="black" stroke-width="1"/>
<line x1="149.64101615137758" y1="157.224318643355" x2="140.98076211353322" y2="152.224318643355" stroke="black" stroke-width="1"/>
<line x1="149.64101615137758" y1="157.224318643355" x2="144.64101615137758" y2="148.56406460551057" stroke="black" stroke-width="1"/>
<line x1="169.6410161513776" y1="191.8653347947327" x2="169.6410161513776" y2="181.8653347947327" stroke="black" stroke-width="1"/>
<line x1="169.6410161513776" y1="181.8653347947327" x2="174.6410161513776" y2="173.20508075688826" stroke="black" stroke-width="1"/>
<line x1="169.6410161513776" y1="181.8653347947327" x2="169.6410161513776" y2="171.8653347947327" stroke="black" stroke-width="1"/>
<line x1="169.6410161513776" y1="171.8653347947327" x2="164.64101615137758" y2="163.20508075688826" stroke="black" stroke-width="1"/>
<line x1="169.6410161513776" y1="171.8653347947327" x2="169.6410161513776" y2="161.8653347947327" stroke="black" stroke-width="1"/>
<line x1="169.6410161513776" y1="161.8653347947327" x2="174.6410161513776" y2="153.20508075688826" stroke="black" stroke-width="1"/>
<line x1="174.6410161513776" y1="153.20508075688826" x2="183.301270189222" y2="148.20508075688826" stroke="black" stroke-width="1"/>
<line x1="174.6410161513776" y1="153.20508075688826" x2="179.6410161513776" y2="144.54482671904384" stroke="black" stroke-width="1"/>
<line x1="179.6410161513776" y1="144.54482671904384" x2="179.6410161513776" y2="134.54482671904384" stroke="black" stroke-width="1"/>
<line x1="179.6410161513776" y1="144.54482671904384" x2="184.6410161513776" y2="135.88457268119942" stroke="black" stroke-width="1"/>
<line x1="169.6410161513776" y1="161.8653347947327" x2="169.6410161513776" y2="151.8653347947327" stroke="black" stroke-width="1"/>
<line x1="169.6410161513776" y1="151.8653347947327" x2="174.6410161513776" y2="143.20508075688826" stroke="black" stroke-width="1"/>
<line x1="169.6410161513776" y1="151.8653347947327" x2="169.6410161513776" y2="141.8653347947327" stroke="black" stroke-width="1"/>
<line x1="169.6410161513776" y1="141.8653347947327" x2="164.64101615137758" y2="133.20508075688826" stroke="black" stroke-width="1"/>
<line x1="169.6410161513776" y1="141.8653347947327" x2="169.6410161513776" y2="131.8653347947327" stroke="black" stroke-width="1"/>
<line x1="169.6410161513776" y1="131.8653347947327" x2="164.64101615137758" y2="123.20508075688826" stroke="black" stroke-width="1"/>
<line x1="164.64101615137758" y1="123.20508075688826" x2="164.64101615137758" y2="113.20508075688826" stroke="black" stroke-width="1"/>
<line x1="164.64101615137758" y1="123.20508075688826" x2="159.64101615137758" y2="114.54482671904384" stroke="black" stroke-width="1"/>
<line x1="169.6410161513776" y1="131.8653347947327" x2="169.6410161513776" y2="121.86533479473269" stroke="black" stroke-width="1"/>
<line x1="169.6410161513776" y1="121.86533479473269" x2="174.6410161513776" y2="113.20508075688826" stroke="black" stroke-width="1"/>
<line x1="169.6410161513776" y1="121.86533479473269" x2="169.6410161513776" y2="111.86533479473269" stroke="black" stroke-width="1"/>
<line x1="169.6410161513776" y1="111.86533479473269" x2="164.64101615137758" y2="103.20508075688826" stroke="black" stroke-width="1"/>
<line x1="169.6410161513776" y1="111.86533479473269" x2="169.6410161513776" y2="101.86533479473269" stroke="black" stroke-width="1"/>
<line x1="169.6410161513776" y1="271.8653347947327" x2="164.64101615137758" y2="263.2050807568883" stroke="black" stroke-width="1"/>
<line x1="164.64101615137758" y1="263.2050807568883" x2="155.98076211353322" y2="258.2050807568883" stroke="black" stroke-width="1"/>
<line x1="164.64101615137758" y1="263.2050807568883" x2="159.64101615137758" y2="254.54482671904395" stroke="black" stroke-width="1"/>
<line x1="159.64101615137758" y1="254.54482671904395" x2="150.98076211353322" y2="249.54482671904395" stroke="black" stroke-width="1"/>
<line x1="150.98076211353322" y1="249.54482671904395" x2="145.98076211353322" y2="240.8845726811996" stroke="black" stroke-width="1"/>
<line x1="150.98076211353322" y1="249.54482671904395" x2="142.32050807568885" y2="244.54482671904395" stroke="black" stroke-width="1"/>
<line x1="159.64101615137758" y1="254.54482671904395" x2="154.64101615137758" y2="245.8845726811996" stroke="black" stroke-width="1"/>
<line x1="154.64101615137758" y1="245.8845726811996" x2="154.64101615137758" y2="235.8845726811996" stroke="black" stroke-width="1"/>
<line x1="154.64101615137758" y1="245.8845726811996" x2="149.64101615137758" y2="237.22431864335522" stroke="black" stroke-width="1"/>
<line x1="149.64101615137758" y1="237.22431864335522" x2="140.98076211353322" y2="232.22431864335522" stroke="black" stroke-width="1"/>
<line x1="149.64101615137758" y1="237.22431864335522" x2="144.64101615137758" y2="228.5640646055108" stroke="black" stroke-width="1"/>
<line x1="144.64101615137758" y1="228.5640646055108" x2="144.64101615137758" y2="218.5640646055108" stroke="black" stroke-width="1"/>
<line x1="144.64101615137758" y1="218.5640646055108" x2="149.64101615137758" y2="209.90381056766637" stroke="black" stroke-width="1"/>
<line x1="144.64101615137758" y1="218.5640646055108" x2="144.64101615137758" y2="208.5640646055108" stroke="black" stroke-width="1"/>
<line x1="144.64101615137758" y1="208.5640646055108" x2="139.64101615137758" y2="199.90381056766637" stroke="black" stroke-width="1"/>
<line x1="144.64101615137758" y1="208.5640646055108" x2="144.64101615137758" y2="198.5640646055108" stroke="black" stroke-width="1"/>
<line x1="144.64101615137758" y1="198.5640646055108" x2="139.64101615137758" y2="189.90381056766637" stroke="black" stroke-width="1"/>
<line x1="139.64101615137758" y1="189.90381056766637" x2="139.64101615137758" y2="179.90381056766637" stroke="black" stroke-width="1"/>
<line x1="139.64101615137758" y1="189.90381056766637" x2="134.64101615137758" y2="181.24355652982194" stroke="black" stroke-width="1"/>
<line x1="134.64101615137758" y1="181.24355652982194" x2="125.98076211353322" y2="176.24355652982194" stroke="black" stroke-width="1"/>
<line x1="134.64101615137758" y1="181.24355652982194" x2="129.64101615137758" y2="172.58330249197752" stroke="black" stroke-width="1"/>
<line x1="144.64101615137758" y1="198.5640646055108" x2="144.64101615137758" y2="188.5640646055108" stroke="black" stroke-width="1"/>
<line x1="144.64101615137758" y1="188.5640646055108" x2="149.64101615137758" y2="179.90381056766637" stroke="black" stroke-width="1"/>
<line x1="144.64101615137758" y1="188.5640646055108" x2="144.64101615137758" y2="178.5640646055108" stroke="black" stroke-width="1"/>
<line x1="144.64101615137758" y1="178.5640646055108" x2="139.64101615137758" y2="169.90381056766637" stroke="black" stroke-width="1"/>
<line x1="144.64101615137758" y1="178.5640646055108" x2="144.64101615137758" y2="168.5640646055108" stroke="black" stroke-width="1"/>
<line x1="144.64101615137758" y1="228.5640646055108" x2="139.64101615137758" y2="219.90381056766637" stroke="black" stroke-width="1"/>
<line x1="139.64101615137758" y1="219.90381056766637" x2="139.64101615137758" y2="209.90381056766637" stroke="black" stroke-width="1"/>
<line x1="139.64101615137758" y1="219.90381056766637" x2="134.64101615137758" y2="211.24355652982194" stroke="black" stroke-width="1"/>
<line x1="134.64101615137758" y1="211.24355652982194" x2="134.64101615137758" y2="201.24355652982194" stroke="black" stroke-width="1"/>
<line x1="134.64101615137758" y1="201.24355652982194" x2="129.64101615137758" y2="192.58330249197752" stroke="black" stroke-width="1"/>
<line x1="134.64101615137758" y1="201.24355652982194" x2="134.64101615137758" y2="191.24355652982194" stroke="black" stroke-width="1"/>
<line x1="134.64101615137758" y1="211.24355652982194" x2="129.64101615137758" y2="202.58330249197752" stroke="black" stroke-width="1"/>
<line x1="129.64101615137758" y1="202.58330249197752" x2="129.64101615137758" y2="192.58330249197752" stroke="black" stroke-width="1"/>
<line x1="129.64101615137758" y1="202.58330249197752" x2="124.6410161513776" y2="193.9230484541331" stroke="black" stroke-width="1"/>
<line x1="124.6410161513776" y1="193.9230484541331" x2="115.98076211353322" y2="188.9230484541331" stroke="black" stroke-width="1"/>
<line x1="115.98076211353322" y1="188.9230484541331" x2="105.98076211353322" y2="188.9230484541331" stroke="black" stroke-width="1"/>
<line x1="115.98076211353322" y1="188.9230484541331" x2="107.32050807568883" y2="183.9230484541331" stroke="black" stroke-width="1"/>
<line x1="107.32050807568883" y1="183.9230484541331" x2="102.32050807568883" y2="175.26279441628867" stroke="black" stroke-width="1"/>
<line x1="102.32050807568883" y1="175.26279441628867" x2="102.32050807568883" y2="165.26279441628867" stroke="black" stroke-width="1"/>
<line x1="102.32050807568883" y1="175.26279441628867" x2="97.32050807568882" y2="166.60254037844425" stroke="black" stroke-width="1"/>
<line x1="97.32050807568882" y1="166.60254037844425" x2="88.66025403784442" y2="161.60254037844425" stroke="black" stroke-width="1"/>
<line x1="97.32050807568882" y1="166.60254037844425" x2="92.32050807568882" y2="157.94228634059982" stroke="black" stroke-width="1"/>
<line x1="107.32050807568883" y1="183.9230484541331" x2="98.66025403784445" y2="178.9230484541331" stroke="black" stroke-width="1"/>
<line x1="98.66025403784445" y1="178.9230484541331" x2="93.66025403784445" y2="170.26279441628867" stroke="black" stroke-width="1"/>
<line x1="98.66025403784445" y1="178.9230484541331" x2="90.00000000000006" y2="173.9230484541331" stroke="black" stroke-width="1"/>
<line x1="90.00000000000006" y1="173.9230484541331" x2="80.00000000000006" y2="173.9230484541331" stroke="black" stroke-width="1"/>
<line x1="80.00000000000006" y1="173.9230484541331" x2="71.33974596215566" y2="168.9230484541331" stroke="black" stroke-width="1"/>
<line x1="80.00000000000006" y1="173.9230484541331" x2="70.00000000000006" y2="173.9230484541331" stroke="black" stroke-width="1"/>
<line x1="70.00000000000006" y1="173.9230484541331" x2="61.33974596215566" y2="178.9230484541331" stroke="black" stroke-width="1"/>
<line x1="70.00000000000006" y1="173.9230484541331" x2="60.00000000000006" y2="173.9230484541331" stroke="black" stroke-width="1"/>
<line x1="90.00000000000006" y1="173.9230484541331" x2="81.33974596215566" y2="168.9230484541331" stroke="black" stroke-width="1"/>
<line x1="81.33974596215566" y1="168.9230484541331" x2="76.33974596215566" y2="160.26279441628867" stroke="black" stroke-width="1"/>
<line x1="81.33974596215566" y1="168.9230484541331" x2="72.67949192431126" y2="163.9230484541331" stroke="black" stroke-width="1"/>
<line x1="124.6410161513776" y1="193.9230484541331" x2="119.6410161513776" y2="185.26279441628867" stroke="black" stroke-width="1"/>
<line x1="119.6410161513776" y1="185.26279441628867" x2="110.98076211353322" y2="180.26279441628867" stroke="black" stroke-width="1"/>
<line x1="119.6410161513776" y1="185.26279441628867" x2="114.6410161513776" y2="176.60254037844425" stroke="black" stroke-width="1"/>
<line x1="114.6410161513776" y1="176.60254037844425" x2="114.6410161513776" y2="166.60254037844425" stroke="black" stroke-width="1"/>
<line x1="114.6410161513776" y1="166.60254037844425" x2="119.6410161513776" y2="157.94228634059982" stroke="black" stroke-width="1"/>
<line x1="114.6410161513776" y1="166.60254037844425" x2="114.6410161513776" y2="156.60254037844425" stroke="black" stroke-width="1"/>
<line x1="114.6410161513776" y1="156.60254037844425" x2="109.6410161513776" y2="147.94228634059982" stroke="black" stroke-width="1"/>
<line x1="114.6410161513776" y1="156.60254037844425" x2="114.6410161513776" y2="146.60254037844425" stroke="black" stroke-width="1"/>
<line x1="114.6410161513776" y1="176.60254037844425" x2="109.6410161513776" y2="167.94228634059982" stroke="black" stroke-width="1"/>
<line x1="109.6410161513776" y1="167.94228634059982" x2="100.98076211353322" y2="162.94228634059982" stroke="black" stroke-width="1"/>
<line x1="109.6410161513776" y1="167.94228634059982" x2="104.6410161513776" y2="159.2820323027554" stroke="black" stroke-width="1"/>
<line x1="104.6410161513776" y1="159.2820323027554" x2="95.98076211353322" y2="154.2820323027554" stroke="black" stroke-width="1"/>
<line x1="95.98076211353322" y1="154.2820323027554" x2="90.98076211353322" y2="145.62177826491097" stroke="black" stroke-width="1"/>
<line x1="95.98076211353322" y1="154.2820323027554" x2="87.32050807568882" y2="149.2820323027554" stroke="black" stroke-width="1"/>
<line x1="87.32050807568882" y1="149.2820323027554" x2="77.32050807568882" y2="149.2820323027554" stroke="black" stroke-width="1"/>
<line x1="87.32050807568882" y1="149.2820323027554" x2="78.66025403784442" y2="144.2820323027554" stroke="black" stroke-width="1"/>
<line x1="104.6410161513776" y1="159.2820323027554" x2="99.64101615137758" y2="150.62177826491097" stroke="black" stroke-width="1"/>
<line x1="99.64101615137758" y1="150.62177826491097" x2="90.98076211353319" y2="145.62177826491097" stroke="black" stroke-width="1"/>
<line x1="99.64101615137758" y1="150.62177826491097" x2="94.64101615137758" y2="141.96152422706655" stroke="black" stroke-width="1"/>
<line x1="94.64101615137758" y1="141.96152422706655" x2="85.98076211353319" y2="136.96152422706655" stroke="black" stroke-width="1"/>
<line x1="85.98076211353319" y1="136.96152422706655" x2="80.98076211353319" y2="128.30127018922212" stroke="black" stroke-width="1"/>
<line x1="85.98076211353319" y1="136.96152422706655" x2="77.32050807568879" y2="131.96152422706655" stroke="black" stroke-width="1"/>
<line x1="77.32050807568879" y1="131.96152422706655" x2="67.32050807568879" y2="131.96152422706655" stroke="black" stroke-width="1"/>
<line x1="67.32050807568879" y1="131.96152422706655" x2="58.660254037844396" y2="126.96152422706655" stroke="black" stroke-width="1"/>
<line x1="67.32050807568879" y1="131.96152422706655" x2="57.32050807568879" y2="131.96152422706655" stroke="black" stroke-width="1"/>
<line x1="77.32050807568879" y1="131.96152422706655" x2="68.6602540378444" y2="126.96152422706655" stroke="black" stroke-width="1"/>
<line x1="68.6602540378444" y1="126.96152422706655" x2="63.660254037844396" y2="118.30127018922212" stroke="black" stroke-width="1"/>
<line x1="68.6602540378444" y1="126.96152422706655" x2="60.0" y2="121.96152422706655" stroke="black" stroke-width="1"/>
<line x1="60.0" y1="121.96152422706655" x2="50.0" y2="121.96152422706655" stroke="black" stroke-width="1"/>
<line x1="60.0" y1="121.96152422706655" x2="51.339745962155604" y2="116.96152422706655" stroke="black" stroke-width="1"/>
<line x1="51.339745962155604" y1="116.96152422706655" x2="41.339745962155604" y2="116.96152422706655" stroke="black" stroke-width="1"/>
<line x1="41.339745962155604" y1="116.96152422706655" x2="32.67949192431121" y2="121.96152422706655" stroke="black" stroke-width="1"/>
<line x1="41.339745962155604" y1="116.96152422706655" x2="31.339745962155604" y2="116.96152422706655" stroke="black" stroke-width="1"/>
<line x1="31.339745962155604" y1="116.96152422706655" x2="22.679491924311208" y2="121.96152422706655" stroke="black" stroke-width="1"/>
<line x1="22.679491924311208" y1="121.96152422706655" x2="12.679491924311208" y2="121.96152422706655" stroke="black" stroke-width="1"/>
<line x1="22.679491924311208" y1="121.96152422706655" x2="14.019237886466811" y2="126.96152422706655" stroke="black" stroke-width="1"/>
<line x1="14.019237886466811" y1="126.96152422706655" x2="9.019237886466811" y2="135.62177826491097" stroke="black" stroke-width="1"/>
<line x1="14.019237886466811" y1="126.96152422706655" x2="5.358983848622415" y2="131.96152422706655" stroke="black" stroke-width="1"/>
<line x1="31.339745962155604" y1="116.96152422706655" x2="21.339745962155604" y2="116.96152422706655" stroke="black" stroke-width="1"/>
<line x1="21.339745962155604" y1="116.96152422706655" x2="12.679491924311208" y2="111.96152422706655" stroke="black" stroke-width="1"/>
<line x1="21.339745962155604" y1="116.96152422706655" x2="11.339745962155604" y2="116.96152422706655" stroke="black" stroke-width="1"/>
<line x1="51.339745962155604" y1="116.96152422706655" x2="42.67949192431121" y2="111.96152422706655" stroke="black" stroke-width="1"/>
<line x1="42.67949192431121" y1="111.96152422706655" x2="37.67949192431121" y2="103.30127018922212" stroke="black" stroke-width="1"/>
<line x1="42.67949192431121" y1="111.96152422706655" x2="34.01923788646681" y2="106.96152422706655" stroke="black" stroke-width="1"/>
<line x1="34.01923788646681" y1="106.96152422706655" x2="24.01923788646681" y2="106.96152422706655" stroke="black" stroke-width="1"/>
<line x1="24.01923788646681" y1="106.96152422706655" x2="15.358983848622415" y2="101.96152422706655" stroke="black" stroke-width="1"/>
<line x1="24.01923788646681" y1="106.96152422706655" x2="14.019237886466811" y2="106.96152422706655" stroke="black" stroke-width="1"/>
<line x1="34.01923788646681" y1="106.96152422706655" x2="25.358983848622415" y2="101.96152422706655" stroke="black" stroke-width="1"/>
<line x1="25.358983848622415" y1="101.96152422706655" x2="15.358983848622415" y2="101.96152422706655" stroke="black" stroke-width="1"/>
<line x1="25.358983848622415" y1="101.96152422706655" x2="16.69872981077802" y2="96.96152422706655" stroke="black" stroke-width="1"/>
<line x1="94.64101615137758" y1="141.96152422706655" x2="89.64101615137758" y2="133.30127018922212" stroke="black" stroke-width="1"/>
<line x1="89.64101615137758" y1="133.30127018922212" x2="89.64101615137758" y2="123.30127018922212" stroke="black" stroke-width="1"/>
<line x1="89.64101615137758" y1="133.30127018922212" x2="84.64101615137758" y2="124.6410161513777" stroke="black" stroke-width="1"/>
<line x1="84.64101615137758" y1="124.6410161513777" x2="84.64101615137758" y2="114.6410161513777" stroke="black" stroke-width="1"/>
<line x1="84.64101615137758" y1="114.6410161513777" x2="89.64101615137758" y2="105.98076211353327" stroke="black" stroke-width="1"/>
<line x1="84.64101615137758" y1="114.6410161513777" x2="84.64101615137758" y2="104.6410161513777" stroke="black" stroke-width="1"/>
<line x1="84.64101615137758" y1="124.6410161513777" x2="79.64101615137758" y2="115.98076211353327" stroke="black" stroke-width="1"/>
<line x1="79.64101615137758" y1="115.98076211353327" x2="70.98076211353319" y2="110.98076211353327" stroke="black" stroke-width="1"/>
<line x1="79.64101615137758" y1="115.98076211353327" x2="74.64101615137758" y2="107.32050807568885" stroke="black" stroke-width="1"/>
<line x1="74.64101615137758" y1="107.32050807568885" x2="65.98076211353319" y2="102.32050807568885" stroke="black" stroke-width="1"/>
<line x1="65.98076211353319" y1="102.32050807568885" x2="60.98076211353319" y2="93.66025403784442" stroke="black" stroke-width="1"/>
<line x1="65.98076211353319" y1="102.32050807568885" x2="57.32050807568879" y2="97.32050807568885" stroke="black" stroke-width="1"/>
<line x1="74.64101615137758" y1="107.32050807568885" x2="69.64101615137758" y2="98.66025403784442" stroke="black" stroke-width="1"/>
<line x1="69.64101615137758" y1="98.66025403784442" x2="69.64101615137758" y2="88.66025403784442" stroke="black" stroke-width="1"/>
<line x1="69.64101615137758" y1="98.66025403784442" x2="64.64101615137758" y2="90.0" stroke="black" stroke-width="1"/>
<line x1="64.64101615137758" y1="90.0" x2="64.64101615137758" y2="80.0" stroke="black" stroke-width="1"/>
<line x1="64.64101615137758" y1="80.0" x2="69.64101615137758" y2="71.33974596215558" stroke="black" stroke-width="1"/>
<line x1="64.64101615137758" y1="80.0" x2="64.64101615137758" y2="70.0" stroke="black" stroke-width="1"/>
<line x1="64.64101615137758" y1="70.0" x2="59.641016151377585" y2="61.339745962155575" stroke="black" stroke-width="1"/>
<line x1="64.64101615137758" y1="70.0" x2="64.64101615137758" y2="60.0" stroke="black" stroke-width="1"/>
<line x1="64.64101615137758" y1="60.0" x2="69.64101615137758" y2="51.339745962155575" stroke="black" stroke-width="1"/>
<line x1="69.64101615137758" y1="51.339745962155575" x2="69.64101615137758" y2="41.339745962155575" stroke="black" stroke-width="1"/>
<line x1="69.64101615137758" y1="51.339745962155575" x2="74.64101615137758" y2="42.67949192431115" stroke="black" stroke-width="1"/>
<line x1="64.64101615137758" y1="60.0" x2="64.64101615137758" y2="50.0" stroke="black" stroke-width="1"/>
<line x1="64.64101615137758" y1="50.0" x2="69.64101615137758" y2="41.339745962155575" stroke="black" stroke-width="1"/>
<line x1="64.64101615137758" y1="50.0" x2="64.64101615137758" y2="40.0" stroke="black" stroke-width="1"/>
<line x1="64.64101615137758" y1="40.0" x2="59.641016151377585" y2="31.339745962155575" stroke="black" stroke-width="1"/>
<line x1="64.64101615137758" y1="40.0" x2="64.64101615137758" y2="30.0" stroke="black" stroke-width="1"/>
<line x1="64.64101615137758" y1="30.0" x2="59.641016151377585" y2="21.339745962155575" stroke="black" stroke-width="1"/>
<line x1="59.641016151377585" y1="21.339745962155575" x2="50.98076211353319" y2="16.339745962155575" stroke="black" stroke-width="1"/>
<line x1="59.641016151377585" y1="21.339745962155575" x2="54.641016151377585" y2="12.67949192431115" stroke="black" stroke-width="1"/>
<line x1="64.64101615137758" y1="30.0" x2="64.64101615137758" y2="20.0" stroke="black" stroke-width="1"/>
<line x1="64.64101615137758" y1="20.0" x2="69.64101615137758" y2="11.339745962155575" stroke="black" stroke-width="1"/>
<line x1="64.64101615137758" y1="20.0" x2="64.64101615137758" y2="10.0" stroke="black" stroke-width="1"/>
<line x1="64.64101615137758" y1="10.0" x2="59.641016151377585" y2="1.3397459621555754" stroke="black" stroke-width="1"/>
<line x1="64.64101615137758" y1="10.0" x2="64.64101615137758" y2="0.0" stroke="black" stroke-width="1"/>
<line x1="64.64101615137758" y1="90.0" x2="59.641016151377585" y2="81.33974596215558" stroke="black" stroke-width="1"/>
<line x1="59.641016151377585" y1="81.33974596215558" x2="59.641016151377585" y2="71.33974596215558" stroke="black" stroke-width="1"/>
<line x1="59.641016151377585" y1="81.33974596215558" x2="54.641016151377585" y2="72.67949192431115" stroke="black" stroke-width="1"/>
<line x1="54.641016151377585" y1="72.67949192431115" x2="54.641016151377585" y2="62.67949192431115" stroke="black" stroke-width="1"/>
<line x1="54.641016151377585" y1="62.67949192431115" x2="59.641016151377585" y2="54.019237886466726" stroke="black" stroke-width="1"/>
<line x1="54.641016151377585" y1="62.67949192431115" x2="54.641016151377585" y2="52.67949192431115" stroke="black" stroke-width="1"/>
<line x1="54.641016151377585" y1="52.67949192431115" x2="49.641016151377585" y2="44.019237886466726" stroke="black" stroke-width="1"/>
<line x1="54.641016151377585" y1="52.67949192431115" x2="54.641016151377585" y2="42.67949192431115" stroke="black" stroke-width="1"/>
<line x1="54.641016151377585" y1="72.67949192431115" x2="49.641016151377585" y2="64.01923788646673" stroke="black" stroke-width="1"/>
<line x1="49.641016151377585" y1="64.01923788646673" x2="40.98076211353319" y2="59.019237886466726" stroke="black" stroke-width="1"/>
<line x1="49.641016151377585" y1="64.01923788646673" x2="44.641016151377585" y2="55.3589838486223" stroke="black" stroke-width="1"/>
<line x1="44.641016151377585" y1="55.3589838486223" x2="35.98076211353319" y2="50.3589838486223" stroke="black" stroke-width="1"/>
<line x1="35.98076211353319" y1="50.3589838486223" x2="25.98076211353319" y2="50.3589838486223" stroke="black" stroke-width="1"/>
<line x1="35.98076211353319" y1="50.3589838486223" x2="27.320508075688792" y2="45.3589838486223" stroke="black" stroke-width="1"/>
<line x1="27.320508075688792" y1="45.3589838486223" x2="17.320508075688792" y2="45.3589838486223" stroke="black" stroke-width="1"/>
<line x1="17.320508075688792" y1="45.3589838486223" x2="8.660254037844396" y2="50.3589838486223" stroke="black" stroke-width="1"/>
<line x1="17.320508075688792" y1="45.3589838486223" x2="7.320508075688792" y2="45.3589838486223" stroke="black" stroke-width="1"/>
<line x1="27.320508075688792" y1="45.3589838486223" x2="18.660254037844396" y2="40.3589838486223" stroke="black" stroke-width="1"/>
<line x1="18.660254037844396" y1="40.3589838486223" x2="13.660254037844396" y2="31.698729810777877" stroke="black" stroke-width="1"/>
<line x1="18.660254037844396" y1="40.3589838486223" x2="10.0" y2="35.3589838486223" stroke="black" stroke-width="1"/>
<line x1="10.0" y1="35.3589838486223" x2="0.0" y2="35.3589838486223" stroke="black" stroke-width="1"/>
<line x1="10.0" y1="35.3589838486223" x2="1.3397459621556038" y2="30.3589838486223" stroke="black" stroke-width="1"/>
<line x1="44.641016151377585" y1="55.3589838486223" x2="39.641016151377585" y2="46.69872981077788" stroke="black" stroke-width="1"/>
<line x1="39.641016151377585" y1="46.69872981077788" x2="30.98076211353319" y2="41.69872981077788" stroke="black" stroke-width="1"/>
<line x1="39.641016151377585" y1="46.69872981077788" x2="34.641016151377585" y2="38.03847577293345" stroke="black" stroke-width="1"/>
<line x1="34.641016151377585" y1="38.03847577293345" x2="34.641016151377585" y2="28.038475772933452" stroke="black" stroke-width="1"/>
<line x1="34.641016151377585" y1="28.038475772933452" x2="29.641016151377585" y2="19.378221735089028" stroke="black" stroke-width="1"/>
<line x1="34.641016151377585" y1="28.038475772933452" x2="34.641016151377585" y2="18.038475772933452" stroke="black" stroke-width="1"/>
<line x1="34.641016151377585" y1="38.03847577293345" x2="29.641016151377585" y2="29.378221735089028" stroke="black" stroke-width="1"/>
<line x1="29.641016151377585" y1="29.378221735089028" x2="20.98076211353319" y2="24.378221735089028" stroke="black" stroke-width="1"/>
<line x1="29.641016151377585" y1="29.378221735089028" x2="24.641016151377585" y2="20.717967697244603" stroke="black" stroke-width="1"/>
<line x1="229.64101615137767" y1="375.7883832488651" x2="229.64101615137767" y2="365.7883832488651" stroke="black" stroke-width="1"/>
<line x1="229.64101615137767" y1="365.7883832488651" x2="234.64101615137767" y2="357.12812921102073" stroke="black" stroke-width="1"/>
<line x1="229.64101615137767" y1="365.7883832488651" x2="229.64101615137767" y2="355.7883832488651" stroke="black" stroke-width="1"/>
<line x1="229.64101615137767" y1="355.7883832488651" x2="234.64101615137767" y2="347.12812921102073" stroke="black" stroke-width="1"/>
<line x1="234.64101615137767" y1="347.12812921102073" x2="243.30127018922207" y2="342.12812921102073" stroke="black" stroke-width="1"/>
<line x1="234.64101615137767" y1="347.12812921102073" x2="239.64101615137767" y2="338.46787517317637" stroke="black" stroke-width="1"/>
<line x1="239.64101615137767" y1="338.46787517317637" x2="239.64101615137767" y2="328.46787517317637" stroke="black" stroke-width="1"/>
<line x1="239.64101615137767" y1="338.46787517317637" x2="244.64101615137767" y2="329.807621135332" stroke="black" stroke-width="1"/>
<line x1="229.64101615137767" y1="355.7883832488651" x2="229.64101615137767" y2="345.7883832488651" stroke="black" stroke-width="1"/>
<line x1="229.64101615137767" y1="345.7883832488651" x2="234.64101615137767" y2="337.12812921102073" stroke="black" stroke-width="1"/>
<line x1="229.64101615137767" y1="345.7883832488651" x2="229.64101615137767" y2="335.7883832488651" stroke="black" stroke-width="1"/>
<line x1="229.64101615137767" y1="335.7883832488651" x2="234.64101615137767" y2="327.12812921102073" stroke="black" stroke-width="1"/>
<line x1="234.64101615137767" y1="327.12812921102073" x2="243.30127018922207" y2="322.12812921102073" stroke="black" stroke-width="1"/>
<line x1="234.64101615137767" y1="327.12812921102073" x2="239.64101615137767" y2="318.46787517317637" stroke="black" stroke-width="1"/>
<line x1="239.64101615137767" y1="318.46787517317637" x2="239.64101615137767" y2="308.46787517317637" stroke="black" stroke-width="1"/>
<line x1="239.64101615137767" y1="318.46787517317637" x2="244.64101615137767" y2="309.807621135332" stroke="black" stroke-width="1"/>
<line x1="244.64101615137767" y1="309.807621135332" x2="253.30127018922207" y2="304.807621135332" stroke="black" stroke-width="1"/>
<line x1="253.30127018922207" y1="304.807621135332" x2="263.30127018922207" y2="304.807621135332" stroke="black" stroke-width="1"/>
<line x1="253.30127018922207" y1="304.807621135332" x2="261.96152422706643" y2="299.807621135332" stroke="black" stroke-width="1"/>
<line x1="261.96152422706643" y1="299.807621135332" x2="266.96152422706643" y2="291.14736709748763" stroke="black" stroke-width="1"/>
<line x1="261.96152422706643" y1="299.807621135332" x2="270.6217782649108" y2="294.807621135332" stroke="black" stroke-width="1"/>
<line x1="244.64101615137767" y1="309.807621135332" x2="249.64101615137767" y2="301.14736709748763" stroke="black" stroke-width="1"/>
<line x1="249.64101615137767" y1="301.14736709748763" x2="258.30127018922207" y2="296.14736709748763" stroke="black" stroke-width="1"/>
<line x1="249.64101615137767" y1="301.14736709748763" x2="254.64101615137767" y2="292.48711305964326" stroke="black" stroke-width="1"/>
<line x1="229.64101615137767" y1="335.7883832488651" x2="229.64101615137767" y2="325.7883832488651" stroke="black" stroke-width="1"/>
<line x1="229.64101615137767" y1="325.7883832488651" x2="234.64101615137767" y2="317.12812921102073" stroke="black" stroke-width="1"/>
<line x1="229.64101615137767" y1="325.7883832488651" x2="229.64101615137767" y2="315.7883832488651" stroke="black" stroke-width="1"/>
<line x1="229.64101615137767" y1="315.7883832488651" x2="224.64101615137767" y2="307.12812921102073" stroke="black" stroke-width="1"/>
<line x1="229.64101615137767" y1="315.7883832488651" x2="229.64101615137767" y2="305.7883832488651" stroke="black" stroke-width="1"/>
<line x1="229.64101615137767" y1="305.7883832488651" x2="234.64101615137767" y2="297.12812921102073" stroke="black" stroke-width="1"/>
<line x1="234.64101615137767" y1="297.12812921102073" x2="243.30127018922207" y2="292.12812921102073" stroke="black" stroke-width="1"/>
<line x1="234.64101615137767" y1="297.12812921102073" x2="239.64101615137767" y2="288.46787517317637" stroke="black" stroke-width="1"/>
<line x1="229.64101615137767" y1="305.7883832488651" x2="229.64101615137767" y2="295.7883832488651" stroke="black" stroke-width="1"/>
<line x1="229.64101615137767" y1="295.7883832488651" x2="224.64101615137767" y2="287.12812921102073" stroke="black" stroke-width="1"/>
<line x1="229.64101615137767" y1="295.7883832488651" x2="229.64101615137767" y2="285.7883832488651" stroke="black" stroke-width="1"/>
<line x1="229.64101615137767" y1="285.7883832488651" x2="224.64101615137767" y2="277.12812921102073" stroke="black" stroke-width="1"/>
<line x1="224.64101615137767" y1="277.12812921102073" x2="224.64101615137767" y2="267.12812921102073" stroke="black" stroke-width="1"/>
<line x1="224.64101615137767" y1="277.12812921102073" x2="219.64101615137767" y2="268.46787517317637" stroke="black" stroke-width="1"/>
<line x1="219.64101615137767" y1="268.46787517317637" x2="210.98076211353327" y2="263.46787517317637" stroke="black" stroke-width="1"/>
<line x1="219.64101615137767" y1="268.46787517317637" x2="214.64101615137764" y2="259.807621135332" stroke="black" stroke-width="1"/>
<line x1="229.64101615137767" y1="285.7883832488651" x2="229.64101615137767" y2="275.7883832488651" stroke="black" stroke-width="1"/>
<line x1="229.64101615137767" y1="275.7883832488651" x2="234.64101615137767" y2="267.12812921102073" stroke="black" stroke-width="1"/>
<line x1="229.64101615137767" y1="275.7883832488651" x2="229.64101615137767" y2="265.7883832488651" stroke="black" stroke-width="1"/>
<line x1="229.64101615137767" y1="265.7883832488651" x2="224.64101615137767" y2="257.12812921102073" stroke="black" stroke-width="1"/>
<line x1="229.64101615137767" y1="265.7883832488651" x2="229.64101615137767" y2="255.7883832488651" stroke="black" stroke-width="1"/>
<line x1="229.64101615137767" y1="255.7883832488651" x2="224.64101615137767" y2="247.12812921102073" stroke="black" stroke-width="1"/>
<line x1="224.64101615137767" y1="247.12812921102073" x2="224.64101615137767" y2="237.12812921102073" stroke="black" stroke-width="1"/>
<line x1="224.64101615137767" y1="247.12812921102073" x2="219.64101615137767" y2="238.46787517317637" stroke="black" stroke-width="1"/>
<line x1="219.64101615137767" y1="238.46787517317637" x2="219.64101615137767" y2="228.46787517317637" stroke="black" stroke-width="1"/>
<line x1="219.64101615137767" y1="228.46787517317637" x2="214.64101615137764" y2="219.80762113533194" stroke="black" stroke-width="1"/>
<line x1="219.64101615137767" y1="228.46787517317637" x2="219.64101615137767" y2="218.46787517317637" stroke="black" stroke-width="1"/>
<line x1="219.64101615137767" y1="238.46787517317637" x2="214.64101615137764" y2="229.80762113533194" stroke="black" stroke-width="1"/>
<line x1="214.64101615137764" y1="229.80762113533194" x2="205.98076211353327" y2="224.80762113533194" stroke="black" stroke-width="1"/>
<line x1="214.64101615137764" y1="229.80762113533194" x2="209.64101615137764" y2="221.14736709748752" stroke="black" stroke-width="1"/>
<line x1="229.64101615137767" y1="255.7883832488651" x2="229.64101615137767" y2="245.7883832488651" stroke="black" stroke-width="1"/>
<line x1="229.64101615137767" y1="245.7883832488651" x2="234.64101615137767" y2="237.12812921102073" stroke="black" stroke-width="1"/>
<line x1="229.64101615137767" y1="245.7883832488651" x2="229.64101615137767" y2="235.7883832488651" stroke="black" stroke-width="1"/>
<line x1="229.64101615137767" y1="235.7883832488651" x2="234.64101615137767" y2="227.12812921102068" stroke="black" stroke-width="1"/>
<line x1="234.64101615137767" y1="227.12812921102068" x2="234.64101615137767" y2="217.12812921102068" stroke="black" stroke-width="1"/>
<line x1="234.64101615137767" y1="227.12812921102068" x2="239.64101615137767" y2="218.46787517317625" stroke="black" stroke-width="1"/>
<line x1="229.64101615137767" y1="235.7883832488651" x2="229.64101615137767" y2="225.7883832488651" stroke="black" stroke-width="1"/>
<line x1="229.64101615137767" y1="225.7883832488651" x2="234.64101615137767" y2="217.12812921102068" stroke="black" stroke-width="1"/>
<line x1="229.64101615137767" y1="225.7883832488651" x2="229.64101615137767" y2="215.7883832488651" stroke="black" stroke-width="1"/>
<line x1="229.64101615137767" y1="215.7883832488651" x2="224.64101615137767" y2="207.12812921102068" stroke="black" stroke-width="1"/>
<line x1="224.64101615137767" y1="207.12812921102068" x2="224.64101615137767" y2="197.12812921102068" stroke="black" stroke-width="1"/>
<line x1="224.64101615137767" y1="207.12812921102068" x2="219.64101615137767" y2="198.46787517317625" stroke="black" stroke-width="1"/>
<line x1="229.64101615137767" y1="215.7883832488651" x2="229.64101615137767" y2="205.7883832488651" stroke="black" stroke-width="1"/>
<line x1="229.64101615137767" y1="205.7883832488651" x2="234.64101615137767" y2="197.12812921102068" stroke="black" stroke-width="1"/>
<line x1="229.64101615137767" y1="205.7883832488651" x2="229.64101615137767" y2="195.7883832488651" stroke="black" stroke-width="1"/>
<line x1="229.64101615137767" y1="195.7883832488651" x2="224.64101615137767" y2="187.12812921102068" stroke="black" stroke-width="1"/>
<line x1="229.64101615137767" y1="195.7883832488651" x2="229.64101615137767" y2="185.7883832488651" stroke="black" stroke-width="1"/>
<line x1="229.64101615137767" y1="185.7883832488651" x2="224.64101615137767" y2="177.12812921102068" stroke="black" stroke-width="1"/>
<line x1="224.64101615137767" y1="177.12812921102068" x2="224.64101615137767" y2="167.12812921102068" stroke="black" stroke-width="1"/>
<line x1="224.64101615137767" y1="177.12812921102068" x2="219.64101615137767" y2="168.46787517317625" stroke="black" stroke-width="1"/>
<line x1="219.64101615137767" y1="168.46787517317625" x2="210.98076211353327" y2="163.46787517317625" stroke="black" stroke-width="1"/>
<line x1="210.98076211353327" y1="163.46787517317625" x2="205.98076211353327" y2="154.80762113533183" stroke="black" stroke-width="1"/>
<line x1="210.98076211353327" y1="163.46787517317625" x2="202.32050807568888" y2="158.46787517317625" stroke="black" stroke-width="1"/>
<line x1="202.32050807568888" y1="158.46787517317625" x2="192.3205080756889" y2="158.46787517317625" stroke="black" stroke-width="1"/>
<line x1="202.32050807568888" y1="158.46787517317625" x2="193.6602540378445" y2="153.46787517317625" stroke="black" stroke-width="1"/>
<line x1="219.64101615137767" y1="168.46787517317625" x2="214.64101615137764" y2="159.80762113533183" stroke="black" stroke-width="1"/>
<line x1="214.64101615137764" y1="159.80762113533183" x2="214.64101615137764" y2="149.80762113533183" stroke="black" stroke-width="1"/>
<line x1="214.64101615137764" y1="159.80762113533183" x2="209.64101615137764" y2="151.1473670974874" stroke="black" stroke-width="1"/>
<line x1="209.64101615137764" y1="151.1473670974874" x2="200.98076211353327" y2="146.1473670974874" stroke="black" stroke-width="1"/>
<line x1="200.98076211353327" y1="146.1473670974874" x2="190.98076211353327" y2="146.1473670974874" stroke="black" stroke-width="1"/>
<line x1="200.98076211353327" y1="146.1473670974874" x2="192.32050807568888" y2="141.1473670974874" stroke="black" stroke-width="1"/>
<line x1="192.32050807568888" y1="141.1473670974874" x2="187.32050807568888" y2="132.48711305964298" stroke="black" stroke-width="1"/>
<line x1="187.32050807568888" y1="132.48711305964298" x2="187.32050807568888" y2="122.48711305964298" stroke="black" stroke-width="1"/>
<line x1="187.32050807568888" y1="132.48711305964298" x2="182.32050807568885" y2="123.82685902179855" stroke="black" stroke-width="1"/>
<line x1="192.32050807568888" y1="141.1473670974874" x2="183.66025403784448" y2="136.1473670974874" stroke="black" stroke-width="1"/>
<line x1="183.66025403784448" y1="136.1473670974874" x2="178.66025403784448" y2="127.48711305964298" stroke="black" stroke-width="1"/>
<line x1="183.66025403784448" y1="136.1473670974874" x2="175.0000000000001" y2="131.1473670974874" stroke="black" stroke-width="1"/>
<line x1="175.0000000000001" y1="131.1473670974874" x2="165.0000000000001" y2="131.1473670974874" stroke="black" stroke-width="1"/>
<line x1="175.0000000000001" y1="131.1473670974874" x2="166.33974596215575" y2="126.1473670974874" stroke="black" stroke-width="1"/>
<line x1="166.33974596215575" y1="126.1473670974874" x2="156.33974596215575" y2="126.1473670974874" stroke="black" stroke-width="1"/>
<line x1="156.33974596215575" y1="126.1473670974874" x2="147.67949192431135" y2="121.1473670974874" stroke="black" stroke-width="1"/>
<line x1="156.33974596215575" y1="126.1473670974874" x2="146.33974596215575" y2="126.1473670974874" stroke="black" stroke-width="1"/>
<line x1="166.33974596215575" y1="126.1473670974874" x2="157.67949192431135" y2="121.1473670974874" stroke="black" stroke-width="1"/>
<line x1="157.67949192431135" y1="121.1473670974874" x2="152.67949192431135" y2="112.48711305964298" stroke="black" stroke-width="1"/>
<line x1="157.67949192431135" y1="121.1473670974874" x2="149.01923788646695" y2="116.1473670974874" stroke="black" stroke-width="1"/>
<line x1="209.64101615137764" y1="151.1473670974874" x2="204.64101615137764" y2="142.48711305964298" stroke="black" stroke-width="1"/>
<line x1="204.64101615137764" y1="142.48711305964298" x2="195.98076211353327" y2="137.48711305964298" stroke="black" stroke-width="1"/>
<line x1="204.64101615137764" y1="142.48711305964298" x2="199.64101615137764" y2="133.82685902179855" stroke="black" stroke-width="1"/>
<line x1="199.64101615137764" y1="133.82685902179855" x2="199.64101615137764" y2="123.82685902179855" stroke="black" stroke-width="1"/>
<line x1="199.64101615137764" y1="123.82685902179855" x2="204.64101615137764" y2="115.16660498395413" stroke="black" stroke-width="1"/>
<line x1="199.64101615137764" y1="123.82685902179855" x2="199.64101615137764" y2="113.82685902179855" stroke="black" stroke-width="1"/>
<line x1="199.64101615137764" y1="113.82685902179855" x2="194.64101615137764" y2="105.16660498395413" stroke="black" stroke-width="1"/>
<line x1="199.64101615137764" y1="113.82685902179855" x2="199.64101615137764" y2="103.82685902179855" stroke="black" stroke-width="1"/>
<line x1="199.64101615137764" y1="133.82685902179855" x2="194.64101615137764" y2="125.16660498395413" stroke="black" stroke-width="1"/>
<line x1="194.64101615137764" y1="125.16660498395413" x2="194.64101615137764" y2="115.16660498395413" stroke="black" stroke-width="1"/>
<line x1="194.64101615137764" y1="125.16660498395413" x2="189.64101615137764" y2="116.5063509461097" stroke="black" stroke-width="1"/>
<line x1="229.64101615137767" y1="185.7883832488651" x2="229.64101615137767" y2="175.7883832488651" stroke="black" stroke-width="1"/>
<line x1="229.64101615137767" y1="175.7883832488651" x2="234.64101615137767" y2="167.12812921102068" stroke="black" stroke-width="1"/>
<line x1="229.64101615137767" y1="175.7883832488651" x2="229.64101615137767" y2="165.7883832488651" stroke="black" stroke-width="1"/>
<line x1="229.64101615137767" y1="165.7883832488651" x2="234.64101615137767" y2="157.12812921102068" stroke="black" stroke-width="1"/>
<line x1="234.64101615137767" y1="157.12812921102068" x2="243.30127018922207" y2="152.12812921102068" stroke="black" stroke-width="1"/>
<line x1="234.64101615137767" y1="157.12812921102068" x2="239.64101615137767" y2="148.46787517317625" stroke="black" stroke-width="1"/>
<line x1="239.64101615137767" y1="148.46787517317625" x2="239.64101615137767" y2="138.46787517317625" stroke="black" stroke-width="1"/>
<line x1="239.64101615137767" y1="148.46787517317625" x2="244.64101615137767" y2="139.80762113533183" stroke="black" stroke-width="1"/>
<line x1="229.64101615137767" y1="165.7883832488651" x2="229.64101615137767" y2="155.7883832488651" stroke="black" stroke-width="1"/>
<line x1="229.64101615137767" y1="155.7883832488651" x2="224.64101615137767" y2="147.12812921102068" stroke="black" stroke-width="1"/>
<line x1="229.64101615137767" y1="155.7883832488651" x2="229.64101615137767" y2="145.7883832488651" stroke="black" stroke-width="1"/>
<line x1="229.64101615137767" y1="145.7883832488651" x2="234.64101615137767" y2="137.12812921102068" stroke="black" stroke-width="1"/>
<line x1="234.64101615137767" y1="137.12812921102068" x2="234.64101615137767" y2="127.12812921102068" stroke="black" stroke-width="1"/>
<line x1="234.64101615137767" y1="137.12812921102068" x2="239.64101615137767" y2="128.46787517317625" stroke="black" stroke-width="1"/>
<line x1="239.64101615137767" y1="128.46787517317625" x2="239.64101615137767" y2="118.46787517317625" stroke="black" stroke-width="1"/>
<line x1="239.64101615137767" y1="118.46787517317625" x2="244.64101615137767" y2="109.80762113533183" stroke="black" stroke-width="1"/>
<line x1="239.64101615137767" y1="118.46787517317625" x2="239.64101615137767" y2="108.46787517317625" stroke="black" stroke-width="1"/>
<line x1="239.64101615137767" y1="128.46787517317625" x2="244.64101615137767" y2="119.80762113533183" stroke="black" stroke-width="1"/>
<line x1="244.64101615137767" y1="119.80762113533183" x2="253.30127018922207" y2="114.80762113533183" stroke="black" stroke-width="1"/>
<line x1="244.64101615137767" y1="119.80762113533183" x2="249.64101615137767" y2="111.1473670974874" stroke="black" stroke-width="1"/>
<line x1="249.64101615137767" y1="111.1473670974874" x2="249.64101615137767" y2="101.1473670974874" stroke="black" stroke-width="1"/>
<line x1="249.64101615137767" y1="111.1473670974874" x2="254.64101615137767" y2="102.48711305964298" stroke="black" stroke-width="1"/>
<line x1="229.64101615137767" y1="145.7883832488651" x2="229.64101615137767" y2="135.7883832488651" stroke="black" stroke-width="1"/>
<line x1="229.64101615137767" y1="135.7883832488651" x2="234.64101615137767" y2="127.12812921102068" stroke="black" stroke-width="1"/>
<line x1="229.64101615137767" y1="135.7883832488651" x2="229.64101615137767" y2="125.7883832488651" stroke="black" stroke-width="1"/>
<line x1="229.64101615137767" y1="125.7883832488651" x2="234.64101615137767" y2="117.12812921102068" stroke="black" stroke-width="1"/>
<line x1="234.64101615137767" y1="117.12812921102068" x2="234.64101615137767" y2="107.12812921102068" stroke="black" stroke-width="1"/>
<line x1="234.64101615137767" y1="117.12812921102068" x2="239.64101615137767" y2="108.46787517317625" stroke="black" stroke-width="1"/>
<line x1="229.64101615137767" y1="125.7883832488651" x2="229.64101615137767" y2="115.7883832488651" stroke="black" stroke-width="1"/>
<line x1="229.64101615137767" y1="115.7883832488651" x2="234.64101615137767" y2="107.12812921102068" stroke="black" stroke-width="1"/>
<line x1="229.64101615137767" y1="115.7883832488651" x2="229.64101615137767" y2="105.7883832488651" stroke="black" stroke-width="1"/>
<line x1="229.64101615137767" y1="105.7883832488651" x2="224.64101615137767" y2="97.12812921102068" stroke="black" stroke-width="1"/>
<line x1="229.64101615137767" y1="105.7883832488651" x2="229.64101615137767" y2="95.7883832488651" stroke="black" stroke-width="1"/>
<line x1="229.64101615137767" y1="95.7883832488651" x2="224.64101615137767" y2="87.12812921102068" stroke="black" stroke-width="1"/>
<line x1="224.64101615137767" y1="87.12812921102068" x2="224.64101615137767" y2="77.12812921102068" stroke="black" stroke-width="1"/>
<line x1="224.64101615137767" y1="87.12812921102068" x2="219.64101615137767" y2="78.46787517317625" stroke="black" stroke-width="1"/>
<line x1="219.64101615137767" y1="78.46787517317625" x2="210.98076211353327" y2="73.46787517317625" stroke="black" stroke-width="1"/>
<line x1="219.64101615137767" y1="78.46787517317625" x2="214.64101615137764" y2="69.80762113533183" stroke="black" stroke-width="1"/>
<line x1="229.64101615137767" y1="95.7883832488651" x2="229.64101615137767" y2="85.7883832488651" stroke="black" stroke-width="1"/>
<line x1="229.64101615137767" y1="85.7883832488651" x2="224.64101615137767" y2="77.12812921102068" stroke="black" stroke-width="1"/>
<line x1="229.64101615137767" y1="85.7883832488651" x2="229.64101615137767" y2="75.7883832488651" stroke="black" stroke-width="1"/>
</svg>
