<svg width="250.26279441628833" height="680.0" xmlns="http://www.w3.org/2000/svg">
<line x1="181.9615242270664" y1="680.0" x2="181.9615242270664" y2="670.0" stroke="black" stroke-width="1"/>
<line x1="181.9615242270664" y1="670.0" x2="186.9615242270664" y2="661.3397459621556" stroke="black" stroke-width="1"/>
<line x1="181.9615242270664" y1="670.0" x2="181.9615242270664" y2="660.0" stroke="black" stroke-width="1"/>
<line x1="181.9615242270664" y1="660.0" x2="186.9615242270664" y2="651.3397459621556" stroke="black" stroke-width="1"/>
<line x1="186.9615242270664" y1="651.3397459621556" x2="195.6217782649108" y2="646.3397459621556" stroke="black" stroke-width="1"/>
<line x1="186.9615242270664" y1="651.3397459621556" x2="191.9615242270664" y2="642.6794919243113" stroke="black" stroke-width="1"/>
<line x1="181.9615242270664" y1="660.0" x2="181.9615242270664" y2="650.0" stroke="black" stroke-width="1"/>
<line x1="181.9615242270664" y1="650.0" x2="186.9615242270664" y2="641.3397459621556" stroke="black" stroke-width="1"/>
<line x1="181.9615242270664" y1="650.0" x2="181.9615242270664" y2="640.0" stroke="black" stroke-width="1"/>
<line x1="181.9615242270664" y1="640.0" x2="186.9615242270664" y2="631.3397459621556" stroke="black" stroke-width="1"/>
<line x1="186.9615242270664" y1="631.3397459621556" x2="195.6217782649108" y2="626.3397459621556" stroke="black" stroke-width="1"/>
<line x1="186.9615242270664" y1="631.3397459621556" x2="191.9615242270664" y2="622.6794919243113" stroke="black" stroke-width="1"/>
<line x1="191.9615242270664" y1="622.6794919243113" x2="191.9615242270664" y2="612.6794919243113" stroke="black" stroke-width="1"/>
<line x1="191.9615242270664" y1="612.6794919243113" x2="186.9615242270664" y2="604.0192378864668" stroke="black" stroke-width="1"/>
<line x1="191.9615242270664" y1="612.6794919243113" x2="191.9615242270664" y2="602.6794919243113" stroke="black" stroke-width="1"/>
<line x1="191.9615242270664" y1="622.6794919243113" x2="196.9615242270664" y2="614.0192378864668" stroke="black" stroke-width="1"/>
<line x1="196.9615242270664" y1="614.0192378864668" x2="196.9615242270664" y2="604.0192378864668" stroke="black" stroke-width="1"/>
<line x1="196.9615242270664" y1="614.0192378864668" x2="201.9615242270664" y2="605.3589838486224" stroke="black" stroke-width="1"/>
<line x1="181.9615242270664" y1="640.0" x2="181.9615242270664" y2="630.0" stroke="black" stroke-width="1"/>
<line x1="181.9615242270664" y1="630.0" x2="186.9615242270664" y2="621.3397459621556" stroke="black" stroke-width="1"/>
<line x1="181.9615242270664" y1="630.0" x2="181.9615242270664" y2="620.0" stroke="black" stroke-width="1"/>
<line x1="181.9615242270664" y1="620.0" x2="176.9615242270664" y2="611.3397459621556" stroke="black" stroke-width="1"/>
<line x1="176.9615242270664" y1="611.3397459621556" x2="176.9615242270664" y2="601.3397459621556" stroke="black" stroke-width="1"/>
<line x1="176.9615242270664" y1="611.3397459621556" x2="171.9615242270664" y2="602.6794919243113" stroke="black" stroke-width="1"/>
<line x1="181.9615242270664" y1="620.0" x2="181.9615242270664" y2="610.0" stroke="black" stroke-width="1"/>
<line x1="181.9615242270664" y1="610.0" x2="176.9615242270664" y2="601.3397459621556" stroke="black" stroke-width="1"/>
<line x1="181.9615242270664" y1="610.0" x2="181.9615242270664" y2="600.0" stroke="black" stroke-width="1"/>
<line x1="181.9615242270664" y1="600.0" x2="176.9615242270664" y2="591.3397459621556" stroke="black" stroke-width="1"/>
<line x1="176.9615242270664" y1="591.3397459621556" x2="168.301270189222" y2="586.3397459621556" stroke="black" stroke-width="1"/>
<line x1="176.9615242270664" y1="591.3397459621556" x2="171.9615242270664" y2="582.6794919243113" stroke="black" stroke-width="1"/>
<line x1="171.9615242270664" y1="582.6794919243113" x2="163.301270189222" y2="577.6794919243113" stroke="black" stroke-width="1"/>
<line x1="163.301270189222" y1="577.6794919243113" x2="158.301270189222" y2="569.0192378864668" stroke="black" stroke-width="1"/>
<line x1="163.301270189222" y1="577.6794919243113" x2="154.6410161513776" y2="572.6794919243113" stroke="black" stroke-width="1"/>
<line x1="171.9615242270664" y1="582.6794919243113" x2="166.96152422706638" y2="574.0192378864668" stroke="black" stroke-width="1"/>
<line x1="166.96152422706638" y1="574.0192378864668" x2="166.96152422706638" y2="564.0192378864668" stroke="black" stroke-width="1"/>
<line x1="166.96152422706638" y1="574.0192378864668" x2="161.96152422706638" y2="565.3589838486225" stroke="black" stroke-width="1"/>
<line x1="161.96152422706638" y1="565.3589838486225" x2="153.301270189222" y2="560.3589838486225" stroke="black" stroke-width="1"/>
<line x1="161.96152422706638" y1="565.3589838486225" x2="156.96152422706638" y2="556.6987298107781" stroke="black" stroke-width="1"/>
<line x1="181.9615242270664" y1="600.0" x2="181.9615242270664" y2="590.0" stroke="black" stroke-width="1"/>
<line x1="181.9615242270664" y1="590.0" x2="186.9615242270664" y2="581.3397459621556" stroke="black" stroke-width="1"/>
<line x1="181.9615242270664" y1="590.0" x2="181.9615242270664" y2="580.0" stroke="black" stroke-width="1"/>
<line x1="181.9615242270664" y1="580.0" x2="176.9615242270664" y2="571.3397459621556" stroke="black" stroke-width="1"/>
<line x1="181.9615242270664" y1="580.0" x2="181.9615242270664" y2="570.0" stroke="black" stroke-width="1"/>
<line x1="181.9615242270664" y1="570.0" x2="186.9615242270664" y2="561.3397459621556" stroke="black" stroke-width="1"/>
<line x1="186.9615242270664" y1="561.3397459621556" x2="186.9615242270664" y2="551.3397459621556" stroke="black" stroke-width="1"/>
<line x1="186.9615242270664" y1="561.3397459621556" x2="191.9615242270664" y2="552.6794919243113" stroke="black" stroke-width="1"/>
<line x1="181.9615242270664" y1="570.0" x2="181.9615242270664" y2="560.0" stroke="black" stroke-width="1"/>
<line x1="181.9615242270664" y1="560.0" x2="186.9615242270664" y2="551.3397459621556" stroke="black" stroke-width="1"/>
<line x1="181.9615242270664" y1="560.0" x2="181.9615242270664" y2="550.0" stroke="black" stroke-width="1"/>
<line x1="181.9615242270664" y1="550.0" x2="186.9615242270664" y2="541.3397459621556" stroke="black" stroke-width="1"/>
<line x1="186.9615242270664" y1="541.3397459621556" x2="195.6217782649108" y2="536.3397459621556" stroke="black" stroke-width="1"/>
<line x1="186.9615242270664" y1="541.3397459621556" x2="191.9615242270664" y2="532.6794919243112" stroke="black" stroke-width="1"/>
<line x1="191.9615242270664" y1="532.6794919243112" x2="191.9615242270664" y2="522.6794919243112" stroke="black" stroke-width="1"/>
<line x1="191.9615242270664" y1="522.6794919243112" x2="196.9615242270664" y2="514.0192378864668" stroke="black" stroke-width="1"/>
<line x1="191.9615242270664" y1="522.6794919243112" x2="191.9615242270664" y2="512.6794919243112" stroke="black" stroke-width="1"/>
<line x1="191.9615242270664" y1="512.6794919243112" x2="186.9615242270664" y2="504.01923788646684" stroke="black" stroke-width="1"/>
<line x1="191.9615242270664" y1="512.6794919243112" x2="191.9615242270664" y2="502.6794919243112" stroke="black" stroke-width="1"/>
<line x1="191.9615242270664" y1="532.6794919243112" x2="196.9615242270664" y2="524.0192378864668" stroke="black" stroke-width="1"/>
<line x1="196.9615242270664" y1="524.0192378864668" x2="205.6217782649108" y2="519.0192378864668" stroke="black" stroke-width="1"/>
<line x1="196.9615242270664" y1="524.0192378864668" x2="201.9615242270664" y2="515.3589838486224" stroke="black" stroke-width="1"/>
<line x1="201.9615242270664" y1="515.3589838486224" x2="201.9615242270664" y2="505.3589838486224" stroke="black" stroke-width="1"/>
<line x1="201.9615242270664" y1="515.3589838486224" x2="206.9615242270664" y2="506.698729810778" stroke="black" stroke-width="1"/>
<line x1="206.9615242270664" y1="506.698729810778" x2="215.6217782649108" y2="501.698729810778" stroke="black" stroke-width="1"/>
<line x1="215.6217782649108" y1="501.698729810778" x2="225.6217782649108" y2="501.698729810778" stroke="black" stroke-width="1"/>
<line x1="215.6217782649108" y1="501.698729810778" x2="224.28203230275517" y2="496.698729810778" stroke="black" stroke-width="1"/>
<line x1="224.28203230275517" y1="496.698729810778" x2="229.28203230275517" y2="488.0384757729336" stroke="black" stroke-width="1"/>
<line x1="229.28203230275517" y1="488.0384757729336" x2="237.94228634059954" y2="483.0384757729336" stroke="black" stroke-width="1"/>
<line x1="229.28203230275517" y1="488.0384757729336" x2="234.28203230275517" y2="479.37822173508926" stroke="black" stroke-width="1"/>
<line x1="224.28203230275517" y1="496.698729810778" x2="232.94228634059954" y2="491.698729810778" stroke="black" stroke-width="1"/>
<line x1="232.94228634059954" y1="491.698729810778" x2="242.94228634059954" y2="491.698729810778" stroke="black" stroke-width="1"/>
<line x1="232.94228634059954" y1="491.698729810778" x2="241.60254037844393" y2="486.698729810778" stroke="black" stroke-width="1"/>
<line x1="241.60254037844393" y1="486.698729810778" x2="246.60254037844393" y2="478.0384757729336" stroke="black" stroke-width="1"/>
<line x1="241.60254037844393" y1="486.698729810778" x2="250.26279441628833" y2="481.698729810778" stroke="black" stroke-width="1"/>
<line x1="206.9615242270664" y1="506.698729810778" x2="211.9615242270664" y2="498.0384757729336" stroke="black" stroke-width="1"/>
<line x1="211.9615242270664" y1="498.0384757729336" x2="211.9615242270664" y2="488.0384757729336" stroke="black" stroke-width="1"/>
<line x1="211.9615242270664" y1="498.0384757729336" x2="216.9615242270664" y2="489.37822173508926" stroke="black" stroke-width="1"/>
<line x1="216.9615242270664" y1="489.37822173508926" x2="225.6217782649108" y2="484.37822173508926" stroke="black" stroke-width="1"/>
<line x1="225.6217782649108" y1="484.37822173508926" x2="235.6217782649108" y2="484.37822173508926" stroke="black" stroke-width="1"/>
<line x1="225.6217782649108" y1="484.37822173508926" x2="234.28203230275517" y2="479.37822173508926" stroke="black" stroke-width="1"/>
<line x1="216.9615242270664" y1="489.37822173508926" x2="221.9615242270664" y2="480.71796769724483" stroke="black" stroke-width="1"/>
<line x1="221.9615242270664" y1="480.71796769724483" x2="230.6217782649108" y2="475.71796769724483" stroke="black" stroke-width="1"/>
<line x1="221.9615242270664" y1="480.71796769724483" x2="226.9615242270664" y2="472.0577136594004" stroke="black" stroke-width="1"/>
<line x1="181.9615242270664" y1="550.0" x2="181.9615242270664" y2="540.0" stroke="black" stroke-width="1"/>
<line x1="181.9615242270664" y1="540.0" x2="186.9615242270664" y2="531.3397459621556" stroke="black" stroke-width="1"/>
<line x1="181.9615242270664" y1="540.0" x2="181.9615242270664" y2="530.0" stroke="black" stroke-width="1"/>
<line x1="181.9615242270664" y1="530.0" x2="176.9615242270664" y2="521.3397459621556" stroke="black" stroke-width="1"/>
<line x1="181.9615242270664" y1="530.0" x2="181.9615242270664" y2="520.0" stroke="black" stroke-width="1"/>
<line x1="181.9615242270664" y1="520.0" x2="186.9615242270664" y2="511.3397459621556" stroke="black" stroke-width="1"/>
<line x1="186.9615242270664" y1="511.3397459621556" x2="195.6217782649108" y2="506.3397459621556" stroke="black" stroke-width="1"/>
<line x1="186.9615242270664" y1="511.3397459621556" x2="191.9615242270664" y2="502.6794919243112" stroke="black" stroke-width="1"/>
<line x1="191.9615242270664" y1="502.6794919243112" x2="191.9615242270664" y2="492.6794919243112" stroke="black" stroke-width="1"/>
<line x1="191.9615242270664" y1="502.6794919243112" x2="196.9615242270664" y2="494.01923788646684" stroke="black" stroke-width="1"/>
<line x1="181.9615242270664" y1="520.0" x2="181.9615242270664" y2="510.0" stroke="black" stroke-width="1"/>
<line x1="181.9615242270664" y1="510.0" x2="186.9615242270664" y2="501.3397459621556" stroke="black" stroke-width="1"/>
<line x1="181.9615242270664" y1="510.0" x2="181.9615242270664" y2="500.0" stroke="black" stroke-width="1"/>
<line x1="181.9615242270664" y1="500.0" x2="176.9615242270664" y2="491.3397459621556" stroke="black" stroke-width="1"/>
<line x1="181.9615242270664" y1="500.0" x2="181.9615242270664" y2="490.0" stroke="black" stroke-width="1"/>
<line x1="181.9615242270664" y1="490.0" x2="176.9615242270664" y2="481.3397459621556" stroke="black" stroke-width="1"/>
<line x1="176.9615242270664" y1="481.3397459621556" x2="176.9615242270664" y2="471.3397459621556" stroke="black" stroke-width="1"/>
<line x1="176.9615242270664" y1="481.3397459621556" x2="171.9615242270664" y2="472.6794919243112" stroke="black" stroke-width="1"/>
<line x1="181.9615242270664" y1="490.0" x2="181.9615242270664" y2="480.0" stroke="black" stroke-width="1"/>
<line x1="181.9615242270664" y1="480.0" x2="176.9615242270664" y2="471.3397459621556" stroke="black" stroke-width="1"/>
<line x1="181.9615242270664" y1="480.0" x2="181.9615242270664" y2="470.0" stroke="black" stroke-width="1"/>
<line x1="181.9615242270664" y1="470.0" x2="186.9615242270664" y2="461.3397459621556" stroke="black" stroke-width="1"/>
<line x1="186.9615242270664" y1="461.3397459621556" x2="186.9615242270664" y2="451.3397459621556" stroke="black" stroke-width="1"/>
<line x1="186.9615242270664" y1="461.3397459621556" x2="191.9615242270664" y2="452.6794919243112" stroke="black" stroke-width="1"/>
<line x1="191.9615242270664" y1="452.6794919243112" x2="200.6217782649108" y2="447.6794919243112" stroke="black" stroke-width="1"/>
<line x1="200.6217782649108" y1="447.6794919243112" x2="205.6217782649108" y2="439.01923788646684" stroke="black" stroke-width="1"/>
<line x1="200.6217782649108" y1="447.6794919243112" x2="209.28203230275517" y2="442.6794919243112" stroke="black" stroke-width="1"/>
<line x1="191.9615242270664" y1="452.6794919243112" x2="196.9615242270664" y2="444.01923788646684" stroke="black" stroke-width="1"/>
<line x1="196.9615242270664" y1="444.01923788646684" x2="205.6217782649108" y2="439.01923788646684" stroke="black" stroke-width="1"/>
<line x1="196.9615242270664" y1="444.01923788646684" x2="201.9615242270664" y2="435.3589838486224" stroke="black" stroke-width="1"/>
<line x1="201.9615242270664" y1="435.3589838486224" x2="201.9615242270664" y2="425.3589838486224" stroke="black" stroke-width="1"/>
<line x1="201.9615242270664" y1="435.3589838486224" x2="206.9615242270664" y2="426.698729810778" stroke="black" stroke-width="1"/>
<line x1="181.9615242270664" y1="470.0" x2="181.9615242270664" y2="460.0" stroke="black" stroke-width="1"/>
<line x1="181.9615242270664" y1="460.0" x2="176.9615242270664" y2="451.3397459621556" stroke="black" stroke-width="1"/>
<line x1="181.9615242270664" y1="460.0" x2="181.9615242270664" y2="450.0" stroke="black" stroke-width="1"/>
<line x1="181.9615242270664" y1="450.0" x2="186.9615242270664" y2="441.3397459621556" stroke="black" stroke-width="1"/>
<line x1="186.9615242270664" y1="441.3397459621556" x2="186.9615242270664" y2="431.3397459621556" stroke="black" stroke-width="1"/>
<line x1="186.9615242270664" y1="441.3397459621556" x2="191.9615242270664" y2="432.6794919243112" stroke="black" stroke-width="1"/>
<line x1="181.9615242270664" y1="450.0" x2="181.9615242270664" y2="440.0" stroke="black" stroke-width="1"/>
<line x1="181.9615242270664" y1="440.0" x2="186.9615242270664" y2="431.3397459621556" stroke="black" stroke-width="1"/>
<line x1="181.9615242270664" y1="440.0" x2="181.9615242270664" y2="430.0" stroke="black" stroke-width="1"/>
<line x1="181.9615242270664" y1="430.0" x2="176.9615242270664" y2="421.33974596215563" stroke="black" stroke-width="1"/>
<line x1="176.9615242270664" y1="421.33974596215563" x2="176.9615242270664" y2="411.33974596215563" stroke="black" stroke-width="1"/>
<line x1="176.9615242270664" y1="421.33974596215563" x2="171.9615242270664" y2="412.67949192431126" stroke="black" stroke-width="1"/>
<line x1="171.9615242270664" y1="412.67949192431126" x2="163.301270189222" y2="407.67949192431126" stroke="black" stroke-width="1"/>
<line x1="171.9615242270664" y1="412.67949192431126" x2="166.96152422706638" y2="404.0192378864669" stroke="black" stroke-width="1"/>
<line x1="166.96152422706638" y1="404.0192378864669" x2="166.96152422706638" y2="394.0192378864669" stroke="black" stroke-width="1"/>
<line x1="166.96152422706638" y1="394.0192378864669" x2="171.96152422706638" y2="385.35898384862253" stroke="black" stroke-width="1"/>
<line x1="166.96152422706638" y1="394.0192378864669" x2="166.96152422706638" y2="384.0192378864669" stroke="black" stroke-width="1"/>
<line x1="166.96152422706638" y1="384.0192378864669" x2="161.96152422706638" y2="375.35898384862253" stroke="black" stroke-width="1"/>
<line x1="166.96152422706638" y1="384.0192378864669" x2="166.96152422706638" y2="374.0192378864669" stroke="black" stroke-width="1"/>
<line x1="166.96152422706638" y1="404.0192378864669" x2="161.96152422706638" y2="395.35898384862253" stroke="black" stroke-width="1"/>
<line x1="161.96152422706638" y1="395.35898384862253" x2="161.96152422706638" y2="385.35898384862253" stroke="black" stroke-width="1"/>
<line x1="161.96152422706638" y1="395.35898384862253" x2="156.96152422706638" y2="386.69872981077816" stroke="black" stroke-width="1"/>
<line x1="156.96152422706638" y1="386.69872981077816" x2="148.301270189222" y2="381.69872981077816" stroke="black" stroke-width="1"/>
<line x1="156.96152422706638" y1="386.69872981077816" x2="151.96152422706638" y2="378.0384757729338" stroke="black" stroke-width="1"/>
<line x1="151.96152422706638" y1="378.0384757729338" x2="143.301270189222" y2="373.0384757729338" stroke="black" stroke-width="1"/>
<line x1="143.301270189222" y1="373.0384757729338" x2="138.30127018922198" y2="364.3782217350894" stroke="black" stroke-width="1"/>
<line x1="143.301270189222" y1="373.0384757729338" x2="134.6410161513776" y2="368.0384757729338" stroke="black" stroke-width="1"/>
<line x1="151.96152422706638" y1="378.0384757729338" x2="146.96152422706638" y2="369.3782217350894" stroke="black" stroke-width="1"/>
<line x1="146.96152422706638" y1="369.3782217350894" x2="146.96152422706638" y2="359.3782217350894" stroke="black" stroke-width="1"/>
<line x1="146.96152422706638" y1="369.3782217350894" x2="141.96152422706638" y2="360.71796769724506" stroke="black" stroke-width="1"/>
<line x1="181.9615242270664" y1="430.0" x2="181.9615242270664" y2="420.0" stroke="black" stroke-width="1"/>
<line x1="181.9615242270664" y1="420.0" x2="186.9615242270664" y2="411.33974596215563" stroke="black" stroke-width="1"/>
<line x1="181.9615242270664" y1="420.0" x2="181.9615242270664" y2="410.0" stroke="black" stroke-width="1"/>
<line x1="181.9615242270664" y1="410.0" x2="186.9615242270664" y2="401.33974596215563" stroke="black" stroke-width="1"/>
<line x1="186.9615242270664" y1="401.33974596215563" x2="195.6217782649108" y2="396.33974596215563" stroke="black" stroke-width="1"/>
<line x1="186.9615242270664" y1="401.33974596215563" x2="191.9615242270664" y2="392.67949192431126" stroke="black" stroke-width="1"/>
<line x1="191.9615242270664" y1="392.67949192431126" x2="191.9615242270664" y2="382.67949192431126" stroke="black" stroke-width="1"/>
<line x1="191.9615242270664" y1="392.67949192431126" x2="196.9615242270664" y2="384.0192378864669" stroke="black" stroke-width="1"/>
<line x1="181.9615242270664" y1="410.0" x2="181.9615242270664" y2="400.0" stroke="black" stroke-width="1"/>
<line x1="181.9615242270664" y1="400.0" x2="186.9615242270664" y2="391.33974596215563" stroke="black" stroke-width="1"/>
<line x1="181.9615242270664" y1="400.0" x2="181.9615242270664" y2="390.0" stroke="black" stroke-width="1"/>
<line x1="181.9615242270664" y1="390.0" x2="176.9615242270664" y2="381.33974596215563" stroke="black" stroke-width="1"/>
<line x1="176.9615242270664" y1="381.33974596215563" x2="176.9615242270664" y2="371.33974596215563" stroke="black" stroke-width="1"/>
<line x1="176.9615242270664" y1="381.33974596215563" x2="171.9615242270664" y2="372.67949192431126" stroke="black" stroke-width="1"/>
<line x1="171.9615242270664" y1="372.67949192431126" x2="171.9615242270664" y2="362.67949192431126" stroke="black" stroke-width="1"/>
<line x1="171.9615242270664" y1="362.67949192431126" x2="176.9615242270664" y2="354.0192378864669" stroke="black" stroke-width="1"/>
<line x1="171.9615242270664" y1="362.67949192431126" x2="171.9615242270664" y2="352.67949192431126" stroke="black" stroke-width="1"/>
<line x1="171.9615242270664" y1="372.67949192431126" x2="166.96152422706638" y2="364.0192378864669" stroke="black" stroke-width="1"/>
<line x1="166.96152422706638" y1="364.0192378864669" x2="166.96152422706638" y2="354.0192378864669" stroke="black" stroke-width="1"/>
<line x1="166.96152422706638" y1="364.0192378864669" x2="161.96152422706638" y2="355.35898384862253" stroke="black" stroke-width="1"/>
<line x1="161.96152422706638" y1="355.35898384862253" x2="153.301270189222" y2="350.35898384862253" stroke="black" stroke-width="1"/>
<line x1="153.301270189222" y1="350.35898384862253" x2="143.301270189222" y2="350.35898384862253" stroke="black" stroke-width="1"/>
<line x1="153.301270189222" y1="350.35898384862253" x2="144.6410161513776" y2="345.35898384862253" stroke="black" stroke-width="1"/>
<line x1="144.6410161513776" y1="345.35898384862253" x2="134.6410161513776" y2="345.35898384862253" stroke="black" stroke-width="1"/>
<line x1="134.6410161513776" y1="345.35898384862253" x2="125.98076211353323" y2="340.35898384862253" stroke="black" stroke-width="1"/>
<line x1="134.6410161513776" y1="345.35898384862253" x2="124.64101615137761" y2="345.35898384862253" stroke="black" stroke-width="1"/>
<line x1="124.64101615137761" y1="345.35898384862253" x2="115.98076211353323" y2="350.35898384862253" stroke="black" stroke-width="1"/>
<line x1="124.64101615137761" y1="345.35898384862253" x2="114.64101615137761" y2="345.35898384862253" stroke="black" stroke-width="1"/>
<line x1="144.6410161513776" y1="345.35898384862253" x2="135.98076211353322" y2="340.35898384862253" stroke="black" stroke-width="1"/>
<line x1="135.98076211353322" y1="340.35898384862253" x2="130.98076211353322" y2="331.69872981077816" stroke="black" stroke-width="1"/>
<line x1="135.98076211353322" y1="340.35898384862253" x2="127.32050807568885" y2="335.35898384862253" stroke="black" stroke-width="1"/>
<line x1="161.96152422706638" y1="355.35898384862253" x2="156.96152422706638" y2="346.69872981077816" stroke="black" stroke-width="1"/>
<line x1="156.96152422706638" y1="346.69872981077816" x2="156.96152422706638" y2="336.69872981077816" stroke="black" stroke-width="1"/>
<line x1="156.96152422706638" y1="346.69872981077816" x2="151.96152422706638" y2="338.0384757729338" stroke="black" stroke-width="1"/>
<line x1="151.96152422706638" y1="338.0384757729338" x2="151.96152422706638" y2="328.0384757729338" stroke="black" stroke-width="1"/>
<line x1="151.96152422706638" y1="328.0384757729338" x2="156.96152422706638" y2="319.3782217350894" stroke="black" stroke-width="1"/>
<line x1="151.96152422706638" y1="328.0384757729338" x2="151.96152422706638" y2="318.0384757729338" stroke="black" stroke-width="1"/>
<line x1="151.96152422706638" y1="338.0384757729338" x2="146.96152422706638" y2="329.3782217350894" stroke="black" stroke-width="1"/>
<line x1="146.96152422706638" y1="329.3782217350894" x2="138.301270189222" y2="324.3782217350894" stroke="black" stroke-width="1"/>
<line x1="146.96152422706638" y1="329.3782217350894" x2="141.96152422706638" y2="320.71796769724506" stroke="black" stroke-width="1"/>
<line x1="141.96152422706638" y1="320.71796769724506" x2="133.30127018922198" y2="315.71796769724506" stroke="black" stroke-width="1"/>
<line x1="133.30127018922198" y1="315.71796769724506" x2="128.30127018922198" y2="307.0577136594007" stroke="black" stroke-width="1"/>
<line x1="133.30127018922198" y1="315.71796769724506" x2="124.6410161513776" y2="310.71796769724506" stroke="black" stroke-width="1"/>
<line x1="124.6410161513776" y1="310.71796769724506" x2="114.6410161513776" y2="310.71796769724506" stroke="black" stroke-width="1"/>
<line x1="124.6410161513776" y1="310.71796769724506" x2="115.98076211353322" y2="305.71796769724506" stroke="black" stroke-width="1"/>
<line x1="141.96152422706638" y1="320.71796769724506" x2="136.96152422706638" y2="312.0577136594007" stroke="black" stroke-width="1"/>
<line x1="136.96152422706638" y1="312.0577136594007" x2="128.30127018922198" y2="307.0577136594007" stroke="black" stroke-width="1"/>
<line x1="136.96152422706638" y1="312.0577136594007" x2="131.96152422706635" y2="303.3974596215563" stroke="black" stroke-width="1"/>
<line x1="131.96152422706635" y1="303.3974596215563" x2="131.96152422706635" y2="293.3974596215563" stroke="black" stroke-width="1"/>
<line x1="131.96152422706635" y1="293.3974596215563" x2="126.96152422706635" y2="284.73720558371195" stroke="black" stroke-width="1"/>
<line x1="131.96152422706635" y1="293.3974596215563" x2="131.96152422706635" y2="283.3974596215563" stroke="black" stroke-width="1"/>
<line x1="131.96152422706635" y1="283.3974596215563" x2="126.96152422706635" y2="274.73720558371195" stroke="black" stroke-width="1"/>
<line x1="126.96152422706635" y1="274.73720558371195" x2="126.96152422706635" y2="264.73720558371195" stroke="black" stroke-width="1"/>
<line x1="126.96152422706635" y1="274.73720558371195" x2="121.96152422706635" y2="266.0769515458676" stroke="black" stroke-width="1"/>
<line x1="131.96152422706635" y1="283.3974596215563" x2="131.96152422706635" y2="273.3974596215563" stroke="black" stroke-width="1"/>
<line x1="131.96152422706635" y1="273.3974596215563" x2="136.96152422706635" y2="264.73720558371195" stroke="black" stroke-width="1"/>
<line x1="131.96152422706635" y1="273.3974596215563" x2="131.96152422706635" y2="263.3974596215563" stroke="black" stroke-width="1"/>
<line x1="131.96152422706635" y1="263.3974596215563" x2="126.96152422706635" y2="254.73720558371195" stroke="black" stroke-width="1"/>
<line x1="131.96152422706635" y1="263.3974596215563" x2="131.96152422706635" y2="253.39745962155632" stroke="black" stroke-width="1"/>
<line x1="131.96152422706635" y1="253.39745962155632" x2="126.96152422706635" y2="244.73720558371195" stroke="black" stroke-width="1"/>
<line x1="126.96152422706635" y1="244.73720558371195" x2="126.96152422706635" y2="234.73720558371195" stroke="black" stroke-width="1"/>
<line x1="126.96152422706635" y1="244.73720558371195" x2="121.96152422706635" y2="236.0769515458676" stroke="black" stroke-width="1"/>
<line x1="121.96152422706635" y1="236.0769515458676" x2="113.30127018922195" y2="231.0769515458676" stroke="black" stroke-width="1"/>
<line x1="113.30127018922195" y1="231.0769515458676" x2="108.30127018922195" y2="222.41669750802322" stroke="black" stroke-width="1"/>
<line x1="113.30127018922195" y1="231.0769515458676" x2="104.64101615137757" y2="226.0769515458676" stroke="black" stroke-width="1"/>
<line x1="121.96152422706635" y1="236.0769515458676" x2="116.96152422706633" y2="227.41669750802322" stroke="black" stroke-width="1"/>
<line x1="116.96152422706633" y1="227.41669750802322" x2="116.96152422706633" y2="217.41669750802322" stroke="black" stroke-width="1"/>
<line x1="116.96152422706633" y1="227.41669750802322" x2="111.96152422706633" y2="218.75644347017885" stroke="black" stroke-width="1"/>
<line x1="111.96152422706633" y1="218.75644347017885" x2="103.30127018922195" y2="213.75644347017885" stroke="black" stroke-width="1"/>
<line x1="111.96152422706633" y1="218.75644347017885" x2="106.96152422706633" y2="210.09618943233448" stroke="black" stroke-width="1"/>
<line x1="131.96152422706635" y1="253.39745962155632" x2="131.96152422706635" y2="243.39745962155632" stroke="black" stroke-width="1"/>
<line x1="131.96152422706635" y1="243.39745962155632" x2="136.96152422706635" y2="234.73720558371195" stroke="black" stroke-width="1"/>
<line x1="131.96152422706635" y1="243.39745962155632" x2="131.96152422706635" y2="233.39745962155632" stroke="black" stroke-width="1"/>
<line x1="131.96152422706635" y1="233.39745962155632" x2="126.96152422706635" y2="224.73720558371195" stroke="black" stroke-width="1"/>
<line x1="131.96152422706635" y1="233.39745962155632" x2="131.96152422706635" y2="223.39745962155632" stroke="black" stroke-width="1"/>
<line x1="131.96152422706635" y1="223.39745962155632" x2="126.96152422706635" y2="214.73720558371195" stroke="black" stroke-width="1"/>
<line x1="126.96152422706635" y1="214.73720558371195" x2="126.96152422706635" y2="204.73720558371195" stroke="black" stroke-width="1"/>
<line x1="126.96152422706635" y1="214.73720558371195" x2="121.96152422706635" y2="206.0769515458676" stroke="black" stroke-width="1"/>
<line x1="131.96152422706635" y1="223.39745962155632" x2="131.96152422706635" y2="213.39745962155632" stroke="black" stroke-width="1"/>
<line x1="131.96152422706635" y1="213.39745962155632" x2="136.96152422706635" y2="204.73720558371195" stroke="black" stroke-width="1"/>
<line x1="131.96152422706635" y1="213.39745962155632" x2="131.96152422706635" y2="203.39745962155632" stroke="black" stroke-width="1"/>
<line x1="131.96152422706635" y1="303.3974596215563" x2="126.96152422706635" y2="294.73720558371195" stroke="black" stroke-width="1"/>
<line x1="126.96152422706635" y1="294.73720558371195" x2="126.96152422706635" y2="284.73720558371195" stroke="black" stroke-width="1"/>
<line x1="126.96152422706635" y1="294.73720558371195" x2="121.96152422706635" y2="286.0769515458676" stroke="black" stroke-width="1"/>
<line x1="121.96152422706635" y1="286.0769515458676" x2="113.30127018922195" y2="281.0769515458676" stroke="black" stroke-width="1"/>
<line x1="121.96152422706635" y1="286.0769515458676" x2="116.96152422706633" y2="277.4166975080232" stroke="black" stroke-width="1"/>
<line x1="116.96152422706633" y1="277.4166975080232" x2="116.96152422706633" y2="267.4166975080232" stroke="black" stroke-width="1"/>
<line x1="116.96152422706633" y1="267.4166975080232" x2="121.96152422706633" y2="258.75644347017885" stroke="black" stroke-width="1"/>
<line x1="116.96152422706633" y1="267.4166975080232" x2="116.96152422706633" y2="257.4166975080232" stroke="black" stroke-width="1"/>
<line x1="116.96152422706633" y1="277.4166975080232" x2="111.96152422706633" y2="268.75644347017885" stroke="black" stroke-width="1"/>
<line x1="111.96152422706633" y1="268.75644347017885" x2="111.96152422706633" y2="258.75644347017885" stroke="black" stroke-width="1"/>
<line x1="111.96152422706633" y1="268.75644347017885" x2="106.96152422706633" y2="260.0961894323345" stroke="black" stroke-width="1"/>
<line x1="106.96152422706633" y1="260.0961894323345" x2="106.96152422706633" y2="250.09618943233448" stroke="black" stroke-width="1"/>
<line x1="106.96152422706633" y1="250.09618943233448" x2="101.96152422706633" y2="241.43593539449012" stroke="black" stroke-width="1"/>
<line x1="106.96152422706633" y1="250.09618943233448" x2="106.96152422706633" y2="240.09618943233448" stroke="black" stroke-width="1"/>
<line x1="106.96152422706633" y1="240.09618943233448" x2="111.96152422706633" y2="231.43593539449012" stroke="black" stroke-width="1"/>
<line x1="111.96152422706633" y1="231.43593539449012" x2="120.62177826491072" y2="226.43593539449012" stroke="black" stroke-width="1"/>
<line x1="111.96152422706633" y1="231.43593539449012" x2="116.96152422706633" y2="222.77568135664575" stroke="black" stroke-width="1"/>
<line x1="116.96152422706633" y1="222.77568135664575" x2="116.96152422706633" y2="212.77568135664575" stroke="black" stroke-width="1"/>
<line x1="116.96152422706633" y1="222.77568135664575" x2="121.96152422706633" y2="214.11542731880138" stroke="black" stroke-width="1"/>
<line x1="106.96152422706633" y1="240.09618943233448" x2="106.96152422706633" y2="230.09618943233448" stroke="black" stroke-width="1"/>
<line x1="106.96152422706633" y1="230.09618943233448" x2="111.96152422706633" y2="221.43593539449012" stroke="black" stroke-width="1"/>
<line x1="106.96152422706633" y1="230.09618943233448" x2="106.96152422706633" y2="220.09618943233448" stroke="black" stroke-width="1"/>
<line x1="106.96152422706633" y1="220.09618943233448" x2="101.96152422706633" y2="211.43593539449012" stroke="black" stroke-width="1"/>
<line x1="106.96152422706633" y1="220.09618943233448" x2="106.96152422706633" y2="210.09618943233448" stroke="black" stroke-width="1"/>
<line x1="106.96152422706633" y1="210.09618943233448" x2="101.96152422706633" y2="201.43593539449012" stroke="black" stroke-width="1"/>
<line x1="101.96152422706633" y1="201.43593539449012" x2="93.30127018922195" y2="196.43593539449012" stroke="black" stroke-width="1"/>
<line x1="101.96152422706633" y1="201.43593539449012" x2="96.96152422706633" y2="192.77568135664575" stroke="black" stroke-width="1"/>
<line x1="106.96152422706633" y1="210.09618943233448" x2="106.96152422706633" y2="200.09618943233448" stroke="black" stroke-width="1"/>
<line x1="106.96152422706633" y1="200.09618943233448" x2="111.96152422706633" y2="191.43593539449012" stroke="black" stroke-width="1"/>
<line x1="106.96152422706633" y1="200.09618943233448" x2="106.96152422706633" y2="190.09618943233448" stroke="black" stroke-width="1"/>
<line x1="106.96152422706633" y1="260.0961894323345" x2="101.96152422706633" y2="251.43593539449012" stroke="black" stroke-width="1"/>
<line x1="101.96152422706633" y1="251.43593539449012" x2="101.96152422706633" y2="241.43593539449012" stroke="black" stroke-width="1"/>
<line x1="101.96152422706633" y1="251.43593539449012" x2="96.96152422706633" y2="242.77568135664575" stroke="black" stroke-width="1"/>
<line x1="96.96152422706633" y1="242.77568135664575" x2="88.30127018922195" y2="237.77568135664575" stroke="black" stroke-width="1"/>
<line x1="96.96152422706633" y1="242.77568135664575" x2="91.96152422706633" y2="234.11542731880138" stroke="black" stroke-width="1"/>
<line x1="91.96152422706633" y1="234.11542731880138" x2="91.96152422706633" y2="224.11542731880138" stroke="black" stroke-width="1"/>
<line x1="91.96152422706633" y1="224.11542731880138" x2="96.96152422706633" y2="215.455173280957" stroke="black" stroke-width="1"/>
<line x1="91.96152422706633" y1="224.11542731880138" x2="91.96152422706633" y2="214.11542731880138" stroke="black" stroke-width="1"/>
<line x1="91.96152422706633" y1="214.11542731880138" x2="86.96152422706633" y2="205.455173280957" stroke="black" stroke-width="1"/>
<line x1="91.96152422706633" y1="214.11542731880138" x2="91.96152422706633" y2="204.11542731880138" stroke="black" stroke-width="1"/>
<line x1="91.96152422706633" y1="234.11542731880138" x2="86.96152422706633" y2="225.455173280957" stroke="black" stroke-width="1"/>
<line x1="86.96152422706633" y1="225.455173280957" x2="78.30127018922195" y2="220.455173280957" stroke="black" stroke-width="1"/>
<line x1="86.96152422706633" y1="225.455173280957" x2="81.96152422706633" y2="216.79491924311264" stroke="black" stroke-width="1"/>
<line x1="81.96152422706633" y1="216.79491924311264" x2="73.30127018922195" y2="211.79491924311264" stroke="black" stroke-width="1"/>
<line x1="73.30127018922195" y1="211.79491924311264" x2="68.30127018922195" y2="203.13466520526828" stroke="black" stroke-width="1"/>
<line x1="73.30127018922195" y1="211.79491924311264" x2="64.64101615137757" y2="206.79491924311264" stroke="black" stroke-width="1"/>
<line x1="64.64101615137757" y1="206.79491924311264" x2="54.64101615137757" y2="206.79491924311264" stroke="black" stroke-width="1"/>
<line x1="64.64101615137757" y1="206.79491924311264" x2="55.98076211353319" y2="201.79491924311264" stroke="black" stroke-width="1"/>
<line x1="55.98076211353319" y1="201.79491924311264" x2="50.98076211353319" y2="193.13466520526828" stroke="black" stroke-width="1"/>
<line x1="50.98076211353319" y1="193.13466520526828" x2="50.98076211353319" y2="183.13466520526828" stroke="black" stroke-width="1"/>
<line x1="50.98076211353319" y1="193.13466520526828" x2="45.98076211353319" y2="184.4744111674239" stroke="black" stroke-width="1"/>
<line x1="55.98076211353319" y1="201.79491924311264" x2="47.32050807568879" y2="196.79491924311264" stroke="black" stroke-width="1"/>
<line x1="47.32050807568879" y1="196.79491924311264" x2="42.32050807568879" y2="188.13466520526828" stroke="black" stroke-width="1"/>
<line x1="47.32050807568879" y1="196.79491924311264" x2="38.660254037844396" y2="191.79491924311264" stroke="black" stroke-width="1"/>
<line x1="38.660254037844396" y1="191.79491924311264" x2="28.660254037844396" y2="191.79491924311264" stroke="black" stroke-width="1"/>
<line x1="38.660254037844396" y1="191.79491924311264" x2="30.0" y2="186.79491924311264" stroke="black" stroke-width="1"/>
<line x1="30.0" y1="186.79491924311264" x2="20.0" y2="186.79491924311264" stroke="black" stroke-width="1"/>
<line x1="20.0" y1="186.79491924311264" x2="11.339745962155604" y2="181.79491924311264" stroke="black" stroke-width="1"/>
<line x1="20.0" y1="186.79491924311264" x2="10.0" y2="186.79491924311264" stroke="black" stroke-width="1"/>
<line x1="10.0" y1="186.79491924311264" x2="1.3397459621556038" y2="191.79491924311264" stroke="black" stroke-width="1"/>
<line x1="10.0" y1="186.79491924311264" x2="0.0" y2="186.79491924311264" stroke="black" stroke-width="1"/>
<line x1="30.0" y1="186.79491924311264" x2="21.339745962155604" y2="181.79491924311264" stroke="black" stroke-width="1"/>
<line x1="21.339745962155604" y1="181.79491924311264" x2="11.339745962155604" y2="181.79491924311264" stroke="black" stroke-width="1"/>
<line x1="21.339745962155604" y1="181.79491924311264" x2="12.679491924311208" y2="176.79491924311264" stroke="black" stroke-width="1"/>
<line x1="81.96152422706633" y1="216.79491924311264" x2="76.96152422706633" y2="208.13466520526828" stroke="black" stroke-width="1"/>
<line x1="76.96152422706633" y1="208.13466520526828" x2="76.96152422706633" y2="198.13466520526828" stroke="black" stroke-width="1"/>
<line x1="76.96152422706633" y1="208.13466520526828" x2="71.96152422706633" y2="199.4744111674239" stroke="black" stroke-width="1"/>
<line x1="71.96152422706633" y1="199.4744111674239" x2="63.30127018922195" y2="194.4744111674239" stroke="black" stroke-width="1"/>
<line x1="71.96152422706633" y1="199.4744111674239" x2="66.96152422706633" y2="190.81415712957954" stroke="black" stroke-width="1"/>
<line x1="66.96152422706633" y1="190.81415712957954" x2="58.30127018922195" y2="185.81415712957954" stroke="black" stroke-width="1"/>
<line x1="58.30127018922195" y1="185.81415712957954" x2="48.30127018922195" y2="185.81415712957954" stroke="black" stroke-width="1"/>
<line x1="58.30127018922195" y1="185.81415712957954" x2="49.641016151377556" y2="180.81415712957954" stroke="black" stroke-width="1"/>
<line x1="66.96152422706633" y1="190.81415712957954" x2="61.961524227066334" y2="182.15390309173517" stroke="black" stroke-width="1"/>
<line x1="61.961524227066334" y1="182.15390309173517" x2="61.961524227066334" y2="172.15390309173517" stroke="black" stroke-width="1"/>
<line x1="61.961524227066334" y1="182.15390309173517" x2="56.961524227066334" y2="173.4936490538908" stroke="black" stroke-width="1"/>
<line x1="56.961524227066334" y1="173.4936490538908" x2="48.30127018922195" y2="168.4936490538908" stroke="black" stroke-width="1"/>
<line x1="56.961524227066334" y1="173.4936490538908" x2="51.96152422706632" y2="164.83339501604644" stroke="black" stroke-width="1"/>
<line x1="181.9615242270664" y1="390.0" x2="181.9615242270664" y2="380.0" stroke="black" stroke-width="1"/>
<line x1="181.9615242270664" y1="380.0" x2="176.9615242270664" y2="371.33974596215563" stroke="black" stroke-width="1"/>
<line x1="181.9615242270664" y1="380.0" x2="181.9615242270664" y2="370.0" stroke="black" stroke-width="1"/>
<line x1="181.9615242270664" y1="370.0" x2="186.9615242270664" y2="361.33974596215563" stroke="black" stroke-width="1"/>
<line x1="186.9615242270664" y1="361.33974596215563" x2="195.6217782649108" y2="356.33974596215563" stroke="black" stroke-width="1"/>
<line x1="186.9615242270664" y1="361.33974596215563" x2="191.9615242270664" y2="352.67949192431126" stroke="black" stroke-width="1"/>
<line x1="181.9615242270664" y1="370.0" x2="181.9615242270664" y2="360.0" stroke="black" stroke-width="1"/>
<line x1="181.9615242270664" y1="360.0" x2="186.9615242270664" y2="351.33974596215563" stroke="black" stroke-width="1"/>
<line x1="181.9615242270664" y1="360.0" x2="181.9615242270664" y2="350.0" stroke="black" stroke-width="1"/>
<line x1="181.9615242270664" y1="350.0" x2="176.9615242270664" y2="341.33974596215563" stroke="black" stroke-width="1"/>
<line x1="181.9615242270664" y1="350.0" x2="181.9615242270664" y2="340.0" stroke="black" stroke-width="1"/>
<line x1="181.9615242270664" y1="340.0" x2="186.9615242270664" y2="331.33974596215563" stroke="black" stroke-width="1"/>
<line x1="186.9615242270664" y1="331.33974596215563" x2="195.6217782649108" y2="326.33974596215563" stroke="black" stroke-width="1"/>
<line x1="186.9615242270664" y1="331.33974596215563" x2="191.9615242270664" y2="322.67949192431126" stroke="black" stroke-width="1"/>
<line x1="191.9615242270664" y1="322.67949192431126" x2="200.6217782649108" y2="317.67949192431126" stroke="black" stroke-width="1"/>
<line x1="200.6217782649108" y1="317.67949192431126" x2="210.6217782649108" y2="317.67949192431126" stroke="black" stroke-width="1"/>
<line x1="200.6217782649108" y1="317.67949192431126" x2="209.28203230275517" y2="312.67949192431126" stroke="black" stroke-width="1"/>
<line x1="191.9615242270664" y1="322.67949192431126" x2="196.9615242270664" y2="314.0192378864669" stroke="black" stroke-width="1"/>
<line x1="196.9615242270664" y1="314.0192378864669" x2="196.9615242270664" y2="304.0192378864669" stroke="black" stroke-width="1"/>
<line x1="196.9615242270664" y1="314.0192378864669" x2="201.9615242270664" y2="305.35898384862253" stroke="black" stroke-width="1"/>
<line x1="181.9615242270664" y1="340.0" x2="181.9615242270664" y2="330.0" stroke="black" stroke-width="1"/>
<line x1="181.9615242270664" y1="330.0" x2="186.9615242270664" y2="321.33974596215563" stroke="black" stroke-width="1"/>
<line x1="181.9615242270664" y1="330.0" x2="181.9615242270664" y2="320.0" stroke="black" stroke-width="1"/>
<line x1="181.9615242270664" y1="320.0" x2="186.9615242270664" y2="311.33974596215563" stroke="black" stroke-width="1"/>
<line x1="186.9615242270664" y1="311.33974596215563" x2="186.9615242270664" y2="301.33974596215563" stroke="black" stroke-width="1"/>
<line x1="186.9615242270664" y1="311.33974596215563" x2="191.9615242270664" y2="302.67949192431126" stroke="black" stroke-width="1"/>
<line x1="181.9615242270664" y1="320.0" x2="181.9615242270664" y2="310.0" stroke="black" stroke-width="1"/>
<line x1="181.9615242270664" y1="310.0" x2="186.9615242270664" y2="301.33974596215563" stroke="black" stroke-width="1"/>
<line x1="181.9615242270664" y1="310.0" x2="181.9615242270664" y2="300.0" stroke="black" stroke-width="1"/>
<line x1="181.9615242270664" y1="300.0" x2="176.9615242270664" y2="291.33974596215563" stroke="black" stroke-width="1"/>
<line x1="176.9615242270664" y1="291.33974596215563" x2="168.301270189222" y2="286.33974596215563" stroke="black" stroke-width="1"/>
<line x1="176.9615242270664" y1="291.33974596215563" x2="171.9615242270664" y2="282.67949192431126" stroke="black" stroke-width="1"/>
<line x1="171.9615242270664" y1="282.67949192431126" x2="163.301270189222" y2="277.67949192431126" stroke="black" stroke-width="1"/>
<line x1="163.301270189222" y1="277.67949192431126" x2="153.301270189222" y2="277.67949192431126" stroke="black" stroke-width="1"/>
<line x1="163.301270189222" y1="277.67949192431126" x2="154.6410161513776" y2="272.67949192431126" stroke="black" stroke-width="1"/>
<line x1="171.9615242270664" y1="282.67949192431126" x2="166.96152422706638" y2="274.0192378864669" stroke="black" stroke-width="1"/>
<line x1="166.96152422706638" y1="274.0192378864669" x2="158.301270189222" y2="269.0192378864669" stroke="black" stroke-width="1"/>
<line x1="166.96152422706638" y1="274.0192378864669" x2="161.96152422706638" y2="265.35898384862253" stroke="black" stroke-width="1"/>
<line x1="181.9615242270664" y1="300.0" x2="181.9615242270664" y2="290.0" stroke="black" stroke-width="1"/>
<line x1="181.9615242270664" y1="290.0" x2="186.9615242270664" y2="281.33974596215563" stroke="black" stroke-width="1"/>
<line x1="181.9615242270664" y1="290.0" x2="181.9615242270664" y2="280.0" stroke="black" stroke-width="1"/>
<line x1="181.9615242270664" y1="280.0" x2="176.9615242270664" y2="271.33974596215563" stroke="black" stroke-width="1"/>
<line x1="181.9615242270664" y1="280.0" x2="181.9615242270664" y2="270.0" stroke="black" stroke-width="1"/>
<line x1="181.9615242270664" y1="270.0" x2="186.9615242270664" y2="261.33974596215563" stroke="black" stroke-width="1"/>
<line x1="186.9615242270664" y1="261.33974596215563" x2="195.6217782649108" y2="256.33974596215563" stroke="black" stroke-width="1"/>
<line x1="186.9615242270664" y1="261.33974596215563" x2="191.9615242270664" y2="252.67949192431126" stroke="black" stroke-width="1"/>
<line x1="181.9615242270664" y1="270.0" x2="181.9615242270664" y2="260.0" stroke="black" stroke-width="1"/>
<line x1="181.9615242270664" y1="260.0" x2="176.9615242270664" y2="251.33974596215563" stroke="black" stroke-width="1"/>
<line x1="181.9615242270664" y1="260.0" x2="181.9615242270664" y2="250.0" stroke="black" stroke-width="1"/>
<line x1="181.9615242270664" y1="250.0" x2="186.9615242270664" y2="241.33974596215563" stroke="black" stroke-width="1"/>
<line x1="186.9615242270664" y1="241.33974596215563" x2="195.6217782649108" y2="236.33974596215563" stroke="black" stroke-width="1"/>
<line x1="186.9615242270664" y1="241.33974596215563" x2="191.9615242270664" y2="232.67949192431126" stroke="black" stroke-width="1"/>
<line x1="191.9615242270664" y1="232.67949192431126" x2="191.9615242270664" y2="222.67949192431126" stroke="black" stroke-width="1"/>
<line x1="191.9615242270664" y1="232.67949192431126" x2="196.9615242270664" y2="224.0192378864669" stroke="black" stroke-width="1"/>
<line x1="196.9615242270664" y1="224.0192378864669" x2="205.6217782649108" y2="219.0192378864669" stroke="black" stroke-width="1"/>
<line x1="205.6217782649108" y1="219.0192378864669" x2="215.6217782649108" y2="219.0192378864669" stroke="black" stroke-width="1"/>
<line x1="205.6217782649108" y1="219.0192378864669" x2="214.28203230275517" y2="214.0192378864669" stroke="black" stroke-width="1"/>
<line x1="196.9615242270664" y1="224.0192378864669" x2="201.9615242270664" y2="215.35898384862253" stroke="black" stroke-width="1"/>
<line x1="201.9615242270664" y1="215.35898384862253" x2="210.6217782649108" y2="210.35898384862253" stroke="black" stroke-width="1"/>
<line x1="201.9615242270664" y1="215.35898384862253" x2="206.9615242270664" y2="206.69872981077816" stroke="black" stroke-width="1"/>
<line x1="206.9615242270664" y1="206.69872981077816" x2="206.9615242270664" y2="196.69872981077816" stroke="black" stroke-width="1"/>
<line x1="206.9615242270664" y1="206.69872981077816" x2="211.9615242270664" y2="198.0384757729338" stroke="black" stroke-width="1"/>
<line x1="211.9615242270664" y1="198.0384757729338" x2="211.9615242270664" y2="188.0384757729338" stroke="black" stroke-width="1"/>
<line x1="211.9615242270664" y1="188.0384757729338" x2="216.9615242270664" y2="179.37822173508943" stroke="black" stroke-width="1"/>
<line x1="211.9615242270664" y1="188.0384757729338" x2="211.9615242270664" y2="178.0384757729338" stroke="black" stroke-width="1"/>
<line x1="211.9615242270664" y1="178.0384757729338" x2="216.9615242270664" y2="169.37822173508943" stroke="black" stroke-width="1"/>
<line x1="216.9615242270664" y1="169.37822173508943" x2="225.6217782649108" y2="164.37822173508937" stroke="black" stroke-width="1"/>
<line x1="216.9615242270664" y1="169.37822173508943" x2="221.9615242270664" y2="160.71796769724506" stroke="black" stroke-width="1"/>
<line x1="221.9615242270664" y1="160.71796769724506" x2="221.9615242270664" y2="150.71796769724506" stroke="black" stroke-width="1"/>
<line x1="221.9615242270664" y1="160.71796769724506" x2="226.9615242270664" y2="152.05771365940063" stroke="black" stroke-width="1"/>
<line x1="211.9615242270664" y1="178.0384757729338" x2="211.9615242270664" y2="168.0384757729338" stroke="black" stroke-width="1"/>
<line x1="211.9615242270664" y1="168.0384757729338" x2="206.9615242270664" y2="159.37822173508937" stroke="black" stroke-width="1"/>
<line x1="211.9615242270664" y1="168.0384757729338" x2="211.9615242270664" y2="158.0384757729338" stroke="black" stroke-width="1"/>
<line x1="211.9615242270664" y1="198.0384757729338" x2="216.9615242270664" y2="189.37822173508943" stroke="black" stroke-width="1"/>
<line x1="216.9615242270664" y1="189.37822173508943" x2="216.9615242270664" y2="179.37822173508943" stroke="black" stroke-width="1"/>
<line x1="216.9615242270664" y1="189.37822173508943" x2="221.9615242270664" y2="180.71796769724506" stroke="black" stroke-width="1"/>
<line x1="221.9615242270664" y1="180.71796769724506" x2="230.6217782649108" y2="175.71796769724506" stroke="black" stroke-width="1"/>
<line x1="230.6217782649108" y1="175.71796769724506" x2="240.6217782649108" y2="175.71796769724506" stroke="black" stroke-width="1"/>
<line x1="230.6217782649108" y1="175.71796769724506" x2="239.28203230275517" y2="170.71796769724506" stroke="black" stroke-width="1"/>
<line x1="239.28203230275517" y1="170.71796769724506" x2="244.28203230275517" y2="162.05771365940063" stroke="black" stroke-width="1"/>
<line x1="239.28203230275517" y1="170.71796769724506" x2="247.94228634059954" y2="165.71796769724506" stroke="black" stroke-width="1"/>
<line x1="221.9615242270664" y1="180.71796769724506" x2="226.9615242270664" y2="172.0577136594007" stroke="black" stroke-width="1"/>
<line x1="226.9615242270664" y1="172.0577136594007" x2="235.6217782649108" y2="167.05771365940063" stroke="black" stroke-width="1"/>
<line x1="226.9615242270664" y1="172.0577136594007" x2="231.9615242270664" y2="163.39745962155632" stroke="black" stroke-width="1"/>
<line x1="231.9615242270664" y1="163.39745962155632" x2="231.9615242270664" y2="153.39745962155632" stroke="black" stroke-width="1"/>
<line x1="231.9615242270664" y1="153.39745962155632" x2="236.9615242270664" y2="144.7372055837119" stroke="black" stroke-width="1"/>
<line x1="231.9615242270664" y1="153.39745962155632" x2="231.9615242270664" y2="143.39745962155632" stroke="black" stroke-width="1"/>
<line x1="231.9615242270664" y1="143.39745962155632" x2="226.96152422706638" y2="134.7372055837119" stroke="black" stroke-width="1"/>
<line x1="231.9615242270664" y1="143.39745962155632" x2="231.9615242270664" y2="133.39745962155632" stroke="black" stroke-width="1"/>
<line x1="231.9615242270664" y1="163.39745962155632" x2="236.9615242270664" y2="154.7372055837119" stroke="black" stroke-width="1"/>
<line x1="236.9615242270664" y1="154.7372055837119" x2="245.6217782649108" y2="149.7372055837119" stroke="black" stroke-width="1"/>
<line x1="236.9615242270664" y1="154.7372055837119" x2="241.9615242270664" y2="146.07695154586747" stroke="black" stroke-width="1"/>
<line x1="181.9615242270664" y1="250.0" x2="181.9615242270664" y2="240.0" stroke="black" stroke-width="1"/>
<line x1="181.9615242270664" y1="240.0" x2="186.9615242270664" y2="231.33974596215563" stroke="black" stroke-width="1"/>
<line x1="181.9615242270664" y1="240.0" x2="181.9615242270664" y2="230.0" stroke="black" stroke-width="1"/>
<line x1="181.9615242270664" y1="230.0" x2="176.9615242270664" y2="221.33974596215563" stroke="black" stroke-width="1"/>
<line x1="176.9615242270664" y1="221.33974596215563" x2="176.9615242270664" y2="211.33974596215563" stroke="black" stroke-width="1"/>
<line x1="176.9615242270664" y1="221.33974596215563" x2="171.9615242270664" y2="212.67949192431126" stroke="black" stroke-width="1"/>
<line x1="181.9615242270664" y1="230.0" x2="181.9615242270664" y2="220.0" stroke="black" stroke-width="1"/>
<line x1="181.9615242270664" y1="220.0" x2="186.9615242270664" y2="211.33974596215563" stroke="black" stroke-width="1"/>
<line x1="181.9615242270664" y1="220.0" x2="181.9615242270664" y2="210.0" stroke="black" stroke-width="1"/>
<line x1="181.9615242270664" y1="210.0" x2="176.9615242270664" y2="201.33974596215563" stroke="black" stroke-width="1"/>
<line x1="176.9615242270664" y1="201.33974596215563" x2="168.301270189222" y2="196.33974596215563" stroke="black" stroke-width="1"/>
<line x1="176.9615242270664" y1="201.33974596215563" x2="171.9615242270664" y2="192.67949192431126" stroke="black" stroke-width="1"/>
<line x1="171.9615242270664" y1="192.67949192431126" x2="171.9615242270664" y2="182.67949192431126" stroke="black" stroke-width="1"/>
<line x1="171.9615242270664" y1="182.67949192431126" x2="176.9615242270664" y2="174.0192378864669" stroke="black" stroke-width="1"/>
<line x1="171.9615242270664" y1="182.67949192431126" x2="171.9615242270664" y2="172.67949192431126" stroke="black" stroke-width="1"/>
<line x1="171.9615242270664" y1="192.67949192431126" x2="166.96152422706638" y2="184.0192378864669" stroke="black" stroke-width="1"/>
<line x1="166.96152422706638" y1="184.0192378864669" x2="166.96152422706638" y2="174.0192378864669" stroke="black" stroke-width="1"/>
<line x1="166.96152422706638" y1="184.0192378864669" x2="161.96152422706638" y2="175.35898384862253" stroke="black" stroke-width="1"/>
<line x1="161.96152422706638" y1="175.35898384862253" x2="153.301270189222" y2="170.35898384862253" stroke="black" stroke-width="1"/>
<line x1="161.96152422706638" y1="175.35898384862253" x2="156.96152422706638" y2="166.6987298107781" stroke="black" stroke-width="1"/>
<line x1="156.96152422706638" y1="166.6987298107781" x2="148.301270189222" y2="161.6987298107781" stroke="black" stroke-width="1"/>
<line x1="148.301270189222" y1="161.6987298107781" x2="138.301270189222" y2="161.6987298107781" stroke="black" stroke-width="1"/>
<line x1="148.301270189222" y1="161.6987298107781" x2="139.6410161513776" y2="156.6987298107781" stroke="black" stroke-width="1"/>
<line x1="156.96152422706638" y1="166.6987298107781" x2="151.96152422706638" y2="158.03847577293368" stroke="black" stroke-width="1"/>
<line x1="151.96152422706638" y1="158.03847577293368" x2="151.96152422706638" y2="148.03847577293368" stroke="black" stroke-width="1"/>
<line x1="151.96152422706638" y1="158.03847577293368" x2="146.96152422706638" y2="149.37822173508926" stroke="black" stroke-width="1"/>
<line x1="146.96152422706638" y1="149.37822173508926" x2="138.301270189222" y2="144.37822173508926" stroke="black" stroke-width="1"/>
<line x1="146.96152422706638" y1="149.37822173508926" x2="141.96152422706638" y2="140.71796769724483" stroke="black" stroke-width="1"/>
<line x1="181.9615242270664" y1="210.0" x2="181.9615242270664" y2="200.0" stroke="black" stroke-width="1"/>
<line x1="181.9615242270664" y1="200.0" x2="186.9615242270664" y2="191.33974596215563" stroke="black" stroke-width="1"/>
<line x1="181.9615242270664" y1="200.0" x2="181.9615242270664" y2="190.0" stroke="black" stroke-width="1"/>
<line x1="181.9615242270664" y1="190.0" x2="176.9615242270664" y2="181.33974596215563" stroke="black" stroke-width="1"/>
<line x1="181.9615242270664" y1="190.0" x2="181.9615242270664" y2="180.0" stroke="black" stroke-width="1"/>
<line x1="181.9615242270664" y1="180.0" x2="186.9615242270664" y2="171.33974596215563" stroke="black" stroke-width="1"/>
<line x1="186.9615242270664" y1="171.33974596215563" x2="195.6217782649108" y2="166.33974596215558" stroke="black" stroke-width="1"/>
<line x1="186.9615242270664" y1="171.33974596215563" x2="191.9615242270664" y2="162.67949192431126" stroke="black" stroke-width="1"/>
<line x1="191.9615242270664" y1="162.67949192431126" x2="191.9615242270664" y2="152.67949192431126" stroke="black" stroke-width="1"/>
<line x1="191.9615242270664" y1="162.67949192431126" x2="196.9615242270664" y2="154.01923788646684" stroke="black" stroke-width="1"/>
<line x1="181.9615242270664" y1="180.0" x2="181.9615242270664" y2="170.0" stroke="black" stroke-width="1"/>
<line x1="181.9615242270664" y1="170.0" x2="186.9615242270664" y2="161.33974596215558" stroke="black" stroke-width="1"/>
<line x1="181.9615242270664" y1="170.0" x2="181.9615242270664" y2="160.0" stroke="black" stroke-width="1"/>
<line x1="181.9615242270664" y1="160.0" x2="176.9615242270664" y2="151.33974596215558" stroke="black" stroke-width="1"/>
<line x1="181.9615242270664" y1="160.0" x2="181.9615242270664" y2="150.0" stroke="black" stroke-width="1"/>
<line x1="181.9615242270664" y1="150.0" x2="176.9615242270664" y2="141.33974596215558" stroke="black" stroke-width="1"/>
<line x1="176.9615242270664" y1="141.33974596215558" x2="176.9615242270664" y2="131.33974596215558" stroke="black" stroke-width="1"/>
<line x1="176.9615242270664" y1="141.33974596215558" x2="171.9615242270664" y2="132.67949192431115" stroke="black" stroke-width="1"/>
<line x1="171.9615242270664" y1="132.67949192431115" x2="163.301270189222" y2="127.67949192431115" stroke="black" stroke-width="1"/>
<line x1="171.9615242270664" y1="132.67949192431115" x2="166.96152422706638" y2="124.01923788646673" stroke="black" stroke-width="1"/>
<line x1="166.96152422706638" y1="124.01923788646673" x2="166.96152422706638" y2="114.01923788646673" stroke="black" stroke-width="1"/>
<line x1="166.96152422706638" y1="114.01923788646673" x2="171.96152422706638" y2="105.3589838486223" stroke="black" stroke-width="1"/>
<line x1="166.96152422706638" y1="114.01923788646673" x2="166.96152422706638" y2="104.01923788646673" stroke="black" stroke-width="1"/>
<line x1="166.96152422706638" y1="124.01923788646673" x2="161.96152422706638" y2="115.3589838486223" stroke="black" stroke-width="1"/>
<line x1="161.96152422706638" y1="115.3589838486223" x2="161.96152422706638" y2="105.3589838486223" stroke="black" stroke-width="1"/>
<line x1="161.96152422706638" y1="115.3589838486223" x2="156.96152422706638" y2="106.69872981077788" stroke="black" stroke-width="1"/>
<line x1="156.96152422706638" y1="106.69872981077788" x2="148.301270189222" y2="101.69872981077788" stroke="black" stroke-width="1"/>
<line x1="148.301270189222" y1="101.69872981077788" x2="143.30127018922198" y2="93.03847577293345" stroke="black" stroke-width="1"/>
<line x1="148.301270189222" y1="101.69872981077788" x2="139.6410161513776" y2="96.69872981077788" stroke="black" stroke-width="1"/>
<line x1="139.6410161513776" y1="96.69872981077788" x2="129.6410161513776" y2="96.69872981077788" stroke="black" stroke-width="1"/>
<line x1="139.6410161513776" y1="96.69872981077788" x2="130.98076211353322" y2="91.69872981077788" stroke="black" stroke-width="1"/>
<line x1="130.98076211353322" y1="91.69872981077788" x2="120.98076211353323" y2="91.69872981077788" stroke="black" stroke-width="1"/>
<line x1="120.98076211353323" y1="91.69872981077788" x2="112.32050807568885" y2="96.69872981077788" stroke="black" stroke-width="1"/>
<line x1="120.98076211353323" y1="91.69872981077788" x2="110.98076211353323" y2="91.69872981077788" stroke="black" stroke-width="1"/>
<line x1="130.98076211353322" y1="91.69872981077788" x2="122.32050807568885" y2="86.69872981077788" stroke="black" stroke-width="1"/>
<line x1="122.32050807568885" y1="86.69872981077788" x2="112.32050807568885" y2="86.69872981077788" stroke="black" stroke-width="1"/>
<line x1="122.32050807568885" y1="86.69872981077788" x2="113.66025403784447" y2="81.69872981077788" stroke="black" stroke-width="1"/>
<line x1="156.96152422706638" y1="106.69872981077788" x2="151.96152422706638" y2="98.03847577293345" stroke="black" stroke-width="1"/>
<line x1="151.96152422706638" y1="98.03847577293345" x2="143.301270189222" y2="93.03847577293345" stroke="black" stroke-width="1"/>
<line x1="151.96152422706638" y1="98.03847577293345" x2="146.96152422706638" y2="89.37822173508903" stroke="black" stroke-width="1"/>
<line x1="146.96152422706638" y1="89.37822173508903" x2="138.301270189222" y2="84.37822173508903" stroke="black" stroke-width="1"/>
<line x1="138.301270189222" y1="84.37822173508903" x2="133.30127018922198" y2="75.7179676972446" stroke="black" stroke-width="1"/>
<line x1="138.301270189222" y1="84.37822173508903" x2="129.6410161513776" y2="79.37822173508903" stroke="black" stroke-width="1"/>
<line x1="146.96152422706638" y1="89.37822173508903" x2="141.96152422706638" y2="80.7179676972446" stroke="black" stroke-width="1"/>
<line x1="141.96152422706638" y1="80.7179676972446" x2="141.96152422706638" y2="70.7179676972446" stroke="black" stroke-width="1"/>
<line x1="141.96152422706638" y1="80.7179676972446" x2="136.96152422706638" y2="72.05771365940018" stroke="black" stroke-width="1"/>
<line x1="136.96152422706638" y1="72.05771365940018" x2="128.30127018922198" y2="67.05771365940018" stroke="black" stroke-width="1"/>
<line x1="136.96152422706638" y1="72.05771365940018" x2="131.96152422706635" y2="63.397459621555754" stroke="black" stroke-width="1"/>
<line x1="181.9615242270664" y1="150.0" x2="181.9615242270664" y2="140.0" stroke="black" stroke-width="1"/>
<line x1="181.9615242270664" y1="140.0" x2="186.9615242270664" y2="131.33974596215558" stroke="black" stroke-width="1"/>
<line x1="181.9615242270664" y1="140.0" x2="181.9615242270664" y2="130.0" stroke="black" stroke-width="1"/>
<line x1="181.9615242270664" y1="130.0" x2="186.9615242270664" y2="121.33974596215558" stroke="black" stroke-width="1"/>
<line x1="186.9615242270664" y1="121.33974596215558" x2="186.9615242270664" y2="111.33974596215558" stroke="black" stroke-width="1"/>
<line x1="186.9615242270664" y1="121.33974596215558" x2="191.9615242270664" y2="112.67949192431115" stroke="black" stroke-width="1"/>
<line x1="181.9615242270664" y1="130.0" x2="181.9615242270664" y2="120.0" stroke="black" stroke-width="1"/>
<line x1="181.9615242270664" y1="120.0" x2="176.9615242270664" y2="111.33974596215558" stroke="black" stroke-width="1"/>
<line x1="181.9615242270664" y1="120.0" x2="181.9615242270664" y2="110.0" stroke="black" stroke-width="1"/>
<line x1="181.9615242270664" y1="110.0" x2="176.9615242270664" y2="101.33974596215558" stroke="black" stroke-width="1"/>
<line x1="176.9615242270664" y1="101.33974596215558" x2="176.9615242270664" y2="91.33974596215558" stroke="black" stroke-width="1"/>
<line x1="176.9615242270664" y1="101.33974596215558" x2="171.9615242270664" y2="92.67949192431115" stroke="black" stroke-width="1"/>
<line x1="171.9615242270664" y1="92.67949192431115" x2="163.301270189222" y2="87.67949192431115" stroke="black" stroke-width="1"/>
<line x1="171.9615242270664" y1="92.67949192431115" x2="166.96152422706638" y2="84.01923788646673" stroke="black" stroke-width="1"/>
<line x1="181.9615242270664" y1="110.0" x2="181.9615242270664" y2="100.0" stroke="black" stroke-width="1"/>
<line x1="181.9615242270664" y1="100.0" x2="186.9615242270664" y2="91.33974596215558" stroke="black" stroke-width="1"/>
<line x1="181.9615242270664" y1="100.0" x2="181.9615242270664" y2="90.0" stroke="black" stroke-width="1"/>
<line x1="181.9615242270664" y1="90.0" x2="176.9615242270664" y2="81.33974596215558" stroke="black" stroke-width="1"/>
<line x1="181.9615242270664" y1="90.0" x2="181.9615242270664" y2="80.0" stroke="black" stroke-width="1"/>
<line x1="181.9615242270664" y1="80.0" x2="176.9615242270664" y2="71.33974596215558" stroke="black" stroke-width="1"/>
<line x1="176.9615242270664" y1="71.33974596215558" x2="176.9615242270664" y2="61.339745962155575" stroke="black" stroke-width="1"/>
<line x1="176.9615242270664" y1="71.33974596215558" x2="171.9615242270664" y2="62.67949192431115" stroke="black" stroke-width="1"/>
<line x1="171.9615242270664" y1="62.67949192431115" x2="163.301270189222" y2="57.67949192431115" stroke="black" stroke-width="1"/>
<line x1="171.9615242270664" y1="62.67949192431115" x2="166.96152422706638" y2="54.019237886466726" stroke="black" stroke-width="1"/>
<line x1="166.96152422706638" y1="54.019237886466726" x2="166.96152422706638" y2="44.019237886466726" stroke="black" stroke-width="1"/>
<line x1="166.96152422706638" y1="44.019237886466726" x2="171.96152422706638" y2="35.3589838486223" stroke="black" stroke-width="1"/>
<line x1="166.96152422706638" y1="44.019237886466726" x2="166.96152422706638" y2="34.019237886466726" stroke="black" stroke-width="1"/>
<line x1="166.96152422706638" y1="54.019237886466726" x2="161.96152422706638" y2="45.3589838486223" stroke="black" stroke-width="1"/>
<line x1="161.96152422706638" y1="45.3589838486223" x2="153.301270189222" y2="40.3589838486223" stroke="black" stroke-width="1"/>
<line x1="161.96152422706638" y1="45.3589838486223" x2="156.96152422706638" y2="36.69872981077788" stroke="black" stroke-width="1"/>
<line x1="181.9615242270664" y1="80.0" x2="181.9615242270664" y2="70.0" stroke="black" stroke-width="1"/>
<line x1="181.9615242270664" y1="70.0" x2="186.9615242270664" y2="61.339745962155575" stroke="black" stroke-width="1"/>
<line x1="181.9615242270664" y1="70.0" x2="181.9615242270664" y2="60.0" stroke="black" stroke-width="1"/>
<line x1="181.9615242270664" y1="60.0" x2="176.9615242270664" y2="51.339745962155575" stroke="black" stroke-width="1"/>
<line x1="181.9615242270664" y1="60.0" x2="181.9615242270664" y2="50.0" stroke="black" stroke-width="1"/>
<line x1="181.9615242270664" y1="50.0" x2="186.9615242270664" y2="41.339745962155575" stroke="black" stroke-width="1"/>
<line x1="186.9615242270664" y1="41.339745962155575" x2="195.6217782649108" y2="36.339745962155575" stroke="black" stroke-width="1"/>
<line x1="186.9615242270664" y1="41.339745962155575" x2="191.9615242270664" y2="32.67949192431115" stroke="black" stroke-width="1"/>
<line x1="181.9615242270664" y1="50.0" x2="181.9615242270664" y2="40.0" stroke="black" stroke-width="1"/>
<line x1="181.9615242270664" y1="40.0" x2="186.9615242270664" y2="31.339745962155575" stroke="black" stroke-width="1"/>
<line x1="181.9615242270664" y1="40.0" x2="181.9615242270664" y2="30.0" stroke="black" stroke-width="1"/>
<line x1="181.9615242270664" y1="30.0" x2="176.9615242270664" y2="21.339745962155575" stroke="black" stroke-width="1"/>
<line x1="176.9615242270664" y1="21.339745962155575" x2="168.301270189222" y2="16.339745962155575" stroke="black" stroke-width="1"/>
<line x1="176.9615242270664" y1="21.339745962155575" x2="171.9615242270664" y2="12.67949192431115" stroke="black" stroke-width="1"/>
<line x1="181.9615242270664" y1="30.0" x2="181.9615242270664" y2="20.0" stroke="black" stroke-width="1"/>
<line x1="181.9615242270664" y1="20.0" x2="186.9615242270664" y2="11.339745962155575" stroke="black" stroke-width="1"/>
<line x1="181.9615242270664" y1="20.0" x2="181.9615242270664" y2="10.0" stroke="black" stroke-width="1"/>
<line x1="181.9615242270664" y1="10.0" x2="176.9615242270664" y2="1.3397459621555754" stroke="black" stroke-width="1"/>
<line x1="181.9615242270664" y1="10.0" x2="181.9615242270664" y2="0.0" stroke="black" stroke-width="1"/>
</svg>
