<svg width="258.30127018922195" height="900.0" xmlns="http://www.w3.org/2000/svg">
<line x1="63.66025403784444" y1="900.0" x2="63.66025403784444" y2="890.0" stroke="black" stroke-width="1"/>
<line x1="63.66025403784444" y1="890.0" x2="58.66025403784443" y2="881.3397459621556" stroke="black" stroke-width="1"/>
<line x1="63.66025403784444" y1="890.0" x2="63.66025403784444" y2="880.0" stroke="black" stroke-width="1"/>
<line x1="63.66025403784444" y1="880.0" x2="68.66025403784444" y2="871.3397459621556" stroke="black" stroke-width="1"/>
<line x1="68.66025403784444" y1="871.3397459621556" x2="68.66025403784444" y2="861.3397459621556" stroke="black" stroke-width="1"/>
<line x1="68.66025403784444" y1="871.3397459621556" x2="73.66025403784444" y2="862.6794919243113" stroke="black" stroke-width="1"/>
<line x1="63.66025403784444" y1="880.0" x2="63.66025403784444" y2="870.0" stroke="black" stroke-width="1"/>
<line x1="63.66025403784444" y1="870.0" x2="58.66025403784443" y2="861.3397459621556" stroke="black" stroke-width="1"/>
<line x1="63.66025403784444" y1="870.0" x2="63.66025403784444" y2="860.0" stroke="black" stroke-width="1"/>
<line x1="63.66025403784444" y1="860.0" x2="58.66025403784443" y2="851.3397459621556" stroke="black" stroke-width="1"/>
<line x1="58.66025403784443" y1="851.3397459621556" x2="58.66025403784443" y2="841.3397459621556" stroke="black" stroke-width="1"/>
<line x1="58.66025403784443" y1="851.3397459621556" x2="53.66025403784443" y2="842.6794919243113" stroke="black" stroke-width="1"/>
<line x1="53.66025403784443" y1="842.6794919243113" x2="45.00000000000004" y2="837.6794919243113" stroke="black" stroke-width="1"/>
<line x1="53.66025403784443" y1="842.6794919243113" x2="48.660254037844425" y2="834.0192378864668" stroke="black" stroke-width="1"/>
<line x1="63.66025403784444" y1="860.0" x2="63.66025403784444" y2="850.0" stroke="black" stroke-width="1"/>
<line x1="63.66025403784444" y1="850.0" x2="58.66025403784443" y2="841.3397459621556" stroke="black" stroke-width="1"/>
<line x1="63.66025403784444" y1="850.0" x2="63.66025403784444" y2="840.0" stroke="black" stroke-width="1"/>
<line x1="63.66025403784444" y1="840.0" x2="58.66025403784443" y2="831.3397459621556" stroke="black" stroke-width="1"/>
<line x1="58.66025403784443" y1="831.3397459621556" x2="50.00000000000005" y2="826.3397459621556" stroke="black" stroke-width="1"/>
<line x1="58.66025403784443" y1="831.3397459621556" x2="53.66025403784443" y2="822.6794919243113" stroke="black" stroke-width="1"/>
<line x1="53.66025403784443" y1="822.6794919243113" x2="53.66025403784443" y2="812.6794919243113" stroke="black" stroke-width="1"/>
<line x1="53.66025403784443" y1="812.6794919243113" x2="58.66025403784443" y2="804.0192378864668" stroke="black" stroke-width="1"/>
<line x1="53.66025403784443" y1="812.6794919243113" x2="53.66025403784443" y2="802.6794919243113" stroke="black" stroke-width="1"/>
<line x1="53.66025403784443" y1="822.6794919243113" x2="48.660254037844425" y2="814.0192378864668" stroke="black" stroke-width="1"/>
<line x1="48.660254037844425" y1="814.0192378864668" x2="40.00000000000004" y2="809.0192378864668" stroke="black" stroke-width="1"/>
<line x1="48.660254037844425" y1="814.0192378864668" x2="43.660254037844425" y2="805.3589838486225" stroke="black" stroke-width="1"/>
<line x1="63.66025403784444" y1="840.0" x2="63.66025403784444" y2="830.0" stroke="black" stroke-width="1"/>
<line x1="63.66025403784444" y1="830.0" x2="68.66025403784444" y2="821.3397459621556" stroke="black" stroke-width="1"/>
<line x1="63.66025403784444" y1="830.0" x2="63.66025403784444" y2="820.0" stroke="black" stroke-width="1"/>
<line x1="63.66025403784444" y1="820.0" x2="58.66025403784443" y2="811.3397459621556" stroke="black" stroke-width="1"/>
<line x1="63.66025403784444" y1="820.0" x2="63.66025403784444" y2="810.0" stroke="black" stroke-width="1"/>
<line x1="63.66025403784444" y1="810.0" x2="68.66025403784444" y2="801.3397459621556" stroke="black" stroke-width="1"/>
<line x1="68.66025403784444" y1="801.3397459621556" x2="68.66025403784444" y2="791.3397459621556" stroke="black" stroke-width="1"/>
<line x1="68.66025403784444" y1="801.3397459621556" x2="73.66025403784444" y2="792.6794919243113" stroke="black" stroke-width="1"/>
<line x1="63.66025403784444" y1="810.0" x2="63.66025403784444" y2="800.0" stroke="black" stroke-width="1"/>
<line x1="63.66025403784444" y1="800.0" x2="68.66025403784444" y2="791.3397459621556" stroke="black" stroke-width="1"/>
<line x1="63.66025403784444" y1="800.0" x2="63.66025403784444" y2="790.0" stroke="black" stroke-width="1"/>
<line x1="63.66025403784444" y1="790.0" x2="58.66025403784443" y2="781.3397459621556" stroke="black" stroke-width="1"/>
<line x1="58.66025403784443" y1="781.3397459621556" x2="58.66025403784443" y2="771.3397459621556" stroke="black" stroke-width="1"/>
<line x1="58.66025403784443" y1="781.3397459621556" x2="53.66025403784443" y2="772.6794919243113" stroke="black" stroke-width="1"/>
<line x1="63.66025403784444" y1="790.0" x2="63.66025403784444" y2="780.0" stroke="black" stroke-width="1"/>
<line x1="63.66025403784444" y1="780.0" x2="68.66025403784444" y2="771.3397459621556" stroke="black" stroke-width="1"/>
<line x1="63.66025403784444" y1="780.0" x2="63.66025403784444" y2="770.0" stroke="black" stroke-width="1"/>
<line x1="63.66025403784444" y1="770.0" x2="58.66025403784443" y2="761.3397459621556" stroke="black" stroke-width="1"/>
<line x1="63.66025403784444" y1="770.0" x2="63.66025403784444" y2="760.0" stroke="black" stroke-width="1"/>
<line x1="63.66025403784444" y1="760.0" x2="68.66025403784444" y2="751.3397459621556" stroke="black" stroke-width="1"/>
<line x1="68.66025403784444" y1="751.3397459621556" x2="68.66025403784444" y2="741.3397459621556" stroke="black" stroke-width="1"/>
<line x1="68.66025403784444" y1="751.3397459621556" x2="73.66025403784444" y2="742.6794919243112" stroke="black" stroke-width="1"/>
<line x1="73.66025403784444" y1="742.6794919243112" x2="82.32050807568882" y2="737.6794919243112" stroke="black" stroke-width="1"/>
<line x1="82.32050807568882" y1="737.6794919243112" x2="92.32050807568882" y2="737.6794919243112" stroke="black" stroke-width="1"/>
<line x1="82.32050807568882" y1="737.6794919243112" x2="90.9807621135332" y2="732.6794919243112" stroke="black" stroke-width="1"/>
<line x1="90.9807621135332" y1="732.6794919243112" x2="95.9807621135332" y2="724.0192378864668" stroke="black" stroke-width="1"/>
<line x1="90.9807621135332" y1="732.6794919243112" x2="99.64101615137758" y2="727.6794919243112" stroke="black" stroke-width="1"/>
<line x1="73.66025403784444" y1="742.6794919243112" x2="78.66025403784444" y2="734.0192378864668" stroke="black" stroke-width="1"/>
<line x1="78.66025403784444" y1="734.0192378864668" x2="78.66025403784444" y2="724.0192378864668" stroke="black" stroke-width="1"/>
<line x1="78.66025403784444" y1="734.0192378864668" x2="83.66025403784444" y2="725.3589838486224" stroke="black" stroke-width="1"/>
<line x1="83.66025403784444" y1="725.3589838486224" x2="83.66025403784444" y2="715.3589838486224" stroke="black" stroke-width="1"/>
<line x1="83.66025403784444" y1="715.3589838486224" x2="88.66025403784444" y2="706.698729810778" stroke="black" stroke-width="1"/>
<line x1="83.66025403784444" y1="715.3589838486224" x2="83.66025403784444" y2="705.3589838486224" stroke="black" stroke-width="1"/>
<line x1="83.66025403784444" y1="705.3589838486224" x2="78.66025403784442" y2="696.698729810778" stroke="black" stroke-width="1"/>
<line x1="83.66025403784444" y1="705.3589838486224" x2="83.66025403784444" y2="695.3589838486224" stroke="black" stroke-width="1"/>
<line x1="83.66025403784444" y1="725.3589838486224" x2="88.66025403784444" y2="716.698729810778" stroke="black" stroke-width="1"/>
<line x1="88.66025403784444" y1="716.698729810778" x2="97.32050807568882" y2="711.698729810778" stroke="black" stroke-width="1"/>
<line x1="88.66025403784444" y1="716.698729810778" x2="93.66025403784444" y2="708.0384757729337" stroke="black" stroke-width="1"/>
<line x1="93.66025403784444" y1="708.0384757729337" x2="93.66025403784444" y2="698.0384757729337" stroke="black" stroke-width="1"/>
<line x1="93.66025403784444" y1="708.0384757729337" x2="98.66025403784442" y2="699.3782217350893" stroke="black" stroke-width="1"/>
<line x1="98.66025403784442" y1="699.3782217350893" x2="98.66025403784442" y2="689.3782217350893" stroke="black" stroke-width="1"/>
<line x1="98.66025403784442" y1="689.3782217350893" x2="103.66025403784442" y2="680.7179676972448" stroke="black" stroke-width="1"/>
<line x1="98.66025403784442" y1="689.3782217350893" x2="98.66025403784442" y2="679.3782217350893" stroke="black" stroke-width="1"/>
<line x1="98.66025403784442" y1="679.3782217350893" x2="93.66025403784442" y2="670.7179676972448" stroke="black" stroke-width="1"/>
<line x1="98.66025403784442" y1="679.3782217350893" x2="98.66025403784442" y2="669.3782217350893" stroke="black" stroke-width="1"/>
<line x1="98.66025403784442" y1="669.3782217350893" x2="103.66025403784442" y2="660.7179676972448" stroke="black" stroke-width="1"/>
<line x1="103.66025403784442" y1="660.7179676972448" x2="112.32050807568882" y2="655.7179676972448" stroke="black" stroke-width="1"/>
<line x1="103.66025403784442" y1="660.7179676972448" x2="108.66025403784442" y2="652.0577136594004" stroke="black" stroke-width="1"/>
<line x1="108.66025403784442" y1="652.0577136594004" x2="108.66025403784442" y2="642.0577136594004" stroke="black" stroke-width="1"/>
<line x1="108.66025403784442" y1="652.0577136594004" x2="113.66025403784442" y2="643.397459621556" stroke="black" stroke-width="1"/>
<line x1="98.66025403784442" y1="669.3782217350893" x2="98.66025403784442" y2="659.3782217350893" stroke="black" stroke-width="1"/>
<line x1="98.66025403784442" y1="659.3782217350893" x2="103.66025403784442" y2="650.7179676972448" stroke="black" stroke-width="1"/>
<line x1="98.66025403784442" y1="659.3782217350893" x2="98.66025403784442" y2="649.3782217350893" stroke="black" stroke-width="1"/>
<line x1="98.66025403784442" y1="649.3782217350893" x2="93.66025403784442" y2="640.7179676972448" stroke="black" stroke-width="1"/>
<line x1="98.66025403784442" y1="649.3782217350893" x2="98.66025403784442" y2="639.3782217350893" stroke="black" stroke-width="1"/>
<line x1="98.66025403784442" y1="699.3782217350893" x2="103.66025403784442" y2="690.7179676972448" stroke="black" stroke-width="1"/>
<line x1="103.66025403784442" y1="690.7179676972448" x2="112.32050807568882" y2="685.7179676972448" stroke="black" stroke-width="1"/>
<line x1="103.66025403784442" y1="690.7179676972448" x2="108.66025403784442" y2="682.0577136594004" stroke="black" stroke-width="1"/>
<line x1="108.66025403784442" y1="682.0577136594004" x2="117.32050807568882" y2="677.0577136594004" stroke="black" stroke-width="1"/>
<line x1="117.32050807568882" y1="677.0577136594004" x2="127.32050807568882" y2="677.0577136594004" stroke="black" stroke-width="1"/>
<line x1="117.32050807568882" y1="677.0577136594004" x2="125.9807621135332" y2="672.0577136594004" stroke="black" stroke-width="1"/>
<line x1="125.9807621135332" y1="672.0577136594004" x2="130.98076211353322" y2="663.397459621556" stroke="black" stroke-width="1"/>
<line x1="125.9807621135332" y1="672.0577136594004" x2="134.64101615137758" y2="667.0577136594004" stroke="black" stroke-width="1"/>
<line x1="108.66025403784442" y1="682.0577136594004" x2="113.66025403784442" y2="673.397459621556" stroke="black" stroke-width="1"/>
<line x1="113.66025403784442" y1="673.397459621556" x2="122.32050807568882" y2="668.397459621556" stroke="black" stroke-width="1"/>
<line x1="113.66025403784442" y1="673.397459621556" x2="118.66025403784442" y2="664.7372055837117" stroke="black" stroke-width="1"/>
<line x1="118.66025403784442" y1="664.7372055837117" x2="118.66025403784442" y2="654.7372055837117" stroke="black" stroke-width="1"/>
<line x1="118.66025403784442" y1="654.7372055837117" x2="123.66025403784442" y2="646.0769515458672" stroke="black" stroke-width="1"/>
<line x1="118.66025403784442" y1="654.7372055837117" x2="118.66025403784442" y2="644.7372055837117" stroke="black" stroke-width="1"/>
<line x1="118.66025403784442" y1="644.7372055837117" x2="113.66025403784442" y2="636.0769515458672" stroke="black" stroke-width="1"/>
<line x1="118.66025403784442" y1="644.7372055837117" x2="118.66025403784442" y2="634.7372055837117" stroke="black" stroke-width="1"/>
<line x1="118.66025403784442" y1="664.7372055837117" x2="123.66025403784442" y2="656.0769515458672" stroke="black" stroke-width="1"/>
<line x1="123.66025403784442" y1="656.0769515458672" x2="132.32050807568882" y2="651.0769515458672" stroke="black" stroke-width="1"/>
<line x1="123.66025403784442" y1="656.0769515458672" x2="128.66025403784442" y2="647.4166975080228" stroke="black" stroke-width="1"/>
<line x1="63.66025403784444" y1="760.0" x2="63.66025403784444" y2="750.0" stroke="black" stroke-width="1"/>
<line x1="63.66025403784444" y1="750.0" x2="58.66025403784443" y2="741.3397459621556" stroke="black" stroke-width="1"/>
<line x1="63.66025403784444" y1="750.0" x2="63.66025403784444" y2="740.0" stroke="black" stroke-width="1"/>
<line x1="63.66025403784444" y1="740.0" x2="68.66025403784444" y2="731.3397459621556" stroke="black" stroke-width="1"/>
<line x1="68.66025403784444" y1="731.3397459621556" x2="77.32050807568882" y2="726.3397459621556" stroke="black" stroke-width="1"/>
<line x1="68.66025403784444" y1="731.3397459621556" x2="73.66025403784444" y2="722.6794919243112" stroke="black" stroke-width="1"/>
<line x1="63.66025403784444" y1="740.0" x2="63.66025403784444" y2="730.0" stroke="black" stroke-width="1"/>
<line x1="63.66025403784444" y1="730.0" x2="58.66025403784443" y2="721.3397459621556" stroke="black" stroke-width="1"/>
<line x1="63.66025403784444" y1="730.0" x2="63.66025403784444" y2="720.0" stroke="black" stroke-width="1"/>
<line x1="63.66025403784444" y1="720.0" x2="58.66025403784443" y2="711.3397459621556" stroke="black" stroke-width="1"/>
<line x1="58.66025403784443" y1="711.3397459621556" x2="58.66025403784443" y2="701.3397459621556" stroke="black" stroke-width="1"/>
<line x1="58.66025403784443" y1="711.3397459621556" x2="53.66025403784443" y2="702.6794919243112" stroke="black" stroke-width="1"/>
<line x1="53.66025403784443" y1="702.6794919243112" x2="45.00000000000004" y2="697.6794919243112" stroke="black" stroke-width="1"/>
<line x1="45.00000000000004" y1="697.6794919243112" x2="40.00000000000004" y2="689.0192378864668" stroke="black" stroke-width="1"/>
<line x1="45.00000000000004" y1="697.6794919243112" x2="36.33974596215566" y2="692.6794919243112" stroke="black" stroke-width="1"/>
<line x1="36.33974596215566" y1="692.6794919243112" x2="26.33974596215566" y2="692.6794919243112" stroke="black" stroke-width="1"/>
<line x1="36.33974596215566" y1="692.6794919243112" x2="27.67949192431127" y2="687.6794919243112" stroke="black" stroke-width="1"/>
<line x1="53.66025403784443" y1="702.6794919243112" x2="48.660254037844425" y2="694.0192378864668" stroke="black" stroke-width="1"/>
<line x1="48.660254037844425" y1="694.0192378864668" x2="48.660254037844425" y2="684.0192378864668" stroke="black" stroke-width="1"/>
<line x1="48.660254037844425" y1="694.0192378864668" x2="43.660254037844425" y2="685.3589838486224" stroke="black" stroke-width="1"/>
<line x1="43.660254037844425" y1="685.3589838486224" x2="35.000000000000036" y2="680.3589838486224" stroke="black" stroke-width="1"/>
<line x1="43.660254037844425" y1="685.3589838486224" x2="38.66025403784442" y2="676.698729810778" stroke="black" stroke-width="1"/>
<line x1="63.66025403784444" y1="720.0" x2="63.66025403784444" y2="710.0" stroke="black" stroke-width="1"/>
<line x1="63.66025403784444" y1="710.0" x2="68.66025403784444" y2="701.3397459621556" stroke="black" stroke-width="1"/>
<line x1="63.66025403784444" y1="710.0" x2="63.66025403784444" y2="700.0" stroke="black" stroke-width="1"/>
<line x1="63.66025403784444" y1="700.0" x2="58.66025403784443" y2="691.3397459621556" stroke="black" stroke-width="1"/>
<line x1="63.66025403784444" y1="700.0" x2="63.66025403784444" y2="690.0" stroke="black" stroke-width="1"/>
<line x1="63.66025403784444" y1="690.0" x2="68.66025403784444" y2="681.3397459621556" stroke="black" stroke-width="1"/>
<line x1="68.66025403784444" y1="681.3397459621556" x2="68.66025403784444" y2="671.3397459621556" stroke="black" stroke-width="1"/>
<line x1="68.66025403784444" y1="681.3397459621556" x2="73.66025403784444" y2="672.6794919243112" stroke="black" stroke-width="1"/>
<line x1="63.66025403784444" y1="690.0" x2="63.66025403784444" y2="680.0" stroke="black" stroke-width="1"/>
<line x1="63.66025403784444" y1="680.0" x2="58.66025403784443" y2="671.3397459621556" stroke="black" stroke-width="1"/>
<line x1="63.66025403784444" y1="680.0" x2="63.66025403784444" y2="670.0" stroke="black" stroke-width="1"/>
<line x1="63.66025403784444" y1="670.0" x2="58.66025403784443" y2="661.3397459621556" stroke="black" stroke-width="1"/>
<line x1="58.66025403784443" y1="661.3397459621556" x2="50.00000000000005" y2="656.3397459621556" stroke="black" stroke-width="1"/>
<line x1="58.66025403784443" y1="661.3397459621556" x2="53.66025403784443" y2="652.6794919243112" stroke="black" stroke-width="1"/>
<line x1="53.66025403784443" y1="652.6794919243112" x2="53.66025403784443" y2="642.6794919243112" stroke="black" stroke-width="1"/>
<line x1="53.66025403784443" y1="642.6794919243112" x2="58.66025403784443" y2="634.0192378864668" stroke="black" stroke-width="1"/>
<line x1="53.66025403784443" y1="642.6794919243112" x2="53.66025403784443" y2="632.6794919243112" stroke="black" stroke-width="1"/>
<line x1="53.66025403784443" y1="632.6794919243112" x2="48.660254037844425" y2="624.0192378864668" stroke="black" stroke-width="1"/>
<line x1="53.66025403784443" y1="632.6794919243112" x2="53.66025403784443" y2="622.6794919243112" stroke="black" stroke-width="1"/>
<line x1="53.66025403784443" y1="652.6794919243112" x2="48.660254037844425" y2="644.0192378864668" stroke="black" stroke-width="1"/>
<line x1="48.660254037844425" y1="644.0192378864668" x2="40.00000000000004" y2="639.0192378864667" stroke="black" stroke-width="1"/>
<line x1="48.660254037844425" y1="644.0192378864668" x2="43.660254037844425" y2="635.3589838486224" stroke="black" stroke-width="1"/>
<line x1="43.660254037844425" y1="635.3589838486224" x2="35.000000000000036" y2="630.3589838486224" stroke="black" stroke-width="1"/>
<line x1="35.000000000000036" y1="630.3589838486224" x2="25.000000000000036" y2="630.3589838486224" stroke="black" stroke-width="1"/>
<line x1="35.000000000000036" y1="630.3589838486224" x2="26.339745962155646" y2="625.3589838486224" stroke="black" stroke-width="1"/>
<line x1="26.339745962155646" y1="625.3589838486224" x2="21.33974596215564" y2="616.6987298107781" stroke="black" stroke-width="1"/>
<line x1="21.33974596215564" y1="616.6987298107781" x2="21.33974596215564" y2="606.6987298107781" stroke="black" stroke-width="1"/>
<line x1="21.33974596215564" y1="616.6987298107781" x2="16.339745962155632" y2="608.0384757729337" stroke="black" stroke-width="1"/>
<line x1="26.339745962155646" y1="625.3589838486224" x2="17.679491924311264" y2="620.3589838486224" stroke="black" stroke-width="1"/>
<line x1="17.679491924311264" y1="620.3589838486224" x2="7.6794919243112645" y2="620.3589838486224" stroke="black" stroke-width="1"/>
<line x1="17.679491924311264" y1="620.3589838486224" x2="9.019237886466883" y2="615.3589838486224" stroke="black" stroke-width="1"/>
<line x1="43.660254037844425" y1="635.3589838486224" x2="38.66025403784442" y2="626.6987298107781" stroke="black" stroke-width="1"/>
<line x1="38.66025403784442" y1="626.6987298107781" x2="38.66025403784442" y2="616.6987298107781" stroke="black" stroke-width="1"/>
<line x1="38.66025403784442" y1="626.6987298107781" x2="33.66025403784441" y2="618.0384757729337" stroke="black" stroke-width="1"/>
<line x1="33.66025403784441" y1="618.0384757729337" x2="33.66025403784441" y2="608.0384757729337" stroke="black" stroke-width="1"/>
<line x1="33.66025403784441" y1="608.0384757729337" x2="38.66025403784441" y2="599.3782217350893" stroke="black" stroke-width="1"/>
<line x1="33.66025403784441" y1="608.0384757729337" x2="33.66025403784441" y2="598.0384757729337" stroke="black" stroke-width="1"/>
<line x1="33.66025403784441" y1="598.0384757729337" x2="28.66025403784441" y2="589.3782217350893" stroke="black" stroke-width="1"/>
<line x1="33.66025403784441" y1="598.0384757729337" x2="33.66025403784441" y2="588.0384757729337" stroke="black" stroke-width="1"/>
<line x1="33.66025403784441" y1="618.0384757729337" x2="28.66025403784441" y2="609.3782217350893" stroke="black" stroke-width="1"/>
<line x1="28.66025403784441" y1="609.3782217350893" x2="20.00000000000003" y2="604.3782217350893" stroke="black" stroke-width="1"/>
<line x1="28.66025403784441" y1="609.3782217350893" x2="23.660254037844403" y2="600.717967697245" stroke="black" stroke-width="1"/>
<line x1="23.660254037844403" y1="600.717967697245" x2="15.000000000000014" y2="595.717967697245" stroke="black" stroke-width="1"/>
<line x1="15.000000000000014" y1="595.717967697245" x2="5.000000000000014" y2="595.717967697245" stroke="black" stroke-width="1"/>
<line x1="15.000000000000014" y1="595.717967697245" x2="6.339745962155632" y2="590.717967697245" stroke="black" stroke-width="1"/>
<line x1="23.660254037844403" y1="600.717967697245" x2="18.660254037844396" y2="592.0577136594006" stroke="black" stroke-width="1"/>
<line x1="18.660254037844396" y1="592.0577136594006" x2="10.000000000000014" y2="587.0577136594006" stroke="black" stroke-width="1"/>
<line x1="18.660254037844396" y1="592.0577136594006" x2="13.660254037844389" y2="583.3974596215562" stroke="black" stroke-width="1"/>
<line x1="63.66025403784444" y1="670.0" x2="63.66025403784444" y2="660.0" stroke="black" stroke-width="1"/>
<line x1="63.66025403784444" y1="660.0" x2="68.66025403784444" y2="651.3397459621556" stroke="black" stroke-width="1"/>
<line x1="63.66025403784444" y1="660.0" x2="63.66025403784444" y2="650.0" stroke="black" stroke-width="1"/>
<line x1="63.66025403784444" y1="650.0" x2="58.66025403784443" y2="641.3397459621556" stroke="black" stroke-width="1"/>
<line x1="63.66025403784444" y1="650.0" x2="63.66025403784444" y2="640.0" stroke="black" stroke-width="1"/>
<line x1="63.66025403784444" y1="640.0" x2="68.66025403784444" y2="631.3397459621556" stroke="black" stroke-width="1"/>
<line x1="68.66025403784444" y1="631.3397459621556" x2="77.32050807568882" y2="626.3397459621556" stroke="black" stroke-width="1"/>
<line x1="68.66025403784444" y1="631.3397459621556" x2="73.66025403784444" y2="622.6794919243113" stroke="black" stroke-width="1"/>
<line x1="73.66025403784444" y1="622.6794919243113" x2="73.66025403784444" y2="612.6794919243113" stroke="black" stroke-width="1"/>
<line x1="73.66025403784444" y1="622.6794919243113" x2="78.66025403784444" y2="614.019237886467" stroke="black" stroke-width="1"/>
<line x1="63.66025403784444" y1="640.0" x2="63.66025403784444" y2="630.0" stroke="black" stroke-width="1"/>
<line x1="63.66025403784444" y1="630.0" x2="58.66025403784443" y2="621.3397459621556" stroke="black" stroke-width="1"/>
<line x1="63.66025403784444" y1="630.0" x2="63.66025403784444" y2="620.0" stroke="black" stroke-width="1"/>
<line x1="63.66025403784444" y1="620.0" x2="58.66025403784443" y2="611.3397459621556" stroke="black" stroke-width="1"/>
<line x1="58.66025403784443" y1="611.3397459621556" x2="58.66025403784443" y2="601.3397459621556" stroke="black" stroke-width="1"/>
<line x1="58.66025403784443" y1="611.3397459621556" x2="53.66025403784443" y2="602.6794919243113" stroke="black" stroke-width="1"/>
<line x1="63.66025403784444" y1="620.0" x2="63.66025403784444" y2="610.0" stroke="black" stroke-width="1"/>
<line x1="63.66025403784444" y1="610.0" x2="68.66025403784444" y2="601.3397459621556" stroke="black" stroke-width="1"/>
<line x1="63.66025403784444" y1="610.0" x2="63.66025403784444" y2="600.0" stroke="black" stroke-width="1"/>
<line x1="63.66025403784444" y1="600.0" x2="68.66025403784444" y2="591.3397459621556" stroke="black" stroke-width="1"/>
<line x1="68.66025403784444" y1="591.3397459621556" x2="68.66025403784444" y2="581.3397459621556" stroke="black" stroke-width="1"/>
<line x1="68.66025403784444" y1="591.3397459621556" x2="73.66025403784444" y2="582.6794919243113" stroke="black" stroke-width="1"/>
<line x1="73.66025403784444" y1="582.6794919243113" x2="82.32050807568882" y2="577.6794919243113" stroke="black" stroke-width="1"/>
<line x1="82.32050807568882" y1="577.6794919243113" x2="92.32050807568882" y2="577.6794919243113" stroke="black" stroke-width="1"/>
<line x1="82.32050807568882" y1="577.6794919243113" x2="90.9807621135332" y2="572.6794919243113" stroke="black" stroke-width="1"/>
<line x1="90.9807621135332" y1="572.6794919243113" x2="95.9807621135332" y2="564.019237886467" stroke="black" stroke-width="1"/>
<line x1="90.9807621135332" y1="572.6794919243113" x2="99.64101615137758" y2="567.6794919243113" stroke="black" stroke-width="1"/>
<line x1="73.66025403784444" y1="582.6794919243113" x2="78.66025403784444" y2="574.019237886467" stroke="black" stroke-width="1"/>
<line x1="78.66025403784444" y1="574.019237886467" x2="78.66025403784444" y2="564.019237886467" stroke="black" stroke-width="1"/>
<line x1="78.66025403784444" y1="574.019237886467" x2="83.66025403784444" y2="565.3589838486225" stroke="black" stroke-width="1"/>
<line x1="63.66025403784444" y1="600.0" x2="63.66025403784444" y2="590.0" stroke="black" stroke-width="1"/>
<line x1="63.66025403784444" y1="590.0" x2="68.66025403784444" y2="581.3397459621556" stroke="black" stroke-width="1"/>
<line x1="63.66025403784444" y1="590.0" x2="63.66025403784444" y2="580.0" stroke="black" stroke-width="1"/>
<line x1="63.66025403784444" y1="580.0" x2="58.66025403784443" y2="571.3397459621556" stroke="black" stroke-width="1"/>
<line x1="58.66025403784443" y1="571.3397459621556" x2="58.66025403784443" y2="561.3397459621556" stroke="black" stroke-width="1"/>
<line x1="58.66025403784443" y1="571.3397459621556" x2="53.66025403784443" y2="562.6794919243113" stroke="black" stroke-width="1"/>
<line x1="53.66025403784443" y1="562.6794919243113" x2="45.00000000000004" y2="557.6794919243113" stroke="black" stroke-width="1"/>
<line x1="53.66025403784443" y1="562.6794919243113" x2="48.660254037844425" y2="554.019237886467" stroke="black" stroke-width="1"/>
<line x1="63.66025403784444" y1="580.0" x2="63.66025403784444" y2="570.0" stroke="black" stroke-width="1"/>
<line x1="63.66025403784444" y1="570.0" x2="68.66025403784444" y2="561.3397459621556" stroke="black" stroke-width="1"/>
<line x1="63.66025403784444" y1="570.0" x2="63.66025403784444" y2="560.0" stroke="black" stroke-width="1"/>
<line x1="63.66025403784444" y1="560.0" x2="58.66025403784443" y2="551.3397459621556" stroke="black" stroke-width="1"/>
<line x1="63.66025403784444" y1="560.0" x2="63.66025403784444" y2="550.0" stroke="black" stroke-width="1"/>
<line x1="63.66025403784444" y1="550.0" x2="58.66025403784443" y2="541.3397459621556" stroke="black" stroke-width="1"/>
<line x1="58.66025403784443" y1="541.3397459621556" x2="58.66025403784443" y2="531.3397459621556" stroke="black" stroke-width="1"/>
<line x1="58.66025403784443" y1="541.3397459621556" x2="53.66025403784443" y2="532.6794919243113" stroke="black" stroke-width="1"/>
<line x1="53.66025403784443" y1="532.6794919243113" x2="45.00000000000004" y2="527.6794919243113" stroke="black" stroke-width="1"/>
<line x1="45.00000000000004" y1="527.6794919243113" x2="40.00000000000004" y2="519.019237886467" stroke="black" stroke-width="1"/>
<line x1="45.00000000000004" y1="527.6794919243113" x2="36.33974596215566" y2="522.6794919243113" stroke="black" stroke-width="1"/>
<line x1="53.66025403784443" y1="532.6794919243113" x2="48.660254037844425" y2="524.019237886467" stroke="black" stroke-width="1"/>
<line x1="48.660254037844425" y1="524.019237886467" x2="40.00000000000004" y2="519.019237886467" stroke="black" stroke-width="1"/>
<line x1="48.660254037844425" y1="524.019237886467" x2="43.660254037844425" y2="515.3589838486225" stroke="black" stroke-width="1"/>
<line x1="63.66025403784444" y1="550.0" x2="63.66025403784444" y2="540.0" stroke="black" stroke-width="1"/>
<line x1="63.66025403784444" y1="540.0" x2="68.66025403784444" y2="531.3397459621556" stroke="black" stroke-width="1"/>
<line x1="63.66025403784444" y1="540.0" x2="63.66025403784444" y2="530.0" stroke="black" stroke-width="1"/>
<line x1="63.66025403784444" y1="530.0" x2="58.66025403784443" y2="521.3397459621556" stroke="black" stroke-width="1"/>
<line x1="63.66025403784444" y1="530.0" x2="63.66025403784444" y2="520.0" stroke="black" stroke-width="1"/>
<line x1="63.66025403784444" y1="520.0" x2="68.66025403784444" y2="511.33974596215563" stroke="black" stroke-width="1"/>
<line x1="68.66025403784444" y1="511.33974596215563" x2="77.32050807568882" y2="506.33974596215563" stroke="black" stroke-width="1"/>
<line x1="68.66025403784444" y1="511.33974596215563" x2="73.66025403784444" y2="502.67949192431126" stroke="black" stroke-width="1"/>
<line x1="73.66025403784444" y1="502.67949192431126" x2="73.66025403784444" y2="492.67949192431126" stroke="black" stroke-width="1"/>
<line x1="73.66025403784444" y1="502.67949192431126" x2="78.66025403784444" y2="494.0192378864669" stroke="black" stroke-width="1"/>
<line x1="63.66025403784444" y1="520.0" x2="63.66025403784444" y2="510.0" stroke="black" stroke-width="1"/>
<line x1="63.66025403784444" y1="510.0" x2="68.66025403784444" y2="501.33974596215563" stroke="black" stroke-width="1"/>
<line x1="63.66025403784444" y1="510.0" x2="63.66025403784444" y2="500.0" stroke="black" stroke-width="1"/>
<line x1="63.66025403784444" y1="500.0" x2="58.66025403784443" y2="491.33974596215563" stroke="black" stroke-width="1"/>
<line x1="63.66025403784444" y1="500.0" x2="63.66025403784444" y2="490.0" stroke="black" stroke-width="1"/>
<line x1="63.66025403784444" y1="490.0" x2="58.66025403784443" y2="481.33974596215563" stroke="black" stroke-width="1"/>
<line x1="58.66025403784443" y1="481.33974596215563" x2="50.00000000000005" y2="476.33974596215563" stroke="black" stroke-width="1"/>
<line x1="58.66025403784443" y1="481.33974596215563" x2="53.66025403784443" y2="472.67949192431126" stroke="black" stroke-width="1"/>
<line x1="63.66025403784444" y1="490.0" x2="63.66025403784444" y2="480.0" stroke="black" stroke-width="1"/>
<line x1="63.66025403784444" y1="480.0" x2="58.66025403784443" y2="471.33974596215563" stroke="black" stroke-width="1"/>
<line x1="63.66025403784444" y1="480.0" x2="63.66025403784444" y2="470.0" stroke="black" stroke-width="1"/>
<line x1="63.66025403784444" y1="470.0" x2="68.66025403784444" y2="461.33974596215563" stroke="black" stroke-width="1"/>
<line x1="68.66025403784444" y1="461.33974596215563" x2="68.66025403784444" y2="451.33974596215563" stroke="black" stroke-width="1"/>
<line x1="68.66025403784444" y1="461.33974596215563" x2="73.66025403784444" y2="452.67949192431126" stroke="black" stroke-width="1"/>
<line x1="73.66025403784444" y1="452.67949192431126" x2="82.32050807568882" y2="447.67949192431126" stroke="black" stroke-width="1"/>
<line x1="82.32050807568882" y1="447.67949192431126" x2="92.32050807568882" y2="447.67949192431126" stroke="black" stroke-width="1"/>
<line x1="82.32050807568882" y1="447.67949192431126" x2="90.9807621135332" y2="442.67949192431126" stroke="black" stroke-width="1"/>
<line x1="90.9807621135332" y1="442.67949192431126" x2="95.9807621135332" y2="434.0192378864669" stroke="black" stroke-width="1"/>
<line x1="90.9807621135332" y1="442.67949192431126" x2="99.64101615137758" y2="437.67949192431126" stroke="black" stroke-width="1"/>
<line x1="73.66025403784444" y1="452.67949192431126" x2="78.66025403784444" y2="444.0192378864669" stroke="black" stroke-width="1"/>
<line x1="78.66025403784444" y1="444.0192378864669" x2="87.32050807568882" y2="439.0192378864669" stroke="black" stroke-width="1"/>
<line x1="78.66025403784444" y1="444.0192378864669" x2="83.66025403784444" y2="435.35898384862253" stroke="black" stroke-width="1"/>
<line x1="83.66025403784444" y1="435.35898384862253" x2="83.66025403784444" y2="425.35898384862253" stroke="black" stroke-width="1"/>
<line x1="83.66025403784444" y1="435.35898384862253" x2="88.66025403784444" y2="426.69872981077816" stroke="black" stroke-width="1"/>
<line x1="88.66025403784444" y1="426.69872981077816" x2="88.66025403784444" y2="416.69872981077816" stroke="black" stroke-width="1"/>
<line x1="88.66025403784444" y1="416.69872981077816" x2="93.66025403784444" y2="408.0384757729338" stroke="black" stroke-width="1"/>
<line x1="88.66025403784444" y1="416.69872981077816" x2="88.66025403784444" y2="406.69872981077816" stroke="black" stroke-width="1"/>
<line x1="88.66025403784444" y1="406.69872981077816" x2="83.66025403784442" y2="398.0384757729338" stroke="black" stroke-width="1"/>
<line x1="88.66025403784444" y1="406.69872981077816" x2="88.66025403784444" y2="396.69872981077816" stroke="black" stroke-width="1"/>
<line x1="88.66025403784444" y1="426.69872981077816" x2="93.66025403784444" y2="418.0384757729338" stroke="black" stroke-width="1"/>
<line x1="93.66025403784444" y1="418.0384757729338" x2="93.66025403784444" y2="408.0384757729338" stroke="black" stroke-width="1"/>
<line x1="93.66025403784444" y1="418.0384757729338" x2="98.66025403784442" y2="409.3782217350894" stroke="black" stroke-width="1"/>
<line x1="98.66025403784442" y1="409.3782217350894" x2="107.32050807568882" y2="404.3782217350894" stroke="black" stroke-width="1"/>
<line x1="107.32050807568882" y1="404.3782217350894" x2="117.32050807568882" y2="404.3782217350894" stroke="black" stroke-width="1"/>
<line x1="107.32050807568882" y1="404.3782217350894" x2="115.9807621135332" y2="399.3782217350894" stroke="black" stroke-width="1"/>
<line x1="115.9807621135332" y1="399.3782217350894" x2="120.9807621135332" y2="390.71796769724506" stroke="black" stroke-width="1"/>
<line x1="120.9807621135332" y1="390.71796769724506" x2="129.64101615137758" y2="385.71796769724506" stroke="black" stroke-width="1"/>
<line x1="120.9807621135332" y1="390.71796769724506" x2="125.9807621135332" y2="382.05771365940063" stroke="black" stroke-width="1"/>
<line x1="125.9807621135332" y1="382.05771365940063" x2="125.9807621135332" y2="372.05771365940063" stroke="black" stroke-width="1"/>
<line x1="125.9807621135332" y1="382.05771365940063" x2="130.98076211353322" y2="373.3974596215562" stroke="black" stroke-width="1"/>
<line x1="115.9807621135332" y1="399.3782217350894" x2="124.64101615137758" y2="394.3782217350894" stroke="black" stroke-width="1"/>
<line x1="124.64101615137758" y1="394.3782217350894" x2="129.64101615137758" y2="385.71796769724506" stroke="black" stroke-width="1"/>
<line x1="124.64101615137758" y1="394.3782217350894" x2="133.30127018922195" y2="389.3782217350894" stroke="black" stroke-width="1"/>
<line x1="98.66025403784442" y1="409.3782217350894" x2="103.66025403784442" y2="400.71796769724506" stroke="black" stroke-width="1"/>
<line x1="103.66025403784442" y1="400.71796769724506" x2="112.32050807568882" y2="395.71796769724506" stroke="black" stroke-width="1"/>
<line x1="103.66025403784442" y1="400.71796769724506" x2="108.66025403784442" y2="392.0577136594007" stroke="black" stroke-width="1"/>
<line x1="108.66025403784442" y1="392.0577136594007" x2="108.66025403784442" y2="382.05771365940063" stroke="black" stroke-width="1"/>
<line x1="108.66025403784442" y1="382.05771365940063" x2="103.66025403784442" y2="373.3974596215562" stroke="black" stroke-width="1"/>
<line x1="108.66025403784442" y1="382.05771365940063" x2="108.66025403784442" y2="372.05771365940063" stroke="black" stroke-width="1"/>
<line x1="108.66025403784442" y1="392.0577136594007" x2="113.66025403784442" y2="383.3974596215563" stroke="black" stroke-width="1"/>
<line x1="113.66025403784442" y1="383.3974596215563" x2="113.66025403784442" y2="373.3974596215563" stroke="black" stroke-width="1"/>
<line x1="113.66025403784442" y1="383.3974596215563" x2="118.66025403784442" y2="374.7372055837119" stroke="black" stroke-width="1"/>
<line x1="118.66025403784442" y1="374.7372055837119" x2="118.66025403784442" y2="364.7372055837119" stroke="black" stroke-width="1"/>
<line x1="118.66025403784442" y1="364.7372055837119" x2="123.66025403784442" y2="356.0769515458675" stroke="black" stroke-width="1"/>
<line x1="118.66025403784442" y1="364.7372055837119" x2="118.66025403784442" y2="354.7372055837119" stroke="black" stroke-width="1"/>
<line x1="118.66025403784442" y1="354.7372055837119" x2="123.66025403784442" y2="346.0769515458675" stroke="black" stroke-width="1"/>
<line x1="123.66025403784442" y1="346.0769515458675" x2="132.32050807568882" y2="341.0769515458675" stroke="black" stroke-width="1"/>
<line x1="123.66025403784442" y1="346.0769515458675" x2="128.66025403784442" y2="337.41669750802305" stroke="black" stroke-width="1"/>
<line x1="118.66025403784442" y1="354.7372055837119" x2="118.66025403784442" y2="344.7372055837119" stroke="black" stroke-width="1"/>
<line x1="118.66025403784442" y1="344.7372055837119" x2="113.66025403784442" y2="336.0769515458675" stroke="black" stroke-width="1"/>
<line x1="118.66025403784442" y1="344.7372055837119" x2="118.66025403784442" y2="334.7372055837119" stroke="black" stroke-width="1"/>
<line x1="118.66025403784442" y1="374.7372055837119" x2="123.66025403784442" y2="366.0769515458675" stroke="black" stroke-width="1"/>
<line x1="123.66025403784442" y1="366.0769515458675" x2="132.32050807568882" y2="361.0769515458675" stroke="black" stroke-width="1"/>
<line x1="123.66025403784442" y1="366.0769515458675" x2="128.66025403784442" y2="357.41669750802305" stroke="black" stroke-width="1"/>
<line x1="128.66025403784442" y1="357.41669750802305" x2="137.3205080756888" y2="352.41669750802305" stroke="black" stroke-width="1"/>
<line x1="137.3205080756888" y1="352.41669750802305" x2="147.3205080756888" y2="352.41669750802305" stroke="black" stroke-width="1"/>
<line x1="137.3205080756888" y1="352.41669750802305" x2="145.9807621135332" y2="347.41669750802305" stroke="black" stroke-width="1"/>
<line x1="128.66025403784442" y1="357.41669750802305" x2="133.66025403784442" y2="348.7564434701786" stroke="black" stroke-width="1"/>
<line x1="133.66025403784442" y1="348.7564434701786" x2="142.3205080756888" y2="343.7564434701786" stroke="black" stroke-width="1"/>
<line x1="133.66025403784442" y1="348.7564434701786" x2="138.66025403784442" y2="340.0961894323342" stroke="black" stroke-width="1"/>
<line x1="138.66025403784442" y1="340.0961894323342" x2="138.66025403784442" y2="330.0961894323342" stroke="black" stroke-width="1"/>
<line x1="138.66025403784442" y1="340.0961894323342" x2="143.66025403784442" y2="331.4359353944898" stroke="black" stroke-width="1"/>
<line x1="143.66025403784442" y1="331.4359353944898" x2="143.66025403784442" y2="321.4359353944898" stroke="black" stroke-width="1"/>
<line x1="143.66025403784442" y1="321.4359353944898" x2="148.66025403784442" y2="312.77568135664535" stroke="black" stroke-width="1"/>
<line x1="143.66025403784442" y1="321.4359353944898" x2="143.66025403784442" y2="311.4359353944898" stroke="black" stroke-width="1"/>
<line x1="143.66025403784442" y1="311.4359353944898" x2="138.66025403784442" y2="302.77568135664535" stroke="black" stroke-width="1"/>
<line x1="143.66025403784442" y1="311.4359353944898" x2="143.66025403784442" y2="301.4359353944898" stroke="black" stroke-width="1"/>
<line x1="143.66025403784442" y1="331.4359353944898" x2="148.66025403784442" y2="322.77568135664535" stroke="black" stroke-width="1"/>
<line x1="148.66025403784442" y1="322.77568135664535" x2="148.66025403784442" y2="312.77568135664535" stroke="black" stroke-width="1"/>
<line x1="148.66025403784442" y1="322.77568135664535" x2="153.66025403784442" y2="314.1154273188009" stroke="black" stroke-width="1"/>
<line x1="153.66025403784442" y1="314.1154273188009" x2="162.3205080756888" y2="309.1154273188009" stroke="black" stroke-width="1"/>
<line x1="162.3205080756888" y1="309.1154273188009" x2="172.3205080756888" y2="309.1154273188009" stroke="black" stroke-width="1"/>
<line x1="162.3205080756888" y1="309.1154273188009" x2="170.9807621135332" y2="304.1154273188009" stroke="black" stroke-width="1"/>
<line x1="170.9807621135332" y1="304.1154273188009" x2="175.9807621135332" y2="295.4551732809565" stroke="black" stroke-width="1"/>
<line x1="175.9807621135332" y1="295.4551732809565" x2="175.9807621135332" y2="285.4551732809565" stroke="black" stroke-width="1"/>
<line x1="175.9807621135332" y1="295.4551732809565" x2="180.9807621135332" y2="286.7949192431121" stroke="black" stroke-width="1"/>
<line x1="170.9807621135332" y1="304.1154273188009" x2="179.64101615137758" y2="299.1154273188009" stroke="black" stroke-width="1"/>
<line x1="179.64101615137758" y1="299.1154273188009" x2="189.64101615137758" y2="299.1154273188009" stroke="black" stroke-width="1"/>
<line x1="179.64101615137758" y1="299.1154273188009" x2="188.30127018922195" y2="294.1154273188009" stroke="black" stroke-width="1"/>
<line x1="188.30127018922195" y1="294.1154273188009" x2="198.30127018922195" y2="294.1154273188009" stroke="black" stroke-width="1"/>
<line x1="198.30127018922195" y1="294.1154273188009" x2="206.96152422706638" y2="289.1154273188009" stroke="black" stroke-width="1"/>
<line x1="198.30127018922195" y1="294.1154273188009" x2="208.30127018922195" y2="294.1154273188009" stroke="black" stroke-width="1"/>
<line x1="208.30127018922195" y1="294.1154273188009" x2="216.96152422706638" y2="299.1154273188009" stroke="black" stroke-width="1"/>
<line x1="216.96152422706638" y1="299.1154273188009" x2="221.96152422706638" y2="307.77568135664535" stroke="black" stroke-width="1"/>
<line x1="216.96152422706638" y1="299.1154273188009" x2="225.62177826491074" y2="304.1154273188009" stroke="black" stroke-width="1"/>
<line x1="208.30127018922195" y1="294.1154273188009" x2="218.30127018922195" y2="294.1154273188009" stroke="black" stroke-width="1"/>
<line x1="218.30127018922195" y1="294.1154273188009" x2="226.96152422706638" y2="289.1154273188009" stroke="black" stroke-width="1"/>
<line x1="218.30127018922195" y1="294.1154273188009" x2="228.30127018922195" y2="294.1154273188009" stroke="black" stroke-width="1"/>
<line x1="228.30127018922195" y1="294.1154273188009" x2="236.96152422706638" y2="289.1154273188009" stroke="black" stroke-width="1"/>
<line x1="236.96152422706638" y1="289.1154273188009" x2="246.96152422706638" y2="289.1154273188009" stroke="black" stroke-width="1"/>
<line x1="236.96152422706638" y1="289.1154273188009" x2="245.62177826491074" y2="284.1154273188009" stroke="black" stroke-width="1"/>
<line x1="245.62177826491074" y1="284.1154273188009" x2="250.62177826491074" y2="275.4551732809565" stroke="black" stroke-width="1"/>
<line x1="245.62177826491074" y1="284.1154273188009" x2="254.28203230275517" y2="279.1154273188009" stroke="black" stroke-width="1"/>
<line x1="228.30127018922195" y1="294.1154273188009" x2="238.30127018922195" y2="294.1154273188009" stroke="black" stroke-width="1"/>
<line x1="238.30127018922195" y1="294.1154273188009" x2="246.96152422706638" y2="299.1154273188009" stroke="black" stroke-width="1"/>
<line x1="238.30127018922195" y1="294.1154273188009" x2="248.30127018922195" y2="294.1154273188009" stroke="black" stroke-width="1"/>
<line x1="248.30127018922195" y1="294.1154273188009" x2="256.9615242270664" y2="289.1154273188009" stroke="black" stroke-width="1"/>
<line x1="248.30127018922195" y1="294.1154273188009" x2="258.30127018922195" y2="294.1154273188009" stroke="black" stroke-width="1"/>
<line x1="188.30127018922195" y1="294.1154273188009" x2="196.96152422706632" y2="289.1154273188009" stroke="black" stroke-width="1"/>
<line x1="196.96152422706632" y1="289.1154273188009" x2="201.96152422706632" y2="280.4551732809565" stroke="black" stroke-width="1"/>
<line x1="196.96152422706632" y1="289.1154273188009" x2="205.62177826491074" y2="284.1154273188009" stroke="black" stroke-width="1"/>
<line x1="205.62177826491074" y1="284.1154273188009" x2="215.62177826491074" y2="284.1154273188009" stroke="black" stroke-width="1"/>
<line x1="215.62177826491074" y1="284.1154273188009" x2="224.2820323027551" y2="289.1154273188009" stroke="black" stroke-width="1"/>
<line x1="215.62177826491074" y1="284.1154273188009" x2="225.62177826491074" y2="284.1154273188009" stroke="black" stroke-width="1"/>
<line x1="205.62177826491074" y1="284.1154273188009" x2="214.2820323027551" y2="279.1154273188009" stroke="black" stroke-width="1"/>
<line x1="214.2820323027551" y1="279.1154273188009" x2="224.2820323027551" y2="279.1154273188009" stroke="black" stroke-width="1"/>
<line x1="214.2820323027551" y1="279.1154273188009" x2="222.94228634059954" y2="274.1154273188009" stroke="black" stroke-width="1"/>
<line x1="222.94228634059954" y1="274.1154273188009" x2="227.94228634059954" y2="265.4551732809565" stroke="black" stroke-width="1"/>
<line x1="227.94228634059954" y1="265.4551732809565" x2="227.94228634059954" y2="255.4551732809565" stroke="black" stroke-width="1"/>
<line x1="227.94228634059954" y1="265.4551732809565" x2="232.94228634059954" y2="256.7949192431121" stroke="black" stroke-width="1"/>
<line x1="222.94228634059954" y1="274.1154273188009" x2="231.6025403784439" y2="269.1154273188009" stroke="black" stroke-width="1"/>
<line x1="231.6025403784439" y1="269.1154273188009" x2="241.6025403784439" y2="269.1154273188009" stroke="black" stroke-width="1"/>
<line x1="231.6025403784439" y1="269.1154273188009" x2="240.26279441628833" y2="264.1154273188009" stroke="black" stroke-width="1"/>
<line x1="153.66025403784442" y1="314.1154273188009" x2="158.66025403784442" y2="305.4551732809565" stroke="black" stroke-width="1"/>
<line x1="158.66025403784442" y1="305.4551732809565" x2="167.3205080756888" y2="300.4551732809565" stroke="black" stroke-width="1"/>
<line x1="158.66025403784442" y1="305.4551732809565" x2="163.66025403784442" y2="296.7949192431121" stroke="black" stroke-width="1"/>
<line x1="163.66025403784442" y1="296.7949192431121" x2="163.66025403784442" y2="286.7949192431121" stroke="black" stroke-width="1"/>
<line x1="163.66025403784442" y1="286.7949192431121" x2="168.66025403784442" y2="278.13466520526765" stroke="black" stroke-width="1"/>
<line x1="163.66025403784442" y1="286.7949192431121" x2="163.66025403784442" y2="276.7949192431121" stroke="black" stroke-width="1"/>
<line x1="163.66025403784442" y1="276.7949192431121" x2="158.66025403784442" y2="268.13466520526765" stroke="black" stroke-width="1"/>
<line x1="163.66025403784442" y1="276.7949192431121" x2="163.66025403784442" y2="266.7949192431121" stroke="black" stroke-width="1"/>
<line x1="163.66025403784442" y1="296.7949192431121" x2="168.66025403784442" y2="288.13466520526765" stroke="black" stroke-width="1"/>
<line x1="168.66025403784442" y1="288.13466520526765" x2="177.3205080756888" y2="283.13466520526765" stroke="black" stroke-width="1"/>
<line x1="168.66025403784442" y1="288.13466520526765" x2="173.66025403784442" y2="279.4744111674232" stroke="black" stroke-width="1"/>
<line x1="173.66025403784442" y1="279.4744111674232" x2="182.3205080756888" y2="274.4744111674232" stroke="black" stroke-width="1"/>
<line x1="182.3205080756888" y1="274.4744111674232" x2="187.3205080756888" y2="265.8141571295788" stroke="black" stroke-width="1"/>
<line x1="182.3205080756888" y1="274.4744111674232" x2="190.9807621135332" y2="269.4744111674232" stroke="black" stroke-width="1"/>
<line x1="190.9807621135332" y1="269.4744111674232" x2="195.98076211353316" y2="260.8141571295788" stroke="black" stroke-width="1"/>
<line x1="195.98076211353316" y1="260.8141571295788" x2="195.98076211353316" y2="250.8141571295788" stroke="black" stroke-width="1"/>
<line x1="195.98076211353316" y1="260.8141571295788" x2="200.98076211353316" y2="252.15390309173438" stroke="black" stroke-width="1"/>
<line x1="190.9807621135332" y1="269.4744111674232" x2="199.64101615137758" y2="264.4744111674232" stroke="black" stroke-width="1"/>
<line x1="199.64101615137758" y1="264.4744111674232" x2="209.64101615137758" y2="264.4744111674232" stroke="black" stroke-width="1"/>
<line x1="199.64101615137758" y1="264.4744111674232" x2="208.30127018922195" y2="259.4744111674232" stroke="black" stroke-width="1"/>
<line x1="208.30127018922195" y1="259.4744111674232" x2="213.30127018922195" y2="250.8141571295788" stroke="black" stroke-width="1"/>
<line x1="208.30127018922195" y1="259.4744111674232" x2="216.96152422706638" y2="254.47441116742323" stroke="black" stroke-width="1"/>
<line x1="173.66025403784442" y1="279.4744111674232" x2="178.66025403784442" y2="270.8141571295788" stroke="black" stroke-width="1"/>
<line x1="178.66025403784442" y1="270.8141571295788" x2="178.66025403784442" y2="260.8141571295788" stroke="black" stroke-width="1"/>
<line x1="178.66025403784442" y1="270.8141571295788" x2="183.66025403784442" y2="262.1539030917344" stroke="black" stroke-width="1"/>
<line x1="183.66025403784442" y1="262.1539030917344" x2="192.3205080756888" y2="257.1539030917344" stroke="black" stroke-width="1"/>
<line x1="192.3205080756888" y1="257.1539030917344" x2="197.3205080756888" y2="248.49364905388995" stroke="black" stroke-width="1"/>
<line x1="192.3205080756888" y1="257.1539030917344" x2="200.98076211353322" y2="252.15390309173438" stroke="black" stroke-width="1"/>
<line x1="183.66025403784442" y1="262.1539030917344" x2="188.66025403784442" y2="253.49364905388995" stroke="black" stroke-width="1"/>
<line x1="188.66025403784442" y1="253.49364905388995" x2="188.66025403784442" y2="243.49364905388995" stroke="black" stroke-width="1"/>
<line x1="188.66025403784442" y1="253.49364905388995" x2="193.66025403784442" y2="244.83339501604553" stroke="black" stroke-width="1"/>
<line x1="193.66025403784442" y1="244.83339501604553" x2="193.66025403784442" y2="234.83339501604553" stroke="black" stroke-width="1"/>
<line x1="193.66025403784442" y1="234.83339501604553" x2="198.66025403784442" y2="226.1731409782011" stroke="black" stroke-width="1"/>
<line x1="193.66025403784442" y1="234.83339501604553" x2="193.66025403784442" y2="224.83339501604553" stroke="black" stroke-width="1"/>
<line x1="193.66025403784442" y1="244.83339501604553" x2="198.66025403784442" y2="236.1731409782011" stroke="black" stroke-width="1"/>
<line x1="198.66025403784442" y1="236.1731409782011" x2="207.3205080756888" y2="231.1731409782011" stroke="black" stroke-width="1"/>
<line x1="198.66025403784442" y1="236.1731409782011" x2="203.66025403784442" y2="227.51288694035668" stroke="black" stroke-width="1"/>
<line x1="63.66025403784444" y1="470.0" x2="63.66025403784444" y2="460.0" stroke="black" stroke-width="1"/>
<line x1="63.66025403784444" y1="460.0" x2="68.66025403784444" y2="451.33974596215563" stroke="black" stroke-width="1"/>
<line x1="63.66025403784444" y1="460.0" x2="63.66025403784444" y2="450.0" stroke="black" stroke-width="1"/>
<line x1="63.66025403784444" y1="450.0" x2="58.66025403784443" y2="441.33974596215563" stroke="black" stroke-width="1"/>
<line x1="58.66025403784443" y1="441.33974596215563" x2="58.66025403784443" y2="431.33974596215563" stroke="black" stroke-width="1"/>
<line x1="58.66025403784443" y1="441.33974596215563" x2="53.66025403784443" y2="432.67949192431126" stroke="black" stroke-width="1"/>
<line x1="63.66025403784444" y1="450.0" x2="63.66025403784444" y2="440.0" stroke="black" stroke-width="1"/>
<line x1="63.66025403784444" y1="440.0" x2="68.66025403784444" y2="431.33974596215563" stroke="black" stroke-width="1"/>
<line x1="63.66025403784444" y1="440.0" x2="63.66025403784444" y2="430.0" stroke="black" stroke-width="1"/>
<line x1="63.66025403784444" y1="430.0" x2="58.66025403784443" y2="421.33974596215563" stroke="black" stroke-width="1"/>
<line x1="63.66025403784444" y1="430.0" x2="63.66025403784444" y2="420.0" stroke="black" stroke-width="1"/>
<line x1="63.66025403784444" y1="420.0" x2="58.66025403784443" y2="411.33974596215563" stroke="black" stroke-width="1"/>
<line x1="58.66025403784443" y1="411.33974596215563" x2="58.66025403784443" y2="401.33974596215563" stroke="black" stroke-width="1"/>
<line x1="58.66025403784443" y1="411.33974596215563" x2="53.66025403784443" y2="402.67949192431126" stroke="black" stroke-width="1"/>
<line x1="53.66025403784443" y1="402.67949192431126" x2="53.66025403784443" y2="392.67949192431126" stroke="black" stroke-width="1"/>
<line x1="53.66025403784443" y1="392.67949192431126" x2="58.66025403784443" y2="384.01923788646684" stroke="black" stroke-width="1"/>
<line x1="53.66025403784443" y1="392.67949192431126" x2="53.66025403784443" y2="382.67949192431126" stroke="black" stroke-width="1"/>
<line x1="53.66025403784443" y1="382.67949192431126" x2="48.660254037844425" y2="374.01923788646684" stroke="black" stroke-width="1"/>
<line x1="53.66025403784443" y1="382.67949192431126" x2="53.66025403784443" y2="372.67949192431126" stroke="black" stroke-width="1"/>
<line x1="53.66025403784443" y1="402.67949192431126" x2="48.660254037844425" y2="394.0192378864669" stroke="black" stroke-width="1"/>
<line x1="48.660254037844425" y1="394.0192378864669" x2="48.660254037844425" y2="384.01923788646695" stroke="black" stroke-width="1"/>
<line x1="48.660254037844425" y1="394.0192378864669" x2="43.660254037844425" y2="385.35898384862253" stroke="black" stroke-width="1"/>
<line x1="43.660254037844425" y1="385.35898384862253" x2="35.000000000000036" y2="380.35898384862253" stroke="black" stroke-width="1"/>
<line x1="43.660254037844425" y1="385.35898384862253" x2="38.66025403784442" y2="376.6987298107781" stroke="black" stroke-width="1"/>
<line x1="38.66025403784442" y1="376.6987298107781" x2="30.00000000000003" y2="371.6987298107781" stroke="black" stroke-width="1"/>
<line x1="30.00000000000003" y1="371.6987298107781" x2="25.00000000000002" y2="363.0384757729337" stroke="black" stroke-width="1"/>
<line x1="30.00000000000003" y1="371.6987298107781" x2="21.339745962155646" y2="366.6987298107781" stroke="black" stroke-width="1"/>
<line x1="21.339745962155646" y1="366.6987298107781" x2="11.339745962155646" y2="366.6987298107781" stroke="black" stroke-width="1"/>
<line x1="21.339745962155646" y1="366.6987298107781" x2="12.679491924311264" y2="361.6987298107781" stroke="black" stroke-width="1"/>
<line x1="38.66025403784442" y1="376.6987298107781" x2="33.66025403784441" y2="368.0384757729337" stroke="black" stroke-width="1"/>
<line x1="33.66025403784441" y1="368.0384757729337" x2="33.66025403784441" y2="358.0384757729337" stroke="black" stroke-width="1"/>
<line x1="33.66025403784441" y1="368.0384757729337" x2="28.66025403784441" y2="359.37822173508926" stroke="black" stroke-width="1"/>
<line x1="63.66025403784444" y1="420.0" x2="63.66025403784444" y2="410.0" stroke="black" stroke-width="1"/>
<line x1="63.66025403784444" y1="410.0" x2="68.66025403784444" y2="401.33974596215563" stroke="black" stroke-width="1"/>
<line x1="63.66025403784444" y1="410.0" x2="63.66025403784444" y2="400.0" stroke="black" stroke-width="1"/>
<line x1="63.66025403784444" y1="400.0" x2="58.66025403784443" y2="391.33974596215563" stroke="black" stroke-width="1"/>
<line x1="63.66025403784444" y1="400.0" x2="63.66025403784444" y2="390.0" stroke="black" stroke-width="1"/>
<line x1="63.66025403784444" y1="390.0" x2="68.66025403784444" y2="381.3397459621556" stroke="black" stroke-width="1"/>
<line x1="68.66025403784444" y1="381.3397459621556" x2="68.66025403784444" y2="371.3397459621556" stroke="black" stroke-width="1"/>
<line x1="68.66025403784444" y1="381.3397459621556" x2="73.66025403784444" y2="372.67949192431115" stroke="black" stroke-width="1"/>
<line x1="63.66025403784444" y1="390.0" x2="63.66025403784444" y2="380.0" stroke="black" stroke-width="1"/>
<line x1="63.66025403784444" y1="380.0" x2="68.66025403784444" y2="371.3397459621556" stroke="black" stroke-width="1"/>
<line x1="63.66025403784444" y1="380.0" x2="63.66025403784444" y2="370.0" stroke="black" stroke-width="1"/>
<line x1="63.66025403784444" y1="370.0" x2="58.66025403784443" y2="361.3397459621556" stroke="black" stroke-width="1"/>
<line x1="58.66025403784443" y1="361.3397459621556" x2="50.00000000000005" y2="356.3397459621556" stroke="black" stroke-width="1"/>
<line x1="58.66025403784443" y1="361.3397459621556" x2="53.66025403784443" y2="352.67949192431115" stroke="black" stroke-width="1"/>
<line x1="63.66025403784444" y1="370.0" x2="63.66025403784444" y2="360.0" stroke="black" stroke-width="1"/>
<line x1="63.66025403784444" y1="360.0" x2="68.66025403784444" y2="351.3397459621556" stroke="black" stroke-width="1"/>
<line x1="63.66025403784444" y1="360.0" x2="63.66025403784444" y2="350.0" stroke="black" stroke-width="1"/>
<line x1="63.66025403784444" y1="350.0" x2="58.66025403784443" y2="341.3397459621556" stroke="black" stroke-width="1"/>
<line x1="63.66025403784444" y1="350.0" x2="63.66025403784444" y2="340.0" stroke="black" stroke-width="1"/>
<line x1="63.66025403784444" y1="340.0" x2="68.66025403784444" y2="331.3397459621556" stroke="black" stroke-width="1"/>
<line x1="68.66025403784444" y1="331.3397459621556" x2="68.66025403784444" y2="321.3397459621556" stroke="black" stroke-width="1"/>
<line x1="68.66025403784444" y1="331.3397459621556" x2="73.66025403784444" y2="322.67949192431115" stroke="black" stroke-width="1"/>
<line x1="73.66025403784444" y1="322.67949192431115" x2="82.32050807568882" y2="317.67949192431115" stroke="black" stroke-width="1"/>
<line x1="82.32050807568882" y1="317.67949192431115" x2="92.32050807568882" y2="317.67949192431115" stroke="black" stroke-width="1"/>
<line x1="82.32050807568882" y1="317.67949192431115" x2="90.9807621135332" y2="312.67949192431115" stroke="black" stroke-width="1"/>
<line x1="73.66025403784444" y1="322.67949192431115" x2="78.66025403784444" y2="314.0192378864667" stroke="black" stroke-width="1"/>
<line x1="78.66025403784444" y1="314.0192378864667" x2="87.32050807568882" y2="309.0192378864667" stroke="black" stroke-width="1"/>
<line x1="78.66025403784444" y1="314.0192378864667" x2="83.66025403784444" y2="305.3589838486223" stroke="black" stroke-width="1"/>
<line x1="83.66025403784444" y1="305.3589838486223" x2="83.66025403784444" y2="295.3589838486223" stroke="black" stroke-width="1"/>
<line x1="83.66025403784444" y1="305.3589838486223" x2="88.66025403784444" y2="296.6987298107779" stroke="black" stroke-width="1"/>
<line x1="88.66025403784444" y1="296.6987298107779" x2="97.32050807568882" y2="291.6987298107779" stroke="black" stroke-width="1"/>
<line x1="97.32050807568882" y1="291.6987298107779" x2="102.32050807568882" y2="283.03847577293345" stroke="black" stroke-width="1"/>
<line x1="97.32050807568882" y1="291.6987298107779" x2="105.9807621135332" y2="286.6987298107779" stroke="black" stroke-width="1"/>
<line x1="105.9807621135332" y1="286.6987298107779" x2="115.9807621135332" y2="286.6987298107779" stroke="black" stroke-width="1"/>
<line x1="115.9807621135332" y1="286.6987298107779" x2="124.64101615137758" y2="291.6987298107779" stroke="black" stroke-width="1"/>
<line x1="115.9807621135332" y1="286.6987298107779" x2="125.9807621135332" y2="286.6987298107779" stroke="black" stroke-width="1"/>
<line x1="105.9807621135332" y1="286.6987298107779" x2="114.64101615137758" y2="281.6987298107779" stroke="black" stroke-width="1"/>
<line x1="114.64101615137758" y1="281.6987298107779" x2="124.64101615137758" y2="281.6987298107779" stroke="black" stroke-width="1"/>
<line x1="114.64101615137758" y1="281.6987298107779" x2="123.30127018922197" y2="276.6987298107779" stroke="black" stroke-width="1"/>
<line x1="123.30127018922197" y1="276.6987298107779" x2="128.30127018922195" y2="268.03847577293345" stroke="black" stroke-width="1"/>
<line x1="123.30127018922197" y1="276.6987298107779" x2="131.96152422706635" y2="271.6987298107779" stroke="black" stroke-width="1"/>
<line x1="88.66025403784444" y1="296.6987298107779" x2="93.66025403784444" y2="288.03847577293345" stroke="black" stroke-width="1"/>
<line x1="93.66025403784444" y1="288.03847577293345" x2="93.66025403784444" y2="278.03847577293345" stroke="black" stroke-width="1"/>
<line x1="93.66025403784444" y1="288.03847577293345" x2="98.66025403784442" y2="279.378221735089" stroke="black" stroke-width="1"/>
<line x1="98.66025403784442" y1="279.378221735089" x2="107.32050807568882" y2="274.378221735089" stroke="black" stroke-width="1"/>
<line x1="107.32050807568882" y1="274.378221735089" x2="112.32050807568882" y2="265.7179676972446" stroke="black" stroke-width="1"/>
<line x1="107.32050807568882" y1="274.378221735089" x2="115.9807621135332" y2="269.378221735089" stroke="black" stroke-width="1"/>
<line x1="98.66025403784442" y1="279.378221735089" x2="103.66025403784442" y2="270.7179676972446" stroke="black" stroke-width="1"/>
<line x1="103.66025403784442" y1="270.7179676972446" x2="112.32050807568882" y2="265.7179676972446" stroke="black" stroke-width="1"/>
<line x1="103.66025403784442" y1="270.7179676972446" x2="108.66025403784442" y2="262.0577136594002" stroke="black" stroke-width="1"/>
<line x1="63.66025403784444" y1="340.0" x2="63.66025403784444" y2="330.0" stroke="black" stroke-width="1"/>
<line x1="63.66025403784444" y1="330.0" x2="68.66025403784444" y2="321.3397459621556" stroke="black" stroke-width="1"/>
<line x1="63.66025403784444" y1="330.0" x2="63.66025403784444" y2="320.0" stroke="black" stroke-width="1"/>
<line x1="63.66025403784444" y1="320.0" x2="58.66025403784443" y2="311.3397459621556" stroke="black" stroke-width="1"/>
<line x1="58.66025403784443" y1="311.3397459621556" x2="58.66025403784443" y2="301.3397459621556" stroke="black" stroke-width="1"/>
<line x1="58.66025403784443" y1="311.3397459621556" x2="53.66025403784443" y2="302.67949192431115" stroke="black" stroke-width="1"/>
<line x1="53.66025403784443" y1="302.67949192431115" x2="45.00000000000004" y2="297.67949192431115" stroke="black" stroke-width="1"/>
<line x1="53.66025403784443" y1="302.67949192431115" x2="48.660254037844425" y2="294.0192378864667" stroke="black" stroke-width="1"/>
<line x1="63.66025403784444" y1="320.0" x2="63.66025403784444" y2="310.0" stroke="black" stroke-width="1"/>
<line x1="63.66025403784444" y1="310.0" x2="68.66025403784444" y2="301.3397459621556" stroke="black" stroke-width="1"/>
<line x1="63.66025403784444" y1="310.0" x2="63.66025403784444" y2="300.0" stroke="black" stroke-width="1"/>
<line x1="63.66025403784444" y1="300.0" x2="58.66025403784443" y2="291.3397459621556" stroke="black" stroke-width="1"/>
<line x1="63.66025403784444" y1="300.0" x2="63.66025403784444" y2="290.0" stroke="black" stroke-width="1"/>
<line x1="63.66025403784444" y1="290.0" x2="68.66025403784444" y2="281.3397459621556" stroke="black" stroke-width="1"/>
<line x1="68.66025403784444" y1="281.3397459621556" x2="68.66025403784444" y2="271.3397459621556" stroke="black" stroke-width="1"/>
<line x1="68.66025403784444" y1="281.3397459621556" x2="73.66025403784444" y2="272.67949192431115" stroke="black" stroke-width="1"/>
<line x1="73.66025403784444" y1="272.67949192431115" x2="82.32050807568882" y2="267.67949192431115" stroke="black" stroke-width="1"/>
<line x1="82.32050807568882" y1="267.67949192431115" x2="87.32050807568882" y2="259.0192378864667" stroke="black" stroke-width="1"/>
<line x1="82.32050807568882" y1="267.67949192431115" x2="90.9807621135332" y2="262.67949192431115" stroke="black" stroke-width="1"/>
<line x1="73.66025403784444" y1="272.67949192431115" x2="78.66025403784444" y2="264.0192378864667" stroke="black" stroke-width="1"/>
<line x1="78.66025403784444" y1="264.0192378864667" x2="87.32050807568882" y2="259.0192378864667" stroke="black" stroke-width="1"/>
<line x1="78.66025403784444" y1="264.0192378864667" x2="83.66025403784444" y2="255.3589838486223" stroke="black" stroke-width="1"/>
<line x1="83.66025403784444" y1="255.3589838486223" x2="83.66025403784444" y2="245.3589838486223" stroke="black" stroke-width="1"/>
<line x1="83.66025403784444" y1="255.3589838486223" x2="88.66025403784444" y2="246.69872981077788" stroke="black" stroke-width="1"/>
<line x1="88.66025403784444" y1="246.69872981077788" x2="88.66025403784444" y2="236.69872981077788" stroke="black" stroke-width="1"/>
<line x1="88.66025403784444" y1="236.69872981077788" x2="93.66025403784444" y2="228.03847577293345" stroke="black" stroke-width="1"/>
<line x1="88.66025403784444" y1="236.69872981077788" x2="88.66025403784444" y2="226.69872981077788" stroke="black" stroke-width="1"/>
<line x1="88.66025403784444" y1="246.69872981077788" x2="93.66025403784444" y2="238.03847577293345" stroke="black" stroke-width="1"/>
<line x1="93.66025403784444" y1="238.03847577293345" x2="102.32050807568882" y2="233.03847577293345" stroke="black" stroke-width="1"/>
<line x1="93.66025403784444" y1="238.03847577293345" x2="98.66025403784442" y2="229.37822173508903" stroke="black" stroke-width="1"/>
<line x1="63.66025403784444" y1="290.0" x2="63.66025403784444" y2="280.0" stroke="black" stroke-width="1"/>
<line x1="63.66025403784444" y1="280.0" x2="58.66025403784443" y2="271.3397459621556" stroke="black" stroke-width="1"/>
<line x1="63.66025403784444" y1="280.0" x2="63.66025403784444" y2="270.0" stroke="black" stroke-width="1"/>
<line x1="63.66025403784444" y1="270.0" x2="68.66025403784444" y2="261.3397459621556" stroke="black" stroke-width="1"/>
<line x1="68.66025403784444" y1="261.3397459621556" x2="68.66025403784444" y2="251.33974596215558" stroke="black" stroke-width="1"/>
<line x1="68.66025403784444" y1="261.3397459621556" x2="73.66025403784444" y2="252.67949192431115" stroke="black" stroke-width="1"/>
<line x1="63.66025403784444" y1="270.0" x2="63.66025403784444" y2="260.0" stroke="black" stroke-width="1"/>
<line x1="63.66025403784444" y1="260.0" x2="58.66025403784443" y2="251.33974596215558" stroke="black" stroke-width="1"/>
<line x1="63.66025403784444" y1="260.0" x2="63.66025403784444" y2="250.0" stroke="black" stroke-width="1"/>
<line x1="63.66025403784444" y1="250.0" x2="58.66025403784443" y2="241.33974596215558" stroke="black" stroke-width="1"/>
<line x1="58.66025403784443" y1="241.33974596215558" x2="50.00000000000005" y2="236.33974596215558" stroke="black" stroke-width="1"/>
<line x1="58.66025403784443" y1="241.33974596215558" x2="53.66025403784443" y2="232.67949192431115" stroke="black" stroke-width="1"/>
<line x1="63.66025403784444" y1="250.0" x2="63.66025403784444" y2="240.0" stroke="black" stroke-width="1"/>
<line x1="63.66025403784444" y1="240.0" x2="68.66025403784444" y2="231.33974596215558" stroke="black" stroke-width="1"/>
<line x1="63.66025403784444" y1="240.0" x2="63.66025403784444" y2="230.0" stroke="black" stroke-width="1"/>
<line x1="63.66025403784444" y1="230.0" x2="58.66025403784443" y2="221.33974596215558" stroke="black" stroke-width="1"/>
<line x1="63.66025403784444" y1="230.0" x2="63.66025403784444" y2="220.0" stroke="black" stroke-width="1"/>
<line x1="63.66025403784444" y1="220.0" x2="58.66025403784443" y2="211.33974596215558" stroke="black" stroke-width="1"/>
<line x1="58.66025403784443" y1="211.33974596215558" x2="58.66025403784443" y2="201.33974596215558" stroke="black" stroke-width="1"/>
<line x1="58.66025403784443" y1="211.33974596215558" x2="53.66025403784443" y2="202.67949192431115" stroke="black" stroke-width="1"/>
<line x1="53.66025403784443" y1="202.67949192431115" x2="53.66025403784443" y2="192.67949192431115" stroke="black" stroke-width="1"/>
<line x1="53.66025403784443" y1="192.67949192431115" x2="48.660254037844425" y2="184.01923788646673" stroke="black" stroke-width="1"/>
<line x1="53.66025403784443" y1="192.67949192431115" x2="53.66025403784443" y2="182.67949192431115" stroke="black" stroke-width="1"/>
<line x1="53.66025403784443" y1="202.67949192431115" x2="48.660254037844425" y2="194.01923788646673" stroke="black" stroke-width="1"/>
<line x1="48.660254037844425" y1="194.01923788646673" x2="48.660254037844425" y2="184.01923788646673" stroke="black" stroke-width="1"/>
<line x1="48.660254037844425" y1="194.01923788646673" x2="43.660254037844425" y2="185.3589838486223" stroke="black" stroke-width="1"/>
<line x1="43.660254037844425" y1="185.3589838486223" x2="35.000000000000036" y2="180.3589838486223" stroke="black" stroke-width="1"/>
<line x1="43.660254037844425" y1="185.3589838486223" x2="38.66025403784442" y2="176.69872981077788" stroke="black" stroke-width="1"/>
<line x1="38.66025403784442" y1="176.69872981077788" x2="30.00000000000003" y2="171.69872981077788" stroke="black" stroke-width="1"/>
<line x1="30.00000000000003" y1="171.69872981077788" x2="25.00000000000002" y2="163.03847577293345" stroke="black" stroke-width="1"/>
<line x1="30.00000000000003" y1="171.69872981077788" x2="21.339745962155646" y2="166.69872981077788" stroke="black" stroke-width="1"/>
<line x1="21.339745962155646" y1="166.69872981077788" x2="11.339745962155646" y2="166.69872981077788" stroke="black" stroke-width="1"/>
<line x1="21.339745962155646" y1="166.69872981077788" x2="12.679491924311264" y2="161.69872981077788" stroke="black" stroke-width="1"/>
<line x1="38.66025403784442" y1="176.69872981077788" x2="33.66025403784441" y2="168.03847577293345" stroke="black" stroke-width="1"/>
<line x1="33.66025403784441" y1="168.03847577293345" x2="33.66025403784441" y2="158.03847577293345" stroke="black" stroke-width="1"/>
<line x1="33.66025403784441" y1="168.03847577293345" x2="28.66025403784441" y2="159.37822173508903" stroke="black" stroke-width="1"/>
<line x1="28.66025403784441" y1="159.37822173508903" x2="20.00000000000003" y2="154.37822173508903" stroke="black" stroke-width="1"/>
<line x1="28.66025403784441" y1="159.37822173508903" x2="23.660254037844403" y2="150.7179676972446" stroke="black" stroke-width="1"/>
<line x1="63.66025403784444" y1="220.0" x2="63.66025403784444" y2="210.0" stroke="black" stroke-width="1"/>
<line x1="63.66025403784444" y1="210.0" x2="68.66025403784444" y2="201.33974596215558" stroke="black" stroke-width="1"/>
<line x1="63.66025403784444" y1="210.0" x2="63.66025403784444" y2="200.0" stroke="black" stroke-width="1"/>
<line x1="63.66025403784444" y1="200.0" x2="58.66025403784443" y2="191.33974596215558" stroke="black" stroke-width="1"/>
<line x1="63.66025403784444" y1="200.0" x2="63.66025403784444" y2="190.0" stroke="black" stroke-width="1"/>
<line x1="63.66025403784444" y1="190.0" x2="68.66025403784444" y2="181.33974596215558" stroke="black" stroke-width="1"/>
<line x1="68.66025403784444" y1="181.33974596215558" x2="68.66025403784444" y2="171.33974596215558" stroke="black" stroke-width="1"/>
<line x1="68.66025403784444" y1="181.33974596215558" x2="73.66025403784444" y2="172.67949192431115" stroke="black" stroke-width="1"/>
<line x1="63.66025403784444" y1="190.0" x2="63.66025403784444" y2="180.0" stroke="black" stroke-width="1"/>
<line x1="63.66025403784444" y1="180.0" x2="68.66025403784444" y2="171.33974596215558" stroke="black" stroke-width="1"/>
<line x1="63.66025403784444" y1="180.0" x2="63.66025403784444" y2="170.0" stroke="black" stroke-width="1"/>
<line x1="63.66025403784444" y1="170.0" x2="58.66025403784443" y2="161.33974596215558" stroke="black" stroke-width="1"/>
<line x1="63.66025403784444" y1="170.0" x2="63.66025403784444" y2="160.0" stroke="black" stroke-width="1"/>
<line x1="63.66025403784444" y1="160.0" x2="58.66025403784443" y2="151.33974596215558" stroke="black" stroke-width="1"/>
<line x1="58.66025403784443" y1="151.33974596215558" x2="58.66025403784443" y2="141.33974596215558" stroke="black" stroke-width="1"/>
<line x1="58.66025403784443" y1="151.33974596215558" x2="53.66025403784443" y2="142.67949192431115" stroke="black" stroke-width="1"/>
<line x1="53.66025403784443" y1="142.67949192431115" x2="53.66025403784443" y2="132.67949192431115" stroke="black" stroke-width="1"/>
<line x1="53.66025403784443" y1="132.67949192431115" x2="58.66025403784443" y2="124.01923788646673" stroke="black" stroke-width="1"/>
<line x1="53.66025403784443" y1="132.67949192431115" x2="53.66025403784443" y2="122.67949192431115" stroke="black" stroke-width="1"/>
<line x1="53.66025403784443" y1="142.67949192431115" x2="48.660254037844425" y2="134.01923788646673" stroke="black" stroke-width="1"/>
<line x1="48.660254037844425" y1="134.01923788646673" x2="48.660254037844425" y2="124.01923788646673" stroke="black" stroke-width="1"/>
<line x1="48.660254037844425" y1="134.01923788646673" x2="43.660254037844425" y2="125.3589838486223" stroke="black" stroke-width="1"/>
<line x1="43.660254037844425" y1="125.3589838486223" x2="35.000000000000036" y2="120.3589838486223" stroke="black" stroke-width="1"/>
<line x1="43.660254037844425" y1="125.3589838486223" x2="38.66025403784442" y2="116.69872981077788" stroke="black" stroke-width="1"/>
<line x1="38.66025403784442" y1="116.69872981077788" x2="30.00000000000003" y2="111.69872981077788" stroke="black" stroke-width="1"/>
<line x1="30.00000000000003" y1="111.69872981077788" x2="25.00000000000002" y2="103.03847577293345" stroke="black" stroke-width="1"/>
<line x1="30.00000000000003" y1="111.69872981077788" x2="21.339745962155646" y2="106.69872981077788" stroke="black" stroke-width="1"/>
<line x1="38.66025403784442" y1="116.69872981077788" x2="33.66025403784441" y2="108.03847577293345" stroke="black" stroke-width="1"/>
<line x1="33.66025403784441" y1="108.03847577293345" x2="25.00000000000003" y2="103.03847577293345" stroke="black" stroke-width="1"/>
<line x1="33.66025403784441" y1="108.03847577293345" x2="28.66025403784441" y2="99.37822173508903" stroke="black" stroke-width="1"/>
<line x1="28.66025403784441" y1="99.37822173508903" x2="28.66025403784441" y2="89.37822173508903" stroke="black" stroke-width="1"/>
<line x1="28.66025403784441" y1="89.37822173508903" x2="23.660254037844403" y2="80.7179676972446" stroke="black" stroke-width="1"/>
<line x1="28.66025403784441" y1="89.37822173508903" x2="28.66025403784441" y2="79.37822173508903" stroke="black" stroke-width="1"/>
<line x1="28.66025403784441" y1="79.37822173508903" x2="23.660254037844403" y2="70.7179676972446" stroke="black" stroke-width="1"/>
<line x1="23.660254037844403" y1="70.7179676972446" x2="23.660254037844403" y2="60.7179676972446" stroke="black" stroke-width="1"/>
<line x1="23.660254037844403" y1="70.7179676972446" x2="18.660254037844396" y2="62.05771365940018" stroke="black" stroke-width="1"/>
<line x1="28.66025403784441" y1="79.37822173508903" x2="28.66025403784441" y2="69.37822173508903" stroke="black" stroke-width="1"/>
<line x1="28.66025403784441" y1="69.37822173508903" x2="33.66025403784441" y2="60.7179676972446" stroke="black" stroke-width="1"/>
<line x1="28.66025403784441" y1="69.37822173508903" x2="28.66025403784441" y2="59.37822173508903" stroke="black" stroke-width="1"/>
<line x1="28.66025403784441" y1="99.37822173508903" x2="23.660254037844403" y2="90.7179676972446" stroke="black" stroke-width="1"/>
<line x1="23.660254037844403" y1="90.7179676972446" x2="15.000000000000014" y2="85.7179676972446" stroke="black" stroke-width="1"/>
<line x1="23.660254037844403" y1="90.7179676972446" x2="18.660254037844396" y2="82.05771365940018" stroke="black" stroke-width="1"/>
<line x1="18.660254037844396" y1="82.05771365940018" x2="10.000000000000014" y2="77.05771365940018" stroke="black" stroke-width="1"/>
<line x1="10.000000000000014" y1="77.05771365940018" x2="5.000000000000007" y2="68.39745962155575" stroke="black" stroke-width="1"/>
<line x1="10.000000000000014" y1="77.05771365940018" x2="1.3397459621556322" y2="72.05771365940018" stroke="black" stroke-width="1"/>
<line x1="18.660254037844396" y1="82.05771365940018" x2="13.660254037844389" y2="73.39745962155575" stroke="black" stroke-width="1"/>
<line x1="13.660254037844389" y1="73.39745962155575" x2="13.660254037844389" y2="63.397459621555754" stroke="black" stroke-width="1"/>
<line x1="13.660254037844389" y1="73.39745962155575" x2="8.660254037844382" y2="64.73720558371133" stroke="black" stroke-width="1"/>
<line x1="8.660254037844382" y1="64.73720558371133" x2="0.0" y2="59.73720558371133" stroke="black" stroke-width="1"/>
<line x1="8.660254037844382" y1="64.73720558371133" x2="3.660254037844375" y2="56.076951545866905" stroke="black" stroke-width="1"/>
<line x1="63.66025403784444" y1="160.0" x2="63.66025403784444" y2="150.0" stroke="black" stroke-width="1"/>
<line x1="63.66025403784444" y1="150.0" x2="68.66025403784444" y2="141.33974596215558" stroke="black" stroke-width="1"/>
<line x1="63.66025403784444" y1="150.0" x2="63.66025403784444" y2="140.0" stroke="black" stroke-width="1"/>
<line x1="63.66025403784444" y1="140.0" x2="58.66025403784443" y2="131.33974596215558" stroke="black" stroke-width="1"/>
<line x1="63.66025403784444" y1="140.0" x2="63.66025403784444" y2="130.0" stroke="black" stroke-width="1"/>
<line x1="63.66025403784444" y1="130.0" x2="68.66025403784444" y2="121.33974596215558" stroke="black" stroke-width="1"/>
<line x1="68.66025403784444" y1="121.33974596215558" x2="77.32050807568882" y2="116.33974596215558" stroke="black" stroke-width="1"/>
<line x1="68.66025403784444" y1="121.33974596215558" x2="73.66025403784444" y2="112.67949192431115" stroke="black" stroke-width="1"/>
<line x1="63.66025403784444" y1="130.0" x2="63.66025403784444" y2="120.0" stroke="black" stroke-width="1"/>
<line x1="63.66025403784444" y1="120.0" x2="68.66025403784444" y2="111.33974596215558" stroke="black" stroke-width="1"/>
<line x1="63.66025403784444" y1="120.0" x2="63.66025403784444" y2="110.0" stroke="black" stroke-width="1"/>
<line x1="63.66025403784444" y1="110.0" x2="58.66025403784443" y2="101.33974596215558" stroke="black" stroke-width="1"/>
<line x1="63.66025403784444" y1="110.0" x2="63.66025403784444" y2="100.0" stroke="black" stroke-width="1"/>
<line x1="63.66025403784444" y1="100.0" x2="68.66025403784444" y2="91.33974596215558" stroke="black" stroke-width="1"/>
<line x1="68.66025403784444" y1="91.33974596215558" x2="77.32050807568882" y2="86.33974596215558" stroke="black" stroke-width="1"/>
<line x1="68.66025403784444" y1="91.33974596215558" x2="73.66025403784444" y2="82.67949192431115" stroke="black" stroke-width="1"/>
<line x1="73.66025403784444" y1="82.67949192431115" x2="73.66025403784444" y2="72.67949192431115" stroke="black" stroke-width="1"/>
<line x1="73.66025403784444" y1="82.67949192431115" x2="78.66025403784444" y2="74.01923788646673" stroke="black" stroke-width="1"/>
<line x1="78.66025403784444" y1="74.01923788646673" x2="78.66025403784444" y2="64.01923788646673" stroke="black" stroke-width="1"/>
<line x1="78.66025403784444" y1="64.01923788646673" x2="83.66025403784444" y2="55.3589838486223" stroke="black" stroke-width="1"/>
<line x1="78.66025403784444" y1="64.01923788646673" x2="78.66025403784444" y2="54.019237886466726" stroke="black" stroke-width="1"/>
<line x1="78.66025403784444" y1="54.019237886466726" x2="73.66025403784442" y2="45.3589838486223" stroke="black" stroke-width="1"/>
<line x1="78.66025403784444" y1="54.019237886466726" x2="78.66025403784444" y2="44.019237886466726" stroke="black" stroke-width="1"/>
<line x1="78.66025403784444" y1="74.01923788646673" x2="83.66025403784444" y2="65.3589838486223" stroke="black" stroke-width="1"/>
<line x1="83.66025403784444" y1="65.3589838486223" x2="92.32050807568882" y2="60.3589838486223" stroke="black" stroke-width="1"/>
<line x1="83.66025403784444" y1="65.3589838486223" x2="88.66025403784444" y2="56.69872981077788" stroke="black" stroke-width="1"/>
<line x1="88.66025403784444" y1="56.69872981077788" x2="88.66025403784444" y2="46.69872981077788" stroke="black" stroke-width="1"/>
<line x1="88.66025403784444" y1="56.69872981077788" x2="93.66025403784444" y2="48.03847577293345" stroke="black" stroke-width="1"/>
<line x1="63.66025403784444" y1="100.0" x2="63.66025403784444" y2="90.0" stroke="black" stroke-width="1"/>
<line x1="63.66025403784444" y1="90.0" x2="58.66025403784443" y2="81.33974596215558" stroke="black" stroke-width="1"/>
<line x1="63.66025403784444" y1="90.0" x2="63.66025403784444" y2="80.0" stroke="black" stroke-width="1"/>
<line x1="63.66025403784444" y1="80.0" x2="58.66025403784443" y2="71.33974596215558" stroke="black" stroke-width="1"/>
<line x1="58.66025403784443" y1="71.33974596215558" x2="58.66025403784443" y2="61.339745962155575" stroke="black" stroke-width="1"/>
<line x1="58.66025403784443" y1="71.33974596215558" x2="53.66025403784443" y2="62.67949192431115" stroke="black" stroke-width="1"/>
<line x1="63.66025403784444" y1="80.0" x2="63.66025403784444" y2="70.0" stroke="black" stroke-width="1"/>
<line x1="63.66025403784444" y1="70.0" x2="68.66025403784444" y2="61.339745962155575" stroke="black" stroke-width="1"/>
<line x1="63.66025403784444" y1="70.0" x2="63.66025403784444" y2="60.0" stroke="black" stroke-width="1"/>
<line x1="63.66025403784444" y1="60.0" x2="58.66025403784443" y2="51.339745962155575" stroke="black" stroke-width="1"/>
<line x1="58.66025403784443" y1="51.339745962155575" x2="50.00000000000005" y2="46.339745962155575" stroke="black" stroke-width="1"/>
<line x1="58.66025403784443" y1="51.339745962155575" x2="53.66025403784443" y2="42.67949192431115" stroke="black" stroke-width="1"/>
<line x1="53.66025403784443" y1="42.67949192431115" x2="45.00000000000004" y2="37.67949192431115" stroke="black" stroke-width="1"/>
<line x1="45.00000000000004" y1="37.67949192431115" x2="40.00000000000004" y2="29.019237886466726" stroke="black" stroke-width="1"/>
<line x1="45.00000000000004" y1="37.67949192431115" x2="36.33974596215566" y2="32.67949192431115" stroke="black" stroke-width="1"/>
<line x1="36.33974596215566" y1="32.67949192431115" x2="26.33974596215566" y2="32.67949192431115" stroke="black" stroke-width="1"/>
<line x1="36.33974596215566" y1="32.67949192431115" x2="27.67949192431127" y2="27.67949192431115" stroke="black" stroke-width="1"/>
<line x1="53.66025403784443" y1="42.67949192431115" x2="48.660254037844425" y2="34.019237886466726" stroke="black" stroke-width="1"/>
<line x1="48.660254037844425" y1="34.019237886466726" x2="48.660254037844425" y2="24.019237886466726" stroke="black" stroke-width="1"/>
<line x1="48.660254037844425" y1="34.019237886466726" x2="43.660254037844425" y2="25.3589838486223" stroke="black" stroke-width="1"/>
<line x1="63.66025403784444" y1="60.0" x2="63.66025403784444" y2="50.0" stroke="black" stroke-width="1"/>
<line x1="63.66025403784444" y1="50.0" x2="58.66025403784443" y2="41.339745962155575" stroke="black" stroke-width="1"/>
<line x1="63.66025403784444" y1="50.0" x2="63.66025403784444" y2="40.0" stroke="black" stroke-width="1"/>
<line x1="63.66025403784444" y1="40.0" x2="68.66025403784444" y2="31.339745962155575" stroke="black" stroke-width="1"/>
<line x1="68.66025403784444" y1="31.339745962155575" x2="68.66025403784444" y2="21.339745962155575" stroke="black" stroke-width="1"/>
<line x1="68.66025403784444" y1="31.339745962155575" x2="73.66025403784444" y2="22.67949192431115" stroke="black" stroke-width="1"/>
<line x1="63.66025403784444" y1="40.0" x2="63.66025403784444" y2="30.0" stroke="black" stroke-width="1"/>
<line x1="63.66025403784444" y1="30.0" x2="68.66025403784444" y2="21.339745962155575" stroke="black" stroke-width="1"/>
<line x1="63.66025403784444" y1="30.0" x2="63.66025403784444" y2="20.0" stroke="black" stroke-width="1"/>
<line x1="63.66025403784444" y1="20.0" x2="58.66025403784443" y2="11.339745962155575" stroke="black" stroke-width="1"/>
<line x1="58.66025403784443" y1="11.339745962155575" x2="50.00000000000005" y2="6.339745962155575" stroke="black" stroke-width="1"/>
<line x1="58.66025403784443" y1="11.339745962155575" x2="53.66025403784443" y2="2.679491924311151" stroke="black" stroke-width="1"/>
<line x1="63.66025403784444" y1="20.0" x2="63.66025403784444" y2="10.0" stroke="black" stroke-width="1"/>
<line x1="63.66025403784444" y1="10.0" x2="68.66025403784444" y2="1.3397459621555754" stroke="black" stroke-width="1"/>
<line x1="63.66025403784444" y1="10.0" x2="63.66025403784444" y2="0.0" stroke="black" stroke-width="1"/>
</svg>
