<svg width="400" height="400" xmlns="http://www.w3.org/2000/svg">
<line x1="400" y1="0" x2="0" y2="0" stroke="red" stroke-width="1"/>
<line x1="392.0" y1="0" x2="0" y2="8.0" stroke="red" stroke-width="1"/>
<line x1="384.0" y1="0" x2="0" y2="16.0" stroke="red" stroke-width="1"/>
<line x1="376.0" y1="0" x2="0" y2="24.0" stroke="red" stroke-width="1"/>
<line x1="368.0" y1="0" x2="0" y2="32.0" stroke="red" stroke-width="1"/>
<line x1="360.0" y1="0" x2="0" y2="40.0" stroke="red" stroke-width="1"/>
<line x1="352.0" y1="0" x2="0" y2="48.0" stroke="red" stroke-width="1"/>
<line x1="344.0" y1="0" x2="0" y2="56.0" stroke="red" stroke-width="1"/>
<line x1="336.0" y1="0" x2="0" y2="64.0" stroke="red" stroke-width="1"/>
<line x1="328.0" y1="0" x2="0" y2="72.0" stroke="red" stroke-width="1"/>
<line x1="320.0" y1="0" x2="0" y2="80.0" stroke="red" stroke-width="1"/>
<line x1="312.0" y1="0" x2="0" y2="88.0" stroke="red" stroke-width="1"/>
<line x1="304.0" y1="0" x2="0" y2="96.0" stroke="red" stroke-width="1"/>
<line x1="296.0" y1="0" x2="0" y2="104.0" stroke="red" stroke-width="1"/>
<line x1="288.0" y1="0" x2="0" y2="112.0" stroke="red" stroke-width="1"/>
<line x1="280.0" y1="0" x2="0" y2="120.0" stroke="red" stroke-width="1"/>
<line x1="272.0" y1="0" x2="0" y2="128.0" stroke="red" stroke-width="1"/>
<line x1="264.0" y1="0" x2="0" y2="136.0" stroke="red" stroke-width="1"/>
<line x1="256.0" y1="0" x2="0" y2="144.0" stroke="red" stroke-width="1"/>
<line x1="248.0" y1="0" x2="0" y2="152.0" stroke="red" stroke-width="1"/>
<line x1="240.0" y1="0" x2="0" y2="160.0" stroke="red" stroke-width="1"/>
<line x1="232.0" y1="0" x2="0" y2="168.0" stroke="red" stroke-width="1"/>
<line x1="224.0" y1="0" x2="0" y2="176.0" stroke="red" stroke-width="1"/>
<line x1="216.0" y1="0" x2="0" y2="184.0" stroke="red" stroke-width="1"/>
<line x1="208.0" y1="0" x2="0" y2="192.0" stroke="red" stroke-width="1"/>
<line x1="200.0" y1="0" x2="0" y2="200.0" stroke="red" stroke-width="1"/>
<line x1="192.0" y1="0" x2="0" y2="208.0" stroke="red" stroke-width="1"/>
<line x1="184.0" y1="0" x2="0" y2="216.0" stroke="red" stroke-width="1"/>
<line x1="176.0" y1="0" x2="0" y2="224.0" stroke="red" stroke-width="1"/>
<line x1="168.0" y1="0" x2="0" y2="232.0" stroke="red" stroke-width="1"/>
<line x1="160.0" y1="0" x2="0" y2="240.0" stroke="red" stroke-width="1"/>
<line x1="152.0" y1="0" x2="0" y2="248.0" stroke="red" stroke-width="1"/>
<line x1="144.0" y1="0" x2="0" y2="256.0" stroke="red" stroke-width="1"/>
<line x1="136.0" y1="0" x2="0" y2="264.0" stroke="red" stroke-width="1"/>
<line x1="128.0" y1="0" x2="0" y2="272.0" stroke="red" stroke-width="1"/>
<line x1="120.0" y1="0" x2="0" y2="280.0" stroke="red" stroke-width="1"/>
<line x1="112.0" y1="0" x2="0" y2="288.0" stroke="red" stroke-width="1"/>
<line x1="104.0" y1="0" x2="0" y2="296.0" stroke="red" stroke-width="1"/>
<line x1="96.0" y1="0" x2="0" y2="304.0" stroke="red" stroke-width="1"/>
<line x1="88.0" y1="0" x2="0" y2="312.0" stroke="red" stroke-width="1"/>
<line x1="80.0" y1="0" x2="0" y2="320.0" stroke="red" stroke-width="1"/>
<line x1="72.0" y1="0" x2="0" y2="328.0" stroke="red" stroke-width="1"/>
<line x1="64.0" y1="0" x2="0" y2="336.0" stroke="red" stroke-width="1"/>
<line x1="56.0" y1="0" x2="0" y2="344.0" stroke="red" stroke-width="1"/>
<line x1="48.0" y1="0" x2="0" y2="352.0" stroke="red" stroke-width="1"/>
<line x1="40.0" y1="0" x2="0" y2="360.0" stroke="red" stroke-width="1"/>
<line x1="32.0" y1="0" x2="0" y2="368.0" stroke="red" stroke-width="1"/>
<line x1="24.0" y1="0" x2="0" y2="376.0" stroke="red" stroke-width="1"/>
<line x1="16.0" y1="0" x2="0" y2="384.0" stroke="red" stroke-width="1"/>
<line x1="8.0" y1="0" x2="0" y2="392.0" stroke="red" stroke-width="1"/>
<line x1="400" y1="400" x2="400" y2="0" stroke="red" stroke-width="1"/>
<line x1="400" y1="392.0" x2="392.0" y2="0" stroke="red" stroke-width="1"/>
<line x1="400" y1="384.0" x2="384.0" y2="0" stroke="red" stroke-width="1"/>
<line x1="400" y1="376.0" x2="376.0" y2="0" stroke="red" stroke-width="1"/>
<line x1="400" y1="368.0" x2="368.0" y2="0" stroke="red" stroke-width="1"/>
<line x1="400" y1="360.0" x2="360.0" y2="0" stroke="red" stroke-width="1"/>
<line x1="400" y1="352.0" x2="352.0" y2="0" stroke="red" stroke-width="1"/>
<line x1="400" y1="344.0" x2="344.0" y2="0" stroke="red" stroke-width="1"/>
<line x1="400" y1="336.0" x2="336.0" y2="0" stroke="red" stroke-width="1"/>
<line x1="400" y1="328.0" x2="328.0" y2="0" stroke="red" stroke-width="1"/>
<line x1="400" y1="320.0" x2="320.0" y2="0" stroke="red" stroke-width="1"/>
<line x1="400" y1="312.0" x2="312.0" y2="0" stroke="red" stroke-width="1"/>
<line x1="400" y1="304.0" x2="304.0" y2="0" stroke="red" stroke-width="1"/>
<line x1="400" y1="296.0" x2="296.0" y2="0" stroke="red" stroke-width="1"/>
<line x1="400" y1="288.0" x2="288.0" y2="0" stroke="red" stroke-width="1"/>
<line x1="400" y1="280.0" x2="280.0" y2="0" stroke="red" stroke-width="1"/>
<line x1="400" y1="272.0" x2="272.0" y2="0" stroke="red" stroke-width="1"/>
<line x1="400" y1="264.0" x2="264.0" y2="0" stroke="red" stroke-width="1"/>
<line x1="400" y1="256.0" x2="256.0" y2="0" stroke="red" stroke-width="1"/>
<line x1="400" y1="248.0" x2="248.0" y2="0" stroke="red" stroke-width="1"/>
<line x1="400" y1="240.0" x2="240.0" y2="0" stroke="red" stroke-width="1"/>
<line x1="400" y1="232.0" x2="232.0" y2="0" stroke="red" stroke-width="1"/>
<line x1="400" y1="224.0" x2="224.0" y2="0" stroke="red" stroke-width="1"/>
<line x1="400" y1="216.0" x2="216.0" y2="0" stroke="red" stroke-width="1"/>
<line x1="400" y1="208.0" x2="208.0" y2="0" stroke="red" stroke-width="1"/>
<line x1="400" y1="200.0" x2="200.0" y2="0" stroke="red" stroke-width="1"/>
<line x1="400" y1="192.0" x2="192.0" y2="0" stroke="red" stroke-width="1"/>
<line x1="400" y1="184.0" x2="184.0" y2="0" stroke="red" stroke-width="1"/>
<line x1="400" y1="176.0" x2="176.0" y2="0" stroke="red" stroke-width="1"/>
<line x1="400" y1="168.0" x2="168.0" y2="0" stroke="red" stroke-width="1"/>
<line x1="400" y1="160.0" x2="160.0" y2="0" stroke="red" stroke-width="1"/>
<line x1="400" y1="152.0" x2="152.0" y2="0" stroke="red" stroke-width="1"/>
<line x1="400" y1="144.0" x2="144.0" y2="0" stroke="red" stroke-width="1"/>
<line x1="400" y1="136.0" x2="136.0" y2="0" stroke="red" stroke-width="1"/>
<line x1="400" y1="128.0" x2="128.0" y2="0" stroke="red" stroke-width="1"/>
<line x1="400" y1="120.0" x2="120.0" y2="0" stroke="red" stroke-width="1"/>
<line x1="400" y1="112.0" x2="112.0" y2="0" stroke="red" stroke-width="1"/>
<line x1="400" y1="104.0" x2="104.0" y2="0" stroke="red" stroke-width="1"/>
<line x1="400" y1="96.0" x2="96.0" y2="0" stroke="red" stroke-width="1"/>
<line x1="400" y1="88.0" x2="88.0" y2="0" stroke="red" stroke-width="1"/>
<line x1="400" y1="80.0" x2="80.0" y2="0" stroke="red" stroke-width="1"/>
<line x1="400" y1="72.0" x2="72.0" y2="0" stroke="red" stroke-width="1"/>
<line x1="400" y1="64.0" x2="64.0" y2="0" stroke="red" stroke-width="1"/>
<line x1="400" y1="56.0" x2="56.0" y2="0" stroke="red" stroke-width="1"/>
<line x1="400" y1="48.0" x2="48.0" y2="0" stroke="red" stroke-width="1"/>
<line x1="400" y1="40.0" x2="40.0" y2="0" stroke="red" stroke-width="1"/>
<line x1="400" y1="32.0" x2="32.0" y2="0" stroke="red" stroke-width="1"/>
<line x1="400" y1="24.0" x2="24.0" y2="0" stroke="red" stroke-width="1"/>
<line x1="400" y1="16.0" x2="16.0" y2="0" stroke="red" stroke-width="1"/>
<line x1="400" y1="8.0" x2="8.0" y2="0" stroke="red" stroke-width="1"/>
<line x1="0" y1="400" x2="400" y2="400" stroke="red" stroke-width="1"/>
<line x1="8.0" y1="400" x2="400" y2="392.0" stroke="red" stroke-width="1"/>
<line x1="16.0" y1="400" x2="400" y2="384.0" stroke="red" stroke-width="1"/>
<line x1="24.0" y1="400" x2="400" y2="376.0" stroke="red" stroke-width="1"/>
<line x1="32.0" y1="400" x2="400" y2="368.0" stroke="red" stroke-width="1"/>
<line x1="40.0" y1="400" x2="400" y2="360.0" stroke="red" stroke-width="1"/>
<line x1="48.0" y1="400" x2="400" y2="352.0" stroke="red" stroke-width="1"/>
<line x1="56.0" y1="400" x2="400" y2="344.0" stroke="red" stroke-width="1"/>
<line x1="64.0" y1="400" x2="400" y2="336.0" stroke="red" stroke-width="1"/>
<line x1="72.0" y1="400" x2="400" y2="328.0" stroke="red" stroke-width="1"/>
<line x1="80.0" y1="400" x2="400" y2="320.0" stroke="red" stroke-width="1"/>
<line x1="88.0" y1="400" x2="400" y2="312.0" stroke="red" stroke-width="1"/>
<line x1="96.0" y1="400" x2="400" y2="304.0" stroke="red" stroke-width="1"/>
<line x1="104.0" y1="400" x2="400" y2="296.0" stroke="red" stroke-width="1"/>
<line x1="112.0" y1="400" x2="400" y2="288.0" stroke="red" stroke-width="1"/>
<line x1="120.0" y1="400" x2="400" y2="280.0" stroke="red" stroke-width="1"/>
<line x1="128.0" y1="400" x2="400" y2="272.0" stroke="red" stroke-width="1"/>
<line x1="136.0" y1="400" x2="400" y2="264.0" stroke="red" stroke-width="1"/>
<line x1="144.0" y1="400" x2="400" y2="256.0" stroke="red" stroke-width="1"/>
<line x1="152.0" y1="400" x2="400" y2="248.0" stroke="red" stroke-width="1"/>
<line x1="160.0" y1="400" x2="400" y2="240.0" stroke="red" stroke-width="1"/>
<line x1="168.0" y1="400" x2="400" y2="232.0" stroke="red" stroke-width="1"/>
<line x1="176.0" y1="400" x2="400" y2="224.0" stroke="red" stroke-width="1"/>
<line x1="184.0" y1="400" x2="400" y2="216.0" stroke="red" stroke-width="1"/>
<line x1="192.0" y1="400" x2="400" y2="208.0" stroke="red" stroke-width="1"/>
<line x1="200.0" y1="400" x2="400" y2="200.0" stroke="red" stroke-width="1"/>
<line x1="208.0" y1="400" x2="400" y2="192.0" stroke="red" stroke-width="1"/>
<line x1="216.0" y1="400" x2="400" y2="184.0" stroke="red" stroke-width="1"/>
<line x1="224.0" y1="400" x2="400" y2="176.0" stroke="red" stroke-width="1"/>
<line x1="232.0" y1="400" x2="400" y2="168.0" stroke="red" stroke-width="1"/>
<line x1="240.0" y1="400" x2="400" y2="160.0" stroke="red" stroke-width="1"/>
<line x1="248.0" y1="400" x2="400" y2="152.0" stroke="red" stroke-width="1"/>
<line x1="256.0" y1="400" x2="400" y2="144.0" stroke="red" stroke-width="1"/>
<line x1="264.0" y1="400" x2="400" y2="136.0" stroke="red" stroke-width="1"/>
<line x1="272.0" y1="400" x2="400" y2="128.0" stroke="red" stroke-width="1"/>
<line x1="280.0" y1="400" x2="400" y2="120.0" stroke="red" stroke-width="1"/>
<line x1="288.0" y1="400" x2="400" y2="112.0" stroke="red" stroke-width="1"/>
<line x1="296.0" y1="400" x2="400" y2="104.0" stroke="red" stroke-width="1"/>
<line x1="304.0" y1="400" x2="400" y2="96.0" stroke="red" stroke-width="1"/>
<line x1="312.0" y1="400" x2="400" y2="88.0" stroke="red" stroke-width="1"/>
<line x1="320.0" y1="400" x2="400" y2="80.0" stroke="red" stroke-width="1"/>
<line x1="328.0" y1="400" x2="400" y2="72.0" stroke="red" stroke-width="1"/>
<line x1="336.0" y1="400" x2="400" y2="64.0" stroke="red" stroke-width="1"/>
<line x1="344.0" y1="400" x2="400" y2="56.0" stroke="red" stroke-width="1"/>
<line x1="352.0" y1="400" x2="400" y2="48.0" stroke="red" stroke-width="1"/>
<line x1="360.0" y1="400" x2="400" y2="40.0" stroke="red" stroke-width="1"/>
<line x1="368.0" y1="400" x2="400" y2="32.0" stroke="red" stroke-width="1"/>
<line x1="376.0" y1="400" x2="400" y2="24.0" stroke="red" stroke-width="1"/>
<line x1="384.0" y1="400" x2="400" y2="16.0" stroke="red" stroke-width="1"/>
<line x1="392.0" y1="400" x2="400" y2="8.0" stroke="red" stroke-width="1"/>
<line x1="0" y1="0" x2="0" y2="400" stroke="red" stroke-width="1"/>
<line x1="0" y1="8.0" x2="8.0" y2="400" stroke="red" stroke-width="1"/>
<line x1="0" y1="16.0" x2="16.0" y2="400" stroke="red" stroke-width="1"/>
<line x1="0" y1="24.0" x2="24.0" y2="400" stroke="red" stroke-width="1"/>
<line x1="0" y1="32.0" x2="32.0" y2="400" stroke="red" stroke-width="1"/>
<line x1="0" y1="40.0" x2="40.0" y2="400" stroke="red" stroke-width="1"/>
<line x1="0" y1="48.0" x2="48.0" y2="400" stroke="red" stroke-width="1"/>
<line x1="0" y1="56.0" x2="56.0" y2="400" stroke="red" stroke-width="1"/>
<line x1="0" y1="64.0" x2="64.0" y2="400" stroke="red" stroke-width="1"/>
<line x1="0" y1="72.0" x2="72.0" y2="400" stroke="red" stroke-width="1"/>
<line x1="0" y1="80.0" x2="80.0" y2="400" stroke="red" stroke-width="1"/>
<line x1="0" y1="88.0" x2="88.0" y2="400" stroke="red" stroke-width="1"/>
<line x1="0" y1="96.0" x2="96.0" y2="400" stroke="red" stroke-width="1"/>
<line x1="0" y1="104.0" x2="104.0" y2="400" stroke="red" stroke-width="1"/>
<line x1="0" y1="112.0" x2="112.0" y2="400" stroke="red" stroke-width="1"/>
<line x1="0" y1="120.0" x2="120.0" y2="400" stroke="red" stroke-width="1"/>
<line x1="0" y1="128.0" x2="128.0" y2="400" stroke="red" stroke-width="1"/>
<line x1="0" y1="136.0" x2="136.0" y2="400" stroke="red" stroke-width="1"/>
<line x1="0" y1="144.0" x2="144.0" y2="400" stroke="red" stroke-width="1"/>
<line x1="0" y1="152.0" x2="152.0" y2="400" stroke="red" stroke-width="1"/>
<line x1="0" y1="160.0" x2="160.0" y2="400" stroke="red" stroke-width="1"/>
<line x1="0" y1="168.0" x2="168.0" y2="400" stroke="red" stroke-width="1"/>
<line x1="0" y1="176.0" x2="176.0" y2="400" stroke="red" stroke-width="1"/>
<line x1="0" y1="184.0" x2="184.0" y2="400" stroke="red" stroke-width="1"/>
<line x1="0" y1="192.0" x2="192.0" y2="400" stroke="red" stroke-width="1"/>
<line x1="0" y1="200.0" x2="200.0" y2="400" stroke="red" stroke-width="1"/>
<line x1="0" y1="208.0" x2="208.0" y2="400" stroke="red" stroke-width="1"/>
<line x1="0" y1="216.0" x2="216.0" y2="400" stroke="red" stroke-width="1"/>
<line x1="0" y1="224.0" x2="224.0" y2="400" stroke="red" stroke-width="1"/>
<line x1="0" y1="232.0" x2="232.0" y2="400" stroke="red" stroke-width="1"/>
<line x1="0" y1="240.0" x2="240.0" y2="400" stroke="red" stroke-width="1"/>
<line x1="0" y1="248.0" x2="248.0" y2="400" stroke="red" stroke-width="1"/>
<line x1="0" y1="256.0" x2="256.0" y2="400" stroke="red" stroke-width="1"/>
<line x1="0" y1="264.0" x2="264.0" y2="400" stroke="red" stroke-width="1"/>
<line x1="0" y1="272.0" x2="272.0" y2="400" stroke="red" stroke-width="1"/>
<line x1="0" y1="280.0" x2="280.0" y2="400" stroke="red" stroke-width="1"/>
<line x1="0" y1="288.0" x2="288.0" y2="400" stroke="red" stroke-width="1"/>
<line x1="0" y1="296.0" x2="296.0" y2="400" stroke="red" stroke-width="1"/>
<line x1="0" y1="304.0" x2="304.0" y2="400" stroke="red" stroke-width="1"/>
<line x1="0" y1="312.0" x2="312.0" y2="400" stroke="red" stroke-width="1"/>
<line x1="0" y1="320.0" x2="320.0" y2="400" stroke="red" stroke-width="1"/>
<line x1="0" y1="328.0" x2="328.0" y2="400" stroke="red" stroke-width="1"/>
<line x1="0" y1="336.0" x2="336.0" y2="400" stroke="red" stroke-width="1"/>
<line x1="0" y1="344.0" x2="344.0" y2="400" stroke="red" stroke-width="1"/>
<line x1="0" y1="352.0" x2="352.0" y2="400" stroke="red" stroke-width="1"/>
<line x1="0" y1="360.0" x2="360.0" y2="400" stroke="red" stroke-width="1"/>
<line x1="0" y1="368.0" x2="368.0" y2="400" stroke="red" stroke-width="1"/>
<line x1="0" y1="376.0" x2="376.0" y2="400" stroke="red" stroke-width="1"/>
<line x1="0" y1="384.0" x2="384.0" y2="400" stroke="red" stroke-width="1"/>
<line x1="0" y1="392.0" x2="392.0" y2="400" stroke="red" stroke-width="1"/>
</svg>
