<svg width="200" height="200" xmlns="http://www.w3.org/2000/svg">
<line x1="200" y1="100" x2="100" y2="100" stroke="black" stroke-width="1"/>
<line x1="180.0" y1="100" x2="100" y2="120.0" stroke="black" stroke-width="1"/>
<line x1="160.0" y1="100" x2="100" y2="140.0" stroke="black" stroke-width="1"/>
<line x1="140.0" y1="100" x2="100" y2="160.0" stroke="black" stroke-width="1"/>
<line x1="120.0" y1="100" x2="100" y2="180.0" stroke="black" stroke-width="1"/>
<line x1="100" y1="200" x2="100" y2="100" stroke="black" stroke-width="1"/>
<line x1="100" y1="180.0" x2="80.0" y2="100" stroke="black" stroke-width="1"/>
<line x1="100" y1="160.0" x2="60.0" y2="100" stroke="black" stroke-width="1"/>
<line x1="100" y1="140.0" x2="40.0" y2="100" stroke="black" stroke-width="1"/>
<line x1="100" y1="120.0" x2="20.0" y2="100" stroke="black" stroke-width="1"/>
<line x1="0" y1="100" x2="100" y2="100" stroke="black" stroke-width="1"/>
<line x1="20.0" y1="100" x2="100" y2="80.0" stroke="black" stroke-width="1"/>
<line x1="40.0" y1="100" x2="100" y2="60.0" stroke="black" stroke-width="1"/>
<line x1="60.0" y1="100" x2="100" y2="40.0" stroke="black" stroke-width="1"/>
<line x1="80.0" y1="100" x2="100" y2="20.0" stroke="black" stroke-width="1"/>
<line x1="100" y1="0" x2="100" y2="100" stroke="black" stroke-width="1"/>
<line x1="100" y1="20.0" x2="120.0" y2="100" stroke="black" stroke-width="1"/>
<line x1="100" y1="40.0" x2="140.0" y2="100" stroke="black" stroke-width="1"/>
<line x1="100" y1="60.0" x2="160.0" y2="100" stroke="black" stroke-width="1"/>
<line x1="100" y1="80.0" x2="180.0" y2="100" stroke="black" stroke-width="1"/>
</svg>
