<svg width="400" height="400" xmlns="http://www.w3.org/2000/svg">
<line x1="350" y1="200" x2="200" y2="200" stroke="black" stroke-width="1"/>
<line x1="347.0" y1="200" x2="200" y2="203.0" stroke="black" stroke-width="1"/>
<line x1="344.0" y1="200" x2="200" y2="206.0" stroke="black" stroke-width="1"/>
<line x1="341.0" y1="200" x2="200" y2="209.0" stroke="black" stroke-width="1"/>
<line x1="338.0" y1="200" x2="200" y2="212.0" stroke="black" stroke-width="1"/>
<line x1="335.0" y1="200" x2="200" y2="215.0" stroke="black" stroke-width="1"/>
<line x1="332.0" y1="200" x2="200" y2="218.0" stroke="black" stroke-width="1"/>
<line x1="329.0" y1="200" x2="200" y2="221.0" stroke="black" stroke-width="1"/>
<line x1="326.0" y1="200" x2="200" y2="224.0" stroke="black" stroke-width="1"/>
<line x1="323.0" y1="200" x2="200" y2="227.0" stroke="black" stroke-width="1"/>
<line x1="320.0" y1="200" x2="200" y2="230.0" stroke="black" stroke-width="1"/>
<line x1="317.0" y1="200" x2="200" y2="233.0" stroke="black" stroke-width="1"/>
<line x1="314.0" y1="200" x2="200" y2="236.0" stroke="black" stroke-width="1"/>
<line x1="311.0" y1="200" x2="200" y2="239.0" stroke="black" stroke-width="1"/>
<line x1="308.0" y1="200" x2="200" y2="242.0" stroke="black" stroke-width="1"/>
<line x1="305.0" y1="200" x2="200" y2="245.0" stroke="black" stroke-width="1"/>
<line x1="302.0" y1="200" x2="200" y2="248.0" stroke="black" stroke-width="1"/>
<line x1="299.0" y1="200" x2="200" y2="251.0" stroke="black" stroke-width="1"/>
<line x1="296.0" y1="200" x2="200" y2="254.0" stroke="black" stroke-width="1"/>
<line x1="293.0" y1="200" x2="200" y2="257.0" stroke="black" stroke-width="1"/>
<line x1="290.0" y1="200" x2="200" y2="260.0" stroke="black" stroke-width="1"/>
<line x1="287.0" y1="200" x2="200" y2="263.0" stroke="black" stroke-width="1"/>
<line x1="284.0" y1="200" x2="200" y2="266.0" stroke="black" stroke-width="1"/>
<line x1="281.0" y1="200" x2="200" y2="269.0" stroke="black" stroke-width="1"/>
<line x1="278.0" y1="200" x2="200" y2="272.0" stroke="black" stroke-width="1"/>
<line x1="275.0" y1="200" x2="200" y2="275.0" stroke="black" stroke-width="1"/>
<line x1="272.0" y1="200" x2="200" y2="278.0" stroke="black" stroke-width="1"/>
<line x1="269.0" y1="200" x2="200" y2="281.0" stroke="black" stroke-width="1"/>
<line x1="266.0" y1="200" x2="200" y2="284.0" stroke="black" stroke-width="1"/>
<line x1="263.0" y1="200" x2="200" y2="287.0" stroke="black" stroke-width="1"/>
<line x1="260.0" y1="200" x2="200" y2="290.0" stroke="black" stroke-width="1"/>
<line x1="257.0" y1="200" x2="200" y2="293.0" stroke="black" stroke-width="1"/>
<line x1="254.0" y1="200" x2="200" y2="296.0" stroke="black" stroke-width="1"/>
<line x1="251.0" y1="200" x2="200" y2="299.0" stroke="black" stroke-width="1"/>
<line x1="248.0" y1="200" x2="200" y2="302.0" stroke="black" stroke-width="1"/>
<line x1="245.0" y1="200" x2="200" y2="305.0" stroke="black" stroke-width="1"/>
<line x1="242.0" y1="200" x2="200" y2="308.0" stroke="black" stroke-width="1"/>
<line x1="239.0" y1="200" x2="200" y2="311.0" stroke="black" stroke-width="1"/>
<line x1="236.0" y1="200" x2="200" y2="314.0" stroke="black" stroke-width="1"/>
<line x1="233.0" y1="200" x2="200" y2="317.0" stroke="black" stroke-width="1"/>
<line x1="230.0" y1="200" x2="200" y2="320.0" stroke="black" stroke-width="1"/>
<line x1="227.0" y1="200" x2="200" y2="323.0" stroke="black" stroke-width="1"/>
<line x1="224.0" y1="200" x2="200" y2="326.0" stroke="black" stroke-width="1"/>
<line x1="221.0" y1="200" x2="200" y2="329.0" stroke="black" stroke-width="1"/>
<line x1="218.0" y1="200" x2="200" y2="332.0" stroke="black" stroke-width="1"/>
<line x1="215.0" y1="200" x2="200" y2="335.0" stroke="black" stroke-width="1"/>
<line x1="212.0" y1="200" x2="200" y2="338.0" stroke="black" stroke-width="1"/>
<line x1="209.0" y1="200" x2="200" y2="341.0" stroke="black" stroke-width="1"/>
<line x1="206.0" y1="200" x2="200" y2="344.0" stroke="black" stroke-width="1"/>
<line x1="203.0" y1="200" x2="200" y2="347.0" stroke="black" stroke-width="1"/>
<line x1="200" y1="350" x2="200" y2="200" stroke="black" stroke-width="1"/>
<line x1="200" y1="347.0" x2="197.0" y2="200" stroke="black" stroke-width="1"/>
<line x1="200" y1="344.0" x2="194.0" y2="200" stroke="black" stroke-width="1"/>
<line x1="200" y1="341.0" x2="191.0" y2="200" stroke="black" stroke-width="1"/>
<line x1="200" y1="338.0" x2="188.0" y2="200" stroke="black" stroke-width="1"/>
<line x1="200" y1="335.0" x2="185.0" y2="200" stroke="black" stroke-width="1"/>
<line x1="200" y1="332.0" x2="182.0" y2="200" stroke="black" stroke-width="1"/>
<line x1="200" y1="329.0" x2="179.0" y2="200" stroke="black" stroke-width="1"/>
<line x1="200" y1="326.0" x2="176.0" y2="200" stroke="black" stroke-width="1"/>
<line x1="200" y1="323.0" x2="173.0" y2="200" stroke="black" stroke-width="1"/>
<line x1="200" y1="320.0" x2="170.0" y2="200" stroke="black" stroke-width="1"/>
<line x1="200" y1="317.0" x2="167.0" y2="200" stroke="black" stroke-width="1"/>
<line x1="200" y1="314.0" x2="164.0" y2="200" stroke="black" stroke-width="1"/>
<line x1="200" y1="311.0" x2="161.0" y2="200" stroke="black" stroke-width="1"/>
<line x1="200" y1="308.0" x2="158.0" y2="200" stroke="black" stroke-width="1"/>
<line x1="200" y1="305.0" x2="155.0" y2="200" stroke="black" stroke-width="1"/>
<line x1="200" y1="302.0" x2="152.0" y2="200" stroke="black" stroke-width="1"/>
<line x1="200" y1="299.0" x2="149.0" y2="200" stroke="black" stroke-width="1"/>
<line x1="200" y1="296.0" x2="146.0" y2="200" stroke="black" stroke-width="1"/>
<line x1="200" y1="293.0" x2="143.0" y2="200" stroke="black" stroke-width="1"/>
<line x1="200" y1="290.0" x2="140.0" y2="200" stroke="black" stroke-width="1"/>
<line x1="200" y1="287.0" x2="137.0" y2="200" stroke="black" stroke-width="1"/>
<line x1="200" y1="284.0" x2="134.0" y2="200" stroke="black" stroke-width="1"/>
<line x1="200" y1="281.0" x2="131.0" y2="200" stroke="black" stroke-width="1"/>
<line x1="200" y1="278.0" x2="128.0" y2="200" stroke="black" stroke-width="1"/>
<line x1="200" y1="275.0" x2="125.0" y2="200" stroke="black" stroke-width="1"/>
<line x1="200" y1="272.0" x2="122.0" y2="200" stroke="black" stroke-width="1"/>
<line x1="200" y1="269.0" x2="119.0" y2="200" stroke="black" stroke-width="1"/>
<line x1="200" y1="266.0" x2="116.0" y2="200" stroke="black" stroke-width="1"/>
<line x1="200" y1="263.0" x2="113.0" y2="200" stroke="black" stroke-width="1"/>
<line x1="200" y1="260.0" x2="110.0" y2="200" stroke="black" stroke-width="1"/>
<line x1="200" y1="257.0" x2="107.0" y2="200" stroke="black" stroke-width="1"/>
<line x1="200" y1="254.0" x2="104.0" y2="200" stroke="black" stroke-width="1"/>
<line x1="200" y1="251.0" x2="101.0" y2="200" stroke="black" stroke-width="1"/>
<line x1="200" y1="248.0" x2="98.0" y2="200" stroke="black" stroke-width="1"/>
<line x1="200" y1="245.0" x2="95.0" y2="200" stroke="black" stroke-width="1"/>
<line x1="200" y1="242.0" x2="92.0" y2="200" stroke="black" stroke-width="1"/>
<line x1="200" y1="239.0" x2="89.0" y2="200" stroke="black" stroke-width="1"/>
<line x1="200" y1="236.0" x2="86.0" y2="200" stroke="black" stroke-width="1"/>
<line x1="200" y1="233.0" x2="83.0" y2="200" stroke="black" stroke-width="1"/>
<line x1="200" y1="230.0" x2="80.0" y2="200" stroke="black" stroke-width="1"/>
<line x1="200" y1="227.0" x2="77.0" y2="200" stroke="black" stroke-width="1"/>
<line x1="200" y1="224.0" x2="74.0" y2="200" stroke="black" stroke-width="1"/>
<line x1="200" y1="221.0" x2="71.0" y2="200" stroke="black" stroke-width="1"/>
<line x1="200" y1="218.0" x2="68.0" y2="200" stroke="black" stroke-width="1"/>
<line x1="200" y1="215.0" x2="65.0" y2="200" stroke="black" stroke-width="1"/>
<line x1="200" y1="212.0" x2="62.0" y2="200" stroke="black" stroke-width="1"/>
<line x1="200" y1="209.0" x2="59.0" y2="200" stroke="black" stroke-width="1"/>
<line x1="200" y1="206.0" x2="56.0" y2="200" stroke="black" stroke-width="1"/>
<line x1="200" y1="203.0" x2="53.0" y2="200" stroke="black" stroke-width="1"/>
<line x1="50" y1="200" x2="200" y2="200" stroke="black" stroke-width="1"/>
<line x1="53.0" y1="200" x2="200" y2="197.0" stroke="black" stroke-width="1"/>
<line x1="56.0" y1="200" x2="200" y2="194.0" stroke="black" stroke-width="1"/>
<line x1="59.0" y1="200" x2="200" y2="191.0" stroke="black" stroke-width="1"/>
<line x1="62.0" y1="200" x2="200" y2="188.0" stroke="black" stroke-width="1"/>
<line x1="65.0" y1="200" x2="200" y2="185.0" stroke="black" stroke-width="1"/>
<line x1="68.0" y1="200" x2="200" y2="182.0" stroke="black" stroke-width="1"/>
<line x1="71.0" y1="200" x2="200" y2="179.0" stroke="black" stroke-width="1"/>
<line x1="74.0" y1="200" x2="200" y2="176.0" stroke="black" stroke-width="1"/>
<line x1="77.0" y1="200" x2="200" y2="173.0" stroke="black" stroke-width="1"/>
<line x1="80.0" y1="200" x2="200" y2="170.0" stroke="black" stroke-width="1"/>
<line x1="83.0" y1="200" x2="200" y2="167.0" stroke="black" stroke-width="1"/>
<line x1="86.0" y1="200" x2="200" y2="164.0" stroke="black" stroke-width="1"/>
<line x1="89.0" y1="200" x2="200" y2="161.0" stroke="black" stroke-width="1"/>
<line x1="92.0" y1="200" x2="200" y2="158.0" stroke="black" stroke-width="1"/>
<line x1="95.0" y1="200" x2="200" y2="155.0" stroke="black" stroke-width="1"/>
<line x1="98.0" y1="200" x2="200" y2="152.0" stroke="black" stroke-width="1"/>
<line x1="101.0" y1="200" x2="200" y2="149.0" stroke="black" stroke-width="1"/>
<line x1="104.0" y1="200" x2="200" y2="146.0" stroke="black" stroke-width="1"/>
<line x1="107.0" y1="200" x2="200" y2="143.0" stroke="black" stroke-width="1"/>
<line x1="110.0" y1="200" x2="200" y2="140.0" stroke="black" stroke-width="1"/>
<line x1="113.0" y1="200" x2="200" y2="137.0" stroke="black" stroke-width="1"/>
<line x1="116.0" y1="200" x2="200" y2="134.0" stroke="black" stroke-width="1"/>
<line x1="119.0" y1="200" x2="200" y2="131.0" stroke="black" stroke-width="1"/>
<line x1="122.0" y1="200" x2="200" y2="128.0" stroke="black" stroke-width="1"/>
<line x1="125.0" y1="200" x2="200" y2="125.0" stroke="black" stroke-width="1"/>
<line x1="128.0" y1="200" x2="200" y2="122.0" stroke="black" stroke-width="1"/>
<line x1="131.0" y1="200" x2="200" y2="119.0" stroke="black" stroke-width="1"/>
<line x1="134.0" y1="200" x2="200" y2="116.0" stroke="black" stroke-width="1"/>
<line x1="137.0" y1="200" x2="200" y2="113.0" stroke="black" stroke-width="1"/>
<line x1="140.0" y1="200" x2="200" y2="110.0" stroke="black" stroke-width="1"/>
<line x1="143.0" y1="200" x2="200" y2="107.0" stroke="black" stroke-width="1"/>
<line x1="146.0" y1="200" x2="200" y2="104.0" stroke="black" stroke-width="1"/>
<line x1="149.0" y1="200" x2="200" y2="101.0" stroke="black" stroke-width="1"/>
<line x1="152.0" y1="200" x2="200" y2="98.0" stroke="black" stroke-width="1"/>
<line x1="155.0" y1="200" x2="200" y2="95.0" stroke="black" stroke-width="1"/>
<line x1="158.0" y1="200" x2="200" y2="92.0" stroke="black" stroke-width="1"/>
<line x1="161.0" y1="200" x2="200" y2="89.0" stroke="black" stroke-width="1"/>
<line x1="164.0" y1="200" x2="200" y2="86.0" stroke="black" stroke-width="1"/>
<line x1="167.0" y1="200" x2="200" y2="83.0" stroke="black" stroke-width="1"/>
<line x1="170.0" y1="200" x2="200" y2="80.0" stroke="black" stroke-width="1"/>
<line x1="173.0" y1="200" x2="200" y2="77.0" stroke="black" stroke-width="1"/>
<line x1="176.0" y1="200" x2="200" y2="74.0" stroke="black" stroke-width="1"/>
<line x1="179.0" y1="200" x2="200" y2="71.0" stroke="black" stroke-width="1"/>
<line x1="182.0" y1="200" x2="200" y2="68.0" stroke="black" stroke-width="1"/>
<line x1="185.0" y1="200" x2="200" y2="65.0" stroke="black" stroke-width="1"/>
<line x1="188.0" y1="200" x2="200" y2="62.0" stroke="black" stroke-width="1"/>
<line x1="191.0" y1="200" x2="200" y2="59.0" stroke="black" stroke-width="1"/>
<line x1="194.0" y1="200" x2="200" y2="56.0" stroke="black" stroke-width="1"/>
<line x1="197.0" y1="200" x2="200" y2="53.0" stroke="black" stroke-width="1"/>
<line x1="200" y1="50" x2="200" y2="200" stroke="black" stroke-width="1"/>
<line x1="200" y1="53.0" x2="203.0" y2="200" stroke="black" stroke-width="1"/>
<line x1="200" y1="56.0" x2="206.0" y2="200" stroke="black" stroke-width="1"/>
<line x1="200" y1="59.0" x2="209.0" y2="200" stroke="black" stroke-width="1"/>
<line x1="200" y1="62.0" x2="212.0" y2="200" stroke="black" stroke-width="1"/>
<line x1="200" y1="65.0" x2="215.0" y2="200" stroke="black" stroke-width="1"/>
<line x1="200" y1="68.0" x2="218.0" y2="200" stroke="black" stroke-width="1"/>
<line x1="200" y1="71.0" x2="221.0" y2="200" stroke="black" stroke-width="1"/>
<line x1="200" y1="74.0" x2="224.0" y2="200" stroke="black" stroke-width="1"/>
<line x1="200" y1="77.0" x2="227.0" y2="200" stroke="black" stroke-width="1"/>
<line x1="200" y1="80.0" x2="230.0" y2="200" stroke="black" stroke-width="1"/>
<line x1="200" y1="83.0" x2="233.0" y2="200" stroke="black" stroke-width="1"/>
<line x1="200" y1="86.0" x2="236.0" y2="200" stroke="black" stroke-width="1"/>
<line x1="200" y1="89.0" x2="239.0" y2="200" stroke="black" stroke-width="1"/>
<line x1="200" y1="92.0" x2="242.0" y2="200" stroke="black" stroke-width="1"/>
<line x1="200" y1="95.0" x2="245.0" y2="200" stroke="black" stroke-width="1"/>
<line x1="200" y1="98.0" x2="248.0" y2="200" stroke="black" stroke-width="1"/>
<line x1="200" y1="101.0" x2="251.0" y2="200" stroke="black" stroke-width="1"/>
<line x1="200" y1="104.0" x2="254.0" y2="200" stroke="black" stroke-width="1"/>
<line x1="200" y1="107.0" x2="257.0" y2="200" stroke="black" stroke-width="1"/>
<line x1="200" y1="110.0" x2="260.0" y2="200" stroke="black" stroke-width="1"/>
<line x1="200" y1="113.0" x2="263.0" y2="200" stroke="black" stroke-width="1"/>
<line x1="200" y1="116.0" x2="266.0" y2="200" stroke="black" stroke-width="1"/>
<line x1="200" y1="119.0" x2="269.0" y2="200" stroke="black" stroke-width="1"/>
<line x1="200" y1="122.0" x2="272.0" y2="200" stroke="black" stroke-width="1"/>
<line x1="200" y1="125.0" x2="275.0" y2="200" stroke="black" stroke-width="1"/>
<line x1="200" y1="128.0" x2="278.0" y2="200" stroke="black" stroke-width="1"/>
<line x1="200" y1="131.0" x2="281.0" y2="200" stroke="black" stroke-width="1"/>
<line x1="200" y1="134.0" x2="284.0" y2="200" stroke="black" stroke-width="1"/>
<line x1="200" y1="137.0" x2="287.0" y2="200" stroke="black" stroke-width="1"/>
<line x1="200" y1="140.0" x2="290.0" y2="200" stroke="black" stroke-width="1"/>
<line x1="200" y1="143.0" x2="293.0" y2="200" stroke="black" stroke-width="1"/>
<line x1="200" y1="146.0" x2="296.0" y2="200" stroke="black" stroke-width="1"/>
<line x1="200" y1="149.0" x2="299.0" y2="200" stroke="black" stroke-width="1"/>
<line x1="200" y1="152.0" x2="302.0" y2="200" stroke="black" stroke-width="1"/>
<line x1="200" y1="155.0" x2="305.0" y2="200" stroke="black" stroke-width="1"/>
<line x1="200" y1="158.0" x2="308.0" y2="200" stroke="black" stroke-width="1"/>
<line x1="200" y1="161.0" x2="311.0" y2="200" stroke="black" stroke-width="1"/>
<line x1="200" y1="164.0" x2="314.0" y2="200" stroke="black" stroke-width="1"/>
<line x1="200" y1="167.0" x2="317.0" y2="200" stroke="black" stroke-width="1"/>
<line x1="200" y1="170.0" x2="320.0" y2="200" stroke="black" stroke-width="1"/>
<line x1="200" y1="173.0" x2="323.0" y2="200" stroke="black" stroke-width="1"/>
<line x1="200" y1="176.0" x2="326.0" y2="200" stroke="black" stroke-width="1"/>
<line x1="200" y1="179.0" x2="329.0" y2="200" stroke="black" stroke-width="1"/>
<line x1="200" y1="182.0" x2="332.0" y2="200" stroke="black" stroke-width="1"/>
<line x1="200" y1="185.0" x2="335.0" y2="200" stroke="black" stroke-width="1"/>
<line x1="200" y1="188.0" x2="338.0" y2="200" stroke="black" stroke-width="1"/>
<line x1="200" y1="191.0" x2="341.0" y2="200" stroke="black" stroke-width="1"/>
<line x1="200" y1="194.0" x2="344.0" y2="200" stroke="black" stroke-width="1"/>
<line x1="200" y1="197.0" x2="347.0" y2="200" stroke="black" stroke-width="1"/>
</svg>
