<svg width="200" height="200" xmlns="http://www.w3.org/2000/svg">
<line x1="50.0" y1="50.0" x2="150.0" y2="50.0" stroke="black" stroke-width="1"/>
<line x1="150.0" y1="50.0" x2="150.0" y2="150.0" stroke="black" stroke-width="1"/>
<line x1="150.0" y1="150.0" x2="50.0" y2="150.0" stroke="black" stroke-width="1"/>
<line x1="50.0" y1="150.0" x2="50.0" y2="50.0" stroke="black" stroke-width="1"/>
<line x1="75.0" y1="50.0" x2="150.0" y2="75.0" stroke="black" stroke-width="1"/>
<line x1="150.0" y1="75.0" x2="125.0" y2="150.0" stroke="black" stroke-width="1"/>
<line x1="125.0" y1="150.0" x2="50.0" y2="125.0" stroke="black" stroke-width="1"/>
<line x1="50.0" y1="125.0" x2="75.0" y2="50.0" stroke="black" stroke-width="1"/>
<line x1="93.75" y1="56.25" x2="143.75" y2="93.75" stroke="black" stroke-width="1"/>
<line x1="143.75" y1="93.75" x2="106.25" y2="143.75" stroke="black" stroke-width="1"/>
<line x1="106.25" y1="143.75" x2="56.25" y2="106.25" stroke="black" stroke-width="1"/>
<line x1="56.25" y1="106.25" x2="93.75" y2="56.25" stroke="black" stroke-width="1"/>
<line x1="106.25" y1="65.625" x2="134.375" y2="106.25" stroke="black" stroke-width="1"/>
<line x1="134.375" y1="106.25" x2="93.75" y2="134.375" stroke="black" stroke-width="1"/>
<line x1="93.75" y1="134.375" x2="65.625" y2="93.75" stroke="black" stroke-width="1"/>
<line x1="65.625" y1="93.75" x2="106.25" y2="65.625" stroke="black" stroke-width="1"/>
<line x1="113.28125" y1="75.78125" x2="124.21875" y2="113.28125" stroke="black" stroke-width="1"/>
<line x1="124.21875" y1="113.28125" x2="86.71875" y2="124.21875" stroke="black" stroke-width="1"/>
<line x1="86.71875" y1="124.21875" x2="75.78125" y2="86.71875" stroke="black" stroke-width="1"/>
<line x1="75.78125" y1="86.71875" x2="113.28125" y2="75.78125" stroke="black" stroke-width="1"/>
<line x1="116.015625" y1="85.15625" x2="114.84375" y2="116.015625" stroke="black" stroke-width="1"/>
<line x1="114.84375" y1="116.015625" x2="83.984375" y2="114.84375" stroke="black" stroke-width="1"/>
<line x1="83.984375" y1="114.84375" x2="85.15625" y2="83.984375" stroke="black" stroke-width="1"/>
<line x1="85.15625" y1="83.984375" x2="116.015625" y2="85.15625" stroke="black" stroke-width="1"/>
<line x1="115.72265625" y1="92.87109375" x2="107.12890625" y2="115.72265625" stroke="black" stroke-width="1"/>
<line x1="107.12890625" y1="115.72265625" x2="84.27734375" y2="107.12890625" stroke="black" stroke-width="1"/>
<line x1="84.27734375" y1="107.12890625" x2="92.87109375" y2="84.27734375" stroke="black" stroke-width="1"/>
<line x1="92.87109375" y1="84.27734375" x2="115.72265625" y2="92.87109375" stroke="black" stroke-width="1"/>
<line x1="113.57421875" y1="98.583984375" x2="101.416015625" y2="113.57421875" stroke="black" stroke-width="1"/>
<line x1="101.416015625" y1="113.57421875" x2="86.42578125" y2="101.416015625" stroke="black" stroke-width="1"/>
<line x1="86.42578125" y1="101.416015625" x2="98.583984375" y2="86.42578125" stroke="black" stroke-width="1"/>
<line x1="98.583984375" y1="86.42578125" x2="113.57421875" y2="98.583984375" stroke="black" stroke-width="1"/>
<line x1="110.53466796875" y1="102.33154296875" x2="97.66845703125" y2="110.53466796875" stroke="black" stroke-width="1"/>
<line x1="97.66845703125" y1="110.53466796875" x2="89.46533203125" y2="97.66845703125" stroke="black" stroke-width="1"/>
<line x1="89.46533203125" y1="97.66845703125" x2="102.33154296875" y2="89.46533203125" stroke="black" stroke-width="1"/>
<line x1="102.33154296875" y1="89.46533203125" x2="110.53466796875" y2="102.33154296875" stroke="black" stroke-width="1"/>
<line x1="107.318115234375" y1="104.38232421875" x2="95.61767578125" y2="107.318115234375" stroke="black" stroke-width="1"/>
<line x1="95.61767578125" y1="107.318115234375" x2="92.681884765625" y2="95.61767578125" stroke="black" stroke-width="1"/>
<line x1="92.681884765625" y1="95.61767578125" x2="104.38232421875" y2="92.681884765625" stroke="black" stroke-width="1"/>
<line x1="104.38232421875" y1="92.681884765625" x2="107.318115234375" y2="104.38232421875" stroke="black" stroke-width="1"/>
<line x1="104.39300537109375" y1="105.11627197265625" x2="94.88372802734375" y2="104.39300537109375" stroke="black" stroke-width="1"/>
<line x1="94.88372802734375" y1="104.39300537109375" x2="95.60699462890625" y2="94.88372802734375" stroke="black" stroke-width="1"/>
<line x1="95.60699462890625" y1="94.88372802734375" x2="105.11627197265625" y2="95.60699462890625" stroke="black" stroke-width="1"/>
<line x1="105.11627197265625" y1="95.60699462890625" x2="104.39300537109375" y2="105.11627197265625" stroke="black" stroke-width="1"/>
<line x1="102.01568603515625" y1="104.93545532226562" x2="95.06454467773438" y2="102.01568603515625" stroke="black" stroke-width="1"/>
<line x1="95.06454467773438" y1="102.01568603515625" x2="97.98431396484375" y2="95.06454467773438" stroke="black" stroke-width="1"/>
<line x1="97.98431396484375" y1="95.06454467773438" x2="104.93545532226562" y2="97.98431396484375" stroke="black" stroke-width="1"/>
<line x1="104.93545532226562" y1="97.98431396484375" x2="102.01568603515625" y2="104.93545532226562" stroke="black" stroke-width="1"/>
<line x1="100.27790069580078" y1="104.20551300048828" x2="95.79448699951172" y2="100.27790069580078" stroke="black" stroke-width="1"/>
<line x1="95.79448699951172" y1="100.27790069580078" x2="99.72209930419922" y2="95.79448699951172" stroke="black" stroke-width="1"/>
<line x1="99.72209930419922" y1="95.79448699951172" x2="104.20551300048828" y2="99.72209930419922" stroke="black" stroke-width="1"/>
<line x1="104.20551300048828" y1="99.72209930419922" x2="100.27790069580078" y2="104.20551300048828" stroke="black" stroke-width="1"/>
<line x1="99.15704727172852" y1="103.2236099243164" x2="96.7763900756836" y2="99.15704727172852" stroke="black" stroke-width="1"/>
<line x1="96.7763900756836" y1="99.15704727172852" x2="100.84295272827148" y2="96.7763900756836" stroke="black" stroke-width="1"/>
<line x1="100.84295272827148" y1="96.7763900756836" x2="103.2236099243164" y2="100.84295272827148" stroke="black" stroke-width="1"/>
<line x1="103.2236099243164" y1="100.84295272827148" x2="99.15704727172852" y2="103.2236099243164" stroke="black" stroke-width="1"/>
<line x1="98.56188297271729" y1="102.20696926116943" x2="97.79303073883057" y2="98.56188297271729" stroke="black" stroke-width="1"/>
<line x1="97.79303073883057" y1="98.56188297271729" x2="101.43811702728271" y2="97.79303073883057" stroke="black" stroke-width="1"/>
<line x1="101.43811702728271" y1="97.79303073883057" x2="102.20696926116943" y2="101.43811702728271" stroke="black" stroke-width="1"/>
<line x1="102.20696926116943" y1="101.43811702728271" x2="98.56188297271729" y2="102.20696926116943" stroke="black" stroke-width="1"/>
<line x1="98.3696699142456" y1="101.2956976890564" x2="98.7043023109436" y2="98.3696699142456" stroke="black" stroke-width="1"/>
<line x1="98.7043023109436" y1="98.3696699142456" x2="101.6303300857544" y2="98.7043023109436" stroke="black" stroke-width="1"/>
<line x1="101.6303300857544" y1="98.7043023109436" x2="101.2956976890564" y2="101.6303300857544" stroke="black" stroke-width="1"/>
<line x1="101.2956976890564" y1="101.6303300857544" x2="98.3696699142456" y2="101.2956976890564" stroke="black" stroke-width="1"/>
<line x1="98.4533280134201" y1="100.5641907453537" x2="99.4358092546463" y2="98.4533280134201" stroke="black" stroke-width="1"/>
<line x1="99.4358092546463" y1="98.4533280134201" x2="101.5466719865799" y2="99.4358092546463" stroke="black" stroke-width="1"/>
<line x1="101.5466719865799" y1="99.4358092546463" x2="100.5641907453537" y2="101.5466719865799" stroke="black" stroke-width="1"/>
<line x1="100.5641907453537" y1="101.5466719865799" x2="98.4533280134201" y2="100.5641907453537" stroke="black" stroke-width="1"/>
<line x1="98.69894832372665" y1="100.0364750623703" x2="99.9635249376297" y2="98.69894832372665" stroke="black" stroke-width="1"/>
<line x1="99.9635249376297" y1="98.69894832372665" x2="101.30105167627335" y2="99.9635249376297" stroke="black" stroke-width="1"/>
<line x1="101.30105167627335" y1="99.9635249376297" x2="100.0364750623703" y2="101.30105167627335" stroke="black" stroke-width="1"/>
<line x1="100.0364750623703" y1="101.30105167627335" x2="98.69894832372665" y2="100.0364750623703" stroke="black" stroke-width="1"/>
<line x1="99.01509247720242" y1="99.70209337770939" x2="100.29790662229061" y2="99.01509247720242" stroke="black" stroke-width="1"/>
<line x1="100.29790662229061" y1="99.01509247720242" x2="100.98490752279758" y2="100.29790662229061" stroke="black" stroke-width="1"/>
<line x1="100.98490752279758" y1="100.29790662229061" x2="99.70209337770939" y2="100.98490752279758" stroke="black" stroke-width="1"/>
<line x1="99.70209337770939" y1="100.98490752279758" x2="99.01509247720242" y2="99.70209337770939" stroke="black" stroke-width="1"/>
<line x1="99.33579601347446" y1="99.53034315258265" x2="100.46965684741735" y2="99.33579601347446" stroke="black" stroke-width="1"/>
<line x1="100.46965684741735" y1="99.33579601347446" x2="100.66420398652554" y2="100.46965684741735" stroke="black" stroke-width="1"/>
<line x1="100.66420398652554" y1="100.46965684741735" x2="99.53034315258265" y2="100.66420398652554" stroke="black" stroke-width="1"/>
<line x1="99.53034315258265" y1="100.66420398652554" x2="99.33579601347446" y2="99.53034315258265" stroke="black" stroke-width="1"/>
</svg>
