<svg xmlns="http://www.w3.org/2000/svg">
<line x1="0" y1="0" x2="100" y2="0" stroke="black" stroke-width="1"/>
<line x1="100" y1="0" x2="100" y2="100" stroke="black" stroke-width="1"/>
<line x1="100" y1="100" x2="0" y2="100" stroke="black" stroke-width="1"/>
<line x1="0" y1="100" x2="0" y2="0" stroke="black" stroke-width="1"/>
<line x1="25.0" y1="0.0" x2="100.0" y2="25.0" stroke="black" stroke-width="1"/>
<line x1="100.0" y1="25.0" x2="75.0" y2="100.0" stroke="black" stroke-width="1"/>
<line x1="75.0" y1="100.0" x2="0.0" y2="75.0" stroke="black" stroke-width="1"/>
<line x1="0.0" y1="75.0" x2="25.0" y2="0.0" stroke="black" stroke-width="1"/>
<line x1="43.75" y1="6.25" x2="93.75" y2="43.75" stroke="black" stroke-width="1"/>
<line x1="93.75" y1="43.75" x2="56.25" y2="93.75" stroke="black" stroke-width="1"/>
<line x1="56.25" y1="93.75" x2="6.25" y2="56.25" stroke="black" stroke-width="1"/>
<line x1="6.25" y1="56.25" x2="43.75" y2="6.25" stroke="black" stroke-width="1"/>
<line x1="56.25" y1="15.625" x2="84.375" y2="56.25" stroke="black" stroke-width="1"/>
<line x1="84.375" y1="56.25" x2="43.75" y2="84.375" stroke="black" stroke-width="1"/>
<line x1="43.75" y1="84.375" x2="15.625" y2="43.75" stroke="black" stroke-width="1"/>
<line x1="15.625" y1="43.75" x2="56.25" y2="15.625" stroke="black" stroke-width="1"/>
<line x1="63.28125" y1="25.78125" x2="74.21875" y2="63.28125" stroke="black" stroke-width="1"/>
<line x1="74.21875" y1="63.28125" x2="36.71875" y2="74.21875" stroke="black" stroke-width="1"/>
<line x1="36.71875" y1="74.21875" x2="25.78125" y2="36.71875" stroke="black" stroke-width="1"/>
<line x1="25.78125" y1="36.71875" x2="63.28125" y2="25.78125" stroke="black" stroke-width="1"/>
<line x1="66.015625" y1="35.15625" x2="64.84375" y2="66.015625" stroke="black" stroke-width="1"/>
<line x1="64.84375" y1="66.015625" x2="33.984375" y2="64.84375" stroke="black" stroke-width="1"/>
<line x1="33.984375" y1="64.84375" x2="35.15625" y2="33.984375" stroke="black" stroke-width="1"/>
<line x1="35.15625" y1="33.984375" x2="66.015625" y2="35.15625" stroke="black" stroke-width="1"/>
<line x1="65.72265625" y1="42.87109375" x2="57.12890625" y2="65.72265625" stroke="black" stroke-width="1"/>
<line x1="57.12890625" y1="65.72265625" x2="34.27734375" y2="57.12890625" stroke="black" stroke-width="1"/>
<line x1="34.27734375" y1="57.12890625" x2="42.87109375" y2="34.27734375" stroke="black" stroke-width="1"/>
<line x1="42.87109375" y1="34.27734375" x2="65.72265625" y2="42.87109375" stroke="black" stroke-width="1"/>
<line x1="63.57421875" y1="48.583984375" x2="51.416015625" y2="63.57421875" stroke="black" stroke-width="1"/>
<line x1="51.416015625" y1="63.57421875" x2="36.42578125" y2="51.416015625" stroke="black" stroke-width="1"/>
<line x1="36.42578125" y1="51.416015625" x2="48.583984375" y2="36.42578125" stroke="black" stroke-width="1"/>
<line x1="48.583984375" y1="36.42578125" x2="63.57421875" y2="48.583984375" stroke="black" stroke-width="1"/>
<line x1="60.53466796875" y1="52.33154296875" x2="47.66845703125" y2="60.53466796875" stroke="black" stroke-width="1"/>
<line x1="47.66845703125" y1="60.53466796875" x2="39.46533203125" y2="47.66845703125" stroke="black" stroke-width="1"/>
<line x1="39.46533203125" y1="47.66845703125" x2="52.33154296875" y2="39.46533203125" stroke="black" stroke-width="1"/>
<line x1="52.33154296875" y1="39.46533203125" x2="60.53466796875" y2="52.33154296875" stroke="black" stroke-width="1"/>
<line x1="57.318115234375" y1="54.38232421875" x2="45.61767578125" y2="57.318115234375" stroke="black" stroke-width="1"/>
<line x1="45.61767578125" y1="57.318115234375" x2="42.681884765625" y2="45.61767578125" stroke="black" stroke-width="1"/>
<line x1="42.681884765625" y1="45.61767578125" x2="54.38232421875" y2="42.681884765625" stroke="black" stroke-width="1"/>
<line x1="54.38232421875" y1="42.681884765625" x2="57.318115234375" y2="54.38232421875" stroke="black" stroke-width="1"/>
<line x1="54.39300537109375" y1="55.11627197265625" x2="44.88372802734375" y2="54.39300537109375" stroke="black" stroke-width="1"/>
<line x1="44.88372802734375" y1="54.39300537109375" x2="45.60699462890625" y2="44.88372802734375" stroke="black" stroke-width="1"/>
<line x1="45.60699462890625" y1="44.88372802734375" x2="55.11627197265625" y2="45.60699462890625" stroke="black" stroke-width="1"/>
<line x1="55.11627197265625" y1="45.60699462890625" x2="54.39300537109375" y2="55.11627197265625" stroke="black" stroke-width="1"/>
<line x1="52.01568603515625" y1="54.935455322265625" x2="45.064544677734375" y2="52.01568603515625" stroke="black" stroke-width="1"/>
<line x1="45.064544677734375" y1="52.01568603515625" x2="47.98431396484375" y2="45.064544677734375" stroke="black" stroke-width="1"/>
<line x1="47.98431396484375" y1="45.064544677734375" x2="54.935455322265625" y2="47.98431396484375" stroke="black" stroke-width="1"/>
<line x1="54.935455322265625" y1="47.98431396484375" x2="52.01568603515625" y2="54.935455322265625" stroke="black" stroke-width="1"/>
<line x1="50.27790069580078" y1="54.20551300048828" x2="45.79448699951172" y2="50.27790069580078" stroke="black" stroke-width="1"/>
<line x1="45.79448699951172" y1="50.27790069580078" x2="49.72209930419922" y2="45.79448699951172" stroke="black" stroke-width="1"/>
<line x1="49.72209930419922" y1="45.79448699951172" x2="54.20551300048828" y2="49.72209930419922" stroke="black" stroke-width="1"/>
<line x1="54.20551300048828" y1="49.72209930419922" x2="50.27790069580078" y2="54.20551300048828" stroke="black" stroke-width="1"/>
<line x1="49.157047271728516" y1="53.223609924316406" x2="46.776390075683594" y2="49.157047271728516" stroke="black" stroke-width="1"/>
<line x1="46.776390075683594" y1="49.157047271728516" x2="50.842952728271484" y2="46.776390075683594" stroke="black" stroke-width="1"/>
<line x1="50.842952728271484" y1="46.776390075683594" x2="53.223609924316406" y2="50.842952728271484" stroke="black" stroke-width="1"/>
<line x1="53.223609924316406" y1="50.842952728271484" x2="49.157047271728516" y2="53.223609924316406" stroke="black" stroke-width="1"/>
<line x1="48.561882972717285" y1="52.206969261169434" x2="47.793030738830566" y2="48.561882972717285" stroke="black" stroke-width="1"/>
<line x1="47.793030738830566" y1="48.561882972717285" x2="51.438117027282715" y2="47.793030738830566" stroke="black" stroke-width="1"/>
<line x1="51.438117027282715" y1="47.793030738830566" x2="52.206969261169434" y2="51.438117027282715" stroke="black" stroke-width="1"/>
<line x1="52.206969261169434" y1="51.438117027282715" x2="48.561882972717285" y2="52.206969261169434" stroke="black" stroke-width="1"/>
<line x1="48.369669914245605" y1="51.2956976890564" x2="48.7043023109436" y2="48.369669914245605" stroke="black" stroke-width="1"/>
<line x1="48.7043023109436" y1="48.369669914245605" x2="51.630330085754395" y2="48.7043023109436" stroke="black" stroke-width="1"/>
<line x1="51.630330085754395" y1="48.7043023109436" x2="51.2956976890564" y2="51.630330085754395" stroke="black" stroke-width="1"/>
<line x1="51.2956976890564" y1="51.630330085754395" x2="48.369669914245605" y2="51.2956976890564" stroke="black" stroke-width="1"/>
<line x1="48.453328013420105" y1="50.5641907453537" x2="49.4358092546463" y2="48.453328013420105" stroke="black" stroke-width="1"/>
<line x1="49.4358092546463" y1="48.453328013420105" x2="51.546671986579895" y2="49.4358092546463" stroke="black" stroke-width="1"/>
<line x1="51.546671986579895" y1="49.4358092546463" x2="50.5641907453537" y2="51.546671986579895" stroke="black" stroke-width="1"/>
<line x1="50.5641907453537" y1="51.546671986579895" x2="48.453328013420105" y2="50.5641907453537" stroke="black" stroke-width="1"/>
<line x1="48.698948323726654" y1="50.0364750623703" x2="49.9635249376297" y2="48.698948323726654" stroke="black" stroke-width="1"/>
<line x1="49.9635249376297" y1="48.698948323726654" x2="51.301051676273346" y2="49.9635249376297" stroke="black" stroke-width="1"/>
<line x1="51.301051676273346" y1="49.9635249376297" x2="50.0364750623703" y2="51.301051676273346" stroke="black" stroke-width="1"/>
<line x1="50.0364750623703" y1="51.301051676273346" x2="48.698948323726654" y2="50.0364750623703" stroke="black" stroke-width="1"/>
<line x1="49.015092477202415" y1="49.70209337770939" x2="50.29790662229061" y2="49.015092477202415" stroke="black" stroke-width="1"/>
<line x1="50.29790662229061" y1="49.015092477202415" x2="50.984907522797585" y2="50.29790662229061" stroke="black" stroke-width="1"/>
<line x1="50.984907522797585" y1="50.29790662229061" x2="49.70209337770939" y2="50.984907522797585" stroke="black" stroke-width="1"/>
<line x1="49.70209337770939" y1="50.984907522797585" x2="49.015092477202415" y2="49.70209337770939" stroke="black" stroke-width="1"/>
<line x1="49.335796013474464" y1="49.530343152582645" x2="50.469656847417355" y2="49.335796013474464" stroke="black" stroke-width="1"/>
<line x1="50.469656847417355" y1="49.335796013474464" x2="50.664203986525536" y2="50.469656847417355" stroke="black" stroke-width="1"/>
<line x1="50.664203986525536" y1="50.469656847417355" x2="49.530343152582645" y2="50.664203986525536" stroke="black" stroke-width="1"/>
<line x1="49.530343152582645" y1="50.664203986525536" x2="49.335796013474464" y2="49.530343152582645" stroke="black" stroke-width="1"/>
</svg>
