<svg xmlns="http://www.w3.org/2000/svg">
<line x1="100" y1="100" x2="91.3397459621556" y2="115.0" stroke="black" stroke-width="1"/>
<line x1="91.3397459621556" y1="115.0" x2="108.66025403784438" y2="115.0" stroke="black" stroke-width="1"/>
<line x1="108.66025403784438" y1="115.0" x2="99.99999999999999" y2="100.0" stroke="black" stroke-width="1"/>
<line x1="99.99999999999999" y1="90.0" x2="82.67949192431121" y2="120.0" stroke="black" stroke-width="1"/>
<line x1="82.67949192431121" y1="120.0" x2="117.32050807568876" y2="120.0" stroke="black" stroke-width="1"/>
<line x1="117.32050807568876" y1="120.0" x2="99.99999999999997" y2="90.0" stroke="black" stroke-width="1"/>
<line x1="99.99999999999997" y1="80.0" x2="74.01923788646681" y2="125.0" stroke="black" stroke-width="1"/>
<line x1="74.01923788646681" y1="125.0" x2="125.98076211353313" y2="125.0" stroke="black" stroke-width="1"/>
<line x1="125.98076211353313" y1="125.0" x2="99.99999999999994" y2="80.00000000000001" stroke="black" stroke-width="1"/>
<line x1="99.99999999999994" y1="70.00000000000001" x2="65.35898384862239" y2="130.0" stroke="black" stroke-width="1"/>
<line x1="65.35898384862239" y1="130.0" x2="134.64101615137747" y2="130.0" stroke="black" stroke-width="1"/>
<line x1="134.64101615137747" y1="130.0" x2="99.99999999999991" y2="70.00000000000003" stroke="black" stroke-width="1"/>
<line x1="99.99999999999991" y1="60.00000000000003" x2="56.69872981077797" y2="135.00000000000003" stroke="black" stroke-width="1"/>
<line x1="56.69872981077797" y1="135.00000000000003" x2="143.30127018922184" y2="135.00000000000003" stroke="black" stroke-width="1"/>
<line x1="143.30127018922184" y1="135.00000000000003" x2="99.99999999999986" y2="60.00000000000005" stroke="black" stroke-width="1"/>
<line x1="99.99999999999986" y1="50.00000000000005" x2="48.03847577293353" y2="140.00000000000006" stroke="black" stroke-width="1"/>
<line x1="48.03847577293353" y1="140.00000000000006" x2="151.96152422706618" y2="140.00000000000006" stroke="black" stroke-width="1"/>
<line x1="151.96152422706618" y1="140.00000000000006" x2="99.9999999999998" y2="50.00000000000007" stroke="black" stroke-width="1"/>
<line x1="99.9999999999998" y1="40.00000000000007" x2="39.37822173508909" y2="145.00000000000006" stroke="black" stroke-width="1"/>
<line x1="39.37822173508909" y1="145.00000000000006" x2="160.6217782649105" y2="145.00000000000006" stroke="black" stroke-width="1"/>
<line x1="160.6217782649105" y1="145.00000000000006" x2="99.99999999999974" y2="40.00000000000009" stroke="black" stroke-width="1"/>
<line x1="99.99999999999974" y1="30.000000000000085" x2="30.71796769724463" y2="150.00000000000009" stroke="black" stroke-width="1"/>
<line x1="30.71796769724463" y1="150.00000000000009" x2="169.28203230275483" y2="150.00000000000009" stroke="black" stroke-width="1"/>
<line x1="169.28203230275483" y1="150.00000000000009" x2="99.99999999999967" y2="30.000000000000114" stroke="black" stroke-width="1"/>
<line x1="99.99999999999967" y1="20.000000000000114" x2="22.05771365940018" y2="155.0000000000001" stroke="black" stroke-width="1"/>
<line x1="22.05771365940018" y1="155.0000000000001" x2="177.94228634059914" y2="155.0000000000001" stroke="black" stroke-width="1"/>
<line x1="177.94228634059914" y1="155.0000000000001" x2="99.99999999999959" y2="20.000000000000142" stroke="black" stroke-width="1"/>
<line x1="99.99999999999959" y1="10.000000000000142" x2="13.397459621555711" y2="160.00000000000014" stroke="black" stroke-width="1"/>
<line x1="13.397459621555711" y1="160.00000000000014" x2="186.60254037844345" y2="160.00000000000014" stroke="black" stroke-width="1"/>
<line x1="186.60254037844345" y1="160.00000000000014" x2="99.9999999999995" y2="10.000000000000199" stroke="black" stroke-width="1"/>
</svg>
