<svg width="200" height="200" xmlns="http://www.w3.org/2000/svg">
<line x1="100" y1="100" x2="108.66025403784438" y2="115.0" stroke="black" stroke-width="1"/>
<line x1="108.66025403784438" y1="115.0" x2="91.3397459621556" y2="115.0" stroke="black" stroke-width="1"/>
<line x1="91.3397459621556" y1="115.0" x2="100.0" y2="100.0" stroke="black" stroke-width="1"/>
<line x1="100.0" y1="90.0" x2="117.32050807568876" y2="120.0" stroke="black" stroke-width="1"/>
<line x1="117.32050807568876" y1="120.0" x2="82.67949192431122" y2="120.00000000000001" stroke="black" stroke-width="1"/>
<line x1="82.67949192431122" y1="120.00000000000001" x2="99.99999999999999" y2="90.00000000000001" stroke="black" stroke-width="1"/>
<line x1="99.99999999999999" y1="80.00000000000001" x2="125.98076211353315" y2="125.00000000000001" stroke="black" stroke-width="1"/>
<line x1="125.98076211353315" y1="125.00000000000001" x2="74.01923788646683" y2="125.00000000000003" stroke="black" stroke-width="1"/>
<line x1="74.01923788646683" y1="125.00000000000003" x2="99.99999999999999" y2="80.00000000000003" stroke="black" stroke-width="1"/>
<line x1="99.99999999999999" y1="70.00000000000003" x2="134.64101615137753" y2="130.00000000000003" stroke="black" stroke-width="1"/>
<line x1="134.64101615137753" y1="130.00000000000003" x2="65.35898384862243" y2="130.00000000000006" stroke="black" stroke-width="1"/>
<line x1="65.35898384862243" y1="130.00000000000006" x2="99.99999999999997" y2="70.00000000000003" stroke="black" stroke-width="1"/>
<line x1="99.99999999999997" y1="60.000000000000036" x2="143.3012701892219" y2="135.00000000000003" stroke="black" stroke-width="1"/>
<line x1="143.3012701892219" y1="135.00000000000003" x2="56.69872981077803" y2="135.00000000000006" stroke="black" stroke-width="1"/>
<line x1="56.69872981077803" y1="135.00000000000006" x2="99.99999999999996" y2="60.00000000000005" stroke="black" stroke-width="1"/>
<line x1="99.99999999999996" y1="50.00000000000005" x2="151.96152422706626" y2="140.00000000000006" stroke="black" stroke-width="1"/>
<line x1="151.96152422706626" y1="140.00000000000006" x2="48.03847577293363" y2="140.00000000000009" stroke="black" stroke-width="1"/>
<line x1="48.03847577293363" y1="140.00000000000009" x2="99.99999999999994" y2="50.00000000000007" stroke="black" stroke-width="1"/>
<line x1="99.99999999999994" y1="40.00000000000007" x2="160.62177826491063" y2="145.00000000000006" stroke="black" stroke-width="1"/>
<line x1="160.62177826491063" y1="145.00000000000006" x2="39.378221735089234" y2="145.00000000000009" stroke="black" stroke-width="1"/>
<line x1="39.378221735089234" y1="145.00000000000009" x2="99.99999999999993" y2="40.00000000000009" stroke="black" stroke-width="1"/>
<line x1="99.99999999999993" y1="30.000000000000085" x2="169.282032302755" y2="150.0000000000001" stroke="black" stroke-width="1"/>
<line x1="169.282032302755" y1="150.0000000000001" x2="30.717967697244816" y2="150.0000000000001" stroke="black" stroke-width="1"/>
<line x1="30.717967697244816" y1="150.0000000000001" x2="99.9999999999999" y2="30.000000000000114" stroke="black" stroke-width="1"/>
<line x1="99.9999999999999" y1="20.000000000000114" x2="177.94228634059937" y2="155.0000000000001" stroke="black" stroke-width="1"/>
<line x1="177.94228634059937" y1="155.0000000000001" x2="22.057713659400406" y2="155.00000000000014" stroke="black" stroke-width="1"/>
<line x1="22.057713659400406" y1="155.00000000000014" x2="99.99999999999987" y2="20.000000000000142" stroke="black" stroke-width="1"/>
<line x1="99.99999999999987" y1="10.000000000000142" x2="186.60254037844373" y2="160.00000000000014" stroke="black" stroke-width="1"/>
<line x1="186.60254037844373" y1="160.00000000000014" x2="13.397459621555996" y2="160.00000000000017" stroke="black" stroke-width="1"/>
<line x1="13.397459621555996" y1="160.00000000000017" x2="99.99999999999984" y2="10.00000000000017" stroke="black" stroke-width="1"/>
</svg>
