<svg width="200.0" height="200.0" xmlns="http://www.w3.org/2000/svg">
<rect width="100%" height="100%" fill="white"/>
<line x1="10.0" y1="10.0" x2="30.0" y2="10.0" stroke="black" stroke-width="1"/>
<line x1="30.0" y1="10.0" x2="50.0" y2="10.0" stroke="black" stroke-width="1"/>
<line x1="50.0" y1="10.0" x2="70.0" y2="10.0" stroke="black" stroke-width="1"/>
<line x1="70.0" y1="10.0" x2="90.0" y2="10.0" stroke="black" stroke-width="1"/>
<line x1="90.0" y1="10.0" x2="110.0" y2="10.0" stroke="black" stroke-width="1"/>
<line x1="110.0" y1="10.0" x2="130.0" y2="10.0" stroke="black" stroke-width="1"/>
<line x1="130.0" y1="10.0" x2="150.0" y2="10.0" stroke="black" stroke-width="1"/>
<line x1="150.0" y1="10.0" x2="170.0" y2="10.0" stroke="black" stroke-width="1"/>
<line x1="170.0" y1="10.0" x2="190.0" y2="10.0" stroke="black" stroke-width="1"/>
<line x1="10.0" y1="30.0" x2="30.0" y2="30.0" stroke="black" stroke-width="1"/>
<line x1="30.0" y1="30.0" x2="50.0" y2="30.0" stroke="black" stroke-width="1"/>
<line x1="90.0" y1="30.0" x2="110.0" y2="30.0" stroke="black" stroke-width="1"/>
<line x1="10.0" y1="50.0" x2="30.0" y2="50.0" stroke="black" stroke-width="1"/>
<line x1="50.0" y1="50.0" x2="70.0" y2="50.0" stroke="black" stroke-width="1"/>
<line x1="70.0" y1="50.0" x2="90.0" y2="50.0" stroke="black" stroke-width="1"/>
<line x1="110.0" y1="50.0" x2="130.0" y2="50.0" stroke="black" stroke-width="1"/>
<line x1="130.0" y1="50.0" x2="150.0" y2="50.0" stroke="black" stroke-width="1"/>
<line x1="150.0" y1="50.0" x2="170.0" y2="50.0" stroke="black" stroke-width="1"/>
<line x1="30.0" y1="70.0" x2="50.0" y2="70.0" stroke="black" stroke-width="1"/>
<line x1="50.0" y1="70.0" x2="70.0" y2="70.0" stroke="black" stroke-width="1"/>
<line x1="90.0" y1="70.0" x2="110.0" y2="70.0" stroke="black" stroke-width="1"/>
<line x1="110.0" y1="70.0" x2="130.0" y2="70.0" stroke="black" stroke-width="1"/>
<line x1="130.0" y1="70.0" x2="150.0" y2="70.0" stroke="black" stroke-width="1"/>
<line x1="150.0" y1="70.0" x2="170.0" y2="70.0" stroke="black" stroke-width="1"/>
<line x1="130.0" y1="90.0" x2="150.0" y2="90.0" stroke="black" stroke-width="1"/>
<line x1="10.0" y1="110.0" x2="30.0" y2="110.0" stroke="black" stroke-width="1"/>
<line x1="30.0" y1="110.0" x2="50.0" y2="110.0" stroke="black" stroke-width="1"/>
<line x1="70.0" y1="110.0" x2="90.0" y2="110.0" stroke="black" stroke-width="1"/>
<line x1="90.0" y1="110.0" x2="110.0" y2="110.0" stroke="black" stroke-width="1"/>
<line x1="110.0" y1="110.0" x2="130.0" y2="110.0" stroke="black" stroke-width="1"/>
<line x1="30.0" y1="130.0" x2="50.0" y2="130.0" stroke="black" stroke-width="1"/>
<line x1="50.0" y1="130.0" x2="70.0" y2="130.0" stroke="black" stroke-width="1"/>
<line x1="90.0" y1="130.0" x2="110.0" y2="130.0" stroke="black" stroke-width="1"/>
<line x1="150.0" y1="130.0" x2="170.0" y2="130.0" stroke="black" stroke-width="1"/>
<line x1="170.0" y1="130.0" x2="190.0" y2="130.0" stroke="black" stroke-width="1"/>
<line x1="30.0" y1="150.0" x2="50.0" y2="150.0" stroke="black" stroke-width="1"/>
<line x1="50.0" y1="150.0" x2="70.0" y2="150.0" stroke="black" stroke-width="1"/>
<line x1="70.0" y1="150.0" x2="90.0" y2="150.0" stroke="black" stroke-width="1"/>
<line x1="90.0" y1="150.0" x2="110.0" y2="150.0" stroke="black" stroke-width="1"/>
<line x1="10.0" y1="170.0" x2="30.0" y2="170.0" stroke="black" stroke-width="1"/>
<line x1="110.0" y1="170.0" x2="130.0" y2="170.0" stroke="black" stroke-width="1"/>
<line x1="130.0" y1="170.0" x2="150.0" y2="170.0" stroke="black" stroke-width="1"/>
<line x1="150.0" y1="170.0" x2="170.0" y2="170.0" stroke="black" stroke-width="1"/>
<line x1="10.0" y1="190.0" x2="30.0" y2="190.0" stroke="black" stroke-width="1"/>
<line x1="30.0" y1="190.0" x2="50.0" y2="190.0" stroke="black" stroke-width="1"/>
<line x1="50.0" y1="190.0" x2="70.0" y2="190.0" stroke="black" stroke-width="1"/>
<line x1="70.0" y1="190.0" x2="90.0" y2="190.0" stroke="black" stroke-width="1"/>
<line x1="90.0" y1="190.0" x2="110.0" y2="190.0" stroke="black" stroke-width="1"/>
<line x1="110.0" y1="190.0" x2="130.0" y2="190.0" stroke="black" stroke-width="1"/>
<line x1="130.0" y1="190.0" x2="150.0" y2="190.0" stroke="black" stroke-width="1"/>
<line x1="150.0" y1="190.0" x2="170.0" y2="190.0" stroke="black" stroke-width="1"/>
<line x1="170.0" y1="190.0" x2="190.0" y2="190.0" stroke="black" stroke-width="1"/>
<line x1="10.0" y1="10.0" x2="10.0" y2="30.0" stroke="black" stroke-width="1"/>
<line x1="70.0" y1="10.0" x2="70.0" y2="30.0" stroke="black" stroke-width="1"/>
<line x1="130.0" y1="10.0" x2="130.0" y2="30.0" stroke="black" stroke-width="1"/>
<line x1="150.0" y1="10.0" x2="150.0" y2="30.0" stroke="black" stroke-width="1"/>
<line x1="190.0" y1="10.0" x2="190.0" y2="30.0" stroke="black" stroke-width="1"/>
<line x1="10.0" y1="30.0" x2="10.0" y2="50.0" stroke="black" stroke-width="1"/>
<line x1="50.0" y1="30.0" x2="50.0" y2="50.0" stroke="black" stroke-width="1"/>
<line x1="90.0" y1="30.0" x2="90.0" y2="50.0" stroke="black" stroke-width="1"/>
<line x1="130.0" y1="30.0" x2="130.0" y2="50.0" stroke="black" stroke-width="1"/>
<line x1="170.0" y1="30.0" x2="170.0" y2="50.0" stroke="black" stroke-width="1"/>
<line x1="190.0" y1="30.0" x2="190.0" y2="50.0" stroke="black" stroke-width="1"/>
<line x1="10.0" y1="50.0" x2="10.0" y2="70.0" stroke="black" stroke-width="1"/>
<line x1="90.0" y1="50.0" x2="90.0" y2="70.0" stroke="black" stroke-width="1"/>
<line x1="190.0" y1="50.0" x2="190.0" y2="70.0" stroke="black" stroke-width="1"/>
<line x1="10.0" y1="70.0" x2="10.0" y2="90.0" stroke="black" stroke-width="1"/>
<line x1="30.0" y1="70.0" x2="30.0" y2="90.0" stroke="black" stroke-width="1"/>
<line x1="70.0" y1="70.0" x2="70.0" y2="90.0" stroke="black" stroke-width="1"/>
<line x1="90.0" y1="70.0" x2="90.0" y2="90.0" stroke="black" stroke-width="1"/>
<line x1="110.0" y1="70.0" x2="110.0" y2="90.0" stroke="black" stroke-width="1"/>
<line x1="170.0" y1="70.0" x2="170.0" y2="90.0" stroke="black" stroke-width="1"/>
<line x1="190.0" y1="70.0" x2="190.0" y2="90.0" stroke="black" stroke-width="1"/>
<line x1="10.0" y1="90.0" x2="10.0" y2="110.0" stroke="black" stroke-width="1"/>
<line x1="50.0" y1="90.0" x2="50.0" y2="110.0" stroke="black" stroke-width="1"/>
<line x1="70.0" y1="90.0" x2="70.0" y2="110.0" stroke="black" stroke-width="1"/>
<line x1="110.0" y1="90.0" x2="110.0" y2="110.0" stroke="black" stroke-width="1"/>
<line x1="150.0" y1="90.0" x2="150.0" y2="110.0" stroke="black" stroke-width="1"/>
<line x1="170.0" y1="90.0" x2="170.0" y2="110.0" stroke="black" stroke-width="1"/>
<line x1="190.0" y1="90.0" x2="190.0" y2="110.0" stroke="black" stroke-width="1"/>
<line x1="10.0" y1="110.0" x2="10.0" y2="130.0" stroke="black" stroke-width="1"/>
<line x1="70.0" y1="110.0" x2="70.0" y2="130.0" stroke="black" stroke-width="1"/>
<line x1="130.0" y1="110.0" x2="130.0" y2="130.0" stroke="black" stroke-width="1"/>
<line x1="150.0" y1="110.0" x2="150.0" y2="130.0" stroke="black" stroke-width="1"/>
<line x1="190.0" y1="110.0" x2="190.0" y2="130.0" stroke="black" stroke-width="1"/>
<line x1="10.0" y1="130.0" x2="10.0" y2="150.0" stroke="black" stroke-width="1"/>
<line x1="110.0" y1="130.0" x2="110.0" y2="150.0" stroke="black" stroke-width="1"/>
<line x1="130.0" y1="130.0" x2="130.0" y2="150.0" stroke="black" stroke-width="1"/>
<line x1="150.0" y1="130.0" x2="150.0" y2="150.0" stroke="black" stroke-width="1"/>
<line x1="190.0" y1="130.0" x2="190.0" y2="150.0" stroke="black" stroke-width="1"/>
<line x1="10.0" y1="150.0" x2="10.0" y2="170.0" stroke="black" stroke-width="1"/>
<line x1="50.0" y1="150.0" x2="50.0" y2="170.0" stroke="black" stroke-width="1"/>
<line x1="90.0" y1="150.0" x2="90.0" y2="170.0" stroke="black" stroke-width="1"/>
<line x1="130.0" y1="150.0" x2="130.0" y2="170.0" stroke="black" stroke-width="1"/>
<line x1="170.0" y1="150.0" x2="170.0" y2="170.0" stroke="black" stroke-width="1"/>
<line x1="190.0" y1="150.0" x2="190.0" y2="170.0" stroke="black" stroke-width="1"/>
<line x1="10.0" y1="170.0" x2="10.0" y2="190.0" stroke="black" stroke-width="1"/>
<line x1="70.0" y1="170.0" x2="70.0" y2="190.0" stroke="black" stroke-width="1"/>
<line x1="90.0" y1="170.0" x2="90.0" y2="190.0" stroke="black" stroke-width="1"/>
<line x1="190.0" y1="170.0" x2="190.0" y2="190.0" stroke="black" stroke-width="1"/>
<circle cx="20" cy="20" r="6.666666666666667" stroke="black" stroke-width="1" fill="black"/>
<circle cx="180" cy="180" r="6.666666666666667" stroke="black" stroke-width="1" fill="black"/>
</svg>
