<svg xmlns="http://www.w3.org/2000/svg">
<line x1="400" y1="400" x2="400.0" y2="200.0" stroke="black" stroke-width="1"/>
<line x1="400.0" y1="200.0" x2="329.28932188134524" y2="129.28932188134524" stroke="black" stroke-width="1"/>
<line x1="329.28932188134524" y1="129.28932188134524" x2="279.28932188134524" y2="129.28932188134524" stroke="black" stroke-width="1"/>
<line x1="279.28932188134524" y1="129.28932188134524" x2="261.6116523516815" y2="146.96699141100893" stroke="black" stroke-width="1"/>
<line x1="279.28932188134524" y1="129.28932188134524" x2="261.6116523516815" y2="111.61165235168158" stroke="black" stroke-width="1"/>
<line x1="329.28932188134524" y1="129.28932188134524" x2="329.28932188134524" y2="79.28932188134524" stroke="black" stroke-width="1"/>
<line x1="329.28932188134524" y1="79.28932188134524" x2="311.6116523516815" y2="61.611652351681585" stroke="black" stroke-width="1"/>
<line x1="329.28932188134524" y1="79.28932188134524" x2="346.96699141100896" y2="61.61165235168153" stroke="black" stroke-width="1"/>
<line x1="400.0" y1="200.0" x2="470.71067811865476" y2="129.28932188134524" stroke="black" stroke-width="1"/>
<line x1="470.71067811865476" y1="129.28932188134524" x2="470.71067811865476" y2="79.28932188134524" stroke="black" stroke-width="1"/>
<line x1="470.71067811865476" y1="79.28932188134524" x2="453.03300858899104" y2="61.611652351681585" stroke="black" stroke-width="1"/>
<line x1="470.71067811865476" y1="79.28932188134524" x2="488.3883476483184" y2="61.61165235168153" stroke="black" stroke-width="1"/>
<line x1="470.71067811865476" y1="129.28932188134524" x2="520.7106781186548" y2="129.28932188134524" stroke="black" stroke-width="1"/>
<line x1="520.7106781186548" y1="129.28932188134524" x2="538.3883476483184" y2="111.61165235168153" stroke="black" stroke-width="1"/>
<line x1="520.7106781186548" y1="129.28932188134524" x2="538.3883476483184" y2="146.96699141100893" stroke="black" stroke-width="1"/>
</svg>
