<svg xmlns="http://www.w3.org/2000/svg">
<line x1="400" y1="400" x2="400.0" y2="200.0" stroke="black" stroke-width="1"/>
<line x1="400.0" y1="200.0" x2="329.28932188134524" y2="129.28932188134524" stroke="black" stroke-width="1"/>
<line x1="329.28932188134524" y1="129.28932188134524" x2="279.28932188134524" y2="129.28932188134524" stroke="black" stroke-width="1"/>
<line x1="279.28932188134524" y1="129.28932188134524" x2="261.6116523516815" y2="146.96699141100893" stroke="black" stroke-width="1"/>
<line x1="261.6116523516815" y1="146.96699141100893" x2="261.6116523516815" y2="159.46699141100893" stroke="black" stroke-width="1"/>
<line x1="261.6116523516815" y1="159.46699141100893" x2="266.0310697340975" y2="163.88640879342486" stroke="black" stroke-width="1"/>
<line x1="266.0310697340975" y1="163.88640879342486" x2="269.1560697340975" y2="163.88640879342486" stroke="black" stroke-width="1"/>
<line x1="266.0310697340975" y1="163.88640879342486" x2="266.0310697340975" y2="167.01140879342486" stroke="black" stroke-width="1"/>
<line x1="261.6116523516815" y1="159.46699141100893" x2="257.19223496926566" y2="163.88640879342486" stroke="black" stroke-width="1"/>
<line x1="257.19223496926566" y1="163.88640879342486" x2="257.19223496926566" y2="167.01140879342486" stroke="black" stroke-width="1"/>
<line x1="257.19223496926566" y1="163.88640879342486" x2="254.06723496926563" y2="163.88640879342486" stroke="black" stroke-width="1"/>
<line x1="261.6116523516815" y1="146.96699141100893" x2="249.11165235168156" y2="146.96699141100893" stroke="black" stroke-width="1"/>
<line x1="249.11165235168156" y1="146.96699141100893" x2="244.69223496926563" y2="151.38640879342486" stroke="black" stroke-width="1"/>
<line x1="244.69223496926563" y1="151.38640879342486" x2="244.69223496926563" y2="154.51140879342486" stroke="black" stroke-width="1"/>
<line x1="244.69223496926563" y1="151.38640879342486" x2="241.56723496926563" y2="151.38640879342486" stroke="black" stroke-width="1"/>
<line x1="249.11165235168156" y1="146.96699141100893" x2="244.69223496926563" y2="142.54757402859303" stroke="black" stroke-width="1"/>
<line x1="244.69223496926563" y1="142.54757402859303" x2="241.56723496926563" y2="142.54757402859303" stroke="black" stroke-width="1"/>
<line x1="244.69223496926563" y1="142.54757402859303" x2="244.69223496926563" y2="139.42257402859303" stroke="black" stroke-width="1"/>
<line x1="279.28932188134524" y1="129.28932188134524" x2="261.6116523516815" y2="111.61165235168158" stroke="black" stroke-width="1"/>
<line x1="261.6116523516815" y1="111.61165235168158" x2="249.11165235168156" y2="111.61165235168158" stroke="black" stroke-width="1"/>
<line x1="249.11165235168156" y1="111.61165235168158" x2="244.69223496926563" y2="116.03106973409751" stroke="black" stroke-width="1"/>
<line x1="244.69223496926563" y1="116.03106973409751" x2="244.69223496926563" y2="119.15606973409751" stroke="black" stroke-width="1"/>
<line x1="244.69223496926563" y1="116.03106973409751" x2="241.56723496926563" y2="116.03106973409751" stroke="black" stroke-width="1"/>
<line x1="249.11165235168156" y1="111.61165235168158" x2="244.69223496926563" y2="107.19223496926566" stroke="black" stroke-width="1"/>
<line x1="244.69223496926563" y1="107.19223496926566" x2="241.56723496926563" y2="107.19223496926566" stroke="black" stroke-width="1"/>
<line x1="244.69223496926563" y1="107.19223496926566" x2="244.69223496926563" y2="104.06723496926566" stroke="black" stroke-width="1"/>
<line x1="261.6116523516815" y1="111.61165235168158" x2="261.6116523516815" y2="99.11165235168158" stroke="black" stroke-width="1"/>
<line x1="261.6116523516815" y1="99.11165235168158" x2="257.19223496926566" y2="94.69223496926566" stroke="black" stroke-width="1"/>
<line x1="257.19223496926566" y1="94.69223496926566" x2="254.06723496926563" y2="94.69223496926566" stroke="black" stroke-width="1"/>
<line x1="257.19223496926566" y1="94.69223496926566" x2="257.19223496926566" y2="91.56723496926566" stroke="black" stroke-width="1"/>
<line x1="261.6116523516815" y1="99.11165235168158" x2="266.0310697340975" y2="94.69223496926566" stroke="black" stroke-width="1"/>
<line x1="266.0310697340975" y1="94.69223496926566" x2="266.0310697340975" y2="91.56723496926566" stroke="black" stroke-width="1"/>
<line x1="266.0310697340975" y1="94.69223496926566" x2="269.1560697340975" y2="94.69223496926566" stroke="black" stroke-width="1"/>
<line x1="329.28932188134524" y1="129.28932188134524" x2="329.28932188134524" y2="79.28932188134524" stroke="black" stroke-width="1"/>
<line x1="329.28932188134524" y1="79.28932188134524" x2="311.6116523516815" y2="61.611652351681585" stroke="black" stroke-width="1"/>
<line x1="311.6116523516815" y1="61.611652351681585" x2="299.1116523516815" y2="61.611652351681585" stroke="black" stroke-width="1"/>
<line x1="299.1116523516815" y1="61.611652351681585" x2="294.69223496926566" y2="66.03106973409751" stroke="black" stroke-width="1"/>
<line x1="294.69223496926566" y1="66.03106973409751" x2="294.69223496926566" y2="69.15606973409751" stroke="black" stroke-width="1"/>
<line x1="294.69223496926566" y1="66.03106973409751" x2="291.56723496926566" y2="66.03106973409751" stroke="black" stroke-width="1"/>
<line x1="299.1116523516815" y1="61.611652351681585" x2="294.69223496926566" y2="57.192234969265655" stroke="black" stroke-width="1"/>
<line x1="294.69223496926566" y1="57.192234969265655" x2="291.56723496926566" y2="57.192234969265655" stroke="black" stroke-width="1"/>
<line x1="294.69223496926566" y1="57.192234969265655" x2="294.69223496926566" y2="54.067234969265655" stroke="black" stroke-width="1"/>
<line x1="311.6116523516815" y1="61.611652351681585" x2="311.6116523516815" y2="49.111652351681585" stroke="black" stroke-width="1"/>
<line x1="311.6116523516815" y1="49.111652351681585" x2="307.19223496926566" y2="44.692234969265655" stroke="black" stroke-width="1"/>
<line x1="307.19223496926566" y1="44.692234969265655" x2="304.06723496926566" y2="44.692234969265655" stroke="black" stroke-width="1"/>
<line x1="307.19223496926566" y1="44.692234969265655" x2="307.19223496926566" y2="41.567234969265655" stroke="black" stroke-width="1"/>
<line x1="311.6116523516815" y1="49.111652351681585" x2="316.03106973409746" y2="44.692234969265655" stroke="black" stroke-width="1"/>
<line x1="316.03106973409746" y1="44.692234969265655" x2="316.03106973409746" y2="41.567234969265655" stroke="black" stroke-width="1"/>
<line x1="316.03106973409746" y1="44.692234969265655" x2="319.15606973409746" y2="44.692234969265655" stroke="black" stroke-width="1"/>
<line x1="329.28932188134524" y1="79.28932188134524" x2="346.96699141100896" y2="61.61165235168153" stroke="black" stroke-width="1"/>
<line x1="346.96699141100896" y1="61.61165235168153" x2="346.96699141100896" y2="49.11165235168153" stroke="black" stroke-width="1"/>
<line x1="346.96699141100896" y1="49.11165235168153" x2="342.54757402859303" y2="44.6922349692656" stroke="black" stroke-width="1"/>
<line x1="342.54757402859303" y1="44.6922349692656" x2="339.42257402859303" y2="44.6922349692656" stroke="black" stroke-width="1"/>
<line x1="342.54757402859303" y1="44.6922349692656" x2="342.54757402859303" y2="41.5672349692656" stroke="black" stroke-width="1"/>
<line x1="346.96699141100896" y1="49.11165235168153" x2="351.38640879342483" y2="44.6922349692656" stroke="black" stroke-width="1"/>
<line x1="351.38640879342483" y1="44.6922349692656" x2="351.38640879342483" y2="41.5672349692656" stroke="black" stroke-width="1"/>
<line x1="351.38640879342483" y1="44.6922349692656" x2="354.51140879342483" y2="44.6922349692656" stroke="black" stroke-width="1"/>
<line x1="346.96699141100896" y1="61.61165235168153" x2="359.46699141100896" y2="61.61165235168153" stroke="black" stroke-width="1"/>
<line x1="359.46699141100896" y1="61.61165235168153" x2="363.88640879342483" y2="57.1922349692656" stroke="black" stroke-width="1"/>
<line x1="363.88640879342483" y1="57.1922349692656" x2="363.88640879342483" y2="54.0672349692656" stroke="black" stroke-width="1"/>
<line x1="363.88640879342483" y1="57.1922349692656" x2="367.01140879342483" y2="57.1922349692656" stroke="black" stroke-width="1"/>
<line x1="359.46699141100896" y1="61.61165235168153" x2="363.88640879342483" y2="66.03106973409746" stroke="black" stroke-width="1"/>
<line x1="363.88640879342483" y1="66.03106973409746" x2="367.01140879342483" y2="66.03106973409746" stroke="black" stroke-width="1"/>
<line x1="363.88640879342483" y1="66.03106973409746" x2="363.88640879342483" y2="69.15606973409746" stroke="black" stroke-width="1"/>
<line x1="400.0" y1="200.0" x2="470.71067811865476" y2="129.28932188134524" stroke="black" stroke-width="1"/>
<line x1="470.71067811865476" y1="129.28932188134524" x2="470.71067811865476" y2="79.28932188134524" stroke="black" stroke-width="1"/>
<line x1="470.71067811865476" y1="79.28932188134524" x2="453.03300858899104" y2="61.611652351681585" stroke="black" stroke-width="1"/>
<line x1="453.03300858899104" y1="61.611652351681585" x2="440.53300858899104" y2="61.611652351681585" stroke="black" stroke-width="1"/>
<line x1="440.53300858899104" y1="61.611652351681585" x2="436.1135912065751" y2="66.03106973409751" stroke="black" stroke-width="1"/>
<line x1="436.1135912065751" y1="66.03106973409751" x2="436.1135912065751" y2="69.15606973409751" stroke="black" stroke-width="1"/>
<line x1="436.1135912065751" y1="66.03106973409751" x2="432.9885912065751" y2="66.03106973409751" stroke="black" stroke-width="1"/>
<line x1="440.53300858899104" y1="61.611652351681585" x2="436.1135912065751" y2="57.192234969265655" stroke="black" stroke-width="1"/>
<line x1="436.1135912065751" y1="57.192234969265655" x2="432.9885912065751" y2="57.192234969265655" stroke="black" stroke-width="1"/>
<line x1="436.1135912065751" y1="57.192234969265655" x2="436.1135912065751" y2="54.067234969265655" stroke="black" stroke-width="1"/>
<line x1="453.03300858899104" y1="61.611652351681585" x2="453.03300858899104" y2="49.111652351681585" stroke="black" stroke-width="1"/>
<line x1="453.03300858899104" y1="49.111652351681585" x2="448.6135912065751" y2="44.692234969265655" stroke="black" stroke-width="1"/>
<line x1="448.6135912065751" y1="44.692234969265655" x2="445.4885912065751" y2="44.692234969265655" stroke="black" stroke-width="1"/>
<line x1="448.6135912065751" y1="44.692234969265655" x2="448.6135912065751" y2="41.567234969265655" stroke="black" stroke-width="1"/>
<line x1="453.03300858899104" y1="49.111652351681585" x2="457.45242597140697" y2="44.692234969265655" stroke="black" stroke-width="1"/>
<line x1="457.45242597140697" y1="44.692234969265655" x2="457.45242597140697" y2="41.567234969265655" stroke="black" stroke-width="1"/>
<line x1="457.45242597140697" y1="44.692234969265655" x2="460.57742597140697" y2="44.692234969265655" stroke="black" stroke-width="1"/>
<line x1="470.71067811865476" y1="79.28932188134524" x2="488.3883476483184" y2="61.61165235168153" stroke="black" stroke-width="1"/>
<line x1="488.3883476483184" y1="61.61165235168153" x2="488.3883476483184" y2="49.11165235168153" stroke="black" stroke-width="1"/>
<line x1="488.3883476483184" y1="49.11165235168153" x2="483.9689302659025" y2="44.6922349692656" stroke="black" stroke-width="1"/>
<line x1="483.9689302659025" y1="44.6922349692656" x2="480.8439302659025" y2="44.6922349692656" stroke="black" stroke-width="1"/>
<line x1="483.9689302659025" y1="44.6922349692656" x2="483.9689302659025" y2="41.5672349692656" stroke="black" stroke-width="1"/>
<line x1="488.3883476483184" y1="49.11165235168153" x2="492.80776503073434" y2="44.6922349692656" stroke="black" stroke-width="1"/>
<line x1="492.80776503073434" y1="44.6922349692656" x2="492.80776503073434" y2="41.5672349692656" stroke="black" stroke-width="1"/>
<line x1="492.80776503073434" y1="44.6922349692656" x2="495.93276503073434" y2="44.6922349692656" stroke="black" stroke-width="1"/>
<line x1="488.3883476483184" y1="61.61165235168153" x2="500.8883476483184" y2="61.61165235168153" stroke="black" stroke-width="1"/>
<line x1="500.8883476483184" y1="61.61165235168153" x2="505.30776503073434" y2="57.1922349692656" stroke="black" stroke-width="1"/>
<line x1="505.30776503073434" y1="57.1922349692656" x2="505.30776503073434" y2="54.0672349692656" stroke="black" stroke-width="1"/>
<line x1="505.30776503073434" y1="57.1922349692656" x2="508.43276503073434" y2="57.1922349692656" stroke="black" stroke-width="1"/>
<line x1="500.8883476483184" y1="61.61165235168153" x2="505.30776503073434" y2="66.03106973409746" stroke="black" stroke-width="1"/>
<line x1="505.30776503073434" y1="66.03106973409746" x2="508.43276503073434" y2="66.03106973409746" stroke="black" stroke-width="1"/>
<line x1="505.30776503073434" y1="66.03106973409746" x2="505.30776503073434" y2="69.15606973409746" stroke="black" stroke-width="1"/>
<line x1="470.71067811865476" y1="129.28932188134524" x2="520.7106781186548" y2="129.28932188134524" stroke="black" stroke-width="1"/>
<line x1="520.7106781186548" y1="129.28932188134524" x2="538.3883476483184" y2="111.61165235168153" stroke="black" stroke-width="1"/>
<line x1="538.3883476483184" y1="111.61165235168153" x2="538.3883476483184" y2="99.11165235168153" stroke="black" stroke-width="1"/>
<line x1="538.3883476483184" y1="99.11165235168153" x2="533.9689302659025" y2="94.6922349692656" stroke="black" stroke-width="1"/>
<line x1="533.9689302659025" y1="94.6922349692656" x2="530.8439302659025" y2="94.6922349692656" stroke="black" stroke-width="1"/>
<line x1="533.9689302659025" y1="94.6922349692656" x2="533.9689302659025" y2="91.5672349692656" stroke="black" stroke-width="1"/>
<line x1="538.3883476483184" y1="99.11165235168153" x2="542.8077650307343" y2="94.6922349692656" stroke="black" stroke-width="1"/>
<line x1="542.8077650307343" y1="94.6922349692656" x2="542.8077650307343" y2="91.5672349692656" stroke="black" stroke-width="1"/>
<line x1="542.8077650307343" y1="94.6922349692656" x2="545.9327650307343" y2="94.6922349692656" stroke="black" stroke-width="1"/>
<line x1="538.3883476483184" y1="111.61165235168153" x2="550.8883476483184" y2="111.61165235168153" stroke="black" stroke-width="1"/>
<line x1="550.8883476483184" y1="111.61165235168153" x2="555.3077650307343" y2="107.1922349692656" stroke="black" stroke-width="1"/>
<line x1="555.3077650307343" y1="107.1922349692656" x2="555.3077650307343" y2="104.0672349692656" stroke="black" stroke-width="1"/>
<line x1="555.3077650307343" y1="107.1922349692656" x2="558.4327650307343" y2="107.1922349692656" stroke="black" stroke-width="1"/>
<line x1="550.8883476483184" y1="111.61165235168153" x2="555.3077650307343" y2="116.03106973409746" stroke="black" stroke-width="1"/>
<line x1="555.3077650307343" y1="116.03106973409746" x2="558.4327650307343" y2="116.03106973409746" stroke="black" stroke-width="1"/>
<line x1="555.3077650307343" y1="116.03106973409746" x2="555.3077650307343" y2="119.15606973409746" stroke="black" stroke-width="1"/>
<line x1="520.7106781186548" y1="129.28932188134524" x2="538.3883476483184" y2="146.96699141100893" stroke="black" stroke-width="1"/>
<line x1="538.3883476483184" y1="146.96699141100893" x2="550.8883476483184" y2="146.96699141100893" stroke="black" stroke-width="1"/>
<line x1="550.8883476483184" y1="146.96699141100893" x2="555.3077650307343" y2="142.54757402859303" stroke="black" stroke-width="1"/>
<line x1="555.3077650307343" y1="142.54757402859303" x2="555.3077650307343" y2="139.42257402859303" stroke="black" stroke-width="1"/>
<line x1="555.3077650307343" y1="142.54757402859303" x2="558.4327650307343" y2="142.54757402859303" stroke="black" stroke-width="1"/>
<line x1="550.8883476483184" y1="146.96699141100896" x2="555.3077650307343" y2="151.3864087934249" stroke="black" stroke-width="1"/>
<line x1="555.3077650307343" y1="151.3864087934249" x2="558.4327650307343" y2="151.3864087934249" stroke="black" stroke-width="1"/>
<line x1="555.3077650307343" y1="151.3864087934249" x2="555.3077650307343" y2="154.5114087934249" stroke="black" stroke-width="1"/>
<line x1="538.3883476483184" y1="146.96699141100896" x2="538.3883476483184" y2="159.46699141100896" stroke="black" stroke-width="1"/>
<line x1="538.3883476483184" y1="159.46699141100896" x2="542.8077650307343" y2="163.8864087934249" stroke="black" stroke-width="1"/>
<line x1="542.8077650307343" y1="163.8864087934249" x2="545.9327650307343" y2="163.8864087934249" stroke="black" stroke-width="1"/>
<line x1="542.8077650307343" y1="163.8864087934249" x2="542.8077650307343" y2="167.0114087934249" stroke="black" stroke-width="1"/>
<line x1="538.3883476483184" y1="159.46699141100896" x2="533.9689302659025" y2="163.8864087934249" stroke="black" stroke-width="1"/>
<line x1="533.9689302659025" y1="163.8864087934249" x2="533.9689302659025" y2="167.0114087934249" stroke="black" stroke-width="1"/>
<line x1="533.9689302659025" y1="163.8864087934249" x2="530.8439302659025" y2="163.8864087934249" stroke="black" stroke-width="1"/>
</svg>
