<svg width="400" height="400" xmlns="http://www.w3.org/2000/svg">
<line x1="200" y1="400" x2="200.0" y2="200.0" stroke="black" stroke-width="1"/>
<line x1="200.0" y1="200.0" x2="129.28932188134524" y2="129.28932188134524" stroke="black" stroke-width="1"/>
<line x1="129.28932188134524" y1="129.28932188134524" x2="79.28932188134523" y2="129.28932188134524" stroke="black" stroke-width="1"/>
<line x1="79.28932188134523" y1="129.28932188134524" x2="61.611652351681556" y2="146.96699141100893" stroke="black" stroke-width="1"/>
<line x1="61.611652351681556" y1="146.96699141100893" x2="61.611652351681556" y2="159.46699141100893" stroke="black" stroke-width="1"/>
<line x1="61.611652351681556" y1="146.96699141100893" x2="49.111652351681556" y2="146.96699141100893" stroke="black" stroke-width="1"/>
<line x1="79.28932188134524" y1="129.28932188134524" x2="61.611652351681556" y2="111.61165235168158" stroke="black" stroke-width="1"/>
<line x1="61.611652351681556" y1="111.61165235168158" x2="49.111652351681556" y2="111.61165235168158" stroke="black" stroke-width="1"/>
<line x1="61.611652351681556" y1="111.61165235168158" x2="61.611652351681556" y2="99.11165235168158" stroke="black" stroke-width="1"/>
<line x1="129.28932188134524" y1="129.28932188134524" x2="129.28932188134524" y2="79.28932188134524" stroke="black" stroke-width="1"/>
<line x1="129.28932188134524" y1="79.28932188134524" x2="111.61165235168156" y2="61.611652351681585" stroke="black" stroke-width="1"/>
<line x1="111.61165235168156" y1="61.611652351681585" x2="99.11165235168156" y2="61.611652351681585" stroke="black" stroke-width="1"/>
<line x1="111.61165235168156" y1="61.611652351681585" x2="111.61165235168156" y2="49.111652351681585" stroke="black" stroke-width="1"/>
<line x1="129.28932188134524" y1="79.28932188134524" x2="146.96699141100893" y2="61.61165235168153" stroke="black" stroke-width="1"/>
<line x1="146.96699141100893" y1="61.61165235168153" x2="146.96699141100893" y2="49.11165235168153" stroke="black" stroke-width="1"/>
<line x1="146.96699141100893" y1="61.61165235168153" x2="159.46699141100893" y2="61.61165235168153" stroke="black" stroke-width="1"/>
<line x1="200.0" y1="200.0" x2="270.71067811865476" y2="129.28932188134524" stroke="black" stroke-width="1"/>
<line x1="270.71067811865476" y1="129.28932188134524" x2="270.71067811865476" y2="79.28932188134524" stroke="black" stroke-width="1"/>
<line x1="270.71067811865476" y1="79.28932188134524" x2="253.03300858899104" y2="61.611652351681585" stroke="black" stroke-width="1"/>
<line x1="253.03300858899104" y1="61.611652351681585" x2="240.53300858899104" y2="61.611652351681585" stroke="black" stroke-width="1"/>
<line x1="253.03300858899104" y1="61.611652351681585" x2="253.03300858899104" y2="49.111652351681585" stroke="black" stroke-width="1"/>
<line x1="270.71067811865476" y1="79.28932188134524" x2="288.3883476483184" y2="61.61165235168153" stroke="black" stroke-width="1"/>
<line x1="288.3883476483184" y1="61.61165235168153" x2="288.3883476483184" y2="49.11165235168153" stroke="black" stroke-width="1"/>
<line x1="288.3883476483184" y1="61.61165235168153" x2="300.8883476483184" y2="61.61165235168153" stroke="black" stroke-width="1"/>
<line x1="270.71067811865476" y1="129.28932188134524" x2="320.71067811865476" y2="129.28932188134524" stroke="black" stroke-width="1"/>
<line x1="320.71067811865476" y1="129.28932188134524" x2="338.3883476483184" y2="111.61165235168153" stroke="black" stroke-width="1"/>
<line x1="338.3883476483184" y1="111.61165235168153" x2="338.3883476483184" y2="99.11165235168153" stroke="black" stroke-width="1"/>
<line x1="338.3883476483184" y1="111.61165235168153" x2="350.8883476483184" y2="111.61165235168153" stroke="black" stroke-width="1"/>
<line x1="320.71067811865476" y1="129.28932188134524" x2="338.3883476483184" y2="146.96699141100893" stroke="black" stroke-width="1"/>
<line x1="338.3883476483184" y1="146.96699141100893" x2="350.8883476483184" y2="146.96699141100893" stroke="black" stroke-width="1"/>
<line x1="338.3883476483184" y1="146.96699141100893" x2="338.3883476483184" y2="159.46699141100893" stroke="black" stroke-width="1"/>
</svg>
