<svg width="400" height="400" xmlns="http://www.w3.org/2000/svg">
<line x1="200" y1="400" x2="200.0" y2="200.0" stroke="black" stroke-width="1"/>
<line x1="200.0" y1="200.0" x2="129.28932188134524" y2="129.28932188134524" stroke="black" stroke-width="1"/>
<line x1="129.28932188134524" y1="129.28932188134524" x2="79.28932188134523" y2="129.28932188134524" stroke="black" stroke-width="1"/>
<line x1="79.28932188134523" y1="129.28932188134524" x2="61.611652351681556" y2="146.96699141100893" stroke="black" stroke-width="1"/>
<line x1="61.611652351681556" y1="146.96699141100893" x2="61.611652351681556" y2="159.46699141100893" stroke="black" stroke-width="1"/>
<line x1="61.611652351681556" y1="159.46699141100893" x2="66.03106973409749" y2="163.88640879342486" stroke="black" stroke-width="1"/>
<line x1="66.03106973409749" y1="163.88640879342486" x2="69.15606973409749" y2="163.88640879342486" stroke="black" stroke-width="1"/>
<line x1="69.15606973409749" y1="163.88640879342486" x2="70.26092407970145" y2="162.7815544478209" stroke="black" stroke-width="1"/>
<line x1="69.15606973409749" y1="163.88640879342486" x2="70.26092407970145" y2="164.99126313902883" stroke="black" stroke-width="1"/>
<line x1="66.03106973409749" y1="163.88640879342486" x2="66.03106973409749" y2="167.01140879342486" stroke="black" stroke-width="1"/>
<line x1="66.03106973409749" y1="167.01140879342486" x2="67.13592407970145" y2="168.11626313902883" stroke="black" stroke-width="1"/>
<line x1="66.03106973409749" y1="167.01140879342486" x2="64.92621538849352" y2="168.11626313902883" stroke="black" stroke-width="1"/>
<line x1="61.611652351681556" y1="159.46699141100893" x2="57.19223496926563" y2="163.88640879342486" stroke="black" stroke-width="1"/>
<line x1="57.19223496926563" y1="163.88640879342486" x2="57.19223496926563" y2="167.01140879342486" stroke="black" stroke-width="1"/>
<line x1="57.19223496926563" y1="167.01140879342486" x2="58.297089314869595" y2="168.11626313902883" stroke="black" stroke-width="1"/>
<line x1="57.19223496926563" y1="167.01140879342486" x2="56.08738062366166" y2="168.11626313902883" stroke="black" stroke-width="1"/>
<line x1="57.19223496926563" y1="163.88640879342486" x2="54.06723496926563" y2="163.88640879342486" stroke="black" stroke-width="1"/>
<line x1="54.06723496926563" y1="163.88640879342486" x2="52.96238062366166" y2="164.99126313902883" stroke="black" stroke-width="1"/>
<line x1="54.06723496926563" y1="163.88640879342486" x2="52.96238062366166" y2="162.7815544478209" stroke="black" stroke-width="1"/>
<line x1="61.611652351681556" y1="146.96699141100893" x2="49.111652351681556" y2="146.96699141100893" stroke="black" stroke-width="1"/>
<line x1="49.111652351681556" y1="146.96699141100893" x2="44.69223496926563" y2="151.38640879342486" stroke="black" stroke-width="1"/>
<line x1="44.69223496926563" y1="151.38640879342486" x2="44.69223496926563" y2="154.51140879342486" stroke="black" stroke-width="1"/>
<line x1="44.69223496926563" y1="154.51140879342486" x2="45.797089314869595" y2="155.61626313902883" stroke="black" stroke-width="1"/>
<line x1="44.69223496926563" y1="154.51140879342486" x2="43.58738062366166" y2="155.61626313902883" stroke="black" stroke-width="1"/>
<line x1="44.69223496926563" y1="151.38640879342486" x2="41.56723496926563" y2="151.38640879342486" stroke="black" stroke-width="1"/>
<line x1="41.56723496926563" y1="151.38640879342486" x2="40.46238062366166" y2="152.49126313902883" stroke="black" stroke-width="1"/>
<line x1="41.56723496926563" y1="151.38640879342486" x2="40.46238062366166" y2="150.2815544478209" stroke="black" stroke-width="1"/>
<line x1="49.111652351681556" y1="146.96699141100893" x2="44.69223496926563" y2="142.54757402859303" stroke="black" stroke-width="1"/>
<line x1="44.69223496926563" y1="142.54757402859303" x2="41.56723496926563" y2="142.54757402859303" stroke="black" stroke-width="1"/>
<line x1="41.56723496926563" y1="142.54757402859303" x2="40.46238062366166" y2="143.65242837419703" stroke="black" stroke-width="1"/>
<line x1="41.56723496926563" y1="142.54757402859303" x2="40.46238062366166" y2="141.44271968298904" stroke="black" stroke-width="1"/>
<line x1="44.69223496926563" y1="142.54757402859303" x2="44.69223496926563" y2="139.42257402859303" stroke="black" stroke-width="1"/>
<line x1="44.69223496926563" y1="139.42257402859303" x2="43.58738062366166" y2="138.31771968298904" stroke="black" stroke-width="1"/>
<line x1="44.69223496926563" y1="139.42257402859303" x2="45.797089314869595" y2="138.31771968298904" stroke="black" stroke-width="1"/>
<line x1="79.28932188134524" y1="129.28932188134524" x2="61.611652351681556" y2="111.61165235168158" stroke="black" stroke-width="1"/>
<line x1="61.611652351681556" y1="111.61165235168158" x2="49.111652351681556" y2="111.61165235168158" stroke="black" stroke-width="1"/>
<line x1="49.111652351681556" y1="111.61165235168158" x2="44.69223496926563" y2="116.03106973409751" stroke="black" stroke-width="1"/>
<line x1="44.69223496926563" y1="116.03106973409751" x2="44.69223496926563" y2="119.15606973409751" stroke="black" stroke-width="1"/>
<line x1="44.69223496926563" y1="119.15606973409751" x2="45.797089314869595" y2="120.26092407970151" stroke="black" stroke-width="1"/>
<line x1="44.69223496926563" y1="119.15606973409751" x2="43.58738062366166" y2="120.26092407970151" stroke="black" stroke-width="1"/>
<line x1="44.69223496926563" y1="116.03106973409751" x2="41.56723496926563" y2="116.03106973409751" stroke="black" stroke-width="1"/>
<line x1="41.56723496926563" y1="116.03106973409751" x2="40.46238062366166" y2="117.13592407970151" stroke="black" stroke-width="1"/>
<line x1="41.56723496926563" y1="116.03106973409751" x2="40.46238062366166" y2="114.92621538849352" stroke="black" stroke-width="1"/>
<line x1="49.111652351681556" y1="111.61165235168158" x2="44.69223496926563" y2="107.19223496926566" stroke="black" stroke-width="1"/>
<line x1="44.69223496926563" y1="107.19223496926566" x2="41.56723496926563" y2="107.19223496926566" stroke="black" stroke-width="1"/>
<line x1="41.56723496926563" y1="107.19223496926566" x2="40.46238062366166" y2="108.29708931486965" stroke="black" stroke-width="1"/>
<line x1="41.56723496926563" y1="107.19223496926566" x2="40.46238062366166" y2="106.08738062366166" stroke="black" stroke-width="1"/>
<line x1="44.69223496926563" y1="107.19223496926566" x2="44.69223496926563" y2="104.06723496926566" stroke="black" stroke-width="1"/>
<line x1="44.69223496926563" y1="104.06723496926566" x2="43.58738062366166" y2="102.96238062366166" stroke="black" stroke-width="1"/>
<line x1="44.69223496926563" y1="104.06723496926566" x2="45.797089314869595" y2="102.96238062366166" stroke="black" stroke-width="1"/>
<line x1="61.611652351681556" y1="111.61165235168158" x2="61.611652351681556" y2="99.11165235168158" stroke="black" stroke-width="1"/>
<line x1="61.611652351681556" y1="99.11165235168158" x2="57.19223496926563" y2="94.69223496926566" stroke="black" stroke-width="1"/>
<line x1="57.19223496926563" y1="94.69223496926566" x2="54.06723496926563" y2="94.69223496926566" stroke="black" stroke-width="1"/>
<line x1="54.06723496926563" y1="94.69223496926566" x2="52.96238062366166" y2="95.79708931486965" stroke="black" stroke-width="1"/>
<line x1="54.06723496926563" y1="94.69223496926566" x2="52.96238062366166" y2="93.58738062366166" stroke="black" stroke-width="1"/>
<line x1="57.19223496926563" y1="94.69223496926566" x2="57.19223496926563" y2="91.56723496926566" stroke="black" stroke-width="1"/>
<line x1="57.19223496926563" y1="91.56723496926566" x2="56.08738062366166" y2="90.46238062366166" stroke="black" stroke-width="1"/>
<line x1="57.19223496926563" y1="91.56723496926566" x2="58.297089314869595" y2="90.46238062366166" stroke="black" stroke-width="1"/>
<line x1="61.611652351681556" y1="99.11165235168158" x2="66.03106973409749" y2="94.69223496926566" stroke="black" stroke-width="1"/>
<line x1="66.03106973409749" y1="94.69223496926566" x2="66.03106973409749" y2="91.56723496926566" stroke="black" stroke-width="1"/>
<line x1="66.03106973409749" y1="91.56723496926566" x2="64.92621538849352" y2="90.46238062366166" stroke="black" stroke-width="1"/>
<line x1="66.03106973409749" y1="91.56723496926566" x2="67.13592407970145" y2="90.46238062366166" stroke="black" stroke-width="1"/>
<line x1="66.03106973409749" y1="94.69223496926566" x2="69.15606973409749" y2="94.69223496926566" stroke="black" stroke-width="1"/>
<line x1="69.15606973409749" y1="94.69223496926566" x2="70.26092407970145" y2="93.58738062366166" stroke="black" stroke-width="1"/>
<line x1="69.15606973409749" y1="94.69223496926566" x2="70.26092407970145" y2="95.79708931486965" stroke="black" stroke-width="1"/>
<line x1="129.28932188134524" y1="129.28932188134524" x2="129.28932188134524" y2="79.28932188134524" stroke="black" stroke-width="1"/>
<line x1="129.28932188134524" y1="79.28932188134524" x2="111.61165235168156" y2="61.611652351681585" stroke="black" stroke-width="1"/>
<line x1="111.61165235168156" y1="61.611652351681585" x2="99.11165235168156" y2="61.611652351681585" stroke="black" stroke-width="1"/>
<line x1="99.11165235168156" y1="61.611652351681585" x2="94.69223496926564" y2="66.03106973409751" stroke="black" stroke-width="1"/>
<line x1="94.69223496926564" y1="66.03106973409751" x2="94.69223496926564" y2="69.15606973409751" stroke="black" stroke-width="1"/>
<line x1="94.69223496926564" y1="69.15606973409751" x2="95.79708931486962" y2="70.26092407970151" stroke="black" stroke-width="1"/>
<line x1="94.69223496926564" y1="69.15606973409751" x2="93.58738062366166" y2="70.26092407970151" stroke="black" stroke-width="1"/>
<line x1="94.69223496926564" y1="66.03106973409751" x2="91.56723496926564" y2="66.03106973409751" stroke="black" stroke-width="1"/>
<line x1="91.56723496926564" y1="66.03106973409751" x2="90.46238062366166" y2="67.13592407970151" stroke="black" stroke-width="1"/>
<line x1="91.56723496926564" y1="66.03106973409751" x2="90.46238062366166" y2="64.92621538849352" stroke="black" stroke-width="1"/>
<line x1="99.11165235168156" y1="61.611652351681585" x2="94.69223496926563" y2="57.192234969265655" stroke="black" stroke-width="1"/>
<line x1="94.69223496926563" y1="57.192234969265655" x2="91.56723496926563" y2="57.192234969265655" stroke="black" stroke-width="1"/>
<line x1="91.56723496926563" y1="57.192234969265655" x2="90.46238062366164" y2="58.29708931486965" stroke="black" stroke-width="1"/>
<line x1="91.56723496926563" y1="57.192234969265655" x2="90.46238062366164" y2="56.08738062366166" stroke="black" stroke-width="1"/>
<line x1="94.69223496926563" y1="57.192234969265655" x2="94.69223496926563" y2="54.067234969265655" stroke="black" stroke-width="1"/>
<line x1="94.69223496926563" y1="54.067234969265655" x2="93.58738062366164" y2="52.96238062366166" stroke="black" stroke-width="1"/>
<line x1="94.69223496926563" y1="54.067234969265655" x2="95.79708931486961" y2="52.96238062366166" stroke="black" stroke-width="1"/>
<line x1="111.61165235168156" y1="61.611652351681585" x2="111.61165235168156" y2="49.111652351681585" stroke="black" stroke-width="1"/>
<line x1="111.61165235168156" y1="49.111652351681585" x2="107.19223496926563" y2="44.692234969265655" stroke="black" stroke-width="1"/>
<line x1="107.19223496926563" y1="44.692234969265655" x2="104.06723496926563" y2="44.692234969265655" stroke="black" stroke-width="1"/>
<line x1="104.06723496926563" y1="44.692234969265655" x2="102.96238062366164" y2="45.79708931486965" stroke="black" stroke-width="1"/>
<line x1="104.06723496926563" y1="44.692234969265655" x2="102.96238062366164" y2="43.58738062366166" stroke="black" stroke-width="1"/>
<line x1="107.19223496926563" y1="44.692234969265655" x2="107.19223496926563" y2="41.567234969265655" stroke="black" stroke-width="1"/>
<line x1="107.19223496926563" y1="41.567234969265655" x2="106.08738062366164" y2="40.46238062366166" stroke="black" stroke-width="1"/>
<line x1="107.19223496926563" y1="41.567234969265655" x2="108.29708931486961" y2="40.46238062366166" stroke="black" stroke-width="1"/>
<line x1="111.61165235168156" y1="49.111652351681585" x2="116.03106973409747" y2="44.692234969265655" stroke="black" stroke-width="1"/>
<line x1="116.03106973409747" y1="44.692234969265655" x2="116.03106973409747" y2="41.567234969265655" stroke="black" stroke-width="1"/>
<line x1="116.03106973409747" y1="41.567234969265655" x2="114.92621538849349" y2="40.46238062366166" stroke="black" stroke-width="1"/>
<line x1="116.03106973409747" y1="41.567234969265655" x2="117.13592407970145" y2="40.46238062366166" stroke="black" stroke-width="1"/>
<line x1="116.03106973409747" y1="44.692234969265655" x2="119.15606973409747" y2="44.692234969265655" stroke="black" stroke-width="1"/>
<line x1="119.15606973409747" y1="44.692234969265655" x2="120.26092407970145" y2="43.58738062366166" stroke="black" stroke-width="1"/>
<line x1="119.15606973409747" y1="44.692234969265655" x2="120.26092407970145" y2="45.79708931486965" stroke="black" stroke-width="1"/>
<line x1="129.28932188134524" y1="79.28932188134524" x2="146.96699141100893" y2="61.61165235168153" stroke="black" stroke-width="1"/>
<line x1="146.96699141100893" y1="61.61165235168153" x2="146.96699141100893" y2="49.11165235168153" stroke="black" stroke-width="1"/>
<line x1="146.96699141100893" y1="49.11165235168153" x2="142.547574028593" y2="44.6922349692656" stroke="black" stroke-width="1"/>
<line x1="142.547574028593" y1="44.6922349692656" x2="139.422574028593" y2="44.6922349692656" stroke="black" stroke-width="1"/>
<line x1="139.422574028593" y1="44.6922349692656" x2="138.31771968298904" y2="45.797089314869595" stroke="black" stroke-width="1"/>
<line x1="139.422574028593" y1="44.6922349692656" x2="138.31771968298904" y2="43.5873806236616" stroke="black" stroke-width="1"/>
<line x1="142.547574028593" y1="44.6922349692656" x2="142.547574028593" y2="41.5672349692656" stroke="black" stroke-width="1"/>
<line x1="142.547574028593" y1="41.5672349692656" x2="141.44271968298904" y2="40.4623806236616" stroke="black" stroke-width="1"/>
<line x1="142.547574028593" y1="41.5672349692656" x2="143.652428374197" y2="40.4623806236616" stroke="black" stroke-width="1"/>
<line x1="146.96699141100893" y1="49.11165235168153" x2="151.38640879342486" y2="44.6922349692656" stroke="black" stroke-width="1"/>
<line x1="151.38640879342486" y1="44.6922349692656" x2="151.38640879342486" y2="41.5672349692656" stroke="black" stroke-width="1"/>
<line x1="151.38640879342486" y1="41.5672349692656" x2="150.28155444782087" y2="40.4623806236616" stroke="black" stroke-width="1"/>
<line x1="151.38640879342486" y1="41.5672349692656" x2="152.49126313902883" y2="40.4623806236616" stroke="black" stroke-width="1"/>
<line x1="151.38640879342486" y1="44.6922349692656" x2="154.51140879342486" y2="44.6922349692656" stroke="black" stroke-width="1"/>
<line x1="154.51140879342486" y1="44.6922349692656" x2="155.61626313902883" y2="43.5873806236616" stroke="black" stroke-width="1"/>
<line x1="154.51140879342486" y1="44.6922349692656" x2="155.61626313902883" y2="45.797089314869595" stroke="black" stroke-width="1"/>
<line x1="146.96699141100893" y1="61.61165235168153" x2="159.46699141100893" y2="61.61165235168153" stroke="black" stroke-width="1"/>
<line x1="159.46699141100893" y1="61.61165235168153" x2="163.88640879342486" y2="57.1922349692656" stroke="black" stroke-width="1"/>
<line x1="163.88640879342486" y1="57.1922349692656" x2="163.88640879342486" y2="54.0672349692656" stroke="black" stroke-width="1"/>
<line x1="163.88640879342486" y1="54.0672349692656" x2="162.78155444782087" y2="52.9623806236616" stroke="black" stroke-width="1"/>
<line x1="163.88640879342486" y1="54.0672349692656" x2="164.99126313902883" y2="52.9623806236616" stroke="black" stroke-width="1"/>
<line x1="163.88640879342486" y1="57.1922349692656" x2="167.01140879342486" y2="57.1922349692656" stroke="black" stroke-width="1"/>
<line x1="167.01140879342486" y1="57.1922349692656" x2="168.11626313902883" y2="56.0873806236616" stroke="black" stroke-width="1"/>
<line x1="167.01140879342486" y1="57.1922349692656" x2="168.11626313902883" y2="58.297089314869595" stroke="black" stroke-width="1"/>
<line x1="159.46699141100893" y1="61.61165235168153" x2="163.88640879342486" y2="66.03106973409746" stroke="black" stroke-width="1"/>
<line x1="163.88640879342486" y1="66.03106973409746" x2="167.01140879342486" y2="66.03106973409746" stroke="black" stroke-width="1"/>
<line x1="167.01140879342486" y1="66.03106973409746" x2="168.11626313902883" y2="64.92621538849346" stroke="black" stroke-width="1"/>
<line x1="167.01140879342486" y1="66.03106973409746" x2="168.11626313902883" y2="67.13592407970145" stroke="black" stroke-width="1"/>
<line x1="163.88640879342486" y1="66.03106973409746" x2="163.88640879342486" y2="69.15606973409746" stroke="black" stroke-width="1"/>
<line x1="163.88640879342486" y1="69.15606973409746" x2="164.99126313902883" y2="70.26092407970145" stroke="black" stroke-width="1"/>
<line x1="163.88640879342486" y1="69.15606973409746" x2="162.78155444782087" y2="70.26092407970145" stroke="black" stroke-width="1"/>
<line x1="200.0" y1="200.0" x2="270.71067811865476" y2="129.28932188134524" stroke="black" stroke-width="1"/>
<line x1="270.71067811865476" y1="129.28932188134524" x2="270.71067811865476" y2="79.28932188134524" stroke="black" stroke-width="1"/>
<line x1="270.71067811865476" y1="79.28932188134524" x2="253.03300858899104" y2="61.611652351681585" stroke="black" stroke-width="1"/>
<line x1="253.03300858899104" y1="61.611652351681585" x2="240.53300858899104" y2="61.611652351681585" stroke="black" stroke-width="1"/>
<line x1="240.53300858899104" y1="61.611652351681585" x2="236.11359120657514" y2="66.03106973409751" stroke="black" stroke-width="1"/>
<line x1="236.11359120657514" y1="66.03106973409751" x2="236.11359120657514" y2="69.15606973409751" stroke="black" stroke-width="1"/>
<line x1="236.11359120657514" y1="69.15606973409751" x2="237.2184455521791" y2="70.26092407970151" stroke="black" stroke-width="1"/>
<line x1="236.11359120657514" y1="69.15606973409751" x2="235.00873686097114" y2="70.26092407970151" stroke="black" stroke-width="1"/>
<line x1="236.11359120657514" y1="66.03106973409751" x2="232.98859120657514" y2="66.03106973409751" stroke="black" stroke-width="1"/>
<line x1="232.98859120657514" y1="66.03106973409751" x2="231.88373686097114" y2="67.13592407970151" stroke="black" stroke-width="1"/>
<line x1="232.98859120657514" y1="66.03106973409751" x2="231.88373686097114" y2="64.92621538849352" stroke="black" stroke-width="1"/>
<line x1="240.53300858899104" y1="61.611652351681585" x2="236.11359120657514" y2="57.192234969265655" stroke="black" stroke-width="1"/>
<line x1="236.11359120657514" y1="57.192234969265655" x2="232.98859120657514" y2="57.192234969265655" stroke="black" stroke-width="1"/>
<line x1="232.98859120657514" y1="57.192234969265655" x2="231.88373686097114" y2="58.29708931486965" stroke="black" stroke-width="1"/>
<line x1="232.98859120657514" y1="57.192234969265655" x2="231.88373686097114" y2="56.08738062366166" stroke="black" stroke-width="1"/>
<line x1="236.11359120657514" y1="57.192234969265655" x2="236.11359120657514" y2="54.067234969265655" stroke="black" stroke-width="1"/>
<line x1="236.11359120657514" y1="54.067234969265655" x2="235.00873686097114" y2="52.96238062366166" stroke="black" stroke-width="1"/>
<line x1="236.11359120657514" y1="54.067234969265655" x2="237.2184455521791" y2="52.96238062366166" stroke="black" stroke-width="1"/>
<line x1="253.03300858899104" y1="61.611652351681585" x2="253.03300858899104" y2="49.111652351681585" stroke="black" stroke-width="1"/>
<line x1="253.03300858899104" y1="49.111652351681585" x2="248.61359120657514" y2="44.692234969265655" stroke="black" stroke-width="1"/>
<line x1="248.61359120657514" y1="44.692234969265655" x2="245.48859120657514" y2="44.692234969265655" stroke="black" stroke-width="1"/>
<line x1="245.48859120657514" y1="44.692234969265655" x2="244.38373686097114" y2="45.79708931486965" stroke="black" stroke-width="1"/>
<line x1="245.48859120657514" y1="44.692234969265655" x2="244.38373686097114" y2="43.58738062366166" stroke="black" stroke-width="1"/>
<line x1="248.61359120657514" y1="44.692234969265655" x2="248.61359120657514" y2="41.567234969265655" stroke="black" stroke-width="1"/>
<line x1="248.61359120657514" y1="41.567234969265655" x2="247.50873686097114" y2="40.46238062366166" stroke="black" stroke-width="1"/>
<line x1="248.61359120657514" y1="41.567234969265655" x2="249.7184455521791" y2="40.46238062366166" stroke="black" stroke-width="1"/>
<line x1="253.03300858899104" y1="49.111652351681585" x2="257.45242597140697" y2="44.692234969265655" stroke="black" stroke-width="1"/>
<line x1="257.45242597140697" y1="44.692234969265655" x2="257.45242597140697" y2="41.567234969265655" stroke="black" stroke-width="1"/>
<line x1="257.45242597140697" y1="41.567234969265655" x2="256.34757162580297" y2="40.46238062366166" stroke="black" stroke-width="1"/>
<line x1="257.45242597140697" y1="41.567234969265655" x2="258.55728031701096" y2="40.46238062366166" stroke="black" stroke-width="1"/>
<line x1="257.45242597140697" y1="44.692234969265655" x2="260.57742597140697" y2="44.692234969265655" stroke="black" stroke-width="1"/>
<line x1="260.57742597140697" y1="44.692234969265655" x2="261.68228031701096" y2="43.58738062366166" stroke="black" stroke-width="1"/>
<line x1="260.57742597140697" y1="44.692234969265655" x2="261.68228031701096" y2="45.79708931486965" stroke="black" stroke-width="1"/>
<line x1="270.71067811865476" y1="79.28932188134524" x2="288.3883476483184" y2="61.61165235168153" stroke="black" stroke-width="1"/>
<line x1="288.3883476483184" y1="61.61165235168153" x2="288.3883476483184" y2="49.11165235168153" stroke="black" stroke-width="1"/>
<line x1="288.3883476483184" y1="49.11165235168153" x2="283.9689302659025" y2="44.6922349692656" stroke="black" stroke-width="1"/>
<line x1="283.9689302659025" y1="44.6922349692656" x2="280.8439302659025" y2="44.6922349692656" stroke="black" stroke-width="1"/>
<line x1="280.8439302659025" y1="44.6922349692656" x2="279.73907592029855" y2="45.797089314869595" stroke="black" stroke-width="1"/>
<line x1="280.8439302659025" y1="44.6922349692656" x2="279.73907592029855" y2="43.5873806236616" stroke="black" stroke-width="1"/>
<line x1="283.9689302659025" y1="44.6922349692656" x2="283.9689302659025" y2="41.5672349692656" stroke="black" stroke-width="1"/>
<line x1="283.9689302659025" y1="41.5672349692656" x2="282.86407592029855" y2="40.4623806236616" stroke="black" stroke-width="1"/>
<line x1="283.9689302659025" y1="41.5672349692656" x2="285.0737846115065" y2="40.4623806236616" stroke="black" stroke-width="1"/>
<line x1="288.3883476483184" y1="49.11165235168153" x2="292.80776503073434" y2="44.6922349692656" stroke="black" stroke-width="1"/>
<line x1="292.80776503073434" y1="44.6922349692656" x2="292.80776503073434" y2="41.5672349692656" stroke="black" stroke-width="1"/>
<line x1="292.80776503073434" y1="41.5672349692656" x2="291.70291068513035" y2="40.4623806236616" stroke="black" stroke-width="1"/>
<line x1="292.80776503073434" y1="41.5672349692656" x2="293.9126193763383" y2="40.4623806236616" stroke="black" stroke-width="1"/>
<line x1="292.80776503073434" y1="44.6922349692656" x2="295.93276503073434" y2="44.6922349692656" stroke="black" stroke-width="1"/>
<line x1="295.93276503073434" y1="44.6922349692656" x2="297.0376193763383" y2="43.5873806236616" stroke="black" stroke-width="1"/>
<line x1="295.93276503073434" y1="44.6922349692656" x2="297.0376193763383" y2="45.797089314869595" stroke="black" stroke-width="1"/>
<line x1="288.3883476483184" y1="61.61165235168153" x2="300.8883476483184" y2="61.61165235168153" stroke="black" stroke-width="1"/>
<line x1="300.8883476483184" y1="61.61165235168153" x2="305.30776503073434" y2="57.1922349692656" stroke="black" stroke-width="1"/>
<line x1="305.30776503073434" y1="57.1922349692656" x2="305.30776503073434" y2="54.0672349692656" stroke="black" stroke-width="1"/>
<line x1="305.30776503073434" y1="54.0672349692656" x2="304.20291068513035" y2="52.9623806236616" stroke="black" stroke-width="1"/>
<line x1="305.30776503073434" y1="54.0672349692656" x2="306.4126193763383" y2="52.9623806236616" stroke="black" stroke-width="1"/>
<line x1="305.30776503073434" y1="57.1922349692656" x2="308.43276503073434" y2="57.1922349692656" stroke="black" stroke-width="1"/>
<line x1="308.43276503073434" y1="57.1922349692656" x2="309.5376193763383" y2="56.0873806236616" stroke="black" stroke-width="1"/>
<line x1="308.43276503073434" y1="57.1922349692656" x2="309.5376193763383" y2="58.297089314869595" stroke="black" stroke-width="1"/>
<line x1="300.8883476483184" y1="61.61165235168153" x2="305.30776503073434" y2="66.03106973409746" stroke="black" stroke-width="1"/>
<line x1="305.30776503073434" y1="66.03106973409746" x2="308.43276503073434" y2="66.03106973409746" stroke="black" stroke-width="1"/>
<line x1="308.43276503073434" y1="66.03106973409746" x2="309.53761937633834" y2="64.92621538849346" stroke="black" stroke-width="1"/>
<line x1="308.43276503073434" y1="66.03106973409746" x2="309.53761937633834" y2="67.13592407970145" stroke="black" stroke-width="1"/>
<line x1="305.30776503073434" y1="66.03106973409746" x2="305.30776503073434" y2="69.15606973409746" stroke="black" stroke-width="1"/>
<line x1="305.30776503073434" y1="69.15606973409746" x2="306.41261937633834" y2="70.26092407970145" stroke="black" stroke-width="1"/>
<line x1="305.30776503073434" y1="69.15606973409746" x2="304.20291068513035" y2="70.26092407970145" stroke="black" stroke-width="1"/>
<line x1="270.71067811865476" y1="129.28932188134524" x2="320.71067811865476" y2="129.28932188134524" stroke="black" stroke-width="1"/>
<line x1="320.71067811865476" y1="129.28932188134524" x2="338.3883476483184" y2="111.61165235168153" stroke="black" stroke-width="1"/>
<line x1="338.3883476483184" y1="111.61165235168153" x2="338.3883476483184" y2="99.11165235168153" stroke="black" stroke-width="1"/>
<line x1="338.3883476483184" y1="99.11165235168153" x2="333.9689302659025" y2="94.6922349692656" stroke="black" stroke-width="1"/>
<line x1="333.9689302659025" y1="94.6922349692656" x2="330.8439302659025" y2="94.6922349692656" stroke="black" stroke-width="1"/>
<line x1="330.8439302659025" y1="94.6922349692656" x2="329.73907592029855" y2="95.7970893148696" stroke="black" stroke-width="1"/>
<line x1="330.8439302659025" y1="94.6922349692656" x2="329.73907592029855" y2="93.5873806236616" stroke="black" stroke-width="1"/>
<line x1="333.9689302659025" y1="94.6922349692656" x2="333.9689302659025" y2="91.5672349692656" stroke="black" stroke-width="1"/>
<line x1="333.9689302659025" y1="91.5672349692656" x2="332.86407592029855" y2="90.4623806236616" stroke="black" stroke-width="1"/>
<line x1="333.9689302659025" y1="91.5672349692656" x2="335.0737846115064" y2="90.4623806236616" stroke="black" stroke-width="1"/>
<line x1="338.3883476483184" y1="99.11165235168153" x2="342.80776503073434" y2="94.6922349692656" stroke="black" stroke-width="1"/>
<line x1="342.80776503073434" y1="94.6922349692656" x2="342.80776503073434" y2="91.5672349692656" stroke="black" stroke-width="1"/>
<line x1="342.80776503073434" y1="91.5672349692656" x2="341.7029106851304" y2="90.4623806236616" stroke="black" stroke-width="1"/>
<line x1="342.80776503073434" y1="91.5672349692656" x2="343.9126193763383" y2="90.4623806236616" stroke="black" stroke-width="1"/>
<line x1="342.80776503073434" y1="94.6922349692656" x2="345.93276503073434" y2="94.6922349692656" stroke="black" stroke-width="1"/>
<line x1="345.93276503073434" y1="94.6922349692656" x2="347.0376193763383" y2="93.5873806236616" stroke="black" stroke-width="1"/>
<line x1="345.93276503073434" y1="94.6922349692656" x2="347.0376193763383" y2="95.7970893148696" stroke="black" stroke-width="1"/>
<line x1="338.3883476483184" y1="111.61165235168153" x2="350.8883476483184" y2="111.61165235168153" stroke="black" stroke-width="1"/>
<line x1="350.8883476483184" y1="111.61165235168153" x2="355.30776503073434" y2="107.1922349692656" stroke="black" stroke-width="1"/>
<line x1="355.30776503073434" y1="107.1922349692656" x2="355.30776503073434" y2="104.0672349692656" stroke="black" stroke-width="1"/>
<line x1="355.30776503073434" y1="104.0672349692656" x2="354.2029106851304" y2="102.9623806236616" stroke="black" stroke-width="1"/>
<line x1="355.30776503073434" y1="104.0672349692656" x2="356.4126193763383" y2="102.9623806236616" stroke="black" stroke-width="1"/>
<line x1="355.30776503073434" y1="107.1922349692656" x2="358.43276503073434" y2="107.1922349692656" stroke="black" stroke-width="1"/>
<line x1="358.43276503073434" y1="107.1922349692656" x2="359.5376193763383" y2="106.0873806236616" stroke="black" stroke-width="1"/>
<line x1="358.43276503073434" y1="107.1922349692656" x2="359.5376193763383" y2="108.2970893148696" stroke="black" stroke-width="1"/>
<line x1="350.8883476483184" y1="111.61165235168153" x2="355.30776503073434" y2="116.03106973409746" stroke="black" stroke-width="1"/>
<line x1="355.30776503073434" y1="116.03106973409746" x2="358.43276503073434" y2="116.03106973409746" stroke="black" stroke-width="1"/>
<line x1="358.43276503073434" y1="116.03106973409746" x2="359.5376193763383" y2="114.92621538849346" stroke="black" stroke-width="1"/>
<line x1="358.43276503073434" y1="116.03106973409746" x2="359.5376193763383" y2="117.13592407970145" stroke="black" stroke-width="1"/>
<line x1="355.30776503073434" y1="116.03106973409746" x2="355.30776503073434" y2="119.15606973409746" stroke="black" stroke-width="1"/>
<line x1="355.30776503073434" y1="119.15606973409746" x2="356.4126193763383" y2="120.26092407970145" stroke="black" stroke-width="1"/>
<line x1="355.30776503073434" y1="119.15606973409746" x2="354.2029106851304" y2="120.26092407970145" stroke="black" stroke-width="1"/>
<line x1="320.71067811865476" y1="129.28932188134524" x2="338.3883476483184" y2="146.96699141100893" stroke="black" stroke-width="1"/>
<line x1="338.3883476483184" y1="146.96699141100893" x2="350.8883476483184" y2="146.96699141100893" stroke="black" stroke-width="1"/>
<line x1="350.8883476483184" y1="146.96699141100893" x2="355.30776503073434" y2="142.54757402859303" stroke="black" stroke-width="1"/>
<line x1="355.30776503073434" y1="142.54757402859303" x2="355.30776503073434" y2="139.42257402859303" stroke="black" stroke-width="1"/>
<line x1="355.30776503073434" y1="139.42257402859303" x2="354.2029106851304" y2="138.31771968298904" stroke="black" stroke-width="1"/>
<line x1="355.30776503073434" y1="139.42257402859303" x2="356.4126193763383" y2="138.31771968298904" stroke="black" stroke-width="1"/>
<line x1="355.30776503073434" y1="142.54757402859303" x2="358.43276503073434" y2="142.54757402859303" stroke="black" stroke-width="1"/>
<line x1="358.43276503073434" y1="142.54757402859303" x2="359.5376193763383" y2="141.44271968298904" stroke="black" stroke-width="1"/>
<line x1="358.43276503073434" y1="142.54757402859303" x2="359.5376193763383" y2="143.65242837419703" stroke="black" stroke-width="1"/>
<line x1="350.8883476483184" y1="146.96699141100896" x2="355.30776503073434" y2="151.3864087934249" stroke="black" stroke-width="1"/>
<line x1="355.30776503073434" y1="151.3864087934249" x2="358.43276503073434" y2="151.3864087934249" stroke="black" stroke-width="1"/>
<line x1="358.43276503073434" y1="151.3864087934249" x2="359.5376193763383" y2="150.28155444782092" stroke="black" stroke-width="1"/>
<line x1="358.43276503073434" y1="151.3864087934249" x2="359.5376193763383" y2="152.49126313902886" stroke="black" stroke-width="1"/>
<line x1="355.30776503073434" y1="151.3864087934249" x2="355.30776503073434" y2="154.5114087934249" stroke="black" stroke-width="1"/>
<line x1="355.30776503073434" y1="154.5114087934249" x2="356.4126193763383" y2="155.61626313902886" stroke="black" stroke-width="1"/>
<line x1="355.30776503073434" y1="154.5114087934249" x2="354.2029106851304" y2="155.61626313902886" stroke="black" stroke-width="1"/>
<line x1="338.3883476483184" y1="146.96699141100896" x2="338.3883476483184" y2="159.46699141100896" stroke="black" stroke-width="1"/>
<line x1="338.3883476483184" y1="159.46699141100896" x2="342.80776503073434" y2="163.8864087934249" stroke="black" stroke-width="1"/>
<line x1="342.80776503073434" y1="163.8864087934249" x2="345.93276503073434" y2="163.8864087934249" stroke="black" stroke-width="1"/>
<line x1="345.93276503073434" y1="163.8864087934249" x2="347.0376193763383" y2="162.78155444782092" stroke="black" stroke-width="1"/>
<line x1="345.93276503073434" y1="163.8864087934249" x2="347.0376193763383" y2="164.99126313902886" stroke="black" stroke-width="1"/>
<line x1="342.80776503073434" y1="163.8864087934249" x2="342.80776503073434" y2="167.0114087934249" stroke="black" stroke-width="1"/>
<line x1="342.80776503073434" y1="167.0114087934249" x2="343.9126193763383" y2="168.11626313902886" stroke="black" stroke-width="1"/>
<line x1="342.80776503073434" y1="167.0114087934249" x2="341.7029106851304" y2="168.11626313902886" stroke="black" stroke-width="1"/>
<line x1="338.3883476483184" y1="159.46699141100896" x2="333.9689302659025" y2="163.8864087934249" stroke="black" stroke-width="1"/>
<line x1="333.9689302659025" y1="163.8864087934249" x2="333.9689302659025" y2="167.0114087934249" stroke="black" stroke-width="1"/>
<line x1="333.9689302659025" y1="167.0114087934249" x2="335.0737846115064" y2="168.11626313902886" stroke="black" stroke-width="1"/>
<line x1="333.9689302659025" y1="167.0114087934249" x2="332.86407592029855" y2="168.11626313902886" stroke="black" stroke-width="1"/>
<line x1="333.9689302659025" y1="163.8864087934249" x2="330.8439302659025" y2="163.8864087934249" stroke="black" stroke-width="1"/>
<line x1="330.8439302659025" y1="163.8864087934249" x2="329.73907592029855" y2="164.99126313902886" stroke="black" stroke-width="1"/>
<line x1="330.8439302659025" y1="163.8864087934249" x2="329.73907592029855" y2="162.78155444782092" stroke="black" stroke-width="1"/>
</svg>
