<svg width="200" height="200" xmlns="http://www.w3.org/2000/svg">
<line x1="200" y1="200" x2="187.5" y2="178.34936490538902" stroke="black" stroke-width="1"/>
<line x1="187.5" y1="178.34936490538902" x2="175.0" y2="200.0" stroke="black" stroke-width="1"/>
<line x1="175.0" y1="200.0" x2="200.0" y2="200.0" stroke="black" stroke-width="1"/>
<line x1="200.0" y1="200.0" x2="174.99999999999997" y2="156.69872981077808" stroke="black" stroke-width="1"/>
<line x1="174.99999999999997" y1="156.69872981077808" x2="162.49999999999997" y2="178.34936490538905" stroke="black" stroke-width="1"/>
<line x1="162.49999999999997" y1="178.34936490538905" x2="187.49999999999997" y2="178.34936490538905" stroke="black" stroke-width="1"/>
<line x1="187.49999999999997" y1="178.34936490538905" x2="174.99999999999997" y2="156.69872981077808" stroke="black" stroke-width="1"/>
<line x1="174.99999999999997" y1="156.69872981077808" x2="149.99999999999994" y2="200.0" stroke="black" stroke-width="1"/>
<line x1="149.99999999999994" y1="200.0" x2="174.99999999999994" y2="200.0" stroke="black" stroke-width="1"/>
<line x1="174.99999999999994" y1="200.0" x2="162.49999999999994" y2="178.34936490538905" stroke="black" stroke-width="1"/>
<line x1="162.49999999999994" y1="178.34936490538905" x2="149.99999999999994" y2="200.00000000000003" stroke="black" stroke-width="1"/>
<line x1="149.99999999999994" y1="200.00000000000003" x2="199.99999999999994" y2="200.00000000000003" stroke="black" stroke-width="1"/>
<line x1="199.99999999999994" y1="200.00000000000003" x2="149.9999999999999" y2="113.39745962155618" stroke="black" stroke-width="1"/>
<line x1="149.9999999999999" y1="113.39745962155618" x2="137.4999999999999" y2="135.04809471616716" stroke="black" stroke-width="1"/>
<line x1="137.4999999999999" y1="135.04809471616716" x2="162.4999999999999" y2="135.04809471616716" stroke="black" stroke-width="1"/>
<line x1="162.4999999999999" y1="135.04809471616716" x2="149.9999999999999" y2="113.39745962155618" stroke="black" stroke-width="1"/>
<line x1="149.9999999999999" y1="113.39745962155618" x2="124.99999999999989" y2="156.6987298107781" stroke="black" stroke-width="1"/>
<line x1="124.99999999999989" y1="156.6987298107781" x2="149.9999999999999" y2="156.6987298107781" stroke="black" stroke-width="1"/>
<line x1="149.9999999999999" y1="156.6987298107781" x2="137.4999999999999" y2="135.04809471616716" stroke="black" stroke-width="1"/>
<line x1="137.4999999999999" y1="135.04809471616716" x2="124.99999999999987" y2="156.6987298107781" stroke="black" stroke-width="1"/>
<line x1="124.99999999999987" y1="156.6987298107781" x2="174.9999999999999" y2="156.6987298107781" stroke="black" stroke-width="1"/>
<line x1="174.9999999999999" y1="156.6987298107781" x2="162.49999999999986" y2="135.04809471616716" stroke="black" stroke-width="1"/>
<line x1="162.49999999999986" y1="135.04809471616716" x2="149.99999999999986" y2="156.6987298107781" stroke="black" stroke-width="1"/>
<line x1="149.99999999999986" y1="156.6987298107781" x2="174.99999999999986" y2="156.6987298107781" stroke="black" stroke-width="1"/>
<line x1="174.99999999999986" y1="156.6987298107781" x2="149.99999999999983" y2="113.39745962155621" stroke="black" stroke-width="1"/>
<line x1="149.99999999999983" y1="113.39745962155621" x2="99.99999999999983" y2="200.00000000000006" stroke="black" stroke-width="1"/>
<line x1="99.99999999999983" y1="200.00000000000006" x2="124.99999999999983" y2="200.00000000000006" stroke="black" stroke-width="1"/>
<line x1="124.99999999999983" y1="200.00000000000006" x2="112.49999999999982" y2="178.3493649053891" stroke="black" stroke-width="1"/>
<line x1="112.49999999999982" y1="178.3493649053891" x2="99.99999999999982" y2="200.00000000000009" stroke="black" stroke-width="1"/>
<line x1="99.99999999999982" y1="200.00000000000009" x2="149.99999999999983" y2="200.00000000000009" stroke="black" stroke-width="1"/>
<line x1="149.99999999999983" y1="200.00000000000009" x2="137.4999999999998" y2="178.3493649053891" stroke="black" stroke-width="1"/>
<line x1="137.4999999999998" y1="178.3493649053891" x2="124.9999999999998" y2="200.00000000000009" stroke="black" stroke-width="1"/>
<line x1="124.9999999999998" y1="200.00000000000009" x2="149.9999999999998" y2="200.00000000000009" stroke="black" stroke-width="1"/>
<line x1="149.9999999999998" y1="200.00000000000009" x2="124.99999999999977" y2="156.69872981077816" stroke="black" stroke-width="1"/>
<line x1="124.99999999999977" y1="156.69872981077816" x2="112.49999999999977" y2="178.34936490538914" stroke="black" stroke-width="1"/>
<line x1="112.49999999999977" y1="178.34936490538914" x2="137.49999999999977" y2="178.34936490538914" stroke="black" stroke-width="1"/>
<line x1="137.49999999999977" y1="178.34936490538914" x2="124.99999999999976" y2="156.69872981077816" stroke="black" stroke-width="1"/>
<line x1="124.99999999999976" y1="156.69872981077816" x2="99.99999999999974" y2="200.0000000000001" stroke="black" stroke-width="1"/>
<line x1="99.99999999999974" y1="200.0000000000001" x2="199.99999999999974" y2="200.00000000000009" stroke="black" stroke-width="1"/>
<line x1="199.99999999999974" y1="200.00000000000009" x2="99.99999999999966" y2="26.794919243112417" stroke="black" stroke-width="1"/>
<line x1="99.99999999999966" y1="26.794919243112417" x2="87.49999999999966" y2="48.445554337723394" stroke="black" stroke-width="1"/>
<line x1="87.49999999999966" y1="48.445554337723394" x2="112.49999999999966" y2="48.445554337723394" stroke="black" stroke-width="1"/>
<line x1="112.49999999999966" y1="48.445554337723394" x2="99.99999999999964" y2="26.794919243112446" stroke="black" stroke-width="1"/>
<line x1="99.99999999999964" y1="26.794919243112446" x2="74.99999999999963" y2="70.09618943233437" stroke="black" stroke-width="1"/>
<line x1="74.99999999999963" y1="70.09618943233437" x2="99.99999999999963" y2="70.09618943233437" stroke="black" stroke-width="1"/>
<line x1="99.99999999999963" y1="70.09618943233437" x2="87.49999999999962" y2="48.44555433772342" stroke="black" stroke-width="1"/>
<line x1="87.49999999999962" y1="48.44555433772342" x2="74.99999999999962" y2="70.0961894323344" stroke="black" stroke-width="1"/>
<line x1="74.99999999999962" y1="70.0961894323344" x2="124.99999999999962" y2="70.0961894323344" stroke="black" stroke-width="1"/>
<line x1="124.99999999999962" y1="70.0961894323344" x2="112.4999999999996" y2="48.44555433772345" stroke="black" stroke-width="1"/>
<line x1="112.4999999999996" y1="48.44555433772345" x2="99.9999999999996" y2="70.09618943233443" stroke="black" stroke-width="1"/>
<line x1="99.9999999999996" y1="70.09618943233443" x2="124.9999999999996" y2="70.09618943233443" stroke="black" stroke-width="1"/>
<line x1="124.9999999999996" y1="70.09618943233443" x2="99.99999999999957" y2="26.794919243112503" stroke="black" stroke-width="1"/>
<line x1="99.99999999999957" y1="26.794919243112503" x2="49.999999999999545" y2="113.39745962155637" stroke="black" stroke-width="1"/>
<line x1="49.999999999999545" y1="113.39745962155637" x2="74.99999999999955" y2="113.39745962155637" stroke="black" stroke-width="1"/>
<line x1="74.99999999999955" y1="113.39745962155637" x2="62.499999999999545" y2="91.7468245269454" stroke="black" stroke-width="1"/>
<line x1="62.499999999999545" y1="91.7468245269454" x2="49.999999999999545" y2="113.39745962155637" stroke="black" stroke-width="1"/>
<line x1="49.999999999999545" y1="113.39745962155637" x2="99.99999999999955" y2="113.39745962155637" stroke="black" stroke-width="1"/>
<line x1="99.99999999999955" y1="113.39745962155637" x2="87.49999999999953" y2="91.7468245269454" stroke="black" stroke-width="1"/>
<line x1="87.49999999999953" y1="91.7468245269454" x2="74.99999999999953" y2="113.39745962155637" stroke="black" stroke-width="1"/>
<line x1="74.99999999999953" y1="113.39745962155637" x2="99.99999999999953" y2="113.39745962155637" stroke="black" stroke-width="1"/>
<line x1="99.99999999999953" y1="113.39745962155637" x2="74.99999999999952" y2="70.09618943233446" stroke="black" stroke-width="1"/>
<line x1="74.99999999999952" y1="70.09618943233446" x2="62.49999999999952" y2="91.74682452694542" stroke="black" stroke-width="1"/>
<line x1="62.49999999999952" y1="91.74682452694542" x2="87.49999999999952" y2="91.74682452694542" stroke="black" stroke-width="1"/>
<line x1="87.49999999999952" y1="91.74682452694542" x2="74.9999999999995" y2="70.09618943233446" stroke="black" stroke-width="1"/>
<line x1="74.9999999999995" y1="70.09618943233446" x2="49.99999999999949" y2="113.39745962155638" stroke="black" stroke-width="1"/>
<line x1="49.99999999999949" y1="113.39745962155638" x2="149.9999999999995" y2="113.39745962155638" stroke="black" stroke-width="1"/>
<line x1="149.9999999999995" y1="113.39745962155638" x2="137.4999999999995" y2="91.74682452694542" stroke="black" stroke-width="1"/>
<line x1="137.4999999999995" y1="91.74682452694542" x2="124.99999999999947" y2="113.39745962155638" stroke="black" stroke-width="1"/>
<line x1="124.99999999999947" y1="113.39745962155638" x2="149.9999999999995" y2="113.39745962155638" stroke="black" stroke-width="1"/>
<line x1="149.9999999999995" y1="113.39745962155638" x2="124.99999999999946" y2="70.09618943233446" stroke="black" stroke-width="1"/>
<line x1="124.99999999999946" y1="70.09618943233446" x2="112.49999999999946" y2="91.74682452694542" stroke="black" stroke-width="1"/>
<line x1="112.49999999999946" y1="91.74682452694542" x2="137.49999999999946" y2="91.74682452694542" stroke="black" stroke-width="1"/>
<line x1="137.49999999999946" y1="91.74682452694542" x2="124.99999999999945" y2="70.09618943233446" stroke="black" stroke-width="1"/>
<line x1="124.99999999999945" y1="70.09618943233446" x2="99.99999999999943" y2="113.39745962155638" stroke="black" stroke-width="1"/>
<line x1="99.99999999999943" y1="113.39745962155638" x2="124.99999999999943" y2="113.39745962155638" stroke="black" stroke-width="1"/>
<line x1="124.99999999999943" y1="113.39745962155638" x2="112.49999999999942" y2="91.74682452694542" stroke="black" stroke-width="1"/>
<line x1="112.49999999999942" y1="91.74682452694542" x2="99.99999999999942" y2="113.39745962155638" stroke="black" stroke-width="1"/>
<line x1="99.99999999999942" y1="113.39745962155638" x2="149.99999999999943" y2="113.39745962155638" stroke="black" stroke-width="1"/>
<line x1="149.99999999999943" y1="113.39745962155638" x2="99.99999999999937" y2="26.79491924311253" stroke="black" stroke-width="1"/>
<line x1="99.99999999999937" y1="26.79491924311253" x2="-6.536993168992922e-13" y2="200.00000000000026" stroke="black" stroke-width="1"/>
<line x1="-6.536993168992922e-13" y1="200.00000000000026" x2="24.999999999999346" y2="200.00000000000026" stroke="black" stroke-width="1"/>
<line x1="24.999999999999346" y1="200.00000000000026" x2="12.499999999999346" y2="178.3493649053893" stroke="black" stroke-width="1"/>
<line x1="12.499999999999346" y1="178.3493649053893" x2="-6.536993168992922e-13" y2="200.00000000000026" stroke="black" stroke-width="1"/>
<line x1="-6.536993168992922e-13" y1="200.00000000000026" x2="49.999999999999346" y2="200.00000000000026" stroke="black" stroke-width="1"/>
<line x1="49.999999999999346" y1="200.00000000000026" x2="37.499999999999346" y2="178.3493649053893" stroke="black" stroke-width="1"/>
<line x1="37.499999999999346" y1="178.3493649053893" x2="24.999999999999346" y2="200.00000000000026" stroke="black" stroke-width="1"/>
<line x1="24.999999999999346" y1="200.00000000000026" x2="49.999999999999346" y2="200.00000000000026" stroke="black" stroke-width="1"/>
<line x1="49.999999999999346" y1="200.00000000000026" x2="24.999999999999318" y2="156.69872981077833" stroke="black" stroke-width="1"/>
<line x1="24.999999999999318" y1="156.69872981077833" x2="12.499999999999318" y2="178.3493649053893" stroke="black" stroke-width="1"/>
<line x1="12.499999999999318" y1="178.3493649053893" x2="37.49999999999932" y2="178.3493649053893" stroke="black" stroke-width="1"/>
<line x1="37.49999999999932" y1="178.3493649053893" x2="24.999999999999318" y2="156.69872981077836" stroke="black" stroke-width="1"/>
<line x1="24.999999999999318" y1="156.69872981077836" x2="-6.821210263296962e-13" y2="200.00000000000028" stroke="black" stroke-width="1"/>
<line x1="-6.821210263296962e-13" y1="200.00000000000028" x2="99.99999999999932" y2="200.00000000000028" stroke="black" stroke-width="1"/>
<line x1="99.99999999999932" y1="200.00000000000028" x2="87.4999999999993" y2="178.3493649053893" stroke="black" stroke-width="1"/>
<line x1="87.4999999999993" y1="178.3493649053893" x2="74.9999999999993" y2="200.00000000000028" stroke="black" stroke-width="1"/>
<line x1="74.9999999999993" y1="200.00000000000028" x2="99.9999999999993" y2="200.00000000000028" stroke="black" stroke-width="1"/>
<line x1="99.9999999999993" y1="200.00000000000028" x2="74.99999999999929" y2="156.69872981077836" stroke="black" stroke-width="1"/>
<line x1="74.99999999999929" y1="156.69872981077836" x2="62.49999999999929" y2="178.34936490538934" stroke="black" stroke-width="1"/>
<line x1="62.49999999999929" y1="178.34936490538934" x2="87.49999999999929" y2="178.34936490538934" stroke="black" stroke-width="1"/>
<line x1="87.49999999999929" y1="178.34936490538934" x2="74.99999999999928" y2="156.6987298107784" stroke="black" stroke-width="1"/>
<line x1="74.99999999999928" y1="156.6987298107784" x2="49.99999999999926" y2="200.0000000000003" stroke="black" stroke-width="1"/>
<line x1="49.99999999999926" y1="200.0000000000003" x2="74.99999999999926" y2="200.0000000000003" stroke="black" stroke-width="1"/>
<line x1="74.99999999999926" y1="200.0000000000003" x2="62.49999999999926" y2="178.34936490538934" stroke="black" stroke-width="1"/>
<line x1="62.49999999999926" y1="178.34936490538934" x2="49.99999999999926" y2="200.0000000000003" stroke="black" stroke-width="1"/>
<line x1="49.99999999999926" y1="200.0000000000003" x2="99.99999999999926" y2="200.0000000000003" stroke="black" stroke-width="1"/>
<line x1="99.99999999999926" y1="200.0000000000003" x2="49.999999999999204" y2="113.39745962155648" stroke="black" stroke-width="1"/>
<line x1="49.999999999999204" y1="113.39745962155648" x2="37.499999999999204" y2="135.04809471616744" stroke="black" stroke-width="1"/>
<line x1="37.499999999999204" y1="135.04809471616744" x2="62.499999999999204" y2="135.04809471616744" stroke="black" stroke-width="1"/>
<line x1="62.499999999999204" y1="135.04809471616744" x2="49.999999999999204" y2="113.39745962155648" stroke="black" stroke-width="1"/>
<line x1="49.999999999999204" y1="113.39745962155648" x2="24.999999999999204" y2="156.69872981077842" stroke="black" stroke-width="1"/>
<line x1="24.999999999999204" y1="156.69872981077842" x2="49.999999999999204" y2="156.69872981077842" stroke="black" stroke-width="1"/>
<line x1="49.999999999999204" y1="156.69872981077842" x2="37.499999999999204" y2="135.04809471616744" stroke="black" stroke-width="1"/>
<line x1="37.499999999999204" y1="135.04809471616744" x2="24.999999999999204" y2="156.69872981077842" stroke="black" stroke-width="1"/>
<line x1="24.999999999999204" y1="156.69872981077842" x2="74.9999999999992" y2="156.69872981077842" stroke="black" stroke-width="1"/>
<line x1="74.9999999999992" y1="156.69872981077842" x2="62.499999999999204" y2="135.04809471616744" stroke="black" stroke-width="1"/>
<line x1="62.499999999999204" y1="135.04809471616744" x2="49.999999999999204" y2="156.69872981077842" stroke="black" stroke-width="1"/>
<line x1="49.999999999999204" y1="156.69872981077842" x2="74.9999999999992" y2="156.69872981077842" stroke="black" stroke-width="1"/>
<line x1="74.9999999999992" y1="156.69872981077842" x2="49.999999999999176" y2="113.3974596215565" stroke="black" stroke-width="1"/>
<line x1="49.999999999999176" y1="113.3974596215565" x2="-8.526512829121202e-13" y2="200.00000000000034" stroke="black" stroke-width="1"/>
<line x1="-8.526512829121202e-13" y1="200.00000000000034" x2="199.99999999999915" y2="200.00000000000034" stroke="black" stroke-width="1"/>
</svg>
