<svg width="200" height="200" xmlns="http://www.w3.org/2000/svg">
<line x1="200" y1="200" x2="193.75" y2="189.17468245269453" stroke="black" stroke-width="1"/>
<line x1="193.75" y1="189.17468245269453" x2="187.5" y2="200.0" stroke="black" stroke-width="1"/>
<line x1="187.5" y1="200.0" x2="200.0" y2="200.0" stroke="black" stroke-width="1"/>
<line x1="200.0" y1="200.0" x2="187.5" y2="178.34936490538905" stroke="black" stroke-width="1"/>
<line x1="187.5" y1="178.34936490538905" x2="181.25" y2="189.17468245269453" stroke="black" stroke-width="1"/>
<line x1="181.25" y1="189.17468245269453" x2="193.75" y2="189.17468245269453" stroke="black" stroke-width="1"/>
<line x1="193.75" y1="189.17468245269453" x2="187.49999999999997" y2="178.34936490538905" stroke="black" stroke-width="1"/>
<line x1="187.49999999999997" y1="178.34936490538905" x2="174.99999999999997" y2="200.0" stroke="black" stroke-width="1"/>
<line x1="174.99999999999997" y1="200.0" x2="187.49999999999997" y2="200.0" stroke="black" stroke-width="1"/>
<line x1="187.49999999999997" y1="200.0" x2="181.24999999999997" y2="189.17468245269453" stroke="black" stroke-width="1"/>
<line x1="181.24999999999997" y1="189.17468245269453" x2="174.99999999999997" y2="200.0" stroke="black" stroke-width="1"/>
<line x1="174.99999999999997" y1="200.0" x2="199.99999999999997" y2="200.0" stroke="black" stroke-width="1"/>
<line x1="199.99999999999997" y1="200.0" x2="174.99999999999994" y2="156.6987298107781" stroke="black" stroke-width="1"/>
<line x1="174.99999999999994" y1="156.6987298107781" x2="168.74999999999994" y2="167.52404735808358" stroke="black" stroke-width="1"/>
<line x1="168.74999999999994" y1="167.52404735808358" x2="181.24999999999994" y2="167.52404735808358" stroke="black" stroke-width="1"/>
<line x1="181.24999999999994" y1="167.52404735808358" x2="174.99999999999994" y2="156.6987298107781" stroke="black" stroke-width="1"/>
<line x1="174.99999999999994" y1="156.6987298107781" x2="162.49999999999994" y2="178.34936490538905" stroke="black" stroke-width="1"/>
<line x1="162.49999999999994" y1="178.34936490538905" x2="174.99999999999994" y2="178.34936490538905" stroke="black" stroke-width="1"/>
<line x1="174.99999999999994" y1="178.34936490538905" x2="168.74999999999994" y2="167.52404735808358" stroke="black" stroke-width="1"/>
<line x1="168.74999999999994" y1="167.52404735808358" x2="162.49999999999994" y2="178.34936490538905" stroke="black" stroke-width="1"/>
<line x1="162.49999999999994" y1="178.34936490538905" x2="187.49999999999994" y2="178.34936490538905" stroke="black" stroke-width="1"/>
<line x1="187.49999999999994" y1="178.34936490538905" x2="181.24999999999994" y2="167.52404735808358" stroke="black" stroke-width="1"/>
<line x1="181.24999999999994" y1="167.52404735808358" x2="174.99999999999994" y2="178.34936490538905" stroke="black" stroke-width="1"/>
<line x1="174.99999999999994" y1="178.34936490538905" x2="187.49999999999994" y2="178.34936490538905" stroke="black" stroke-width="1"/>
<line x1="187.49999999999994" y1="178.34936490538905" x2="174.99999999999991" y2="156.6987298107781" stroke="black" stroke-width="1"/>
<line x1="174.99999999999991" y1="156.6987298107781" x2="149.99999999999991" y2="200.00000000000003" stroke="black" stroke-width="1"/>
<line x1="149.99999999999991" y1="200.00000000000003" x2="162.49999999999991" y2="200.00000000000003" stroke="black" stroke-width="1"/>
<line x1="162.49999999999991" y1="200.00000000000003" x2="156.24999999999991" y2="189.17468245269455" stroke="black" stroke-width="1"/>
<line x1="156.24999999999991" y1="189.17468245269455" x2="149.99999999999991" y2="200.00000000000003" stroke="black" stroke-width="1"/>
<line x1="149.99999999999991" y1="200.00000000000003" x2="174.99999999999991" y2="200.00000000000003" stroke="black" stroke-width="1"/>
<line x1="174.99999999999991" y1="200.00000000000003" x2="168.7499999999999" y2="189.17468245269455" stroke="black" stroke-width="1"/>
<line x1="168.7499999999999" y1="189.17468245269455" x2="162.4999999999999" y2="200.00000000000003" stroke="black" stroke-width="1"/>
<line x1="162.4999999999999" y1="200.00000000000003" x2="174.9999999999999" y2="200.00000000000003" stroke="black" stroke-width="1"/>
<line x1="174.9999999999999" y1="200.00000000000003" x2="162.4999999999999" y2="178.34936490538908" stroke="black" stroke-width="1"/>
<line x1="162.4999999999999" y1="178.34936490538908" x2="156.2499999999999" y2="189.17468245269455" stroke="black" stroke-width="1"/>
<line x1="156.2499999999999" y1="189.17468245269455" x2="168.7499999999999" y2="189.17468245269455" stroke="black" stroke-width="1"/>
<line x1="168.7499999999999" y1="189.17468245269455" x2="162.4999999999999" y2="178.34936490538908" stroke="black" stroke-width="1"/>
<line x1="162.4999999999999" y1="178.34936490538908" x2="149.9999999999999" y2="200.00000000000006" stroke="black" stroke-width="1"/>
<line x1="149.9999999999999" y1="200.00000000000006" x2="199.9999999999999" y2="200.00000000000006" stroke="black" stroke-width="1"/>
<line x1="199.9999999999999" y1="200.00000000000006" x2="149.99999999999983" y2="113.39745962155621" stroke="black" stroke-width="1"/>
<line x1="149.99999999999983" y1="113.39745962155621" x2="143.74999999999983" y2="124.2227771688617" stroke="black" stroke-width="1"/>
<line x1="143.74999999999983" y1="124.2227771688617" x2="156.24999999999983" y2="124.2227771688617" stroke="black" stroke-width="1"/>
<line x1="156.24999999999983" y1="124.2227771688617" x2="149.99999999999983" y2="113.39745962155622" stroke="black" stroke-width="1"/>
<line x1="149.99999999999983" y1="113.39745962155622" x2="137.49999999999983" y2="135.04809471616718" stroke="black" stroke-width="1"/>
<line x1="137.49999999999983" y1="135.04809471616718" x2="149.99999999999983" y2="135.04809471616718" stroke="black" stroke-width="1"/>
<line x1="149.99999999999983" y1="135.04809471616718" x2="143.7499999999998" y2="124.22277716886171" stroke="black" stroke-width="1"/>
<line x1="143.7499999999998" y1="124.22277716886171" x2="137.4999999999998" y2="135.0480947161672" stroke="black" stroke-width="1"/>
<line x1="137.4999999999998" y1="135.0480947161672" x2="162.4999999999998" y2="135.0480947161672" stroke="black" stroke-width="1"/>
<line x1="162.4999999999998" y1="135.0480947161672" x2="156.2499999999998" y2="124.22277716886173" stroke="black" stroke-width="1"/>
<line x1="156.2499999999998" y1="124.22277716886173" x2="149.9999999999998" y2="135.0480947161672" stroke="black" stroke-width="1"/>
<line x1="149.9999999999998" y1="135.0480947161672" x2="162.4999999999998" y2="135.0480947161672" stroke="black" stroke-width="1"/>
<line x1="162.4999999999998" y1="135.0480947161672" x2="149.99999999999977" y2="113.39745962155625" stroke="black" stroke-width="1"/>
<line x1="149.99999999999977" y1="113.39745962155625" x2="124.99999999999977" y2="156.6987298107782" stroke="black" stroke-width="1"/>
<line x1="124.99999999999977" y1="156.6987298107782" x2="137.49999999999977" y2="156.6987298107782" stroke="black" stroke-width="1"/>
<line x1="137.49999999999977" y1="156.6987298107782" x2="131.24999999999977" y2="145.8734122634727" stroke="black" stroke-width="1"/>
<line x1="131.24999999999977" y1="145.8734122634727" x2="124.99999999999977" y2="156.6987298107782" stroke="black" stroke-width="1"/>
<line x1="124.99999999999977" y1="156.6987298107782" x2="149.99999999999977" y2="156.6987298107782" stroke="black" stroke-width="1"/>
<line x1="149.99999999999977" y1="156.6987298107782" x2="143.74999999999977" y2="145.8734122634727" stroke="black" stroke-width="1"/>
<line x1="143.74999999999977" y1="145.8734122634727" x2="137.49999999999977" y2="156.6987298107782" stroke="black" stroke-width="1"/>
<line x1="137.49999999999977" y1="156.6987298107782" x2="149.99999999999977" y2="156.6987298107782" stroke="black" stroke-width="1"/>
<line x1="149.99999999999977" y1="156.6987298107782" x2="137.49999999999977" y2="135.0480947161672" stroke="black" stroke-width="1"/>
<line x1="137.49999999999977" y1="135.0480947161672" x2="131.24999999999977" y2="145.87341226347272" stroke="black" stroke-width="1"/>
<line x1="131.24999999999977" y1="145.87341226347272" x2="143.74999999999977" y2="145.87341226347272" stroke="black" stroke-width="1"/>
<line x1="143.74999999999977" y1="145.87341226347272" x2="137.49999999999974" y2="135.0480947161672" stroke="black" stroke-width="1"/>
<line x1="137.49999999999974" y1="135.0480947161672" x2="124.99999999999974" y2="156.6987298107782" stroke="black" stroke-width="1"/>
<line x1="124.99999999999974" y1="156.6987298107782" x2="174.99999999999974" y2="156.6987298107782" stroke="black" stroke-width="1"/>
<line x1="174.99999999999974" y1="156.6987298107782" x2="168.74999999999974" y2="145.87341226347272" stroke="black" stroke-width="1"/>
<line x1="168.74999999999974" y1="145.87341226347272" x2="162.49999999999974" y2="156.6987298107782" stroke="black" stroke-width="1"/>
<line x1="162.49999999999974" y1="156.6987298107782" x2="174.99999999999974" y2="156.6987298107782" stroke="black" stroke-width="1"/>
<line x1="174.99999999999974" y1="156.6987298107782" x2="162.49999999999972" y2="135.0480947161672" stroke="black" stroke-width="1"/>
<line x1="162.49999999999972" y1="135.0480947161672" x2="156.24999999999972" y2="145.87341226347272" stroke="black" stroke-width="1"/>
<line x1="156.24999999999972" y1="145.87341226347272" x2="168.74999999999972" y2="145.87341226347272" stroke="black" stroke-width="1"/>
<line x1="168.74999999999972" y1="145.87341226347272" x2="162.49999999999972" y2="135.0480947161672" stroke="black" stroke-width="1"/>
<line x1="162.49999999999972" y1="135.0480947161672" x2="149.99999999999972" y2="156.6987298107782" stroke="black" stroke-width="1"/>
<line x1="149.99999999999972" y1="156.6987298107782" x2="162.49999999999972" y2="156.6987298107782" stroke="black" stroke-width="1"/>
<line x1="162.49999999999972" y1="156.6987298107782" x2="156.24999999999972" y2="145.87341226347272" stroke="black" stroke-width="1"/>
<line x1="156.24999999999972" y1="145.87341226347272" x2="149.99999999999972" y2="156.6987298107782" stroke="black" stroke-width="1"/>
<line x1="149.99999999999972" y1="156.6987298107782" x2="174.99999999999972" y2="156.6987298107782" stroke="black" stroke-width="1"/>
<line x1="174.99999999999972" y1="156.6987298107782" x2="149.9999999999997" y2="113.39745962155627" stroke="black" stroke-width="1"/>
<line x1="149.9999999999997" y1="113.39745962155627" x2="99.99999999999967" y2="200.0000000000001" stroke="black" stroke-width="1"/>
<line x1="99.99999999999967" y1="200.0000000000001" x2="112.49999999999967" y2="200.0000000000001" stroke="black" stroke-width="1"/>
<line x1="112.49999999999967" y1="200.0000000000001" x2="106.24999999999967" y2="189.17468245269464" stroke="black" stroke-width="1"/>
<line x1="106.24999999999967" y1="189.17468245269464" x2="99.99999999999967" y2="200.00000000000014" stroke="black" stroke-width="1"/>
<line x1="99.99999999999967" y1="200.00000000000014" x2="124.99999999999967" y2="200.00000000000014" stroke="black" stroke-width="1"/>
<line x1="124.99999999999967" y1="200.00000000000014" x2="118.74999999999967" y2="189.17468245269464" stroke="black" stroke-width="1"/>
<line x1="118.74999999999967" y1="189.17468245269464" x2="112.49999999999967" y2="200.00000000000014" stroke="black" stroke-width="1"/>
<line x1="112.49999999999967" y1="200.00000000000014" x2="124.99999999999967" y2="200.00000000000014" stroke="black" stroke-width="1"/>
<line x1="124.99999999999967" y1="200.00000000000014" x2="112.49999999999966" y2="178.34936490538917" stroke="black" stroke-width="1"/>
<line x1="112.49999999999966" y1="178.34936490538917" x2="106.24999999999966" y2="189.17468245269467" stroke="black" stroke-width="1"/>
<line x1="106.24999999999966" y1="189.17468245269467" x2="118.74999999999966" y2="189.17468245269467" stroke="black" stroke-width="1"/>
<line x1="118.74999999999966" y1="189.17468245269467" x2="112.49999999999966" y2="178.34936490538917" stroke="black" stroke-width="1"/>
<line x1="112.49999999999966" y1="178.34936490538917" x2="99.99999999999966" y2="200.00000000000014" stroke="black" stroke-width="1"/>
<line x1="99.99999999999966" y1="200.00000000000014" x2="149.99999999999966" y2="200.00000000000014" stroke="black" stroke-width="1"/>
<line x1="149.99999999999966" y1="200.00000000000014" x2="143.74999999999966" y2="189.17468245269467" stroke="black" stroke-width="1"/>
<line x1="143.74999999999966" y1="189.17468245269467" x2="137.49999999999966" y2="200.00000000000014" stroke="black" stroke-width="1"/>
<line x1="137.49999999999966" y1="200.00000000000014" x2="149.99999999999966" y2="200.00000000000014" stroke="black" stroke-width="1"/>
<line x1="149.99999999999966" y1="200.00000000000014" x2="137.49999999999966" y2="178.3493649053892" stroke="black" stroke-width="1"/>
<line x1="137.49999999999966" y1="178.3493649053892" x2="131.24999999999966" y2="189.17468245269467" stroke="black" stroke-width="1"/>
<line x1="131.24999999999966" y1="189.17468245269467" x2="143.74999999999966" y2="189.17468245269467" stroke="black" stroke-width="1"/>
<line x1="143.74999999999966" y1="189.17468245269467" x2="137.49999999999963" y2="178.3493649053892" stroke="black" stroke-width="1"/>
<line x1="137.49999999999963" y1="178.3493649053892" x2="124.99999999999963" y2="200.00000000000014" stroke="black" stroke-width="1"/>
<line x1="124.99999999999963" y1="200.00000000000014" x2="137.49999999999963" y2="200.00000000000014" stroke="black" stroke-width="1"/>
<line x1="137.49999999999963" y1="200.00000000000014" x2="131.24999999999963" y2="189.17468245269467" stroke="black" stroke-width="1"/>
<line x1="131.24999999999963" y1="189.17468245269467" x2="124.99999999999963" y2="200.00000000000017" stroke="black" stroke-width="1"/>
<line x1="124.99999999999963" y1="200.00000000000017" x2="149.99999999999963" y2="200.00000000000014" stroke="black" stroke-width="1"/>
<line x1="149.99999999999963" y1="200.00000000000014" x2="124.9999999999996" y2="156.69872981077825" stroke="black" stroke-width="1"/>
<line x1="124.9999999999996" y1="156.69872981077825" x2="118.7499999999996" y2="167.52404735808372" stroke="black" stroke-width="1"/>
<line x1="118.7499999999996" y1="167.52404735808372" x2="131.2499999999996" y2="167.52404735808372" stroke="black" stroke-width="1"/>
<line x1="131.2499999999996" y1="167.52404735808372" x2="124.9999999999996" y2="156.69872981077825" stroke="black" stroke-width="1"/>
<line x1="124.9999999999996" y1="156.69872981077825" x2="112.4999999999996" y2="178.3493649053892" stroke="black" stroke-width="1"/>
<line x1="112.4999999999996" y1="178.3493649053892" x2="124.9999999999996" y2="178.3493649053892" stroke="black" stroke-width="1"/>
<line x1="124.9999999999996" y1="178.3493649053892" x2="118.7499999999996" y2="167.52404735808372" stroke="black" stroke-width="1"/>
<line x1="118.7499999999996" y1="167.52404735808372" x2="112.4999999999996" y2="178.34936490538922" stroke="black" stroke-width="1"/>
<line x1="112.4999999999996" y1="178.34936490538922" x2="137.4999999999996" y2="178.34936490538922" stroke="black" stroke-width="1"/>
<line x1="137.4999999999996" y1="178.34936490538922" x2="131.2499999999996" y2="167.52404735808372" stroke="black" stroke-width="1"/>
<line x1="131.2499999999996" y1="167.52404735808372" x2="124.9999999999996" y2="178.34936490538922" stroke="black" stroke-width="1"/>
<line x1="124.9999999999996" y1="178.34936490538922" x2="137.4999999999996" y2="178.34936490538922" stroke="black" stroke-width="1"/>
<line x1="137.4999999999996" y1="178.34936490538922" x2="124.99999999999959" y2="156.69872981077825" stroke="black" stroke-width="1"/>
<line x1="124.99999999999959" y1="156.69872981077825" x2="99.99999999999957" y2="200.00000000000017" stroke="black" stroke-width="1"/>
<line x1="99.99999999999957" y1="200.00000000000017" x2="199.99999999999957" y2="200.00000000000017" stroke="black" stroke-width="1"/>
<line x1="199.99999999999957" y1="200.00000000000017" x2="99.99999999999949" y2="26.794919243112503" stroke="black" stroke-width="1"/>
<line x1="99.99999999999949" y1="26.794919243112503" x2="93.74999999999949" y2="37.62023679041798" stroke="black" stroke-width="1"/>
<line x1="93.74999999999949" y1="37.62023679041798" x2="106.24999999999949" y2="37.62023679041798" stroke="black" stroke-width="1"/>
<line x1="106.24999999999949" y1="37.62023679041798" x2="99.99999999999949" y2="26.794919243112503" stroke="black" stroke-width="1"/>
<line x1="99.99999999999949" y1="26.794919243112503" x2="87.49999999999949" y2="48.44555433772348" stroke="black" stroke-width="1"/>
<line x1="87.49999999999949" y1="48.44555433772348" x2="99.99999999999949" y2="48.44555433772348" stroke="black" stroke-width="1"/>
<line x1="99.99999999999949" y1="48.44555433772348" x2="93.74999999999949" y2="37.620236790418005" stroke="black" stroke-width="1"/>
<line x1="93.74999999999949" y1="37.620236790418005" x2="87.49999999999949" y2="48.44555433772348" stroke="black" stroke-width="1"/>
<line x1="87.49999999999949" y1="48.44555433772348" x2="112.49999999999949" y2="48.44555433772348" stroke="black" stroke-width="1"/>
<line x1="112.49999999999949" y1="48.44555433772348" x2="106.24999999999949" y2="37.620236790418005" stroke="black" stroke-width="1"/>
<line x1="106.24999999999949" y1="37.620236790418005" x2="99.99999999999949" y2="48.44555433772348" stroke="black" stroke-width="1"/>
<line x1="99.99999999999949" y1="48.44555433772348" x2="112.49999999999949" y2="48.44555433772348" stroke="black" stroke-width="1"/>
<line x1="112.49999999999949" y1="48.44555433772348" x2="99.99999999999947" y2="26.79491924311253" stroke="black" stroke-width="1"/>
<line x1="99.99999999999947" y1="26.79491924311253" x2="74.99999999999946" y2="70.09618943233446" stroke="black" stroke-width="1"/>
<line x1="74.99999999999946" y1="70.09618943233446" x2="87.49999999999946" y2="70.09618943233446" stroke="black" stroke-width="1"/>
<line x1="87.49999999999946" y1="70.09618943233446" x2="81.24999999999946" y2="59.27087188502898" stroke="black" stroke-width="1"/>
<line x1="81.24999999999946" y1="59.27087188502898" x2="74.99999999999946" y2="70.09618943233446" stroke="black" stroke-width="1"/>
<line x1="74.99999999999946" y1="70.09618943233446" x2="99.99999999999946" y2="70.09618943233446" stroke="black" stroke-width="1"/>
<line x1="99.99999999999946" y1="70.09618943233446" x2="93.74999999999946" y2="59.27087188502898" stroke="black" stroke-width="1"/>
<line x1="93.74999999999946" y1="59.27087188502898" x2="87.49999999999946" y2="70.09618943233446" stroke="black" stroke-width="1"/>
<line x1="87.49999999999946" y1="70.09618943233446" x2="99.99999999999946" y2="70.09618943233446" stroke="black" stroke-width="1"/>
<line x1="99.99999999999946" y1="70.09618943233446" x2="87.49999999999945" y2="48.44555433772351" stroke="black" stroke-width="1"/>
<line x1="87.49999999999945" y1="48.44555433772351" x2="81.24999999999945" y2="59.27087188502898" stroke="black" stroke-width="1"/>
<line x1="81.24999999999945" y1="59.27087188502898" x2="93.74999999999945" y2="59.27087188502898" stroke="black" stroke-width="1"/>
<line x1="93.74999999999945" y1="59.27087188502898" x2="87.49999999999945" y2="48.44555433772351" stroke="black" stroke-width="1"/>
<line x1="87.49999999999945" y1="48.44555433772351" x2="74.99999999999945" y2="70.09618943233448" stroke="black" stroke-width="1"/>
<line x1="74.99999999999945" y1="70.09618943233448" x2="124.99999999999945" y2="70.09618943233448" stroke="black" stroke-width="1"/>
<line x1="124.99999999999945" y1="70.09618943233448" x2="118.74999999999945" y2="59.27087188502901" stroke="black" stroke-width="1"/>
<line x1="118.74999999999945" y1="59.27087188502901" x2="112.49999999999945" y2="70.09618943233448" stroke="black" stroke-width="1"/>
<line x1="112.49999999999945" y1="70.09618943233448" x2="124.99999999999945" y2="70.09618943233448" stroke="black" stroke-width="1"/>
<line x1="124.99999999999945" y1="70.09618943233448" x2="112.49999999999943" y2="48.445554337723536" stroke="black" stroke-width="1"/>
<line x1="112.49999999999943" y1="48.445554337723536" x2="106.24999999999943" y2="59.27087188502901" stroke="black" stroke-width="1"/>
<line x1="106.24999999999943" y1="59.27087188502901" x2="118.74999999999943" y2="59.27087188502901" stroke="black" stroke-width="1"/>
<line x1="118.74999999999943" y1="59.27087188502901" x2="112.49999999999943" y2="48.445554337723536" stroke="black" stroke-width="1"/>
<line x1="112.49999999999943" y1="48.445554337723536" x2="99.99999999999943" y2="70.09618943233451" stroke="black" stroke-width="1"/>
<line x1="99.99999999999943" y1="70.09618943233451" x2="112.49999999999943" y2="70.09618943233451" stroke="black" stroke-width="1"/>
<line x1="112.49999999999943" y1="70.09618943233451" x2="106.24999999999943" y2="59.27087188502904" stroke="black" stroke-width="1"/>
<line x1="106.24999999999943" y1="59.27087188502904" x2="99.99999999999943" y2="70.09618943233451" stroke="black" stroke-width="1"/>
<line x1="99.99999999999943" y1="70.09618943233451" x2="124.99999999999943" y2="70.09618943233451" stroke="black" stroke-width="1"/>
<line x1="124.99999999999943" y1="70.09618943233451" x2="99.9999999999994" y2="26.794919243112588" stroke="black" stroke-width="1"/>
<line x1="99.9999999999994" y1="26.794919243112588" x2="49.999999999999375" y2="113.39745962155645" stroke="black" stroke-width="1"/>
<line x1="49.999999999999375" y1="113.39745962155645" x2="62.499999999999375" y2="113.39745962155645" stroke="black" stroke-width="1"/>
<line x1="62.499999999999375" y1="113.39745962155645" x2="56.249999999999375" y2="102.57214207425098" stroke="black" stroke-width="1"/>
<line x1="56.249999999999375" y1="102.57214207425098" x2="49.999999999999375" y2="113.39745962155646" stroke="black" stroke-width="1"/>
<line x1="49.999999999999375" y1="113.39745962155646" x2="74.99999999999937" y2="113.39745962155646" stroke="black" stroke-width="1"/>
<line x1="74.99999999999937" y1="113.39745962155646" x2="68.74999999999937" y2="102.57214207425099" stroke="black" stroke-width="1"/>
<line x1="68.74999999999937" y1="102.57214207425099" x2="62.499999999999375" y2="113.39745962155648" stroke="black" stroke-width="1"/>
<line x1="62.499999999999375" y1="113.39745962155648" x2="74.99999999999937" y2="113.39745962155648" stroke="black" stroke-width="1"/>
<line x1="74.99999999999937" y1="113.39745962155648" x2="62.499999999999375" y2="91.74682452694552" stroke="black" stroke-width="1"/>
<line x1="62.499999999999375" y1="91.74682452694552" x2="56.249999999999375" y2="102.572142074251" stroke="black" stroke-width="1"/>
<line x1="56.249999999999375" y1="102.572142074251" x2="68.74999999999937" y2="102.572142074251" stroke="black" stroke-width="1"/>
<line x1="68.74999999999937" y1="102.572142074251" x2="62.499999999999375" y2="91.74682452694553" stroke="black" stroke-width="1"/>
<line x1="62.499999999999375" y1="91.74682452694553" x2="49.999999999999375" y2="113.3974596215565" stroke="black" stroke-width="1"/>
<line x1="49.999999999999375" y1="113.3974596215565" x2="99.99999999999937" y2="113.3974596215565" stroke="black" stroke-width="1"/>
<line x1="99.99999999999937" y1="113.3974596215565" x2="93.74999999999937" y2="102.57214207425102" stroke="black" stroke-width="1"/>
<line x1="93.74999999999937" y1="102.57214207425102" x2="87.49999999999937" y2="113.39745962155651" stroke="black" stroke-width="1"/>
<line x1="87.49999999999937" y1="113.39745962155651" x2="99.99999999999937" y2="113.39745962155651" stroke="black" stroke-width="1"/>
<line x1="99.99999999999937" y1="113.39745962155651" x2="87.49999999999936" y2="91.74682452694555" stroke="black" stroke-width="1"/>
<line x1="87.49999999999936" y1="91.74682452694555" x2="81.24999999999936" y2="102.57214207425103" stroke="black" stroke-width="1"/>
<line x1="81.24999999999936" y1="102.57214207425103" x2="93.74999999999936" y2="102.57214207425103" stroke="black" stroke-width="1"/>
<line x1="93.74999999999936" y1="102.57214207425103" x2="87.49999999999936" y2="91.74682452694556" stroke="black" stroke-width="1"/>
<line x1="87.49999999999936" y1="91.74682452694556" x2="74.99999999999936" y2="113.39745962155652" stroke="black" stroke-width="1"/>
<line x1="74.99999999999936" y1="113.39745962155652" x2="87.49999999999936" y2="113.39745962155652" stroke="black" stroke-width="1"/>
<line x1="87.49999999999936" y1="113.39745962155652" x2="81.24999999999936" y2="102.57214207425105" stroke="black" stroke-width="1"/>
<line x1="81.24999999999936" y1="102.57214207425105" x2="74.99999999999936" y2="113.39745962155654" stroke="black" stroke-width="1"/>
<line x1="74.99999999999936" y1="113.39745962155654" x2="99.99999999999936" y2="113.39745962155654" stroke="black" stroke-width="1"/>
<line x1="99.99999999999936" y1="113.39745962155654" x2="74.99999999999935" y2="70.09618943233463" stroke="black" stroke-width="1"/>
<line x1="74.99999999999935" y1="70.09618943233463" x2="68.74999999999935" y2="80.92150697964011" stroke="black" stroke-width="1"/>
<line x1="68.74999999999935" y1="80.92150697964011" x2="81.24999999999935" y2="80.92150697964011" stroke="black" stroke-width="1"/>
<line x1="81.24999999999935" y1="80.92150697964011" x2="74.99999999999935" y2="70.09618943233463" stroke="black" stroke-width="1"/>
<line x1="74.99999999999935" y1="70.09618943233463" x2="62.499999999999346" y2="91.74682452694559" stroke="black" stroke-width="1"/>
<line x1="62.499999999999346" y1="91.74682452694559" x2="74.99999999999935" y2="91.74682452694559" stroke="black" stroke-width="1"/>
<line x1="74.99999999999935" y1="91.74682452694559" x2="68.74999999999935" y2="80.92150697964011" stroke="black" stroke-width="1"/>
<line x1="68.74999999999935" y1="80.92150697964011" x2="62.499999999999346" y2="91.7468245269456" stroke="black" stroke-width="1"/>
<line x1="62.499999999999346" y1="91.7468245269456" x2="87.49999999999935" y2="91.7468245269456" stroke="black" stroke-width="1"/>
<line x1="87.49999999999935" y1="91.7468245269456" x2="81.24999999999935" y2="80.92150697964013" stroke="black" stroke-width="1"/>
<line x1="81.24999999999935" y1="80.92150697964013" x2="74.99999999999935" y2="91.74682452694562" stroke="black" stroke-width="1"/>
<line x1="74.99999999999935" y1="91.74682452694562" x2="87.49999999999935" y2="91.74682452694562" stroke="black" stroke-width="1"/>
<line x1="87.49999999999935" y1="91.74682452694562" x2="74.99999999999933" y2="70.09618943233465" stroke="black" stroke-width="1"/>
<line x1="74.99999999999933" y1="70.09618943233465" x2="49.99999999999932" y2="113.39745962155658" stroke="black" stroke-width="1"/>
<line x1="49.99999999999932" y1="113.39745962155658" x2="149.99999999999932" y2="113.39745962155658" stroke="black" stroke-width="1"/>
<line x1="149.99999999999932" y1="113.39745962155658" x2="143.74999999999932" y2="102.5721420742511" stroke="black" stroke-width="1"/>
<line x1="143.74999999999932" y1="102.5721420742511" x2="137.49999999999932" y2="113.39745962155659" stroke="black" stroke-width="1"/>
<line x1="137.49999999999932" y1="113.39745962155659" x2="149.99999999999932" y2="113.39745962155659" stroke="black" stroke-width="1"/>
<line x1="149.99999999999932" y1="113.39745962155659" x2="137.49999999999932" y2="91.74682452694563" stroke="black" stroke-width="1"/>
<line x1="137.49999999999932" y1="91.74682452694563" x2="131.24999999999932" y2="102.57214207425112" stroke="black" stroke-width="1"/>
<line x1="131.24999999999932" y1="102.57214207425112" x2="143.74999999999932" y2="102.57214207425112" stroke="black" stroke-width="1"/>
<line x1="143.74999999999932" y1="102.57214207425112" x2="137.4999999999993" y2="91.74682452694564" stroke="black" stroke-width="1"/>
<line x1="137.4999999999993" y1="91.74682452694564" x2="124.99999999999929" y2="113.3974596215566" stroke="black" stroke-width="1"/>
<line x1="124.99999999999929" y1="113.3974596215566" x2="137.4999999999993" y2="113.3974596215566" stroke="black" stroke-width="1"/>
<line x1="137.4999999999993" y1="113.3974596215566" x2="131.2499999999993" y2="102.57214207425113" stroke="black" stroke-width="1"/>
<line x1="131.2499999999993" y1="102.57214207425113" x2="124.99999999999929" y2="113.39745962155662" stroke="black" stroke-width="1"/>
<line x1="124.99999999999929" y1="113.39745962155662" x2="149.9999999999993" y2="113.39745962155662" stroke="black" stroke-width="1"/>
<line x1="149.9999999999993" y1="113.39745962155662" x2="124.99999999999926" y2="70.09618943233471" stroke="black" stroke-width="1"/>
<line x1="124.99999999999926" y1="70.09618943233471" x2="118.74999999999926" y2="80.9215069796402" stroke="black" stroke-width="1"/>
<line x1="118.74999999999926" y1="80.9215069796402" x2="131.24999999999926" y2="80.9215069796402" stroke="black" stroke-width="1"/>
<line x1="131.24999999999926" y1="80.9215069796402" x2="124.99999999999926" y2="70.09618943233471" stroke="black" stroke-width="1"/>
<line x1="124.99999999999926" y1="70.09618943233471" x2="112.49999999999926" y2="91.74682452694567" stroke="black" stroke-width="1"/>
<line x1="112.49999999999926" y1="91.74682452694567" x2="124.99999999999926" y2="91.74682452694567" stroke="black" stroke-width="1"/>
<line x1="124.99999999999926" y1="91.74682452694567" x2="118.74999999999926" y2="80.9215069796402" stroke="black" stroke-width="1"/>
<line x1="118.74999999999926" y1="80.9215069796402" x2="112.49999999999926" y2="91.74682452694569" stroke="black" stroke-width="1"/>
<line x1="112.49999999999926" y1="91.74682452694569" x2="137.49999999999926" y2="91.74682452694569" stroke="black" stroke-width="1"/>
<line x1="137.49999999999926" y1="91.74682452694569" x2="131.24999999999926" y2="80.92150697964021" stroke="black" stroke-width="1"/>
<line x1="131.24999999999926" y1="80.92150697964021" x2="124.99999999999926" y2="91.7468245269457" stroke="black" stroke-width="1"/>
<line x1="124.99999999999926" y1="91.7468245269457" x2="137.49999999999926" y2="91.7468245269457" stroke="black" stroke-width="1"/>
<line x1="137.49999999999926" y1="91.7468245269457" x2="124.99999999999925" y2="70.09618943233474" stroke="black" stroke-width="1"/>
<line x1="124.99999999999925" y1="70.09618943233474" x2="99.99999999999923" y2="113.39745962155666" stroke="black" stroke-width="1"/>
<line x1="99.99999999999923" y1="113.39745962155666" x2="112.49999999999923" y2="113.39745962155666" stroke="black" stroke-width="1"/>
<line x1="112.49999999999923" y1="113.39745962155666" x2="106.24999999999923" y2="102.57214207425119" stroke="black" stroke-width="1"/>
<line x1="106.24999999999923" y1="102.57214207425119" x2="99.99999999999923" y2="113.39745962155668" stroke="black" stroke-width="1"/>
<line x1="99.99999999999923" y1="113.39745962155668" x2="124.99999999999923" y2="113.39745962155668" stroke="black" stroke-width="1"/>
<line x1="124.99999999999923" y1="113.39745962155668" x2="118.74999999999923" y2="102.5721420742512" stroke="black" stroke-width="1"/>
<line x1="118.74999999999923" y1="102.5721420742512" x2="112.49999999999923" y2="113.39745962155669" stroke="black" stroke-width="1"/>
<line x1="112.49999999999923" y1="113.39745962155669" x2="124.99999999999923" y2="113.39745962155669" stroke="black" stroke-width="1"/>
<line x1="124.99999999999923" y1="113.39745962155669" x2="112.49999999999922" y2="91.74682452694573" stroke="black" stroke-width="1"/>
<line x1="112.49999999999922" y1="91.74682452694573" x2="106.24999999999922" y2="102.57214207425122" stroke="black" stroke-width="1"/>
<line x1="106.24999999999922" y1="102.57214207425122" x2="118.74999999999922" y2="102.57214207425122" stroke="black" stroke-width="1"/>
<line x1="118.74999999999922" y1="102.57214207425122" x2="112.49999999999922" y2="91.74682452694574" stroke="black" stroke-width="1"/>
<line x1="112.49999999999922" y1="91.74682452694574" x2="99.99999999999922" y2="113.3974596215567" stroke="black" stroke-width="1"/>
<line x1="99.99999999999922" y1="113.3974596215567" x2="149.9999999999992" y2="113.3974596215567" stroke="black" stroke-width="1"/>
<line x1="149.9999999999992" y1="113.3974596215567" x2="99.99999999999918" y2="26.794919243112872" stroke="black" stroke-width="1"/>
<line x1="99.99999999999918" y1="26.794919243112872" x2="-8.526512829121202e-13" y2="200.0000000000006" stroke="black" stroke-width="1"/>
<line x1="-8.526512829121202e-13" y1="200.0000000000006" x2="12.499999999999147" y2="200.0000000000006" stroke="black" stroke-width="1"/>
<line x1="12.499999999999147" y1="200.0000000000006" x2="6.249999999999147" y2="189.17468245269512" stroke="black" stroke-width="1"/>
<line x1="6.249999999999147" y1="189.17468245269512" x2="-8.526512829121202e-13" y2="200.0000000000006" stroke="black" stroke-width="1"/>
<line x1="-8.526512829121202e-13" y1="200.0000000000006" x2="24.999999999999147" y2="200.0000000000006" stroke="black" stroke-width="1"/>
<line x1="24.999999999999147" y1="200.0000000000006" x2="18.749999999999147" y2="189.17468245269512" stroke="black" stroke-width="1"/>
<line x1="18.749999999999147" y1="189.17468245269512" x2="12.499999999999147" y2="200.0000000000006" stroke="black" stroke-width="1"/>
<line x1="12.499999999999147" y1="200.0000000000006" x2="24.999999999999147" y2="200.0000000000006" stroke="black" stroke-width="1"/>
<line x1="24.999999999999147" y1="200.0000000000006" x2="12.499999999999147" y2="178.34936490538965" stroke="black" stroke-width="1"/>
<line x1="12.499999999999147" y1="178.34936490538965" x2="6.249999999999147" y2="189.17468245269512" stroke="black" stroke-width="1"/>
<line x1="6.249999999999147" y1="189.17468245269512" x2="18.749999999999147" y2="189.17468245269512" stroke="black" stroke-width="1"/>
<line x1="18.749999999999147" y1="189.17468245269512" x2="12.499999999999147" y2="178.34936490538965" stroke="black" stroke-width="1"/>
<line x1="12.499999999999147" y1="178.34936490538965" x2="-8.526512829121202e-13" y2="200.00000000000063" stroke="black" stroke-width="1"/>
<line x1="-8.526512829121202e-13" y1="200.00000000000063" x2="49.99999999999915" y2="200.0000000000006" stroke="black" stroke-width="1"/>
<line x1="49.99999999999915" y1="200.0000000000006" x2="43.74999999999915" y2="189.17468245269512" stroke="black" stroke-width="1"/>
<line x1="43.74999999999915" y1="189.17468245269512" x2="37.49999999999915" y2="200.00000000000063" stroke="black" stroke-width="1"/>
<line x1="37.49999999999915" y1="200.00000000000063" x2="49.99999999999915" y2="200.0000000000006" stroke="black" stroke-width="1"/>
<line x1="49.99999999999915" y1="200.0000000000006" x2="37.49999999999915" y2="178.34936490538965" stroke="black" stroke-width="1"/>
<line x1="37.49999999999915" y1="178.34936490538965" x2="31.249999999999147" y2="189.17468245269512" stroke="black" stroke-width="1"/>
<line x1="31.249999999999147" y1="189.17468245269512" x2="43.74999999999915" y2="189.17468245269512" stroke="black" stroke-width="1"/>
<line x1="43.74999999999915" y1="189.17468245269512" x2="37.49999999999915" y2="178.34936490538965" stroke="black" stroke-width="1"/>
<line x1="37.49999999999915" y1="178.34936490538965" x2="24.999999999999147" y2="200.00000000000063" stroke="black" stroke-width="1"/>
<line x1="24.999999999999147" y1="200.00000000000063" x2="37.49999999999915" y2="200.00000000000063" stroke="black" stroke-width="1"/>
<line x1="37.49999999999915" y1="200.00000000000063" x2="31.249999999999147" y2="189.17468245269515" stroke="black" stroke-width="1"/>
<line x1="31.249999999999147" y1="189.17468245269515" x2="24.999999999999147" y2="200.00000000000063" stroke="black" stroke-width="1"/>
<line x1="24.999999999999147" y1="200.00000000000063" x2="49.99999999999915" y2="200.00000000000063" stroke="black" stroke-width="1"/>
<line x1="49.99999999999915" y1="200.00000000000063" x2="24.99999999999912" y2="156.6987298107787" stroke="black" stroke-width="1"/>
<line x1="24.99999999999912" y1="156.6987298107787" x2="18.74999999999912" y2="167.5240473580842" stroke="black" stroke-width="1"/>
<line x1="18.74999999999912" y1="167.5240473580842" x2="31.24999999999912" y2="167.5240473580842" stroke="black" stroke-width="1"/>
<line x1="31.24999999999912" y1="167.5240473580842" x2="24.99999999999912" y2="156.6987298107787" stroke="black" stroke-width="1"/>
<line x1="24.99999999999912" y1="156.6987298107787" x2="12.499999999999119" y2="178.34936490538968" stroke="black" stroke-width="1"/>
<line x1="12.499999999999119" y1="178.34936490538968" x2="24.99999999999912" y2="178.34936490538968" stroke="black" stroke-width="1"/>
<line x1="24.99999999999912" y1="178.34936490538968" x2="18.74999999999912" y2="167.5240473580842" stroke="black" stroke-width="1"/>
<line x1="18.74999999999912" y1="167.5240473580842" x2="12.499999999999119" y2="178.34936490538968" stroke="black" stroke-width="1"/>
<line x1="12.499999999999119" y1="178.34936490538968" x2="37.49999999999912" y2="178.34936490538968" stroke="black" stroke-width="1"/>
<line x1="37.49999999999912" y1="178.34936490538968" x2="31.24999999999912" y2="167.5240473580842" stroke="black" stroke-width="1"/>
<line x1="31.24999999999912" y1="167.5240473580842" x2="24.99999999999912" y2="178.34936490538968" stroke="black" stroke-width="1"/>
<line x1="24.99999999999912" y1="178.34936490538968" x2="37.49999999999912" y2="178.34936490538968" stroke="black" stroke-width="1"/>
<line x1="37.49999999999912" y1="178.34936490538968" x2="24.99999999999912" y2="156.69872981077873" stroke="black" stroke-width="1"/>
<line x1="24.99999999999912" y1="156.69872981077873" x2="-8.810729923425242e-13" y2="200.00000000000065" stroke="black" stroke-width="1"/>
<line x1="-8.810729923425242e-13" y1="200.00000000000065" x2="99.99999999999912" y2="200.00000000000065" stroke="black" stroke-width="1"/>
<line x1="99.99999999999912" y1="200.00000000000065" x2="93.74999999999912" y2="189.17468245269515" stroke="black" stroke-width="1"/>
<line x1="93.74999999999912" y1="189.17468245269515" x2="87.49999999999912" y2="200.00000000000065" stroke="black" stroke-width="1"/>
<line x1="87.49999999999912" y1="200.00000000000065" x2="99.99999999999912" y2="200.00000000000065" stroke="black" stroke-width="1"/>
<line x1="99.99999999999912" y1="200.00000000000065" x2="87.4999999999991" y2="178.34936490538968" stroke="black" stroke-width="1"/>
<line x1="87.4999999999991" y1="178.34936490538968" x2="81.2499999999991" y2="189.17468245269518" stroke="black" stroke-width="1"/>
<line x1="81.2499999999991" y1="189.17468245269518" x2="93.7499999999991" y2="189.17468245269518" stroke="black" stroke-width="1"/>
<line x1="93.7499999999991" y1="189.17468245269518" x2="87.4999999999991" y2="178.34936490538968" stroke="black" stroke-width="1"/>
<line x1="87.4999999999991" y1="178.34936490538968" x2="74.9999999999991" y2="200.00000000000065" stroke="black" stroke-width="1"/>
<line x1="74.9999999999991" y1="200.00000000000065" x2="87.4999999999991" y2="200.00000000000065" stroke="black" stroke-width="1"/>
<line x1="87.4999999999991" y1="200.00000000000065" x2="81.2499999999991" y2="189.17468245269518" stroke="black" stroke-width="1"/>
<line x1="81.2499999999991" y1="189.17468245269518" x2="74.9999999999991" y2="200.00000000000065" stroke="black" stroke-width="1"/>
<line x1="74.9999999999991" y1="200.00000000000065" x2="99.9999999999991" y2="200.00000000000065" stroke="black" stroke-width="1"/>
<line x1="99.9999999999991" y1="200.00000000000065" x2="74.99999999999909" y2="156.69872981077873" stroke="black" stroke-width="1"/>
<line x1="74.99999999999909" y1="156.69872981077873" x2="68.74999999999909" y2="167.5240473580842" stroke="black" stroke-width="1"/>
<line x1="68.74999999999909" y1="167.5240473580842" x2="81.24999999999909" y2="167.5240473580842" stroke="black" stroke-width="1"/>
<line x1="81.24999999999909" y1="167.5240473580842" x2="74.99999999999909" y2="156.69872981077873" stroke="black" stroke-width="1"/>
<line x1="74.99999999999909" y1="156.69872981077873" x2="62.49999999999909" y2="178.3493649053897" stroke="black" stroke-width="1"/>
<line x1="62.49999999999909" y1="178.3493649053897" x2="74.99999999999909" y2="178.3493649053897" stroke="black" stroke-width="1"/>
<line x1="74.99999999999909" y1="178.3493649053897" x2="68.74999999999909" y2="167.52404735808423" stroke="black" stroke-width="1"/>
<line x1="68.74999999999909" y1="167.52404735808423" x2="62.49999999999909" y2="178.3493649053897" stroke="black" stroke-width="1"/>
<line x1="62.49999999999909" y1="178.3493649053897" x2="87.49999999999909" y2="178.3493649053897" stroke="black" stroke-width="1"/>
<line x1="87.49999999999909" y1="178.3493649053897" x2="81.24999999999909" y2="167.52404735808423" stroke="black" stroke-width="1"/>
<line x1="81.24999999999909" y1="167.52404735808423" x2="74.99999999999909" y2="178.3493649053897" stroke="black" stroke-width="1"/>
<line x1="74.99999999999909" y1="178.3493649053897" x2="87.49999999999909" y2="178.3493649053897" stroke="black" stroke-width="1"/>
<line x1="87.49999999999909" y1="178.3493649053897" x2="74.99999999999908" y2="156.69872981077873" stroke="black" stroke-width="1"/>
<line x1="74.99999999999908" y1="156.69872981077873" x2="49.99999999999906" y2="200.00000000000068" stroke="black" stroke-width="1"/>
<line x1="49.99999999999906" y1="200.00000000000068" x2="62.49999999999906" y2="200.00000000000068" stroke="black" stroke-width="1"/>
<line x1="62.49999999999906" y1="200.00000000000068" x2="56.24999999999906" y2="189.1746824526952" stroke="black" stroke-width="1"/>
<line x1="56.24999999999906" y1="189.1746824526952" x2="49.99999999999906" y2="200.00000000000068" stroke="black" stroke-width="1"/>
<line x1="49.99999999999906" y1="200.00000000000068" x2="74.99999999999906" y2="200.00000000000068" stroke="black" stroke-width="1"/>
<line x1="74.99999999999906" y1="200.00000000000068" x2="68.74999999999906" y2="189.1746824526952" stroke="black" stroke-width="1"/>
<line x1="68.74999999999906" y1="189.1746824526952" x2="62.49999999999906" y2="200.00000000000068" stroke="black" stroke-width="1"/>
<line x1="62.49999999999906" y1="200.00000000000068" x2="74.99999999999906" y2="200.00000000000068" stroke="black" stroke-width="1"/>
<line x1="74.99999999999906" y1="200.00000000000068" x2="62.49999999999906" y2="178.34936490538973" stroke="black" stroke-width="1"/>
<line x1="62.49999999999906" y1="178.34936490538973" x2="56.24999999999906" y2="189.1746824526952" stroke="black" stroke-width="1"/>
<line x1="56.24999999999906" y1="189.1746824526952" x2="68.74999999999906" y2="189.1746824526952" stroke="black" stroke-width="1"/>
<line x1="68.74999999999906" y1="189.1746824526952" x2="62.49999999999906" y2="178.34936490538973" stroke="black" stroke-width="1"/>
<line x1="62.49999999999906" y1="178.34936490538973" x2="49.99999999999906" y2="200.00000000000068" stroke="black" stroke-width="1"/>
<line x1="49.99999999999906" y1="200.00000000000068" x2="99.99999999999906" y2="200.00000000000068" stroke="black" stroke-width="1"/>
<line x1="99.99999999999906" y1="200.00000000000068" x2="49.999999999999034" y2="113.39745962155685" stroke="black" stroke-width="1"/>
<line x1="49.999999999999034" y1="113.39745962155685" x2="43.749999999999034" y2="124.22277716886234" stroke="black" stroke-width="1"/>
<line x1="43.749999999999034" y1="124.22277716886234" x2="56.249999999999034" y2="124.22277716886234" stroke="black" stroke-width="1"/>
<line x1="56.249999999999034" y1="124.22277716886234" x2="49.999999999999034" y2="113.39745962155686" stroke="black" stroke-width="1"/>
<line x1="49.999999999999034" y1="113.39745962155686" x2="37.499999999999034" y2="135.04809471616784" stroke="black" stroke-width="1"/>
<line x1="37.499999999999034" y1="135.04809471616784" x2="49.999999999999034" y2="135.04809471616784" stroke="black" stroke-width="1"/>
<line x1="49.999999999999034" y1="135.04809471616784" x2="43.749999999999034" y2="124.22277716886235" stroke="black" stroke-width="1"/>
<line x1="43.749999999999034" y1="124.22277716886235" x2="37.499999999999034" y2="135.04809471616784" stroke="black" stroke-width="1"/>
<line x1="37.499999999999034" y1="135.04809471616784" x2="62.499999999999034" y2="135.04809471616784" stroke="black" stroke-width="1"/>
<line x1="62.499999999999034" y1="135.04809471616784" x2="56.249999999999034" y2="124.22277716886236" stroke="black" stroke-width="1"/>
<line x1="56.249999999999034" y1="124.22277716886236" x2="49.999999999999034" y2="135.04809471616784" stroke="black" stroke-width="1"/>
<line x1="49.999999999999034" y1="135.04809471616784" x2="62.499999999999034" y2="135.04809471616784" stroke="black" stroke-width="1"/>
<line x1="62.499999999999034" y1="135.04809471616784" x2="49.999999999999034" y2="113.39745962155689" stroke="black" stroke-width="1"/>
<line x1="49.999999999999034" y1="113.39745962155689" x2="24.999999999999034" y2="156.69872981077881" stroke="black" stroke-width="1"/>
<line x1="24.999999999999034" y1="156.69872981077881" x2="37.499999999999034" y2="156.69872981077881" stroke="black" stroke-width="1"/>
<line x1="37.499999999999034" y1="156.69872981077881" x2="31.249999999999034" y2="145.87341226347334" stroke="black" stroke-width="1"/>
<line x1="31.249999999999034" y1="145.87341226347334" x2="24.999999999999034" y2="156.69872981077881" stroke="black" stroke-width="1"/>
<line x1="24.999999999999034" y1="156.69872981077881" x2="49.999999999999034" y2="156.69872981077881" stroke="black" stroke-width="1"/>
<line x1="49.999999999999034" y1="156.69872981077881" x2="43.749999999999034" y2="145.87341226347334" stroke="black" stroke-width="1"/>
<line x1="43.749999999999034" y1="145.87341226347334" x2="37.499999999999034" y2="156.69872981077881" stroke="black" stroke-width="1"/>
<line x1="37.499999999999034" y1="156.69872981077881" x2="49.999999999999034" y2="156.69872981077881" stroke="black" stroke-width="1"/>
<line x1="49.999999999999034" y1="156.69872981077881" x2="37.499999999999034" y2="135.04809471616787" stroke="black" stroke-width="1"/>
<line x1="37.499999999999034" y1="135.04809471616787" x2="31.249999999999034" y2="145.87341226347334" stroke="black" stroke-width="1"/>
<line x1="31.249999999999034" y1="145.87341226347334" x2="43.749999999999034" y2="145.87341226347334" stroke="black" stroke-width="1"/>
<line x1="43.749999999999034" y1="145.87341226347334" x2="37.499999999999034" y2="135.04809471616787" stroke="black" stroke-width="1"/>
<line x1="37.499999999999034" y1="135.04809471616787" x2="24.999999999999034" y2="156.69872981077884" stroke="black" stroke-width="1"/>
<line x1="24.999999999999034" y1="156.69872981077884" x2="74.99999999999903" y2="156.69872981077884" stroke="black" stroke-width="1"/>
<line x1="74.99999999999903" y1="156.69872981077884" x2="68.74999999999903" y2="145.87341226347334" stroke="black" stroke-width="1"/>
<line x1="68.74999999999903" y1="145.87341226347334" x2="62.499999999999034" y2="156.69872981077884" stroke="black" stroke-width="1"/>
<line x1="62.499999999999034" y1="156.69872981077884" x2="74.99999999999903" y2="156.69872981077884" stroke="black" stroke-width="1"/>
<line x1="74.99999999999903" y1="156.69872981077884" x2="62.499999999999034" y2="135.04809471616787" stroke="black" stroke-width="1"/>
<line x1="62.499999999999034" y1="135.04809471616787" x2="56.249999999999034" y2="145.87341226347334" stroke="black" stroke-width="1"/>
<line x1="56.249999999999034" y1="145.87341226347334" x2="68.74999999999903" y2="145.87341226347334" stroke="black" stroke-width="1"/>
<line x1="68.74999999999903" y1="145.87341226347334" x2="62.499999999999034" y2="135.04809471616787" stroke="black" stroke-width="1"/>
<line x1="62.499999999999034" y1="135.04809471616787" x2="49.999999999999034" y2="156.69872981077884" stroke="black" stroke-width="1"/>
<line x1="49.999999999999034" y1="156.69872981077884" x2="62.499999999999034" y2="156.69872981077884" stroke="black" stroke-width="1"/>
<line x1="62.499999999999034" y1="156.69872981077884" x2="56.249999999999034" y2="145.87341226347334" stroke="black" stroke-width="1"/>
<line x1="56.249999999999034" y1="145.87341226347334" x2="49.999999999999034" y2="156.69872981077884" stroke="black" stroke-width="1"/>
<line x1="49.999999999999034" y1="156.69872981077884" x2="74.99999999999903" y2="156.69872981077884" stroke="black" stroke-width="1"/>
<line x1="74.99999999999903" y1="156.69872981077884" x2="49.999999999999005" y2="113.39745962155692" stroke="black" stroke-width="1"/>
<line x1="49.999999999999005" y1="113.39745962155692" x2="-1.0231815394945443e-12" y2="200.0000000000008" stroke="black" stroke-width="1"/>
<line x1="-1.0231815394945443e-12" y1="200.0000000000008" x2="199.99999999999898" y2="200.00000000000077" stroke="black" stroke-width="1"/>
</svg>
