<svg width="200" height="200" xmlns="http://www.w3.org/2000/svg">
<line x1="200" y1="200" x2="175.0" y2="156.69872981077805" stroke="black" stroke-width="1"/>
<line x1="175.0" y1="156.69872981077805" x2="150.0" y2="200.0" stroke="black" stroke-width="1"/>
<line x1="150.0" y1="200.0" x2="200.0" y2="200.0" stroke="black" stroke-width="1"/>
<line x1="200.0" y1="200.0" x2="149.99999999999994" y2="113.39745962155615" stroke="black" stroke-width="1"/>
<line x1="149.99999999999994" y1="113.39745962155615" x2="124.99999999999994" y2="156.69872981077808" stroke="black" stroke-width="1"/>
<line x1="124.99999999999994" y1="156.69872981077808" x2="174.99999999999994" y2="156.69872981077808" stroke="black" stroke-width="1"/>
<line x1="174.99999999999994" y1="156.69872981077808" x2="149.99999999999991" y2="113.39745962155617" stroke="black" stroke-width="1"/>
<line x1="149.99999999999991" y1="113.39745962155617" x2="99.99999999999991" y2="200.00000000000003" stroke="black" stroke-width="1"/>
<line x1="99.99999999999991" y1="200.00000000000003" x2="149.99999999999991" y2="200.00000000000003" stroke="black" stroke-width="1"/>
<line x1="149.99999999999991" y1="200.00000000000003" x2="124.99999999999989" y2="156.6987298107781" stroke="black" stroke-width="1"/>
<line x1="124.99999999999989" y1="156.6987298107781" x2="99.99999999999989" y2="200.00000000000006" stroke="black" stroke-width="1"/>
<line x1="99.99999999999989" y1="200.00000000000006" x2="199.9999999999999" y2="200.00000000000003" stroke="black" stroke-width="1"/>
<line x1="199.9999999999999" y1="200.00000000000003" x2="99.9999999999998" y2="26.79491924311236" stroke="black" stroke-width="1"/>
<line x1="99.9999999999998" y1="26.79491924311236" x2="74.9999999999998" y2="70.09618943233428" stroke="black" stroke-width="1"/>
<line x1="74.9999999999998" y1="70.09618943233428" x2="124.9999999999998" y2="70.09618943233428" stroke="black" stroke-width="1"/>
<line x1="124.9999999999998" y1="70.09618943233428" x2="99.99999999999977" y2="26.79491924311236" stroke="black" stroke-width="1"/>
<line x1="99.99999999999977" y1="26.79491924311236" x2="49.99999999999977" y2="113.39745962155622" stroke="black" stroke-width="1"/>
<line x1="49.99999999999977" y1="113.39745962155622" x2="99.99999999999977" y2="113.39745962155622" stroke="black" stroke-width="1"/>
<line x1="99.99999999999977" y1="113.39745962155622" x2="74.99999999999974" y2="70.09618943233431" stroke="black" stroke-width="1"/>
<line x1="74.99999999999974" y1="70.09618943233431" x2="49.999999999999744" y2="113.39745962155624" stroke="black" stroke-width="1"/>
<line x1="49.999999999999744" y1="113.39745962155624" x2="149.99999999999974" y2="113.39745962155624" stroke="black" stroke-width="1"/>
<line x1="149.99999999999974" y1="113.39745962155624" x2="124.99999999999972" y2="70.09618943233431" stroke="black" stroke-width="1"/>
<line x1="124.99999999999972" y1="70.09618943233431" x2="99.99999999999972" y2="113.39745962155624" stroke="black" stroke-width="1"/>
<line x1="99.99999999999972" y1="113.39745962155624" x2="149.99999999999972" y2="113.39745962155624" stroke="black" stroke-width="1"/>
<line x1="149.99999999999972" y1="113.39745962155624" x2="99.99999999999967" y2="26.794919243112417" stroke="black" stroke-width="1"/>
<line x1="99.99999999999967" y1="26.794919243112417" x2="-3.410605131648481e-13" y2="200.00000000000014" stroke="black" stroke-width="1"/>
<line x1="-3.410605131648481e-13" y1="200.00000000000014" x2="49.99999999999966" y2="200.00000000000014" stroke="black" stroke-width="1"/>
<line x1="49.99999999999966" y1="200.00000000000014" x2="24.99999999999963" y2="156.69872981077822" stroke="black" stroke-width="1"/>
<line x1="24.99999999999963" y1="156.69872981077822" x2="-3.694822225952521e-13" y2="200.00000000000017" stroke="black" stroke-width="1"/>
<line x1="-3.694822225952521e-13" y1="200.00000000000017" x2="99.99999999999963" y2="200.00000000000014" stroke="black" stroke-width="1"/>
<line x1="99.99999999999963" y1="200.00000000000014" x2="74.9999999999996" y2="156.69872981077822" stroke="black" stroke-width="1"/>
<line x1="74.9999999999996" y1="156.69872981077822" x2="49.9999999999996" y2="200.00000000000017" stroke="black" stroke-width="1"/>
<line x1="49.9999999999996" y1="200.00000000000017" x2="99.9999999999996" y2="200.00000000000017" stroke="black" stroke-width="1"/>
<line x1="99.9999999999996" y1="200.00000000000017" x2="49.999999999999545" y2="113.39745962155632" stroke="black" stroke-width="1"/>
<line x1="49.999999999999545" y1="113.39745962155632" x2="24.999999999999545" y2="156.69872981077825" stroke="black" stroke-width="1"/>
<line x1="24.999999999999545" y1="156.69872981077825" x2="74.99999999999955" y2="156.69872981077825" stroke="black" stroke-width="1"/>
<line x1="74.99999999999955" y1="156.69872981077825" x2="49.99999999999952" y2="113.39745962155634" stroke="black" stroke-width="1"/>
<line x1="49.99999999999952" y1="113.39745962155634" x2="-5.115907697472721e-13" y2="200.0000000000002" stroke="black" stroke-width="1"/>
<line x1="-5.115907697472721e-13" y1="200.0000000000002" x2="199.9999999999995" y2="200.0000000000002" stroke="black" stroke-width="1"/>
</svg>
