<svg width="1100" height="300" xmlns="http://www.w3.org/2000/svg">
<line x1="50" y1="150" x2="50.0" y2="120.0" stroke="black" stroke-width="1"/>
<line x1="50.0" y1="120.0" x2="75.98076211353316" y2="135.0" stroke="black" stroke-width="1"/>
<line x1="75.98076211353316" y1="135.0" x2="50.00000000000001" y2="150.0" stroke="black" stroke-width="1"/>
<line x1="110.0" y1="150.0" x2="110.0" y2="120.0" stroke="black" stroke-width="1"/>
<line x1="110.0" y1="120.0" x2="140.0" y2="120.0" stroke="black" stroke-width="1"/>
<line x1="140.0" y1="120.0" x2="140.0" y2="150.0" stroke="black" stroke-width="1"/>
<line x1="140.0" y1="150.0" x2="110.0" y2="150.0" stroke="black" stroke-width="1"/>
<line x1="190.0" y1="150.0" x2="190.0" y2="120.0" stroke="black" stroke-width="1"/>
<line x1="190.0" y1="120.0" x2="218.5316954888546" y2="110.72949016875157" stroke="black" stroke-width="1"/>
<line x1="218.5316954888546" y1="110.72949016875157" x2="236.1652530576288" y2="135.0" stroke="black" stroke-width="1"/>
<line x1="236.1652530576288" y1="135.0" x2="218.5316954888546" y2="159.27050983124843" stroke="black" stroke-width="1"/>
<line x1="218.5316954888546" y1="159.27050983124843" x2="190.0" y2="150.0" stroke="black" stroke-width="1"/>
<line x1="290.0" y1="150.0" x2="290.0" y2="120.0" stroke="black" stroke-width="1"/>
<line x1="290.0" y1="120.0" x2="315.98076211353316" y2="105.0" stroke="black" stroke-width="1"/>
<line x1="315.98076211353316" y1="105.0" x2="341.9615242270663" y2="120.0" stroke="black" stroke-width="1"/>
<line x1="341.9615242270663" y1="120.0" x2="341.9615242270663" y2="150.0" stroke="black" stroke-width="1"/>
<line x1="341.9615242270663" y1="150.0" x2="315.98076211353316" y2="165.0" stroke="black" stroke-width="1"/>
<line x1="315.98076211353316" y1="165.0" x2="290.0" y2="150.0" stroke="black" stroke-width="1"/>
<line x1="410.0" y1="150.0" x2="410.0" y2="120.0" stroke="black" stroke-width="1"/>
<line x1="410.0" y1="120.0" x2="433.4549444740409" y2="101.29530594423798" stroke="black" stroke-width="1"/>
<line x1="433.4549444740409" y1="101.29530594423798" x2="462.7027818394956" y2="107.97093396292742" stroke="black" stroke-width="1"/>
<line x1="462.7027818394956" y1="107.97093396292742" x2="475.7192940130223" y2="135.0" stroke="black" stroke-width="1"/>
<line x1="475.7192940130223" y1="135.0" x2="462.7027818394956" y2="162.02906603707257" stroke="black" stroke-width="1"/>
<line x1="462.7027818394956" y1="162.02906603707257" x2="433.4549444740409" y2="168.704694055762" stroke="black" stroke-width="1"/>
<line x1="433.4549444740409" y1="168.704694055762" x2="410.0" y2="149.99999999999994" stroke="black" stroke-width="1"/>
<line x1="550.0" y1="149.99999999999994" x2="550.0" y2="119.99999999999994" stroke="black" stroke-width="1"/>
<line x1="550.0" y1="119.99999999999994" x2="571.2132034355964" y2="98.78679656440352" stroke="black" stroke-width="1"/>
<line x1="571.2132034355964" y1="98.78679656440352" x2="601.2132034355964" y2="98.78679656440352" stroke="black" stroke-width="1"/>
<line x1="601.2132034355964" y1="98.78679656440352" x2="622.4264068711927" y2="119.99999999999994" stroke="black" stroke-width="1"/>
<line x1="622.4264068711927" y1="119.99999999999994" x2="622.4264068711927" y2="149.99999999999994" stroke="black" stroke-width="1"/>
<line x1="622.4264068711927" y1="149.99999999999994" x2="601.2132034355964" y2="171.21320343559637" stroke="black" stroke-width="1"/>
<line x1="601.2132034355964" y1="171.21320343559637" x2="571.2132034355964" y2="171.21320343559637" stroke="black" stroke-width="1"/>
<line x1="571.2132034355964" y1="171.21320343559637" x2="550.0" y2="149.99999999999994" stroke="black" stroke-width="1"/>
<line x1="710.0" y1="149.99999999999994" x2="710.0" y2="119.99999999999994" stroke="black" stroke-width="1"/>
<line x1="710.0" y1="119.99999999999994" x2="729.2836282905962" y2="97.01866670643061" stroke="black" stroke-width="1"/>
<line x1="729.2836282905962" y1="97.01866670643061" x2="758.8278608809625" y2="91.8092213764227" stroke="black" stroke-width="1"/>
<line x1="758.8278608809625" y1="91.8092213764227" x2="784.8086229944956" y2="106.8092213764227" stroke="black" stroke-width="1"/>
<line x1="784.8086229944956" y1="106.8092213764227" x2="795.0692272942657" y2="134.99999999999994" stroke="black" stroke-width="1"/>
<line x1="795.0692272942657" y1="134.99999999999994" x2="784.8086229944956" y2="163.1907786235772" stroke="black" stroke-width="1"/>
<line x1="784.8086229944956" y1="163.1907786235772" x2="758.8278608809625" y2="178.19077862357722" stroke="black" stroke-width="1"/>
<line x1="758.8278608809625" y1="178.19077862357722" x2="729.2836282905962" y2="172.98133329356932" stroke="black" stroke-width="1"/>
<line x1="729.2836282905962" y1="172.98133329356932" x2="710.0" y2="149.99999999999997" stroke="black" stroke-width="1"/>
<line x1="890.0" y1="149.99999999999997" x2="890.0" y2="119.99999999999996" stroke="black" stroke-width="1"/>
<line x1="890.0" y1="119.99999999999996" x2="905.0" y2="94.0192378864668" stroke="black" stroke-width="1"/>
<line x1="905.0" y1="94.0192378864668" x2="930.9807621135332" y2="79.0192378864668" stroke="black" stroke-width="1"/>
<line x1="930.9807621135332" y1="79.0192378864668" x2="960.9807621135332" y2="79.0192378864668" stroke="black" stroke-width="1"/>
<line x1="960.9807621135332" y1="79.0192378864668" x2="986.9615242270663" y2="94.01923788646678" stroke="black" stroke-width="1"/>
<line x1="986.9615242270663" y1="94.01923788646678" x2="1001.9615242270663" y2="119.99999999999994" stroke="black" stroke-width="1"/>
<line x1="1001.9615242270663" y1="119.99999999999994" x2="1001.9615242270663" y2="149.99999999999994" stroke="black" stroke-width="1"/>
<line x1="1001.9615242270663" y1="149.99999999999994" x2="986.9615242270663" y2="175.9807621135331" stroke="black" stroke-width="1"/>
<line x1="986.9615242270663" y1="175.9807621135331" x2="960.9807621135332" y2="190.9807621135331" stroke="black" stroke-width="1"/>
<line x1="960.9807621135332" y1="190.9807621135331" x2="930.9807621135332" y2="190.98076211353313" stroke="black" stroke-width="1"/>
<line x1="930.9807621135332" y1="190.98076211353313" x2="905.0" y2="175.98076211353313" stroke="black" stroke-width="1"/>
<line x1="905.0" y1="175.98076211353313" x2="890.0" y2="149.99999999999997" stroke="black" stroke-width="1"/>
</svg>
