<svg xmlns="http://www.w3.org/2000/svg">
<line x1="50" y1="150" x2="50.0" y2="120.0" stroke="black" stroke-width="1"/>
<line x1="50.0" y1="120.0" x2="24.019237886466847" y2="135.0" stroke="black" stroke-width="1"/>
<line x1="24.019237886466847" y1="135.0" x2="50.00000000000001" y2="150.0" stroke="black" stroke-width="1"/>
<line x1="110.0" y1="150.0" x2="110.0" y2="120.0" stroke="black" stroke-width="1"/>
<line x1="110.0" y1="120.0" x2="80.0" y2="120.00000000000001" stroke="black" stroke-width="1"/>
<line x1="80.0" y1="120.00000000000001" x2="80.00000000000001" y2="150.0" stroke="black" stroke-width="1"/>
<line x1="80.00000000000001" y1="150.0" x2="110.00000000000001" y2="150.0" stroke="black" stroke-width="1"/>
<line x1="190.0" y1="150.0" x2="190.0" y2="120.0" stroke="black" stroke-width="1"/>
<line x1="190.0" y1="120.0" x2="161.4683045111454" y2="110.7294901687516" stroke="black" stroke-width="1"/>
<line x1="161.4683045111454" y1="110.7294901687516" x2="143.8347469423712" y2="135.0" stroke="black" stroke-width="1"/>
<line x1="143.8347469423712" y1="135.0" x2="161.4683045111454" y2="159.27050983124843" stroke="black" stroke-width="1"/>
<line x1="161.4683045111454" y1="159.27050983124843" x2="190.0" y2="150.0" stroke="black" stroke-width="1"/>
<line x1="290.0" y1="150.0" x2="290.0" y2="120.0" stroke="black" stroke-width="1"/>
<line x1="290.0" y1="120.0" x2="264.01923788646684" y2="105.0" stroke="black" stroke-width="1"/>
<line x1="264.01923788646684" y1="105.0" x2="238.03847577293368" y2="120.00000000000001" stroke="black" stroke-width="1"/>
<line x1="238.03847577293368" y1="120.00000000000001" x2="238.03847577293368" y2="150.0" stroke="black" stroke-width="1"/>
<line x1="238.03847577293368" y1="150.0" x2="264.01923788646684" y2="165.0" stroke="black" stroke-width="1"/>
<line x1="264.01923788646684" y1="165.0" x2="290.0" y2="150.0" stroke="black" stroke-width="1"/>
<line x1="410.0" y1="150.0" x2="410.0" y2="120.0" stroke="black" stroke-width="1"/>
<line x1="410.0" y1="120.0" x2="386.5450555259591" y2="101.295305944238" stroke="black" stroke-width="1"/>
<line x1="386.5450555259591" y1="101.295305944238" x2="357.2972181605044" y2="107.97093396292746" stroke="black" stroke-width="1"/>
<line x1="357.2972181605044" y1="107.97093396292746" x2="344.2807059869777" y2="135.00000000000006" stroke="black" stroke-width="1"/>
<line x1="344.2807059869777" y1="135.00000000000006" x2="357.2972181605045" y2="162.0290660370726" stroke="black" stroke-width="1"/>
<line x1="357.2972181605045" y1="162.0290660370726" x2="386.5450555259592" y2="168.70469405576202" stroke="black" stroke-width="1"/>
<line x1="386.5450555259592" y1="168.70469405576202" x2="410.00000000000006" y2="149.99999999999997" stroke="black" stroke-width="1"/>
<line x1="550.0" y1="149.99999999999997" x2="550.0" y2="119.99999999999997" stroke="black" stroke-width="1"/>
<line x1="550.0" y1="119.99999999999997" x2="528.7867965644036" y2="98.78679656440355" stroke="black" stroke-width="1"/>
<line x1="528.7867965644036" y1="98.78679656440355" x2="498.78679656440363" y2="98.78679656440355" stroke="black" stroke-width="1"/>
<line x1="498.78679656440363" y1="98.78679656440355" x2="477.5735931288072" y2="119.99999999999999" stroke="black" stroke-width="1"/>
<line x1="477.5735931288072" y1="119.99999999999999" x2="477.5735931288072" y2="149.99999999999997" stroke="black" stroke-width="1"/>
<line x1="477.5735931288072" y1="149.99999999999997" x2="498.78679656440363" y2="171.2132034355964" stroke="black" stroke-width="1"/>
<line x1="498.78679656440363" y1="171.2132034355964" x2="528.7867965644036" y2="171.2132034355964" stroke="black" stroke-width="1"/>
<line x1="528.7867965644036" y1="171.2132034355964" x2="550.0" y2="149.99999999999997" stroke="black" stroke-width="1"/>
<line x1="710.0" y1="149.99999999999997" x2="710.0" y2="119.99999999999997" stroke="black" stroke-width="1"/>
<line x1="710.0" y1="119.99999999999997" x2="690.7163717094038" y2="97.01866670643062" stroke="black" stroke-width="1"/>
<line x1="690.7163717094038" y1="97.01866670643062" x2="661.1721391190375" y2="91.80922137642273" stroke="black" stroke-width="1"/>
<line x1="661.1721391190375" y1="91.80922137642273" x2="635.1913770055044" y2="106.80922137642274" stroke="black" stroke-width="1"/>
<line x1="635.1913770055044" y1="106.80922137642274" x2="624.9307727057343" y2="135.0" stroke="black" stroke-width="1"/>
<line x1="624.9307727057343" y1="135.0" x2="635.1913770055044" y2="163.19077862357724" stroke="black" stroke-width="1"/>
<line x1="635.1913770055044" y1="163.19077862357724" x2="661.1721391190375" y2="178.19077862357724" stroke="black" stroke-width="1"/>
<line x1="661.1721391190375" y1="178.19077862357724" x2="690.7163717094038" y2="172.98133329356932" stroke="black" stroke-width="1"/>
<line x1="690.7163717094038" y1="172.98133329356932" x2="710.0" y2="149.99999999999997" stroke="black" stroke-width="1"/>
<line x1="890.0" y1="149.99999999999997" x2="890.0" y2="119.99999999999997" stroke="black" stroke-width="1"/>
<line x1="890.0" y1="119.99999999999997" x2="875.0" y2="94.01923788646681" stroke="black" stroke-width="1"/>
<line x1="875.0" y1="94.01923788646681" x2="849.0192378864668" y2="79.01923788646681" stroke="black" stroke-width="1"/>
<line x1="849.0192378864668" y1="79.01923788646681" x2="819.0192378864668" y2="79.01923788646681" stroke="black" stroke-width="1"/>
<line x1="819.0192378864668" y1="79.01923788646681" x2="793.0384757729337" y2="94.01923788646683" stroke="black" stroke-width="1"/>
<line x1="793.0384757729337" y1="94.01923788646683" x2="778.0384757729337" y2="119.99999999999999" stroke="black" stroke-width="1"/>
<line x1="778.0384757729337" y1="119.99999999999999" x2="778.0384757729337" y2="149.99999999999997" stroke="black" stroke-width="1"/>
<line x1="778.0384757729337" y1="149.99999999999997" x2="793.0384757729337" y2="175.98076211353313" stroke="black" stroke-width="1"/>
<line x1="793.0384757729337" y1="175.98076211353313" x2="819.0192378864668" y2="190.98076211353313" stroke="black" stroke-width="1"/>
<line x1="819.0192378864668" y1="190.98076211353313" x2="849.0192378864668" y2="190.98076211353313" stroke="black" stroke-width="1"/>
<line x1="849.0192378864668" y1="190.98076211353313" x2="875.0" y2="175.98076211353313" stroke="black" stroke-width="1"/>
<line x1="875.0" y1="175.98076211353313" x2="890.0" y2="149.99999999999997" stroke="black" stroke-width="1"/>
</svg>
