<svg width="1500" height="350" xmlns="http://www.w3.org/2000/svg">
<line x1="150" y1="150" x2="150.0" y2="50.0" stroke="black" stroke-width="1"/>
<line x1="150.0" y1="50.0" x2="52.50720878181767" y2="27.747906604368495" stroke="black" stroke-width="1"/>
<line x1="52.50720878181767" y1="27.747906604368495" x2="9.11883487006179" y2="117.84479339461038" stroke="black" stroke-width="1"/>
<line x1="9.11883487006179" y1="117.84479339461038" x2="87.30198311686472" y2="180.1937735804838" stroke="black" stroke-width="1"/>
<line x1="87.30198311686472" y1="180.1937735804838" x2="165.48513136366773" y2="117.84479339461049" stroke="black" stroke-width="1"/>
<line x1="165.48513136366773" y1="117.84479339461049" x2="122.096757451912" y2="27.747906604368552" stroke="black" stroke-width="1"/>
<line x1="122.096757451912" y1="27.747906604368552" x2="24.603966233729608" y2="49.99999999999983" stroke="black" stroke-width="1"/>
<line x1="24.603966233729608" y1="49.99999999999983" x2="24.603966233729437" y2="149.99999999999983" stroke="black" stroke-width="1"/>
<line x1="24.603966233729437" y1="149.99999999999983" x2="122.09675745191177" y2="172.25209339563142" stroke="black" stroke-width="1"/>
<line x1="122.09675745191177" y1="172.25209339563142" x2="165.48513136366773" y2="82.15520660538958" stroke="black" stroke-width="1"/>
<line x1="165.48513136366773" y1="82.15520660538958" x2="87.30198311686485" y2="19.806226419516122" stroke="black" stroke-width="1"/>
<line x1="87.30198311686485" y1="19.806226419516122" x2="9.118834870061761" y2="82.15520660538934" stroke="black" stroke-width="1"/>
<line x1="9.118834870061761" y1="82.15520660538934" x2="52.507208781817425" y2="172.25209339563133" stroke="black" stroke-width="1"/>
<line x1="52.507208781817425" y1="172.25209339563133" x2="149.99999999999983" y2="150.00000000000006" stroke="black" stroke-width="1"/>
<line x1="349.99999999999983" y1="150.00000000000006" x2="349.99999999999983" y2="50.00000000000006" stroke="black" stroke-width="1"/>
<line x1="349.99999999999983" y1="50.00000000000006" x2="251.51922469877903" y2="67.3648177666931" stroke="black" stroke-width="1"/>
<line x1="251.51922469877903" y1="67.3648177666931" x2="285.72123903134593" y2="161.33407984528392" stroke="black" stroke-width="1"/>
<line x1="285.72123903134593" y1="161.33407984528392" x2="372.3237794097898" y2="111.33407984528391" stroke="black" stroke-width="1"/>
<line x1="372.3237794097898" y1="111.33407984528391" x2="308.0450184411358" y2="34.72963553338613" stroke="black" stroke-width="1"/>
<line x1="308.0450184411358" y1="34.72963553338613" x2="243.7662574724819" y2="111.33407984528394" stroke="black" stroke-width="1"/>
<line x1="243.7662574724819" y1="111.33407984528394" x2="330.3687978509258" y2="161.33407984528392" stroke="black" stroke-width="1"/>
<line x1="330.3687978509258" y1="161.33407984528392" x2="364.57081218349265" y2="67.36481776669308" stroke="black" stroke-width="1"/>
<line x1="364.57081218349265" y1="67.36481776669308" x2="266.0900368822718" y2="50.000000000000085" stroke="black" stroke-width="1"/>
<line x1="266.0900368822718" y1="50.000000000000085" x2="266.0900368822719" y2="150.00000000000009" stroke="black" stroke-width="1"/>
<line x1="266.0900368822719" y1="150.00000000000009" x2="364.57081218349265" y2="132.63518223330703" stroke="black" stroke-width="1"/>
<line x1="364.57081218349265" y1="132.63518223330703" x2="330.3687978509258" y2="38.665920154716204" stroke="black" stroke-width="1"/>
<line x1="330.3687978509258" y1="38.665920154716204" x2="243.76625747248193" y2="88.66592015471625" stroke="black" stroke-width="1"/>
<line x1="243.76625747248193" y1="88.66592015471625" x2="308.0450184411359" y2="165.27036446661404" stroke="black" stroke-width="1"/>
<line x1="308.0450184411359" y1="165.27036446661404" x2="372.32377940978984" y2="88.66592015471623" stroke="black" stroke-width="1"/>
<line x1="372.32377940978984" y1="88.66592015471623" x2="285.72123903134593" y2="38.66592015471622" stroke="black" stroke-width="1"/>
<line x1="285.72123903134593" y1="38.66592015471622" x2="251.51922469877906" y2="132.63518223330706" stroke="black" stroke-width="1"/>
<line x1="251.51922469877906" y1="132.63518223330706" x2="349.9999999999999" y2="150.00000000000009" stroke="black" stroke-width="1"/>
<line x1="549.9999999999999" y1="150.00000000000009" x2="549.9999999999999" y2="50.000000000000085" stroke="black" stroke-width="1"/>
<line x1="549.9999999999999" y1="50.000000000000085" x2="454.8943483704845" y2="80.90169943749484" stroke="black" stroke-width="1"/>
<line x1="454.8943483704845" y1="80.90169943749484" x2="513.6728735997318" y2="161.80339887498957" stroke="black" stroke-width="1"/>
<line x1="513.6728735997318" y1="161.80339887498957" x2="572.4513988289791" y2="80.90169943749483" stroke="black" stroke-width="1"/>
<line x1="572.4513988289791" y1="80.90169943749483" x2="477.34574719946374" y2="50.0000000000001" stroke="black" stroke-width="1"/>
<line x1="477.34574719946374" y1="50.0000000000001" x2="477.34574719946374" y2="150.0000000000001" stroke="black" stroke-width="1"/>
<line x1="477.34574719946374" y1="150.0000000000001" x2="572.4513988289791" y2="119.09830056250536" stroke="black" stroke-width="1"/>
<line x1="572.4513988289791" y1="119.09830056250536" x2="513.6728735997317" y2="38.19660112501063" stroke="black" stroke-width="1"/>
<line x1="513.6728735997317" y1="38.19660112501063" x2="454.89434837048447" y2="119.09830056250539" stroke="black" stroke-width="1"/>
<line x1="454.89434837048447" y1="119.09830056250539" x2="549.9999999999998" y2="150.0000000000001" stroke="black" stroke-width="1"/>
<line x1="549.9999999999998" y1="150.0000000000001" x2="549.9999999999998" y2="50.000000000000114" stroke="black" stroke-width="1"/>
<line x1="549.9999999999998" y1="50.000000000000114" x2="454.89434837048447" y2="80.90169943749487" stroke="black" stroke-width="1"/>
<line x1="454.89434837048447" y1="80.90169943749487" x2="513.6728735997318" y2="161.8033988749896" stroke="black" stroke-width="1"/>
<line x1="513.6728735997318" y1="161.8033988749896" x2="572.4513988289791" y2="80.90169943749486" stroke="black" stroke-width="1"/>
<line x1="572.4513988289791" y1="80.90169943749486" x2="477.34574719946374" y2="50.00000000000013" stroke="black" stroke-width="1"/>
<line x1="477.34574719946374" y1="50.00000000000013" x2="477.34574719946374" y2="150.0000000000001" stroke="black" stroke-width="1"/>
<line x1="477.34574719946374" y1="150.0000000000001" x2="572.4513988289791" y2="119.09830056250539" stroke="black" stroke-width="1"/>
<line x1="572.4513988289791" y1="119.09830056250539" x2="513.6728735997317" y2="38.19660112501066" stroke="black" stroke-width="1"/>
<line x1="513.6728735997317" y1="38.19660112501066" x2="454.89434837048447" y2="119.09830056250541" stroke="black" stroke-width="1"/>
<line x1="454.89434837048447" y1="119.09830056250541" x2="549.9999999999998" y2="150.00000000000014" stroke="black" stroke-width="1"/>
<line x1="749.9999999999998" y1="150.00000000000014" x2="749.9999999999998" y2="50.00000000000014" stroke="black" stroke-width="1"/>
<line x1="749.9999999999998" y1="50.00000000000014" x2="659.0368004645479" y2="91.54150130018877" stroke="black" stroke-width="1"/>
<line x1="659.0368004645479" y1="91.54150130018877" x2="734.6117578999738" y2="157.02757469471723" stroke="black" stroke-width="1"/>
<line x1="734.6117578999738" y1="157.02757469471723" x2="762.7850135841167" y2="61.078277333267465" stroke="black" stroke-width="1"/>
<line x1="762.7850135841167" y1="61.078277333267465" x2="663.8028693960234" y2="75.30976116059608" stroke="black" stroke-width="1"/>
<line x1="663.8028693960234" y1="75.30976116059608" x2="717.8669511415833" y2="159.4351144437141" stroke="black" stroke-width="1"/>
<line x1="717.8669511415833" y1="159.4351144437141" x2="771.9310328871429" y2="75.30976116059593" stroke="black" stroke-width="1"/>
<line x1="771.9310328871429" y1="75.30976116059593" x2="672.9488886990496" y2="61.07827733326752" stroke="black" stroke-width="1"/>
<line x1="672.9488886990496" y1="61.07827733326752" x2="701.1221443831927" y2="157.02757469471723" stroke="black" stroke-width="1"/>
<line x1="701.1221443831927" y1="157.02757469471723" x2="776.6971018186184" y2="91.54150130018863" stroke="black" stroke-width="1"/>
<line x1="776.6971018186184" y1="91.54150130018863" x2="685.7339022831666" y2="50.00000000000003" stroke="black" stroke-width="1"/>
<line x1="685.7339022831666" y1="50.00000000000003" x2="685.7339022831667" y2="150.00000000000003" stroke="black" stroke-width="1"/>
<line x1="685.7339022831667" y1="150.00000000000003" x2="776.6971018186184" y2="108.45849869981129" stroke="black" stroke-width="1"/>
<line x1="776.6971018186184" y1="108.45849869981129" x2="701.1221443831926" y2="42.972425305282826" stroke="black" stroke-width="1"/>
<line x1="701.1221443831926" y1="42.972425305282826" x2="672.9488886990497" y2="138.9217226667326" stroke="black" stroke-width="1"/>
<line x1="672.9488886990497" y1="138.9217226667326" x2="771.9310328871429" y2="124.69023883940399" stroke="black" stroke-width="1"/>
<line x1="771.9310328871429" y1="124.69023883940399" x2="717.8669511415831" y2="40.564885556285915" stroke="black" stroke-width="1"/>
<line x1="717.8669511415831" y1="40.564885556285915" x2="663.8028693960234" y2="124.69023883940407" stroke="black" stroke-width="1"/>
<line x1="663.8028693960234" y1="124.69023883940407" x2="762.7850135841168" y2="138.92172266673253" stroke="black" stroke-width="1"/>
<line x1="762.7850135841168" y1="138.92172266673253" x2="734.6117578999738" y2="42.9724253052828" stroke="black" stroke-width="1"/>
<line x1="734.6117578999738" y1="42.9724253052828" x2="659.0368004645479" y2="108.45849869981136" stroke="black" stroke-width="1"/>
<line x1="659.0368004645479" y1="108.45849869981136" x2="749.9999999999998" y2="149.99999999999994" stroke="black" stroke-width="1"/>
<line x1="949.9999999999998" y1="149.99999999999994" x2="949.9999999999998" y2="49.99999999999994" stroke="black" stroke-width="1"/>
<line x1="949.9999999999998" y1="49.99999999999994" x2="867.7016134106341" y2="106.80647467311553" stroke="black" stroke-width="1"/>
<line x1="867.7016134106341" y1="106.80647467311553" x2="961.2032376791756" y2="142.2669633773691" stroke="black" stroke-width="1"/>
<line x1="961.2032376791756" y1="142.2669633773691" x2="937.2716712504199" y2="45.17278163476388" stroke="black" stroke-width="1"/>
<line x1="937.2716712504199" y1="45.17278163476388" x2="870.9594054263404" y2="120.02385645187395" stroke="black" stroke-width="1"/>
<line x1="870.9594054263404" y1="120.02385645187395" x2="970.2302928361457" y2="132.0775244774063" stroke="black" stroke-width="1"/>
<line x1="970.2302928361457" y1="132.0775244774063" x2="923.757975631769" y2="43.531921912085295" stroke="black" stroke-width="1"/>
<line x1="923.757975631769" y1="43.531921912085295" x2="877.285658427392" y2="132.07752447740623" stroke="black" stroke-width="1"/>
<line x1="877.285658427392" y1="132.07752447740623" x2="976.5565458371975" y2="120.02385645187405" stroke="black" stroke-width="1"/>
<line x1="976.5565458371975" y1="120.02385645187405" x2="910.2442800131182" y2="45.172781634763794" stroke="black" stroke-width="1"/>
<line x1="910.2442800131182" y1="45.172781634763794" x2="886.3127135843622" y2="142.26696337736894" stroke="black" stroke-width="1"/>
<line x1="886.3127135843622" y1="142.26696337736894" x2="979.8143378529037" y2="106.80647467311556" stroke="black" stroke-width="1"/>
<line x1="979.8143378529037" y1="106.80647467311556" x2="897.5159512635382" y2="49.99999999999977" stroke="black" stroke-width="1"/>
<line x1="897.5159512635382" y1="49.99999999999977" x2="897.515951263538" y2="149.99999999999977" stroke="black" stroke-width="1"/>
<line x1="897.515951263538" y1="149.99999999999977" x2="979.8143378529038" y2="93.19352532688438" stroke="black" stroke-width="1"/>
<line x1="979.8143378529038" y1="93.19352532688438" x2="886.3127135843624" y2="57.73303662263058" stroke="black" stroke-width="1"/>
<line x1="886.3127135843624" y1="57.73303662263058" x2="910.2442800131179" y2="154.82721836523586" stroke="black" stroke-width="1"/>
<line x1="910.2442800131179" y1="154.82721836523586" x2="976.5565458371976" y2="79.97614354812595" stroke="black" stroke-width="1"/>
<line x1="976.5565458371976" y1="79.97614354812595" x2="877.2856584273923" y2="67.92247552259327" stroke="black" stroke-width="1"/>
<line x1="877.2856584273923" y1="67.92247552259327" x2="923.7579756317688" y2="156.46807808791445" stroke="black" stroke-width="1"/>
<line x1="923.7579756317688" y1="156.46807808791445" x2="970.230292836146" y2="67.92247552259363" stroke="black" stroke-width="1"/>
<line x1="970.230292836146" y1="67.92247552259363" x2="870.9594054263405" y2="79.97614354812555" stroke="black" stroke-width="1"/>
<line x1="870.9594054263405" y1="79.97614354812555" x2="937.2716712504197" y2="154.82721836523592" stroke="black" stroke-width="1"/>
<line x1="937.2716712504197" y1="154.82721836523592" x2="961.2032376791759" y2="57.73303662263082" stroke="black" stroke-width="1"/>
<line x1="961.2032376791759" y1="57.73303662263082" x2="867.7016134106343" y2="93.19352532688399" stroke="black" stroke-width="1"/>
<line x1="867.7016134106343" y1="93.19352532688399" x2="949.9999999999997" y2="149.99999999999994" stroke="black" stroke-width="1"/>
<line x1="1149.9999999999995" y1="149.99999999999991" x2="1149.9999999999995" y2="49.999999999999915" stroke="black" stroke-width="1"/>
<line x1="1149.9999999999995" y1="49.999999999999915" x2="1071.8168517531967" y2="112.34898018587329" stroke="black" stroke-width="1"/>
<line x1="1071.8168517531967" y1="112.34898018587329" x2="1169.3096429713792" y2="134.60107358150478" stroke="black" stroke-width="1"/>
<line x1="1169.3096429713792" y1="134.60107358150478" x2="1125.9212690596232" y2="44.50418679126284" stroke="black" stroke-width="1"/>
<line x1="1125.9212690596232" y1="44.50418679126284" x2="1082.5328951478673" y2="134.6010735815047" stroke="black" stroke-width="1"/>
<line x1="1082.5328951478673" y1="134.6010735815047" x2="1180.0256863660497" y2="112.3489801858734" stroke="black" stroke-width="1"/>
<line x1="1180.0256863660497" y1="112.3489801858734" x2="1101.842538119247" y2="49.99999999999993" stroke="black" stroke-width="1"/>
<line x1="1101.842538119247" y1="49.99999999999993" x2="1101.8425381192467" y2="149.99999999999994" stroke="black" stroke-width="1"/>
<line x1="1101.8425381192467" y1="149.99999999999994" x2="1180.0256863660497" y2="87.65101981412676" stroke="black" stroke-width="1"/>
<line x1="1180.0256863660497" y1="87.65101981412676" x2="1082.5328951478673" y2="65.39892641849508" stroke="black" stroke-width="1"/>
<line x1="1082.5328951478673" y1="65.39892641849508" x2="1125.921269059623" y2="155.49581320873713" stroke="black" stroke-width="1"/>
<line x1="1125.921269059623" y1="155.49581320873713" x2="1169.3096429713792" y2="65.39892641849535" stroke="black" stroke-width="1"/>
<line x1="1169.3096429713792" y1="65.39892641849535" x2="1071.8168517531967" y2="87.65101981412646" stroke="black" stroke-width="1"/>
<line x1="1071.8168517531967" y1="87.65101981412646" x2="1149.9999999999993" y2="150.00000000000009" stroke="black" stroke-width="1"/>
<line x1="1149.9999999999993" y1="150.00000000000009" x2="1149.9999999999995" y2="50.000000000000085" stroke="black" stroke-width="1"/>
<line x1="1149.9999999999995" y1="50.000000000000085" x2="1071.8168517531963" y2="112.3489801858731" stroke="black" stroke-width="1"/>
<line x1="1071.8168517531963" y1="112.3489801858731" x2="1169.3096429713787" y2="134.60107358150498" stroke="black" stroke-width="1"/>
<line x1="1169.3096429713787" y1="134.60107358150498" x2="1125.9212690596232" y2="44.50418679126285" stroke="black" stroke-width="1"/>
<line x1="1125.9212690596232" y1="44.50418679126285" x2="1082.5328951478668" y2="134.60107358150455" stroke="black" stroke-width="1"/>
<line x1="1082.5328951478668" y1="134.60107358150455" x2="1180.0256863660495" y2="112.34898018587363" stroke="black" stroke-width="1"/>
<line x1="1180.0256863660495" y1="112.34898018587363" x2="1101.842538119247" y2="49.9999999999998" stroke="black" stroke-width="1"/>
<line x1="1101.842538119247" y1="49.9999999999998" x2="1101.8425381192465" y2="149.9999999999998" stroke="black" stroke-width="1"/>
<line x1="1101.8425381192465" y1="149.9999999999998" x2="1180.0256863660497" y2="87.65101981412693" stroke="black" stroke-width="1"/>
<line x1="1180.0256863660497" y1="87.65101981412693" x2="1082.5328951478675" y2="65.39892641849491" stroke="black" stroke-width="1"/>
<line x1="1082.5328951478675" y1="65.39892641849491" x2="1125.9212690596228" y2="155.4958132087371" stroke="black" stroke-width="1"/>
<line x1="1125.9212690596228" y1="155.4958132087371" x2="1169.3096429713792" y2="65.3989264184955" stroke="black" stroke-width="1"/>
<line x1="1169.3096429713792" y1="65.3989264184955" x2="1071.8168517531967" y2="87.65101981412627" stroke="black" stroke-width="1"/>
<line x1="1071.8168517531967" y1="87.65101981412627" x2="1149.999999999999" y2="150.0000000000002" stroke="black" stroke-width="1"/>
<line x1="1349.999999999999" y1="150.0000000000002" x2="1349.999999999999" y2="50.0000000000002" stroke="black" stroke-width="1"/>
<line x1="1349.999999999999" y1="50.0000000000002" x2="1275.6855174522598" y2="116.91306063588601" stroke="black" stroke-width="1"/>
<line x1="1275.6855174522598" y1="116.91306063588601" x2="1375.137706989087" y2="127.36590696265137" stroke="black" stroke-width="1"/>
<line x1="1375.137706989087" y1="127.36590696265137" x2="1316.3591817598397" y2="46.46420752515664" stroke="black" stroke-width="1"/>
<line x1="1316.3591817598397" y1="46.46420752515664" x2="1295.5680126780637" y2="144.27896759853718" stroke="black" stroke-width="1"/>
<line x1="1295.5680126780637" y1="144.27896759853718" x2="1382.1705530565075" y2="94.27896759853718" stroke="black" stroke-width="1"/>
<line x1="1382.1705530565075" y1="94.27896759853718" x2="1287.064901426992" y2="63.37726816104245" stroke="black" stroke-width="1"/>
<line x1="1287.064901426992" y1="63.37726816104245" x2="1327.7385657345721" y2="154.73181392530253" stroke="black" stroke-width="1"/>
<line x1="1327.7385657345721" y1="154.73181392530253" x2="1368.4122300421523" y2="63.37726816104245" stroke="black" stroke-width="1"/>
<line x1="1368.4122300421523" y1="63.37726816104245" x2="1273.306578412637" y2="94.2789675985372" stroke="black" stroke-width="1"/>
<line x1="1273.306578412637" y1="94.2789675985372" x2="1359.9091187910808" y2="144.27896759853718" stroke="black" stroke-width="1"/>
<line x1="1359.9091187910808" y1="144.27896759853718" x2="1339.1179497093049" y2="46.46420752515664" stroke="black" stroke-width="1"/>
<line x1="1339.1179497093049" y1="46.46420752515664" x2="1280.3394244800575" y2="127.3659069626514" stroke="black" stroke-width="1"/>
<line x1="1280.3394244800575" y1="127.3659069626514" x2="1379.7916140168848" y2="116.91306063588604" stroke="black" stroke-width="1"/>
<line x1="1379.7916140168848" y1="116.91306063588604" x2="1305.4771314691452" y2="50.000000000000256" stroke="black" stroke-width="1"/>
<line x1="1305.4771314691452" y1="50.000000000000256" x2="1305.4771314691452" y2="150.00000000000026" stroke="black" stroke-width="1"/>
<line x1="1305.4771314691452" y1="150.00000000000026" x2="1379.7916140168845" y2="83.08693936411443" stroke="black" stroke-width="1"/>
<line x1="1379.7916140168845" y1="83.08693936411443" x2="1280.3394244800572" y2="72.63409303734913" stroke="black" stroke-width="1"/>
<line x1="1280.3394244800572" y1="72.63409303734913" x2="1339.1179497093046" y2="153.53579247484384" stroke="black" stroke-width="1"/>
<line x1="1339.1179497093046" y1="153.53579247484384" x2="1359.9091187910806" y2="55.72103240146329" stroke="black" stroke-width="1"/>
<line x1="1359.9091187910806" y1="55.72103240146329" x2="1273.3065784126368" y2="105.72103240146333" stroke="black" stroke-width="1"/>
<line x1="1273.3065784126368" y1="105.72103240146333" x2="1368.4122300421523" y2="136.62273183895806" stroke="black" stroke-width="1"/>
<line x1="1368.4122300421523" y1="136.62273183895806" x2="1327.7385657345721" y2="45.26818607469798" stroke="black" stroke-width="1"/>
<line x1="1327.7385657345721" y1="45.26818607469798" x2="1287.064901426992" y2="136.62273183895806" stroke="black" stroke-width="1"/>
<line x1="1287.064901426992" y1="136.62273183895806" x2="1382.1705530565073" y2="105.72103240146332" stroke="black" stroke-width="1"/>
<line x1="1382.1705530565073" y1="105.72103240146332" x2="1295.5680126780635" y2="55.721032401463304" stroke="black" stroke-width="1"/>
<line x1="1295.5680126780635" y1="55.721032401463304" x2="1316.3591817598394" y2="153.53579247484387" stroke="black" stroke-width="1"/>
<line x1="1316.3591817598394" y1="153.53579247484387" x2="1375.1377069890868" y2="72.63409303734913" stroke="black" stroke-width="1"/>
<line x1="1375.1377069890868" y1="72.63409303734913" x2="1275.6855174522595" y2="83.08693936411447" stroke="black" stroke-width="1"/>
<line x1="1275.6855174522595" y1="83.08693936411447" x2="1349.999999999999" y2="150.00000000000028" stroke="black" stroke-width="1"/>
<line x1="150" y1="300" x2="150.0" y2="200.0" stroke="black" stroke-width="1"/>
<line x1="150.0" y1="200.0" x2="79.28932188134526" y2="270.71067811865476" stroke="black" stroke-width="1"/>
<line x1="79.28932188134526" y1="270.71067811865476" x2="179.28932188134524" y2="270.71067811865476" stroke="black" stroke-width="1"/>
<line x1="179.28932188134524" y1="270.71067811865476" x2="108.57864376269049" y2="200.00000000000003" stroke="black" stroke-width="1"/>
<line x1="108.57864376269049" y1="200.00000000000003" x2="108.5786437626905" y2="300.0" stroke="black" stroke-width="1"/>
<line x1="108.5786437626905" y1="300.0" x2="179.28932188134524" y2="229.28932188134527" stroke="black" stroke-width="1"/>
<line x1="179.28932188134524" y1="229.28932188134527" x2="79.28932188134524" y2="229.2893218813453" stroke="black" stroke-width="1"/>
<line x1="79.28932188134524" y1="229.2893218813453" x2="150.0" y2="300.0" stroke="black" stroke-width="1"/>
<line x1="150.0" y1="300.0" x2="150.0" y2="200.00000000000003" stroke="black" stroke-width="1"/>
<line x1="150.0" y1="200.00000000000003" x2="79.28932188134526" y2="270.7106781186548" stroke="black" stroke-width="1"/>
<line x1="79.28932188134526" y1="270.7106781186548" x2="179.28932188134524" y2="270.7106781186548" stroke="black" stroke-width="1"/>
<line x1="179.28932188134524" y1="270.7106781186548" x2="108.57864376269049" y2="200.00000000000006" stroke="black" stroke-width="1"/>
<line x1="108.57864376269049" y1="200.00000000000006" x2="108.5786437626905" y2="300.00000000000006" stroke="black" stroke-width="1"/>
<line x1="108.5786437626905" y1="300.00000000000006" x2="179.28932188134524" y2="229.2893218813453" stroke="black" stroke-width="1"/>
<line x1="179.28932188134524" y1="229.2893218813453" x2="79.28932188134524" y2="229.2893218813453" stroke="black" stroke-width="1"/>
<line x1="79.28932188134524" y1="229.2893218813453" x2="150.0" y2="300.00000000000006" stroke="black" stroke-width="1"/>
<line x1="150.0" y1="300.00000000000006" x2="150.0" y2="200.00000000000006" stroke="black" stroke-width="1"/>
<line x1="150.0" y1="200.00000000000006" x2="79.28932188134526" y2="270.7106781186548" stroke="black" stroke-width="1"/>
<line x1="79.28932188134526" y1="270.7106781186548" x2="179.28932188134524" y2="270.7106781186548" stroke="black" stroke-width="1"/>
<line x1="179.28932188134524" y1="270.7106781186548" x2="108.57864376269049" y2="200.00000000000009" stroke="black" stroke-width="1"/>
<line x1="108.57864376269049" y1="200.00000000000009" x2="108.5786437626905" y2="300.0000000000001" stroke="black" stroke-width="1"/>
<line x1="108.5786437626905" y1="300.0000000000001" x2="179.28932188134524" y2="229.28932188134533" stroke="black" stroke-width="1"/>
<line x1="179.28932188134524" y1="229.28932188134533" x2="79.28932188134524" y2="229.28932188134536" stroke="black" stroke-width="1"/>
<line x1="79.28932188134524" y1="229.28932188134536" x2="150.0" y2="300.0000000000001" stroke="black" stroke-width="1"/>
<line x1="150.0" y1="300.0000000000001" x2="150.0" y2="200.00000000000009" stroke="black" stroke-width="1"/>
<line x1="150.0" y1="200.00000000000009" x2="79.28932188134526" y2="270.71067811865487" stroke="black" stroke-width="1"/>
<line x1="79.28932188134526" y1="270.71067811865487" x2="179.28932188134524" y2="270.71067811865487" stroke="black" stroke-width="1"/>
<line x1="179.28932188134524" y1="270.71067811865487" x2="108.57864376269049" y2="200.0000000000001" stroke="black" stroke-width="1"/>
<line x1="108.57864376269049" y1="200.0000000000001" x2="108.5786437626905" y2="300.0000000000001" stroke="black" stroke-width="1"/>
<line x1="108.5786437626905" y1="300.0000000000001" x2="179.28932188134524" y2="229.28932188134536" stroke="black" stroke-width="1"/>
<line x1="179.28932188134524" y1="229.28932188134536" x2="79.28932188134524" y2="229.28932188134536" stroke="black" stroke-width="1"/>
<line x1="79.28932188134524" y1="229.28932188134536" x2="150.0" y2="300.0000000000001" stroke="black" stroke-width="1"/>
<line x1="350.0" y1="300.0000000000001" x2="350.0" y2="200.0000000000001" stroke="black" stroke-width="1"/>
<line x1="350.0" y1="200.0000000000001" x2="282.63043563534427" y2="273.90089172206604" stroke="black" stroke-width="1"/>
<line x1="282.63043563534427" y1="273.90089172206604" x2="382.20385326484774" y2="264.6740557757358" stroke="black" stroke-width="1"/>
<line x1="382.20385326484774" y1="264.6740557757358" x2="302.40213053682373" y2="204.41059213781023" stroke="black" stroke-width="1"/>
<line x1="302.40213053682373" y1="204.41059213781023" x2="320.7770823184809" y2="302.7079021062004" stroke="black" stroke-width="1"/>
<line x1="320.7770823184809" y1="302.7079021062004" x2="373.4202986062163" y2="217.68618853323892" stroke="black" stroke-width="1"/>
<line x1="373.4202986062163" y1="217.68618853323892" x2="277.23773428893446" y2="245.05248754044732" stroke="black" stroke-width="1"/>
<line x1="277.23773428893446" y1="245.05248754044732" x2="366.75406342444074" y2="289.626323118101" stroke="black" stroke-width="1"/>
<line x1="366.75406342444074" y1="289.626323118101" x2="330.62989680572537" y2="196.37910017766546" stroke="black" stroke-width="1"/>
<line x1="330.62989680572537" y1="196.37910017766546" x2="294.50573018701016" y2="289.6263231181011" stroke="black" stroke-width="1"/>
<line x1="294.50573018701016" y1="289.6263231181011" x2="384.0220593225164" y2="245.05248754044715" stroke="black" stroke-width="1"/>
<line x1="384.0220593225164" y1="245.05248754044715" x2="287.8394950052344" y2="217.68618853323903" stroke="black" stroke-width="1"/>
<line x1="287.8394950052344" y1="217.68618853323903" x2="340.4827112929702" y2="302.7079021062003" stroke="black" stroke-width="1"/>
<line x1="340.4827112929702" y1="302.7079021062003" x2="358.85766307462694" y2="204.4105921378101" stroke="black" stroke-width="1"/>
<line x1="358.85766307462694" y1="204.4105921378101" x2="279.05594034660317" y2="264.67405577573595" stroke="black" stroke-width="1"/>
<line x1="279.05594034660317" y1="264.67405577573595" x2="378.62935797610663" y2="273.9008917220659" stroke="black" stroke-width="1"/>
<line x1="378.62935797610663" y1="273.9008917220659" x2="311.25979361145073" y2="200.00000000000017" stroke="black" stroke-width="1"/>
<line x1="311.25979361145073" y1="200.00000000000017" x2="311.25979361145096" y2="300.00000000000017" stroke="black" stroke-width="1"/>
<line x1="311.25979361145096" y1="300.00000000000017" x2="378.62935797610646" y2="226.09910827793408" stroke="black" stroke-width="1"/>
<line x1="378.62935797610646" y1="226.09910827793408" x2="279.05594034660305" y2="235.32594422426462" stroke="black" stroke-width="1"/>
<line x1="279.05594034660305" y1="235.32594422426462" x2="358.8576630746272" y2="295.58940786219" stroke="black" stroke-width="1"/>
<line x1="358.8576630746272" y1="295.58940786219" x2="340.48271129296984" y2="197.29209789379988" stroke="black" stroke-width="1"/>
<line x1="340.48271129296984" y1="197.29209789379988" x2="287.8394950052346" y2="282.3138114667615" stroke="black" stroke-width="1"/>
<line x1="287.8394950052346" y1="282.3138114667615" x2="384.0220593225164" y2="254.9475124595528" stroke="black" stroke-width="1"/>
<line x1="384.0220593225164" y1="254.9475124595528" x2="294.50573018701" y2="210.37367688189929" stroke="black" stroke-width="1"/>
<line x1="294.50573018701" y1="210.37367688189929" x2="330.6298968057256" y2="303.62089982233476" stroke="black" stroke-width="1"/>
<line x1="330.6298968057256" y1="303.62089982233476" x2="366.7540634244406" y2="210.37367688189903" stroke="black" stroke-width="1"/>
<line x1="366.7540634244406" y1="210.37367688189903" x2="277.2377342889345" y2="254.94751245955322" stroke="black" stroke-width="1"/>
<line x1="277.2377342889345" y1="254.94751245955322" x2="373.42029860621653" y2="282.3138114667611" stroke="black" stroke-width="1"/>
<line x1="373.42029860621653" y1="282.3138114667611" x2="320.7770823184806" y2="197.2920978937999" stroke="black" stroke-width="1"/>
<line x1="320.7770823184806" y1="197.2920978937999" x2="302.40213053682396" y2="295.58940786219017" stroke="black" stroke-width="1"/>
<line x1="302.40213053682396" y1="295.58940786219017" x2="382.2038532648477" y2="235.32594422426422" stroke="black" stroke-width="1"/>
<line x1="382.2038532648477" y1="235.32594422426422" x2="282.63043563534416" y2="226.09910827793448" stroke="black" stroke-width="1"/>
<line x1="282.63043563534416" y1="226.09910827793448" x2="350.0000000000002" y2="300.0000000000001" stroke="black" stroke-width="1"/>
<line x1="550.0000000000002" y1="300.0000000000001" x2="550.0000000000002" y2="200.00000000000009" stroke="black" stroke-width="1"/>
<line x1="550.0000000000002" y1="200.00000000000009" x2="485.7212390313463" y2="276.6044443118979" stroke="black" stroke-width="1"/>
<line x1="485.7212390313463" y1="276.6044443118979" x2="584.202014332567" y2="259.2396265452048" stroke="black" stroke-width="1"/>
<line x1="584.202014332567" y1="259.2396265452048" x2="497.5994739541232" y2="209.23962654520483" stroke="black" stroke-width="1"/>
<line x1="497.5994739541232" y1="209.23962654520483" x2="531.8014882866901" y2="303.2088886237957" stroke="black" stroke-width="1"/>
<line x1="531.8014882866901" y1="303.2088886237957" x2="566.003502619257" y2="209.23962654520483" stroke="black" stroke-width="1"/>
<line x1="566.003502619257" y1="209.23962654520483" x2="479.4009622408131" y2="259.2396265452049" stroke="black" stroke-width="1"/>
<line x1="479.4009622408131" y1="259.2396265452049" x2="577.8817375420339" y2="276.6044443118979" stroke="black" stroke-width="1"/>
<line x1="577.8817375420339" y1="276.6044443118979" x2="513.6029765733799" y2="200.0000000000001" stroke="black" stroke-width="1"/>
<line x1="513.6029765733799" y1="200.0000000000001" x2="513.6029765733799" y2="300.0000000000001" stroke="black" stroke-width="1"/>
<line x1="513.6029765733799" y1="300.0000000000001" x2="577.8817375420339" y2="223.39555568810232" stroke="black" stroke-width="1"/>
<line x1="577.8817375420339" y1="223.39555568810232" x2="479.4009622408131" y2="240.76037345479534" stroke="black" stroke-width="1"/>
<line x1="479.4009622408131" y1="240.76037345479534" x2="566.003502619257" y2="290.7603734547953" stroke="black" stroke-width="1"/>
<line x1="566.003502619257" y1="290.7603734547953" x2="531.8014882866901" y2="196.79111137620447" stroke="black" stroke-width="1"/>
<line x1="531.8014882866901" y1="196.79111137620447" x2="497.59947395412325" y2="290.7603734547953" stroke="black" stroke-width="1"/>
<line x1="497.59947395412325" y1="290.7603734547953" x2="584.2020143325672" y2="240.76037345479529" stroke="black" stroke-width="1"/>
<line x1="584.2020143325672" y1="240.76037345479529" x2="485.7212390313463" y2="223.39555568810232" stroke="black" stroke-width="1"/>
<line x1="485.7212390313463" y1="223.39555568810232" x2="550.0000000000002" y2="300.0000000000001" stroke="black" stroke-width="1"/>
<line x1="550.0000000000002" y1="300.0000000000001" x2="550.0000000000002" y2="200.0000000000001" stroke="black" stroke-width="1"/>
<line x1="550.0000000000002" y1="200.0000000000001" x2="485.7212390313463" y2="276.6044443118979" stroke="black" stroke-width="1"/>
<line x1="485.7212390313463" y1="276.6044443118979" x2="584.202014332567" y2="259.2396265452049" stroke="black" stroke-width="1"/>
<line x1="584.202014332567" y1="259.2396265452049" x2="497.5994739541232" y2="209.23962654520489" stroke="black" stroke-width="1"/>
<line x1="497.5994739541232" y1="209.23962654520489" x2="531.8014882866901" y2="303.2088886237957" stroke="black" stroke-width="1"/>
<line x1="531.8014882866901" y1="303.2088886237957" x2="566.003502619257" y2="209.23962654520486" stroke="black" stroke-width="1"/>
<line x1="566.003502619257" y1="209.23962654520486" x2="479.4009622408131" y2="259.2396265452049" stroke="black" stroke-width="1"/>
<line x1="479.4009622408131" y1="259.2396265452049" x2="577.8817375420339" y2="276.60444431189796" stroke="black" stroke-width="1"/>
<line x1="577.8817375420339" y1="276.60444431189796" x2="513.6029765733799" y2="200.00000000000017" stroke="black" stroke-width="1"/>
<line x1="513.6029765733799" y1="200.00000000000017" x2="513.6029765733799" y2="300.00000000000017" stroke="black" stroke-width="1"/>
<line x1="513.6029765733799" y1="300.00000000000017" x2="577.8817375420339" y2="223.39555568810238" stroke="black" stroke-width="1"/>
<line x1="577.8817375420339" y1="223.39555568810238" x2="479.4009622408131" y2="240.7603734547954" stroke="black" stroke-width="1"/>
<line x1="479.4009622408131" y1="240.7603734547954" x2="566.003502619257" y2="290.7603734547954" stroke="black" stroke-width="1"/>
<line x1="566.003502619257" y1="290.7603734547954" x2="531.8014882866901" y2="196.79111137620453" stroke="black" stroke-width="1"/>
<line x1="531.8014882866901" y1="196.79111137620453" x2="497.59947395412325" y2="290.7603734547954" stroke="black" stroke-width="1"/>
<line x1="497.59947395412325" y1="290.7603734547954" x2="584.2020143325672" y2="240.76037345479534" stroke="black" stroke-width="1"/>
<line x1="584.2020143325672" y1="240.76037345479534" x2="485.7212390313463" y2="223.39555568810238" stroke="black" stroke-width="1"/>
<line x1="485.7212390313463" y1="223.39555568810238" x2="550.0000000000002" y2="300.00000000000017" stroke="black" stroke-width="1"/>
<line x1="750.0000000000002" y1="300.00000000000017" x2="750.0000000000002" y2="200.00000000000017" stroke="black" stroke-width="1"/>
<line x1="750.0000000000002" y1="200.00000000000017" x2="688.5787287310335" y2="278.91405093963954" stroke="black" stroke-width="1"/>
<line x1="688.5787287310335" y1="278.91405093963954" x2="785.5187553249665" y2="254.36550222555962" stroke="black" stroke-width="1"/>
<line x1="785.5187553249665" y1="254.36550222555962" x2="693.9414226594607" y2="214.19595976026267" stroke="black" stroke-width="1"/>
<line x1="693.9414226594607" y1="214.19595976026267" x2="741.5361619631681" y2="302.14333488091154" stroke="black" stroke-width="1"/>
<line x1="741.5361619631681" y1="302.14333488091154" x2="757.9956209912415" y2="203.5072045406393" stroke="black" stroke-width="1"/>
<line x1="757.9956209912415" y1="203.5072045406393" x2="684.4232299239284" y2="271.23536170321347" stroke="black" stroke-width="1"/>
<line x1="684.4232299239284" y1="271.23536170321347" x2="784.0816792245954" y2="262.9774271559802" stroke="black" stroke-width="1"/>
<line x1="784.0816792245954" y1="262.9774271559802" x2="700.3650313983426" y2="208.28261134373753" stroke="black" stroke-width="1"/>
<line x1="700.3650313983426" y1="208.28261134373753" x2="732.834978318811" y2="302.86433551380094" stroke="black" stroke-width="1"/>
<line x1="732.834978318811" y1="302.86433551380094" x2="765.3049252392792" y2="208.28261134373747" stroke="black" stroke-width="1"/>
<line x1="765.3049252392792" y1="208.28261134373747" x2="681.5882774130264" y2="262.97742715598025" stroke="black" stroke-width="1"/>
<line x1="681.5882774130264" y1="262.97742715598025" x2="781.2467267136934" y2="271.2353617032134" stroke="black" stroke-width="1"/>
<line x1="781.2467267136934" y1="271.2353617032134" x2="707.6743356463802" y2="203.50720454063935" stroke="black" stroke-width="1"/>
<line x1="707.6743356463802" y1="203.50720454063935" x2="724.1337946744536" y2="302.1433348809116" stroke="black" stroke-width="1"/>
<line x1="724.1337946744536" y1="302.1433348809116" x2="771.7285339781608" y2="214.19595976026267" stroke="black" stroke-width="1"/>
<line x1="771.7285339781608" y1="214.19595976026267" x2="680.1512013126552" y2="254.36550222555974" stroke="black" stroke-width="1"/>
<line x1="680.1512013126552" y1="254.36550222555974" x2="777.0912279065883" y2="278.91405093963954" stroke="black" stroke-width="1"/>
<line x1="777.0912279065883" y1="278.91405093963954" x2="715.6699566376215" y2="200.00000000000023" stroke="black" stroke-width="1"/>
<line x1="715.6699566376215" y1="200.00000000000023" x2="715.6699566376216" y2="300.0000000000002" stroke="black" stroke-width="1"/>
<line x1="715.6699566376216" y1="300.0000000000002" x2="777.0912279065883" y2="221.0859490603608" stroke="black" stroke-width="1"/>
<line x1="777.0912279065883" y1="221.0859490603608" x2="680.1512013126553" y2="245.6344977744408" stroke="black" stroke-width="1"/>
<line x1="680.1512013126553" y1="245.6344977744408" x2="771.7285339781611" y2="285.8040402397377" stroke="black" stroke-width="1"/>
<line x1="771.7285339781611" y1="285.8040402397377" x2="724.1337946744536" y2="197.8566651190888" stroke="black" stroke-width="1"/>
<line x1="724.1337946744536" y1="197.8566651190888" x2="707.6743356463803" y2="296.4927954593611" stroke="black" stroke-width="1"/>
<line x1="707.6743356463803" y1="296.4927954593611" x2="781.2467267136934" y2="228.76463829678687" stroke="black" stroke-width="1"/>
<line x1="781.2467267136934" y1="228.76463829678687" x2="681.5882774130264" y2="237.02257284402023" stroke="black" stroke-width="1"/>
<line x1="681.5882774130264" y1="237.02257284402023" x2="765.3049252392793" y2="291.71738865626276" stroke="black" stroke-width="1"/>
<line x1="765.3049252392793" y1="291.71738865626276" x2="732.8349783188108" y2="197.13566448619935" stroke="black" stroke-width="1"/>
<line x1="732.8349783188108" y1="197.13566448619935" x2="700.3650313983426" y2="291.71738865626287" stroke="black" stroke-width="1"/>
<line x1="700.3650313983426" y1="291.71738865626287" x2="784.0816792245954" y2="237.02257284402006" stroke="black" stroke-width="1"/>
<line x1="784.0816792245954" y1="237.02257284402006" x2="684.4232299239284" y2="228.76463829678698" stroke="black" stroke-width="1"/>
<line x1="684.4232299239284" y1="228.76463829678698" x2="757.9956209912416" y2="296.492795459361" stroke="black" stroke-width="1"/>
<line x1="757.9956209912416" y1="296.492795459361" x2="741.5361619631681" y2="197.85666511908877" stroke="black" stroke-width="1"/>
<line x1="741.5361619631681" y1="197.85666511908877" x2="693.9414226594608" y2="285.8040402397378" stroke="black" stroke-width="1"/>
<line x1="693.9414226594608" y1="285.8040402397378" x2="785.5187553249665" y2="245.63449777444066" stroke="black" stroke-width="1"/>
<line x1="785.5187553249665" y1="245.63449777444066" x2="688.5787287310334" y2="221.08594906036095" stroke="black" stroke-width="1"/>
<line x1="688.5787287310334" y1="221.08594906036095" x2="750.0000000000003" y2="300.00000000000017" stroke="black" stroke-width="1"/>
<line x1="950.0000000000003" y1="300.00000000000017" x2="950.0000000000003" y2="200.00000000000017" stroke="black" stroke-width="1"/>
<line x1="950.0000000000003" y1="200.00000000000017" x2="891.221474770753" y2="280.9016994374949" stroke="black" stroke-width="1"/>
<line x1="891.221474770753" y1="280.9016994374949" x2="986.3271264002684" y2="250.00000000000017" stroke="black" stroke-width="1"/>
<line x1="986.3271264002684" y1="250.00000000000017" x2="891.221474770753" y2="219.09830056250547" stroke="black" stroke-width="1"/>
<line x1="891.221474770753" y1="219.09830056250547" x2="950.0000000000003" y2="300.00000000000017" stroke="black" stroke-width="1"/>
<line x1="950.0000000000003" y1="300.00000000000017" x2="950.0000000000003" y2="200.00000000000017" stroke="black" stroke-width="1"/>
<line x1="950.0000000000003" y1="200.00000000000017" x2="891.221474770753" y2="280.9016994374949" stroke="black" stroke-width="1"/>
<line x1="891.221474770753" y1="280.9016994374949" x2="986.3271264002684" y2="250.00000000000017" stroke="black" stroke-width="1"/>
<line x1="986.3271264002684" y1="250.00000000000017" x2="891.221474770753" y2="219.09830056250547" stroke="black" stroke-width="1"/>
<line x1="891.221474770753" y1="219.09830056250547" x2="950.0000000000003" y2="300.00000000000017" stroke="black" stroke-width="1"/>
<line x1="950.0000000000003" y1="300.00000000000017" x2="950.0000000000003" y2="200.00000000000017" stroke="black" stroke-width="1"/>
<line x1="950.0000000000003" y1="200.00000000000017" x2="891.221474770753" y2="280.9016994374949" stroke="black" stroke-width="1"/>
<line x1="891.221474770753" y1="280.9016994374949" x2="986.3271264002684" y2="250.00000000000017" stroke="black" stroke-width="1"/>
<line x1="986.3271264002684" y1="250.00000000000017" x2="891.221474770753" y2="219.09830056250547" stroke="black" stroke-width="1"/>
<line x1="891.221474770753" y1="219.09830056250547" x2="950.0000000000003" y2="300.00000000000017" stroke="black" stroke-width="1"/>
<line x1="950.0000000000003" y1="300.00000000000017" x2="950.0000000000003" y2="200.00000000000017" stroke="black" stroke-width="1"/>
<line x1="950.0000000000003" y1="200.00000000000017" x2="891.221474770753" y2="280.9016994374949" stroke="black" stroke-width="1"/>
<line x1="891.221474770753" y1="280.9016994374949" x2="986.3271264002684" y2="250.00000000000017" stroke="black" stroke-width="1"/>
<line x1="986.3271264002684" y1="250.00000000000017" x2="891.221474770753" y2="219.09830056250547" stroke="black" stroke-width="1"/>
<line x1="891.221474770753" y1="219.09830056250547" x2="950.0000000000003" y2="300.00000000000017" stroke="black" stroke-width="1"/>
<line x1="950.0000000000003" y1="300.00000000000017" x2="950.0000000000003" y2="200.00000000000017" stroke="black" stroke-width="1"/>
<line x1="950.0000000000003" y1="200.00000000000017" x2="891.221474770753" y2="280.9016994374949" stroke="black" stroke-width="1"/>
<line x1="891.221474770753" y1="280.9016994374949" x2="986.3271264002684" y2="250.00000000000017" stroke="black" stroke-width="1"/>
<line x1="986.3271264002684" y1="250.00000000000017" x2="891.221474770753" y2="219.09830056250547" stroke="black" stroke-width="1"/>
<line x1="891.221474770753" y1="219.09830056250547" x2="950.0000000000003" y2="300.00000000000017" stroke="black" stroke-width="1"/>
<line x1="950.0000000000003" y1="300.00000000000017" x2="950.0000000000003" y2="200.00000000000017" stroke="black" stroke-width="1"/>
<line x1="950.0000000000003" y1="200.00000000000017" x2="891.221474770753" y2="280.9016994374949" stroke="black" stroke-width="1"/>
<line x1="891.221474770753" y1="280.9016994374949" x2="986.3271264002684" y2="250.00000000000017" stroke="black" stroke-width="1"/>
<line x1="986.3271264002684" y1="250.00000000000017" x2="891.221474770753" y2="219.09830056250547" stroke="black" stroke-width="1"/>
<line x1="891.221474770753" y1="219.09830056250547" x2="950.0000000000003" y2="300.00000000000017" stroke="black" stroke-width="1"/>
<line x1="950.0000000000003" y1="300.00000000000017" x2="950.0000000000003" y2="200.00000000000017" stroke="black" stroke-width="1"/>
<line x1="950.0000000000003" y1="200.00000000000017" x2="891.221474770753" y2="280.9016994374949" stroke="black" stroke-width="1"/>
<line x1="891.221474770753" y1="280.9016994374949" x2="986.3271264002684" y2="250.00000000000017" stroke="black" stroke-width="1"/>
<line x1="986.3271264002684" y1="250.00000000000017" x2="891.221474770753" y2="219.09830056250547" stroke="black" stroke-width="1"/>
<line x1="891.221474770753" y1="219.09830056250547" x2="950.0000000000003" y2="300.00000000000017" stroke="black" stroke-width="1"/>
<line x1="950.0000000000003" y1="300.00000000000017" x2="950.0000000000003" y2="200.00000000000017" stroke="black" stroke-width="1"/>
<line x1="950.0000000000003" y1="200.00000000000017" x2="891.221474770753" y2="280.9016994374949" stroke="black" stroke-width="1"/>
<line x1="891.221474770753" y1="280.9016994374949" x2="986.3271264002684" y2="250.00000000000017" stroke="black" stroke-width="1"/>
<line x1="986.3271264002684" y1="250.00000000000017" x2="891.221474770753" y2="219.09830056250547" stroke="black" stroke-width="1"/>
<line x1="891.221474770753" y1="219.09830056250547" x2="950.0000000000003" y2="300.00000000000017" stroke="black" stroke-width="1"/>
<line x1="1150.0000000000005" y1="300.00000000000017" x2="1150.0000000000005" y2="200.00000000000017" stroke="black" stroke-width="1"/>
<line x1="1150.0000000000005" y1="200.00000000000017" x2="1093.6679941936382" y2="282.6238774315997" stroke="black" stroke-width="1"/>
<line x1="1093.6679941936382" y1="282.6238774315997" x2="1186.7553690580585" y2="246.08977499496015" stroke="black" stroke-width="1"/>
<line x1="1186.7553690580585" y1="246.08977499496015" x2="1089.262577839876" y2="223.83768159932873" stroke="black" stroke-width="1"/>
<line x1="1089.262577839876" y1="223.83768159932873" x2="1157.2798516169682" y2="297.1428687823113" stroke="black" stroke-width="1"/>
<line x1="1157.2798516169682" y1="297.1428687823113" x2="1142.3756249993507" y2="198.25978615979847" stroke="black" stroke-width="1"/>
<line x1="1142.3756249993507" y1="198.25978615979847" x2="1098.9872510875948" y2="288.35667295004043" stroke="black" stroke-width="1"/>
<line x1="1098.9872510875948" y1="288.35667295004043" x2="1185.5897914660388" y2="238.35667295004035" stroke="black" stroke-width="1"/>
<line x1="1185.5897914660388" y1="238.35667295004035" x2="1085.8694117479208" y2="230.883663591398" stroke="black" stroke-width="1"/>
<line x1="1085.8694117479208" y1="230.883663591398" x2="1164.0525599947239" y2="293.2326437772713" stroke="black" stroke-width="1"/>
<line x1="1164.0525599947239" y1="293.2326437772713" x2="1134.5770425536334" y2="197.6753631986572" stroke="black" stroke-width="1"/>
<line x1="1134.5770425536334" y1="197.6753631986572" x2="1105.1015251125432" y2="293.23264377727133" stroke="black" stroke-width="1"/>
<line x1="1105.1015251125432" y1="293.23264377727133" x2="1183.284673359346" y2="230.88366359139786" stroke="black" stroke-width="1"/>
<line x1="1183.284673359346" y1="230.88366359139786" x2="1083.564293641228" y2="238.35667295004052" stroke="black" stroke-width="1"/>
<line x1="1083.564293641228" y1="238.35667295004052" x2="1170.166834019672" y2="288.3566729500403" stroke="black" stroke-width="1"/>
<line x1="1170.166834019672" y1="288.3566729500403" x2="1126.778460107916" y2="198.25978615979852" stroke="black" stroke-width="1"/>
<line x1="1126.778460107916" y1="198.25978615979852" x2="1111.8742334902986" y2="297.14286878231144" stroke="black" stroke-width="1"/>
<line x1="1111.8742334902986" y1="297.14286878231144" x2="1179.8915072673904" y2="223.83768159932862" stroke="black" stroke-width="1"/>
<line x1="1179.8915072673904" y1="223.83768159932862" x2="1082.398716049208" y2="246.08977499496032" stroke="black" stroke-width="1"/>
<line x1="1082.398716049208" y1="246.08977499496032" x2="1175.4860909136285" y2="282.62387743159957" stroke="black" stroke-width="1"/>
<line x1="1175.4860909136285" y1="282.62387743159957" x2="1119.154085107266" y2="200.00000000000023" stroke="black" stroke-width="1"/>
<line x1="1119.154085107266" y1="200.00000000000023" x2="1119.1540851072664" y2="300.0000000000002" stroke="black" stroke-width="1"/>
<line x1="1119.1540851072664" y1="300.0000000000002" x2="1175.4860909136282" y2="217.37612256840058" stroke="black" stroke-width="1"/>
<line x1="1175.4860909136282" y1="217.37612256840058" x2="1082.398716049208" y2="253.9102250050404" stroke="black" stroke-width="1"/>
<line x1="1082.398716049208" y1="253.9102250050404" x2="1179.8915072673904" y2="276.1623184006715" stroke="black" stroke-width="1"/>
<line x1="1179.8915072673904" y1="276.1623184006715" x2="1111.8742334902981" y2="202.85713121768913" stroke="black" stroke-width="1"/>
<line x1="1111.8742334902981" y1="202.85713121768913" x2="1126.778460107916" y2="301.74021384020193" stroke="black" stroke-width="1"/>
<line x1="1126.778460107916" y1="301.74021384020193" x2="1170.1668340196716" y2="211.64332704995985" stroke="black" stroke-width="1"/>
<line x1="1170.1668340196716" y1="211.64332704995985" x2="1083.5642936412278" y2="261.6433270499602" stroke="black" stroke-width="1"/>
<line x1="1083.5642936412278" y1="261.6433270499602" x2="1183.2846733593458" y2="269.1163364086022" stroke="black" stroke-width="1"/>
<line x1="1183.2846733593458" y1="269.1163364086022" x2="1105.1015251125425" y2="206.7673562227292" stroke="black" stroke-width="1"/>
<line x1="1105.1015251125425" y1="206.7673562227292" x2="1134.5770425536334" y2="302.3246368013431" stroke="black" stroke-width="1"/>
<line x1="1134.5770425536334" y1="302.3246368013431" x2="1164.0525599947232" y2="206.76735622272892" stroke="black" stroke-width="1"/>
<line x1="1164.0525599947232" y1="206.76735622272892" x2="1085.8694117479206" y2="269.11633640860265" stroke="black" stroke-width="1"/>
<line x1="1085.8694117479206" y1="269.11633640860265" x2="1185.5897914660386" y2="261.64332704995974" stroke="black" stroke-width="1"/>
<line x1="1185.5897914660386" y1="261.64332704995974" x2="1098.9872510875944" y2="211.6433270499602" stroke="black" stroke-width="1"/>
<line x1="1098.9872510875944" y1="211.6433270499602" x2="1142.3756249993507" y2="301.7402138402019" stroke="black" stroke-width="1"/>
<line x1="1142.3756249993507" y1="301.7402138402019" x2="1157.2798516169678" y2="202.85713121768896" stroke="black" stroke-width="1"/>
<line x1="1157.2798516169678" y1="202.85713121768896" x2="1089.262577839876" y2="276.16231840067195" stroke="black" stroke-width="1"/>
<line x1="1089.262577839876" y1="276.16231840067195" x2="1186.7553690580585" y2="253.91022500503996" stroke="black" stroke-width="1"/>
<line x1="1186.7553690580585" y1="253.91022500503996" x2="1093.6679941936377" y2="217.376122568401" stroke="black" stroke-width="1"/>
<line x1="1093.6679941936377" y1="217.376122568401" x2="1150.0000000000005" y2="300.0000000000001" stroke="black" stroke-width="1"/>
<line x1="1350.0000000000005" y1="300.0000000000001" x2="1350.0000000000005" y2="200.00000000000014" stroke="black" stroke-width="1"/>
<line x1="1350.0000000000005" y1="200.00000000000014" x2="1295.9359182544406" y2="284.1253532831183" stroke="black" stroke-width="1"/>
<line x1="1295.9359182544406" y1="284.1253532831183" x2="1386.8991177898924" y2="242.58385198292962" stroke="black" stroke-width="1"/>
<line x1="1386.8991177898924" y1="242.58385198292962" x2="1287.916973601799" y2="228.3523681556012" stroke="black" stroke-width="1"/>
<line x1="1287.916973601799" y1="228.3523681556012" x2="1363.491931037225" y2="293.83844155012963" stroke="black" stroke-width="1"/>
<line x1="1363.491931037225" y1="293.83844155012963" x2="1335.318675353082" y2="197.88914418867992" stroke="black" stroke-width="1"/>
<line x1="1335.318675353082" y1="197.88914418867992" x2="1307.1454196689392" y2="293.8384415501297" stroke="black" stroke-width="1"/>
<line x1="1307.1454196689392" y1="293.8384415501297" x2="1382.720377104365" y2="228.35236815560108" stroke="black" stroke-width="1"/>
<line x1="1382.720377104365" y1="228.35236815560108" x2="1283.7382329162717" y2="242.5838519829297" stroke="black" stroke-width="1"/>
<line x1="1283.7382329162717" y1="242.5838519829297" x2="1374.7014324517236" y2="284.1253532831182" stroke="black" stroke-width="1"/>
<line x1="1374.7014324517236" y1="284.1253532831182" x2="1320.6373507061637" y2="200.00000000000023" stroke="black" stroke-width="1"/>
<line x1="1320.6373507061637" y1="200.00000000000023" x2="1320.637350706164" y2="300.0000000000002" stroke="black" stroke-width="1"/>
<line x1="1320.637350706164" y1="300.0000000000002" x2="1374.7014324517236" y2="215.874646716882" stroke="black" stroke-width="1"/>
<line x1="1374.7014324517236" y1="215.874646716882" x2="1283.7382329162717" y2="257.4161480170708" stroke="black" stroke-width="1"/>
<line x1="1283.7382329162717" y1="257.4161480170708" x2="1382.720377104365" y2="271.64763184439914" stroke="black" stroke-width="1"/>
<line x1="1382.720377104365" y1="271.64763184439914" x2="1307.145419668939" y2="206.16155844987082" stroke="black" stroke-width="1"/>
<line x1="1307.145419668939" y1="206.16155844987082" x2="1335.3186753530822" y2="302.11085581132045" stroke="black" stroke-width="1"/>
<line x1="1335.3186753530822" y1="302.11085581132045" x2="1363.491931037225" y2="206.16155844987065" stroke="black" stroke-width="1"/>
<line x1="1363.491931037225" y1="206.16155844987065" x2="1287.9169736017993" y2="271.64763184439937" stroke="black" stroke-width="1"/>
<line x1="1287.9169736017993" y1="271.64763184439937" x2="1386.8991177898924" y2="257.41614801707055" stroke="black" stroke-width="1"/>
<line x1="1386.8991177898924" y1="257.41614801707055" x2="1295.9359182544404" y2="215.8746467168822" stroke="black" stroke-width="1"/>
<line x1="1295.9359182544404" y1="215.8746467168822" x2="1350.0000000000005" y2="300.00000000000017" stroke="black" stroke-width="1"/>
<line x1="1350.0000000000005" y1="300.00000000000017" x2="1350.0000000000002" y2="200.00000000000017" stroke="black" stroke-width="1"/>
<line x1="1350.0000000000002" y1="200.00000000000017" x2="1295.9359182544408" y2="284.12535328311844" stroke="black" stroke-width="1"/>
<line x1="1295.9359182544408" y1="284.12535328311844" x2="1386.8991177898924" y2="242.5838519829295" stroke="black" stroke-width="1"/>
<line x1="1386.8991177898924" y1="242.5838519829295" x2="1287.916973601799" y2="228.35236815560128" stroke="black" stroke-width="1"/>
<line x1="1287.916973601799" y1="228.35236815560128" x2="1363.4919310372252" y2="293.8384415501296" stroke="black" stroke-width="1"/>
<line x1="1363.4919310372252" y1="293.8384415501296" x2="1335.318675353082" y2="197.8891441886799" stroke="black" stroke-width="1"/>
<line x1="1335.318675353082" y1="197.8891441886799" x2="1307.1454196689392" y2="293.83844155012974" stroke="black" stroke-width="1"/>
<line x1="1307.1454196689392" y1="293.83844155012974" x2="1382.7203771043648" y2="228.35236815560097" stroke="black" stroke-width="1"/>
<line x1="1382.7203771043648" y1="228.35236815560097" x2="1283.7382329162715" y2="242.5838519829298" stroke="black" stroke-width="1"/>
<line x1="1283.7382329162715" y1="242.5838519829298" x2="1374.7014324517236" y2="284.1253532831181" stroke="black" stroke-width="1"/>
<line x1="1374.7014324517236" y1="284.1253532831181" x2="1320.6373507061635" y2="200.0000000000002" stroke="black" stroke-width="1"/>
<line x1="1320.6373507061635" y1="200.0000000000002" x2="1320.637350706164" y2="300.0000000000002" stroke="black" stroke-width="1"/>
<line x1="1320.637350706164" y1="300.0000000000002" x2="1374.7014324517233" y2="215.8746467168819" stroke="black" stroke-width="1"/>
<line x1="1374.7014324517233" y1="215.8746467168819" x2="1283.7382329162717" y2="257.41614801707084" stroke="black" stroke-width="1"/>
<line x1="1283.7382329162717" y1="257.41614801707084" x2="1382.720377104365" y2="271.647631844399" stroke="black" stroke-width="1"/>
<line x1="1382.720377104365" y1="271.647631844399" x2="1307.145419668939" y2="206.16155844987077" stroke="black" stroke-width="1"/>
<line x1="1307.145419668939" y1="206.16155844987077" x2="1335.3186753530824" y2="302.1108558113204" stroke="black" stroke-width="1"/>
<line x1="1335.3186753530824" y1="302.1108558113204" x2="1363.491931037225" y2="206.16155844987054" stroke="black" stroke-width="1"/>
<line x1="1363.491931037225" y1="206.16155844987054" x2="1287.9169736017996" y2="271.6476318443994" stroke="black" stroke-width="1"/>
<line x1="1287.9169736017996" y1="271.6476318443994" x2="1386.8991177898927" y2="257.4161480170704" stroke="black" stroke-width="1"/>
<line x1="1386.8991177898927" y1="257.4161480170704" x2="1295.9359182544406" y2="215.87464671688218" stroke="black" stroke-width="1"/>
<line x1="1295.9359182544406" y1="215.87464671688218" x2="1350.0000000000007" y2="300.00000000000006" stroke="black" stroke-width="1"/>
</svg>
