<svg width="200" height="200" xmlns="http://www.w3.org/2000/svg">
<line x1="77" y1="127" x2="61.01191876526107" y2="90.33419497090799" stroke="black" stroke-width="1"/>
<line x1="118" y1="193" x2="147.46932721635915" y2="165.95265718383496" stroke="black" stroke-width="1"/>
<line x1="123" y1="107" x2="84.26720292689748" y2="116.98851494937362" stroke="black" stroke-width="1"/>
<line x1="140" y1="182" x2="128.039540991427" y2="143.83001938297264" stroke="black" stroke-width="1"/>
<line x1="186" y1="147" x2="146.17089767865855" y2="150.69359016082097" stroke="black" stroke-width="1"/>
<line x1="139" y1="137" x2="104.6304005395461" y2="116.53709128867631" stroke="black" stroke-width="1"/>
<line x1="132" y1="113" x2="92.48585356567281" y2="106.78451678736496" stroke="black" stroke-width="1"/>
<line x1="157" y1="48" x2="118.68767725665396" y2="59.4963440279808" stroke="black" stroke-width="1"/>
<line x1="79" y1="37" x2="103.01024957045504" y2="68.99231025675488" stroke="black" stroke-width="1"/>
<line x1="153" y1="148" x2="125.8693165781884" y2="118.60738158881661" stroke="black" stroke-width="1"/>
<line x1="34" y1="160" x2="3.6411736714012477" y2="133.9550069312741" stroke="black" stroke-width="1"/>
<line x1="30" y1="59" x2="57.6933461314271" y2="87.86310066581503" stroke="black" stroke-width="1"/>
<line x1="175" y1="23" x2="141.07080445213205" y2="1.814871030023511" stroke="black" stroke-width="1"/>
<line x1="25" y1="156" x2="64.96758338672967" y2="157.6100553483687" stroke="black" stroke-width="1"/>
<line x1="51" y1="1" x2="70.88872837031458" y2="35.70502101730877" stroke="black" stroke-width="1"/>
<line x1="155" y1="20" x2="118.26825988226113" y2="4.163988257048635" stroke="black" stroke-width="1"/>
<line x1="180" y1="155" x2="167.49710289923257" y2="192.99575718534402" stroke="black" stroke-width="1"/>
<line x1="1" y1="37" x2="40.960966668013846" y2="35.23332432011812" stroke="black" stroke-width="1"/>
<line x1="117" y1="19" x2="155.264752862536" y2="7.346301515439691" stroke="black" stroke-width="1"/>
<line x1="144" y1="33" x2="183.5325001465335" y2="39.097657924509164" stroke="black" stroke-width="1"/>
<line x1="82" y1="93" x2="54.352352818883226" y2="121.90687816677003" stroke="black" stroke-width="1"/>
<line x1="191" y1="31" x2="163.50604458161587" y2="60.05309648646605" stroke="black" stroke-width="1"/>
<line x1="164" y1="13" x2="129.69951601526367" y2="33.578551902717706" stroke="black" stroke-width="1"/>
<line x1="71" y1="93" x2="51.91304718015378" y2="128.1523574181443" stroke="black" stroke-width="1"/>
<line x1="29" y1="17" x2="68.99997185928117" y2="17.047447409990298" stroke="black" stroke-width="1"/>
<line x1="109" y1="129" x2="121.45937009378807" y2="90.98994742352993" stroke="black" stroke-width="1"/>
<line x1="106" y1="110" x2="126.56165623386808" y2="144.31061487237199" stroke="black" stroke-width="1"/>
<line x1="200" y1="197" x2="161.35124075629847" y2="186.69110049896716" stroke="black" stroke-width="1"/>
<line x1="42" y1="33" x2="11.438401138366906" y2="7.193243616823388" stroke="black" stroke-width="1"/>
<line x1="110" y1="3" x2="142.4105116970372" y2="26.442669036101975" stroke="black" stroke-width="1"/>
<line x1="33" y1="107" x2="60.17833442720243" y2="77.65143721128507" stroke="black" stroke-width="1"/>
<line x1="95" y1="165" x2="134.9923587619333" y2="165.78181881329135" stroke="black" stroke-width="1"/>
<line x1="190" y1="37" x2="152.4887882329072" y2="23.11083185484744" stroke="black" stroke-width="1"/>
<line x1="76" y1="41" x2="57.9229700698051" y2="5.317777691084906" stroke="black" stroke-width="1"/>
<line x1="32" y1="120" x2="52.71986762690803" y2="154.21530484335057" stroke="black" stroke-width="1"/>
<line x1="93" y1="164" x2="53.45929543704384" y2="157.9557727818175" stroke="black" stroke-width="1"/>
<line x1="188" y1="184" x2="148.30824503271262" y2="188.95626750860143" stroke="black" stroke-width="1"/>
<line x1="60" y1="147" x2="92.79372762324513" y2="124.09647562988593" stroke="black" stroke-width="1"/>
<line x1="24" y1="73" x2="10.579562498800449" y2="35.31854756944212" stroke="black" stroke-width="1"/>
<line x1="112" y1="155" x2="101.92867640874275" y2="116.28865229522246" stroke="black" stroke-width="1"/>
<line x1="92" y1="31" x2="52.47457414725079" y2="24.856653097958358" stroke="black" stroke-width="1"/>
<line x1="89" y1="82" x2="127.83370627726029" y2="91.58870464512671" stroke="black" stroke-width="1"/>
<line x1="136" y1="6" x2="126.5539655739734" y2="44.8686561849303" stroke="black" stroke-width="1"/>
<line x1="139" y1="144" x2="173.556333233901" y2="164.14596320426472" stroke="black" stroke-width="1"/>
<line x1="143" y1="94" x2="176.68025819209038" y2="115.57869801712162" stroke="black" stroke-width="1"/>
<line x1="42" y1="37" x2="81.63310592933271" y2="42.40526728241002" stroke="black" stroke-width="1"/>
<line x1="182" y1="0" x2="143.35433963136148" y2="10.320510388146593" stroke="black" stroke-width="1"/>
<line x1="126" y1="10" x2="86.58696354522297" y2="3.172661029770298" stroke="black" stroke-width="1"/>
<line x1="26" y1="117" x2="48.50692961141873" y2="83.93282413832952" stroke="black" stroke-width="1"/>
<line x1="104" y1="107" x2="74.75321206367687" y2="134.28782503989177" stroke="black" stroke-width="1"/>
<circle cx="68.38262383064178" cy="107.23758887329726" r="2" stroke="black" stroke-width="1" fill="black"/>
<circle cx="66.105201720664" cy="102.01472855457729" r="2" stroke="black" stroke-width="1" fill="black"/>
<circle cx="137.76307263452225" cy="174.86118750787233" r="2" stroke="black" stroke-width="1" fill="black"/>
<circle cx="111.95824025081164" cy="109.84747786517974" r="2" stroke="black" stroke-width="1" fill="black"/>
<circle cx="115.58457305424143" cy="108.91230968328732" r="2" stroke="black" stroke-width="1" fill="black"/>
<circle cx="106.7183840014716" cy="111.1987456907468" r="2" stroke="black" stroke-width="1" fill="black"/>
<circle cx="96.74255433259513" cy="113.77133872067736" r="2" stroke="black" stroke-width="1" fill="black"/>
<circle cx="134.91761946181742" cy="165.78035771940412" r="2" stroke="black" stroke-width="1" fill="black"/>
<circle cx="149.88991873167453" cy="150.34870316190037" r="2" stroke="black" stroke-width="1" fill="black"/>
<circle cx="111.70462932351532" cy="120.74893256939716" r="2" stroke="black" stroke-width="1" fill="black"/>
<circle cx="112.85044078774503" cy="121.4311236848304" r="2" stroke="black" stroke-width="1" fill="black"/>
<circle cx="115.11525463818339" cy="110.34406887618307" r="2" stroke="black" stroke-width="1" fill="black"/>
<circle cx="102.53651288813873" cy="108.36546209257422" r="2" stroke="black" stroke-width="1" fill="black"/>
<circle cx="29.55118661276253" cy="156.1833401403432" r="2" stroke="black" stroke-width="1" fill="black"/>
<circle cx="54.14578598143539" cy="84.16569316434139" r="2" stroke="black" stroke-width="1" fill="black"/>
<circle cx="151.67879706242934" cy="8.438420098395914" r="2" stroke="black" stroke-width="1" fill="black"/>
<circle cx="161.44214813121658" cy="14.534581478927446" r="2" stroke="black" stroke-width="1" fill="black"/>
<circle cx="151.29627713130554" cy="8.199577592890256" r="2" stroke="black" stroke-width="1" fill="black"/>
<circle cx="60.190471056792106" cy="17.0369977027291" r="2" stroke="black" stroke-width="1" fill="black"/>
<circle cx="65.8644192486971" cy="26.93780622023563" r="2" stroke="black" stroke-width="1" fill="black"/>
<circle cx="137.90960946133254" cy="12.631886635524209" r="2" stroke="black" stroke-width="1" fill="black"/>
<circle cx="153.44777972883332" cy="19.33079733323137" r="2" stroke="black" stroke-width="1" fill="black"/>
<circle cx="134.72224302493981" cy="11.257729784963558" r="2" stroke="black" stroke-width="1" fill="black"/>
<circle cx="168.90841294617837" cy="188.70684770901946" r="2" stroke="black" stroke-width="1" fill="black"/>
<circle cx="169.70554122888984" cy="186.28440973873367" r="2" stroke="black" stroke-width="1" fill="black"/>
<circle cx="11.02063896436448" cy="36.556987214491244" r="2" stroke="black" stroke-width="1" fill="black"/>
<circle cx="127.64043766976327" cy="15.759407991144128" r="2" stroke="black" stroke-width="1" fill="black"/>
<circle cx="134.10682970946684" cy="13.79003990494785" r="2" stroke="black" stroke-width="1" fill="black"/>
<circle cx="183.36181855622587" cy="39.071331283192535" r="2" stroke="black" stroke-width="1" fill="black"/>
<circle cx="56.5542254279593" cy="119.60471976492302" r="2" stroke="black" stroke-width="1" fill="black"/>
<circle cx="186.53582623716434" cy="35.71733037645401" r="2" stroke="black" stroke-width="1" fill="black"/>
<circle cx="142.0401592441206" cy="26.17479143942624" r="2" stroke="black" stroke-width="1" fill="black"/>
<circle cx="63.86227010661791" cy="17.04135313966621" r="2" stroke="black" stroke-width="1" fill="black"/>
<circle cx="111.96521170030269" cy="119.95396863722155" r="2" stroke="black" stroke-width="1" fill="black"/>
<circle cx="162.9766206196635" cy="187.12464294613292" r="2" stroke="black" stroke-width="1" fill="black"/>
<circle cx="132.73304333932495" cy="19.442912600971813" r="2" stroke="black" stroke-width="1" fill="black"/>
<circle cx="117.68688282971532" cy="8.559956960284115" r="2" stroke="black" stroke-width="1" fill="black"/>
<circle cx="69.13332736150291" cy="27.445885161691677" r="2" stroke="black" stroke-width="1" fill="black"/>
</svg>
