<svg width="200" height="200" xmlns="http://www.w3.org/2000/svg">
<line x1="127" y1="1" x2="141.25111560491152" y2="15.032309290186253" stroke="black" stroke-width="1"/>
<line x1="142" y1="194" x2="161.70757299621602" y2="197.4075748852839" stroke="black" stroke-width="1"/>
<line x1="54" y1="23" x2="71.34522007696289" y2="32.95707489585789" stroke="black" stroke-width="1"/>
<line x1="30" y1="189" x2="46.75334990792962" y2="178.07638947680417" stroke="black" stroke-width="1"/>
<line x1="196" y1="193" x2="186.62585815428355" y2="175.33292710559024" stroke="black" stroke-width="1"/>
<line x1="136" y1="17" x2="120.52144229940205" y2="4.334525215797873" stroke="black" stroke-width="1"/>
<line x1="12" y1="21" x2="29.868203695085974" y2="29.984837044204863" stroke="black" stroke-width="1"/>
<line x1="38" y1="173" x2="51.1187468069707" y2="157.90369309352133" stroke="black" stroke-width="1"/>
<line x1="170" y1="77" x2="152.00121748740472" y2="68.27968876333568" stroke="black" stroke-width="1"/>
<line x1="200" y1="164" x2="192.96163101791282" y2="145.27938670684122" stroke="black" stroke-width="1"/>
<line x1="102" y1="98" x2="84.44731524070072" y2="107.58661868130065" stroke="black" stroke-width="1"/>
<line x1="68" y1="82" x2="81.22007497763332" y2="97.00765196777144" stroke="black" stroke-width="1"/>
<line x1="78" y1="129" x2="58.461991345016415" y2="133.27389960080797" stroke="black" stroke-width="1"/>
<line x1="8" y1="136" x2="26.391114953607865" y2="143.85919148279143" stroke="black" stroke-width="1"/>
<line x1="136" y1="174" x2="116.31056487045916" y2="177.51086090291304" stroke="black" stroke-width="1"/>
<line x1="54" y1="110" x2="34.102901947668734" y2="107.97379934460692" stroke="black" stroke-width="1"/>
<line x1="165" y1="115" x2="184.90963893868218" y2="113.10097990234156" stroke="black" stroke-width="1"/>
<line x1="41" y1="139" x2="60.968605465077246" y2="137.87982332639564" stroke="black" stroke-width="1"/>
<line x1="98" y1="7" x2="117.08965736639955" y2="1.0346851186657897" stroke="black" stroke-width="1"/>
<line x1="120" y1="76" x2="133.51512352894176" y2="61.257495599544676" stroke="black" stroke-width="1"/>
<line x1="122" y1="74" x2="102.04355137084265" y2="72.68084947340961" stroke="black" stroke-width="1"/>
<line x1="29" y1="62" x2="41.90879794755174" y2="77.27622124575589" stroke="black" stroke-width="1"/>
<line x1="192" y1="84" x2="182.9094249649402" y2="101.81464132481896" stroke="black" stroke-width="1"/>
<line x1="128" y1="164" x2="147.1438761142994" y2="169.78895563295814" stroke="black" stroke-width="1"/>
<line x1="177" y1="3" x2="176.22360238026462" y2="22.98492448662414" stroke="black" stroke-width="1"/>
<line x1="101" y1="139" x2="85.1656942488739" y2="151.21780509665524" stroke="black" stroke-width="1"/>
<line x1="21" y1="167" x2="1.082262786575889" y2="165.18788954614232" stroke="black" stroke-width="1"/>
<line x1="16" y1="52" x2="18.497898386084586" y2="32.15660050160769" stroke="black" stroke-width="1"/>
<line x1="118" y1="186" x2="98.01793540006898" y2="185.15318577941596" stroke="black" stroke-width="1"/>
<line x1="118" y1="116" x2="100.21606297984792" y2="106.84950361656459" stroke="black" stroke-width="1"/>
<line x1="77" y1="33" x2="72.61820279549373" y2="13.485906291641903" stroke="black" stroke-width="1"/>
<line x1="170" y1="153" x2="152.9019927999847" y2="163.37584453373435" stroke="black" stroke-width="1"/>
<line x1="148" y1="153" x2="128.84798789946603" y2="158.76198164705514" stroke="black" stroke-width="1"/>
<line x1="94" y1="49" x2="103.38019513439107" y2="66.66385969262511" stroke="black" stroke-width="1"/>
<line x1="30" y1="77" x2="10.604050377968232" y2="72.1217689415521" stroke="black" stroke-width="1"/>
<line x1="199" y1="54" x2="191.87431293281503" y2="35.3124484262771" stroke="black" stroke-width="1"/>
<line x1="53" y1="61" x2="52.198742952100325" y2="80.98394323308568" stroke="black" stroke-width="1"/>
<line x1="7" y1="68" x2="4.882958902564398" y2="48.112362206843954" stroke="black" stroke-width="1"/>
<line x1="145" y1="85" x2="160.61774017397158" y2="97.49344595611291" stroke="black" stroke-width="1"/>
<line x1="61" y1="101" x2="42.2081266257081" y2="94.15416220725476" stroke="black" stroke-width="1"/>
<line x1="177" y1="139" x2="193.84588072178883" y2="149.78036653863234" stroke="black" stroke-width="1"/>
<line x1="155" y1="138" x2="158.9792436421298" y2="157.6001433677555" stroke="black" stroke-width="1"/>
<line x1="45" y1="58" x2="25.157060622367982" y2="55.49844910992786" stroke="black" stroke-width="1"/>
<line x1="91" y1="60" x2="95.58066397377911" y2="79.46837223702389" stroke="black" stroke-width="1"/>
<line x1="13" y1="96" x2="26.76410318911832" y2="110.51032264973122" stroke="black" stroke-width="1"/>
<line x1="155" y1="165" x2="159.63610042553714" y2="184.4552453812419" stroke="black" stroke-width="1"/>
<line x1="12" y1="62" x2="24.519417892313243" y2="77.5969284039399" stroke="black" stroke-width="1"/>
<line x1="15" y1="5" x2="34.63486172937169" y2="1.1957648773432723" stroke="black" stroke-width="1"/>
<line x1="200" y1="95" x2="196.0470517293511" y2="75.39453647654375" stroke="black" stroke-width="1"/>
<line x1="189" y1="11" x2="181.9982048250667" y2="29.734323161733933" stroke="black" stroke-width="1"/>
<circle cx="121.8430045061546" cy="73.98962236757515" r="2" stroke="black" stroke-width="1" fill="black"/>
<circle cx="22.532779307032648" cy="75.12193635194117" r="2" stroke="black" stroke-width="1" fill="black"/>
</svg>
